<svg height="129" viewBox="0 0 315 129" width="315" xmlns="http://www.w3.org/2000/svg"><g fill="none" fill-rule="evenodd"><path d="m0 0h315v129h-315z" fill="#fff"/><g fill-rule="nonzero" transform="translate(28 21)"><g fill="#000"><path d="m9.631908 4.29h-1.633632l-1.055054 3.760757h-3.556553l-1.072071-3.760757h-1.497496l3.828825 11.74173h1.157156zm-3.012009 4.883879-.918918 3.216213c-.124839.431145-.232518.842413-.323323 1.233804s-.141856.717431-.153153.978406h-.034034c-.011297-.260975-.065208-.581438-.16159-.961389-.096525-.380094-.207064-.785642-.331903-1.216787l-.969969-3.250247zm9.886877-4.883879h-1.259258v.918918h-.034034c-.034034-.068068-.107822-.16731-.221221-.297726-.113399-.130559-.258115-.255255-.433862-.374374-.17589-.119119-.388674-.224081-.638209-.314886s-.527527-.136136-.833833-.136136c-.363077 0-.689117.053911-.978406.16159-.289289.107822-.536107.280852-.740311.51909s-.360217.547404-.467896.927498c-.107822.379951-.161733.84799-.161733 1.403831v5.360355h1.378377v-5.258253c0-.68068.110682-1.165593.331903-1.455025.221221-.289146.564278-.433862 1.029457-.433862.397111 0 .731731.099242 1.004003.297869.272272.198484.487773.394108.646646.587015v6.262256h1.378377zm5.632627 6.517511c-.090805.102102-.255255.241098-.493493.416988-.238238.175747-.550264.263692-.935935.263692-.363077 0-.640926-.085085-.833833-.255255s-.289289-.374374-.289289-.612612c0-.306306.087945-.558701.263835-.757185.175747-.198627.445159-.411268.808236-.638209l.51051-.306306c.555841-.329043.992706-.68354 1.310309-1.063491.317603-.380094.476476-.870727.476476-1.472042 0-.646646-.224081-1.19119-.6721-1.633632-.448162-.442442-1.091948-.663663-1.931501-.663663-.329043 0-.618332.034034-.867867.102102s-.468039.147433-.655083.238238c-.187187.090805-.3432.190047-.468039.297726-.124839.107822-.226941.207064-.306306.297869l.663663 1.089088c.068068-.068068.150293-.147433.246818-.238238.096382-.090805.212641-.178607.348777-.263692s.289289-.156013.459459-.212784.368654-.085085.595595-.085085c.408408 0 .720434.090805.935935.272272s.323323.402688.323323.663663c0 .192907-.025454.360217-.076505.502073-.051051.141713-.127699.269412-.229801.382811s-.226941.221221-.374374.323323-.317603.215501-.51051.34034l-.51051.323323c-.51051.329043-.910481.67496-1.199627 1.038037-.289289.363077-.434005.828113-.434005 1.395394 0 .306306.059631.587158.17875.842413.119119.255112.286429.476333.50193.663663.215501.187187.468039.33462.757328.442442.289289.107679.598312.16159.927355.16159.317603 0 .589875-.031174.816816-.093522.226941-.062491.422565-.141856.587158-.238238.16445-.096525.300586-.192907.408408-.289289.107679-.096525.195624-.17875.263692-.246818zm11.775764 1.650649-2.484482-8.16816h-1.225224l-.833833 2.858856c-.124839.408408-.229658.788502-.314743 1.140139s-.138996.6864-.161733 1.004003h-.034034c-.022737-.317603-.085085-.657943-.187187-1.02102s-.221221-.743028-.357357-1.140139l-.935935-2.841839h-1.174173l-2.569567 8.16816h1.480479l1.225224-4.628624c.113399-.431145.212784-.830973.297869-1.199627.085085-.368797.133276-.717574.144573-1.046617h.034034c.034034.329043.104962.672243.212784 1.0296.107679.357357.229658.745888.365794 1.165593l.884884 2.671669-.612612 2.008006h1.429428l1.242241-4.509505c.124839-.465179.238238-.901901.34034-1.310309s.158873-.760045.17017-1.055054h.034034c.022737.295009.079365.649506.17017 1.063634.090805.413985.198484.84799.323323 1.301729l1.208207 4.509505zm.731731-6.092086c0 .476476.090805.873587.272272 1.19119s.425425.575718.731731.774345c.306306.198484.666523.34034 1.080651.425425.413985.085085.853567.127556 1.318746.127556h.425425v.782782c0 .691977-.121979 1.168453-.365794 1.429428-.243958.260975-.587158.391391-1.0296.391391-.408408 0-.748748-.087945-1.02102-.263692-.272272-.17589-.487773-.331903-.646646-.468039l-.578578.918918c.090805.090805.207064.192907.34892.306306.141713.113399.314743.221221.518947.323323s.436722.187187.697697.255255.555841.102102.884884.102102c.839553 0 1.474759-.232518 1.905904-.697697s.646646-1.213927.646646-2.246244v-3.726723c0-.351637.011297-.694837.034034-1.029457.022737-.334763.045331-.558844.068068-.672243h-1.310309l-.051051.901901h-.034034c-.045331-.102102-.113399-.218361-.204204-.348777-.090805-.130559-.204204-.249678-.34034-.3575-.136136-.107679-.300586-.201344-.493493-.280709s-.419705-.119119-.68068-.119119c-.306306 0-.592735.056771-.859287.17017-.266695.113399-.499213.272272-.697697.476476-.198627.204204-.35178.445302-.459459.723294-.107822.277849-.161733.581295-.161733.910338zm2.467465-1.106105c.192907 0 .363077.028314.51051.085085s.275132.124839.382954.204204c.107679.079365.198484.16731.272272.263835.073645.096382.138853.178607.195624.246675v1.803802l-.442442-.017017c-.657943-.022737-1.157156-.136136-1.497496-.34034s-.51051-.533247-.51051-.986986c0-.419705.096382-.734591.289289-.944372.192907-.209924.459459-.314886.799799-.314886zm-.323323 9.546537c0-.260975-.079365-.470756-.238238-.629629s-.351637-.238238-.578578-.238238-.419705.079365-.578578.238238-.238238.368654-.238238.629629.079365.470756.238238.629629.351637.238238.578578.238238.419705-.079365.578578-.238238.238238-.368654.238238-.629629zm2.620618 0c0-.260975-.079365-.470756-.238238-.629629s-.351637-.238238-.578578-.238238-.419705.079365-.578578.238238-.238238.368654-.238238.629629.079365.470756.238238.629629.351637.238238.578578.238238.419705-.079365.578578-.238238.238238-.368654.238238-.629629zm6.092086-3.556553c-.034034.022737-.107822.051051-.221221.085085s-.266552.051051-.459459.051051c-.431145 0-.768625-.116259-1.01244-.348777-.243958-.232661-.416988-.485056-.51909-.757328v-5.989984h-1.378377v8.16816h1.259258v-1.106105h.034034c.056771.158873.130416.314886.221221.468039s.204204.289289.34034.408408.297726.212641.484913.280709c.18733.068068.411268.102102.672243.102102.192907 0 .34892-.017017.468039-.051051s.212641-.062348.280709-.085085zm4.849845.085085h-1.786785v-4.526522c0-.578578.073788-.972829.221221-1.18261.147433-.209924.397111-.314886.748748-.314886.204204 0 .380094.028314.527527.085085s.255255.107822.323323.153153l.187187-1.106105c-.056771-.045331-.192907-.116259-.408408-.212784-.215501-.096382-.50479-.144573-.867867-.144573-.703417 0-1.230944.195624-1.582581.587158-.351637.391248-.527527 1.040754-.527527 1.948375v4.713709h-.986986v.918918l.986986.204204.153153 2.280278h1.225224v-2.280278h1.956955zm2.943941-7.045038h-1.378377v8.16816h1.378377zm-.68068 10.142132c-.283569 0-.51051.090805-.68068.272272s-.255255.419705-.255255.714714c0 .283569.085085.51623.255255.697697s.397111.272272.68068.272272c.272272 0 .493493-.090805.663663-.272272s.255255-.414128.255255-.697697c0-.295009-.085085-.533247-.255255-.714714s-.391391-.272272-.663663-.272272zm8.644636-3.046043h-1.02102c.260975-.431145.391391-.918918.391391-1.463462 0-.431145-.070928-.819676-.212641-1.165593-.141856-.34606-.34034-.638209-.595595-.876447s-.555984-.419705-.901901-.544544c-.34606-.124839-.717574-.187187-1.114685-.187187-.079365 0-.153153 0-.221221 0s-.141856.00572-.221221.017017c-.136136-.056771-.277992-.147433-.425425-.272272s-.221221-.289289-.221221-.493493c0-.17017.065208-.309166.195767-.416845.130416-.107822.343057-.161733.638066-.161733h1.038037c.385671 0 .743028-.039754 1.072071-.119119s.615472-.207064.85943-.382811c.243815-.17589.433862-.399971.569998-.672243s.204204-.601315.204204-.986986c0-.442442-.093522-.84513-.280709-1.208207s-.451022-.67496-.791362-.935935-.754468-.465179-1.242241-.612612-1.032317-.221221-1.633632-.221221c-.873587 0-1.53725.190047-1.990989.569998-.453739.380094-.68068.927498-.68068 1.642212 0 .306306.053911.569998.161733.791219.107679.221221.235378.414128.382811.578578.147433.164593.297869.295009.451022.391534.15301.096382.274989.172887.365794.229658v.034034c-.351637.260975-.527527.640926-.527527 1.140139 0 .215501.042614.402688.127699.561561s.181467.289289.289289.391391c.107679.102102.215501.184327.323323.246818.107679.062348.189904.104819.246675.127556v.034034c-.419705.192907-.757185.496353-1.01244.910481-.255255.413985-.382954.944372-.382954 1.591018 0 .453739.073788.85371.221221 1.199627.147433.34606.34606.632489.595595.85943s.541684.397111.876447.51051c.33462.113399.694837.17017 1.080508.17017s.748748-.068068 1.089088-.204204h2.484482zm-3.794791-6.840834c-.238238 0-.448162.017017-.629629.051051-.102102-.056771-.201344-.124839-.297726-.204204-.096525-.079365-.18447-.17589-.263835-.289289s-.144573-.246675-.195624-.399971c-.051051-.153153-.076648-.33176-.076648-.535964 0-.873587.482196-1.310309 1.446445-1.310309.828113 0 1.440725.16159 1.837836.484913s.595595.69498.595595 1.114685c0 .397111-.124839.67782-.374374.842413-.249535.16445-.584298.246675-1.004003.246675zm1.820819 5.377372c0 .589875-.138996 1.009723-.416845 1.259258-.277992.249535-.604175.374374-.978549.374374-.397111 0-.737451-.124839-1.02102-.374374s-.425425-.669383-.425425-1.259258.141856-1.009723.425425-1.259258.612612-.374374.986986-.374374c.397111 0 .734591.124839 1.012583.374374.277849.249535.416845.669383.416845 1.259258zm8.67867-.221221c0-.351637-.011297-.655083-.034034-.910338s-.045331-.479336-.068068-.672243h-4.169165c.045331-.964249.252395-1.673386.621192-2.127125.368654-.453739.899041-.68068 1.591018-.68068.238238 0 .453739.028314.646646.085085s.360217.124839.502073.204204c.141713.079365.260832.158873.357357.238238.096382.079365.16731.141856.212641.187187l.51051-.969969c-.056771-.056771-.141856-.138996-.255255-.246675-.113399-.107822-.266552-.215644-.459459-.323466-.192907-.107679-.431145-.201344-.714714-.280709s-.618332-.119119-1.004003-.119119c-.51051 0-.972829.085085-1.386814.255255-.414128.17017-.765765.434005-1.055054.791362s-.51337.811096-.672243 1.36136c-.158873.550121-.238238 1.210924-.238238 1.982409 0 .726011.082225 1.352923.246818 1.88045.16445.527527.388531.961389.6721 1.301729s.612612.592735.986986.757328c.374374.16445.777062.246675 1.208207.246675.782782 0 1.395394-.246675 1.837836-.740168s.663663-1.233804.663663-2.22079zm-2.586584 1.837836c-.487773 0-.879164-.204204-1.174173-.612612s-.465179-.998283-.51051-1.769768h2.977975c.011297.056771.019877.138996.025597.246818.005577.107679.008437.223938.008437.348777 0 .567281-.113399 1.006863-.34034 1.318889-.226941.311883-.555841.467896-.986986.467896zm7.946939-.731731c-.090805.102102-.255255.241098-.493493.416988-.238238.175747-.550264.263692-.935935.263692-.363077 0-.640926-.085085-.833833-.255255s-.289289-.374374-.289289-.612612c0-.306306.087945-.558701.263835-.757185.175747-.198627.445159-.411268.808236-.638209l.51051-.306306c.555841-.329043.992706-.68354 1.310309-1.063491.317603-.380094.476476-.870727.476476-1.472042 0-.646646-.224081-1.19119-.6721-1.633632-.448162-.442442-1.091948-.663663-1.931501-.663663-.329043 0-.618332.034034-.867867.102102s-.468039.147433-.655083.238238c-.187187.090805-.3432.190047-.468039.297726-.124839.107822-.226941.207064-.306306.297869l.663663 1.089088c.068068-.068068.150293-.147433.246818-.238238.096382-.090805.212641-.178607.348777-.263692s.289289-.156013.459459-.212784.368654-.085085.595595-.085085c.408408 0 .720434.090805.935935.272272s.323323.402688.323323.663663c0 .192907-.025454.360217-.076505.502073-.051051.141713-.127699.269412-.229801.382811s-.226941.221221-.374374.323323-.317603.215501-.51051.34034l-.51051.323323c-.51051.329043-.910481.67496-1.199627 1.038037-.289289.363077-.434005.828113-.434005 1.395394 0 .306306.059631.587158.17875.842413.119119.255112.286429.476333.50193.663663.215501.187187.468039.33462.757328.442442.289289.107679.598312.16159.927355.16159.317603 0 .589875-.031174.816816-.093522.226941-.062491.422565-.141856.587158-.238238.16445-.096525.300586-.192907.408408-.289289.107679-.096525.195624-.17875.263692-.246818zm13.562549-6.517511h-1.633632l-1.055054 3.760757h-3.556553l-1.072071-3.760757h-1.497496l3.828825 11.74173h1.157156zm-3.012009 4.883879-.918918 3.216213c-.124839.431145-.232518.842413-.323323 1.233804s-.141856.717431-.153153.978406h-.034034c-.011297-.260975-.065208-.581438-.16159-.961389-.096525-.380094-.207064-.785642-.331903-1.216787l-.969969-3.250247zm8.457449-4.883879v5.258253c0 .669383-.096382 1.151436-.289289 1.446445s-.50479.442442-.935935.442442c-.226941 0-.428285-.028314-.604032-.085085-.17589-.056771-.331903-.127556-.468039-.212641s-.255255-.17875-.357357-.280852-.187187-.192907-.255255-.272272v-6.29629h-1.378377v8.16816h1.259258v-.918918h.034034c.056771.090805.141856.201344.255255.33176.113399.130559.255255.255398.425425.374517s.368654.218361.595595.297726.482196.119119.765765.119119c.930215 0 1.588301-.363077 1.973972-1.089088.079365.113399.187187.235378.323323.365937.136136.130416.295009.249535.476476.357357.181467.107679.385671.195624.612612.263692s.476476.102102.748748.102102c1.656369 0 2.484482-.964249 2.484482-2.89289v-5.479474h-1.378377v5.258253c0 .669383-.119119 1.151436-.357357 1.446445s-.589875.442442-1.055054.442442c-.385671 0-.706134-.093665-.961389-.280709-.255255-.18733-.456742-.365937-.604175-.536107.022737-.124839.039754-.258115.051051-.399971.011297-.141713.017017-.292006.017017-.450879v-5.479474zm11.214203 7.045038h-1.786785v-4.526522c0-.578578.073788-.972829.221221-1.18261.147433-.209924.397111-.314886.748748-.314886.204204 0 .380094.028314.527527.085085s.255255.107822.323323.153153l.187187-1.106105c-.056771-.045331-.192907-.116259-.408408-.212784-.215501-.096382-.50479-.144573-.867867-.144573-.703417 0-1.230944.195624-1.582581.587158-.351637.391248-.527527 1.040754-.527527 1.948375v4.713709h-.986986v.918918l.986986.204204.153153 2.280278h1.225224v-2.280278h1.956955z" transform="matrix(1 0 0 -1 55.77 17.16)"/><path d="m20.26739 11.92477c.03861-.32032.06149-.65065.06149-.98813 0-.18447.00143-.39897-.02145-.64207 2.84999-.04004 5.34963-2.09352 5.34963-4.45445 0-1.2012-.78364-2.10782-1.22551-2.64979.09867-.02145.19877-.04433.3003-.06864.41756.36322 1.6016 1.65308 1.6016 3.28185 0 2.83283-2.8314 5.4626-6.06606 5.52123m-2.87144-9.86557c-.05291-.31603-.17303-.60203-.35607-.84799.01001-.28886.1287-.56485.59345-.33748-.25168.2574-.0572.71357-.0572.71357s.5148-.23881.40755-.57915c.76362.18304.2145 1.20835-.58773 1.05105m-.66209 1.45431c-.10153-.42328-.31889-.858-.59488-1.18547-.25168-.29744-.66781-.65065-1.22837-.65065-.25597 0-.68497.12012-.9581.23595-.10153-.1859-.3003-.63349-.3003-.83512 0-.20735.35035-.41756 1.02102-.41756 1.47576 0 2.35664.66638 2.35664 1.78464 0 .39325-.15587.75075-.29601 1.06821m3.7895 19.019c.1716 0 .25454.02717.35464.06435.42471 1.15544 2.06206 3.33619 2.1307 3.42914l.0143.02002.02431-.00572c.40183-.06435 1.42714-.21879 2.28514-.21879h.02002c.09295 0 .19877 0 .26598.06578.05577.05577.08294.15301.08294.29172 0 .21307-.09009.57772-.19877.73359-.3003-.32747-.78793-.47476-1.56871-.47476-.23452 0-.51194.07007-.66209.11011l-.06149.01287-.07007.01859.45045.45045c.69498.69498 1.29558 1.29415 1.29558 1.69312 0 .24024-.23452.55341-.44902.69212-.04719-.73073-.78507-1.70885-1.50436-2.25654l-.06149-.04576-.01144.2574c-.01001.17446-.02574.43615-.02574.71643 0 1.39139-.14157 1.60303-.62348 1.60303-.07436 0-.18733-.02145-.2574-.04719.2717-.33605.37895-.77935.37895-1.55727l-.00429-.35893-.00429-.28886c0-.31889.03289-.55484.05863-.74503l.0143-.10725-.07579-.01001c-.22594-.03146-.64493-.08866-.96525-.08866-.68783 0-1.15401.06292-1.49149.38038-.22308-.18018-.45188-.49049-.45188-.6864 0-.29029.18018-.31317.41756-.31317.12012 0 .23166.01716.3861.03575.29601.04433.74074.11011 1.65737.11011h.0572l-.01859-.05577c-.23166-.66495-.86944-1.63163-1.89189-2.8743.09152-.33319.18161-.55055.50336-.55055m-8.82882 3.42485-.01859.05577h.0572c.9152 0 1.36136-.06578 1.65737-.11011.15444-.01859.26598-.03575.3861-.03575.23595 0 .41756.02288.41756.31317 0 .19591-.2288.50622-.45045.6864-.33891-.31746-.80509-.38038-1.49149-.38038-.32175 0-.74217.0572-.96668.08866l-.03575.00429-.04004.00572.01287.10725c.02717.19019.06006.42614.06006.74503l-.00429.28886-.00429.35893c0 .77792.10725 1.22122.38038 1.55727-.0715.02574-.18447.04719-.25883.04719-.48334 0-.62348-.21164-.62348-1.60303 0-.28028-.0143-.54197-.02431-.71643l-.0143-.25883-.06006.04719c-.71786.54769-1.4586 1.52581-1.50293 2.25654-.21593-.13871-.45045-.45188-.45045-.69212 0-.39897.6006-.99814 1.29558-1.69312l.39897-.39897.05148-.05148-.13156-.03146c-.15015-.04004-.42757-.11011-.66352-.11011-.77935 0-1.26555.14729-1.56728.47476-.10868-.15587-.19877-.52052-.19877-.73359 0-.13871.02717-.23595.08294-.29172.06721-.06578.17303-.06578.26598-.06578h.02002c.858 0 1.88474.15444 2.28514.21879l.02431.00572.0143-.02002c.07007-.09295 1.70599-2.2737 2.13213-3.42914.09724-.03718.18161-.06435.35321-.06435.32175 0 .41184.21736.50479.55055-1.02388 1.24267-1.66166 2.20935-1.89332 2.8743m-4.42156-19.55382c0-1.62877 1.18547-2.91863 1.60303-3.28185.1001.02431.2002.04719.3003.06864-.4433.54197-1.22694 1.44859-1.22694 2.64979 0 2.38524 2.54826 4.45588 5.434 4.45588-.01859.20449-.0286.41899-.0286.64064 0 .35178.02002.67925.05434.98813-3.26326-.02002-6.13613-2.66838-6.13613-5.52123m21.88758 5.02359c1.46432 2.31517 2.60975 2.27656 4.34005 2.27656-1.43143-1.09681-2.37809-2.5025-2.82997-3.22036l-2.6741-4.27856c-.26026-1.32132-.9438-2.55684-1.96768-3.47633.34463-.13013.63063-.26741.80223-.39754-1.74603 0-3.47633-.8866-4.42871-.8866-.61204 0-1.00529.36608-1.00529.84942.03861.53911.59345 1.0868 1.61876 1.0868.23166 0 .5291-.03003.85514-.08437.55484.77363 1.00243 1.4729 1.00243 2.47104 0 1.8733-2.23938 3.33333-4.50021 3.33333-.1287 0-.25025-.00572-.37752-.0143-.20449-.46475-.8866-1.2441-.8866-2.1307 0-1.48863.97097-2.70413.97097-4.17846 0-.91663-.44616-1.48434-.61776-1.72029.27742-.2574.58058-.57343.65208-.79079-.16159.07007-.35321.07865-.63206.07865-1.08394 0-1.96768-.28171-2.82854-.28171-.49192 0-.62348.15158-.62348.29601 0 .05291.00715.10725.02145.13299-.18304-.0715-.35464-.11869-.55913-.15587-.25454-.04862-.52767-.07293-.81939-.07293-1.04676 0-1.41856.43901-1.41856.8151 0 .31746.25025.89804.53482 1.34134.40755-.20592.89804-.34463 1.12112-.34463.55627 0 1.04962.5291 1.31131 1.15544-.37323.04576-.44473.06149-.82225.06149-1.01959 0-1.71314-.36465-1.85614-.36465-.01287 0-.04004.00715-.04004.03003 0 .143.28886.52052.858.72787.75075.27456 1.87473.38896 2.06206.42042 0 .03289-.19019.38753-.40326.45617-.04433.0143-.08008.01573-.13299.00429-.78364-.15444-1.00243-.22022-1.99628-.59774-.03003-.01144-.04862.00715-.04862.03861 0 .39325 1.01816 1.26126 1.9305 1.59445-.76219.9724-1.71314 1.96768-2.16216 3.48491-.12727.00858-.25025.0143-.37752.0143-2.26083 0-4.50021-1.46003-4.50021-3.33333 0-.99814.44759-1.69741 1.00243-2.47104.32604.05434.62205.08437.85514.08437 1.02531 0 1.58015-.54769 1.62019-1.0868 0-.48334-.39325-.84942-1.00672-.84942-.95238 0-2.68125.8866-4.43014.8866.17303.13013.45903.26741.80223.39754-1.02245.91949-1.70599 2.15501-1.96625 3.47633l-2.6741 4.27856c-.45045.71786-1.39997 2.12355-2.8314 3.22036 1.7303 0 2.87716.03861 4.34148-2.27656l1.37137-2.19362c.10153.28457.22594.56199.37323.83369l-2.72701 4.36293c-.45331.72358-1.39425 2.1164-2.8314 3.22036 1.7303 0 2.87716.04004 4.34148-2.2737l2.34663-3.75804c.17589.18733.36036.37037.55484.54483l-3.31188 5.30244c-.45474.72501-1.38996 2.11497-2.82997 3.2175 1.7303 0 2.87716.04147 4.34005-2.2737l3.22894-5.16945c.21307.13442.43043.26455.65637.38753l-3.94251 6.30773c-.45474.72501-1.38996 2.11068-2.82997 3.2175 1.7303 0 2.87716.04004 4.34148-2.2737l4.05834-6.49649c.24024.09152.48334.18018.73073.25883l-4.58601 7.34019c-.44759.715-1.40426 2.12641-2.82854 3.2175 1.72887 0 2.87716.04004 4.34005-2.2737l4.88774-7.8221c.05005.00858.09867.01573.14729.02574.13299.42328.22594.81796.22594 1.21121 0 2.45817-1.61304 4.62891-3.54926 6.30487.12441.05434.34034.07293.53911.07293.4004 0 .6578-.02145.83941-.05291-.44902 1.01959-1.41284 2.33662-1.89904 3.0173-.63349-.1144-1.55584-.20306-2.1593-.20306-.63206 0-.70356.36894-.70356.69927 0 .57343.26884 1.0296.58058 1.28414.11726-.29315.35321-.68497 1.52009-.68497.02288 0 .06292.00286.11726.00715-.34034.37895-1.40855 1.24267-1.40855 1.93765 0 .46046.50479 1.15115 1.16974 1.15115-.03861-.14872-.03432-.28457-.03432-.38753 0-.56342.49907-1.22265.92092-1.68311-.01287.13728-.00572.12298-.00572.28314 0 1.33133.12012 1.94337.96525 1.94337.4147 0 .7007-.22737.79937-.29601-.54912-.50479-.57772-.90233-.57772-1.64879.00143-.19448.00286-.38467.00572-.64636.00143-.1716-.00143-.39754-.0286-.56056.30173-.04147.42471-.04147.6578-.04147 0 0 1.19977-.09581 1.49006.5291.32604-.29887.79937-.72072.79937-1.18547 0-.30745-.14586-.65494-.76505-.65494-.23452 0-.97097.143-1.5873.143.16588-.36751.90233-1.44573 1.54154-2.22794.09724.30316.24739.63063.58201.89947.04719-.50336.34177-2.09495 1.12827-3.02588.09152.6292.2145 1.27413.2145 2.63406 0 3.30902-.79508 5.75289-2.48391 6.21907.22022.38181.68497.72644 1.16688.72644.61776 0 .95381-.69927 1.29701-1.3585.17875.4862.6721 1.67882 1.16688 1.67882s.98956-1.19262 1.16831-1.67882c.34177.65923.67925 1.3585 1.29701 1.3585.48191 0 .94666-.34463 1.16688-.72644-1.68883-.46618-2.48534-2.91005-2.48534-6.21907 0-1.35993.12298-2.00486.2145-2.63406.78793.93093 1.08394 2.52252 1.12827 3.02588.33605-.26884.48763-.59631.58344-.89947.63778.78221 1.37566 1.86043 1.54154 2.22794-.61633 0-1.35421-.143-1.5873-.143-.61776 0-.76362.34749-.76362.65494 0 .46475.47333.8866.79937 1.18547.28743-.62491 1.49006-.5291 1.49006-.5291.23166 0 .35464 0 .6578.04147-.0286.16302-.03003.38896-.0286.56056.00286.26169.00286.45188.00429.64636 0 .74646-.0286 1.144-.57772 1.64879.09867.06864.38467.29601.79937.29601.84513 0 .96668-.61204.96668-1.94337 0-.16016.00429-.14586-.00715-.28314.42185.46046.92092 1.11969.92092 1.68311 0 .10296.00572.23881-.03575.38753.66638 0 1.1726-.69069 1.1726-1.15115 0-.69498-1.06821-1.5587-1.41141-1.93765.05577-.00429.09581-.00715.11726-.00715 1.16831 0 1.40426.39182 1.52152.68497.31174-.25454.58058-.71071.58058-1.28414 0-.33033-.0715-.69927-.70356-.69927-.60346 0-1.52438.08866-2.1593.20306-.48763-.68068-1.44859-1.99771-1.89904-3.0173.18161.03146.44044.05291.83941.05291.2002 0 .4147-.01859.53911-.07293-1.93622-1.67596-3.54926-3.8467-3.54926-6.30487 0-.39325.09295-.78793.22594-1.21121.04719-.01001.09867-.01716.14729-.02574l4.88774 7.8221c1.46289 2.31374 2.61118 2.2737 4.34005 2.2737-1.42428-1.09109-2.38095-2.5025-2.82854-3.2175l-4.58744-7.34019c.24882-.07865.49335-.16731.73359-.25883l4.05691 6.49649c1.46432 2.31374 2.61118 2.2737 4.34148 2.2737-1.44001-1.10682-2.37523-2.49249-2.82997-3.2175l-3.94108-6.30773c.22308-.12298.44187-.25311.65351-.38753l3.23037 5.16945c1.46432 2.31517 2.60975 2.2737 4.34005 2.2737-1.44001-1.10253-2.3738-2.49249-2.82997-3.2175l-3.31188-5.30244c.19448-.17446.38038-.3575.55341-.54483l2.34949 3.75804c1.46289 2.31374 2.60975 2.2737 4.34005 2.2737-1.43858-1.10396-2.37666-2.49678-2.8314-3.22036l-2.72558-4.36293c.14586-.2717.27027-.54912.37323-.83369z"/><path d="m47.19 30.03h-5.005v-28.6h5.005z"/></g><path d="m47.19 58.63h-5.005v-28.6h5.005z" fill="#f00"/><path d="m47.19 87.23h-5.005v-28.6h5.005z" fill="#fc0"/></g></g></svg>