<svg enable-background="new 0 0 315 129" viewBox="0 0 315 129" xmlns="http://www.w3.org/2000/svg"><g fill="#1892d6"><path d="m63 20.1v12.9c0 .3 0 .3-.3.3-.2 0-.3 0-.5 0 0-4.4 0-8.8 0-13.2z"/><path d="m32.4 20.1v.3 12.6.2c-.3 0-.5 0-.7 0 0-.1 0-.1 0-.2 0-4.3 0-8.6 0-12.9v-.1c.2.1.5.1.7.1z"/><path d="m39.6 20.1h.2v13.1c-.2 0-.5 0-.7 0 0-.1 0-.1 0-.2 0-1 0-2.1 0-3.1 0-.1 0-.2.1-.3.4-.4.4-.9 0-1.2-.2-.2-.2-.2-.2-.4 0-2.6 0-5.2 0-7.7 0-.1 0-.1 0-.2z"/><path d="m64.4 20.1v.2 12.7.2c-.2 0-.5 0-.7 0 0-.1 0-.1 0-.2 0-4.2 0-8.5 0-12.7 0-.1 0-.1 0-.2z"/><path d="m61.5 20.1v.2 12.7.2c-.2 0-.5 0-.7 0 0-.1 0-.1 0-.2 0-4.3 0-8.6 0-12.9v-.1c.2.1.4.1.7.1z"/><path d="m35.3 20.1v.2 12.6.2c-.2 0-.5 0-.7 0 0-.1 0-.1 0-.2 0-4.2 0-8.5 0-12.7 0-.1 0-.1 0-.2.2.1.5.1.7.1z"/><path d="m33.8 20.1v.2 12.7.2c-.2 0-.5 0-.7 0 0-4.4 0-8.7 0-13.1z"/><path d="m49.6 20.1v.2 12.6.3c-.2 0-.5 0-.7 0 0-.1 0-.2 0-.2 0-3.7 0-7.5 0-11.2 0-.2 0-.4.1-.6.1-.3.2-.7.4-1 .1-.1.2-.1.2-.1z"/><path d="m55 20.1c.2.4.3.8.5 1.2v.3 11.4c0 .2-.1.2-.2.2-.2 0-.3 0-.5 0 0-.1 0-.2 0-.3 0-4.2 0-8.5 0-12.7 0-.1 0-.1 0-.2.1.1.1.1.2.1z"/><path d="m36.8 20.1v3.2c-.1 0-.2 0-.3 0v1.8h.2v2.7c-.1 0-.2 0-.2 0v2.2h.2v3.1c-.2 0-.5 0-.7 0 0-.1 0-.2 0-.3 0-4.2 0-8.4 0-12.6 0-.1 0-.2 0-.3.3.2.6.2.8.2z"/><path d="m54 20.1v.2 11.1.2c-.2 0-.5 0-.7 0 0-.1 0-.1 0-.2 0-3.7 0-7.5 0-11.2v-.1z"/><path d="m51.1 20.1v.2 11.1.2c-.2 0-.5 0-.7 0 0-.1 0-.1 0-.2 0-3.7 0-7.5 0-11.2v-.1z"/><path d="m91 20.1v12.1c-.1-.2-.2-.4-.3-.7-.1-.2-.1-.4-.2-.6-.2-.3-.2-.6-.2-.9 0-3.3 0-6.5 0-9.8 0-.1 0-.2 0-.3.2.2.5.2.7.2z"/><path d="m96.8 20.1v9.9c0 .3 0 .6-.2.9-.2.4-.4.8-.6 1.2 0-.1 0-.1 0-.2 0-3.9 0-7.7 0-11.6 0-.1 0-.1 0-.2z"/><path d="m65.6 20.1v7.3c.1-.1.2-.3.3-.4v2.8c-.1-.1-.2-.2-.3-.4v.2 3.3c0 .3 0 .3-.3.3h-.1c0-4.4 0-8.8 0-13.1z"/><path d="m89.5 20.1v.4 8.1.2c0-.1-.1-.1-.1-.2-.2-.4-.4-.9-.6-1.3 0-.1 0-.2 0-.3 0-2.2 0-4.4 0-6.6 0-.1 0-.2 0-.2.2-.1.5-.1.7-.1z"/><path d="m98.3 20.1v2.6 3.7c0 .3 0 .6-.2.9-.2.4-.4.8-.5 1.3 0-.1 0-.1 0-.2 0-2.8 0-5.5 0-8.3v-.1c.2.1.5.1.7.1z"/><path d="m52.6 20.1v5.8c-.1-.5-.2-1-.3-1.5-.1.4-.2.8-.3 1.1v-.1c0-1.7 0-3.4 0-5.1 0-.1 0-.1 0-.2z"/><path d="m88.1 20.1v5 .2c-.1-.2-.2-.4-.3-.7s-.2-.6-.3-.9c0-.1-.1-.2-.1-.2 0-1.1 0-2.3 0-3.4z"/><path d="m99.8 20.1v.2 2.7c0 .3-.1.6-.2 1-.2.4-.3.8-.5 1.1 0-1.7 0-3.4 0-5.1.2.1.4.1.7.1z"/><path d="m38.3 20.1v3.3c-.2 0-.5-.1-.7-.1 0-1.1 0-2.1 0-3.2z"/><path d="m86.6 20.1v1.4.3c-.2-.6-.5-1.1-.7-1.7z"/><path d="m101.2 20.2c-.1.2-.2.4-.3.6-.1.3-.2.6-.4.8 0-.5 0-1.1 0-1.6h.6c.1.1.1.1.1.2z"/><path d="m64.6 68.3c-.2-.2-.4-.4-.6-.7h1.3c-.2.2-.4.5-.7.7.1 0 .1 0 0 0z"/><path d="m31.6 35.1h66.2c-.3.3-.6.6-.9.9h-.1c-.1 0-.1 0-.2 0-21.2 0-42.5 0-63.7 0-.2 0-.4 0-.5-.2-.2-.2-.4-.4-.5-.5-.2-.1-.2-.1-.3-.2z"/><path d="m33.3 36.7h62.9c-.3.3-.6.6-.9.9h-.1c-.1 0-.1 0-.2 0-20.2 0-40.4 0-60.6 0-.2 0-.3 0-.4-.2-.2-.2-.4-.4-.6-.6 0 .1-.1 0-.1-.1z"/><path d="m94.5 38.4c-.3.3-.6.6-.9.9h-.1c-.1 0-.1 0-.2 0-19.1 0-38.2 0-57.3 0-.2 0-.3 0-.4-.2-.2-.2-.5-.5-.7-.7z"/><path d="m36.6 40h56.3c-.3.3-.6.6-.9.9 0 0-.1 0-.2 0-2.1 0-4.1 0-6.2 0-16 0-32 0-48 0-.2 0-.3 0-.4-.2-.2-.2-.4-.4-.6-.7-.1 0-.1 0 0 0z"/><path d="m91.3 41.6c-.3.3-.6.6-.8.8 0 0-.1.1-.2.1h-.1c-17 0-34 0-50.9 0-.2 0-.3 0-.4-.2-.2-.2-.5-.5-.7-.7z"/><path d="m89.7 43.2c-.3.3-.6.6-.9.9h-.1c-.1 0-.2 0-.4 0-15.8 0-31.6 0-47.4 0-.2 0-.3-.1-.5-.2-.2-.2-.4-.5-.7-.7z"/><path d="m88.1 44.9c-.3.3-.6.6-.9.8 0 0-.1 0-.1.1h-.1c-14.8 0-29.6 0-44.5 0-.2 0-.3 0-.4-.2-.2-.2-.5-.5-.7-.7z"/><path d="m43 46.5h43.5c-.3.3-.6.6-.9.9h-.1-.1c-13.7 0-27.5 0-41.2 0-.2 0-.3 0-.4-.2-.3-.2-.6-.5-.8-.7z"/><path d="m44.7 48.1h40.1c-.2.2-.4.4-.6.6-.2.3-.4.3-.7.3-12.6 0-25.2 0-37.8 0-.2 0-.3 0-.4-.2-.2-.2-.4-.4-.6-.7z"/><path d="m46.2 49.7h37c-.3.3-.6.6-.9.9h-.1c-.1 0-.1 0-.2 0-11.6 0-23.1 0-34.7 0-.2 0-.3 0-.4-.2-.2-.2-.4-.4-.6-.6 0 .1 0 0-.1-.1z"/><path d="m81.6 51.4c-.3.3-.6.6-.8.8 0 0-.1.1-.2.1s-.1 0-.2 0c-10.4 0-20.9 0-31.3 0-.3 0-.5-.1-.7-.3s-.4-.4-.6-.6c0 0 0 0 0-.1 11.3.1 22.5.1 33.8.1z"/><path d="m49.4 53h30.5c-.3.3-.6.6-.9.9h-.1c-.1 0-.1 0-.2 0-9.4 0-18.9 0-28.3 0-.1 0-.2 0-.3-.1-.1-.3-.4-.5-.7-.8z"/><path d="m51.1 54.6h27.2c-.2.2-.3.3-.4.4-.3.4-.7.5-1.2.5-7.9 0-15.8 0-23.8 0-.3 0-.7.1-1 0s-.5-.5-.7-.7c0-.1-.1-.1-.1-.2z"/><path d="m52.7 56.2h24c-.3.3-.6.6-.9.9 0 0-.1 0-.2 0-2.7 0-5.3 0-8 0-4.6 0-9.2 0-13.8 0-.2 0-.3 0-.4-.2-.2-.2-.5-.4-.7-.7z"/><path d="m54.4 57.9h20.7c-.1 0-.1.1-.2.1-.3.3-.5.6-.8.7s-.7 0-1 0c-5.9 0-11.8 0-17.7 0-.2 0-.3 0-.4-.2-.2-.1-.4-.4-.6-.6z"/><path d="m73.5 59.5c-.3.3-.6.6-.9.8 0 0-.1.1-.2.1-.9 0-1.8 0-2.7 0-4.2 0-8.5 0-12.7 0-.2 0-.3 0-.4-.2-.2-.2-.5-.5-.7-.7z"/><path d="m71.8 61.1c-.3.3-.6.6-.8.9 0 0-.1 0-.2 0-1.5 0-3 0-4.5 0-2.6 0-5.1 0-7.7 0-.1 0-.2-.1-.3-.1-.3-.2-.5-.5-.8-.7 4.8-.1 9.6-.1 14.3-.1z"/><path d="m70.2 62.7c-.3.3-.6.6-.9.8 0 0-.1.1-.2.1-3 0-6 0-9 0-.1 0-.1 0-.2 0-.3-.3-.5-.5-.9-.8 3.9-.1 7.5-.1 11.2-.1z"/><path d="m40.5 33.1c0-4.3 0-8.6 0-12.9.2.1.4.1.6.2 0 0 .1.1.1.1v.2 12.1c0 .2-.1.3-.2.3-.2-.1-.3 0-.5 0z"/><path d="m95.4 33.2c-.2 0-.5 0-.7 0 0-.1 0-.1 0-.2 0-3 0-5.9 0-8.9 0-.3.1-.7.2-1 .2-.6.4-1.1.6-1.7-.1 4-.1 7.9-.1 11.8z"/><path d="m68.9 23v.2 9.7c0 .3 0 .3-.3.3-.4 0-.5-.1-.5-.5 0-2.9 0-5.8 0-8.7 0-.2 0-.4.2-.5.1-.1.2-.2.3-.4 0-.1.1-.1.3-.1z"/><path d="m91.8 21.8c.1.2.1.4.2.7s.2.6.3.9c.1.4.2.8.2 1.2v8.3.3c-.2 0-.5 0-.7 0 0-3.8 0-7.6 0-11.4z"/><path d="m82.5 32.9c0-3.2 0-6.3 0-9.5.2.1.5.2.7.3v.2 7 1.4c0 .2-.1.3-.2.3-.2.2-.3.3-.5.3z"/><path d="m77.3 32.9c-.2-.1-.5-.2-.7-.3 0 0-.1-.1-.1-.2 0-.7 0-1.4 0-2.1 0-2.1 0-4.3 0-6.4 0-.2 0-.3.2-.3.2-.1.3-.1.5-.2.1 3.2.1 6.3.1 9.5z"/><path d="m60.7 64.3h7.9c-.3.3-.6.6-.9.9 0 0-.1 0-.2 0-1.9 0-3.9 0-5.8 0-.1 0-.1 0-.2-.1-.2-.2-.5-.4-.8-.8z"/><path d="m57 33.2c-.3 0-.5 0-.7 0 0-3.2 0-6.4 0-9.6.1.3.2.6.3.9 0 .1.1.2.1.3.2.5.2.9.2 1.4v6.8c.1 0 .1.1.1.2z"/><path d="m48.2 23.6v.3 9.1c0 .2-.1.2-.2.2-.5 0-.5 0-.5-.5 0-2.4 0-4.7 0-7.1 0-.1 0-.3.1-.4.1-.5.3-1 .6-1.6-.1 0-.1 0 0 0z"/><path d="m75.9 24.2v7.9c-.1-.1-.2-.1-.3-.2s-.1-.1-.2-.2c-.2-.1-.2-.3-.2-.5 0-2 0-4 0-6v-.1c-.1-.3.1-.4.3-.5.1-.1.2-.2.3-.2-.1-.1 0-.1.1-.2z"/><path d="m84 24.2c.2.2.5.4.7.6v.2 6.5c0 .1 0 .2-.1.2-.2.2-.4.3-.6.5 0-2.7 0-5.3 0-8z"/><path d="m93.2 26.4c.1.3.2.6.3.9h.1c.1-.3.2-.6.3-1v6.8c-.2 0-.5 0-.7 0 0-2.1 0-4.4 0-6.7z"/><path d="m67.4 24.9v6.9c-.1-.2-.2-.4-.4-.5-.2-.3-.3-.6-.3-1 0-1.3 0-2.7 0-4 0-.3 0-.5.2-.8.1-.2.3-.4.5-.6-.1 0-.1 0 0 0z"/><path d="m42 32.7c0-2 0-4 0-6.1.2.1.4.2.7.3 0 0 .1.1.1.1v5.2c0 .1 0 .1-.1.1-.3.2-.5.3-.7.4z"/><path d="m46.7 33.2c-.2 0-.5 0-.7 0 0-.1 0-.1 0-.2 0-1.2 0-2.3 0-3.5 0-.1 0-.2 0-.2.2-.6.4-1.2.6-1.7 0 0 0-.1.1-.1z"/><path d="m42 26.3c0-1.9 0-3.7 0-5.6.3.2.5.3.7.5v.2 4.3c0 .1 0 .2-.1.2-.2.1-.4.3-.6.4z"/><path d="m69.6 28.4s.1.1.1.1c.2.2.3.4.5.6s.2.4.2.6v3.2.3s-.1.1-.1.1c-.2 0-.4 0-.6 0-.1-1.7-.1-3.3-.1-4.9z"/><path d="m69.6 27.9c0-1.7 0-3.3 0-4.9h.6s.1.1.1.1v3.8c0 .1-.1.2-.2.3-.2.2-.3.4-.5.7z"/><path d="m58.4 33.2c-.2 0-.5 0-.7 0 0-1.9 0-3.8 0-5.8.2.5.4 1.1.6 1.6.1.3.1.5.1.8v3.2z"/><path d="m67 66.1c-.3.3-.6.5-.8.8 0 0-.1 0-.2 0-.8 0-1.7 0-2.5 0-.1 0-.1 0-.1 0-.3-.3-.6-.6-.9-.9 1.4 0 2.9 0 4.5.1-.1-.1-.1-.1 0 0z"/><path d="m78.1 23.2c.2 0 .5-.1.7-.1v.2 3.1c0 .1 0 .2-.2.3s-.4.3-.6.5c.1-1.3.1-2.7.1-4z"/><path d="m78.1 29.4c.2.2.5.4.7.5 0 0 .1.1.1.1v3.2.1c-.2 0-.3-.1-.5-.1s-.2-.1-.2-.2c0-1 0-2 0-3.1-.1-.2-.1-.4-.1-.5z"/><path d="m85.4 30.7c0-1.7 0-3.3 0-4.9 1 1.2 1.1 3.2 0 4.9z"/><path d="m81.7 23.2v3.9c-.2-.2-.3-.3-.5-.4s-.2-.2-.2-.4c0-1 0-2 0-3 0-.1 0-.1 0-.2.3 0 .5.1.7.1z"/><path d="m74.4 30.5c-.9-1.3-1-3.3 0-4.7z"/><path d="m81 33.3c0-.7 0-1.5 0-2.2 0-.2 0-.3 0-.5s-.1-.5.1-.7.4-.3.6-.5v.2 3.4c0 .1 0 .2-.2.2-.1 0-.3.1-.5.1z"/><path d="m80.3 26.3c-.2 0-.5 0-.7 0 0-1.1 0-2.2 0-3.3h.7z"/><path d="m79.5 30.2h.7v3.2c-.2 0-.4 0-.6 0 0 0-.1-.1-.1-.1 0-1 0-2 0-3.1z"/><path d="m43.5 27.5c.4.5.7.9.7 1.5v1.3c0 .6-.3 1-.7 1.5 0-1.5 0-2.9 0-4.3z"/><path d="m37.6 33.2c0-1.1 0-2.1 0-3.2.2 0 .5-.1.7-.1v3.2c-.3.1-.5.1-.7.1z"/><path d="m52.6 28.5v3.1c-.2 0-.5 0-.7 0 0-1 0-2.1 0-3.1z"/><path d="m83.3 23c0-.9 0-1.8 0-2.7 0 0 .1-.1.1-.1h.6v2.8s-.1.1-.1.1c-.2 0-.4.1-.6-.1z"/><path d="m38.3 28c-.2 0-.5-.1-.7-.1 0-.9 0-1.9 0-2.8.2 0 .5-.1.7-.1z"/><path d="m76.6 20.2v2.7.1c-.2 0-.4 0-.6 0 0 0-.1-.1-.1-.1 0-.9 0-1.7 0-2.6 0-.1 0-.2.1-.2.2.1.4.1.6.1z"/><path d="m71.8 33.2c-.2 0-.5 0-.7 0 0-1 0-1.9 0-2.9.2.2.3.4.5.6s.3.5.3.8v1.3c-.1.1-.1.1-.1.2z"/><path d="m71.8 23v.5 1.2c0 .2 0 .3-.1.4-.2.2-.4.5-.6.8 0-1 0-1.9 0-2.9z"/><path d="m75.1 20.6v2c-.5-.3-.6-1.6 0-2z"/><path d="m82.5 22.7c-.4-.4-.5-.8-.4-1.2 0-.3.2-.7.4-.8z"/><path d="m45.3 31.4v1.8c-.2 0-.5 0-.7 0 .2-.6.4-1.2.7-1.8z"/><path d="m59.8 33.2c-.2 0-.4 0-.7 0 0-.6 0-1.1 0-1.7.3.6.5 1.1.7 1.7z"/><path d="m84.8 22.6c0-.7 0-1.3 0-1.9.4.4.5 1.3 0 1.9z"/><path d="m77.4 22.6c0-.6 0-1.3 0-1.9.4.4.5 1.3 0 1.9z"/><path d="m72.5 32.2c.3.4.5.7.8 1-.3 0-.5 0-.8 0 0-.3 0-.7 0-1z"/><path d="m72.5 24c0-.4 0-.7 0-1h.7c-.2.3-.4.6-.7 1z"/><path d="m43.5 22.6v1.6s0 0-.1 0c.1-.5.1-1 .1-1.6z"/></g></svg>