<?xml version="1.0" encoding="utf-8"?>
<!-- Generator: Adobe Illustrator 25.4.1, SVG Export Plug-In . SVG Version: 6.00 Build 0)  -->
<svg version="1.1" id="Ebene_1" xmlns="http://www.w3.org/2000/svg" xmlns:xlink="http://www.w3.org/1999/xlink" x="0px" y="0px"
	 viewBox="0 0 315 129" style="enable-background:new 0 0 315 129;" xml:space="preserve">
<style type="text/css">
	.st0{fill:#1892D6;}
</style>
<g>
	<path class="st0" d="M63,20.1c0,4.3,0,8.6,0,12.9c0,0.3,0,0.3-0.3,0.3c-0.2,0-0.3,0-0.5,0c0-4.4,0-8.8,0-13.2
		C62.5,20.1,62.7,20.1,63,20.1z"/>
	<path class="st0" d="M32.4,20.1c0,0.1,0,0.2,0,0.3c0,4.2,0,8.4,0,12.6c0,0.1,0,0.1,0,0.2c-0.3,0-0.5,0-0.7,0c0-0.1,0-0.1,0-0.2
		c0-4.3,0-8.6,0-12.9c0,0,0-0.1,0-0.1C31.9,20.1,32.2,20.1,32.4,20.1z"/>
	<path class="st0" d="M39.6,20.1c0.1,0,0.1,0,0.2,0c0,4.3,0,8.7,0,13.1c-0.2,0-0.5,0-0.7,0c0-0.1,0-0.1,0-0.2c0-1,0-2.1,0-3.1
		c0-0.1,0-0.2,0.1-0.3c0.4-0.4,0.4-0.9,0-1.2C39,28.2,39,28.2,39,28c0-2.6,0-5.2,0-7.7c0-0.1,0-0.1,0-0.2
		C39.2,20.1,39.4,20.1,39.6,20.1z"/>
	<path class="st0" d="M64.4,20.1c0,0.1,0,0.1,0,0.2c0,4.2,0,8.5,0,12.7c0,0.1,0,0.1,0,0.2c-0.2,0-0.5,0-0.7,0c0-0.1,0-0.1,0-0.2
		c0-4.2,0-8.5,0-12.7c0-0.1,0-0.1,0-0.2C63.9,20.1,64.2,20.1,64.4,20.1z"/>
	<path class="st0" d="M61.5,20.1c0,0.1,0,0.1,0,0.2c0,4.2,0,8.5,0,12.7c0,0.1,0,0.1,0,0.2c-0.2,0-0.5,0-0.7,0c0-0.1,0-0.1,0-0.2
		c0-4.3,0-8.6,0-12.9c0,0,0-0.1,0-0.1C61,20.1,61.2,20.1,61.5,20.1z"/>
	<path class="st0" d="M35.3,20.1c0,0.1,0,0.2,0,0.2c0,4.2,0,8.4,0,12.6c0,0.1,0,0.2,0,0.2c-0.2,0-0.5,0-0.7,0c0-0.1,0-0.1,0-0.2
		c0-4.2,0-8.5,0-12.7c0-0.1,0-0.1,0-0.2C34.8,20.1,35.1,20.1,35.3,20.1z"/>
	<path class="st0" d="M33.8,20.1c0,0.1,0,0.1,0,0.2c0,4.2,0,8.5,0,12.7c0,0.1,0,0.1,0,0.2c-0.2,0-0.5,0-0.7,0c0-4.4,0-8.7,0-13.1
		C33.4,20.1,33.6,20.1,33.8,20.1z"/>
	<path class="st0" d="M49.6,20.1c0,0.1,0,0.1,0,0.2c0,4.2,0,8.4,0,12.6c0,0.1,0,0.2,0,0.3c-0.2,0-0.5,0-0.7,0c0-0.1,0-0.2,0-0.2
		c0-3.7,0-7.5,0-11.2c0-0.2,0-0.4,0.1-0.6c0.1-0.3,0.2-0.7,0.4-1C49.5,20.1,49.6,20.1,49.6,20.1z"/>
	<path class="st0" d="M55,20.1c0.2,0.4,0.3,0.8,0.5,1.2c0,0.1,0,0.2,0,0.3c0,3.8,0,7.6,0,11.4c0,0.2-0.1,0.2-0.2,0.2
		c-0.2,0-0.3,0-0.5,0c0-0.1,0-0.2,0-0.3c0-4.2,0-8.5,0-12.7c0-0.1,0-0.1,0-0.2C54.9,20.1,54.9,20.1,55,20.1z"/>
	<path class="st0" d="M36.8,20.1c0,1.1,0,2.1,0,3.2c-0.1,0-0.2,0-0.3,0c0,0.6,0,1.2,0,1.8c0.1,0,0.2,0,0.2,0c0,0.9,0,1.8,0,2.7
		c-0.1,0-0.2,0-0.2,0c0,0.7,0,1.4,0,2.2c0.1,0,0.2,0,0.2,0c0,1,0,2.1,0,3.1c-0.2,0-0.5,0-0.7,0c0-0.1,0-0.2,0-0.3
		c0-4.2,0-8.4,0-12.6c0-0.1,0-0.2,0-0.3C36.3,20.1,36.6,20.1,36.8,20.1z"/>
	<path class="st0" d="M54,20.1c0,0.1,0,0.1,0,0.2c0,3.7,0,7.4,0,11.1c0,0.1,0,0.1,0,0.2c-0.2,0-0.5,0-0.7,0c0-0.1,0-0.1,0-0.2
		c0-3.7,0-7.5,0-11.2c0,0,0-0.1,0-0.1C53.6,20.1,53.8,20.1,54,20.1z"/>
	<path class="st0" d="M51.1,20.1c0,0.1,0,0.1,0,0.2c0,3.7,0,7.4,0,11.1c0,0.1,0,0.1,0,0.2c-0.2,0-0.5,0-0.7,0c0-0.1,0-0.1,0-0.2
		c0-3.7,0-7.5,0-11.2c0,0,0-0.1,0-0.1C50.6,20.1,50.9,20.1,51.1,20.1z"/>
	<path class="st0" d="M91,20.1c0,4,0,8.1,0,12.1c0,0,0,0,0,0c-0.1-0.2-0.2-0.4-0.3-0.7c-0.1-0.2-0.1-0.4-0.2-0.6
		c-0.2-0.3-0.2-0.6-0.2-0.9c0-3.3,0-6.5,0-9.8c0-0.1,0-0.2,0-0.3C90.5,20.1,90.8,20.1,91,20.1z"/>
	<path class="st0" d="M96.8,20.1c0,3.3,0,6.6,0,9.9c0,0.3,0,0.6-0.2,0.9c-0.2,0.4-0.4,0.8-0.6,1.2c0-0.1,0-0.1,0-0.2
		c0-3.9,0-7.7,0-11.6c0-0.1,0-0.1,0-0.2C96.4,20.1,96.6,20.1,96.8,20.1z"/>
	<path class="st0" d="M65.6,20.1c0,2.4,0,4.8,0,7.3c0.1-0.1,0.2-0.3,0.3-0.4c0,1,0,1.9,0,2.8c-0.1-0.1-0.2-0.2-0.3-0.4
		c0,0.1,0,0.2,0,0.2c0,1.1,0,2.2,0,3.3c0,0.3,0,0.3-0.3,0.3c0,0-0.1,0-0.1,0c0-4.4,0-8.8,0-13.1C65.3,20.1,65.4,20.1,65.6,20.1z"/>
	<path class="st0" d="M89.5,20.1c0,0.1,0,0.2,0,0.4c0,2.7,0,5.4,0,8.1c0,0.1,0,0.1,0,0.2c0,0,0,0,0,0c0-0.1-0.1-0.1-0.1-0.2
		c-0.2-0.4-0.4-0.9-0.6-1.3c0-0.1,0-0.2,0-0.3c0-2.2,0-4.4,0-6.6c0-0.1,0-0.2,0-0.2C89,20.1,89.3,20.1,89.5,20.1z"/>
	<path class="st0" d="M98.3,20.1c0,0.9,0,1.8,0,2.6c0,1.2,0,2.5,0,3.7c0,0.3,0,0.6-0.2,0.9c-0.2,0.4-0.4,0.8-0.5,1.3
		c0-0.1,0-0.1,0-0.2c0-2.8,0-5.5,0-8.3c0,0,0-0.1,0-0.1C97.8,20.1,98.1,20.1,98.3,20.1z"/>
	<path class="st0" d="M52.6,20.1c0,1.9,0,3.9,0,5.8c0,0,0,0,0,0c-0.1-0.5-0.2-1-0.3-1.5c0,0,0,0,0,0c-0.1,0.4-0.2,0.8-0.3,1.1
		c0,0,0,0,0,0c0,0,0-0.1,0-0.1c0-1.7,0-3.4,0-5.1c0-0.1,0-0.1,0-0.2C52.1,20.1,52.4,20.1,52.6,20.1z"/>
	<path class="st0" d="M88.1,20.1c0,1.7,0,3.3,0,5c0,0.1,0,0.1,0,0.2c-0.1-0.2-0.2-0.4-0.3-0.7c-0.1-0.3-0.2-0.6-0.3-0.9
		c0-0.1-0.1-0.2-0.1-0.2c0-1.1,0-2.3,0-3.4C87.6,20.1,87.8,20.1,88.1,20.1z"/>
	<path class="st0" d="M99.8,20.1c0,0.1,0,0.1,0,0.2c0,0.9,0,1.8,0,2.7c0,0.3-0.1,0.6-0.2,1c-0.2,0.4-0.3,0.8-0.5,1.1
		c0-1.7,0-3.4,0-5.1C99.3,20.1,99.5,20.1,99.8,20.1z"/>
	<path class="st0" d="M38.3,20.1c0,1.1,0,2.2,0,3.3c-0.2,0-0.5-0.1-0.7-0.1c0-1.1,0-2.1,0-3.2C37.8,20.1,38,20.1,38.3,20.1z"/>
	<path class="st0" d="M86.6,20.1c0,0.5,0,0.9,0,1.4c0,0.1,0,0.2,0,0.3c-0.2-0.6-0.5-1.1-0.7-1.7C86.1,20.1,86.4,20.1,86.6,20.1z"/>
	<path class="st0" d="M101.2,20.2c-0.1,0.2-0.2,0.4-0.3,0.6c-0.1,0.3-0.2,0.6-0.4,0.8c0-0.5,0-1.1,0-1.6c0.2,0,0.4,0,0.6,0
		C101.2,20.1,101.2,20.1,101.2,20.2z"/>
	<path class="st0" d="M64.6,68.3c-0.2-0.2-0.4-0.4-0.6-0.7c0.4,0,0.9,0,1.3,0C65.1,67.8,64.9,68.1,64.6,68.3
		C64.7,68.3,64.7,68.3,64.6,68.3z"/>
	<path class="st0" d="M31.6,35.1c22.1,0,44.1,0,66.2,0c-0.3,0.3-0.6,0.6-0.9,0.9c0,0-0.1,0-0.1,0c-0.1,0-0.1,0-0.2,0
		c-21.2,0-42.5,0-63.7,0c-0.2,0-0.4,0-0.5-0.2c-0.2-0.2-0.4-0.4-0.5-0.5C31.7,35.2,31.7,35.2,31.6,35.1z"/>
	<path class="st0" d="M33.3,36.7c21,0,41.9,0,62.9,0c-0.3,0.3-0.6,0.6-0.9,0.9c0,0-0.1,0-0.1,0c-0.1,0-0.1,0-0.2,0
		c-20.2,0-40.4,0-60.6,0c-0.2,0-0.3,0-0.4-0.2c-0.2-0.2-0.4-0.4-0.6-0.6C33.4,36.9,33.3,36.8,33.3,36.7z"/>
	<path class="st0" d="M94.5,38.4c-0.3,0.3-0.6,0.6-0.9,0.9c0,0-0.1,0-0.1,0c-0.1,0-0.1,0-0.2,0c-19.1,0-38.2,0-57.3,0
		c-0.2,0-0.3,0-0.4-0.2c-0.2-0.2-0.5-0.5-0.7-0.7C54.8,38.4,74.6,38.4,94.5,38.4z"/>
	<path class="st0" d="M36.6,40c18.8,0,37.5,0,56.3,0c-0.3,0.3-0.6,0.6-0.9,0.9c0,0-0.1,0-0.2,0c-2.1,0-4.1,0-6.2,0c-16,0-32,0-48,0
		c-0.2,0-0.3,0-0.4-0.2C37,40.5,36.8,40.3,36.6,40C36.5,40,36.5,40,36.6,40z"/>
	<path class="st0" d="M91.3,41.6c-0.3,0.3-0.6,0.6-0.8,0.8c0,0-0.1,0.1-0.2,0.1c0,0-0.1,0-0.1,0c-17,0-34,0-50.9,0
		c-0.2,0-0.3,0-0.4-0.2c-0.2-0.2-0.5-0.5-0.7-0.7C55.8,41.6,73.5,41.6,91.3,41.6z"/>
	<path class="st0" d="M89.7,43.2c-0.3,0.3-0.6,0.6-0.9,0.9c0,0-0.1,0-0.1,0c-0.1,0-0.2,0-0.4,0c-15.8,0-31.6,0-47.4,0
		c-0.2,0-0.3-0.1-0.5-0.2c-0.2-0.2-0.4-0.5-0.7-0.7C56.4,43.2,73,43.2,89.7,43.2z"/>
	<path class="st0" d="M88.1,44.9c-0.3,0.3-0.6,0.6-0.9,0.8c0,0-0.1,0-0.1,0.1c0,0-0.1,0-0.1,0c-14.8,0-29.6,0-44.5,0
		c-0.2,0-0.3,0-0.4-0.2c-0.2-0.2-0.5-0.5-0.7-0.7C56.9,44.9,72.5,44.9,88.1,44.9z"/>
	<path class="st0" d="M43,46.5c14.5,0,29,0,43.5,0c-0.3,0.3-0.6,0.6-0.9,0.9c0,0-0.1,0-0.1,0c0,0-0.1,0-0.1,0c-13.7,0-27.5,0-41.2,0
		c-0.2,0-0.3,0-0.4-0.2C43.5,47,43.2,46.7,43,46.5z"/>
	<path class="st0" d="M44.7,48.1c13.4,0,26.7,0,40.1,0c-0.2,0.2-0.4,0.4-0.6,0.6C84,49,83.8,49,83.5,49c-12.6,0-25.2,0-37.8,0
		c-0.2,0-0.3,0-0.4-0.2C45.1,48.6,44.9,48.4,44.7,48.1C44.7,48.2,44.7,48.1,44.7,48.1z"/>
	<path class="st0" d="M46.2,49.7c12.3,0,24.6,0,37,0c-0.3,0.3-0.6,0.6-0.9,0.9c0,0-0.1,0-0.1,0c-0.1,0-0.1,0-0.2,0
		c-11.6,0-23.1,0-34.7,0c-0.2,0-0.3,0-0.4-0.2c-0.2-0.2-0.4-0.4-0.6-0.6C46.3,49.9,46.3,49.8,46.2,49.7z"/>
	<path class="st0" d="M81.6,51.4c-0.3,0.3-0.6,0.6-0.8,0.8c0,0-0.1,0.1-0.2,0.1c-0.1,0-0.1,0-0.2,0c-10.4,0-20.9,0-31.3,0
		c-0.3,0-0.5-0.1-0.7-0.3c-0.2-0.2-0.4-0.4-0.6-0.6c0,0,0,0,0-0.1C59.1,51.4,70.3,51.4,81.6,51.4z"/>
	<path class="st0" d="M49.4,53c10.2,0,20.3,0,30.5,0c-0.3,0.3-0.6,0.6-0.9,0.9c0,0-0.1,0-0.1,0c-0.1,0-0.1,0-0.2,0
		c-9.4,0-18.9,0-28.3,0c-0.1,0-0.2,0-0.3-0.1C50,53.5,49.7,53.3,49.4,53z"/>
	<path class="st0" d="M51.1,54.6c9.1,0,18.1,0,27.2,0c-0.2,0.2-0.3,0.3-0.4,0.4c-0.3,0.4-0.7,0.5-1.2,0.5c-7.9,0-15.8,0-23.8,0
		c-0.3,0-0.7,0.1-1,0c-0.3-0.1-0.5-0.5-0.7-0.7C51.2,54.7,51.1,54.7,51.1,54.6C51.1,54.6,51.1,54.6,51.1,54.6z"/>
	<path class="st0" d="M52.7,56.2c8,0,16,0,24,0c-0.3,0.3-0.6,0.6-0.9,0.9c0,0-0.1,0-0.2,0c-2.7,0-5.3,0-8,0c-4.6,0-9.2,0-13.8,0
		c-0.2,0-0.3,0-0.4-0.2C53.2,56.7,52.9,56.5,52.7,56.2z"/>
	<path class="st0" d="M54.4,57.9c6.9,0,13.8,0,20.7,0C75,57.9,75,58,74.9,58c-0.3,0.3-0.5,0.6-0.8,0.7c-0.3,0.1-0.7,0-1,0
		c-5.9,0-11.8,0-17.7,0c-0.2,0-0.3,0-0.4-0.2C54.8,58.4,54.6,58.1,54.4,57.9C54.4,57.9,54.4,57.9,54.4,57.9z"/>
	<path class="st0" d="M73.5,59.5c-0.3,0.3-0.6,0.6-0.9,0.8c0,0-0.1,0.1-0.2,0.1c-0.9,0-1.8,0-2.7,0c-4.2,0-8.5,0-12.7,0
		c-0.2,0-0.3,0-0.4-0.2c-0.2-0.2-0.5-0.5-0.7-0.7C61.8,59.5,67.6,59.5,73.5,59.5z"/>
	<path class="st0" d="M71.8,61.1c-0.3,0.3-0.6,0.6-0.8,0.9c0,0-0.1,0-0.2,0c-1.5,0-3,0-4.5,0c-2.6,0-5.1,0-7.7,0
		c-0.1,0-0.2-0.1-0.3-0.1c-0.3-0.2-0.5-0.5-0.8-0.7c0,0,0,0,0,0C62.3,61.1,67.1,61.1,71.8,61.1z"/>
	<path class="st0" d="M70.2,62.7c-0.3,0.3-0.6,0.6-0.9,0.8c0,0-0.1,0.1-0.2,0.1c-3,0-6,0-9,0c-0.1,0-0.1,0-0.2,0
		c-0.3-0.3-0.5-0.5-0.9-0.8C62.9,62.7,66.5,62.7,70.2,62.7z"/>
	<path class="st0" d="M40.5,33.1c0-4.3,0-8.6,0-12.9c0.2,0.1,0.4,0.1,0.6,0.2c0,0,0.1,0.1,0.1,0.1c0,0,0,0.1,0,0.2c0,4,0,8,0,12.1
		c0,0.2-0.1,0.3-0.2,0.3C40.8,33,40.7,33.1,40.5,33.1z"/>
	<path class="st0" d="M95.4,33.2c-0.2,0-0.5,0-0.7,0c0-0.1,0-0.1,0-0.2c0-3,0-5.9,0-8.9c0-0.3,0.1-0.7,0.2-1
		c0.2-0.6,0.4-1.1,0.6-1.7C95.4,25.4,95.4,29.3,95.4,33.2z"/>
	<path class="st0" d="M68.9,23c0,0.1,0,0.1,0,0.2c0,3.2,0,6.5,0,9.7c0,0.3,0,0.3-0.3,0.3c-0.4,0-0.5-0.1-0.5-0.5c0-2.9,0-5.8,0-8.7
		c0-0.2,0-0.4,0.2-0.5c0.1-0.1,0.2-0.2,0.3-0.4C68.6,23,68.7,23,68.9,23z"/>
	<path class="st0" d="M91.8,21.8c0.1,0.2,0.1,0.4,0.2,0.7c0.1,0.3,0.2,0.6,0.3,0.9c0.1,0.4,0.2,0.8,0.2,1.2c0,2.8,0,5.5,0,8.3
		c0,0.1,0,0.2,0,0.3c-0.2,0-0.5,0-0.7,0C91.8,29.4,91.8,25.6,91.8,21.8C91.8,21.8,91.8,21.8,91.8,21.8z"/>
	<path class="st0" d="M82.5,32.9c0-3.2,0-6.3,0-9.5c0.2,0.1,0.5,0.2,0.7,0.3c0,0,0,0.1,0,0.2c0,2.3,0,4.7,0,7c0,0.5,0,1,0,1.4
		c0,0.2-0.1,0.3-0.2,0.3C82.8,32.8,82.7,32.9,82.5,32.9z"/>
	<path class="st0" d="M77.3,32.9c-0.2-0.1-0.5-0.2-0.7-0.3c0,0-0.1-0.1-0.1-0.2c0-0.7,0-1.4,0-2.1c0-2.1,0-4.3,0-6.4
		c0-0.2,0-0.3,0.2-0.3c0.2-0.1,0.3-0.1,0.5-0.2C77.3,26.6,77.3,29.7,77.3,32.9z"/>
	<path class="st0" d="M60.7,64.3c2.7,0,5.2,0,7.9,0c-0.3,0.3-0.6,0.6-0.9,0.9c0,0-0.1,0-0.2,0c-1.9,0-3.9,0-5.8,0
		c-0.1,0-0.1,0-0.2-0.1C61.3,64.9,61,64.7,60.7,64.3z"/>
	<path class="st0" d="M57,33.2c-0.3,0-0.5,0-0.7,0c0-3.2,0-6.4,0-9.6c0,0,0,0,0,0c0.1,0.3,0.2,0.6,0.3,0.9c0,0.1,0.1,0.2,0.1,0.3
		c0.2,0.5,0.2,0.9,0.2,1.4c0,2.3,0,4.5,0,6.8C57,33,57,33.1,57,33.2z"/>
	<path class="st0" d="M48.2,23.6c0,0.1,0,0.2,0,0.3c0,3,0,6.1,0,9.1c0,0.2-0.1,0.2-0.2,0.2c-0.5,0-0.5,0-0.5-0.5c0-2.4,0-4.7,0-7.1
		c0-0.1,0-0.3,0.1-0.4C47.7,24.7,47.9,24.2,48.2,23.6C48.1,23.6,48.1,23.6,48.2,23.6z"/>
	<path class="st0" d="M75.9,24.2c0,2.6,0,5.2,0,7.9c-0.1-0.1-0.2-0.1-0.3-0.2c-0.1-0.1-0.1-0.1-0.2-0.2c-0.2-0.1-0.2-0.3-0.2-0.5
		c0-2,0-4,0-6c0,0,0-0.1,0-0.1c-0.1-0.3,0.1-0.4,0.3-0.5c0.1-0.1,0.2-0.2,0.3-0.2C75.7,24.3,75.8,24.3,75.9,24.2z"/>
	<path class="st0" d="M84,24.2c0.2,0.2,0.5,0.4,0.7,0.6c0,0,0,0.1,0,0.2c0,2.2,0,4.3,0,6.5c0,0.1,0,0.2-0.1,0.2
		c-0.2,0.2-0.4,0.3-0.6,0.5C84,29.5,84,26.9,84,24.2z"/>
	<path class="st0" d="M93.2,26.4c0.1,0.3,0.2,0.6,0.3,0.9c0,0,0,0,0.1,0c0.1-0.3,0.2-0.6,0.3-1c0,0,0,0,0,0c0,2.3,0,4.5,0,6.8
		c-0.2,0-0.5,0-0.7,0C93.2,31,93.2,28.7,93.2,26.4z"/>
	<path class="st0" d="M67.4,24.9c0,2.3,0,4.6,0,6.9c0,0,0,0,0,0c-0.1-0.2-0.2-0.4-0.4-0.5c-0.2-0.3-0.3-0.6-0.3-1c0-1.3,0-2.7,0-4
		c0-0.3,0-0.5,0.2-0.8C67,25.3,67.2,25.1,67.4,24.9C67.3,24.9,67.3,24.9,67.4,24.9z"/>
	<path class="st0" d="M42,32.7c0-2,0-4,0-6.1c0.2,0.1,0.4,0.2,0.7,0.3c0,0,0.1,0.1,0.1,0.1c0,1.7,0,3.5,0,5.2c0,0.1,0,0.1-0.1,0.1
		C42.4,32.5,42.2,32.6,42,32.7z"/>
	<path class="st0" d="M46.7,33.2c-0.2,0-0.5,0-0.7,0c0-0.1,0-0.1,0-0.2c0-1.2,0-2.3,0-3.5c0-0.1,0-0.2,0-0.2
		c0.2-0.6,0.4-1.2,0.6-1.7c0,0,0-0.1,0.1-0.1C46.7,29.4,46.7,31.3,46.7,33.2z"/>
	<path class="st0" d="M42,26.3c0-1.9,0-3.7,0-5.6c0.3,0.2,0.5,0.3,0.7,0.5c0,0,0,0.1,0,0.2c0,1.4,0,2.9,0,4.3c0,0.1,0,0.2-0.1,0.2
		C42.4,26,42.2,26.2,42,26.3z"/>
	<path class="st0" d="M69.6,28.4c0,0,0.1,0.1,0.1,0.1c0.2,0.2,0.3,0.4,0.5,0.6c0.2,0.2,0.2,0.4,0.2,0.6c0,1.1,0,2.2,0,3.2
		c0,0.1,0,0.2,0,0.3c0,0-0.1,0.1-0.1,0.1c-0.2,0-0.4,0-0.6,0C69.6,31.6,69.6,30,69.6,28.4z"/>
	<path class="st0" d="M69.6,27.9c0-1.7,0-3.3,0-4.9c0.2,0,0.4,0,0.6,0c0,0,0.1,0.1,0.1,0.1c0,1.3,0,2.5,0,3.8c0,0.1-0.1,0.2-0.2,0.3
		C69.9,27.4,69.8,27.6,69.6,27.9z"/>
	<path class="st0" d="M58.4,33.2c-0.2,0-0.5,0-0.7,0c0-1.9,0-3.8,0-5.8c0.2,0.5,0.4,1.1,0.6,1.6c0.1,0.3,0.1,0.5,0.1,0.8
		c0,1.1,0,2.1,0,3.2C58.4,33.1,58.4,33.1,58.4,33.2z"/>
	<path class="st0" d="M67,66.1c-0.3,0.3-0.6,0.5-0.8,0.8c0,0-0.1,0-0.2,0c-0.8,0-1.7,0-2.5,0c-0.1,0-0.1,0-0.1,0
		c-0.3-0.3-0.6-0.6-0.9-0.9C63.9,66,65.4,66,67,66.1C66.9,66,66.9,66,67,66.1z"/>
	<path class="st0" d="M78.1,23.2c0.2,0,0.5-0.1,0.7-0.1c0,0.1,0,0.2,0,0.2c0,1,0,2.1,0,3.1c0,0.1,0,0.2-0.2,0.3
		c-0.2,0.1-0.4,0.3-0.6,0.5C78.1,25.9,78.1,24.5,78.1,23.2z"/>
	<path class="st0" d="M78.1,29.4c0.2,0.2,0.5,0.4,0.7,0.5c0,0,0.1,0.1,0.1,0.1c0,1.1,0,2.1,0,3.2c0,0,0,0,0,0.1
		c-0.2,0-0.3-0.1-0.5-0.1c-0.2,0-0.2-0.1-0.2-0.2c0-1,0-2,0-3.1C78.1,29.7,78.1,29.5,78.1,29.4z"/>
	<path class="st0" d="M85.4,30.7c0-1.7,0-3.3,0-4.9C86.4,27,86.5,29,85.4,30.7z"/>
	<path class="st0" d="M81.7,23.2c0,1.3,0,2.6,0,3.9c-0.2-0.2-0.3-0.3-0.5-0.4c-0.2-0.1-0.2-0.2-0.2-0.4c0-1,0-2,0-3
		c0-0.1,0-0.1,0-0.2C81.3,23.1,81.5,23.2,81.7,23.2z"/>
	<path class="st0" d="M74.4,30.5c-0.9-1.3-1-3.3,0-4.7C74.4,26,74.4,30.3,74.4,30.5z"/>
	<path class="st0" d="M81,33.3c0-0.7,0-1.5,0-2.2c0-0.2,0-0.3,0-0.5c0-0.2-0.1-0.5,0.1-0.7c0.2-0.2,0.4-0.3,0.6-0.5
		c0,0.1,0,0.1,0,0.2c0,1.1,0,2.3,0,3.4c0,0.1,0,0.2-0.2,0.2C81.4,33.2,81.2,33.3,81,33.3z"/>
	<path class="st0" d="M80.3,26.3c-0.2,0-0.5,0-0.7,0c0-1.1,0-2.2,0-3.3c0.2,0,0.5,0,0.7,0C80.3,24.1,80.3,25.2,80.3,26.3z"/>
	<path class="st0" d="M79.5,30.2c0.2,0,0.5,0,0.7,0c0,1,0,2.1,0,3.2c-0.2,0-0.4,0-0.6,0c0,0-0.1-0.1-0.1-0.1
		C79.5,32.3,79.5,31.3,79.5,30.2C79.5,30.3,79.5,30.2,79.5,30.2z"/>
	<path class="st0" d="M43.5,27.5c0.4,0.5,0.7,0.9,0.7,1.5c0,0.4,0,0.9,0,1.3c0,0.6-0.3,1-0.7,1.5C43.5,30.3,43.5,28.9,43.5,27.5z"/>
	<path class="st0" d="M37.6,33.2c0-1.1,0-2.1,0-3.2c0.2,0,0.5-0.1,0.7-0.1c0,1.1,0,2.2,0,3.2C38,33.2,37.8,33.2,37.6,33.2z"/>
	<path class="st0" d="M52.6,28.5c0,1,0,2.1,0,3.1c-0.2,0-0.5,0-0.7,0c0-1,0-2.1,0-3.1C52.1,28.5,52.3,28.5,52.6,28.5z"/>
	<path class="st0" d="M83.3,23c0-0.9,0-1.8,0-2.7c0,0,0.1-0.1,0.1-0.1c0.2,0,0.4,0,0.6,0c0,1,0,1.9,0,2.8c0,0-0.1,0.1-0.1,0.1
		C83.7,23.1,83.5,23.2,83.3,23z"/>
	<path class="st0" d="M38.3,28c-0.2,0-0.5-0.1-0.7-0.1c0-0.9,0-1.9,0-2.8c0.2,0,0.5-0.1,0.7-0.1C38.3,25.9,38.3,26.9,38.3,28z"/>
	<path class="st0" d="M76.6,20.2c0,0.9,0,1.8,0,2.7c0,0,0,0.1,0,0.1c-0.2,0-0.4,0-0.6,0c0,0-0.1-0.1-0.1-0.1c0-0.9,0-1.7,0-2.6
		c0-0.1,0-0.2,0.1-0.2C76.2,20.2,76.4,20.2,76.6,20.2z"/>
	<path class="st0" d="M71.8,33.2c-0.2,0-0.5,0-0.7,0c0-1,0-1.9,0-2.9c0.2,0.2,0.3,0.4,0.5,0.6c0.2,0.2,0.3,0.5,0.3,0.8
		c0,0.4,0,0.9,0,1.3C71.8,33.1,71.8,33.1,71.8,33.2z"/>
	<path class="st0" d="M71.8,23c0,0.2,0,0.4,0,0.5c0,0.4,0,0.8,0,1.2c0,0.2,0,0.3-0.1,0.4c-0.2,0.2-0.4,0.5-0.6,0.8c0-1,0-1.9,0-2.9
		C71.3,23,71.5,23,71.8,23z"/>
	<path class="st0" d="M75.1,20.6c0,0.7,0,1.3,0,2C74.6,22.3,74.5,21,75.1,20.6z"/>
	<path class="st0" d="M82.5,22.7c-0.4-0.4-0.5-0.8-0.4-1.2c0-0.3,0.2-0.7,0.4-0.8C82.5,21.3,82.5,22,82.5,22.7z"/>
	<path class="st0" d="M45.3,31.4c0,0.6,0,1.2,0,1.8c-0.2,0-0.5,0-0.7,0C44.8,32.6,45,32,45.3,31.4C45.3,31.4,45.3,31.4,45.3,31.4z"
		/>
	<path class="st0" d="M59.8,33.2c-0.2,0-0.4,0-0.7,0c0-0.6,0-1.1,0-1.7c0,0,0,0,0,0C59.4,32.1,59.6,32.6,59.8,33.2z"/>
	<path class="st0" d="M84.8,22.6c0-0.7,0-1.3,0-1.9C85.2,21.1,85.3,22,84.8,22.6z"/>
	<path class="st0" d="M77.4,22.6c0-0.6,0-1.3,0-1.9C77.8,21.1,77.9,22,77.4,22.6z"/>
	<path class="st0" d="M72.5,32.2c0.3,0.4,0.5,0.7,0.8,1c-0.3,0-0.5,0-0.8,0C72.5,32.9,72.5,32.5,72.5,32.2z"/>
	<path class="st0" d="M72.5,24c0-0.4,0-0.7,0-1c0.2,0,0.5,0,0.7,0C73,23.3,72.8,23.6,72.5,24z"/>
	<path class="st0" d="M43.5,22.6c0,0.5,0,1.1,0,1.6c0,0,0,0-0.1,0C43.5,23.7,43.5,23.2,43.5,22.6C43.5,22.6,43.5,22.6,43.5,22.6z"/>
</g>
</svg>
