<?xml version="1.0" encoding="utf-8"?>
<!-- Generator: Adobe Illustrator 25.4.1, SVG Export Plug-In . SVG Version: 6.00 Build 0)  -->
<svg version="1.1" id="Ebene_1" xmlns="http://www.w3.org/2000/svg" xmlns:xlink="http://www.w3.org/1999/xlink" x="0px" y="0px"
	 viewBox="0 0 315 129" style="enable-background:new 0 0 315 129;" xml:space="preserve">
<style type="text/css">
	.st0{fill-rule:evenodd;clip-rule:evenodd;fill:#FFFFFF;}
	.st1{fill:#0090D7;}
	.st2{fill:#878787;}
	.st3{fill:#CCCCCC;}
</style>
<g>
	<rect id="Rectangle-Copy-8" y="0" class="st0" width="315" height="129"/>
	<g>
		<g>
			<path class="st1" d="M105.5,29.7V20c0-0.4,0.3-0.7,0.7-0.7h3c2.4,0,4.3,1.9,4.3,4.3V26c0,2.4-1.9,4.3-4.3,4.3h-3
				C105.8,30.3,105.5,30.1,105.5,29.7z M109.1,28.5c1.4,0,2.5-1.1,2.5-2.5v-2.5c0-1.4-1.1-2.5-2.5-2.5h-1.7v7.4h1.7V28.5z"/>
			<path class="st1" d="M116.5,29.6v-6.3h-1.3c-0.2,0-0.3-0.1-0.3-0.3v-1.1c0-0.2,0.1-0.3,0.3-0.3h2.3c0.4,0,0.8,0.3,0.8,0.8v6.3
				h1.3c0.2,0,0.3,0.1,0.3,0.3v1c0,0.2-0.1,0.3-0.3,0.3h-2.3C116.9,30.3,116.5,30,116.5,29.6z M116.6,20.1v-1.7
				c0-0.2,0.1-0.3,0.3-0.3h1.1c0.2,0,0.3,0.1,0.3,0.3v1.7c0,0.2-0.1,0.3-0.3,0.3h-1.1C116.8,20.5,116.6,20.3,116.6,20.1z"/>
		</g>
		<g>
			<path class="st1" d="M121.3,31.3c0-0.6,0.2-1.1,0.6-1.5c-0.4-0.3-0.6-0.7-0.6-1.2c0-0.7,0.4-1.4,1-1.8c-0.6-0.5-1-1.3-1-2.3
				c0-1.9,1.5-3.2,3.4-3.2c0.5,0,0.9,0.1,1.3,0.2h3c0.2,0,0.3,0.1,0.3,0.3v1c0,0.2-0.1,0.3-0.3,0.3h-1.2c0.2,0.4,0.3,0.8,0.3,1.3
				c0,1.9-1.5,3.2-3.4,3.2c-0.5,0-1-0.1-1.4-0.2c-0.2,0.2-0.3,0.4-0.3,0.7c0,0.4,0.4,0.5,0.9,0.6c0.5,0,1.4,0,1.9,0
				c1.4,0,2.9,0.3,2.9,2.1c0,1.9-1.8,2.8-4,2.8C122.8,33.5,121.3,32.9,121.3,31.3z M126.9,31c0-0.6-0.6-0.6-1.1-0.6h-1.5
				c-0.3,0-0.6,0-0.9,0c-0.1,0.2-0.2,0.4-0.2,0.6c0,0.9,0.8,1,1.8,1C125.9,32,126.9,31.8,126.9,31z M126.2,24.5
				c0-0.9-0.6-1.6-1.6-1.6s-1.6,0.6-1.6,1.6c0,0.9,0.6,1.5,1.6,1.5C125.7,26,126.2,25.4,126.2,24.5z"/>
			<path class="st1" d="M132.1,29.6v-6.3h-1.3c-0.2,0-0.3-0.1-0.3-0.3v-1.1c0-0.2,0.1-0.3,0.3-0.3h2.3c0.4,0,0.8,0.3,0.8,0.8v6.3
				h1.3c0.2,0,0.3,0.1,0.3,0.3v1c0,0.2-0.1,0.3-0.3,0.3h-2.3C132.4,30.3,132.1,30,132.1,29.6z M132.1,20.1v-1.7
				c0-0.2,0.1-0.3,0.3-0.3h1.1c0.2,0,0.3,0.1,0.3,0.3v1.7c0,0.2-0.1,0.3-0.3,0.3h-1.1C132.3,20.5,132.1,20.3,132.1,20.1z"/>
		</g>
		<g>
			<path class="st1" d="M137.6,27.7v-4.4h-1.1c-0.2,0-0.3-0.1-0.3-0.3v-1.1c0-0.2,0.1-0.3,0.3-0.3h1.1v-1.7c0-0.2,0.1-0.3,0.3-0.3
				h1.2c0.2,0,0.3,0.1,0.3,0.3v1.7h2.6c0.2,0,0.3,0.1,0.3,0.3V23c0,0.2-0.1,0.3-0.3,0.3h-2.6v4.3c0,0.6,0.4,1,1,1h1.6
				c0.2,0,0.3,0.1,0.3,0.3V30c0,0.2-0.1,0.3-0.3,0.3h-1.8C138.7,30.3,137.6,29.3,137.6,27.7z"/>
			<path class="st1" d="M143.7,27.9c0-1.4,1-2.4,2.8-2.7c0.4-0.1,1.7-0.2,2-0.3c0.4-0.1,0.6-0.3,0.6-0.6c0-0.8-0.7-1.3-1.7-1.3
				c-0.8,0-1.5,0.3-1.8,0.9c-0.1,0.1-0.2,0.2-0.3,0.2s-0.1,0-0.2-0.1l-0.9-0.6c-0.1-0.1-0.1-0.2-0.1-0.3V23c0.6-1.1,1.8-1.8,3.3-1.8
				c2.1,0,3.4,1.2,3.4,3.1V30c0,0.2-0.1,0.3-0.3,0.3h-1.1c-0.2,0-0.3-0.1-0.3-0.3v-0.6c-0.7,0.8-1.5,1.1-2.5,1.1
				C144.9,30.5,143.7,29.5,143.7,27.9z M149.1,26.7v-0.3c-0.7,0.1-2,0.3-2.4,0.3c-0.9,0.2-1.3,0.5-1.3,1.1s0.5,1.1,1.3,1.1
				C148,28.9,149.1,27.9,149.1,26.7z"/>
		</g>
		<g>
			<path class="st1" d="M153.7,29.7v-9.4h-1.4c-0.2,0-0.3-0.1-0.3-0.3v-1.1c0-0.2,0.1-0.3,0.3-0.3h2.6c0.4,0,0.7,0.3,0.7,0.7v9.4
				h1.4c0.2,0,0.3,0.1,0.3,0.3v1c0,0.2-0.1,0.3-0.3,0.3h-2.6C154,30.3,153.7,30.1,153.7,29.7z"/>
			<path class="st1" d="M158.5,27.9c0-1.4,1-2.4,2.8-2.7c0.4-0.1,1.7-0.2,2-0.3c0.4-0.1,0.6-0.3,0.6-0.6c0-0.8-0.7-1.3-1.7-1.3
				c-0.8,0-1.5,0.3-1.8,0.9c-0.1,0.1-0.2,0.2-0.3,0.2s-0.1,0-0.2-0.1l-0.9-0.6c-0.1-0.1-0.1-0.2-0.1-0.3V23c0.6-1.1,1.8-1.8,3.3-1.8
				c2.1,0,3.4,1.2,3.4,3.1V30c0,0.2-0.1,0.3-0.3,0.3h-1.1c-0.2,0-0.3-0.1-0.3-0.3v-0.6c-0.7,0.8-1.5,1.1-2.5,1.1
				C159.7,30.5,158.5,29.5,158.5,27.9z M163.9,26.7v-0.3c-0.7,0.1-2,0.3-2.4,0.3c-0.9,0.2-1.3,0.5-1.3,1.1s0.5,1.1,1.3,1.1
				C162.8,28.9,163.9,27.9,163.9,26.7z"/>
		</g>
		<g>
			<path class="st1" d="M168,30V18.8c0-0.2,0.1-0.3,0.3-0.3h1.2c0.2,0,0.3,0.1,0.3,0.3v5.8h0.5l2.8-3c0.1-0.1,0.3-0.2,0.4-0.2h1.4
				c0.2,0,0.3,0.1,0.3,0.3c0,0.1,0,0.2-0.1,0.2l-3.3,3.5l3.5,4.4c0,0.1,0.1,0.1,0.1,0.2c0,0.2-0.1,0.3-0.3,0.3h-1.4
				c-0.2,0-0.4-0.1-0.5-0.2l-3-3.7h-0.5V30c0,0.2-0.1,0.3-0.3,0.3h-1.2C168.1,30.3,168,30.2,168,30z"/>
			<path class="st1" d="M176.4,27.9c0-1.4,1-2.4,2.8-2.7c0.4-0.1,1.7-0.2,2-0.3c0.4-0.1,0.6-0.3,0.6-0.6c0-0.8-0.7-1.3-1.7-1.3
				c-0.8,0-1.5,0.3-1.8,0.9c-0.1,0.1-0.2,0.2-0.3,0.2s-0.1,0-0.2-0.1l-0.9-0.6c-0.1-0.1-0.1-0.2-0.1-0.3V23c0.6-1.1,1.8-1.8,3.3-1.8
				c2.1,0,3.4,1.2,3.4,3.1V30c0,0.2-0.1,0.3-0.3,0.3h-1.1c-0.2,0-0.3-0.1-0.3-0.3v-0.6c-0.7,0.8-1.5,1.1-2.5,1.1
				C177.6,30.5,176.4,29.5,176.4,27.9z M181.8,26.7v-0.3c-0.7,0.1-2,0.3-2.4,0.3c-0.9,0.2-1.3,0.5-1.3,1.1s0.5,1.1,1.3,1.1
				C180.7,28.9,181.8,27.9,181.8,26.7z"/>
			<path class="st1" d="M185.5,27v-2.1c0-1.9,1.5-3.6,3.4-3.6c0.8,0,1.5,0.2,2.1,0.7v-3.2c0-0.2,0.1-0.3,0.3-0.3h1.2
				c0.2,0,0.3,0.1,0.3,0.3V30c0,0.2-0.1,0.3-0.3,0.3h-1c-0.2,0-0.3-0.1-0.3-0.3v-0.7c-0.6,0.8-1.4,1.3-2.3,1.3
				C187.1,30.5,185.5,28.9,185.5,27z M191,26.9v-2.1c0-1-0.8-1.8-1.8-1.8s-1.8,0.8-1.8,1.8v2.1c0,1,0.8,1.8,1.8,1.8
				C190.2,28.8,191,28,191,26.9z"/>
			<path class="st1" d="M195,26.7V25c0-2.1,1.6-3.7,3.7-3.7c2,0,3.7,1.6,3.7,3.7v1c0,0.4-0.3,0.7-0.7,0.7h-4.8v0.1
				c0,1,0.8,1.8,1.8,1.8h2.5c0.2,0,0.3,0.1,0.3,0.3V30c0,0.2-0.1,0.3-0.3,0.3h-2.5C196.6,30.3,195,28.7,195,26.7z M200.5,25v-0.1
				c0-1-0.8-1.8-1.8-1.8s-1.8,0.8-1.8,1.8V25H200.5z"/>
			<path class="st1" d="M204.3,30v-8.2c0-0.2,0.1-0.3,0.3-0.3h1.2c0.2,0,0.3,0.1,0.3,0.3v0.8c0.6-0.9,1.5-1.3,2.3-1.3
				c1.1,0,2,0.6,2.5,1.5c0.6-1,1.6-1.5,2.7-1.5c1.8,0,2.9,1.3,2.9,3.2V30c0,0.2-0.1,0.3-0.3,0.3H215c-0.2,0-0.3-0.1-0.3-0.3v-5.3
				c0-1.1-0.5-1.7-1.4-1.7c-1.2,0-2,0.9-2,2.2V30c0,0.2-0.1,0.3-0.3,0.3h-1.2c-0.2,0-0.3-0.1-0.3-0.3v-5.3c0-1.1-0.5-1.7-1.4-1.7
				c-1.2,0-2,0.9-2,2.2V30c0,0.2-0.1,0.3-0.3,0.3h-1.2C204.4,30.3,204.3,30.2,204.3,30z"/>
			<path class="st1" d="M219.9,29.6v-6.3h-1.3c-0.2,0-0.3-0.1-0.3-0.3v-1.1c0-0.2,0.1-0.3,0.3-0.3h2.3c0.4,0,0.8,0.3,0.8,0.8v6.3
				h1.3c0.2,0,0.3,0.1,0.3,0.3v1c0,0.2-0.1,0.3-0.3,0.3h-2.3C220.3,30.3,219.9,30,219.9,29.6z M220,20.1v-1.7c0-0.2,0.1-0.3,0.3-0.3
				h1.1c0.2,0,0.3,0.1,0.3,0.3v1.7c0,0.2-0.1,0.3-0.3,0.3h-1.1C220.1,20.5,220,20.3,220,20.1z"/>
		</g>
		<g>
			<path class="st1" d="M224.7,26.7V25c0-2.1,1.6-3.7,3.7-3.7s3.7,1.6,3.7,3.7v1c0,0.4-0.3,0.7-0.7,0.7h-4.8v0.1
				c0,1,0.8,1.8,1.8,1.8h2.5c0.2,0,0.3,0.1,0.3,0.3V30c0,0.2-0.1,0.3-0.3,0.3h-2.5C226.4,30.3,224.7,28.7,224.7,26.7z M230.2,25
				v-0.1c0-1-0.8-1.8-1.8-1.8s-1.8,0.8-1.8,1.8V25H230.2z"/>
		</g>
		<g>
			<path class="st2" d="M134.4,46.7v-9.6c0-0.3,0.2-0.6,0.6-0.6h2.7c1.6,0,2.8,1.1,2.8,2.7c0,0.9-0.4,1.6-1.1,2.2
				c1.1,0.4,1.8,1.5,1.8,2.7c0,1.8-1.4,3.2-3.1,3.2H135C134.7,47.3,134.4,47,134.4,46.7z M137.4,41.1c1,0,1.8-0.8,1.8-1.8
				c0-0.9-0.7-1.7-1.7-1.7h-1.9V41L137.4,41.1L137.4,41.1z M137.9,46.1c1.1,0,1.9-0.8,1.9-1.9c0-1.1-0.8-1.9-1.9-1.9h-2.3v3.8
				C135.6,46.1,137.9,46.1,137.9,46.1z"/>
			<path class="st2" d="M143.2,44.5v-5.8c0-0.1,0.1-0.2,0.2-0.2h0.8c0.1,0,0.2,0.1,0.2,0.2v5.6c0,1.3,0.8,2,1.9,2
				c1.3,0,2.3-0.9,2.3-2.5v-5.1c0-0.1,0.1-0.2,0.2-0.2h0.8c0.1,0,0.2,0.1,0.2,0.2V47c0,0.1-0.1,0.2-0.2,0.2h-0.8
				c-0.1,0-0.2-0.1-0.2-0.2v-0.9c-0.5,0.9-1.4,1.3-2.5,1.3C144.3,47.5,143.2,46.3,143.2,44.5z"/>
		</g>
		<g>
			<path class="st2" d="M152.6,47v-8.3c0-0.1,0.1-0.2,0.2-0.2h0.8c0.1,0,0.2,0.1,0.2,0.2v0.9c0.5-0.9,1.4-1.3,2.5-1.3
				c1.8,0,2.9,1.2,2.9,2.9V47c0,0.1-0.1,0.2-0.2,0.2h-0.8c-0.1,0-0.2-0.1-0.2-0.2v-5.6c0-1.3-0.8-2-1.9-2c-1.3,0-2.3,0.9-2.3,2.5V47
				c0,0.1-0.1,0.2-0.2,0.2h-0.8C152.7,47.2,152.6,47.1,152.6,47z"/>
			<path class="st2" d="M161.5,44.2v-2.7c0-1.8,1.4-3.2,3.2-3.2c0.9,0,1.7,0.3,2.3,0.9v-3.4c0-0.1,0.1-0.2,0.2-0.2h0.8
				c0.1,0,0.2,0.1,0.2,0.2V47c0,0.1-0.1,0.2-0.2,0.2h-0.7c-0.1,0-0.2-0.1-0.2-0.2v-0.7c-0.6,0.7-1.4,1.1-2.3,1.1
				C162.9,47.5,161.5,46,161.5,44.2z M167,44.2v-2.6c0-1.2-1-2.1-2.2-2.1s-2.1,1-2.1,2.1v2.6c0,1.2,1,2.1,2.1,2.1
				C166,46.3,167,45.4,167,44.2z"/>
		</g>
		<path class="st3" d="M75.1,67.4c-0.4,0-0.9-0.1-1.2-0.4c-0.2-0.1-0.1-0.9,0.2-1.1c0.7-0.6,1.4-1.2,2.5-2
			c-8-6.1-16.3-10.2-24.9-13.9c0.6-0.8,1.3-1.1,2-1.1c0.5,0,1,0.2,1.6,0.4c2.5,1.2,5.1,2.5,7.6,3.6c0.4,0.2,0.9,0.4,1.3,0.4
			c0.2,0,0.3,0,0.4-0.1c3.4-2.1,6.8-4.3,10.4-6.6c-0.6-0.4-1.1-0.7-1.7-1c-7-3-14.2-5.5-21.7-6.9c-2-0.4-3.9-0.6-5.9-0.8
			c-0.1,0-0.2,0-0.3,0c-0.4,0-0.7,0.1-1,0.2c-2.6,1.1-5.2,2.2-7.7,3.4c-0.4,0.2-0.8,0.6-1.5,1.1c2.8,0.8,5.3,1.2,7.5,2.3
			c1.7,0.8,3.3,1.2,4.8,1.2c2.1,0,4.1-0.7,6.1-2.2c1-0.7,2.1-1.4,3.3-1.4c0.7,0,1.4,0.2,2.2,0.8c-2.8,1.5-5.5,2.9-8.3,4.4
			c-1.4,0.8-2.9,1.6-4.2,2.5C46,50.7,45.4,51,44.8,51c-0.5,0-1.1-0.2-1.7-0.8c0.7-0.6,1.5-1.2,2.7-2.1c-2.5-0.8-4.6-1.6-6.8-2.2
			c-1.2-0.4-2.4-0.6-3.6-0.9c-1-0.3-1.9-0.5-2.9-0.5c-1.3,0-2.5,0.4-3.8,1.3c-0.4,0.3-1,0.3-1.6,0.3c-0.1,0-0.2,0-0.4,0
			c-0.1,0-0.2,0-0.4,0c-0.2,0-0.4,0-0.6,0c0-0.2-0.1-0.4-0.1-0.7c0.8-0.5,1.6-1,2.5-1.5c9.4-5.6,19.4-9.6,30-12.1
			c2.7-0.6,5.4-0.9,8.2-1.3h0.1c0.6,0,1.2,0.4,2.1,0.7c-0.9,0.6-1.3,0.8-1.7,1.1c1.2,0.6,2.3,1.1,3.5,1.6c0,0.3-0.1,0.5-0.1,0.8
			c-2.7-0.6-5.4-0.9-8-0.9c-3.8,0-7.6,0.7-11.5,2.5c1.4,0.4,2.4,0.7,3.5,0.9c2.3,0.6,4.7,1,7,1.7c0.6,0.2,1.2,0.3,1.7,0.3
			c0.6,0,1.2-0.1,1.8-0.4c1.8-0.8,3.6-1.4,5.4-2.1c0.4-0.2,0.8-0.3,1.1-0.3c0.7,0,1.2,0.4,1.6,1.5C70.9,38.6,69,39.3,67,40
			c0,0.2,0,0.3-0.1,0.5c1.8,0.8,3.6,1.5,5.3,2.3c0.8,0.3,1.7,0.6,2.4,1.1c1.1,0.8,2.2,1.1,3.3,1.1c1.1,0,2.2-0.4,3.4-1.1
			c1.2-0.7,2.6-1.2,3.8-1.7c0.5-0.2,1-0.3,1.5-0.3c0.8,0,1.7,0.3,2.5,0.9c-4,1.8-7.9,3.4-11.7,5.4c-3.7,1.9-7.3,4.1-11.2,6.4
			c0.8,0.6,1.2,0.9,1.5,1.2c3,2,6,3.9,8.9,6c0.5,0.3,0.9,0.5,1.3,0.5s0.8-0.2,1.2-0.5c2.3-1.7,4.8-3.2,7.1-4.9
			c0.4-0.3,0.8-0.4,1.1-0.4c0.5,0,1,0.4,1.6,1.2c-1.1,0.7-2.1,1.3-3.1,2c-3.3,2.4-6.6,4.9-9.8,7.4c-0.3,0.2-0.5,0.6-0.8,0.6
			C75.2,67.4,75.2,67.4,75.1,67.4"/>
		<path class="st3" d="M94.9,58.2c-0.3,0-0.6-0.1-1-0.4c-4.2-2.8-8.5-5.7-12.7-8.5c-0.1-0.1-0.1-0.2-0.2-0.4
			c0.6-0.5,1.2-0.8,1.8-0.8c0.5,0,1,0.2,1.5,0.5c2.1,1.4,4.3,2.8,6.5,4.1c0.4,0.2,0.9,0.4,1.3,0.4c0.2,0,0.3,0,0.4-0.1
			c3.9-1.7,7.7-3.5,11.5-5.3c0.2-0.1,0.3-0.2,0.7-0.6c-6.8-4.1-14-6.8-21.3-9.4c0-0.2,0-0.4,0-0.6c0.9,0,1.9-0.1,2.8-0.1
			c0.6,0,1.2,0,1.8,0.1c1.4,0.3,2.7,1,4.1,1.5c0.4,0.1,0.8,0.2,1.2,0.2c0.2,0,0.3,0,0.4,0c3.6-0.9,7.2-1.8,10.7-2.7
			c0.1,0,0.3-0.2,0.4-0.3c-2-1.5-5.8-2.3-10.7-2.3c-2.6,0-5.5,0.2-8.6,0.7c0.6-1.4,0.6-1.4,3.6-2.3c-0.6-0.3-1-0.5-1.9-1
			c0.8-0.4,1.5-0.9,2.1-0.9c0.1,0,0.1,0,0.1,0c6.1,1.3,12.2,2.3,18.1,4.1c7.4,2.2,14.3,6,20.9,9.9c0.5,0.3,0.9,0.7,1.4,1
			c0,0.2-0.1,0.4-0.1,0.6c-0.9-0.1-2.1,0.1-2.8-0.4c-1.3-0.8-2.5-1.2-3.8-1.2c-0.7,0-1.4,0.1-2.2,0.3c-9.1,2.1-17.6,5.5-26,9.5
			c-0.4,0.2-0.7,0.4-1.5,1c1.1,0.7,2,1.3,2.8,1.9C95.9,57.8,95.4,58.2,94.9,58.2 M109.8,37.9c-0.4,0-0.7,0-1.1,0.1
			c-3.4,0.5-6.7,1.2-10,1.8c-0.6,0.1-1.1,0.4-1.8,0.7c0.3,0.3,0.4,0.5,0.5,0.6c3.2,1.7,6.4,3.4,9.7,5c0.2,0.1,0.5,0.2,0.8,0.2
			c0.2,0,0.5,0,0.7-0.1c4-1.2,7.9-2.5,11.8-3.8c0.1-0.2,0.2-0.3,0.3-0.5c-2.7-1.2-5.3-2.5-8.1-3.5C111.7,38.1,110.8,37.9,109.8,37.9
			"/>
		<polygon class="st1" points="59.2,21.4 59.8,21.9 96.2,21.9 96.7,21.4 		"/>
		<polygon class="st1" points="60.2,22.3 60.7,22.8 95.3,22.8 95.8,22.3 		"/>
		<polygon class="st1" points="61.1,23.2 61.6,23.7 94.3,23.7 94.8,23.2 		"/>
		<polygon class="st1" points="62,24.1 62.5,24.6 93.4,24.6 93.9,24.1 		"/>
		<polygon class="st1" points="62.9,25.1 63.4,25.6 92.5,25.6 93,25.1 		"/>
		<polygon class="st1" points="63.8,26 64.4,26.5 91.6,26.5 92.1,26 		"/>
		<polygon class="st1" points="64.8,26.9 65.3,27.4 90.7,27.4 91.2,26.9 		"/>
		<polygon class="st1" points="65.7,27.8 66.2,28.3 89.8,28.3 90.3,27.8 		"/>
		<polygon class="st1" points="66.6,28.7 67.1,29.2 88.8,29.2 89.3,28.7 		"/>
		<polygon class="st1" points="67.5,29.7 68,30.2 87.9,30.2 88.4,29.7 		"/>
		<polygon class="st1" points="68.4,30.6 68.9,31.1 87,31.1 87.5,30.6 		"/>
		<polygon class="st1" points="69.3,31.5 69.8,32 86.1,32 86.6,31.5 		"/>
		<polygon class="st1" points="70.3,32.4 70.8,32.9 85.2,32.9 85.7,32.4 		"/>
		<polygon class="st1" points="71.2,33.3 71.7,33.8 84.2,33.8 84.8,33.3 		"/>
		<polygon class="st1" points="72.1,34.2 72.6,34.8 83.3,34.8 83.8,34.2 		"/>
		<polygon class="st1" points="73,35.2 73.5,35.7 82.4,35.7 82.9,35.2 		"/>
		<polygon class="st1" points="73.9,36.1 74.4,36.6 81.5,36.6 82,36.1 		"/>
		<polygon class="st1" points="74.8,37 75.3,37.5 80.6,37.5 81.1,37 		"/>
		<polygon class="st1" points="75.7,37.9 76.3,38.4 79.7,38.4 80.2,37.9 		"/>
		<polygon class="st1" points="76.7,38.8 77.2,39.4 78.7,39.4 79.3,38.8 		"/>
		<polygon class="st1" points="77.6,39.8 78,40.1 78.3,39.8 		"/>
	</g>
</g>
</svg>
