<svg enable-background="new 0 0 315 129" viewBox="0 0 315 129" xmlns="http://www.w3.org/2000/svg"><path clip-rule="evenodd" d="m0 0h315v129h-315z" fill="#fff" fill-rule="evenodd"/><path d="m105.5 29.7v-9.7c0-.4.3-.7.7-.7h3c2.4 0 4.3 1.9 4.3 4.3v2.4c0 2.4-1.9 4.3-4.3 4.3h-3c-.4 0-.7-.2-.7-.6zm3.6-1.2c1.4 0 2.5-1.1 2.5-2.5v-2.5c0-1.4-1.1-2.5-2.5-2.5h-1.7v7.4h1.7z" fill="#0090d7"/><path d="m116.5 29.6v-6.3h-1.3c-.2 0-.3-.1-.3-.3v-1.1c0-.2.1-.3.3-.3h2.3c.4 0 .8.3.8.8v6.3h1.3c.2 0 .3.1.3.3v1c0 .2-.1.3-.3.3h-2.3c-.4 0-.8-.3-.8-.7zm.1-9.5v-1.7c0-.2.1-.3.3-.3h1.1c.2 0 .3.1.3.3v1.7c0 .2-.1.3-.3.3h-1.1c-.1.1-.3-.1-.3-.3z" fill="#0090d7"/><path d="m121.3 31.3c0-.6.2-1.1.6-1.5-.4-.3-.6-.7-.6-1.2 0-.7.4-1.4 1-1.8-.6-.5-1-1.3-1-2.3 0-1.9 1.5-3.2 3.4-3.2.5 0 .9.1 1.3.2h3c.2 0 .3.1.3.3v1c0 .2-.1.3-.3.3h-1.2c.2.4.3.8.3 1.3 0 1.9-1.5 3.2-3.4 3.2-.5 0-1-.1-1.4-.2-.2.2-.3.4-.3.7 0 .4.4.5.9.6h1.9c1.4 0 2.9.3 2.9 2.1 0 1.9-1.8 2.8-4 2.8-1.9-.1-3.4-.7-3.4-2.3zm5.6-.3c0-.6-.6-.6-1.1-.6h-1.5c-.3 0-.6 0-.9 0-.1.2-.2.4-.2.6 0 .9.8 1 1.8 1 .9 0 1.9-.2 1.9-1zm-.7-6.5c0-.9-.6-1.6-1.6-1.6s-1.6.6-1.6 1.6c0 .9.6 1.5 1.6 1.5 1.1 0 1.6-.6 1.6-1.5z" fill="#0090d7"/><path d="m132.1 29.6v-6.3h-1.3c-.2 0-.3-.1-.3-.3v-1.1c0-.2.1-.3.3-.3h2.3c.4 0 .8.3.8.8v6.3h1.3c.2 0 .3.1.3.3v1c0 .2-.1.3-.3.3h-2.3c-.5 0-.8-.3-.8-.7zm0-9.5v-1.7c0-.2.1-.3.3-.3h1.1c.2 0 .3.1.3.3v1.7c0 .2-.1.3-.3.3h-1.1c-.1.1-.3-.1-.3-.3z" fill="#0090d7"/><path d="m137.6 27.7v-4.4h-1.1c-.2 0-.3-.1-.3-.3v-1.1c0-.2.1-.3.3-.3h1.1v-1.7c0-.2.1-.3.3-.3h1.2c.2 0 .3.1.3.3v1.7h2.6c.2 0 .3.1.3.3v1.1c0 .2-.1.3-.3.3h-2.6v4.3c0 .6.4 1 1 1h1.6c.2 0 .3.1.3.3v1.1c0 .2-.1.3-.3.3h-1.8c-1.5 0-2.6-1-2.6-2.6z" fill="#0090d7"/><path d="m143.7 27.9c0-1.4 1-2.4 2.8-2.7.4-.1 1.7-.2 2-.3.4-.1.6-.3.6-.6 0-.8-.7-1.3-1.7-1.3-.8 0-1.5.3-1.8.9-.1.1-.2.2-.3.2s-.1 0-.2-.1l-.9-.6c-.1-.1-.1-.2-.1-.3v-.1c.6-1.1 1.8-1.8 3.3-1.8 2.1 0 3.4 1.2 3.4 3.1v5.7c0 .2-.1.3-.3.3h-1.1c-.2 0-.3-.1-.3-.3v-.6c-.7.8-1.5 1.1-2.5 1.1-1.7 0-2.9-1-2.9-2.6zm5.4-1.2v-.3c-.7.1-2 .3-2.4.3-.9.2-1.3.5-1.3 1.1s.5 1.1 1.3 1.1c1.3 0 2.4-1 2.4-2.2z" fill="#0090d7"/><path d="m153.7 29.7v-9.4h-1.4c-.2 0-.3-.1-.3-.3v-1.1c0-.2.1-.3.3-.3h2.6c.4 0 .7.3.7.7v9.4h1.4c.2 0 .3.1.3.3v1c0 .2-.1.3-.3.3h-2.6c-.4 0-.7-.2-.7-.6z" fill="#0090d7"/><path d="m158.5 27.9c0-1.4 1-2.4 2.8-2.7.4-.1 1.7-.2 2-.3.4-.1.6-.3.6-.6 0-.8-.7-1.3-1.7-1.3-.8 0-1.5.3-1.8.9-.1.1-.2.2-.3.2s-.1 0-.2-.1l-.9-.6c-.1-.1-.1-.2-.1-.3v-.1c.6-1.1 1.8-1.8 3.3-1.8 2.1 0 3.4 1.2 3.4 3.1v5.7c0 .2-.1.3-.3.3h-1.1c-.2 0-.3-.1-.3-.3v-.6c-.7.8-1.5 1.1-2.5 1.1-1.7 0-2.9-1-2.9-2.6zm5.4-1.2v-.3c-.7.1-2 .3-2.4.3-.9.2-1.3.5-1.3 1.1s.5 1.1 1.3 1.1c1.3 0 2.4-1 2.4-2.2z" fill="#0090d7"/><path d="m168 30v-11.2c0-.2.1-.3.3-.3h1.2c.2 0 .3.1.3.3v5.8h.5l2.8-3c.1-.1.3-.2.4-.2h1.4c.2 0 .3.1.3.3 0 .1 0 .2-.1.2l-3.3 3.5 3.5 4.4c0 .1.1.1.1.2 0 .2-.1.3-.3.3h-1.4c-.2 0-.4-.1-.5-.2l-3-3.7h-.5v3.6c0 .2-.1.3-.3.3h-1.2c-.1 0-.2-.1-.2-.3z" fill="#0090d7"/><path d="m176.4 27.9c0-1.4 1-2.4 2.8-2.7.4-.1 1.7-.2 2-.3.4-.1.6-.3.6-.6 0-.8-.7-1.3-1.7-1.3-.8 0-1.5.3-1.8.9-.1.1-.2.2-.3.2s-.1 0-.2-.1l-.9-.6c-.1-.1-.1-.2-.1-.3v-.1c.6-1.1 1.8-1.8 3.3-1.8 2.1 0 3.4 1.2 3.4 3.1v5.7c0 .2-.1.3-.3.3h-1.1c-.2 0-.3-.1-.3-.3v-.6c-.7.8-1.5 1.1-2.5 1.1-1.7 0-2.9-1-2.9-2.6zm5.4-1.2v-.3c-.7.1-2 .3-2.4.3-.9.2-1.3.5-1.3 1.1s.5 1.1 1.3 1.1c1.3 0 2.4-1 2.4-2.2z" fill="#0090d7"/><path d="m185.5 27v-2.1c0-1.9 1.5-3.6 3.4-3.6.8 0 1.5.2 2.1.7v-3.2c0-.2.1-.3.3-.3h1.2c.2 0 .3.1.3.3v11.2c0 .2-.1.3-.3.3h-1c-.2 0-.3-.1-.3-.3v-.7c-.6.8-1.4 1.3-2.3 1.3-1.8-.1-3.4-1.7-3.4-3.6zm5.5-.1v-2.1c0-1-.8-1.8-1.8-1.8s-1.8.8-1.8 1.8v2.1c0 1 .8 1.8 1.8 1.8 1 .1 1.8-.7 1.8-1.8z" fill="#0090d7"/><path d="m195 26.7v-1.7c0-2.1 1.6-3.7 3.7-3.7 2 0 3.7 1.6 3.7 3.7v1c0 .4-.3.7-.7.7h-4.8v.1c0 1 .8 1.8 1.8 1.8h2.5c.2 0 .3.1.3.3v1.1c0 .2-.1.3-.3.3h-2.5c-2.1 0-3.7-1.6-3.7-3.6zm5.5-1.7v-.1c0-1-.8-1.8-1.8-1.8s-1.8.8-1.8 1.8v.1z" fill="#0090d7"/><path d="m204.3 30v-8.2c0-.2.1-.3.3-.3h1.2c.2 0 .3.1.3.3v.8c.6-.9 1.5-1.3 2.3-1.3 1.1 0 2 .6 2.5 1.5.6-1 1.6-1.5 2.7-1.5 1.8 0 2.9 1.3 2.9 3.2v5.5c0 .2-.1.3-.3.3h-1.2c-.2 0-.3-.1-.3-.3v-5.3c0-1.1-.5-1.7-1.4-1.7-1.2 0-2 .9-2 2.2v4.8c0 .2-.1.3-.3.3h-1.2c-.2 0-.3-.1-.3-.3v-5.3c0-1.1-.5-1.7-1.4-1.7-1.2 0-2 .9-2 2.2v4.8c0 .2-.1.3-.3.3h-1.2c-.2 0-.3-.1-.3-.3z" fill="#0090d7"/><path d="m219.9 29.6v-6.3h-1.3c-.2 0-.3-.1-.3-.3v-1.1c0-.2.1-.3.3-.3h2.3c.4 0 .8.3.8.8v6.3h1.3c.2 0 .3.1.3.3v1c0 .2-.1.3-.3.3h-2.3c-.4 0-.8-.3-.8-.7zm.1-9.5v-1.7c0-.2.1-.3.3-.3h1.1c.2 0 .3.1.3.3v1.7c0 .2-.1.3-.3.3h-1.1c-.2.1-.3-.1-.3-.3z" fill="#0090d7"/><path d="m224.7 26.7v-1.7c0-2.1 1.6-3.7 3.7-3.7s3.7 1.6 3.7 3.7v1c0 .4-.3.7-.7.7h-4.8v.1c0 1 .8 1.8 1.8 1.8h2.5c.2 0 .3.1.3.3v1.1c0 .2-.1.3-.3.3h-2.5c-2 0-3.7-1.6-3.7-3.6zm5.5-1.7v-.1c0-1-.8-1.8-1.8-1.8s-1.8.8-1.8 1.8v.1z" fill="#0090d7"/><path d="m134.4 46.7v-9.6c0-.3.2-.6.6-.6h2.7c1.6 0 2.8 1.1 2.8 2.7 0 .9-.4 1.6-1.1 2.2 1.1.4 1.8 1.5 1.8 2.7 0 1.8-1.4 3.2-3.1 3.2h-3.1c-.3 0-.6-.3-.6-.6zm3-5.6c1 0 1.8-.8 1.8-1.8 0-.9-.7-1.7-1.7-1.7h-1.9v3.4zm.5 5c1.1 0 1.9-.8 1.9-1.9s-.8-1.9-1.9-1.9h-2.3v3.8z" fill="#878787"/><path d="m143.2 44.5v-5.8c0-.1.1-.2.2-.2h.8c.1 0 .2.1.2.2v5.6c0 1.3.8 2 1.9 2 1.3 0 2.3-.9 2.3-2.5v-5.1c0-.1.1-.2.2-.2h.8c.1 0 .2.1.2.2v8.3c0 .1-.1.2-.2.2h-.8c-.1 0-.2-.1-.2-.2v-.9c-.5.9-1.4 1.3-2.5 1.3-1.8.1-2.9-1.1-2.9-2.9z" fill="#878787"/><path d="m152.6 47v-8.3c0-.1.1-.2.2-.2h.8c.1 0 .2.1.2.2v.9c.5-.9 1.4-1.3 2.5-1.3 1.8 0 2.9 1.2 2.9 2.9v5.8c0 .1-.1.2-.2.2h-.8c-.1 0-.2-.1-.2-.2v-5.6c0-1.3-.8-2-1.9-2-1.3 0-2.3.9-2.3 2.5v5.1c0 .1-.1.2-.2.2h-.8c-.1 0-.2-.1-.2-.2z" fill="#878787"/><path d="m161.5 44.2v-2.7c0-1.8 1.4-3.2 3.2-3.2.9 0 1.7.3 2.3.9v-3.4c0-.1.1-.2.2-.2h.8c.1 0 .2.1.2.2v11.2c0 .1-.1.2-.2.2h-.7c-.1 0-.2-.1-.2-.2v-.7c-.6.7-1.4 1.1-2.3 1.1-1.9.1-3.3-1.4-3.3-3.2zm5.5 0v-2.6c0-1.2-1-2.1-2.2-2.1s-2.1 1-2.1 2.1v2.6c0 1.2 1 2.1 2.1 2.1 1.2 0 2.2-.9 2.2-2.1z" fill="#878787"/><path d="m75.1 67.4c-.4 0-.9-.1-1.2-.4-.2-.1-.1-.9.2-1.1.7-.6 1.4-1.2 2.5-2-8-6.1-16.3-10.2-24.9-13.9.6-.8 1.3-1.1 2-1.1.5 0 1 .2 1.6.4 2.5 1.2 5.1 2.5 7.6 3.6.4.2.9.4 1.3.4.2 0 .3 0 .4-.1 3.4-2.1 6.8-4.3 10.4-6.6-.6-.4-1.1-.7-1.7-1-7-3-14.2-5.5-21.7-6.9-2-.4-3.9-.6-5.9-.8-.1 0-.2 0-.3 0-.4 0-.7.1-1 .2-2.6 1.1-5.2 2.2-7.7 3.4-.4.2-.8.6-1.5 1.1 2.8.8 5.3 1.2 7.5 2.3 1.7.8 3.3 1.2 4.8 1.2 2.1 0 4.1-.7 6.1-2.2 1-.7 2.1-1.4 3.3-1.4.7 0 1.4.2 2.2.8-2.8 1.5-5.5 2.9-8.3 4.4-1.4.8-2.9 1.6-4.2 2.5-.6.5-1.2.8-1.8.8-.5 0-1.1-.2-1.7-.8.7-.6 1.5-1.2 2.7-2.1-2.5-.8-4.6-1.6-6.8-2.2-1.2-.4-2.4-.6-3.6-.9-1-.3-1.9-.5-2.9-.5-1.3 0-2.5.4-3.8 1.3-.4.3-1 .3-1.6.3-.1 0-.2 0-.4 0-.1 0-.2 0-.4 0s-.4 0-.6 0c0-.2-.1-.4-.1-.7.8-.5 1.6-1 2.5-1.5 9.4-5.6 19.4-9.6 30-12.1 2.7-.6 5.4-.9 8.2-1.3h.1c.6 0 1.2.4 2.1.7-.9.6-1.3.8-1.7 1.1 1.2.6 2.3 1.1 3.5 1.6 0 .3-.1.5-.1.8-2.7-.6-5.4-.9-8-.9-3.8 0-7.6.7-11.5 2.5 1.4.4 2.4.7 3.5.9 2.3.6 4.7 1 7 1.7.6.2 1.2.3 1.7.3.6 0 1.2-.1 1.8-.4 1.8-.8 3.6-1.4 5.4-2.1.4-.2.8-.3 1.1-.3.7 0 1.2.4 1.6 1.5-1.9.7-3.8 1.4-5.8 2.1 0 .2 0 .3-.1.5 1.8.8 3.6 1.5 5.3 2.3.8.3 1.7.6 2.4 1.1 1.1.8 2.2 1.1 3.3 1.1s2.2-.4 3.4-1.1 2.6-1.2 3.8-1.7c.5-.2 1-.3 1.5-.3.8 0 1.7.3 2.5.9-4 1.8-7.9 3.4-11.7 5.4-3.7 1.9-7.3 4.1-11.2 6.4.8.6 1.2.9 1.5 1.2 3 2 6 3.9 8.9 6 .5.3.9.5 1.3.5s.8-.2 1.2-.5c2.3-1.7 4.8-3.2 7.1-4.9.4-.3.8-.4 1.1-.4.5 0 1 .4 1.6 1.2-1.1.7-2.1 1.3-3.1 2-3.3 2.4-6.6 4.9-9.8 7.4-.3.2-.5.6-.8.6 0-.3 0-.3-.1-.3" fill="#ccc"/><path d="m94.9 58.2c-.3 0-.6-.1-1-.4-4.2-2.8-8.5-5.7-12.7-8.5-.1-.1-.1-.2-.2-.4.6-.5 1.2-.8 1.8-.8.5 0 1 .2 1.5.5 2.1 1.4 4.3 2.8 6.5 4.1.4.2.9.4 1.3.4.2 0 .3 0 .4-.1 3.9-1.7 7.7-3.5 11.5-5.3.2-.1.3-.2.7-.6-6.8-4.1-14-6.8-21.3-9.4 0-.2 0-.4 0-.6.9 0 1.9-.1 2.8-.1.6 0 1.2 0 1.8.1 1.4.3 2.7 1 4.1 1.5.4.1.8.2 1.2.2h.4c3.6-.9 7.2-1.8 10.7-2.7.1 0 .3-.2.4-.3-2-1.5-5.8-2.3-10.7-2.3-2.6 0-5.5.2-8.6.7.6-1.4.6-1.4 3.6-2.3-.6-.3-1-.5-1.9-1 .8-.4 1.5-.9 2.1-.9h.1c6.1 1.3 12.2 2.3 18.1 4.1 7.4 2.2 14.3 6 20.9 9.9.5.3.9.7 1.4 1 0 .2-.1.4-.1.6-.9-.1-2.1.1-2.8-.4-1.3-.8-2.5-1.2-3.8-1.2-.7 0-1.4.1-2.2.3-9.1 2.1-17.6 5.5-26 9.5-.4.2-.7.4-1.5 1 1.1.7 2 1.3 2.8 1.9-.3 1.1-.8 1.5-1.3 1.5m14.9-20.3c-.4 0-.7 0-1.1.1-3.4.5-6.7 1.2-10 1.8-.6.1-1.1.4-1.8.7.3.3.4.5.5.6 3.2 1.7 6.4 3.4 9.7 5 .2.1.5.2.8.2.2 0 .5 0 .7-.1 4-1.2 7.9-2.5 11.8-3.8.1-.2.2-.3.3-.5-2.7-1.2-5.3-2.5-8.1-3.5-.9-.3-1.8-.5-2.8-.5" fill="#ccc"/><g fill="#0090d7"><path d="m59.2 21.4.6.5h36.4l.5-.5z"/><path d="m60.2 22.3.5.5h34.6l.5-.5z"/><path d="m61.1 23.2.5.5h32.7l.5-.5z"/><path d="m62 24.1.5.5h30.9l.5-.5z"/><path d="m62.9 25.1.5.5h29.1l.5-.5z"/><path d="m63.8 26 .6.5h27.2l.5-.5z"/><path d="m64.8 26.9.5.5h25.4l.5-.5z"/><path d="m65.7 27.8.5.5h23.6l.5-.5z"/><path d="m66.6 28.7.5.5h21.7l.5-.5z"/><path d="m67.5 29.7.5.5h19.9l.5-.5z"/><path d="m68.4 30.6.5.5h18.1l.5-.5z"/><path d="m69.3 31.5.5.5h16.3l.5-.5z"/><path d="m70.3 32.4.5.5h14.4l.5-.5z"/><path d="m71.2 33.3.5.5h12.5l.6-.5z"/><path d="m72.1 34.2.5.6h10.7l.5-.6z"/><path d="m73 35.2.5.5h8.9l.5-.5z"/><path d="m73.9 36.1.5.5h7.1l.5-.5z"/><path d="m74.8 37 .5.5h5.3l.5-.5z"/><path d="m75.7 37.9.6.5h3.4l.5-.5z"/><path d="m76.7 38.8.5.6h1.5l.6-.6z"/><path d="m77.6 39.8.4.3.3-.3z"/></g></svg>