<?xml version="1.0" encoding="utf-8"?>
<!-- Generator: Adobe Illustrator 25.4.1, SVG Export Plug-In . SVG Version: 6.00 Build 0)  -->
<svg version="1.1" id="Ebene_1" xmlns="http://www.w3.org/2000/svg" xmlns:xlink="http://www.w3.org/1999/xlink" x="0px" y="0px"
	 viewBox="0 0 315 129" style="enable-background:new 0 0 315 129;" xml:space="preserve">
<style type="text/css">
	.st0{fill:#FFC300;}
	.st1{fill:#E60037;}
</style>
<path d="M98.6,42.7c0-4.7-3.8-8.6-8.6-8.6l0,0H65.1c-0.5,0-0.9-0.4-0.9-0.8c0,0,0,0,0,0v-9.9c0-1.2-1-2.1-2.1-2.1h-4.3
	c-1.2,0-2.1,1-2.1,2.1v32.2c0,1.2,1,2.1,2.1,2.2h4.3c1.2,0,2.1-1,2.1-2.2v-12c0-0.5,0.4-0.9,0.9-0.9l0,0h24c0.5,0,0.9,0.4,0.9,0.9
	c0,0,0,0,0,0v13.3c0,0.5-0.4,0.9-0.8,0.9c0,0,0,0,0,0H66.4c-1.2,0-2.1,1-2.1,2.1v4.3c0,1.2,1,2.1,2.1,2.1H90c4.7,0,8.6-3.8,8.6-8.6
	c0,0,0,0,0,0L98.6,42.7z"/>
<path class="st0" d="M186.6,34.1H163c-4.7,0-8.6,3.8-8.6,8.6v0v12.9c0,1.2,1,2.1,2.2,2.1h4.3c1.2,0,2.1-1,2.1-2.1v0v-12
	c0-0.5,0.4-0.9,0.9-0.9h22.7c1.2,0,2.1-1,2.2-2.1c0,0,0,0,0,0v-4.3C188.7,35.1,187.8,34.1,186.6,34.1
	C186.6,34.1,186.6,34.1,186.6,34.1z"/>
<path class="st1" d="M148,34.1V23.4c0-1.2-1-2.1-2.1-2.1h-4.3c-1.2,0-2.1,1-2.1,2.1v9.9c0,0.5-0.4,0.9-0.9,0.9l0,0h-24.9
	c-4.7,0-8.6,3.8-8.6,8.6v15c0,4.7,3.8,8.6,8.6,8.6c0,0,0,0,0,0h23.6c1.2,0,2.1-1,2.1-2.1v-4.3c0-1.2-1-2.1-2.1-2.1h-22.8
	c-0.5,0-0.9-0.4-0.9-0.9l0,0V43.6c0-0.5,0.4-0.9,0.9-0.9l0,0h24c0.5,0,0.9,0.4,0.9,0.9l0,0v12c0,1.2,1,2.1,2.1,2.1l0,0h4.3
	c1.2,0,2.1-1,2.1-2.1v0V42.7l0,0V34.1z"/>
<path d="M182.3,57.7h4.3c1.2,0,2.1,1,2.1,2.1v4.3c0,1.2-1,2.1-2.1,2.1h-4.3c-1.2,0-2.1-1-2.1-2.1v-4.3
	C180.2,58.7,181.1,57.7,182.3,57.7z"/>
</svg>
