<svg enable-background="new 0 0 315 129" viewBox="0 0 315 129" xmlns="http://www.w3.org/2000/svg"><path d="m98.6 42.7c0-4.7-3.8-8.6-8.6-8.6h-24.9c-.5 0-.9-.4-.9-.8v-9.9c0-1.2-1-2.1-2.1-2.1h-4.3c-1.2 0-2.1 1-2.1 2.1v32.2c0 1.2 1 2.1 2.1 2.2h4.3c1.2 0 2.1-1 2.1-2.2v-12c0-.5.4-.9.9-.9h24c.5 0 .9.4.9.9v13.3c0 .5-.4.9-.8.9h-22.8c-1.2 0-2.1 1-2.1 2.1v4.3c0 1.2 1 2.1 2.1 2.1h23.6c4.7 0 8.6-3.8 8.6-8.6z"/><path d="m186.6 34.1h-23.6c-4.7 0-8.6 3.8-8.6 8.6v12.9c0 1.2 1 2.1 2.2 2.1h4.3c1.2 0 2.1-1 2.1-2.1v-12c0-.5.4-.9.9-.9h22.7c1.2 0 2.1-1 2.2-2.1v-4.3c-.1-1.2-1-2.2-2.2-2.2z" fill="#ffc300"/><path d="m148 34.1v-10.7c0-1.2-1-2.1-2.1-2.1h-4.3c-1.2 0-2.1 1-2.1 2.1v9.9c0 .5-.4.9-.9.9h-24.9c-4.7 0-8.6 3.8-8.6 8.6v15c0 4.7 3.8 8.6 8.6 8.6h23.6c1.2 0 2.1-1 2.1-2.1v-4.3c0-1.2-1-2.1-2.1-2.1h-22.8c-.5 0-.9-.4-.9-.9v-13.4c0-.5.4-.9.9-.9h24c.5 0 .9.4.9.9v12c0 1.2 1 2.1 2.1 2.1h4.3c1.2 0 2.1-1 2.1-2.1v-12.9-8.6z" fill="#e60037"/><path d="m182.3 57.7h4.3c1.2 0 2.1 1 2.1 2.1v4.3c0 1.2-1 2.1-2.1 2.1h-4.3c-1.2 0-2.1-1-2.1-2.1v-4.3c0-1.1.9-2.1 2.1-2.1z"/></svg>