<?xml version="1.0" encoding="utf-8"?>
<!-- Generator: Adobe Illustrator 25.4.1, SVG Export Plug-In . SVG Version: 6.00 Build 0)  -->
<svg version="1.1" id="Ebene_1" xmlns="http://www.w3.org/2000/svg" xmlns:xlink="http://www.w3.org/1999/xlink" x="0px" y="0px"
	 viewBox="0 0 315 129" style="enable-background:new 0 0 315 129;" xml:space="preserve">
<style type="text/css">
	.st0{fill:#FF0000;}
	.st1{fill:#FFCC00;}
</style>
<g>
	<g id="Name" transform="scale(1,-1) translate(0,-104)">
		<path d="M89.9,79.7c0-0.4-0.1-0.8-0.2-1.1c-0.1-0.3-0.2-0.6-0.4-0.8c-0.2-0.2-0.4-0.4-0.6-0.5C88.5,77.1,88.2,77,88,77v0
			c0.3-0.1,0.6-0.2,0.9-0.3c0.3-0.2,0.5-0.4,0.7-0.6c0.2-0.2,0.4-0.5,0.5-0.8c0.1-0.3,0.2-0.7,0.2-1.1c0-0.5-0.1-0.9-0.2-1.3
			c-0.2-0.4-0.4-0.7-0.7-1c-0.3-0.3-0.8-0.5-1.3-0.7c-0.5-0.2-1.1-0.2-1.8-0.2h-2.4v11.7H86c0.7,0,1.3-0.1,1.8-0.2
			c0.5-0.1,0.9-0.3,1.2-0.6c0.3-0.3,0.5-0.6,0.7-0.9C89.8,80.5,89.9,80.1,89.9,79.7z M88.4,79.6c0,0.5-0.2,1-0.6,1.3
			c-0.4,0.4-1,0.5-1.8,0.5h-0.8v-4H86c0.8,0,1.4,0.2,1.8,0.6C88.2,78.4,88.4,78.9,88.4,79.6z M88.6,74.2c0,0.6-0.2,1.1-0.6,1.5
			c-0.4,0.4-1,0.6-1.8,0.6h-1v-4.1h0.9c0.9,0,1.5,0.2,1.9,0.5C88.4,73,88.6,73.5,88.6,74.2z M97.7,70.9h-1.3v0.9h0
			c0-0.1-0.1-0.2-0.2-0.3c-0.1-0.1-0.3-0.3-0.4-0.4c-0.2-0.1-0.4-0.2-0.6-0.3c-0.2-0.1-0.5-0.1-0.8-0.1c-0.4,0-0.7,0.1-1,0.2
			c-0.3,0.1-0.5,0.3-0.7,0.5c-0.2,0.2-0.4,0.5-0.5,0.9c-0.1,0.4-0.2,0.8-0.2,1.4v5.3h1.4v-5.2c0-0.7,0.1-1.2,0.3-1.4
			c0.2-0.3,0.6-0.4,1-0.4c0.4,0,0.7,0.1,1,0.3c0.3,0.2,0.5,0.4,0.6,0.6v6.2h1.4V70.9z M104.2,70.9v5.2c0,0.7-0.1,1.2-0.3,1.5
			c-0.2,0.3-0.6,0.4-1.1,0.4c-0.4,0-0.7-0.1-1-0.3c-0.3-0.2-0.5-0.4-0.6-0.6v-6.3h-1.4v8.1h1.3v-0.9h0c0,0.1,0.1,0.2,0.2,0.3
			c0.1,0.1,0.3,0.3,0.4,0.4c0.2,0.1,0.4,0.2,0.6,0.3c0.2,0.1,0.5,0.1,0.8,0.1c0.4,0,0.7-0.1,1-0.2c0.3-0.1,0.5-0.3,0.7-0.5
			c0.2-0.2,0.4-0.5,0.5-0.9c0.1-0.4,0.2-0.8,0.2-1.4v-5.3H104.2z M107.3,74.9c0,0.8,0.1,1.5,0.3,2.1s0.5,1,0.8,1.3
			c0.3,0.3,0.7,0.6,1.2,0.7c0.4,0.1,0.9,0.2,1.3,0.2c0.3,0,0.5,0,0.7-0.1c0.2,0,0.4-0.1,0.5-0.1v3.9l1.4,0.2V70.9h-1.3v0.9h0
			c0-0.1-0.1-0.2-0.2-0.3c-0.1-0.1-0.2-0.2-0.4-0.4c-0.2-0.1-0.4-0.2-0.6-0.3c-0.2-0.1-0.5-0.1-0.8-0.1c-0.4,0-0.7,0.1-1.1,0.2
			c-0.3,0.2-0.6,0.4-0.9,0.7c-0.3,0.3-0.5,0.8-0.6,1.3S107.3,74.1,107.3,74.9z M110.5,72c0.2,0,0.4,0,0.6,0.1
			c0.2,0.1,0.3,0.1,0.4,0.2c0.1,0.1,0.2,0.2,0.3,0.3c0.1,0.1,0.1,0.2,0.2,0.2v5c-0.1,0.1-0.3,0.1-0.4,0.2c-0.2,0.1-0.4,0.1-0.6,0.1
			c-0.3,0-0.6-0.1-0.9-0.2c-0.3-0.1-0.5-0.3-0.7-0.5c-0.2-0.2-0.4-0.6-0.5-1c-0.1-0.4-0.2-0.9-0.2-1.5c0-0.6,0-1,0.1-1.4
			c0.1-0.4,0.2-0.7,0.4-0.9c0.2-0.2,0.4-0.4,0.6-0.5C110,72,110.3,72,110.5,72z M120.7,76.3c0-0.4,0-0.7,0-0.9c0-0.3,0-0.5-0.1-0.7
			h-4.2c0-1,0.3-1.7,0.6-2.1c0.4-0.5,0.9-0.7,1.6-0.7c0.2,0,0.5,0,0.6,0.1c0.2,0.1,0.4,0.1,0.5,0.2c0.1,0.1,0.3,0.2,0.4,0.2
			c0.1,0.1,0.2,0.1,0.2,0.2l0.5-1c-0.1-0.1-0.1-0.1-0.3-0.2c-0.1-0.1-0.3-0.2-0.5-0.3c-0.2-0.1-0.4-0.2-0.7-0.3
			c-0.3-0.1-0.6-0.1-1-0.1c-0.5,0-1,0.1-1.4,0.3c-0.4,0.2-0.8,0.4-1.1,0.8c-0.3,0.4-0.5,0.8-0.7,1.4c-0.2,0.5-0.2,1.2-0.2,2
			c0,0.7,0.1,1.3,0.2,1.9c0.2,0.5,0.4,1,0.7,1.3c0.3,0.3,0.6,0.6,1,0.8c0.4,0.2,0.8,0.2,1.2,0.2c0.8,0,1.4-0.2,1.8-0.7
			C120.5,78.1,120.7,77.3,120.7,76.3z M118.1,78.2c-0.5,0-0.9-0.2-1.2-0.6s-0.5-1-0.5-1.8h3c0,0.1,0,0.1,0,0.2c0,0.1,0,0.2,0,0.3
			c0,0.6-0.1,1-0.3,1.3C118.9,78,118.6,78.2,118.1,78.2z M126,77.4c-0.1,0.1-0.3,0.2-0.5,0.4c-0.2,0.2-0.5,0.3-0.9,0.3
			c-0.4,0-0.6-0.1-0.8-0.3c-0.2-0.2-0.3-0.4-0.3-0.6c0-0.3,0.1-0.6,0.3-0.8c0.2-0.2,0.4-0.4,0.8-0.6l0.5-0.3c0.6-0.3,1-0.7,1.3-1.1
			c0.3-0.4,0.5-0.9,0.5-1.5c0-0.6-0.2-1.2-0.7-1.6c-0.4-0.4-1.1-0.7-1.9-0.7c-0.3,0-0.6,0-0.9,0.1c-0.2,0.1-0.5,0.1-0.7,0.2
			c-0.2,0.1-0.3,0.2-0.5,0.3c-0.1,0.1-0.2,0.2-0.3,0.3l0.7,1.1c0.1-0.1,0.1-0.1,0.2-0.2c0.1-0.1,0.2-0.2,0.3-0.3
			c0.1-0.1,0.3-0.2,0.5-0.2c0.2-0.1,0.4-0.1,0.6-0.1c0.4,0,0.7,0.1,0.9,0.3c0.2,0.2,0.3,0.4,0.3,0.7c0,0.2,0,0.4-0.1,0.5
			c-0.1,0.1-0.1,0.3-0.2,0.4c-0.1,0.1-0.2,0.2-0.4,0.3c-0.1,0.1-0.3,0.2-0.5,0.3l-0.5,0.3c-0.5,0.3-0.9,0.7-1.2,1
			c-0.3,0.4-0.4,0.8-0.4,1.4c0,0.3,0.1,0.6,0.2,0.8c0.1,0.3,0.3,0.5,0.5,0.7c0.2,0.2,0.5,0.3,0.8,0.4c0.3,0.1,0.6,0.2,0.9,0.2
			c0.3,0,0.6,0,0.8-0.1c0.2-0.1,0.4-0.1,0.6-0.2c0.2-0.1,0.3-0.2,0.4-0.3c0.1-0.1,0.2-0.2,0.3-0.2L126,77.4z M132.7,70.9v5.2
			c0,0.7-0.1,1.1-0.3,1.4s-0.5,0.4-0.9,0.4c-0.2,0-0.4,0-0.6-0.1c-0.2-0.1-0.3-0.1-0.5-0.2c-0.1-0.1-0.3-0.2-0.4-0.3
			c-0.1-0.1-0.2-0.2-0.3-0.3v-6.3h-1.4v8.1h1.3v-0.9h0c0.1,0.1,0.1,0.2,0.3,0.3c0.1,0.1,0.3,0.3,0.4,0.4s0.4,0.2,0.6,0.3
			c0.2,0.1,0.5,0.1,0.8,0.1c0.9,0,1.6-0.4,2-1.1c0.1,0.1,0.2,0.2,0.3,0.4c0.1,0.1,0.3,0.2,0.5,0.4c0.2,0.1,0.4,0.2,0.6,0.3
			s0.5,0.1,0.7,0.1c1.6,0,2.5-1,2.5-2.9v-5.5H137v5.2c0,0.7-0.1,1.1-0.4,1.4c-0.2,0.3-0.6,0.4-1.1,0.4c-0.4,0-0.7-0.1-1-0.3
			c-0.3-0.2-0.5-0.4-0.6-0.5c0-0.1,0-0.3,0.1-0.4c0-0.1,0-0.3,0-0.4v-5.5H132.7z M141.8,70.9h-1.4v8.1h1.4V70.9z M141.1,81
			c-0.3,0-0.5,0.1-0.7,0.3s-0.3,0.4-0.3,0.7c0,0.3,0.1,0.5,0.3,0.7s0.4,0.3,0.7,0.3c0.3,0,0.5-0.1,0.7-0.3s0.3-0.4,0.3-0.7
			c0-0.3-0.1-0.5-0.3-0.7S141.4,81,141.1,81z M148.3,70.9v5.2c0,0.7-0.1,1.2-0.3,1.5c-0.2,0.3-0.6,0.4-1.1,0.4c-0.4,0-0.7-0.1-1-0.3
			c-0.3-0.2-0.5-0.4-0.6-0.6v-6.3h-1.4v8.1h1.3v-0.9h0c0,0.1,0.1,0.2,0.2,0.3c0.1,0.1,0.3,0.3,0.4,0.4c0.2,0.1,0.4,0.2,0.6,0.3
			s0.5,0.1,0.8,0.1c0.4,0,0.7-0.1,1-0.2c0.3-0.1,0.5-0.3,0.7-0.5c0.2-0.2,0.4-0.5,0.5-0.9c0.1-0.4,0.2-0.8,0.2-1.4v-5.3H148.3z
			 M153.1,70.9h-1.4v8.1h1.4V70.9z M152.5,81c-0.3,0-0.5,0.1-0.7,0.3c-0.2,0.2-0.3,0.4-0.3,0.7c0,0.3,0.1,0.5,0.3,0.7
			c0.2,0.2,0.4,0.3,0.7,0.3c0.3,0,0.5-0.1,0.7-0.3s0.3-0.4,0.3-0.7c0-0.3-0.1-0.5-0.3-0.7S152.7,81,152.5,81z M158.8,77.4
			c-0.1,0.1-0.3,0.2-0.5,0.4c-0.2,0.2-0.5,0.3-0.9,0.3c-0.4,0-0.6-0.1-0.8-0.3c-0.2-0.2-0.3-0.4-0.3-0.6c0-0.3,0.1-0.6,0.3-0.8
			c0.2-0.2,0.4-0.4,0.8-0.6l0.5-0.3c0.6-0.3,1-0.7,1.3-1.1c0.3-0.4,0.5-0.9,0.5-1.5c0-0.6-0.2-1.2-0.7-1.6c-0.4-0.4-1.1-0.7-1.9-0.7
			c-0.3,0-0.6,0-0.9,0.1c-0.2,0.1-0.5,0.1-0.7,0.2c-0.2,0.1-0.3,0.2-0.5,0.3c-0.1,0.1-0.2,0.2-0.3,0.3l0.7,1.1
			c0.1-0.1,0.1-0.1,0.2-0.2c0.1-0.1,0.2-0.2,0.3-0.3c0.1-0.1,0.3-0.2,0.5-0.2c0.2-0.1,0.4-0.1,0.6-0.1c0.4,0,0.7,0.1,0.9,0.3
			c0.2,0.2,0.3,0.4,0.3,0.7c0,0.2,0,0.4-0.1,0.5c-0.1,0.1-0.1,0.3-0.2,0.4c-0.1,0.1-0.2,0.2-0.4,0.3c-0.1,0.1-0.3,0.2-0.5,0.3
			l-0.5,0.3c-0.5,0.3-0.9,0.7-1.2,1c-0.3,0.4-0.4,0.8-0.4,1.4c0,0.3,0.1,0.6,0.2,0.8c0.1,0.3,0.3,0.5,0.5,0.7
			c0.2,0.2,0.5,0.3,0.8,0.4c0.3,0.1,0.6,0.2,0.9,0.2c0.3,0,0.6,0,0.8-0.1c0.2-0.1,0.4-0.1,0.6-0.2c0.2-0.1,0.3-0.2,0.4-0.3
			c0.1-0.1,0.2-0.2,0.3-0.2L158.8,77.4z M164.6,78h-1.8v-4.5c0-0.6,0.1-1,0.2-1.2c0.1-0.2,0.4-0.3,0.7-0.3c0.2,0,0.4,0,0.5,0.1
			c0.1,0.1,0.3,0.1,0.3,0.2l0.2-1.1c-0.1,0-0.2-0.1-0.4-0.2c-0.2-0.1-0.5-0.1-0.9-0.1c-0.7,0-1.2,0.2-1.6,0.6
			c-0.4,0.4-0.5,1-0.5,1.9V78h-1v0.9l1,0.2l0.2,2.3h1.2v-2.3h1.9L164.6,78z M171.3,76.3c0-0.4,0-0.7,0-0.9c0-0.3,0-0.5-0.1-0.7h-4.2
			c0-1,0.3-1.7,0.6-2.1c0.4-0.5,0.9-0.7,1.6-0.7c0.2,0,0.5,0,0.6,0.1c0.2,0.1,0.4,0.1,0.5,0.2c0.1,0.1,0.3,0.2,0.4,0.2
			c0.1,0.1,0.2,0.1,0.2,0.2l0.5-1c-0.1-0.1-0.1-0.1-0.3-0.2c-0.1-0.1-0.3-0.2-0.5-0.3c-0.2-0.1-0.4-0.2-0.7-0.3
			c-0.3-0.1-0.6-0.1-1-0.1c-0.5,0-1,0.1-1.4,0.3c-0.4,0.2-0.8,0.4-1.1,0.8c-0.3,0.4-0.5,0.8-0.7,1.4c-0.2,0.5-0.2,1.2-0.2,2
			c0,0.7,0.1,1.3,0.2,1.9c0.2,0.5,0.4,1,0.7,1.3s0.6,0.6,1,0.8c0.4,0.2,0.8,0.2,1.2,0.2c0.8,0,1.4-0.2,1.8-0.7
			C171.1,78.1,171.3,77.3,171.3,76.3z M168.7,78.2c-0.5,0-0.9-0.2-1.2-0.6c-0.3-0.4-0.5-1-0.5-1.8h3c0,0.1,0,0.1,0,0.2
			c0,0.1,0,0.2,0,0.3c0,0.6-0.1,1-0.3,1.3C169.5,78,169.2,78.2,168.7,78.2z M176.7,77.9c0,0-0.1,0.1-0.2,0.1c-0.1,0-0.3,0.1-0.5,0.1
			c-0.4,0-0.8-0.1-1-0.3c-0.2-0.2-0.4-0.5-0.5-0.8v-6h-1.4v8.1h1.3V78h0c0.1,0.2,0.1,0.3,0.2,0.5s0.2,0.3,0.3,0.4s0.3,0.2,0.5,0.3
			c0.2,0.1,0.4,0.1,0.7,0.1c0.2,0,0.3,0,0.5-0.1c0.1,0,0.2-0.1,0.3-0.1L176.7,77.9z M179.4,70.9h-1.4v8.1h1.4V70.9z M178.8,81
			c-0.3,0-0.5,0.1-0.7,0.3c-0.2,0.2-0.3,0.4-0.3,0.7c0,0.3,0.1,0.5,0.3,0.7c0.2,0.2,0.4,0.3,0.7,0.3c0.3,0,0.5-0.1,0.7-0.3
			c0.2-0.2,0.3-0.4,0.3-0.7c0-0.3-0.1-0.5-0.3-0.7C179.3,81.1,179,81,178.8,81z M187.2,70.9H186v0.9h0c0-0.1-0.1-0.2-0.2-0.3
			c-0.1-0.1-0.3-0.3-0.4-0.4c-0.2-0.1-0.4-0.2-0.6-0.3c-0.2-0.1-0.5-0.1-0.8-0.1c-0.4,0-0.7,0.1-1,0.2c-0.3,0.1-0.5,0.3-0.7,0.5
			c-0.2,0.2-0.4,0.5-0.5,0.9c-0.1,0.4-0.2,0.8-0.2,1.4v5.3h1.4v-5.2c0-0.7,0.1-1.2,0.3-1.4c0.2-0.3,0.6-0.4,1-0.4
			c0.4,0,0.7,0.1,1,0.3c0.3,0.2,0.5,0.4,0.6,0.6v6.2h1.4V70.9z M193.6,70.9v5.2c0,0.7-0.1,1.1-0.3,1.4c-0.2,0.3-0.5,0.4-0.9,0.4
			c-0.2,0-0.4,0-0.6-0.1c-0.2-0.1-0.3-0.1-0.5-0.2c-0.1-0.1-0.3-0.2-0.4-0.3c-0.1-0.1-0.2-0.2-0.3-0.3v-6.3h-1.4v8.1h1.3v-0.9h0
			c0.1,0.1,0.1,0.2,0.3,0.3c0.1,0.1,0.3,0.3,0.4,0.4c0.2,0.1,0.4,0.2,0.6,0.3c0.2,0.1,0.5,0.1,0.8,0.1c0.9,0,1.6-0.4,2-1.1
			c0.1,0.1,0.2,0.2,0.3,0.4c0.1,0.1,0.3,0.2,0.5,0.4c0.2,0.1,0.4,0.2,0.6,0.3c0.2,0.1,0.5,0.1,0.7,0.1c1.6,0,2.5-1,2.5-2.9v-5.5
			h-1.4v5.2c0,0.7-0.1,1.1-0.4,1.4s-0.6,0.4-1.1,0.4c-0.4,0-0.7-0.1-1-0.3c-0.3-0.2-0.5-0.4-0.6-0.5c0-0.1,0-0.3,0.1-0.4
			c0-0.1,0-0.3,0-0.4v-5.5H193.6z M86.9,60.9h-1.7v-7h-1.4v7h-1v0.9l1,0.2v1.6c0,0.4,0.1,0.8,0.2,1.1c0.1,0.3,0.3,0.6,0.5,0.8
			c0.2,0.2,0.4,0.4,0.7,0.4c0.3,0.1,0.6,0.1,0.9,0.1c0.3,0,0.5,0,0.7-0.1c0.2-0.1,0.3-0.1,0.4-0.2L87,64.7c-0.1,0-0.2,0.1-0.3,0.1
			c-0.1,0.1-0.3,0.1-0.5,0.1c-0.3,0-0.6-0.1-0.7-0.3c-0.2-0.2-0.3-0.6-0.3-1.1V62H87L86.9,60.9z M93.9,53.9h-1.3v0.9h0
			c0-0.1-0.1-0.2-0.2-0.3c-0.1-0.1-0.3-0.3-0.4-0.4c-0.2-0.1-0.4-0.2-0.6-0.3c-0.2-0.1-0.5-0.1-0.8-0.1c-0.4,0-0.7,0.1-1,0.2
			c-0.3,0.1-0.5,0.3-0.7,0.5c-0.2,0.2-0.4,0.5-0.5,0.9c-0.1,0.4-0.2,0.8-0.2,1.4V62h1.4v-5.2c0-0.7,0.1-1.2,0.3-1.4
			c0.2-0.3,0.6-0.4,1-0.4c0.4,0,0.7,0.1,1,0.3c0.3,0.2,0.5,0.4,0.6,0.6V62h1.4V53.9z M90.5,64.3c0-0.3-0.1-0.5-0.2-0.6
			c-0.2-0.2-0.4-0.2-0.6-0.2s-0.4,0.1-0.6,0.2s-0.2,0.4-0.2,0.6c0,0.3,0.1,0.5,0.2,0.6c0.2,0.2,0.4,0.2,0.6,0.2s0.4-0.1,0.6-0.2
			C90.5,64.8,90.5,64.6,90.5,64.3z M93.2,64.3c0-0.3-0.1-0.5-0.2-0.6s-0.4-0.2-0.6-0.2c-0.2,0-0.4,0.1-0.6,0.2
			c-0.2,0.2-0.2,0.4-0.2,0.6c0,0.3,0.1,0.5,0.2,0.6c0.2,0.2,0.4,0.2,0.6,0.2c0.2,0,0.4-0.1,0.6-0.2C93.1,64.8,93.2,64.6,93.2,64.3z
			 M99.6,60.8c0,0-0.1,0.1-0.2,0.1c-0.1,0-0.3,0.1-0.5,0.1c-0.4,0-0.8-0.1-1-0.3c-0.2-0.2-0.4-0.5-0.5-0.8v-6H96V62h1.3v-1.1h0
			c0.1,0.2,0.1,0.3,0.2,0.5c0.1,0.2,0.2,0.3,0.3,0.4c0.1,0.1,0.3,0.2,0.5,0.3c0.2,0.1,0.4,0.1,0.7,0.1c0.2,0,0.3,0,0.5-0.1
			c0.1,0,0.2-0.1,0.3-0.1L99.6,60.8z M110.6,62.6c0-0.4-0.1-0.8-0.2-1.1c-0.1-0.3-0.2-0.6-0.4-0.8c-0.2-0.2-0.4-0.4-0.6-0.5
			c-0.2-0.1-0.5-0.2-0.7-0.3v0c0.3-0.1,0.6-0.2,0.9-0.3c0.3-0.2,0.5-0.4,0.7-0.6c0.2-0.2,0.4-0.5,0.5-0.8c0.1-0.3,0.2-0.7,0.2-1.1
			c0-0.5-0.1-0.9-0.2-1.3c-0.2-0.4-0.4-0.7-0.7-1c-0.3-0.3-0.8-0.5-1.3-0.7c-0.5-0.2-1.1-0.2-1.8-0.2h-2.4v11.7h2.3
			c0.7,0,1.3-0.1,1.8-0.2c0.5-0.1,0.9-0.3,1.2-0.6c0.3-0.3,0.5-0.6,0.7-0.9C110.5,63.4,110.6,63,110.6,62.6z M109.1,62.5
			c0,0.5-0.2,1-0.6,1.3c-0.4,0.4-1,0.5-1.8,0.5h-0.8v-4h0.8c0.8,0,1.4,0.2,1.8,0.6C108.9,61.3,109.1,61.8,109.1,62.5z M109.3,57.1
			c0,0.6-0.2,1.1-0.6,1.5c-0.4,0.4-1,0.6-1.8,0.6h-1v-4.1h0.9c0.9,0,1.5,0.2,1.9,0.5C109.1,55.9,109.3,56.5,109.3,57.1z M114.1,53.9
			h-1.4V62h1.4V53.9z M113.4,64c-0.3,0-0.5,0.1-0.7,0.3c-0.2,0.2-0.3,0.4-0.3,0.7c0,0.3,0.1,0.5,0.3,0.7c0.2,0.2,0.4,0.3,0.7,0.3
			c0.3,0,0.5-0.1,0.7-0.3c0.2-0.2,0.3-0.4,0.3-0.7c0-0.3-0.1-0.5-0.3-0.7C113.9,64,113.7,64,113.4,64z M117.5,55.8
			c0-0.3,0-0.6,0.1-0.7c0.1-0.1,0.3-0.2,0.5-0.2c0.1,0,0.2,0,0.3,0s0.1,0,0.2,0.1l0.1-1c-0.1,0-0.2-0.1-0.4-0.1
			c-0.2-0.1-0.4-0.1-0.7-0.1c-0.5,0-0.8,0.1-1.1,0.4c-0.3,0.3-0.4,0.8-0.4,1.5v10.2l1.4,0.2V55.8z M119.7,57.8
			c0,0.8,0.1,1.5,0.3,2.1c0.2,0.6,0.5,1,0.8,1.3c0.3,0.3,0.7,0.6,1.2,0.7c0.4,0.1,0.9,0.2,1.3,0.2c0.3,0,0.5,0,0.7-0.1
			c0.2,0,0.4-0.1,0.5-0.1v3.9l1.4,0.2V53.9h-1.3v0.9h0c0-0.1-0.1-0.2-0.2-0.3c-0.1-0.1-0.2-0.2-0.4-0.4c-0.2-0.1-0.4-0.2-0.6-0.3
			c-0.2-0.1-0.5-0.1-0.8-0.1c-0.4,0-0.7,0.1-1.1,0.2c-0.3,0.2-0.6,0.4-0.9,0.7c-0.3,0.3-0.5,0.8-0.6,1.3
			C119.7,56.4,119.7,57.1,119.7,57.8z M122.9,54.9c0.2,0,0.4,0,0.6,0.1c0.2,0.1,0.3,0.1,0.4,0.2c0.1,0.1,0.2,0.2,0.3,0.3
			c0.1,0.1,0.1,0.2,0.2,0.2v5c-0.1,0.1-0.3,0.1-0.4,0.2c-0.2,0.1-0.4,0.1-0.6,0.1c-0.3,0-0.6-0.1-0.9-0.2c-0.3-0.1-0.5-0.3-0.7-0.5
			c-0.2-0.2-0.4-0.6-0.5-1c-0.1-0.4-0.2-0.9-0.2-1.5c0-0.6,0-1,0.1-1.4c0.1-0.4,0.2-0.7,0.4-0.9c0.2-0.2,0.4-0.4,0.6-0.5
			C122.4,54.9,122.6,54.9,122.9,54.9z M133.6,53.9h-1.3v0.9h0c0-0.1-0.1-0.2-0.2-0.3c-0.1-0.1-0.3-0.3-0.4-0.4
			c-0.2-0.1-0.4-0.2-0.6-0.3c-0.2-0.1-0.5-0.1-0.8-0.1c-0.4,0-0.7,0.1-1,0.2c-0.3,0.1-0.5,0.3-0.7,0.5c-0.2,0.2-0.4,0.5-0.5,0.9
			c-0.1,0.4-0.2,0.8-0.2,1.4V62h1.4v-5.2c0-0.7,0.1-1.2,0.3-1.4c0.2-0.3,0.6-0.4,1-0.4c0.4,0,0.7,0.1,1,0.3c0.3,0.2,0.5,0.4,0.6,0.6
			V62h1.4V53.9z M140.1,53.9v5.2c0,0.7-0.1,1.2-0.3,1.5c-0.2,0.3-0.6,0.4-1.1,0.4c-0.4,0-0.7-0.1-1-0.3c-0.3-0.2-0.5-0.4-0.6-0.6
			v-6.3h-1.4V62h1.3v-0.9h0c0,0.1,0.1,0.2,0.2,0.3c0.1,0.1,0.3,0.3,0.4,0.4c0.2,0.1,0.4,0.2,0.6,0.3c0.2,0.1,0.5,0.1,0.8,0.1
			c0.4,0,0.7-0.1,1-0.2c0.3-0.1,0.5-0.3,0.7-0.5s0.4-0.5,0.5-0.9c0.1-0.4,0.2-0.8,0.2-1.4v-5.3H140.1z M149.4,60.9h-1
			c0.3-0.4,0.4-0.9,0.4-1.5c0-0.4-0.1-0.8-0.2-1.2c-0.1-0.3-0.3-0.6-0.6-0.9c-0.3-0.2-0.6-0.4-0.9-0.5c-0.3-0.1-0.7-0.2-1.1-0.2
			c-0.1,0-0.2,0-0.2,0s-0.1,0-0.2,0c-0.1-0.1-0.3-0.1-0.4-0.3c-0.1-0.1-0.2-0.3-0.2-0.5c0-0.2,0.1-0.3,0.2-0.4
			c0.1-0.1,0.3-0.2,0.6-0.2h1c0.4,0,0.7,0,1.1-0.1c0.3-0.1,0.6-0.2,0.9-0.4c0.2-0.2,0.4-0.4,0.6-0.7c0.1-0.3,0.2-0.6,0.2-1
			c0-0.4-0.1-0.8-0.3-1.2c-0.2-0.4-0.4-0.7-0.8-0.9c-0.3-0.3-0.8-0.5-1.2-0.6c-0.5-0.1-1-0.2-1.6-0.2c-0.9,0-1.5,0.2-2,0.6
			c-0.5,0.4-0.7,0.9-0.7,1.6c0,0.3,0.1,0.6,0.2,0.8c0.1,0.2,0.2,0.4,0.4,0.6c0.1,0.2,0.3,0.3,0.4,0.4c0.2,0.1,0.3,0.2,0.4,0.2v0
			c-0.4,0.3-0.5,0.6-0.5,1.1c0,0.2,0,0.4,0.1,0.6c0.1,0.2,0.2,0.3,0.3,0.4c0.1,0.1,0.2,0.2,0.3,0.2c0.1,0.1,0.2,0.1,0.2,0.1v0
			c-0.4,0.2-0.8,0.5-1,0.9c-0.3,0.4-0.4,0.9-0.4,1.6c0,0.5,0.1,0.9,0.2,1.2c0.1,0.3,0.3,0.6,0.6,0.9s0.5,0.4,0.9,0.5
			c0.3,0.1,0.7,0.2,1.1,0.2s0.7-0.1,1.1-0.2h2.5L149.4,60.9z M145.6,54.1c-0.2,0-0.4,0-0.6,0.1c-0.1-0.1-0.2-0.1-0.3-0.2
			c-0.1-0.1-0.2-0.2-0.3-0.3c-0.1-0.1-0.1-0.2-0.2-0.4c-0.1-0.2-0.1-0.3-0.1-0.5c0-0.9,0.5-1.3,1.4-1.3c0.8,0,1.4,0.2,1.8,0.5
			c0.4,0.3,0.6,0.7,0.6,1.1c0,0.4-0.1,0.7-0.4,0.8c-0.2,0.2-0.6,0.2-1,0.2H145.6z M147.4,59.5c0,0.6-0.1,1-0.4,1.3
			c-0.3,0.2-0.6,0.4-1,0.4c-0.4,0-0.7-0.1-1-0.4c-0.3-0.2-0.4-0.7-0.4-1.3c0-0.6,0.1-1,0.4-1.3c0.3-0.2,0.6-0.4,1-0.4
			c0.4,0,0.7,0.1,1,0.4C147.3,58.5,147.4,58.9,147.4,59.5z M89.1,36.8h-1.3v0.9h0c0-0.1-0.1-0.2-0.2-0.3c-0.1-0.1-0.3-0.3-0.4-0.4
			c-0.2-0.1-0.4-0.2-0.6-0.3c-0.2-0.1-0.5-0.1-0.8-0.1c-0.4,0-0.7,0.1-1,0.2c-0.3,0.1-0.5,0.3-0.7,0.5c-0.2,0.2-0.4,0.5-0.5,0.9
			c-0.1,0.4-0.2,0.8-0.2,1.4v5.3h1.4v-5.2c0-0.7,0.1-1.2,0.3-1.4c0.2-0.3,0.6-0.4,1-0.4c0.4,0,0.7,0.1,1,0.3
			c0.3,0.2,0.5,0.4,0.6,0.6v6.2h1.4V36.8z M95.7,36.8V42c0,0.7-0.1,1.2-0.3,1.5c-0.2,0.3-0.6,0.4-1.1,0.4c-0.4,0-0.7-0.1-1-0.3
			c-0.3-0.2-0.5-0.4-0.6-0.6v-6.3h-1.4v8.1h1.3V44h0c0,0.1,0.1,0.2,0.2,0.3c0.1,0.1,0.3,0.3,0.4,0.4c0.2,0.1,0.4,0.2,0.6,0.3
			c0.2,0.1,0.5,0.1,0.8,0.1c0.4,0,0.7-0.1,1-0.2c0.3-0.1,0.5-0.3,0.7-0.5c0.2-0.2,0.4-0.5,0.5-0.9c0.1-0.4,0.2-0.8,0.2-1.4v-5.3
			H95.7z M98.7,40.7c0,0.8,0.1,1.5,0.3,2.1c0.2,0.6,0.5,1,0.8,1.3s0.7,0.6,1.2,0.7c0.4,0.1,0.9,0.2,1.3,0.2c0.3,0,0.5,0,0.7-0.1
			c0.2,0,0.4-0.1,0.5-0.1v3.9l1.4,0.2V36.8h-1.3v0.9h0c0-0.1-0.1-0.2-0.2-0.3c-0.1-0.1-0.2-0.2-0.4-0.4c-0.2-0.1-0.4-0.2-0.6-0.3
			c-0.2-0.1-0.5-0.1-0.8-0.1c-0.4,0-0.7,0.1-1.1,0.2c-0.3,0.2-0.6,0.4-0.9,0.7c-0.3,0.3-0.5,0.8-0.6,1.3S98.7,40,98.7,40.7z
			 M102,37.8c0.2,0,0.4,0,0.6,0.1c0.2,0.1,0.3,0.1,0.4,0.2c0.1,0.1,0.2,0.2,0.3,0.3c0.1,0.1,0.1,0.2,0.2,0.2v5
			c-0.1,0.1-0.3,0.1-0.4,0.2c-0.2,0.1-0.4,0.1-0.6,0.1c-0.3,0-0.6-0.1-0.9-0.2c-0.3-0.1-0.5-0.3-0.7-0.5c-0.2-0.2-0.4-0.6-0.5-1
			c-0.1-0.4-0.2-0.9-0.2-1.5c0-0.6,0-1,0.1-1.4c0.1-0.4,0.2-0.7,0.4-0.9c0.2-0.2,0.4-0.4,0.6-0.5C101.5,37.8,101.7,37.8,102,37.8z
			 M110.8,36.8v11.7h5.7l-0.1-1.2h-4.2V43h3.8v-1.2h-3.8v-5H110.8z M117.6,40.8c0,0.7,0.1,1.4,0.3,1.9c0.2,0.5,0.4,1,0.7,1.3
			c0.3,0.3,0.6,0.6,1,0.8c0.4,0.2,0.8,0.2,1.2,0.2c0.5,0,0.9-0.1,1.3-0.2c0.4-0.2,0.7-0.4,1-0.8c0.3-0.3,0.5-0.8,0.7-1.3
			c0.2-0.5,0.2-1.2,0.2-1.9c0-0.8-0.1-1.4-0.3-1.9c-0.2-0.5-0.4-1-0.7-1.3c-0.3-0.3-0.6-0.6-1-0.8c-0.4-0.2-0.8-0.2-1.3-0.2
			c-0.5,0-0.9,0.1-1.3,0.2c-0.4,0.2-0.7,0.4-1,0.8c-0.3,0.3-0.5,0.8-0.7,1.3C117.7,39.4,117.6,40.1,117.6,40.8z M122.6,40.8
			c0,1.1-0.2,1.9-0.5,2.4c-0.3,0.5-0.8,0.7-1.3,0.7c-0.6,0-1-0.2-1.3-0.7c-0.3-0.5-0.5-1.3-0.5-2.4c0-1.1,0.2-1.9,0.5-2.3
			c0.3-0.5,0.8-0.7,1.3-0.7c0.6,0,1,0.2,1.3,0.7C122.5,39,122.6,39.8,122.6,40.8z M129.3,43.7c0,0-0.1,0.1-0.2,0.1
			c-0.1,0-0.3,0.1-0.5,0.1c-0.4,0-0.8-0.1-1-0.3c-0.2-0.2-0.4-0.5-0.5-0.8v-6h-1.4v8.1h1.3v-1.1h0c0.1,0.2,0.1,0.3,0.2,0.5
			c0.1,0.2,0.2,0.3,0.3,0.4c0.1,0.1,0.3,0.2,0.5,0.3c0.2,0.1,0.4,0.1,0.7,0.1c0.2,0,0.3,0,0.5-0.1c0.1,0,0.2-0.1,0.3-0.1L129.3,43.7
			z M134.1,43.3c-0.1,0.1-0.3,0.2-0.5,0.4c-0.2,0.2-0.5,0.3-0.9,0.3c-0.4,0-0.6-0.1-0.8-0.3c-0.2-0.2-0.3-0.4-0.3-0.6
			c0-0.3,0.1-0.6,0.3-0.8c0.2-0.2,0.4-0.4,0.8-0.6l0.5-0.3c0.6-0.3,1-0.7,1.3-1.1c0.3-0.4,0.5-0.9,0.5-1.5c0-0.6-0.2-1.2-0.7-1.6
			c-0.4-0.4-1.1-0.7-1.9-0.7c-0.3,0-0.6,0-0.9,0.1c-0.2,0.1-0.5,0.1-0.7,0.2c-0.2,0.1-0.3,0.2-0.5,0.3c-0.1,0.1-0.2,0.2-0.3,0.3
			l0.7,1.1c0.1-0.1,0.1-0.1,0.2-0.2c0.1-0.1,0.2-0.2,0.3-0.3c0.1-0.1,0.3-0.2,0.5-0.2s0.4-0.1,0.6-0.1c0.4,0,0.7,0.1,0.9,0.3
			c0.2,0.2,0.3,0.4,0.3,0.7c0,0.2,0,0.4-0.1,0.5c-0.1,0.1-0.1,0.3-0.2,0.4c-0.1,0.1-0.2,0.2-0.4,0.3c-0.1,0.1-0.3,0.2-0.5,0.3
			l-0.5,0.3c-0.5,0.3-0.9,0.7-1.2,1c-0.3,0.4-0.4,0.8-0.4,1.4c0,0.3,0.1,0.6,0.2,0.8c0.1,0.3,0.3,0.5,0.5,0.7
			c0.2,0.2,0.5,0.3,0.8,0.4c0.3,0.1,0.6,0.2,0.9,0.2c0.3,0,0.6,0,0.8-0.1c0.2-0.1,0.4-0.1,0.6-0.2c0.2-0.1,0.3-0.2,0.4-0.3
			c0.1-0.1,0.2-0.2,0.3-0.2L134.1,43.3z M141.1,43.3c0,0-0.1,0.1-0.2,0.2c-0.1,0.1-0.2,0.1-0.3,0.2c-0.1,0.1-0.2,0.1-0.4,0.2
			c-0.2,0.1-0.3,0.1-0.5,0.1c-0.3,0-0.6-0.1-0.8-0.2c-0.3-0.1-0.5-0.3-0.7-0.5c-0.2-0.2-0.3-0.5-0.4-0.9c-0.1-0.4-0.2-0.8-0.2-1.4
			c0-0.6,0-1.1,0.1-1.5c0.1-0.4,0.2-0.7,0.4-1c0.2-0.2,0.4-0.4,0.6-0.5c0.2-0.1,0.5-0.2,0.8-0.2c0.4,0,0.7,0.1,1,0.2
			c0.2,0.1,0.4,0.3,0.5,0.4l0.6-0.9c-0.1-0.1-0.1-0.1-0.2-0.2c-0.1-0.1-0.2-0.2-0.4-0.3c-0.2-0.1-0.4-0.2-0.6-0.2
			c-0.2-0.1-0.5-0.1-0.8-0.1c-0.5,0-0.9,0.1-1.3,0.2c-0.4,0.1-0.7,0.4-1,0.7c-0.3,0.3-0.5,0.8-0.7,1.3c-0.2,0.5-0.3,1.2-0.3,2
			c0,0.8,0.1,1.4,0.3,2c0.2,0.5,0.5,1,0.8,1.3c0.3,0.3,0.7,0.6,1.1,0.7c0.4,0.2,0.8,0.2,1.2,0.2c0.3,0,0.6,0,0.8-0.1
			c0.2-0.1,0.4-0.1,0.6-0.2c0.2-0.1,0.3-0.2,0.4-0.3c0.1-0.1,0.2-0.2,0.3-0.2L141.1,43.3z M147.5,36.8V42c0,0.7-0.1,1.2-0.3,1.5
			c-0.2,0.3-0.6,0.4-1.1,0.4c-0.4,0-0.7-0.1-1-0.3c-0.3-0.2-0.5-0.4-0.6-0.6v-6.3h-1.4v12l1.4,0.2v-4.8h0c0,0.1,0.1,0.2,0.2,0.3
			c0.1,0.1,0.2,0.2,0.4,0.3c0.2,0.1,0.4,0.2,0.6,0.3c0.2,0.1,0.5,0.1,0.9,0.1c0.7,0,1.3-0.2,1.7-0.7c0.4-0.5,0.6-1.2,0.6-2.3v-5.3
			H147.5z M156.7,36.8h-1.3v0.9h0c0-0.1-0.1-0.2-0.2-0.3c-0.1-0.1-0.3-0.3-0.4-0.4c-0.2-0.1-0.4-0.2-0.6-0.3
			c-0.2-0.1-0.5-0.1-0.8-0.1c-0.4,0-0.7,0.1-1,0.2c-0.3,0.1-0.5,0.3-0.7,0.5c-0.2,0.2-0.4,0.5-0.5,0.9c-0.1,0.4-0.2,0.8-0.2,1.4v5.3
			h1.4v-5.2c0-0.7,0.1-1.2,0.3-1.4c0.2-0.3,0.6-0.4,1-0.4c0.4,0,0.7,0.1,1,0.3c0.3,0.2,0.5,0.4,0.6,0.6v6.2h1.4V36.8z M163.2,36.8
			V42c0,0.7-0.1,1.2-0.3,1.5c-0.2,0.3-0.6,0.4-1.1,0.4c-0.4,0-0.7-0.1-1-0.3c-0.3-0.2-0.5-0.4-0.6-0.6v-6.3h-1.4v8.1h1.3V44h0
			c0,0.1,0.1,0.2,0.2,0.3c0.1,0.1,0.3,0.3,0.4,0.4c0.2,0.1,0.4,0.2,0.6,0.3c0.2,0.1,0.5,0.1,0.8,0.1c0.4,0,0.7-0.1,1-0.2
			c0.3-0.1,0.5-0.3,0.7-0.5c0.2-0.2,0.4-0.5,0.5-0.9c0.1-0.4,0.2-0.8,0.2-1.4v-5.3H163.2z M172.4,43.8h-1c0.3-0.4,0.4-0.9,0.4-1.5
			c0-0.4-0.1-0.8-0.2-1.2c-0.1-0.3-0.3-0.6-0.6-0.9c-0.3-0.2-0.6-0.4-0.9-0.5c-0.3-0.1-0.7-0.2-1.1-0.2c-0.1,0-0.2,0-0.2,0
			c-0.1,0-0.1,0-0.2,0c-0.1-0.1-0.3-0.1-0.4-0.3c-0.1-0.1-0.2-0.3-0.2-0.5c0-0.2,0.1-0.3,0.2-0.4c0.1-0.1,0.3-0.2,0.6-0.2h1
			c0.4,0,0.7,0,1.1-0.1c0.3-0.1,0.6-0.2,0.9-0.4c0.2-0.2,0.4-0.4,0.6-0.7c0.1-0.3,0.2-0.6,0.2-1c0-0.4-0.1-0.8-0.3-1.2
			c-0.2-0.4-0.4-0.7-0.8-0.9c-0.3-0.3-0.8-0.5-1.2-0.6s-1-0.2-1.6-0.2c-0.9,0-1.5,0.2-2,0.6c-0.5,0.4-0.7,0.9-0.7,1.6
			c0,0.3,0.1,0.6,0.2,0.8c0.1,0.2,0.2,0.4,0.4,0.6c0.1,0.2,0.3,0.3,0.4,0.4c0.2,0.1,0.3,0.2,0.4,0.2v0c-0.4,0.3-0.5,0.6-0.5,1.1
			c0,0.2,0,0.4,0.1,0.6c0.1,0.2,0.2,0.3,0.3,0.4c0.1,0.1,0.2,0.2,0.3,0.2c0.1,0.1,0.2,0.1,0.2,0.1v0c-0.4,0.2-0.8,0.5-1,0.9
			c-0.3,0.4-0.4,0.9-0.4,1.6c0,0.5,0.1,0.9,0.2,1.2c0.1,0.3,0.3,0.6,0.6,0.9c0.2,0.2,0.5,0.4,0.9,0.5c0.3,0.1,0.7,0.2,1.1,0.2
			c0.4,0,0.7-0.1,1.1-0.2h2.5L172.4,43.8z M168.7,37c-0.2,0-0.4,0-0.6,0.1c-0.1-0.1-0.2-0.1-0.3-0.2c-0.1-0.1-0.2-0.2-0.3-0.3
			c-0.1-0.1-0.1-0.2-0.2-0.4c-0.1-0.2-0.1-0.3-0.1-0.5c0-0.9,0.5-1.3,1.4-1.3c0.8,0,1.4,0.2,1.8,0.5c0.4,0.3,0.6,0.7,0.6,1.1
			c0,0.4-0.1,0.7-0.4,0.8c-0.2,0.2-0.6,0.2-1,0.2H168.7z M170.5,42.4c0,0.6-0.1,1-0.4,1.3c-0.3,0.2-0.6,0.4-1,0.4
			c-0.4,0-0.7-0.1-1-0.4c-0.3-0.2-0.4-0.7-0.4-1.3c0-0.6,0.1-1,0.4-1.3c0.3-0.2,0.6-0.4,1-0.4c0.4,0,0.7,0.1,1,0.4
			C170.3,41.4,170.5,41.8,170.5,42.4z"/>
	</g>
	<g id="Adler-und-Saeulenelement">
		<path d="M46.3,32.1c0-0.3,0.1-0.6,0.1-1c0-0.2,0-0.4,0-0.6c2.8,0,5.3-2.1,5.3-4.4c0-1.2-0.8-2.1-1.2-2.6c0.1,0,0.2,0,0.3-0.1
			c0.4,0.4,1.6,1.6,1.6,3.3C52.4,29.4,49.6,32.1,46.3,32.1 M43.5,22.3c-0.1-0.3-0.2-0.6-0.4-0.8c0-0.3,0.1-0.6,0.6-0.3
			c-0.3,0.3-0.1,0.7-0.1,0.7s0.5-0.2,0.4-0.6C44.8,21.4,44.3,22.4,43.5,22.3 M42.8,23.7c-0.1-0.4-0.3-0.9-0.6-1.2
			c-0.3-0.3-0.7-0.6-1.2-0.6c-0.3,0-0.7,0.1-1,0.2c-0.1-0.2-0.3-0.6-0.3-0.8c0-0.2,0.3-0.4,1-0.4c1.5,0,2.3,0.7,2.3,1.8
			C43.1,23.1,43,23.4,42.8,23.7 M46.6,42.7c0.2,0,0.3,0,0.4,0.1c0.4,1.2,2.1,3.3,2.1,3.4l0,0l0,0c0.4-0.1,1.4-0.2,2.3-0.2h0
			c0.1,0,0.2,0,0.3,0.1c0.1,0.1,0.1,0.2,0.1,0.3c0,0.2-0.1,0.6-0.2,0.7c-0.3-0.3-0.8-0.5-1.6-0.5c-0.2,0-0.5,0.1-0.7,0.1l-0.1,0
			l-0.1,0l0.4,0.4c0.7,0.7,1.3,1.3,1.3,1.7c0,0.2-0.2,0.6-0.4,0.7c0-0.7-0.8-1.7-1.5-2.2l-0.1,0l0,0.3c0,0.2,0,0.4,0,0.7
			c0,1.4-0.1,1.6-0.6,1.6c-0.1,0-0.2,0-0.3,0c0.3-0.3,0.4-0.8,0.4-1.6l0-0.4l0-0.3c0-0.3,0-0.6,0.1-0.7l0-0.1l-0.1,0
			c-0.2,0-0.6-0.1-1-0.1c-0.7,0-1.1,0.1-1.5,0.4c-0.2-0.2-0.4-0.5-0.4-0.7c0-0.3,0.2-0.3,0.4-0.3c0.1,0,0.2,0,0.4,0
			c0.3,0,0.7,0.1,1.7,0.1H48l0-0.1c-0.2-0.7-0.9-1.6-1.9-2.9C46.2,42.9,46.3,42.7,46.6,42.7 M37.8,46.1L37.8,46.1L37.8,46.1
			c0.9,0.1,1.4,0,1.7-0.1c0.2,0,0.3,0,0.4,0c0.2,0,0.4,0,0.4,0.3c0,0.2-0.2,0.5-0.4,0.7c-0.3-0.3-0.8-0.4-1.5-0.4
			c-0.3,0-0.7,0.1-1,0.1l0,0l0,0l0,0.1c0,0.2,0.1,0.4,0.1,0.7l0,0.3l0,0.4c0,0.8,0.1,1.2,0.4,1.6c-0.1,0-0.2,0-0.3,0
			c-0.5,0-0.6-0.2-0.6-1.6c0-0.3,0-0.5,0-0.7l0-0.3l-0.1,0c-0.7,0.5-1.5,1.5-1.5,2.2c-0.2-0.1-0.4-0.4-0.4-0.7c0-0.4,0.6-1,1.3-1.7
			l0.4-0.4l0.1-0.1l-0.1,0c-0.1,0-0.4-0.1-0.7-0.1c-0.8,0-1.3,0.1-1.6,0.5c-0.1-0.2-0.2-0.5-0.2-0.7c0-0.1,0-0.2,0.1-0.3
			c0.1-0.1,0.2-0.1,0.3-0.1h0c0.9,0,1.9,0.2,2.3,0.2l0,0l0,0c0.1-0.1,1.7-2.3,2.1-3.4c0.1,0,0.2-0.1,0.4-0.1c0.3,0,0.4,0.2,0.5,0.5
			C38.7,44.5,38,45.4,37.8,46.1 M33.4,26.6c0-1.6,1.2-2.9,1.6-3.3c0.1,0,0.2,0,0.3,0.1c-0.4,0.5-1.2,1.4-1.2,2.6
			c0,2.4,2.5,4.4,5.4,4.4c0,0.2,0,0.4,0,0.6c0,0.4,0,0.7,0.1,1C36.3,32.1,33.4,29.5,33.4,26.6 M55.2,31.6c1.5,2.3,2.6,2.3,4.3,2.3
			c-1.4-1.1-2.4-2.5-2.8-3.2L54,26.4c-0.3-1.3-0.9-2.5-2-3.5c0.3-0.1,0.6-0.3,0.8-0.4c-1.7,0-3.5-0.9-4.4-0.9c-0.6,0-1,0.4-1,0.8
			c0,0.5,0.6,1.1,1.6,1.1c0.2,0,0.5,0,0.9-0.1c0.6,0.8,1,1.5,1,2.5c0,1.9-2.2,3.3-4.5,3.3c-0.1,0-0.2,0-0.4,0
			c-0.2-0.5-0.9-1.2-0.9-2.1c0-1.5,1-2.7,1-4.2c0-0.9-0.4-1.5-0.6-1.7c0.3-0.3,0.6-0.6,0.6-0.8c-0.2,0.1-0.4,0.1-0.6,0.1
			c-1.1,0-2-0.3-2.8-0.3c-0.5,0-0.6,0.2-0.6,0.3c0,0.1,0,0.1,0,0.1c-0.2-0.1-0.4-0.1-0.6-0.2c-0.3,0-0.5-0.1-0.8-0.1
			c-1,0-1.4,0.4-1.4,0.8c0,0.3,0.2,0.9,0.5,1.3c0.4-0.2,0.9-0.3,1.1-0.3c0.6,0,1,0.5,1.3,1.2c-0.4,0-0.4,0.1-0.8,0.1
			c-1,0-1.7-0.4-1.8-0.4c0,0,0,0,0,0c0,0.1,0.3,0.5,0.9,0.7c0.7,0.3,1.9,0.4,2.1,0.4c0,0-0.2,0.4-0.4,0.5c0,0-0.1,0-0.1,0
			c-0.8-0.2-1-0.2-2-0.6c0,0,0,0,0,0c0,0.4,1,1.3,1.9,1.6c-0.8,1-1.7,2-2.2,3.5c-0.1,0-0.2,0-0.4,0c-2.3,0-4.5-1.5-4.5-3.3
			c0-1,0.4-1.7,1-2.5c0.3,0.1,0.6,0.1,0.9,0.1c1,0,1.6-0.5,1.6-1.1c0-0.5-0.4-0.8-1-0.8c-0.9,0-2.7,0.9-4.4,0.9
			c0.2,0.1,0.5,0.3,0.8,0.4c-1,0.9-1.7,2.1-2,3.5l-2.7,4.3c-0.4,0.7-1.4,2.1-2.8,3.2c1.7,0,2.9,0,4.3-2.3l1.4-2.2
			c0.1,0.3,0.2,0.6,0.4,0.8l-2.7,4.3c-0.5,0.7-1.4,2.1-2.8,3.2c1.7,0,2.9,0,4.3-2.3l2.3-3.7c0.2,0.2,0.4,0.4,0.6,0.5l-3.3,5.3
			c-0.5,0.7-1.4,2.1-2.8,3.2c1.7,0,2.9,0,4.3-2.3l3.2-5.1c0.2,0.1,0.4,0.3,0.7,0.4l-3.9,6.3c-0.5,0.7-1.4,2.1-2.8,3.2
			c1.7,0,2.9,0,4.3-2.3l4-6.5c0.2,0.1,0.5,0.2,0.7,0.3l-4.6,7.3c-0.4,0.7-1.4,2.1-2.8,3.2c1.7,0,2.9,0,4.3-2.3l4.9-7.8
			c0,0,0.1,0,0.1,0c0.1,0.4,0.2,0.8,0.2,1.2c0,2.4-1.6,4.6-3.5,6.3c0.1,0.1,0.3,0.1,0.5,0.1c0.4,0,0.7,0,0.8-0.1
			c-0.4,1-1.4,2.3-1.9,3c-0.6-0.1-1.5-0.2-2.2-0.2c-0.6,0-0.7,0.4-0.7,0.7c0,0.6,0.3,1,0.6,1.3c0.1-0.3,0.4-0.7,1.5-0.7
			c0,0,0.1,0,0.1,0c-0.3,0.4-1.4,1.2-1.4,1.9c0,0.5,0.5,1.1,1.2,1.1c0-0.1,0-0.3,0-0.4c0-0.6,0.5-1.2,0.9-1.7c0,0.1,0,0.1,0,0.3
			c0,1.3,0.1,1.9,1,1.9c0.4,0,0.7-0.2,0.8-0.3c-0.5-0.5-0.6-0.9-0.6-1.6c0-0.2,0-0.4,0-0.6c0-0.2,0-0.4,0-0.6c0.3,0,0.4,0,0.7,0
			c0,0,1.2-0.1,1.5,0.5c0.3-0.3,0.8-0.7,0.8-1.2c0-0.3-0.1-0.7-0.8-0.7c-0.2,0-1,0.1-1.6,0.1c0.2-0.4,0.9-1.4,1.5-2.2
			c0.1,0.3,0.2,0.6,0.6,0.9c0-0.5,0.3-2.1,1.1-3c0.1,0.6,0.2,1.3,0.2,2.6c0,3.3-0.8,5.7-2.5,6.2c0.2,0.4,0.7,0.7,1.2,0.7
			c0.6,0,0.9-0.7,1.3-1.4c0.2,0.5,0.7,1.7,1.2,1.7c0.5,0,1-1.2,1.2-1.7c0.3,0.7,0.7,1.4,1.3,1.4c0.5,0,0.9-0.3,1.2-0.7
			c-1.7-0.5-2.5-2.9-2.5-6.2c0-1.4,0.1-2,0.2-2.6c0.8,0.9,1.1,2.5,1.1,3c0.3-0.3,0.5-0.6,0.6-0.9c0.6,0.8,1.4,1.9,1.5,2.2
			c-0.6,0-1.3-0.1-1.6-0.1c-0.6,0-0.8,0.3-0.8,0.7c0,0.5,0.5,0.9,0.8,1.2c0.3-0.6,1.5-0.5,1.5-0.5c0.2,0,0.4,0,0.7,0
			c0,0.2,0,0.4,0,0.6c0,0.3,0,0.4,0,0.6c0,0.7,0,1.1-0.6,1.6c0.1,0.1,0.4,0.3,0.8,0.3c0.8,0,1-0.6,1-1.9c0-0.2,0-0.1,0-0.3
			c0.4,0.5,0.9,1.1,0.9,1.7c0,0.1,0,0.2,0,0.4c0.7,0,1.2-0.7,1.2-1.1c0-0.7-1.1-1.6-1.4-1.9c0.1,0,0.1,0,0.1,0
			c1.2,0,1.4,0.4,1.5,0.7c0.3-0.3,0.6-0.7,0.6-1.3c0-0.3-0.1-0.7-0.7-0.7c-0.6,0-1.5,0.1-2.2,0.2c-0.5-0.7-1.4-2-1.9-3
			c0.2,0,0.4,0.1,0.8,0.1c0.2,0,0.4,0,0.5-0.1c-1.9-1.7-3.5-3.8-3.5-6.3c0-0.4,0.1-0.8,0.2-1.2c0,0,0.1,0,0.1,0l4.9,7.8
			c1.5,2.3,2.6,2.3,4.3,2.3c-1.4-1.1-2.4-2.5-2.8-3.2l-4.6-7.3c0.2-0.1,0.5-0.2,0.7-0.3l4,6.5c1.5,2.3,2.6,2.3,4.3,2.3
			c-1.4-1.1-2.4-2.5-2.8-3.2l-3.9-6.3c0.2-0.1,0.4-0.3,0.7-0.4l3.2,5.1c1.5,2.3,2.6,2.3,4.3,2.3c-1.4-1.1-2.4-2.5-2.8-3.2l-3.3-5.3
			c0.2-0.2,0.4-0.4,0.6-0.5l2.3,3.7c1.5,2.3,2.6,2.3,4.3,2.3c-1.4-1.1-2.4-2.5-2.8-3.2l-2.7-4.3c0.1-0.3,0.3-0.5,0.4-0.8L55.2,31.6z
			"/>
		<path d="M73.1,50.1h-5V21.7h5V50.1z"/>
		<path class="st0" d="M73.1,78.6h-5V50.1h5V78.6z"/>
		<path class="st1" d="M73.1,107.1h-5V78.6h5V107.1z"/>
	</g>
</g>
</svg>
