<?xml version="1.0" encoding="utf-8"?>
<!-- Generator: Adobe Illustrator 25.4.1, SVG Export Plug-In . SVG Version: 6.00 Build 0)  -->
<svg version="1.1" id="Ebene_1" xmlns="http://www.w3.org/2000/svg" xmlns:xlink="http://www.w3.org/1999/xlink" x="0px" y="0px"
	 viewBox="0 0 315 129" style="enable-background:new 0 0 315 129;" xml:space="preserve">
<style type="text/css">
	.st0{fill:#FF0000;}
	.st1{fill:#FFCC00;}
</style>
<g id="Name_00000175316157652252693150000000190348039106759576_" transform="scale(1,-1) translate(0,-104)">
	<path d="M89.8,79.8c0-0.4-0.1-0.8-0.2-1.1c-0.1-0.3-0.2-0.6-0.4-0.8c-0.2-0.2-0.4-0.4-0.6-0.5c-0.2-0.1-0.5-0.2-0.7-0.3v0
		c0.3-0.1,0.6-0.2,0.9-0.3c0.3-0.2,0.5-0.4,0.7-0.6c0.2-0.2,0.4-0.5,0.5-0.8c0.1-0.3,0.2-0.7,0.2-1.1c0-0.5-0.1-0.9-0.2-1.3
		c-0.2-0.4-0.4-0.7-0.7-1c-0.3-0.3-0.8-0.5-1.3-0.7S86.7,71,86,71h-2.4v11.7h2.3c0.7,0,1.3-0.1,1.8-0.2c0.5-0.1,0.9-0.3,1.2-0.6
		c0.3-0.3,0.5-0.6,0.7-0.9C89.7,80.6,89.8,80.2,89.8,79.8z M88.3,79.7c0,0.5-0.2,1-0.6,1.3c-0.4,0.4-1,0.5-1.8,0.5h-0.8v-4h0.8
		c0.8,0,1.4,0.2,1.8,0.6C88.1,78.5,88.3,79,88.3,79.7z M88.5,74.3c0,0.6-0.2,1.1-0.6,1.5c-0.4,0.4-1,0.6-1.8,0.6h-1v-4.1H86
		c0.9,0,1.5,0.2,1.9,0.5C88.3,73.1,88.5,73.6,88.5,74.3z M97.6,71h-1.3v0.9h0c0-0.1-0.1-0.2-0.2-0.3c-0.1-0.1-0.3-0.3-0.4-0.4
		c-0.2-0.1-0.4-0.2-0.6-0.3s-0.5-0.1-0.8-0.1c-0.4,0-0.7,0.1-1,0.2c-0.3,0.1-0.5,0.3-0.7,0.5c-0.2,0.2-0.4,0.5-0.5,0.9
		c-0.1,0.4-0.2,0.8-0.2,1.4v5.3h1.4v-5.2c0-0.7,0.1-1.2,0.3-1.5c0.2-0.3,0.6-0.4,1-0.4c0.4,0,0.7,0.1,1,0.3c0.3,0.2,0.5,0.4,0.6,0.6
		v6.2h1.4V71z M104.1,71v5.2c0,0.7-0.1,1.2-0.3,1.5c-0.2,0.3-0.6,0.4-1.1,0.4c-0.4,0-0.7-0.1-1-0.3c-0.3-0.2-0.5-0.4-0.6-0.6V71
		h-1.4v8.1h1.3v-0.9h0c0,0.1,0.1,0.2,0.2,0.3c0.1,0.1,0.3,0.3,0.4,0.4c0.2,0.1,0.4,0.2,0.6,0.3s0.5,0.1,0.8,0.1c0.4,0,0.7-0.1,1-0.2
		c0.3-0.1,0.5-0.3,0.7-0.5c0.2-0.2,0.4-0.5,0.5-0.9c0.1-0.4,0.2-0.8,0.2-1.4V71H104.1z M107.2,75c0,0.8,0.1,1.5,0.3,2.1
		c0.2,0.6,0.5,1,0.8,1.3c0.3,0.3,0.7,0.6,1.2,0.7c0.4,0.1,0.9,0.2,1.3,0.2c0.3,0,0.5,0,0.7-0.1c0.2,0,0.4-0.1,0.5-0.1V83l1.4,0.2V71
		h-1.3v0.9h0c0-0.1-0.1-0.2-0.2-0.3c-0.1-0.1-0.2-0.2-0.4-0.4c-0.2-0.1-0.4-0.2-0.6-0.3c-0.2-0.1-0.5-0.1-0.8-0.1
		c-0.4,0-0.7,0.1-1.1,0.2c-0.3,0.2-0.6,0.4-0.9,0.7c-0.3,0.3-0.5,0.8-0.6,1.3C107.3,73.6,107.2,74.2,107.2,75z M110.4,72
		c0.2,0,0.4,0,0.6,0.1c0.2,0.1,0.3,0.1,0.4,0.2c0.1,0.1,0.2,0.2,0.3,0.3c0.1,0.1,0.1,0.2,0.2,0.2v5c-0.1,0.1-0.3,0.1-0.4,0.2
		c-0.2,0.1-0.4,0.1-0.6,0.1c-0.3,0-0.6-0.1-0.9-0.2c-0.3-0.1-0.5-0.3-0.7-0.5c-0.2-0.2-0.4-0.6-0.5-1c-0.1-0.4-0.2-0.9-0.2-1.5
		c0-0.6,0-1,0.1-1.4c0.1-0.4,0.2-0.7,0.4-0.9c0.2-0.2,0.4-0.4,0.6-0.5C110,72.1,110.2,72,110.4,72z M120.7,76.4c0-0.4,0-0.7,0-0.9
		c0-0.3,0-0.5-0.1-0.7h-4.2c0-1,0.3-1.7,0.6-2.1c0.4-0.5,0.9-0.7,1.6-0.7c0.2,0,0.5,0,0.6,0.1c0.2,0.1,0.4,0.1,0.5,0.2
		c0.1,0.1,0.3,0.2,0.4,0.2c0.1,0.1,0.2,0.1,0.2,0.2l0.5-1c-0.1-0.1-0.1-0.1-0.3-0.2c-0.1-0.1-0.3-0.2-0.5-0.3
		c-0.2-0.1-0.4-0.2-0.7-0.3c-0.3-0.1-0.6-0.1-1-0.1c-0.5,0-1,0.1-1.4,0.3c-0.4,0.2-0.8,0.4-1.1,0.8c-0.3,0.4-0.5,0.8-0.7,1.4
		c-0.2,0.5-0.2,1.2-0.2,2c0,0.7,0.1,1.3,0.2,1.9c0.2,0.5,0.4,1,0.7,1.3c0.3,0.3,0.6,0.6,1,0.8c0.4,0.2,0.8,0.2,1.2,0.2
		c0.8,0,1.4-0.2,1.8-0.7C120.4,78.1,120.7,77.4,120.7,76.4z M118.1,78.3c-0.5,0-0.9-0.2-1.2-0.6c-0.3-0.4-0.5-1-0.5-1.8h3
		c0,0.1,0,0.1,0,0.2c0,0.1,0,0.2,0,0.3c0,0.6-0.1,1-0.3,1.3C118.8,78.1,118.5,78.3,118.1,78.3z M126,77.5c-0.1,0.1-0.3,0.2-0.5,0.4
		c-0.2,0.2-0.5,0.3-0.9,0.3c-0.4,0-0.6-0.1-0.8-0.3c-0.2-0.2-0.3-0.4-0.3-0.6c0-0.3,0.1-0.6,0.3-0.8c0.2-0.2,0.4-0.4,0.8-0.6
		l0.5-0.3c0.6-0.3,1-0.7,1.3-1.1c0.3-0.4,0.5-0.9,0.5-1.5c0-0.6-0.2-1.2-0.7-1.6c-0.4-0.4-1.1-0.7-1.9-0.7c-0.3,0-0.6,0-0.9,0.1
		c-0.2,0.1-0.5,0.1-0.7,0.2c-0.2,0.1-0.3,0.2-0.5,0.3c-0.1,0.1-0.2,0.2-0.3,0.3l0.7,1.1c0.1-0.1,0.1-0.1,0.2-0.2
		c0.1-0.1,0.2-0.2,0.3-0.3c0.1-0.1,0.3-0.2,0.5-0.2c0.2-0.1,0.4-0.1,0.6-0.1c0.4,0,0.7,0.1,0.9,0.3c0.2,0.2,0.3,0.4,0.3,0.7
		c0,0.2,0,0.4-0.1,0.5c-0.1,0.1-0.1,0.3-0.2,0.4c-0.1,0.1-0.2,0.2-0.4,0.3c-0.1,0.1-0.3,0.2-0.5,0.3l-0.5,0.3
		c-0.5,0.3-0.9,0.7-1.2,1c-0.3,0.4-0.4,0.8-0.4,1.4c0,0.3,0.1,0.6,0.2,0.8c0.1,0.3,0.3,0.5,0.5,0.7c0.2,0.2,0.5,0.3,0.8,0.4
		c0.3,0.1,0.6,0.2,0.9,0.2c0.3,0,0.6,0,0.8-0.1c0.2-0.1,0.4-0.1,0.6-0.2c0.2-0.1,0.3-0.2,0.4-0.3c0.1-0.1,0.2-0.2,0.3-0.2L126,77.5z
		 M132.7,71v5.2c0,0.7-0.1,1.1-0.3,1.4c-0.2,0.3-0.5,0.4-0.9,0.4c-0.2,0-0.4,0-0.6-0.1c-0.2-0.1-0.3-0.1-0.5-0.2
		c-0.1-0.1-0.3-0.2-0.4-0.3c-0.1-0.1-0.2-0.2-0.3-0.3V71h-1.4v8.1h1.3v-0.9h0c0.1,0.1,0.1,0.2,0.3,0.3c0.1,0.1,0.3,0.3,0.4,0.4
		s0.4,0.2,0.6,0.3c0.2,0.1,0.5,0.1,0.8,0.1c0.9,0,1.6-0.4,2-1.1c0.1,0.1,0.2,0.2,0.3,0.4c0.1,0.1,0.3,0.2,0.5,0.4
		c0.2,0.1,0.4,0.2,0.6,0.3s0.5,0.1,0.7,0.1c1.7,0,2.5-1,2.5-2.9V71H137v5.2c0,0.7-0.1,1.1-0.4,1.4c-0.2,0.3-0.6,0.4-1.1,0.4
		c-0.4,0-0.7-0.1-1-0.3c-0.3-0.2-0.5-0.4-0.6-0.5c0-0.1,0-0.3,0.1-0.4c0-0.1,0-0.3,0-0.4V71H132.7z M141.8,71h-1.4v8.1h1.4V71z
		 M141.1,81.1c-0.3,0-0.5,0.1-0.7,0.3s-0.3,0.4-0.3,0.7c0,0.3,0.1,0.5,0.3,0.7s0.4,0.3,0.7,0.3c0.3,0,0.5-0.1,0.7-0.3
		c0.2-0.2,0.3-0.4,0.3-0.7c0-0.3-0.1-0.5-0.3-0.7C141.6,81.2,141.4,81.1,141.1,81.1z M148.3,71v5.2c0,0.7-0.1,1.2-0.3,1.5
		c-0.2,0.3-0.6,0.4-1.1,0.4c-0.4,0-0.7-0.1-1-0.3c-0.3-0.2-0.5-0.4-0.6-0.6V71h-1.4v8.1h1.3v-0.9h0c0,0.1,0.1,0.2,0.2,0.3
		c0.1,0.1,0.3,0.3,0.4,0.4c0.2,0.1,0.4,0.2,0.6,0.3c0.2,0.1,0.5,0.1,0.8,0.1c0.4,0,0.7-0.1,1-0.2c0.3-0.1,0.5-0.3,0.7-0.5
		c0.2-0.2,0.4-0.5,0.5-0.9c0.1-0.4,0.2-0.8,0.2-1.4V71H148.3z M153.1,71h-1.4v8.1h1.4V71z M152.5,81.1c-0.3,0-0.5,0.1-0.7,0.3
		s-0.3,0.4-0.3,0.7c0,0.3,0.1,0.5,0.3,0.7s0.4,0.3,0.7,0.3c0.3,0,0.5-0.1,0.7-0.3c0.2-0.2,0.3-0.4,0.3-0.7c0-0.3-0.1-0.5-0.3-0.7
		C152.9,81.2,152.7,81.1,152.5,81.1z M158.7,77.5c-0.1,0.1-0.3,0.2-0.5,0.4c-0.2,0.2-0.5,0.3-0.9,0.3c-0.4,0-0.6-0.1-0.8-0.3
		c-0.2-0.2-0.3-0.4-0.3-0.6c0-0.3,0.1-0.6,0.3-0.8c0.2-0.2,0.4-0.4,0.8-0.6l0.5-0.3c0.6-0.3,1-0.7,1.3-1.1c0.3-0.4,0.5-0.9,0.5-1.5
		c0-0.6-0.2-1.2-0.7-1.6c-0.4-0.4-1.1-0.7-1.9-0.7c-0.3,0-0.6,0-0.9,0.1c-0.2,0.1-0.5,0.1-0.7,0.2c-0.2,0.1-0.3,0.2-0.5,0.3
		c-0.1,0.1-0.2,0.2-0.3,0.3l0.7,1.1c0.1-0.1,0.1-0.1,0.2-0.2c0.1-0.1,0.2-0.2,0.3-0.3c0.1-0.1,0.3-0.2,0.5-0.2
		c0.2-0.1,0.4-0.1,0.6-0.1c0.4,0,0.7,0.1,0.9,0.3c0.2,0.2,0.3,0.4,0.3,0.7c0,0.2,0,0.4-0.1,0.5c-0.1,0.1-0.1,0.3-0.2,0.4
		c-0.1,0.1-0.2,0.2-0.4,0.3c-0.1,0.1-0.3,0.2-0.5,0.3l-0.5,0.3c-0.5,0.3-0.9,0.7-1.2,1c-0.3,0.4-0.4,0.8-0.4,1.4
		c0,0.3,0.1,0.6,0.2,0.8c0.1,0.3,0.3,0.5,0.5,0.7c0.2,0.2,0.5,0.3,0.8,0.4c0.3,0.1,0.6,0.2,0.9,0.2c0.3,0,0.6,0,0.8-0.1
		c0.2-0.1,0.4-0.1,0.6-0.2c0.2-0.1,0.3-0.2,0.4-0.3c0.1-0.1,0.2-0.2,0.3-0.2L158.7,77.5z M164.7,78.1h-1.8v-4.5c0-0.6,0.1-1,0.2-1.2
		c0.1-0.2,0.4-0.3,0.7-0.3c0.2,0,0.4,0,0.5,0.1c0.1,0.1,0.3,0.1,0.3,0.2l0.2-1.1c-0.1,0-0.2-0.1-0.4-0.2c-0.2-0.1-0.5-0.1-0.9-0.1
		c-0.7,0-1.2,0.2-1.6,0.6c-0.4,0.4-0.5,1-0.5,1.9v4.7h-1V79l1,0.2l0.2,2.3h1.2v-2.3h2L164.7,78.1z M171.3,76.4c0-0.4,0-0.7,0-0.9
		c0-0.3,0-0.5-0.1-0.7h-4.2c0-1,0.3-1.7,0.6-2.1c0.4-0.5,0.9-0.7,1.6-0.7c0.2,0,0.5,0,0.6,0.1c0.2,0.1,0.4,0.1,0.5,0.2
		c0.1,0.1,0.3,0.2,0.4,0.2c0.1,0.1,0.2,0.1,0.2,0.2l0.5-1c-0.1-0.1-0.1-0.1-0.3-0.2c-0.1-0.1-0.3-0.2-0.5-0.3
		c-0.2-0.1-0.4-0.2-0.7-0.3c-0.3-0.1-0.6-0.1-1-0.1c-0.5,0-1,0.1-1.4,0.3c-0.4,0.2-0.8,0.4-1.1,0.8c-0.3,0.4-0.5,0.8-0.7,1.4
		c-0.2,0.5-0.2,1.2-0.2,2c0,0.7,0.1,1.3,0.2,1.9c0.2,0.5,0.4,1,0.7,1.3c0.3,0.3,0.6,0.6,1,0.8c0.4,0.2,0.8,0.2,1.2,0.2
		c0.8,0,1.4-0.2,1.8-0.7C171.1,78.1,171.3,77.4,171.3,76.4z M168.7,78.3c-0.5,0-0.9-0.2-1.2-0.6c-0.3-0.4-0.5-1-0.5-1.8h3
		c0,0.1,0,0.1,0,0.2c0,0.1,0,0.2,0,0.3c0,0.6-0.1,1-0.3,1.3C169.5,78.1,169.2,78.3,168.7,78.3z M176.7,78c0,0-0.1,0.1-0.2,0.1
		c-0.1,0-0.3,0.1-0.5,0.1c-0.4,0-0.8-0.1-1-0.3c-0.2-0.2-0.4-0.5-0.5-0.8v-6h-1.4v8.1h1.3v-1.1h0c0.1,0.2,0.1,0.3,0.2,0.5
		c0.1,0.2,0.2,0.3,0.3,0.4s0.3,0.2,0.5,0.3c0.2,0.1,0.4,0.1,0.7,0.1c0.2,0,0.3,0,0.5-0.1c0.1,0,0.2-0.1,0.3-0.1L176.7,78z M179.5,71
		h-1.4v8.1h1.4V71z M178.8,81.1c-0.3,0-0.5,0.1-0.7,0.3c-0.2,0.2-0.3,0.4-0.3,0.7c0,0.3,0.1,0.5,0.3,0.7c0.2,0.2,0.4,0.3,0.7,0.3
		c0.3,0,0.5-0.1,0.7-0.3s0.3-0.4,0.3-0.7c0-0.3-0.1-0.5-0.3-0.7S179.1,81.1,178.8,81.1z M187.3,71H186v0.9h0c0-0.1-0.1-0.2-0.2-0.3
		c-0.1-0.1-0.3-0.3-0.4-0.4c-0.2-0.1-0.4-0.2-0.6-0.3c-0.2-0.1-0.5-0.1-0.8-0.1c-0.4,0-0.7,0.1-1,0.2c-0.3,0.1-0.5,0.3-0.7,0.5
		c-0.2,0.2-0.4,0.5-0.5,0.9c-0.1,0.4-0.2,0.8-0.2,1.4v5.3h1.4v-5.2c0-0.7,0.1-1.2,0.3-1.5c0.2-0.3,0.6-0.4,1-0.4
		c0.4,0,0.7,0.1,1,0.3c0.3,0.2,0.5,0.4,0.6,0.6v6.2h1.4V71z M193.6,71v5.2c0,0.7-0.1,1.1-0.3,1.4c-0.2,0.3-0.5,0.4-0.9,0.4
		c-0.2,0-0.4,0-0.6-0.1c-0.2-0.1-0.3-0.1-0.5-0.2c-0.1-0.1-0.3-0.2-0.4-0.3c-0.1-0.1-0.2-0.2-0.3-0.3V71h-1.4v8.1h1.3v-0.9h0
		c0.1,0.1,0.1,0.2,0.3,0.3c0.1,0.1,0.3,0.3,0.4,0.4c0.2,0.1,0.4,0.2,0.6,0.3c0.2,0.1,0.5,0.1,0.8,0.1c0.9,0,1.6-0.4,2-1.1
		c0.1,0.1,0.2,0.2,0.3,0.4c0.1,0.1,0.3,0.2,0.5,0.4c0.2,0.1,0.4,0.2,0.6,0.3c0.2,0.1,0.5,0.1,0.7,0.1c1.7,0,2.5-1,2.5-2.9V71h-1.4
		v5.2c0,0.7-0.1,1.1-0.4,1.4c-0.2,0.3-0.6,0.4-1.1,0.4c-0.4,0-0.7-0.1-1-0.3c-0.3-0.2-0.5-0.4-0.6-0.5c0-0.1,0-0.3,0.1-0.4
		c0-0.1,0-0.3,0-0.4V71H193.6z M86.8,60.9h-1.7v-7h-1.4v7h-1v0.9l1,0.2v1.6c0,0.4,0.1,0.8,0.2,1.1s0.3,0.6,0.5,0.8
		c0.2,0.2,0.4,0.4,0.7,0.4c0.3,0.1,0.6,0.1,0.9,0.1c0.3,0,0.5,0,0.7-0.1c0.2-0.1,0.3-0.1,0.4-0.2l-0.3-1.1c-0.1,0-0.2,0.1-0.3,0.1
		c-0.1,0.1-0.3,0.1-0.5,0.1c-0.3,0-0.6-0.1-0.7-0.3c-0.2-0.2-0.3-0.6-0.3-1.1v-1.5h1.8L86.8,60.9z M93.8,53.9h-1.3v0.9h0
		c0-0.1-0.1-0.2-0.2-0.3c-0.1-0.1-0.3-0.3-0.4-0.4c-0.2-0.1-0.4-0.2-0.6-0.3c-0.2-0.1-0.5-0.1-0.8-0.1c-0.4,0-0.7,0.1-1,0.2
		c-0.3,0.1-0.5,0.3-0.7,0.5c-0.2,0.2-0.4,0.5-0.5,0.9c-0.1,0.4-0.2,0.8-0.2,1.4v5.3h1.4v-5.2c0-0.7,0.1-1.2,0.3-1.5
		c0.2-0.3,0.6-0.4,1-0.4c0.4,0,0.7,0.1,1,0.3c0.3,0.2,0.5,0.4,0.6,0.6v6.2h1.4V53.9z M90.5,64.4c0-0.3-0.1-0.5-0.2-0.6
		s-0.4-0.2-0.6-0.2c-0.2,0-0.4,0.1-0.6,0.2s-0.2,0.4-0.2,0.6c0,0.3,0.1,0.5,0.2,0.6s0.4,0.2,0.6,0.2c0.2,0,0.4-0.1,0.6-0.2
		S90.5,64.7,90.5,64.4z M93.1,64.4c0-0.3-0.1-0.5-0.2-0.6s-0.4-0.2-0.6-0.2c-0.2,0-0.4,0.1-0.6,0.2s-0.2,0.4-0.2,0.6
		c0,0.3,0.1,0.5,0.2,0.6s0.4,0.2,0.6,0.2c0.2,0,0.4-0.1,0.6-0.2S93.1,64.7,93.1,64.4z M99.5,60.9c0,0-0.1,0.1-0.2,0.1
		C99.2,61,99,61,98.8,61c-0.4,0-0.8-0.1-1-0.3c-0.2-0.2-0.4-0.5-0.5-0.8v-6h-1.4v8.1h1.3V61h0c0.1,0.2,0.1,0.3,0.2,0.5
		c0.1,0.2,0.2,0.3,0.3,0.4c0.1,0.1,0.3,0.2,0.5,0.3c0.2,0.1,0.4,0.1,0.7,0.1c0.2,0,0.3,0,0.5-0.1c0.1,0,0.2-0.1,0.3-0.1L99.5,60.9z
		 M110,64.5h-4.2v-4h3.8v-1.2h-3.8v-4.1h4.6l-0.1-1.2h-6v11.7h5.8L110,64.5z M115.7,60.9c0,0-0.1,0.1-0.2,0.1
		c-0.1,0-0.3,0.1-0.5,0.1c-0.4,0-0.8-0.1-1-0.3c-0.2-0.2-0.4-0.5-0.5-0.8v-6h-1.4v8.1h1.3V61h0c0.1,0.2,0.1,0.3,0.2,0.5
		c0.1,0.2,0.2,0.3,0.3,0.4s0.3,0.2,0.5,0.3c0.2,0.1,0.4,0.1,0.7,0.1c0.2,0,0.3,0,0.5-0.1c0.1,0,0.2-0.1,0.3-0.1L115.7,60.9z
		 M121.5,53.9v5.2c0,0.7-0.1,1.2-0.3,1.5c-0.2,0.3-0.6,0.4-1.1,0.4c-0.4,0-0.7-0.1-1-0.3c-0.3-0.2-0.5-0.4-0.6-0.6v-6.3h-1.4v8.1
		h1.3v-0.9h0c0,0.1,0.1,0.2,0.2,0.3c0.1,0.1,0.3,0.3,0.4,0.4c0.2,0.1,0.4,0.2,0.6,0.3c0.2,0.1,0.5,0.1,0.8,0.1c0.4,0,0.7-0.1,1-0.2
		c0.3-0.1,0.5-0.3,0.7-0.5c0.2-0.2,0.4-0.5,0.5-0.9c0.1-0.4,0.2-0.8,0.2-1.4v-5.3H121.5z M124.5,56c0,0.5,0.1,0.9,0.3,1.2
		s0.4,0.6,0.7,0.8c0.3,0.2,0.7,0.3,1.1,0.4c0.4,0.1,0.9,0.1,1.3,0.1h0.4v0.8c0,0.7-0.1,1.2-0.4,1.4c-0.2,0.3-0.6,0.4-1,0.4
		c-0.4,0-0.7-0.1-1-0.3c-0.3-0.2-0.5-0.3-0.6-0.5l-0.6,0.9c0.1,0.1,0.2,0.2,0.3,0.3c0.1,0.1,0.3,0.2,0.5,0.3
		c0.2,0.1,0.4,0.2,0.7,0.3s0.6,0.1,0.9,0.1c0.8,0,1.5-0.2,1.9-0.7c0.4-0.5,0.6-1.2,0.6-2.2v-3.7c0-0.4,0-0.7,0-1
		c0-0.3,0-0.6,0.1-0.7h-1.3l-0.1,0.9h0c0-0.1-0.1-0.2-0.2-0.3c-0.1-0.1-0.2-0.2-0.3-0.4c-0.1-0.1-0.3-0.2-0.5-0.3
		c-0.2-0.1-0.4-0.1-0.7-0.1c-0.3,0-0.6,0.1-0.9,0.2c-0.3,0.1-0.5,0.3-0.7,0.5c-0.2,0.2-0.4,0.4-0.5,0.7
		C124.5,55.4,124.5,55.7,124.5,56z M126.9,54.9c0.2,0,0.4,0,0.5,0.1c0.1,0.1,0.3,0.1,0.4,0.2c0.1,0.1,0.2,0.2,0.3,0.3
		c0.1,0.1,0.1,0.2,0.2,0.2v1.8l-0.4,0c-0.7,0-1.2-0.1-1.5-0.3c-0.3-0.2-0.5-0.5-0.5-1c0-0.4,0.1-0.7,0.3-0.9
		C126.3,55,126.6,54.9,126.9,54.9z M126.6,64.4c0-0.3-0.1-0.5-0.2-0.6c-0.2-0.2-0.4-0.2-0.6-0.2s-0.4,0.1-0.6,0.2
		c-0.2,0.2-0.2,0.4-0.2,0.6c0,0.3,0.1,0.5,0.2,0.6c0.2,0.2,0.4,0.2,0.6,0.2s0.4-0.1,0.6-0.2C126.5,64.9,126.6,64.7,126.6,64.4z
		 M129.2,64.4c0-0.3-0.1-0.5-0.2-0.6c-0.2-0.2-0.4-0.2-0.6-0.2s-0.4,0.1-0.6,0.2s-0.2,0.4-0.2,0.6c0,0.3,0.1,0.5,0.2,0.6
		s0.4,0.2,0.6,0.2s0.4-0.1,0.6-0.2C129.1,64.9,129.2,64.7,129.2,64.4z M136.1,53.9v5.2c0,0.7-0.1,1.2-0.3,1.5
		c-0.2,0.3-0.6,0.4-1.1,0.4c-0.4,0-0.7-0.1-1-0.3c-0.3-0.2-0.5-0.4-0.6-0.6v-6.3h-1.4v12l1.4,0.2v-4.8h0c0,0.1,0.1,0.2,0.2,0.3
		c0.1,0.1,0.2,0.2,0.4,0.3s0.4,0.2,0.6,0.3c0.2,0.1,0.5,0.1,0.9,0.1c0.7,0,1.3-0.2,1.7-0.7c0.4-0.5,0.6-1.2,0.6-2.3v-5.3H136.1z
		 M143.2,60.9c0,0-0.1,0.1-0.2,0.1c-0.1,0-0.3,0.1-0.5,0.1c-0.4,0-0.8-0.1-1-0.3c-0.2-0.2-0.4-0.5-0.5-0.8v-6h-1.4v8.1h1.3V61h0
		c0.1,0.2,0.1,0.3,0.2,0.5c0.1,0.2,0.2,0.3,0.3,0.4c0.1,0.1,0.3,0.2,0.5,0.3c0.2,0.1,0.4,0.1,0.7,0.1c0.2,0,0.3,0,0.5-0.1
		c0.1,0,0.2-0.1,0.3-0.1L143.2,60.9z M150.2,53.9H149v0.9h0c0-0.1-0.1-0.2-0.2-0.3c-0.1-0.1-0.3-0.3-0.4-0.4
		c-0.2-0.1-0.4-0.2-0.6-0.3c-0.2-0.1-0.5-0.1-0.8-0.1c-0.4,0-0.7,0.1-1,0.2c-0.3,0.1-0.5,0.3-0.7,0.5c-0.2,0.2-0.4,0.5-0.5,0.9
		c-0.1,0.4-0.2,0.8-0.2,1.4v5.3h1.4v-5.2c0-0.7,0.1-1.2,0.3-1.5c0.2-0.3,0.6-0.4,1-0.4c0.4,0,0.7,0.1,1,0.3c0.3,0.2,0.5,0.4,0.6,0.6
		v6.2h1.4V53.9z M156.8,53.9v5.2c0,0.7-0.1,1.2-0.3,1.5c-0.2,0.3-0.6,0.4-1.1,0.4c-0.4,0-0.7-0.1-1-0.3c-0.3-0.2-0.5-0.4-0.6-0.6
		v-6.3h-1.4v8.1h1.3v-0.9h0c0,0.1,0.1,0.2,0.2,0.3c0.1,0.1,0.3,0.3,0.4,0.4c0.2,0.1,0.4,0.2,0.6,0.3c0.2,0.1,0.5,0.1,0.8,0.1
		c0.4,0,0.7-0.1,1-0.2c0.3-0.1,0.5-0.3,0.7-0.5c0.2-0.2,0.4-0.5,0.5-0.9c0.1-0.4,0.2-0.8,0.2-1.4v-5.3H156.8z M166,61h-1
		c0.3-0.4,0.4-0.9,0.4-1.5c0-0.4-0.1-0.8-0.2-1.2c-0.1-0.3-0.3-0.6-0.6-0.9c-0.3-0.2-0.6-0.4-0.9-0.5c-0.3-0.1-0.7-0.2-1.1-0.2
		c-0.1,0-0.2,0-0.2,0c-0.1,0-0.1,0-0.2,0c-0.1-0.1-0.3-0.1-0.4-0.3c-0.1-0.1-0.2-0.3-0.2-0.5c0-0.2,0.1-0.3,0.2-0.4
		c0.1-0.1,0.3-0.2,0.6-0.2h1c0.4,0,0.7,0,1.1-0.1c0.3-0.1,0.6-0.2,0.9-0.4c0.2-0.2,0.4-0.4,0.6-0.7c0.1-0.3,0.2-0.6,0.2-1
		c0-0.4-0.1-0.8-0.3-1.2c-0.2-0.4-0.4-0.7-0.8-0.9c-0.3-0.3-0.8-0.5-1.2-0.6s-1-0.2-1.6-0.2c-0.9,0-1.5,0.2-2,0.6
		c-0.5,0.4-0.7,0.9-0.7,1.6c0,0.3,0.1,0.6,0.2,0.8c0.1,0.2,0.2,0.4,0.4,0.6c0.1,0.2,0.3,0.3,0.4,0.4c0.2,0.1,0.3,0.2,0.4,0.2v0
		c-0.4,0.3-0.5,0.6-0.5,1.1c0,0.2,0,0.4,0.1,0.6c0.1,0.2,0.2,0.3,0.3,0.4c0.1,0.1,0.2,0.2,0.3,0.2c0.1,0.1,0.2,0.1,0.2,0.1v0
		c-0.4,0.2-0.8,0.5-1,0.9c-0.3,0.4-0.4,0.9-0.4,1.6c0,0.5,0.1,0.9,0.2,1.2c0.1,0.3,0.3,0.6,0.6,0.9c0.2,0.2,0.5,0.4,0.9,0.5
		c0.3,0.1,0.7,0.2,1.1,0.2c0.4,0,0.7-0.1,1.1-0.2h2.5L166,61z M162.2,54.2c-0.2,0-0.4,0-0.6,0.1c-0.1-0.1-0.2-0.1-0.3-0.2
		c-0.1-0.1-0.2-0.2-0.3-0.3c-0.1-0.1-0.1-0.2-0.2-0.4c-0.1-0.2-0.1-0.3-0.1-0.5c0-0.9,0.5-1.3,1.4-1.3c0.8,0,1.4,0.2,1.8,0.5
		c0.4,0.3,0.6,0.7,0.6,1.1c0,0.4-0.1,0.7-0.4,0.8c-0.2,0.2-0.6,0.2-1,0.2H162.2z M164.1,59.5c0,0.6-0.1,1-0.4,1.3
		c-0.3,0.2-0.6,0.4-1,0.4c-0.4,0-0.7-0.1-1-0.4c-0.3-0.2-0.4-0.7-0.4-1.3c0-0.6,0.1-1,0.4-1.3c0.3-0.2,0.6-0.4,1-0.4
		c0.4,0,0.7,0.1,1,0.4C163.9,58.5,164.1,59,164.1,59.5z M89,36.8h-1.3v0.9h0c0-0.1-0.1-0.2-0.2-0.3c-0.1-0.1-0.3-0.3-0.4-0.4
		c-0.2-0.1-0.4-0.2-0.6-0.3c-0.2-0.1-0.5-0.1-0.8-0.1c-0.4,0-0.7,0.1-1,0.2c-0.3,0.1-0.5,0.3-0.7,0.5s-0.4,0.5-0.5,0.9
		c-0.1,0.4-0.2,0.8-0.2,1.4V45h1.4v-5.2c0-0.7,0.1-1.2,0.3-1.5c0.2-0.3,0.6-0.4,1-0.4c0.4,0,0.7,0.1,1,0.3c0.3,0.2,0.5,0.4,0.6,0.6
		V45H89V36.8z M95.6,36.8v5.2c0,0.7-0.1,1.2-0.3,1.5C95,43.8,94.7,44,94.2,44c-0.4,0-0.7-0.1-1-0.3c-0.3-0.2-0.5-0.4-0.6-0.6v-6.3
		h-1.4V45h1.3V44h0c0,0.1,0.1,0.2,0.2,0.3c0.1,0.1,0.3,0.3,0.4,0.4c0.2,0.1,0.4,0.2,0.6,0.3c0.2,0.1,0.5,0.1,0.8,0.1
		c0.4,0,0.7-0.1,1-0.2c0.3-0.1,0.5-0.3,0.7-0.5c0.2-0.2,0.4-0.5,0.5-0.9c0.1-0.4,0.2-0.8,0.2-1.4v-5.3H95.6z M98.7,40.8
		c0,0.8,0.1,1.5,0.3,2.1c0.2,0.6,0.5,1,0.8,1.3c0.3,0.3,0.7,0.6,1.2,0.7c0.4,0.1,0.9,0.2,1.3,0.2c0.3,0,0.5,0,0.7-0.1
		c0.2,0,0.4-0.1,0.5-0.1v3.9l1.4,0.2V36.8h-1.3v0.9h0c0-0.1-0.1-0.2-0.2-0.3c-0.1-0.1-0.2-0.2-0.4-0.4c-0.2-0.1-0.4-0.2-0.6-0.3
		c-0.2-0.1-0.5-0.1-0.8-0.1c-0.4,0-0.7,0.1-1.1,0.2c-0.3,0.2-0.6,0.4-0.9,0.7c-0.3,0.3-0.5,0.8-0.6,1.3C98.7,39.4,98.7,40,98.7,40.8
		z M101.9,37.8c0.2,0,0.4,0,0.6,0.1c0.2,0.1,0.3,0.1,0.4,0.2c0.1,0.1,0.2,0.2,0.3,0.3c0.1,0.1,0.1,0.2,0.2,0.2v5
		c-0.1,0.1-0.3,0.1-0.4,0.2c-0.2,0.1-0.4,0.1-0.6,0.1c-0.3,0-0.6-0.1-0.9-0.2c-0.3-0.1-0.5-0.3-0.7-0.5s-0.4-0.6-0.5-1
		c-0.1-0.4-0.2-0.9-0.2-1.5c0-0.6,0-1,0.1-1.4c0.1-0.4,0.2-0.7,0.4-0.9c0.2-0.2,0.4-0.4,0.6-0.5C101.4,37.9,101.6,37.8,101.9,37.8z
		 M112.2,48.5V38h4.3l-0.1-1.2h-5.6v11.7H112.2z M117.3,38.9c0,0.5,0.1,0.9,0.3,1.2c0.2,0.3,0.4,0.6,0.7,0.8
		c0.3,0.2,0.7,0.3,1.1,0.4c0.4,0.1,0.9,0.1,1.3,0.1h0.4v0.8c0,0.7-0.1,1.2-0.4,1.4c-0.2,0.3-0.6,0.4-1,0.4c-0.4,0-0.7-0.1-1-0.3
		c-0.3-0.2-0.5-0.3-0.6-0.5l-0.6,0.9c0.1,0.1,0.2,0.2,0.3,0.3c0.1,0.1,0.3,0.2,0.5,0.3c0.2,0.1,0.4,0.2,0.7,0.3
		c0.3,0.1,0.6,0.1,0.9,0.1c0.8,0,1.5-0.2,1.9-0.7c0.4-0.5,0.6-1.2,0.6-2.2v-3.7c0-0.4,0-0.7,0-1c0-0.3,0-0.6,0.1-0.7h-1.3l-0.1,0.9
		h0c0-0.1-0.1-0.2-0.2-0.3c-0.1-0.1-0.2-0.2-0.3-0.4c-0.1-0.1-0.3-0.2-0.5-0.3c-0.2-0.1-0.4-0.1-0.7-0.1c-0.3,0-0.6,0.1-0.9,0.2
		c-0.3,0.1-0.5,0.3-0.7,0.5c-0.2,0.2-0.4,0.4-0.5,0.7C117.4,38.3,117.3,38.6,117.3,38.9z M119.8,37.8c0.2,0,0.4,0,0.5,0.1
		c0.1,0.1,0.3,0.1,0.4,0.2c0.1,0.1,0.2,0.2,0.3,0.3c0.1,0.1,0.1,0.2,0.2,0.2v1.8l-0.4,0c-0.7,0-1.2-0.1-1.5-0.3
		c-0.3-0.2-0.5-0.5-0.5-1c0-0.4,0.1-0.7,0.3-0.9C119.2,37.9,119.4,37.8,119.8,37.8z M129,36.8v5.2c0,0.7-0.1,1.2-0.3,1.5
		c-0.2,0.3-0.6,0.4-1.1,0.4c-0.4,0-0.7-0.1-1-0.3c-0.3-0.2-0.5-0.4-0.6-0.6v-6.3h-1.4V45h1.3V44h0c0,0.1,0.1,0.2,0.2,0.3
		c0.1,0.1,0.3,0.3,0.4,0.4c0.2,0.1,0.4,0.2,0.6,0.3c0.2,0.1,0.5,0.1,0.8,0.1c0.4,0,0.7-0.1,1-0.2c0.3-0.1,0.5-0.3,0.7-0.5
		c0.2-0.2,0.4-0.5,0.5-0.9c0.1-0.4,0.2-0.8,0.2-1.4v-5.3H129z M132,40.8c0,0.8,0.1,1.5,0.3,2.1c0.2,0.6,0.5,1,0.8,1.3
		c0.3,0.3,0.7,0.6,1.2,0.7c0.4,0.1,0.9,0.2,1.3,0.2c0.3,0,0.5,0,0.7-0.1c0.2,0,0.4-0.1,0.5-0.1v3.9l1.4,0.2V36.8h-1.3v0.9h0
		c0-0.1-0.1-0.2-0.2-0.3c-0.1-0.1-0.2-0.2-0.4-0.4c-0.2-0.1-0.4-0.2-0.6-0.3c-0.2-0.1-0.5-0.1-0.8-0.1c-0.4,0-0.7,0.1-1.1,0.2
		c-0.3,0.2-0.6,0.4-0.9,0.7c-0.3,0.3-0.5,0.8-0.6,1.3C132.1,39.4,132,40,132,40.8z M135.3,37.8c0.2,0,0.4,0,0.6,0.1
		c0.2,0.1,0.3,0.1,0.4,0.2c0.1,0.1,0.2,0.2,0.3,0.3c0.1,0.1,0.1,0.2,0.2,0.2v5c-0.1,0.1-0.3,0.1-0.4,0.2c-0.2,0.1-0.4,0.1-0.6,0.1
		c-0.3,0-0.6-0.1-0.9-0.2c-0.3-0.1-0.5-0.3-0.7-0.5c-0.2-0.2-0.4-0.6-0.5-1c-0.1-0.4-0.2-0.9-0.2-1.5c0-0.6,0-1,0.1-1.4
		c0.1-0.4,0.2-0.7,0.4-0.9c0.2-0.2,0.4-0.4,0.6-0.5C134.8,37.9,135,37.8,135.3,37.8z M149.7,45l-2.5-8.1H146l-0.8,2.9
		c-0.1,0.4-0.2,0.8-0.3,1.1c-0.1,0.4-0.1,0.7-0.2,1h0c0-0.3-0.1-0.7-0.2-1c-0.1-0.4-0.2-0.7-0.4-1.1l-0.9-2.8H142l-2.6,8.1h1.5
		l1.2-4.6c0.1-0.4,0.2-0.8,0.3-1.2c0.1-0.4,0.1-0.7,0.1-1h0c0,0.3,0.1,0.7,0.2,1c0.1,0.4,0.2,0.7,0.4,1.2L144,43l-0.6,2h1.4l1.2-4.5
		c0.1-0.5,0.2-0.9,0.3-1.3c0.1-0.4,0.2-0.8,0.2-1.1h0c0,0.3,0.1,0.6,0.2,1.1c0.1,0.4,0.2,0.8,0.3,1.3l1.2,4.5H149.7z M152.3,36.8
		h-1.4V45h1.4V36.8z M151.6,46.9c-0.3,0-0.5,0.1-0.7,0.3c-0.2,0.2-0.3,0.4-0.3,0.7c0,0.3,0.1,0.5,0.3,0.7c0.2,0.2,0.4,0.3,0.7,0.3
		c0.3,0,0.5-0.1,0.7-0.3c0.2-0.2,0.3-0.4,0.3-0.7c0-0.3-0.1-0.5-0.3-0.7C152.1,47,151.9,46.9,151.6,46.9z M158,43.8
		c0,0-0.1,0.1-0.2,0.1c-0.1,0-0.3,0.1-0.5,0.1c-0.4,0-0.8-0.1-1-0.3c-0.2-0.2-0.4-0.5-0.5-0.8v-6h-1.4V45h1.3v-1.1h0
		c0.1,0.2,0.1,0.3,0.2,0.5c0.1,0.2,0.2,0.3,0.3,0.4c0.1,0.1,0.3,0.2,0.5,0.3c0.2,0.1,0.4,0.1,0.7,0.1c0.2,0,0.3,0,0.5-0.1
		c0.1,0,0.2-0.1,0.3-0.1L158,43.8z M162.8,43.8H161v-4.5c0-0.6,0.1-1,0.2-1.2c0.1-0.2,0.4-0.3,0.7-0.3c0.2,0,0.4,0,0.5,0.1
		c0.1,0.1,0.3,0.1,0.3,0.2L163,37c-0.1,0-0.2-0.1-0.4-0.2c-0.2-0.1-0.5-0.1-0.9-0.1c-0.7,0-1.2,0.2-1.6,0.6c-0.4,0.4-0.5,1-0.5,1.9
		v4.7h-1v0.9l1,0.2l0.2,2.3h1.2V45h2L162.8,43.8z M167.9,43.3c-0.1,0.1-0.3,0.2-0.5,0.4c-0.2,0.2-0.5,0.3-0.9,0.3
		c-0.4,0-0.6-0.1-0.8-0.3c-0.2-0.2-0.3-0.4-0.3-0.6c0-0.3,0.1-0.6,0.3-0.8c0.2-0.2,0.4-0.4,0.8-0.6l0.5-0.3c0.6-0.3,1-0.7,1.3-1.1
		c0.3-0.4,0.5-0.9,0.5-1.5c0-0.6-0.2-1.2-0.7-1.6c-0.4-0.4-1.1-0.7-1.9-0.7c-0.3,0-0.6,0-0.9,0.1c-0.2,0.1-0.5,0.1-0.7,0.2
		c-0.2,0.1-0.3,0.2-0.5,0.3c-0.1,0.1-0.2,0.2-0.3,0.3l0.7,1.1c0.1-0.1,0.1-0.1,0.2-0.2c0.1-0.1,0.2-0.2,0.3-0.3
		c0.1-0.1,0.3-0.2,0.5-0.2c0.2-0.1,0.4-0.1,0.6-0.1c0.4,0,0.7,0.1,0.9,0.3s0.3,0.4,0.3,0.7c0,0.2,0,0.4-0.1,0.5
		c-0.1,0.1-0.1,0.3-0.2,0.4c-0.1,0.1-0.2,0.2-0.4,0.3c-0.1,0.1-0.3,0.2-0.5,0.3l-0.5,0.3c-0.5,0.3-0.9,0.7-1.2,1
		c-0.3,0.4-0.4,0.8-0.4,1.4c0,0.3,0.1,0.6,0.2,0.8c0.1,0.3,0.3,0.5,0.5,0.7c0.2,0.2,0.5,0.3,0.8,0.4c0.3,0.1,0.6,0.2,0.9,0.2
		c0.3,0,0.6,0,0.8-0.1c0.2-0.1,0.4-0.1,0.6-0.2c0.2-0.1,0.3-0.2,0.4-0.3c0.1-0.1,0.2-0.2,0.3-0.2L167.9,43.3z M174.8,43.4
		c0,0-0.1,0.1-0.2,0.2c-0.1,0.1-0.2,0.1-0.3,0.2c-0.1,0.1-0.2,0.1-0.4,0.2c-0.2,0.1-0.3,0.1-0.5,0.1c-0.3,0-0.6-0.1-0.8-0.2
		c-0.3-0.1-0.5-0.3-0.7-0.5c-0.2-0.2-0.3-0.5-0.4-0.9c-0.1-0.4-0.2-0.8-0.2-1.4c0-0.6,0-1.1,0.1-1.5c0.1-0.4,0.2-0.7,0.4-1
		c0.2-0.2,0.4-0.4,0.6-0.5c0.2-0.1,0.5-0.2,0.8-0.2c0.4,0,0.7,0.1,1,0.2c0.2,0.1,0.4,0.3,0.5,0.4l0.6-1c-0.1-0.1-0.1-0.1-0.2-0.2
		c-0.1-0.1-0.2-0.2-0.4-0.3c-0.2-0.1-0.4-0.2-0.6-0.2c-0.2-0.1-0.5-0.1-0.8-0.1c-0.5,0-0.9,0.1-1.3,0.2c-0.4,0.1-0.7,0.4-1,0.7
		s-0.5,0.8-0.7,1.3c-0.2,0.5-0.3,1.2-0.3,2c0,0.8,0.1,1.4,0.3,2c0.2,0.5,0.5,1,0.8,1.3c0.3,0.3,0.7,0.6,1.1,0.7
		c0.4,0.2,0.8,0.2,1.2,0.2c0.3,0,0.6,0,0.8-0.1c0.2-0.1,0.4-0.1,0.6-0.2c0.2-0.1,0.3-0.2,0.4-0.3c0.1-0.1,0.2-0.2,0.3-0.2
		L174.8,43.4z M181.3,36.8v5.2c0,0.7-0.1,1.2-0.3,1.5c-0.2,0.3-0.6,0.4-1.1,0.4c-0.4,0-0.7-0.1-1-0.3s-0.5-0.4-0.6-0.6v-6.3h-1.4v12
		l1.4,0.2v-4.8h0c0,0.1,0.1,0.2,0.2,0.3c0.1,0.1,0.2,0.2,0.4,0.3s0.4,0.2,0.6,0.3c0.2,0.1,0.5,0.1,0.9,0.1c0.7,0,1.3-0.2,1.7-0.7
		c0.4-0.5,0.6-1.2,0.6-2.3v-5.3H181.3z M184.3,38.9c0,0.5,0.1,0.9,0.3,1.2c0.2,0.3,0.4,0.6,0.7,0.8c0.3,0.2,0.7,0.3,1.1,0.4
		c0.4,0.1,0.9,0.1,1.3,0.1h0.4v0.8c0,0.7-0.1,1.2-0.4,1.4c-0.2,0.3-0.6,0.4-1,0.4c-0.4,0-0.7-0.1-1-0.3c-0.3-0.2-0.5-0.3-0.6-0.5
		l-0.6,0.9c0.1,0.1,0.2,0.2,0.3,0.3c0.1,0.1,0.3,0.2,0.5,0.3c0.2,0.1,0.4,0.2,0.7,0.3c0.3,0.1,0.6,0.1,0.9,0.1
		c0.8,0,1.5-0.2,1.9-0.7c0.4-0.5,0.6-1.2,0.6-2.2v-3.7c0-0.4,0-0.7,0-1c0-0.3,0-0.6,0.1-0.7h-1.3l-0.1,0.9h0c0-0.1-0.1-0.2-0.2-0.3
		c-0.1-0.1-0.2-0.2-0.3-0.4c-0.1-0.1-0.3-0.2-0.5-0.3c-0.2-0.1-0.4-0.1-0.7-0.1c-0.3,0-0.6,0.1-0.9,0.2c-0.3,0.1-0.5,0.3-0.7,0.5
		c-0.2,0.2-0.4,0.4-0.5,0.7C184.3,38.3,184.3,38.6,184.3,38.9z M186.7,37.8c0.2,0,0.4,0,0.5,0.1c0.1,0.1,0.3,0.1,0.4,0.2
		c0.1,0.1,0.2,0.2,0.3,0.3c0.1,0.1,0.1,0.2,0.2,0.2v1.8l-0.4,0c-0.7,0-1.2-0.1-1.5-0.3c-0.3-0.2-0.5-0.5-0.5-1
		c0-0.4,0.1-0.7,0.3-0.9C186.1,37.9,186.4,37.8,186.7,37.8z M194.9,43.8h-1.7v-7h-1.4v7h-1v0.9l1,0.2v1.6c0,0.4,0.1,0.8,0.2,1.1
		c0.1,0.3,0.3,0.6,0.5,0.8c0.2,0.2,0.4,0.4,0.7,0.4c0.3,0.1,0.6,0.1,0.9,0.1c0.3,0,0.5,0,0.7-0.1c0.2-0.1,0.3-0.1,0.4-0.2l-0.3-1.1
		c-0.1,0-0.2,0.1-0.3,0.1c-0.1,0.1-0.3,0.1-0.5,0.1c-0.3,0-0.6-0.1-0.7-0.3c-0.2-0.2-0.3-0.6-0.3-1.1V45h1.8L194.9,43.8z
		 M199.8,43.8H198v-4.5c0-0.6,0.1-1,0.2-1.2c0.1-0.2,0.4-0.3,0.7-0.3c0.2,0,0.4,0,0.5,0.1c0.1,0.1,0.3,0.1,0.3,0.2L200,37
		c-0.1,0-0.2-0.1-0.4-0.2c-0.2-0.1-0.5-0.1-0.9-0.1c-0.7,0-1.2,0.2-1.6,0.6c-0.4,0.4-0.5,1-0.5,1.9v4.7h-1v0.9l1,0.2l0.2,2.3h1.2V45
		h2L199.8,43.8z"/>
</g>
<g id="Adler-und-Saeulenelement_00000065782724862498963700000011974927823246334889_">
	<path d="M46.2,32c0-0.3,0.1-0.6,0.1-1c0-0.2,0-0.4,0-0.6c2.8,0,5.3-2.1,5.3-4.4c0-1.2-0.8-2.1-1.2-2.6c0.1,0,0.2,0,0.3-0.1
		c0.4,0.4,1.6,1.6,1.6,3.3C52.2,29.3,49.4,32,46.2,32 M43.3,22.2c-0.1-0.3-0.2-0.6-0.4-0.8c0-0.3,0.1-0.6,0.6-0.3
		c-0.3,0.3-0.1,0.7-0.1,0.7s0.5-0.2,0.4-0.6C44.7,21.3,44.1,22.3,43.3,22.2 M42.7,23.6c-0.1-0.4-0.3-0.9-0.6-1.2
		c-0.3-0.3-0.7-0.6-1.2-0.6c-0.3,0-0.7,0.1-1,0.2c-0.1-0.2-0.3-0.6-0.3-0.8c0-0.2,0.3-0.4,1-0.4c1.5,0,2.3,0.7,2.3,1.8
		C43,23,42.8,23.3,42.7,23.6 M46.4,42.6c0.2,0,0.3,0,0.4,0.1c0.4,1.2,2.1,3.3,2.1,3.4l0,0l0,0c0.4-0.1,1.4-0.2,2.3-0.2h0
		c0.1,0,0.2,0,0.3,0.1c0.1,0.1,0.1,0.2,0.1,0.3c0,0.2-0.1,0.6-0.2,0.7c-0.3-0.3-0.8-0.5-1.6-0.5c-0.2,0-0.5,0.1-0.7,0.1l-0.1,0
		l-0.1,0l0.4,0.4c0.7,0.7,1.3,1.3,1.3,1.7c0,0.2-0.2,0.6-0.4,0.7c0-0.7-0.8-1.7-1.5-2.2l-0.1,0l0,0.3c0,0.2,0,0.4,0,0.7
		c0,1.4-0.1,1.6-0.6,1.6c-0.1,0-0.2,0-0.3,0c0.3-0.3,0.4-0.8,0.4-1.6l0-0.4l0-0.3c0-0.3,0-0.6,0.1-0.7l0-0.1l-0.1,0
		c-0.2,0-0.6-0.1-1-0.1c-0.7,0-1.2,0.1-1.5,0.4c-0.2-0.2-0.5-0.5-0.5-0.7c0-0.3,0.2-0.3,0.4-0.3c0.1,0,0.2,0,0.4,0
		c0.3,0,0.7,0.1,1.7,0.1h0.1l0-0.1c-0.2-0.7-0.9-1.6-1.9-2.9C46,42.8,46.1,42.6,46.4,42.6 M37.6,46L37.6,46L37.6,46
		c1,0.1,1.4,0,1.7-0.1c0.2,0,0.3,0,0.4,0c0.2,0,0.4,0,0.4,0.3c0,0.2-0.2,0.5-0.4,0.7c-0.3-0.3-0.8-0.4-1.5-0.4c-0.3,0-0.7,0.1-1,0.1
		l0,0l0,0l0,0.1c0,0.2,0.1,0.4,0.1,0.7l0,0.3l0,0.4c0,0.8,0.1,1.2,0.4,1.6c-0.1,0-0.2,0-0.3,0c-0.5,0-0.6-0.2-0.6-1.6
		c0-0.3,0-0.5,0-0.7l0-0.3l-0.1,0c-0.7,0.5-1.5,1.5-1.5,2.2c-0.2-0.1-0.4-0.5-0.4-0.7c0-0.4,0.6-1,1.3-1.7l0.4-0.4l0.1-0.1l-0.1,0
		c-0.1,0-0.4-0.1-0.7-0.1c-0.8,0-1.3,0.1-1.6,0.5c-0.1-0.2-0.2-0.5-0.2-0.7c0-0.1,0-0.2,0.1-0.3c0.1-0.1,0.2-0.1,0.3-0.1h0
		c0.9,0,1.9,0.2,2.3,0.2l0,0l0,0c0.1-0.1,1.7-2.3,2.1-3.4c0.1,0,0.2-0.1,0.4-0.1c0.3,0,0.4,0.2,0.5,0.5C38.5,44.4,37.9,45.4,37.6,46
		 M33.2,26.5c0-1.6,1.2-2.9,1.6-3.3c0.1,0,0.2,0,0.3,0.1c-0.4,0.5-1.2,1.4-1.2,2.6c0,2.4,2.5,4.4,5.4,4.4c0,0.2,0,0.4,0,0.6
		c0,0.4,0,0.7,0.1,1C36.1,32,33.2,29.4,33.2,26.5 M55.1,31.5c1.5,2.3,2.6,2.3,4.3,2.3c-1.4-1.1-2.4-2.5-2.8-3.2l-2.7-4.3
		c-0.3-1.3-0.9-2.5-2-3.5c0.3-0.1,0.6-0.3,0.8-0.4c-1.7,0-3.5-0.9-4.4-0.9c-0.6,0-1,0.4-1,0.8c0,0.5,0.6,1.1,1.6,1.1
		c0.2,0,0.5,0,0.9-0.1c0.6,0.8,1,1.5,1,2.5c0,1.9-2.2,3.3-4.5,3.3c-0.1,0-0.2,0-0.4,0C45.7,28.7,45,28,45,27.1c0-1.5,1-2.7,1-4.2
		c0-0.9-0.4-1.5-0.6-1.7c0.3-0.3,0.6-0.6,0.7-0.8c-0.2,0.1-0.4,0.1-0.6,0.1c-1.1,0-2-0.3-2.8-0.3c-0.5,0-0.6,0.2-0.6,0.3
		c0,0.1,0,0.1,0,0.1c-0.2-0.1-0.4-0.1-0.6-0.2c-0.3,0-0.5-0.1-0.8-0.1c-1,0-1.4,0.4-1.4,0.8c0,0.3,0.2,0.9,0.5,1.3
		c0.4-0.2,0.9-0.3,1.1-0.3c0.6,0,1,0.5,1.3,1.2c-0.4,0-0.4,0.1-0.8,0.1c-1,0-1.7-0.4-1.9-0.4c0,0,0,0,0,0c0,0.1,0.3,0.5,0.9,0.7
		c0.7,0.3,1.9,0.4,2.1,0.4c0,0-0.2,0.4-0.4,0.5c0,0-0.1,0-0.1,0c-0.8-0.2-1-0.2-2-0.6c0,0,0,0,0,0c0,0.4,1,1.3,1.9,1.6
		c-0.8,1-1.7,2-2.2,3.5c-0.1,0-0.2,0-0.4,0c-2.3,0-4.5-1.5-4.5-3.3c0-1,0.4-1.7,1-2.5c0.3,0.1,0.6,0.1,0.9,0.1c1,0,1.6-0.5,1.6-1.1
		c0-0.5-0.4-0.8-1-0.8c-0.9,0-2.7,0.9-4.4,0.9c0.2,0.1,0.5,0.3,0.8,0.4c-1,0.9-1.7,2.1-2,3.5l-2.7,4.3c-0.4,0.7-1.4,2.1-2.8,3.2
		c1.7,0,2.9,0,4.3-2.3l1.4-2.2c0.1,0.3,0.2,0.6,0.4,0.8l-2.7,4.3c-0.5,0.7-1.4,2.1-2.8,3.2c1.7,0,2.9,0,4.3-2.3l2.3-3.7
		c0.2,0.2,0.4,0.4,0.6,0.5l-3.3,5.3c-0.5,0.7-1.4,2.1-2.8,3.2c1.7,0,2.9,0,4.3-2.3l3.2-5.2c0.2,0.1,0.4,0.3,0.7,0.4L32,40
		c-0.5,0.7-1.4,2.1-2.8,3.2c1.7,0,2.9,0,4.3-2.3l4-6.5c0.2,0.1,0.5,0.2,0.7,0.3l-4.6,7.3c-0.4,0.7-1.4,2.1-2.8,3.2
		c1.7,0,2.9,0,4.3-2.3l4.9-7.8c0,0,0.1,0,0.1,0c0.1,0.4,0.2,0.8,0.2,1.2c0,2.5-1.6,4.6-3.5,6.3c0.1,0.1,0.3,0.1,0.5,0.1
		c0.4,0,0.7,0,0.8-0.1c-0.4,1-1.4,2.3-1.9,3c-0.6-0.1-1.6-0.2-2.2-0.2c-0.6,0-0.7,0.4-0.7,0.7c0,0.6,0.3,1,0.6,1.3
		c0.1-0.3,0.4-0.7,1.5-0.7c0,0,0.1,0,0.1,0c-0.3,0.4-1.4,1.2-1.4,1.9c0,0.5,0.5,1.1,1.2,1.1c0-0.1,0-0.3,0-0.4
		c0-0.6,0.5-1.2,0.9-1.7c0,0.1,0,0.1,0,0.3c0,1.3,0.1,1.9,1,1.9c0.4,0,0.7-0.2,0.8-0.3c-0.5-0.5-0.6-0.9-0.6-1.6c0-0.2,0-0.4,0-0.6
		c0-0.2,0-0.4,0-0.6c0.3,0,0.4,0,0.7,0c0,0,1.2-0.1,1.5,0.5c0.3-0.3,0.8-0.7,0.8-1.2c0-0.3-0.1-0.7-0.8-0.7c-0.2,0-1,0.1-1.6,0.1
		c0.2-0.4,0.9-1.4,1.5-2.2c0.1,0.3,0.2,0.6,0.6,0.9c0-0.5,0.3-2.1,1.1-3c0.1,0.6,0.2,1.3,0.2,2.6c0,3.3-0.8,5.7-2.5,6.2
		c0.2,0.4,0.7,0.7,1.2,0.7c0.6,0,1-0.7,1.3-1.4c0.2,0.5,0.7,1.7,1.2,1.7s1-1.2,1.2-1.7c0.3,0.7,0.7,1.4,1.3,1.4
		c0.5,0,0.9-0.3,1.2-0.7c-1.7-0.5-2.5-2.9-2.5-6.2c0-1.4,0.1-2,0.2-2.6c0.8,0.9,1.1,2.5,1.1,3c0.3-0.3,0.5-0.6,0.6-0.9
		c0.6,0.8,1.4,1.9,1.5,2.2c-0.6,0-1.4-0.1-1.6-0.1c-0.6,0-0.8,0.3-0.8,0.7c0,0.5,0.5,0.9,0.8,1.2c0.3-0.6,1.5-0.5,1.5-0.5
		c0.2,0,0.4,0,0.7,0c0,0.2,0,0.4,0,0.6c0,0.3,0,0.5,0,0.6c0,0.7,0,1.1-0.6,1.6c0.1,0.1,0.4,0.3,0.8,0.3c0.8,0,1-0.6,1-1.9
		c0-0.2,0-0.1,0-0.3c0.4,0.5,0.9,1.1,0.9,1.7c0,0.1,0,0.2,0,0.4c0.7,0,1.2-0.7,1.2-1.1c0-0.7-1.1-1.6-1.4-1.9c0.1,0,0.1,0,0.1,0
		c1.2,0,1.4,0.4,1.5,0.7c0.3-0.3,0.6-0.7,0.6-1.3c0-0.3-0.1-0.7-0.7-0.7c-0.6,0-1.5,0.1-2.2,0.2c-0.5-0.7-1.4-2-1.9-3
		c0.2,0,0.4,0.1,0.8,0.1c0.2,0,0.4,0,0.5-0.1C46.6,41,45,38.9,45,36.4c0-0.4,0.1-0.8,0.2-1.2c0,0,0.1,0,0.1,0l4.9,7.8
		c1.5,2.3,2.6,2.3,4.3,2.3c-1.4-1.1-2.4-2.5-2.8-3.2l-4.6-7.3c0.2-0.1,0.5-0.2,0.7-0.3l4,6.5c1.5,2.3,2.6,2.3,4.3,2.3
		c-1.4-1.1-2.4-2.5-2.8-3.2l-3.9-6.3c0.2-0.1,0.4-0.3,0.7-0.4l3.2,5.2c1.5,2.3,2.6,2.3,4.3,2.3c-1.4-1.1-2.4-2.5-2.8-3.2l-3.3-5.3
		c0.2-0.2,0.4-0.4,0.6-0.5l2.3,3.7c1.5,2.3,2.6,2.3,4.3,2.3c-1.4-1.1-2.4-2.5-2.8-3.2l-2.7-4.3c0.1-0.3,0.3-0.5,0.4-0.8L55.1,31.5z"
		/>
	<path d="M73,50.1h-5V21.6h5V50.1z"/>
	<path class="st0" d="M73,78.6h-5V50.1h5V78.6z"/>
	<path class="st1" d="M73,107.1h-5V78.6h5V107.1z"/>
</g>
</svg>
