<svg enable-background="new 0 0 315 129" viewBox="0 0 315 129" xmlns="http://www.w3.org/2000/svg"><path d="m89.8 79.8c0-.4-.1-.8-.2-1.1s-.2-.6-.4-.8-.4-.4-.6-.5-.5-.2-.7-.3c.3-.1.6-.2.9-.3.3-.2.5-.4.7-.6s.4-.5.5-.8.2-.7.2-1.1c0-.5-.1-.9-.2-1.3-.2-.4-.4-.7-.7-1s-.8-.5-1.3-.7-1.3-.3-2-.3h-2.4v11.7h2.3c.7 0 1.3-.1 1.8-.2s.9-.3 1.2-.6.5-.6.7-.9c.1-.4.2-.8.2-1.2zm-1.5-.1c0 .5-.2 1-.6 1.3-.4.4-1 .5-1.8.5h-.8v-4h.8c.8 0 1.4.2 1.8.6s.6.9.6 1.6zm.2-5.4c0 .6-.2 1.1-.6 1.5s-1 .6-1.8.6h-1v-4.1h.9c.9 0 1.5.2 1.9.5s.6.8.6 1.5zm9.1-3.3h-1.3v.9c0-.1-.1-.2-.2-.3s-.3-.3-.4-.4c-.2-.1-.4-.2-.6-.3s-.5-.1-.8-.1c-.4 0-.7.1-1 .2s-.5.3-.7.5-.4.5-.5.9-.2.8-.2 1.4v5.3h1.4v-5.2c0-.7.1-1.2.3-1.5s.6-.4 1-.4.7.1 1 .3.5.4.6.6v6.2h1.4zm6.5 0v5.2c0 .7-.1 1.2-.3 1.5s-.6.4-1.1.4c-.4 0-.7-.1-1-.3s-.5-.4-.6-.6v-6.2h-1.4v8.1h1.3v-.9c0 .1.1.2.2.3l.4.4c.2.1.4.2.6.3s.5.1.8.1c.4 0 .7-.1 1-.2s.5-.3.7-.5.4-.5.5-.9.2-.8.2-1.4v-5.3zm3.1 4c0 .8.1 1.5.3 2.1s.5 1 .8 1.3.7.6 1.2.7c.4.1.9.2 1.3.2.3 0 .5 0 .7-.1.2 0 .4-.1.5-.1v3.9l1.4.2v-12.2h-1.3v.9c0-.1-.1-.2-.2-.3s-.2-.2-.4-.4c-.2-.1-.4-.2-.6-.3s-.5-.1-.8-.1c-.4 0-.7.1-1.1.2-.3.2-.6.4-.9.7s-.5.8-.6 1.3c-.2.6-.3 1.2-.3 2zm3.2-3c.2 0 .4 0 .6.1s.3.1.4.2l.3.3c.1.1.1.2.2.2v5c-.1.1-.3.1-.4.2-.2.1-.4.1-.6.1-.3 0-.6-.1-.9-.2s-.5-.3-.7-.5-.4-.6-.5-1-.2-.9-.2-1.5 0-1 .1-1.4.2-.7.4-.9.4-.4.6-.5c.3 0 .5-.1.7-.1zm10.3 4.4c0-.4 0-.7 0-.9 0-.3 0-.5-.1-.7h-4.2c0-1 .3-1.7.6-2.1.4-.5.9-.7 1.6-.7.2 0 .5 0 .6.1.2.1.4.1.5.2s.3.2.4.2c.1.1.2.1.2.2l.5-1c-.1-.1-.1-.1-.3-.2-.1-.1-.3-.2-.5-.3s-.4-.2-.7-.3-.6-.1-1-.1c-.5 0-1 .1-1.4.3s-.8.4-1.1.8-.5.8-.7 1.4c-.2.5-.2 1.2-.2 2 0 .7.1 1.3.2 1.9.2.5.4 1 .7 1.3s.6.6 1 .8.8.2 1.2.2c.8 0 1.4-.2 1.8-.7.6-.7.9-1.4.9-2.4zm-2.6 1.9c-.5 0-.9-.2-1.2-.6s-.5-1-.5-1.8h3v.2.3c0 .6-.1 1-.3 1.3-.3.4-.6.6-1 .6zm7.9-.8c-.1.1-.3.2-.5.4s-.5.3-.9.3-.6-.1-.8-.3-.3-.4-.3-.6c0-.3.1-.6.3-.8s.4-.4.8-.6l.5-.3c.6-.3 1-.7 1.3-1.1s.5-.9.5-1.5-.2-1.2-.7-1.6c-.4-.4-1.1-.7-1.9-.7-.3 0-.6 0-.9.1-.2.1-.5.1-.7.2s-.3.2-.5.3c-.1.1-.2.2-.3.3l.7 1.1c.1-.1.1-.1.2-.2s.2-.2.3-.3.3-.2.5-.2c.2-.1.4-.1.6-.1.4 0 .7.1.9.3s.3.4.3.7c0 .2 0 .4-.1.5s-.1.3-.2.4-.2.2-.4.3c-.1.1-.3.2-.5.3l-.5.3c-.5.3-.9.7-1.2 1-.3.4-.4.8-.4 1.4 0 .3.1.6.2.8.1.3.3.5.5.7s.5.3.8.4.6.2.9.2.6 0 .8-.1.4-.1.6-.2.3-.2.4-.3.2-.2.3-.2zm6.7-6.5v5.2c0 .7-.1 1.1-.3 1.4s-.5.4-.9.4c-.2 0-.4 0-.6-.1s-.3-.1-.5-.2c-.1-.1-.3-.2-.4-.3s-.2-.2-.3-.3v-6.1h-1.4v8.1h1.3v-.9c.1.1.1.2.3.3.1.1.3.3.4.4s.4.2.6.3.5.1.8.1c.9 0 1.6-.4 2-1.1.1.1.2.2.3.4.1.1.3.2.5.4l.6.3s.5.1.7.1c1.7 0 2.5-1 2.5-2.9v-5.5h-1.3v5.2c0 .7-.1 1.1-.4 1.4-.2.3-.6.4-1.1.4-.4 0-.7-.1-1-.3s-.5-.4-.6-.5c0-.1 0-.3.1-.4 0-.1 0-.3 0-.4v-5.4zm9.1 0h-1.4v8.1h1.4zm-.7 10.1c-.3 0-.5.1-.7.3s-.3.4-.3.7.1.5.3.7.4.3.7.3.5-.1.7-.3.3-.4.3-.7-.1-.5-.3-.7-.4-.3-.7-.3zm7.2-10.1v5.2c0 .7-.1 1.2-.3 1.5s-.6.4-1.1.4c-.4 0-.7-.1-1-.3s-.5-.4-.6-.6v-6.2h-1.4v8.1h1.3v-.9c0 .1.1.2.2.3s.3.3.4.4l.6.3c.2.1.5.1.8.1.4 0 .7-.1 1-.2s.5-.3.7-.5.4-.5.5-.9.2-.8.2-1.4v-5.3zm4.8 0h-1.4v8.1h1.4zm-.6 10.1c-.3 0-.5.1-.7.3s-.3.4-.3.7.1.5.3.7.4.3.7.3.5-.1.7-.3.3-.4.3-.7-.1-.5-.3-.7c-.3-.2-.5-.3-.7-.3zm6.2-3.6c-.1.1-.3.2-.5.4s-.5.3-.9.3-.6-.1-.8-.3-.3-.4-.3-.6c0-.3.1-.6.3-.8s.4-.4.8-.6l.5-.3c.6-.3 1-.7 1.3-1.1s.5-.9.5-1.5-.2-1.2-.7-1.6c-.4-.4-1.1-.7-1.9-.7-.3 0-.6 0-.9.1-.2.1-.5.1-.7.2s-.3.2-.5.3c-.1.1-.2.2-.3.3l.7 1.1.2-.2c.1-.1.2-.2.3-.3s.3-.2.5-.2c.2-.1.4-.1.6-.1.4 0 .7.1.9.3s.3.4.3.7c0 .2 0 .4-.1.5s-.1.3-.2.4-.2.2-.4.3c-.1.1-.3.2-.5.3l-.5.3c-.5.3-.9.7-1.2 1-.3.4-.4.8-.4 1.4 0 .3.1.6.2.8.1.3.3.5.5.7s.5.3.8.4.6.2.9.2.6 0 .8-.1.4-.1.6-.2.3-.2.4-.3.2-.2.3-.2zm6 .6h-1.8v-4.5c0-.6.1-1 .2-1.2s.4-.3.7-.3c.2 0 .4 0 .5.1s.3.1.3.2l.2-1.1c-.1 0-.2-.1-.4-.2s-.5-.1-.9-.1c-.7 0-1.2.2-1.6.6s-.5 1-.5 1.9v4.7h-1v.8l1 .2.2 2.3h1.2v-2.3h2zm6.6-1.7c0-.4 0-.7 0-.9 0-.3 0-.5-.1-.7h-4.2c0-1 .3-1.7.6-2.1.4-.5.9-.7 1.6-.7.2 0 .5 0 .6.1.2.1.4.1.5.2s.3.2.4.2c.1.1.2.1.2.2l.5-1c-.1-.1-.1-.1-.3-.2-.1-.1-.3-.2-.5-.3s-.4-.2-.7-.3-.6-.1-1-.1c-.5 0-1 .1-1.4.3s-.8.4-1.1.8-.5.8-.7 1.4c-.2.5-.2 1.2-.2 2 0 .7.1 1.3.2 1.9.2.5.4 1 .7 1.3s.6.6 1 .8.8.2 1.2.2c.8 0 1.4-.2 1.8-.7.7-.7.9-1.4.9-2.4zm-2.6 1.9c-.5 0-.9-.2-1.2-.6s-.5-1-.5-1.8h3v.2.3c0 .6-.1 1-.3 1.3-.2.4-.5.6-1 .6zm8-.3s-.1.1-.2.1-.3.1-.5.1c-.4 0-.8-.1-1-.3s-.4-.5-.5-.8v-6h-1.4v8.1h1.3v-1.1c.1.2.1.3.2.5s.2.3.3.4.3.2.5.3.4.1.7.1c.2 0 .3 0 .5-.1.1 0 .2-.1.3-.1zm2.8-7h-1.4v8.1h1.4zm-.7 10.1c-.3 0-.5.1-.7.3s-.3.4-.3.7.1.5.3.7.4.3.7.3.5-.1.7-.3.3-.4.3-.7-.1-.5-.3-.7-.4-.3-.7-.3zm8.5-10.1h-1.3v.9c0-.1-.1-.2-.2-.3s-.3-.3-.4-.4c-.2-.1-.4-.2-.6-.3s-.5-.1-.8-.1c-.4 0-.7.1-1 .2s-.5.3-.7.5-.4.5-.5.9-.2.8-.2 1.4v5.3h1.4v-5.2c0-.7.1-1.2.3-1.5s.6-.4 1-.4.7.1 1 .3.5.4.6.6v6.2h1.4zm6.3 0v5.2c0 .7-.1 1.1-.3 1.4s-.5.4-.9.4c-.2 0-.4 0-.6-.1s-.3-.1-.5-.2c-.1-.1-.3-.2-.4-.3s-.2-.2-.3-.3v-6.1h-1.4v8.1h1.3v-.9c.1.1.1.2.3.3.1.1.3.3.4.4l.6.3c.2.1.5.1.8.1.9 0 1.6-.4 2-1.1.1.1.2.2.3.4.1.1.3.2.5.4l.6.3c.2.1.5.1.7.1 1.7 0 2.5-1 2.5-2.9v-5.5h-1.4v5.2c0 .7-.1 1.1-.4 1.4-.2.3-.6.4-1.1.4-.4 0-.7-.1-1-.3s-.5-.4-.6-.5c0-.1 0-.3.1-.4 0-.1 0-.3 0-.4v-5.4zm-106.8-10.1h-1.7v-7h-1.4v7h-1v.9l1 .2v1.6c0 .4.1.8.2 1.1s.3.6.5.8.4.4.7.4c.3.1.6.1.9.1s.5 0 .7-.1.3-.1.4-.2l-.3-1.1c-.1 0-.2.1-.3.1-.1.1-.3.1-.5.1-.3 0-.6-.1-.7-.3-.2-.2-.3-.6-.3-1.1v-1.5h1.8zm7-7h-1.3v.9c0-.1-.1-.2-.2-.3s-.3-.3-.4-.4c-.2-.1-.4-.2-.6-.3s-.5-.1-.8-.1c-.4 0-.7.1-1 .2s-.5.3-.7.5-.4.5-.5.9-.2.8-.2 1.4v5.3h1.4v-5.2c0-.7.1-1.2.3-1.5s.6-.4 1-.4.7.1 1 .3.5.4.6.6v6.2h1.4zm-3.3 10.5c0-.3-.1-.5-.2-.6s-.4-.2-.6-.2-.4.1-.6.2-.2.4-.2.6c0 .3.1.5.2.6s.4.2.6.2.4-.1.6-.2.2-.3.2-.6zm2.6 0c0-.3-.1-.5-.2-.6s-.4-.2-.6-.2-.4.1-.6.2-.2.4-.2.6c0 .3.1.5.2.6s.4.2.6.2.4-.1.6-.2.2-.3.2-.6zm6.4-3.5s-.1.1-.2.1-.3 0-.5 0c-.4 0-.8-.1-1-.3s-.4-.5-.5-.8v-6h-1.4v8.1h1.3v-1c.1.2.1.3.2.5s.2.3.3.4.3.2.5.3.4.1.7.1c.2 0 .3 0 .5-.1.1 0 .2-.1.3-.1zm10.5 3.6h-4.2v-4h3.8v-1.2h-3.8v-4.1h4.6l-.1-1.2h-6v11.7h5.8zm5.7-3.6s-.1.1-.2.1-.3.1-.5.1c-.4 0-.8-.1-1-.3s-.4-.5-.5-.8v-6h-1.4v8.1h1.3v-1.1c.1.2.1.3.2.5s.2.3.3.4.3.2.5.3.4.1.7.1c.2 0 .3 0 .5-.1.1 0 .2-.1.3-.1zm5.8-7v5.2c0 .7-.1 1.2-.3 1.5s-.6.4-1.1.4c-.4 0-.7-.1-1-.3s-.5-.4-.6-.6v-6.3h-1.4v8.1h1.3v-.9c0 .1.1.2.2.3s.3.3.4.4l.6.3c.2.1.5.1.8.1.4 0 .7-.1 1-.2s.5-.3.7-.5.4-.5.5-.9.2-.8.2-1.4v-5.3h-1.3zm3 2.1c0 .5.1.9.3 1.2s.4.6.7.8.7.3 1.1.4.9.1 1.3.1h.4v.8c0 .7-.1 1.2-.4 1.4-.2.3-.6.4-1 .4s-.7-.1-1-.3-.5-.3-.6-.5l-.6.9c.1.1.2.2.3.3s.3.2.5.3.4.2.7.3.6.1.9.1c.8 0 1.5-.2 1.9-.7s.6-1.2.6-2.2v-3.7c0-.4 0-.7 0-1s0-.6.1-.7h-1.3l-.1.9c0-.1-.1-.2-.2-.3s-.2-.2-.3-.4c-.1-.1-.3-.2-.5-.3s-.4-.1-.7-.1-.6.1-.9.2-.5.3-.7.5-.4.4-.5.7zm2.4-1.1c.2 0 .4 0 .5.1s.3.1.4.2.2.2.3.3.1.2.2.2v1.8h-.4c-.7 0-1.2-.1-1.5-.3s-.5-.5-.5-1c0-.4.1-.7.3-.9.1-.3.4-.4.7-.4zm-.3 9.5c0-.3-.1-.5-.2-.6-.2-.2-.4-.2-.6-.2s-.4.1-.6.2c-.2.2-.2.4-.2.6 0 .3.1.5.2.6.2.2.4.2.6.2s.4-.1.6-.2c.1-.1.2-.3.2-.6zm2.6 0c0-.3-.1-.5-.2-.6-.2-.2-.4-.2-.6-.2s-.4.1-.6.2-.2.4-.2.6c0 .3.1.5.2.6s.4.2.6.2.4-.1.6-.2c.1-.1.2-.3.2-.6zm6.9-10.5v5.2c0 .7-.1 1.2-.3 1.5s-.6.4-1.1.4c-.4 0-.7-.1-1-.3s-.5-.4-.6-.6v-6.3h-1.4v12l1.4.2v-4.8c0 .1.1.2.2.3s.2.2.4.3.4.2.6.3.5.1.9.1c.7 0 1.3-.2 1.7-.7s.6-1.2.6-2.3v-5.3zm7.1 7s-.1.1-.2.1-.3.1-.5.1c-.4 0-.8-.1-1-.3s-.4-.5-.5-.8v-6h-1.4v8.1h1.3v-1.1c.1.2.1.3.2.5s.2.3.3.4.3.2.5.3.4.1.7.1c.2 0 .3 0 .5-.1.1 0 .2-.1.3-.1zm7-7h-1.2v.9c0-.1-.1-.2-.2-.3s-.3-.3-.4-.4c-.2-.1-.4-.2-.6-.3s-.5-.1-.8-.1c-.4 0-.7.1-1 .2s-.5.3-.7.5-.4.5-.5.9-.2.8-.2 1.4v5.3h1.4v-5.2c0-.7.1-1.2.3-1.5s.6-.4 1-.4.7.1 1 .3.5.4.6.6v6.2h1.4v-8.1zm6.6 0v5.2c0 .7-.1 1.2-.3 1.5s-.6.4-1.1.4c-.4 0-.7-.1-1-.3s-.5-.4-.6-.6v-6.3h-1.4v8.1h1.3v-.9c0 .1.1.2.2.3s.3.3.4.4c.2.1.4.2.6.3s.5.1.8.1c.4 0 .7-.1 1-.2s.5-.3.7-.5.4-.5.5-.9.2-.8.2-1.4v-5.3h-1.3zm9.2 7.1h-1c.3-.4.4-.9.4-1.5 0-.4-.1-.8-.2-1.2-.1-.3-.3-.6-.6-.9-.3-.2-.6-.4-.9-.5s-.7-.2-1.1-.2c-.1 0-.2 0-.2 0-.1 0-.1 0-.2 0-.1-.1-.3-.1-.4-.3-.1-.1-.2-.3-.2-.5s.1-.3.2-.4.3-.2.6-.2h1c.4 0 .7 0 1.1-.1.3-.1.6-.2.9-.4.2-.2.4-.4.6-.7.1-.3.2-.6.2-1s-.1-.8-.3-1.2-.4-.7-.8-.9c-.3-.3-.8-.5-1.2-.6s-1-.2-1.6-.2c-.9 0-1.5.2-2 .6s-.7.9-.7 1.6c0 .3.1.6.2.8s.2.4.4.6c.1.2.3.3.4.4.2.1.3.2.4.2-.4.3-.5.6-.5 1.1 0 .2 0 .4.1.6s.2.3.3.4.2.2.3.2c.1.1.2.1.2.1-.4.2-.8.5-1 .9-.3.4-.4.9-.4 1.6 0 .5.1.9.2 1.2s.3.6.6.9c.2.2.5.4.9.5.3.1.7.2 1.1.2s.7-.1 1.1-.2h2.5zm-3.8-6.8c-.2 0-.4 0-.6.1-.1-.1-.2-.1-.3-.2s-.2-.2-.3-.3-.1-.2-.2-.4-.1-.3-.1-.5c0-.9.5-1.3 1.4-1.3.8 0 1.4.2 1.8.5s.6.7.6 1.1-.1.7-.4.8c-.2.2-.6.2-1 .2zm1.9 5.3c0 .6-.1 1-.4 1.3-.3.2-.6.4-1 .4s-.7-.1-1-.4c-.3-.2-.4-.7-.4-1.3s.1-1 .4-1.3c.3-.2.6-.4 1-.4s.7.1 1 .4c.2.3.4.8.4 1.3zm-75.1-22.7h-1.3v.9c0-.1-.1-.2-.2-.3s-.3-.3-.4-.4c-.2-.1-.4-.2-.6-.3s-.5-.1-.8-.1c-.4 0-.7.1-1 .2s-.5.3-.7.5-.4.5-.5.9-.2.8-.2 1.4v5.4h1.4v-5.2c0-.7.1-1.2.3-1.5s.6-.4 1-.4.7.1 1 .3.5.4.6.6v6.2h1.4zm6.6 0v5.2c0 .7-.1 1.2-.3 1.5-.3.3-.6.5-1.1.5-.4 0-.7-.1-1-.3s-.5-.4-.6-.6v-6.3h-1.4v8.2h1.3v-1c0 .1.1.2.2.3s.3.3.4.4l.6.3c.2.1.5.1.8.1.4 0 .7-.1 1-.2s.5-.3.7-.5.4-.5.5-.9.2-.8.2-1.4v-5.3zm3.1 4c0 .8.1 1.5.3 2.1s.5 1 .8 1.3.7.6 1.2.7c.4.1.9.2 1.3.2.3 0 .5 0 .7-.1.2 0 .4-.1.5-.1v3.9l1.4.2v-12.2h-1.3v.9c0-.1-.1-.2-.2-.3s-.2-.2-.4-.4c-.2-.1-.4-.2-.6-.3s-.5-.1-.8-.1c-.4 0-.7.1-1.1.2-.3.2-.6.4-.9.7s-.5.8-.6 1.3c-.3.6-.3 1.2-.3 2zm3.2-3c.2 0 .4 0 .6.1s.3.1.4.2.2.2.3.3.1.2.2.2v5c-.1.1-.3.1-.4.2-.2.1-.4.1-.6.1-.3 0-.6-.1-.9-.2s-.5-.3-.7-.5-.4-.6-.5-1-.2-.9-.2-1.5 0-1 .1-1.4.2-.7.4-.9.4-.4.6-.5c.2 0 .4-.1.7-.1zm10.3 10.7v-10.5h4.3l-.1-1.2h-5.6v11.7zm5.1-9.6c0 .5.1.9.3 1.2s.4.6.7.8.7.3 1.1.4.9.1 1.3.1h.4v.8c0 .7-.1 1.2-.4 1.4-.2.3-.6.4-1 .4s-.7-.1-1-.3-.5-.3-.6-.5l-.6.9c.1.1.2.2.3.3s.3.2.5.3.4.2.7.3.6.1.9.1c.8 0 1.5-.2 1.9-.7s.6-1.2.6-2.2v-3.7c0-.4 0-.7 0-1s0-.6.1-.7h-1.3l-.1.9c0-.1-.1-.2-.2-.3s-.2-.2-.3-.4c-.1-.1-.3-.2-.5-.3s-.4-.1-.7-.1-.6.1-.9.2-.5.3-.7.5-.4.4-.5.7c.1.3 0 .6 0 .9zm2.5-1.1c.2 0 .4 0 .5.1s.3.1.4.2.2.2.3.3.1.2.2.2v1.8h-.4c-.7 0-1.2-.1-1.5-.3s-.5-.5-.5-1c0-.4.1-.7.3-.9.1-.3.3-.4.7-.4zm9.2-1v5.2c0 .7-.1 1.2-.3 1.5s-.6.4-1.1.4c-.4 0-.7-.1-1-.3s-.5-.4-.6-.6v-6.3h-1.4v8.3h1.3v-1c0 .1.1.2.2.3s.3.3.4.4l.6.3c.2.1.5.1.8.1.4 0 .7-.1 1-.2s.5-.3.7-.5.4-.5.5-.9.2-.8.2-1.4v-5.3zm3 4c0 .8.1 1.5.3 2.1s.5 1 .8 1.3.7.6 1.2.7c.4.1.9.2 1.3.2.3 0 .5 0 .7-.1.2 0 .4-.1.5-.1v3.9l1.4.2v-12.2h-1.3v.9c0-.1-.1-.2-.2-.3s-.2-.2-.4-.4c-.2-.1-.4-.2-.6-.3s-.5-.1-.8-.1c-.4 0-.7.1-1.1.2-.3.2-.6.4-.9.7s-.5.8-.6 1.3c-.2.6-.3 1.2-.3 2zm3.3-3c.2 0 .4 0 .6.1s.3.1.4.2.2.2.3.3.1.2.2.2v5c-.1.1-.3.1-.4.2-.2.1-.4.1-.6.1-.3 0-.6-.1-.9-.2s-.5-.3-.7-.5-.4-.6-.5-1-.2-.9-.2-1.5 0-1 .1-1.4.2-.7.4-.9.4-.4.6-.5c.2 0 .4-.1.7-.1zm14.4 7.2-2.5-8.1h-1.2l-.8 2.9c-.1.4-.2.8-.3 1.1-.1.4-.1.7-.2 1 0-.3-.1-.7-.2-1-.1-.4-.2-.7-.4-1.1l-.9-2.8h-1.2l-2.6 8.1h1.5l1.2-4.6c.1-.4.2-.8.3-1.2s.1-.7.1-1c0 .3.1.7.2 1 .1.4.2.7.4 1.2l.9 2.5-.6 2h1.4l1.2-4.5c.1-.5.2-.9.3-1.3s.2-.8.2-1.1c0 .3.1.6.2 1.1.1.4.2.8.3 1.3l1.2 4.5zm2.6-8.2h-1.4v8.2h1.4zm-.7 10.1c-.3 0-.5.1-.7.3s-.3.4-.3.7.1.5.3.7.4.3.7.3.5-.1.7-.3.3-.4.3-.7-.1-.5-.3-.7-.4-.3-.7-.3zm6.4-3.1s-.1.1-.2.1-.3.1-.5.1c-.4 0-.8-.1-1-.3s-.4-.5-.5-.8v-6h-1.4v8.1h1.3v-1.1c.1.2.1.3.2.5s.2.3.3.4.3.2.5.3.4.1.7.1c.2 0 .3 0 .5-.1.1 0 .2-.1.3-.1zm4.8 0h-1.8v-4.5c0-.6.1-1 .2-1.2s.4-.3.7-.3c.2 0 .4 0 .5.1s.3.1.3.2l.3-1.1c-.1 0-.2-.1-.4-.2s-.5-.1-.9-.1c-.7 0-1.2.2-1.6.6s-.5 1-.5 1.9v4.7h-1v.9l1 .2.2 2.3h1.2v-2.3h2zm5.1-.5c-.1.1-.3.2-.5.4s-.5.3-.9.3-.6-.1-.8-.3-.3-.4-.3-.6c0-.3.1-.6.3-.8s.4-.4.8-.6l.5-.3c.6-.3 1-.7 1.3-1.1s.5-.9.5-1.5-.2-1.2-.7-1.6c-.4-.4-1.1-.7-1.9-.7-.3 0-.6 0-.9.1-.2.1-.5.1-.7.2s-.3.2-.5.3c-.1.1-.2.2-.3.3l.7 1.1c.1-.1.1-.1.2-.2s.2-.2.3-.3.3-.2.5-.2c.2-.1.4-.1.6-.1.4 0 .7.1.9.3s.3.4.3.7c0 .2 0 .4-.1.5s-.1.3-.2.4-.2.2-.4.3c-.1.1-.3.2-.5.3l-.5.3c-.5.3-.9.7-1.2 1-.3.4-.4.8-.4 1.4 0 .3.1.6.2.8.1.3.3.5.5.7s.5.3.8.4.6.2.9.2.6 0 .8-.1.4-.1.6-.2.3-.2.4-.3.2-.2.3-.2zm6.9.1s-.1.1-.2.2-.2.1-.3.2-.2.1-.4.2-.3.1-.5.1c-.3 0-.6-.1-.8-.2-.3-.1-.5-.3-.7-.5s-.3-.5-.4-.9-.2-.8-.2-1.4 0-1.1.1-1.5.2-.7.4-1c.2-.2.4-.4.6-.5s.5-.2.8-.2c.4 0 .7.1 1 .2.2.1.4.3.5.4l.6-1c-.1-.1-.1-.1-.2-.2s-.2-.2-.4-.3-.4-.2-.6-.2c-.2-.1-.5-.1-.8-.1-.5 0-.9.1-1.3.2s-.7.4-1 .7-.5.8-.7 1.3-.3 1.2-.3 2 .1 1.4.3 2c.2.5.5 1 .8 1.3s.7.6 1.1.7c.4.2.8.2 1.2.2.3 0 .6 0 .8-.1s.4-.1.6-.2.3-.2.4-.3.2-.2.3-.2zm6.5-6.6v5.2c0 .7-.1 1.2-.3 1.5s-.6.4-1.1.4c-.4 0-.7-.1-1-.3s-.5-.4-.6-.6v-6.3h-1.4v12l1.4.2v-4.8c0 .1.1.2.2.3s.2.2.4.3.4.2.6.3.5.1.9.1c.7 0 1.3-.2 1.7-.7s.6-1.2.6-2.3v-5.3zm3 2.1c0 .5.1.9.3 1.2s.4.6.7.8.7.3 1.1.4.9.1 1.3.1h.4v.8c0 .7-.1 1.2-.4 1.4-.2.3-.6.4-1 .4s-.7-.1-1-.3-.5-.3-.6-.5l-.6.9c.1.1.2.2.3.3s.3.2.5.3.4.2.7.3.6.1.9.1c.8 0 1.5-.2 1.9-.7s.6-1.2.6-2.2v-3.7c0-.4 0-.7 0-1s0-.6.1-.7h-1.3l-.1.9c0-.1-.1-.2-.2-.3s-.2-.2-.3-.4c-.1-.1-.3-.2-.5-.3s-.4-.1-.7-.1-.6.1-.9.2-.5.3-.7.5-.4.4-.5.7zm2.4-1.1c.2 0 .4 0 .5.1s.3.1.4.2.2.2.3.3.1.2.2.2v1.8h-.4c-.7 0-1.2-.1-1.5-.3s-.5-.5-.5-1c0-.4.1-.7.3-.9.1-.3.4-.4.7-.4zm8.2 6h-1.7v-7h-1.4v7h-1v.9l1 .2v1.6c0 .4.1.8.2 1.1s.3.6.5.8.4.4.7.4c.3.1.6.1.9.1s.5 0 .7-.1.3-.1.4-.2l-.3-1.1c-.1 0-.2.1-.3.1-.1.1-.3.1-.5.1-.3 0-.6-.1-.7-.3-.2-.2-.3-.6-.3-1.1v-1.3h1.8zm4.9 0h-1.8v-4.5c0-.6.1-1 .2-1.2s.4-.3.7-.3c.2 0 .4 0 .5.1s.3.1.3.2l.3-1.1c-.1 0-.2-.1-.4-.2s-.5-.1-.9-.1c-.7 0-1.2.2-1.6.6s-.5 1-.5 1.9v4.7h-1v.9l1 .2.2 2.3h1.2v-2.3h2z" transform="matrix(1 0 0 -1 0 104)"/><path d="m46.2 32c0-.3.1-.6.1-1 0-.2 0-.4 0-.6 2.8 0 5.3-2.1 5.3-4.4 0-1.2-.8-2.1-1.2-2.6.1 0 .2 0 .3-.1.4.4 1.6 1.6 1.6 3.3-.1 2.7-2.9 5.4-6.1 5.4m-2.9-9.8c-.1-.3-.2-.6-.4-.8 0-.3.1-.6.6-.3-.3.3-.1.7-.1.7s.5-.2.4-.6c.9.1.3 1.1-.5 1m-.6 1.4c-.1-.4-.3-.9-.6-1.2s-.7-.6-1.2-.6c-.3 0-.7.1-1 .2-.1-.2-.3-.6-.3-.8s.3-.4 1-.4c1.5 0 2.3.7 2.3 1.8.1.4-.1.7-.2 1m3.7 19c.2 0 .3 0 .4.1.4 1.2 2.1 3.3 2.1 3.4.4-.1 1.4-.2 2.3-.2.1 0 .2 0 .3.1s.1.2.1.3c0 .2-.1.6-.2.7-.3-.3-.8-.5-1.6-.5-.2 0-.5.1-.7.1h-.1-.1l.4.4c.7.7 1.3 1.3 1.3 1.7 0 .2-.2.6-.4.7 0-.7-.8-1.7-1.5-2.2h-.1v.3.7c0 1.4-.1 1.6-.6 1.6-.1 0-.2 0-.3 0 .3-.3.4-.8.4-1.6v-.4-.3c0-.3 0-.6.1-.7v-.1h-.1c-.2 0-.6-.1-1-.1-.7 0-1.2.1-1.5.4-.2-.2-.5-.5-.5-.7 0-.3.2-.3.4-.3h.4c.3 0 .7.1 1.7.1h.1v-.1c-.2-.7-.9-1.6-1.9-2.9.2-.3.3-.5.6-.5m-8.8 3.4c1 .1 1.4 0 1.7-.1h.4c.2 0 .4 0 .4.3 0 .2-.2.5-.4.7-.3-.3-.8-.4-1.5-.4-.3 0-.7.1-1 .1v.1c0 .2.1.4.1.7v.3.4c0 .8.1 1.2.4 1.6-.1 0-.2 0-.3 0-.5 0-.6-.2-.6-1.6 0-.3 0-.5 0-.7v-.3h-.1c-.7.5-1.5 1.5-1.5 2.2-.2-.1-.4-.5-.4-.7 0-.4.6-1 1.3-1.7l.4-.4.1-.1h-.1c-.1 0-.4-.1-.7-.1-.8 0-1.3.1-1.6.5-.1-.2-.2-.5-.2-.7 0-.1 0-.2.1-.3s.2-.1.3-.1c.9 0 1.9.2 2.3.2.1-.1 1.7-2.3 2.1-3.4.1 0 .2-.1.4-.1.3 0 .4.2.5.5-1.2 1.5-1.8 2.5-2.1 3.1m-4.4-19.5c0-1.6 1.2-2.9 1.6-3.3.1 0 .2 0 .3.1-.4.5-1.2 1.4-1.2 2.6 0 2.4 2.5 4.4 5.4 4.4v.6c0 .4 0 .7.1 1-3.3.1-6.2-2.5-6.2-5.4m21.9 5c1.5 2.3 2.6 2.3 4.3 2.3-1.4-1.1-2.4-2.5-2.8-3.2l-2.7-4.3c-.3-1.3-.9-2.5-2-3.5.3-.1.6-.3.8-.4-1.7 0-3.5-.9-4.4-.9-.6 0-1 .4-1 .8 0 .5.6 1.1 1.6 1.1.2 0 .5 0 .9-.1.6.8 1 1.5 1 2.5 0 1.9-2.2 3.3-4.5 3.3-.1 0-.2 0-.4 0-.2-.4-.9-1.1-.9-2 0-1.5 1-2.7 1-4.2 0-.9-.4-1.5-.6-1.7.3-.3.6-.6.7-.8-.2.1-.4.1-.6.1-1.1 0-2-.3-2.8-.3-.5 0-.6.2-.6.3v.1c-.2-.1-.4-.1-.6-.2-.3 0-.5-.1-.8-.1-1 0-1.4.4-1.4.8 0 .3.2.9.5 1.3.4-.2.9-.3 1.1-.3.6 0 1 .5 1.3 1.2-.4 0-.4.1-.8.1-1 0-1.7-.4-1.9-.4 0 .1.3.5.9.7.7.3 1.9.4 2.1.4 0 0-.2.4-.4.5h-.1c-.8-.2-1-.2-2-.6 0 .4 1 1.3 1.9 1.6-.8 1-1.7 2-2.2 3.5-.1 0-.2 0-.4 0-2.3 0-4.5-1.5-4.5-3.3 0-1 .4-1.7 1-2.5.3.1.6.1.9.1 1 0 1.6-.5 1.6-1.1 0-.5-.4-.8-1-.8-.9 0-2.7.9-4.4.9.2.1.5.3.8.4-1 .9-1.7 2.1-2 3.5l-2.7 4.3c-.4.7-1.4 2.1-2.8 3.2 1.7 0 2.9 0 4.3-2.3l1.4-2.2c.1.3.2.6.4.8l-2.7 4.3c-.5.7-1.4 2.1-2.8 3.2 1.7 0 2.9 0 4.3-2.3l2.3-3.7c.2.2.4.4.6.5l-3.3 5.3c-.5.7-1.4 2.1-2.8 3.2 1.7 0 2.9 0 4.3-2.3l3.2-5.2c.2.1.4.3.7.4l-4.1 6.5c-.5.7-1.4 2.1-2.8 3.2 1.7 0 2.9 0 4.3-2.3l4-6.5c.2.1.5.2.7.3l-4.6 7.3c-.4.7-1.4 2.1-2.8 3.2 1.7 0 2.9 0 4.3-2.3l4.9-7.8h.1c.1.4.2.8.2 1.2 0 2.5-1.6 4.6-3.5 6.3.1.1.3.1.5.1.4 0 .7 0 .8-.1-.4 1-1.4 2.3-1.9 3-.6-.1-1.6-.2-2.2-.2s-.7.4-.7.7c0 .6.3 1 .6 1.3.1-.3.4-.7 1.5-.7h.1c-.3.4-1.4 1.2-1.4 1.9 0 .5.5 1.1 1.2 1.1 0-.1 0-.3 0-.4 0-.6.5-1.2.9-1.7v.3c0 1.3.1 1.9 1 1.9.4 0 .7-.2.8-.3-.5-.5-.6-.9-.6-1.6 0-.2 0-.4 0-.6s0-.4 0-.6h.7s1.2-.1 1.5.5c.3-.3.8-.7.8-1.2 0-.3-.1-.7-.8-.7-.2 0-1 .1-1.6.1.2-.4.9-1.4 1.5-2.2.1.3.2.6.6.9 0-.5.3-2.1 1.1-3 .1.6.2 1.3.2 2.6 0 3.3-.8 5.7-2.5 6.2.2.4.7.7 1.2.7.6 0 1-.7 1.3-1.4.2.5.7 1.7 1.2 1.7s1-1.2 1.2-1.7c.3.7.7 1.4 1.3 1.4.5 0 .9-.3 1.2-.7-1.7-.5-2.5-2.9-2.5-6.2 0-1.4.1-2 .2-2.6.8.9 1.1 2.5 1.1 3 .3-.3.5-.6.6-.9.6.8 1.4 1.9 1.5 2.2-.6 0-1.4-.1-1.6-.1-.6 0-.8.3-.8.7 0 .5.5.9.8 1.2.3-.6 1.5-.5 1.5-.5h.7v.6.6c0 .7 0 1.1-.6 1.6.1.1.4.3.8.3.8 0 1-.6 1-1.9 0-.2 0-.1 0-.3.4.5.9 1.1.9 1.7v.4c.7 0 1.2-.7 1.2-1.1 0-.7-1.1-1.6-1.4-1.9h.1c1.2 0 1.4.4 1.5.7.3-.3.6-.7.6-1.3 0-.3-.1-.7-.7-.7s-1.5.1-2.2.2c-.5-.7-1.4-2-1.9-3 .2 0 .4.1.8.1.2 0 .4 0 .5-.1-1.8-1.6-3.4-3.7-3.4-6.2 0-.4.1-.8.2-1.2h.1l4.9 7.8c1.5 2.3 2.6 2.3 4.3 2.3-1.4-1.1-2.4-2.5-2.8-3.2l-4.6-7.3c.2-.1.5-.2.7-.3l4 6.5c1.5 2.3 2.6 2.3 4.3 2.3-1.4-1.1-2.4-2.5-2.8-3.2l-3.9-6.3c.2-.1.4-.3.7-.4l3.2 5.2c1.5 2.3 2.6 2.3 4.3 2.3-1.4-1.1-2.4-2.5-2.8-3.2l-3.3-5.3c.2-.2.4-.4.6-.5l2.3 3.7c1.5 2.3 2.6 2.3 4.3 2.3-1.4-1.1-2.4-2.5-2.8-3.2l-2.7-4.3c.1-.3.3-.5.4-.8z"/><path d="m73 50.1h-5v-28.5h5z"/><path d="m73 78.6h-5v-28.5h5z" fill="#f00"/><path d="m73 107.1h-5v-28.5h5z" fill="#fc0"/></svg>