<?xml version="1.0" encoding="utf-8"?>
<!-- Generator: Adobe Illustrator 25.4.1, SVG Export Plug-In . SVG Version: 6.00 Build 0)  -->
<svg version="1.1" id="Ebene_1" xmlns="http://www.w3.org/2000/svg" xmlns:xlink="http://www.w3.org/1999/xlink" x="0px" y="0px"
	 viewBox="0 0 315 129" style="enable-background:new 0 0 315 129;" xml:space="preserve">
<style type="text/css">
	.st0{fill:#FFFFFF;}
	.st1{fill:#FF0000;}
	.st2{fill:#FFCC00;}
</style>
<g>
	<path class="st0" d="M86.9,25.8c0.4-0.4,0.6-0.9,0.6-1.6c0-0.5-0.2-1-0.6-1.3c-0.4-0.4-1-0.5-1.8-0.5h-0.8v4h0.8
		C85.9,26.4,86.5,26.2,86.9,25.8z"/>
	<path class="st0" d="M145,42.9c-0.3,0-0.6,0.1-0.9,0.2c-0.3,0.1-0.5,0.3-0.7,0.5s-0.4,0.6-0.5,1c-0.1,0.4-0.2,0.9-0.2,1.5
		c0,0.6,0,1,0.1,1.4c0.1,0.4,0.2,0.7,0.4,0.9c0.2,0.2,0.4,0.4,0.6,0.5c0.3,0.1,0.5,0.1,0.7,0.1s0.4,0,0.6-0.1
		c0.2-0.1,0.3-0.1,0.4-0.2c0.1-0.1,0.2-0.2,0.3-0.3c0.1-0.1,0.2-0.2,0.2-0.2v-5c-0.1-0.1-0.3-0.1-0.4-0.2
		C145.4,42.9,145.2,42.9,145,42.9z"/>
	<path class="st0" d="M118.7,27.8c0-0.1,0-0.2,0-0.3c0-0.6-0.1-1-0.3-1.3c-0.2-0.4-0.6-0.6-1-0.6c-0.5,0-0.9,0.2-1.2,0.6
		c-0.3,0.4-0.5,1-0.5,1.8h3C118.7,27.9,118.7,27.9,118.7,27.8z"/>
	<path class="st0" d="M110.2,25.7c-0.3,0-0.6,0.1-0.9,0.2c-0.3,0.1-0.5,0.3-0.7,0.5c-0.2,0.2-0.4,0.6-0.5,1
		c-0.1,0.4-0.2,0.9-0.2,1.5c0,0.6,0,1,0.1,1.4c0.1,0.4,0.2,0.7,0.4,0.9c0.2,0.2,0.4,0.4,0.6,0.5c0.3,0.1,0.5,0.1,0.7,0.1
		s0.4,0,0.6-0.1c0.2-0.1,0.3-0.1,0.4-0.2c0.1-0.1,0.2-0.2,0.3-0.3c0.1-0.1,0.2-0.2,0.2-0.2v-5c-0.1-0.1-0.3-0.1-0.4-0.2
		C110.6,25.7,110.4,25.7,110.2,25.7z"/>
	<path class="st0" d="M116.9,45c0-0.1,0-0.2,0-0.3c0-0.6-0.1-1-0.3-1.3c-0.3-0.5-0.6-0.6-1-0.6c-0.5,0-0.9,0.2-1.2,0.6
		c-0.3,0.4-0.5,1-0.5,1.8h3C116.9,45.1,116.9,45.1,116.9,45z"/>
	<path class="st0" d="M85.4,27.5h-1v4.1h0.9c0.9,0,1.5-0.2,1.9-0.5c0.4-0.3,0.6-0.8,0.6-1.5c0-0.6-0.2-1.1-0.6-1.5
		C86.8,27.7,86.2,27.5,85.4,27.5z"/>
	<path class="st0" d="M38.4,30.3c-2.9,0-5.4-2.1-5.4-4.5c0-1.2,0.8-2.1,1.2-2.6c-0.1-0.1-0.2-0.1-0.3-0.1c-0.4,0.4-1.6,1.7-1.6,3.3
		c0,2.9,2.9,5.5,6.2,5.5c-0.1-0.3-0.1-0.6-0.1-1C38.4,30.7,38.4,30.5,38.4,30.3z"/>
	<path class="st0" d="M43,21.1c0.1,0.4-0.4,0.6-0.4,0.6s-0.2-0.4,0.1-0.7c-0.5-0.3-0.6,0-0.6,0.3c0.2,0.2,0.3,0.5,0.4,0.8
		C43.3,22.2,43.8,21.2,43,21.1z"/>
	<path class="st0" d="M38.2,42.5c-0.2,0-0.3,0.1-0.4,0.1c-0.4,1.1-2,3.3-2.1,3.4c-0.4,0-1.4-0.2-2.3-0.2c-0.1,0-0.2,0-0.3,0.1
		C33,46,33,46.1,33,46.2c0,0.2,0.1,0.5,0.2,0.7c0.3-0.4,0.8-0.5,1.6-0.5c0.3,0,0.5,0.1,0.7,0.1h0.1l-0.1,0.1L35.1,47
		c-0.7,0.7-1.3,1.3-1.3,1.7c0,0.2,0.3,0.6,0.5,0.7c0-0.8,0.8-1.8,1.5-2.3h0.1v0.3c0,0.2,0,0.4,0,0.7c0,1.4,0.1,1.6,0.6,1.6
		c0.1,0,0.2,0,0.3,0c-0.3-0.4-0.4-0.8-0.4-1.6v-0.4v-0.3c0-0.3-0.1-0.5-0.1-0.7v-0.1c0.3,0,0.7-0.1,1-0.1c0.7,0,1.2,0.1,1.5,0.4
		c0.3-0.2,0.5-0.5,0.5-0.7c0-0.3-0.2-0.3-0.4-0.3c-0.1,0-0.2,0-0.4,0c-0.3,0.1-0.7,0.2-1.7,0.1c0.2-0.7,0.8-1.7,1.9-2.9
		C38.6,42.7,38.5,42.5,38.2,42.5z"/>
	<path class="st0" d="M47,46L47,46c-1.1,0-1.5-0.1-1.8-0.1c-0.2,0-0.3,0-0.4,0c-0.2,0-0.4,0-0.4,0.3c0,0.2,0.3,0.5,0.5,0.7
		c0.3-0.3,0.8-0.4,1.5-0.4c0.4,0,0.8,0.1,1,0.1h0.1v0.1c-0.1,0.1-0.1,0.4-0.1,0.7v0.3v0.4c0,0.8-0.1,1.3-0.4,1.6c0.1,0,0.2,0,0.3,0
		c0.5,0,0.6-0.2,0.6-1.6c0-0.3,0-0.5,0-0.7v-0.3H48c0.7,0.6,1.5,1.6,1.5,2.3c0.2-0.1,0.4-0.5,0.4-0.7c0-0.4-0.6-1-1.3-1.7l-0.5-0.5
		h0.1h0.1c0.2,0,0.5-0.1,0.7-0.1c0.8,0,1.3,0.2,1.6,0.5c0.1-0.1,0.2-0.5,0.2-0.7c0-0.1,0-0.2-0.1-0.3c-0.1-0.1-0.2-0.1-0.3-0.1
		c-0.9,0-1.9,0.1-2.3,0.2c0-0.1-1.7-2.2-2.1-3.4c-0.1-0.1-0.2-0.1-0.4-0.1c-0.3,0-0.4,0.2-0.5,0.5c1,1.3,1.7,2.2,1.9,2.9V46z"/>
	<path class="st0" d="M39.7,20.6c-0.6,0-1,0.2-1,0.4s0.2,0.6,0.3,0.8c0.3-0.1,0.7-0.2,1-0.2c0.5,0,0.9,0.4,1.2,0.7s0.5,0.8,0.6,1.2
		c0.1-0.3,0.3-0.7,0.3-1.1C42.1,21.3,41.2,20.6,39.7,20.6z"/>
	<path class="st0" d="M49.5,23.2c0.4,0.5,1.2,1.4,1.2,2.6c0,2.4-2.5,4.5-5.3,4.5c0,0.2,0,0.4,0,0.6c0,0.3-0.1,0.7-0.1,1
		c3.3,0,6.1-2.7,6.1-5.5c0-1.6-1.2-2.9-1.6-3.3C49.7,23.2,49.6,23.2,49.5,23.2z"/>
	<path class="st0" d="M0,0v129h315V0H0z M151.2,21c0.2-0.2,0.4-0.3,0.7-0.3c0.3,0,0.5,0.1,0.7,0.3c0.2,0.2,0.3,0.4,0.3,0.7
		c0,0.3-0.1,0.5-0.3,0.7c-0.2,0.2-0.4,0.3-0.7,0.3c-0.3,0-0.5-0.1-0.7-0.3c-0.2-0.2-0.3-0.4-0.3-0.7C150.9,21.4,151,21.2,151.2,21z
		 M152.6,24.7v8.2h-1.4v-8.2H152.6z M90.9,38.9c0.2-0.2,0.4-0.2,0.6-0.2s0.4,0.1,0.6,0.2c0.2,0.1,0.2,0.3,0.2,0.6s-0.1,0.5-0.2,0.6
		c-0.2,0.2-0.4,0.2-0.6,0.2s-0.4-0.1-0.6-0.2c-0.2-0.2-0.2-0.4-0.2-0.6C90.7,39.2,90.8,39,90.9,38.9z M89.7,39.5
		c0,0.3-0.1,0.5-0.2,0.6c-0.1,0.1-0.4,0.2-0.6,0.2c-0.2,0-0.4-0.1-0.6-0.2c-0.2-0.2-0.2-0.4-0.2-0.6c0-0.3,0.1-0.5,0.2-0.6
		c0.2-0.2,0.4-0.2,0.6-0.2c0.2,0,0.4,0.1,0.6,0.2C89.6,39,89.7,39.2,89.7,39.5z M55.1,34.7c0.4,0.7,1.4,2.1,2.8,3.2
		c-1.7,0-2.8,0-4.3-2.3l-2.3-3.8c-0.2,0.1-0.4,0.3-0.6,0.5l3.3,5.3c0.4,0.7,1.4,2.1,2.8,3.2c-1.7,0-2.8,0-4.3-2.3l-3.2-5.2
		c-0.3,0.1-0.5,0.3-0.7,0.4l3.9,6.3c0.4,0.7,1.4,2.1,2.8,3.2c-1.7,0-2.8,0-4.3-2.3l-4.1-6.5c-0.2,0.1-0.5,0.2-0.7,0.3l4.6,7.3
		c0.4,0.7,1.4,2.1,2.8,3.2c-1.7,0-2.8,0-4.3-2.3l-4.9-7.8h-0.1c-0.1,0.4-0.2,0.8-0.2,1.2c0,2.5,1.6,4.6,3.5,6.3
		c-0.1,0.1-0.3,0.1-0.5,0.1c-0.4,0-0.6-0.1-0.8-0.1c0.5,1,1.4,2.3,1.9,3c0.7-0.1,1.6-0.2,2.2-0.2c0.6,0,0.7,0.4,0.7,0.7
		c0,0.6-0.3,1-0.6,1.3c-0.1-0.3-0.3-0.7-1.5-0.7c0,0,0,0-0.1,0c0.3,0.3,1.4,1.2,1.4,1.9c0,0.5-0.5,1.2-1.2,1.2c0-0.2,0-0.3,0-0.4
		c0-0.6-0.5-1.2-0.9-1.7c0,0.2,0,0.1,0,0.3c0,1.3-0.2,1.9-1,1.9c-0.4,0-0.7-0.2-0.8-0.3C47,49.1,47,48.7,47,48c0-0.1,0-0.3,0-0.6
		c0-0.2,0-0.4,0-0.6c-0.3,0-0.5,0-0.7,0c0,0-1.2-0.1-1.5,0.5C44.5,47,44,46.6,44,46.1c0-0.4,0.2-0.7,0.8-0.7c0.2,0,1,0.1,1.6,0.1
		c-0.1-0.3-0.9-1.4-1.5-2.2c-0.1,0.3-0.3,0.6-0.6,0.9c0-0.5-0.3-2.1-1.1-3c-0.1,0.6-0.2,1.2-0.2,2.6c0,3.3,0.8,5.7,2.5,6.2
		c-0.3,0.4-0.7,0.7-1.2,0.7c-0.6,0-1-0.7-1.3-1.4c-0.2,0.5-0.7,1.7-1.2,1.7s-1-1.2-1.2-1.7c-0.3,0.7-0.7,1.4-1.3,1.4
		c-0.5,0-1-0.3-1.2-0.7c1.7-0.4,2.5-2.9,2.5-6.2c0-1.3-0.1-2-0.2-2.6c-0.8,0.9-1.1,2.5-1.1,3c-0.4-0.3-0.5-0.6-0.6-0.9
		c-0.6,0.8-1.3,1.8-1.5,2.2c0.6,0,1.4-0.1,1.6-0.1c0.7,0,0.8,0.4,0.8,0.7c0,0.5-0.5,0.9-0.8,1.2c-0.3-0.6-1.5-0.5-1.5-0.5
		c-0.3,0-0.4,0-0.7,0c0,0.2,0,0.4,0,0.6c0,0.2,0,0.4,0,0.6c0,0.7,0.1,1.1,0.6,1.6c-0.1,0.1-0.4,0.3-0.8,0.3c-0.9,0-1-0.6-1-1.9
		c0-0.2,0-0.2,0-0.3c-0.4,0.5-0.9,1.1-0.9,1.7c0,0.1,0,0.3,0,0.4c-0.7,0-1.2-0.7-1.2-1.2c0-0.7,1.1-1.5,1.4-1.9h-0.1
		c-1.1,0-1.4,0.4-1.5,0.7c-0.3-0.3-0.6-0.7-0.6-1.3c0-0.3,0.1-0.7,0.7-0.7c0.6,0,1.6,0.1,2.2,0.2c0.5-0.7,1.5-2,1.9-3
		c-0.1,0.1-0.4,0.1-0.8,0.1c-0.2,0-0.4,0-0.5-0.1c1.9-1.7,3.5-3.8,3.5-6.3c0-0.4-0.1-0.8-0.2-1.2c0,0,0,0-0.1,0l-4.9,7.8
		c-1.4,2.3-2.6,2.3-4.3,2.3c1.4-1.1,2.4-2.5,2.8-3.2l4.7-7.6c-0.2-0.1-0.5-0.2-0.7-0.3l-4.1,6.5c-1.4,2.3-2.6,2.3-4.3,2.3
		c1.4-1.1,2.3-2.5,2.8-3.2l3.9-6.3c-0.3-0.1-0.5-0.3-0.7-0.4l-3.2,5.2c-1.4,2.3-2.6,2.3-4.3,2.3c1.4-1.1,2.3-2.5,2.8-3.2L33,32
		c-0.2-0.1-0.4-0.3-0.6-0.5l-2.3,3.8c-1.4,2.3-2.6,2.3-4.3,2.3c1.4-1.1,2.3-2.5,2.8-3.2l2.7-4.4c-0.2-0.2-0.3-0.5-0.4-0.8l-1.4,2.2
		c-1.4,2.3-2.6,2.3-4.3,2.3c1.4-1.1,2.3-2.5,2.8-3.2l2.8-4.4c0.3-1.3,1-2.6,2-3.5c-0.3-0.1-0.6-0.3-0.8-0.4c1.7,0,3.4-0.9,4.4-0.9
		c0.6,0,1,0.3,1,0.8c0,0.6-0.6,1.1-1.6,1.1c-0.3,0-0.6,0-0.9-0.1c-0.6,0.8-1,1.5-1,2.5c0,1.8,2.2,3.3,4.5,3.3c0.1,0,0.3,0,0.4,0
		c0.5-1.5,1.4-2.5,2.2-3.5c-0.9-0.3-1.9-1.2-1.9-1.6c1,0.4,1.2,0.4,2,0.6h0.1c0.2-0.1,0.4-0.5,0.4-0.5c-0.2,0-1.3-0.1-2.1-0.4
		c-0.6-0.2-0.9-0.6-0.9-0.7c0.2,0,0.9,0.4,1.9,0.4c0.4,0,0.4-0.1,0.8-0.1c-0.3-0.7-0.7-1.2-1.3-1.2c-0.2,0-0.7,0.1-1.1,0.3
		c-0.2-0.4-0.5-1-0.5-1.3c0-0.4,0.4-0.8,1.4-0.8c0.3,0,0.5,0.1,0.8,0.1c0.2,0.1,0.4,0.1,0.6,0.2c0,0,0,0,0-0.1s0.1-0.3,0.6-0.3
		c0.8,0,1.7,0.3,2.8,0.3c0.2,0,0.4,0,0.6-0.1c-0.1,0.2-0.4,0.5-0.7,0.8c0.2,0.2,0.6,0.8,0.6,1.7c0,1.5-1,2.7-1,4.2
		c0,0.9,0.7,1.6,0.9,2.1c0.1,0,0.3,0,0.4,0c2.3,0,4.5-1.4,4.5-3.3c0-1-0.4-1.7-1-2.5c-0.4,0.1-0.7,0.1-0.9,0.1c-1,0-1.6-0.6-1.6-1.1
		c0-0.4,0.4-0.8,1-0.8c0.9,0,2.7,0.9,4.4,0.9c-0.2,0.1-0.5,0.3-0.8,0.4c1.1,0.9,1.7,2.2,2,3.5l2.7,4.3c0.4,0.7,1.4,2.1,2.8,3.2
		c-1.7,0-2.8,0-4.3-2.3l-1.4-1.9c-0.1,0.3-0.3,0.5-0.4,0.8L55.1,34.7z M72.2,50v28.6v28.6h-5V78.6V50V21.4h5V50z M86.2,41.9L86,43
		h-1.7v7H83v-7h-1v-0.9l1-0.2v-1.6c0-0.4,0.1-0.8,0.2-1.1c0.1-0.3,0.3-0.6,0.5-0.8s0.4-0.4,0.7-0.4c0.3-0.1,0.6-0.1,0.9-0.1
		s0.5,0,0.7,0.1c0.2,0.1,0.3,0.1,0.4,0.2l-0.3,1.1c-0.1,0-0.2-0.1-0.3-0.1C85.7,39,85.5,39,85.4,39c-0.3,0-0.6,0.1-0.7,0.3
		s-0.3,0.6-0.3,1.1v1.5H86.2z M85.4,32.8H83V21.1h2.3c0.7,0,1.3,0.1,1.8,0.2s0.9,0.3,1.2,0.6c0.3,0.3,0.5,0.6,0.7,0.9
		c0,0.5,0,0.9,0,1.3c0,0.4-0.1,0.8-0.2,1.1c-0.1,0.3-0.2,0.6-0.4,0.8s-0.4,0.4-0.6,0.5c-0.2,0.1-0.5,0.2-0.7,0.3
		c0.3,0.1,0.6,0.2,0.9,0.3c0.3,0.2,0.5,0.4,0.7,0.6c0.2,0.2,0.4,0.5,0.5,0.8s0.2,0.7,0.2,1.1c0,0.5-0.1,0.9-0.2,1.3
		c-0.2,0.4-0.4,0.7-0.7,1c-0.3,0.3-0.8,0.5-1.3,0.7C86.7,32.8,86.1,32.8,85.4,32.8z M93.1,50h-1.3v-0.9c0,0.1-0.1,0.2-0.2,0.3
		c-0.1,0.1-0.3,0.3-0.4,0.4c-0.2,0.1-0.4,0.2-0.6,0.3c-0.2,0.1-0.5,0.1-0.8,0.1c-0.4,0-0.7-0.1-1-0.2c-0.3-0.1-0.5-0.3-0.7-0.5
		c-0.2-0.2-0.4-0.5-0.5-0.9c-0.1-0.4-0.2-0.8-0.2-1.4v-5.4h1.4v5.3c0,0.7,0.1,1.2,0.3,1.5c0.2,0.3,0.6,0.4,1,0.4
		c0.4,0,0.7-0.1,1-0.3c0.3-0.2,0.5-0.4,0.6-0.6v-6.3h1.4C93.1,41.8,93.1,50,93.1,50z M94.4,33c-0.2,0.1-0.5,0.1-0.8,0.1
		c-0.4,0-0.7-0.1-1-0.2c-0.3-0.1-0.5-0.3-0.7-0.5c-0.2-0.2-0.4-0.5-0.5-0.9c-0.1-0.4-0.2-0.8-0.2-1.4v-5.4h1.4V30
		c0,0.7,0.1,1.2,0.3,1.5s0.6,0.4,1,0.4c0.4,0,0.7-0.1,1-0.3s0.5-0.4,0.6-0.6v-6.3h1.4v8.2h-1.3V32c0,0.1-0.1,0.2-0.2,0.3
		c-0.1,0.1-0.3,0.3-0.4,0.4C94.8,32.8,94.6,32.9,94.4,33z M98.8,43.1c0,0-0.1-0.1-0.2-0.1c-0.1,0-0.3-0.1-0.5-0.1
		c-0.4,0-0.8,0.1-1,0.3c-0.2,0.2-0.4,0.5-0.5,0.8v6h-1.4v-8.2h1.3V43c0.1-0.2,0.1-0.3,0.2-0.5s0.2-0.3,0.3-0.4
		c0.1-0.1,0.3-0.2,0.5-0.3s0.4-0.1,0.7-0.1c0.2,0,0.3,0,0.5,0.1c0.1,0,0.2,0.1,0.3,0.1L98.8,43.1z M102,25.6c-0.4,0-0.7,0.1-1,0.3
		c-0.3,0.2-0.5,0.4-0.6,0.6v6.3H99v-8.2h1.3v0.9c0-0.1,0.1-0.2,0.2-0.3c0.1-0.1,0.3-0.3,0.4-0.4c0.2-0.1,0.4-0.2,0.6-0.3
		c0.2-0.1,0.5-0.1,0.9-0.1c0.4,0,0.7,0.1,1,0.2c0.3,0.1,0.5,0.3,0.7,0.5c0.2,0.2,0.4,0.5,0.5,0.9c0.1,0.4,0.2,0.8,0.2,1.4v5.4
		l-1.4,0.1v-5.3c0-0.7-0.1-1.2-0.3-1.5C102.9,25.8,102.5,25.6,102,25.6z M110.5,49.5c-0.2,0.1-0.4,0.2-0.6,0.3
		c-0.3,0.1-0.6,0.2-0.9,0.3c-0.4,0.1-0.8,0.1-1.2,0.1c-0.7,0-1.3-0.1-1.9-0.3c-0.6-0.2-1.1-0.6-1.5-1c-0.4-0.5-0.7-1.1-1-1.9
		c-0.2-0.8-0.3-1.8-0.3-2.9c0-1.1,0.1-2,0.4-2.8s0.7-1.4,1.1-1.9c0.5-0.5,1-0.8,1.6-1c0.6-0.2,1.2-0.3,1.8-0.3c0.4,0,0.8,0,1.1,0.1
		c0.3,0.1,0.6,0.2,0.8,0.3c0.2,0.1,0.4,0.2,0.5,0.3c0.1,0.1,0.2,0.2,0.3,0.3l-0.7,1c-0.1-0.1-0.1-0.1-0.3-0.2
		c-0.1-0.1-0.3-0.2-0.4-0.3c-0.2-0.1-0.4-0.2-0.6-0.2c-0.2-0.1-0.5-0.1-0.9-0.1c-0.4,0-0.9,0.1-1.3,0.2c-0.4,0.2-0.8,0.4-1.1,0.8
		c-0.3,0.4-0.6,0.9-0.7,1.5c-0.2,0.6-0.3,1.4-0.3,2.3c0,0.9,0.1,1.6,0.2,2.3c0.1,0.6,0.3,1.1,0.6,1.5c0.3,0.4,0.6,0.7,1,0.9
		c0.4,0.2,0.9,0.3,1.4,0.3c0.3,0,0.6,0,0.8-0.1c0.2-0.1,0.5-0.1,0.7-0.2v-3.4h-1.9v-1.2h3.3v5h0.4C110.8,49.3,110.7,49.4,110.5,49.5
		z M111.2,32.3c-0.1,0.1-0.2,0.2-0.4,0.4c-0.2,0.1-0.4,0.2-0.6,0.3c-0.2,0.1-0.5,0.1-0.8,0.1c-0.4,0-0.8-0.1-1.1-0.2
		c-0.3-0.2-0.6-0.4-0.9-0.7c-0.3-0.3-0.5-0.8-0.6-1.3c-0.2-0.6-0.3-1.2-0.3-2c0-0.8,0.1-1.5,0.3-2.1s0.5-1,0.8-1.3
		c0.3-0.3,0.7-0.6,1.2-0.7c0.4-0.1,0.9-0.2,1.3-0.2c0.3,0,0.5,0,0.7,0.1c0.2,0,0.4,0.1,0.5,0.1v-3.9l1.4-0.2v12.2h-1.3V32
		C111.4,32.1,111.3,32.2,111.2,32.3z M117.9,49.5c-0.1,0.1-0.3,0.2-0.5,0.3c-0.2,0.1-0.4,0.2-0.7,0.3c-0.3,0.1-0.6,0.1-1,0.1
		c-0.5,0-1-0.1-1.4-0.3c-0.4-0.2-0.8-0.4-1.1-0.8c-0.3-0.4-0.5-0.8-0.7-1.4c-0.2-0.6-0.2-1.2-0.2-2c0-0.7,0.1-1.4,0.2-1.9
		c0.2-0.5,0.4-1,0.7-1.3s0.6-0.6,1-0.8c0.4-0.2,0.8-0.2,1.2-0.2c0.8,0,1.4,0.2,1.8,0.7c0.7,0.7,0.9,1.4,0.9,2.4c0,0.4,0,0.7,0,0.9
		c0,0.3,0,0.5-0.1,0.7h-4.2c0,1,0.3,1.7,0.6,2.1c0.4,0.5,0.9,0.7,1.6,0.7c0.2,0,0.5,0,0.6-0.1c0.2-0.1,0.4-0.1,0.5-0.2
		c0.1-0.1,0.3-0.2,0.4-0.2c0.1-0.1,0.2-0.1,0.2-0.2l0.5,1C118.1,49.4,118.1,49.4,117.9,49.5z M118.6,33c-0.3,0.1-0.6,0.1-1,0.1
		c-0.5,0-1-0.1-1.4-0.3c-0.4-0.2-0.8-0.4-1.1-0.8c-0.3-0.4-0.5-0.8-0.7-1.4c-0.2-0.6-0.2-1.2-0.2-2c0-0.7,0.1-1.4,0.2-1.9
		c0.2-0.5,0.4-1,0.7-1.3c0.3-0.3,0.6-0.6,1-0.8c0.4-0.2,0.8-0.2,1.2-0.2c0.8,0,1.4,0.2,1.8,0.7c0.7,0.6,0.9,1.4,0.9,2.4
		c0,0.4,0,0.7,0,0.9c0,0.3,0,0.5-0.1,0.7h-4.2c0,1,0.3,1.7,0.6,2.1c0.4,0.5,0.9,0.7,1.6,0.7c0.2,0,0.5,0,0.6-0.1
		c0.2-0.1,0.4-0.1,0.5-0.2c0.1-0.1,0.3-0.2,0.4-0.2c0.1-0.1,0.2-0.1,0.2-0.2l0.5,1c-0.1,0.1-0.1,0.1-0.3,0.2
		c-0.1,0.1-0.3,0.2-0.5,0.3C119.1,32.8,118.9,32.9,118.6,33z M123.7,49.6c-0.4,0.4-1.1,0.7-1.9,0.7c-0.3,0-0.6,0-0.9-0.1
		c-0.2-0.1-0.5-0.1-0.7-0.2c-0.2-0.1-0.3-0.2-0.5-0.3c-0.1-0.1-0.2-0.2-0.3-0.3l0.7-1.1c0.1,0.1,0.2,0.1,0.2,0.2
		c0.1,0.1,0.2,0.2,0.3,0.3c0.1,0.1,0.3,0.2,0.5,0.2c0.2,0.1,0.4,0.1,0.6,0.1c0.4,0,0.7-0.1,0.9-0.3c0.2-0.2,0.3-0.4,0.3-0.7
		c0-0.2,0-0.4-0.1-0.5c-0.1-0.1-0.1-0.3-0.2-0.4c-0.1-0.1-0.2-0.2-0.4-0.3c-0.1-0.1-0.3-0.2-0.5-0.3l-0.5-0.3
		c-0.5-0.3-0.9-0.7-1.2-1c-0.3-0.4-0.4-0.8-0.4-1.4c0-0.3,0.1-0.6,0.2-0.8c0.1-0.3,0.3-0.5,0.5-0.7c0.2-0.2,0.5-0.3,0.8-0.4
		c0.3-0.1,0.6-0.2,0.9-0.2s0.6,0,0.8,0.1c0.2,0.1,0.4,0.1,0.6,0.2s0.3,0.2,0.4,0.3c0.1,0.1,0.2,0.2,0.3,0.2l-0.6,0.9
		c-0.1-0.1-0.3-0.2-0.5-0.4s-0.6-0.3-0.9-0.3c-0.4,0-0.6,0.1-0.8,0.3s-0.3,0.4-0.3,0.6c0,0.3,0.1,0.6,0.3,0.8s0.4,0.4,0.8,0.6
		l0.5,0.3c0.6,0.3,1,0.7,1.3,1.1c0.3,0.4,0.5,0.9,0.5,1.5C124.4,48.6,124.2,49.2,123.7,49.6z M123.7,33.2c-0.3,0-0.6,0-0.9-0.1
		c-0.2-0.1-0.5-0.1-0.7-0.2c-0.2-0.1-0.3-0.2-0.5-0.3c-0.1-0.1-0.2-0.2-0.3-0.3l0.7-1.1c0.1,0.1,0.2,0.1,0.2,0.2
		c0.1,0.1,0.2,0.2,0.3,0.3c0.1,0.1,0.3,0.2,0.5,0.2c0.2,0.1,0.4,0.1,0.6,0.1c0.4,0,0.7-0.1,0.9-0.3c0.2-0.2,0.3-0.4,0.3-0.7
		c0-0.2,0-0.4-0.1-0.5c-0.1-0.1-0.1-0.3-0.2-0.4c-0.1-0.1-0.2-0.2-0.4-0.3c-0.1-0.1-0.3-0.2-0.5-0.3l-0.5-0.3
		c-0.5-0.3-0.9-0.7-1.2-1c-0.3-0.4-0.4-0.8-0.4-1.4c0-0.3,0.1-0.6,0.2-0.8c0.1-0.3,0.3-0.5,0.5-0.7c0.2-0.2,0.5-0.3,0.8-0.4
		s0.6-0.2,0.9-0.2s0.6,0,0.8,0.1c0.2,0.1,0.4,0.1,0.6,0.2c0.2,0.1,0.3,0.2,0.4,0.3c0.1,0.1,0.2,0.2,0.3,0.2l-0.6,0.9
		c-0.1-0.1-0.3-0.2-0.5-0.4c-0.2-0.2-0.6-0.3-0.9-0.3c-0.4,0-0.6,0.1-0.8,0.3s-0.3,0.4-0.3,0.6c0,0.3,0.1,0.6,0.3,0.8
		c0.2,0.2,0.4,0.4,0.8,0.6l0.5,0.3c0.6,0.3,1,0.7,1.3,1.1c0.3,0.4,0.5,0.9,0.5,1.5c0,0.6-0.2,1.2-0.7,1.6
		C125.2,32.9,124.5,33.2,123.7,33.2z M131.7,50h-1.3v-0.9c0,0.1-0.1,0.2-0.2,0.3c-0.1,0.1-0.3,0.3-0.4,0.4c-0.2,0.1-0.4,0.2-0.6,0.3
		c-0.2,0.1-0.5,0.1-0.8,0.1c-0.4,0-0.7-0.1-1-0.2c-0.3-0.1-0.5-0.3-0.7-0.5s-0.4-0.5-0.5-0.9c-0.1-0.4-0.2-0.8-0.2-1.4v-5.4h1.4v5.3
		c0,0.7,0.1,1.2,0.3,1.5s0.6,0.4,1,0.4s0.7-0.1,1-0.3c0.3-0.2,0.5-0.4,0.6-0.6v-6.3h1.4V50z M133.3,27.5V33l-1.2-0.1v-5.3
		c0-0.7-0.1-1.2-0.3-1.4c-0.2-0.3-0.5-0.4-0.9-0.4c-0.2,0-0.4,0-0.6,0.1c-0.2,0.1-0.3,0.1-0.5,0.2c-0.1,0.1-0.3,0.2-0.4,0.3
		c-0.1,0.1-0.2,0.2-0.3,0.3V33h-1.4v-8.2h1.3v0.9c0.1-0.1,0.1-0.2,0.3-0.3c0.1-0.1,0.3-0.3,0.4-0.4c0.2-0.1,0.4-0.2,0.6-0.3
		c0.2-0.1,0.5-0.1,0.8-0.1c0.9,0,1.6,0.4,2,1.1c0.1-0.1,0.2-0.2,0.3-0.4c0.1-0.1,0.3-0.2,0.5-0.4c0.2-0.1,0.4-0.2,0.6-0.3
		c0.2-0.1,0.5-0.1,0.7-0.1c1.7,0,2.5,1,2.5,2.9v5.5h-1.4v-5.3c0-0.7-0.1-1.2-0.4-1.4c-0.2-0.3-0.6-0.4-1.1-0.4c-0.4,0-0.7,0.1-1,0.3
		c-0.3,0.2-0.5,0.4-0.6,0.5c0,0.1,0,0.3,0.1,0.4C133.3,27.1,133.3,27.3,133.3,27.5z M139.6,50h-1.4v-5.3c0-0.7-0.1-1.2-0.3-1.5
		c-0.2-0.3-0.6-0.5-1.1-0.5c-0.4,0-0.7,0.1-1,0.3s-0.5,0.4-0.6,0.6V50h-1.4v-8.2h1.3v0.9c0-0.1,0.1-0.2,0.2-0.3
		c0.1-0.1,0.3-0.3,0.4-0.4c0.2-0.1,0.4-0.2,0.6-0.3c0.2-0.1,0.5-0.1,0.9-0.1c0.4,0,0.7,0.1,1,0.2c0.3,0.1,0.5,0.3,0.7,0.5
		c0.2,0.2,0.4,0.5,0.5,0.9c0.1,0.4,0.2,0.8,0.2,1.4V50z M141.2,32.9h-1.4v-8.2h1.4V32.9z M140.5,22.7c-0.3,0-0.5-0.1-0.7-0.3
		c-0.2-0.2-0.3-0.4-0.3-0.7c0-0.3,0.1-0.5,0.3-0.7c0.2-0.2,0.4-0.3,0.7-0.3s0.5,0.1,0.7,0.3s0.3,0.4,0.3,0.7c0,0.3-0.1,0.5-0.3,0.7
		C141,22.6,140.8,22.7,140.5,22.7z M147.5,50h-1.3v-0.9c0,0.1-0.1,0.2-0.2,0.3c-0.1,0.1-0.2,0.2-0.4,0.4c-0.2,0.2-0.4,0.2-0.6,0.3
		c-0.2,0.1-0.5,0.1-0.8,0.1c-0.4,0-0.8-0.1-1.1-0.2c-0.3-0.2-0.6-0.4-0.9-0.7s-0.5-0.8-0.6-1.3c-0.2-0.6-0.3-1.2-0.3-1.9
		c0-0.8,0.1-1.5,0.3-2.1c0.2-0.6,0.5-1,0.8-1.3c0.3-0.3,0.7-0.6,1.2-0.7c0.4-0.1,0.9-0.2,1.3-0.2c0.3,0,0.5,0,0.7,0.1
		c0.2,0,0.4,0.1,0.5,0.1v-4l1.4-0.2V50z M149.2,32.8l-1.4,0.1v-5.3c0-0.7-0.1-1.2-0.3-1.5s-0.6-0.5-1.1-0.5c-0.4,0-0.7,0.1-1,0.3
		c-0.3,0.2-0.5,0.4-0.6,0.6v6.3h-1.4v-8.2h1.3v0.9c0-0.1,0.1-0.2,0.2-0.3c0.1-0.1,0.3-0.3,0.4-0.4c0.2-0.1,0.4-0.2,0.6-0.3
		c0.2-0.1,0.5-0.1,0.9-0.1c0.4,0,0.7,0.1,1,0.2c0.3,0.1,0.5,0.3,0.7,0.5s0.4,0.5,0.5,0.9c0.1,0.4,0.2,0.8,0.2,1.4V32.8z M155.4,50
		H154v-5.3c0-0.7-0.1-1.2-0.3-1.5c-0.2-0.3-0.6-0.5-1.1-0.5c-0.4,0-0.7,0.1-1,0.3c-0.3,0.2-0.5,0.4-0.6,0.6V50h-1.4V38l1.4-0.2v4.8
		c0-0.1,0.1-0.2,0.2-0.3c0.1-0.1,0.2-0.2,0.4-0.3c0.2-0.1,0.4-0.2,0.6-0.3c0.2-0.1,0.5-0.1,0.9-0.1c0.7,0,1.3,0.2,1.7,0.7
		c0.4,0.5,0.6,1.2,0.6,2.3V50z M155.6,33.1c-0.3-0.1-0.5-0.1-0.7-0.2c-0.2-0.1-0.3-0.2-0.5-0.3c-0.1-0.1-0.2-0.2-0.3-0.3l0.7-1.1
		c0.1,0.1,0.2,0.1,0.2,0.2c0.1,0.1,0.2,0.2,0.3,0.3c0.1,0.1,0.3,0.2,0.5,0.2c0.2,0.1,0.4,0.1,0.6,0.1c0.4,0,0.7-0.1,0.9-0.3
		c0.2-0.2,0.3-0.4,0.3-0.7c0-0.2,0-0.4-0.1-0.5c-0.1-0.1-0.1-0.3-0.2-0.4c-0.1-0.1-0.2-0.2-0.4-0.3c-0.1-0.1-0.3-0.2-0.5-0.3L156,29
		c-0.5-0.3-0.9-0.7-1.2-1c-0.3-0.4-0.4-0.8-0.4-1.4c0-0.3,0.1-0.6,0.2-0.8c0.1-0.3,0.3-0.5,0.5-0.7c0.2-0.2,0.5-0.3,0.8-0.4
		c0.3-0.1,0.6-0.2,0.9-0.2c0.3,0,0.6,0,0.8,0.1c0.2,0.1,0.4,0.1,0.6,0.2s0.3,0.2,0.4,0.3c0.1,0.1,0.2,0.2,0.3,0.2l-0.7,1.1
		c-0.1-0.1-0.3-0.2-0.5-0.4s-0.6-0.3-0.9-0.3c-0.4,0-0.6,0.1-0.8,0.3s-0.3,0.4-0.3,0.6c0,0.3,0.1,0.6,0.3,0.8
		c0.2,0.2,0.4,0.4,0.8,0.6l0.5,0.3c0.6,0.3,1,0.7,1.3,1.1c0.3,0.4,0.5,0.9,0.5,1.5c0,0.6-0.2,1.2-0.7,1.6c-0.4,0.4-1.1,0.7-1.9,0.7
		C156.2,33.2,155.9,33.2,155.6,33.1z M162.5,49.5c-0.1,0.1-0.3,0.2-0.5,0.3s-0.4,0.2-0.7,0.3c-0.3,0.1-0.6,0.1-1,0.1
		c-0.5,0-1-0.1-1.4-0.3c-0.4-0.2-0.8-0.4-1.1-0.8c-0.3-0.4-0.5-0.8-0.7-1.4c-0.2-0.6-0.2-1.2-0.2-2c0-0.7,0.1-1.4,0.2-1.9
		c0.2-0.5,0.4-1,0.7-1.3c0.3-0.3,0.6-0.6,1-0.8c0.4-0.2,0.8-0.2,1.2-0.2c0.8,0,1.4,0.2,1.8,0.7c0.7,0.7,0.9,1.4,0.9,2.4
		c0,0.4,0,0.7,0,0.9c0,0.3,0,0.5-0.1,0.7h-4.2c0,1,0.3,1.7,0.6,2.1c0.4,0.5,0.9,0.7,1.6,0.7c0.2,0,0.5,0,0.6-0.1
		c0.2-0.1,0.4-0.1,0.5-0.2c0.1-0.1,0.3-0.2,0.4-0.2c0.1-0.1,0.2-0.1,0.2-0.2l0.5,1C162.7,49.4,162.7,49.4,162.5,49.5z M162.9,32.9
		c-0.7,0-1.2-0.2-1.6-0.6c-0.4-0.4-0.5-1-0.5-1.9v-4.7h-1v-0.9l1-0.2l0.2-2.3h1.2v2.3h2l-0.1,1.2h-1.8v4.5c0,0.6,0.1,1,0.2,1.2
		c0.1,0.2,0.4,0.3,0.7,0.3c0.2,0,0.4,0,0.5-0.1c0.1-0.1,0.3-0.1,0.3-0.2l0.2,1.1c-0.1,0-0.2,0.1-0.4,0.2
		C163.6,32.9,163.3,32.9,162.9,32.9z M165.9,50h-1.4v-8.2h1.4V50z M165.9,39.6c-0.2,0.2-0.4,0.3-0.7,0.3s-0.5-0.1-0.7-0.3
		s-0.3-0.4-0.3-0.7c0-0.3,0.1-0.5,0.3-0.7c0.2-0.2,0.4-0.3,0.7-0.3s0.5,0.1,0.7,0.3c0.2,0.2,0.3,0.4,0.3,0.7
		C166.2,39.2,166.1,39.4,165.9,39.6z M165.9,32c-0.3-0.4-0.5-0.8-0.7-1.4c-0.2-0.6-0.2-1.2-0.2-2c0-0.7,0.1-1.4,0.2-1.9
		c0.2-0.5,0.4-1,0.7-1.3c0.3-0.3,0.6-0.6,1-0.8c0.4-0.2,0.8-0.2,1.2-0.2c0.8,0,1.4,0.2,1.8,0.7c0.7,0.6,0.9,1.4,0.9,2.4
		c0,0.4,0,0.7,0,0.9c0,0.3,0,0.5-0.1,0.7h-4.2c0,1,0.3,1.7,0.6,2.1c0.4,0.5,0.9,0.7,1.6,0.7c0.2,0,0.5,0,0.6-0.1
		c0.2-0.1,0.4-0.1,0.5-0.2c0.1-0.1,0.3-0.2,0.4-0.2c0.1-0.1,0.2-0.1,0.2-0.2l0.5,1c-0.1,0.1-0.1,0.1-0.3,0.2
		c-0.1,0.1-0.3,0.2-0.5,0.3c-0.2,0.1-0.4,0.2-0.7,0.3c-0.3,0.1-0.6,0.1-1,0.1c-0.5,0-1-0.1-1.4-0.3C166.6,32.6,166.2,32.4,165.9,32z
		 M169.9,48.7c0.1,0.2,0.4,0.3,0.7,0.3c0.2,0,0.4,0,0.5-0.1c0.1-0.1,0.3-0.1,0.3-0.2l0.2,1.1c-0.1,0-0.2,0.1-0.4,0.2
		c-0.2,0.1-0.5,0.1-0.9,0.1c-0.7,0-1.2-0.2-1.6-0.6c-0.4-0.4-0.5-1-0.5-1.9V43h-1v-0.9l1-0.2l0.2-2.3h1.2v2.3h2l-0.1,1.1h-1.8v4.5
		C169.7,48.1,169.8,48.5,169.9,48.7z M176.2,25.9c0,0-0.1-0.1-0.2-0.1s-0.3-0.1-0.5-0.1c-0.4,0-0.8,0.1-1,0.3s-0.4,0.5-0.5,0.8v6
		h-1.4v-8.2h1.3v1.1c0.1-0.2,0.1-0.3,0.2-0.5c0.1-0.2,0.2-0.3,0.3-0.4c0.1-0.1,0.3-0.2,0.5-0.3s0.4-0.1,0.7-0.1c0.2,0,0.3,0,0.5,0.1
		c0.1,0,0.2,0.1,0.3,0.1L176.2,25.9z M179,32.9h-1.4v-8.2h1.4V32.9z M179,22.4c-0.2,0.2-0.4,0.3-0.7,0.3c-0.3,0-0.5-0.1-0.7-0.3
		c-0.2-0.2-0.3-0.4-0.3-0.7c0-0.3,0.1-0.5,0.3-0.7c0.2-0.2,0.4-0.3,0.7-0.3c0.3,0,0.5,0.1,0.7,0.3s0.3,0.4,0.3,0.7
		C179.3,22,179.2,22.2,179,22.4z M186.8,32.9h-1.3V32c0,0.1-0.1,0.2-0.2,0.3c-0.1,0.1-0.3,0.3-0.4,0.4c-0.2,0.1-0.4,0.2-0.6,0.3
		c-0.2,0.1-0.5,0.1-0.8,0.1c-0.4,0-0.7-0.1-1-0.2c-0.3-0.1-0.5-0.3-0.7-0.5c-0.2-0.2-0.4-0.5-0.5-0.9c-0.1-0.4-0.2-0.8-0.2-1.4v-5.4
		h1.4V30c0,0.7,0.1,1.2,0.3,1.5c0.2,0.3,0.6,0.4,1,0.4c0.4,0,0.7-0.1,1-0.3c0.3-0.2,0.5-0.4,0.6-0.6v-6.3h1.4V32.9z M198.8,32.9
		h-1.4v-5.3c0-0.7-0.1-1.2-0.4-1.4c-0.2-0.3-0.6-0.4-1.1-0.4c-0.4,0-0.7,0.1-1,0.3s-0.5,0.4-0.6,0.5c0,0.1,0,0.3,0.1,0.4
		c0,0.1,0,0.3,0,0.5V33l-1.2-0.1v-5.3c0-0.7-0.1-1.2-0.3-1.4c-0.2-0.3-0.5-0.4-0.9-0.4c-0.2,0-0.4,0-0.6,0.1
		c-0.2,0.1-0.3,0.1-0.5,0.2c-0.1,0.1-0.3,0.2-0.4,0.3c-0.1,0.1-0.2,0.2-0.3,0.3V33h-1.4v-8.2h1.3v0.9c0.1-0.1,0.1-0.2,0.3-0.3
		c0.1-0.1,0.3-0.3,0.4-0.4c0.2-0.1,0.4-0.2,0.6-0.3c0.2-0.1,0.5-0.1,0.8-0.1c0.9,0,1.6,0.4,2,1.1c0.1-0.1,0.2-0.2,0.3-0.4
		c0.1-0.1,0.3-0.2,0.5-0.4c0.2-0.1,0.4-0.2,0.6-0.3c0.2-0.1,0.5-0.1,0.7-0.1c1.7,0,2.5,1,2.5,2.9V32.9z"/>
	<path class="st0" d="M169.5,27.8c0-0.1,0-0.2,0-0.3c0-0.6-0.1-1-0.3-1.3c-0.2-0.4-0.5-0.6-1-0.6s-0.9,0.2-1.2,0.6
		c-0.3,0.4-0.5,1-0.5,1.8h3C169.5,27.9,169.5,27.9,169.5,27.8z"/>
	<path class="st0" d="M161.4,45c0-0.1,0-0.2,0-0.3c0-0.6-0.1-1-0.3-1.3c-0.3-0.5-0.6-0.6-1-0.6c-0.5,0-0.9,0.2-1.2,0.6
		c-0.3,0.4-0.5,1-0.5,1.8h3C161.4,45.1,161.4,45.1,161.4,45z"/>
	<path d="M153.1,41.6c-0.4,0-0.7,0-0.9,0.1c-0.2,0.1-0.4,0.2-0.6,0.3c-0.2,0.1-0.3,0.2-0.4,0.3c-0.1,0.1-0.2,0.2-0.2,0.3v-4.8
		l-1.4,0.2v12h1.4v-6.4c0.1-0.2,0.3-0.4,0.6-0.6c0.3-0.2,0.6-0.3,1-0.3c0.5,0,0.9,0.2,1.1,0.5c0.2,0.3,0.3,0.8,0.3,1.5V50h1.4v-5.4
		c0-1.1-0.2-1.8-0.6-2.3C154.4,41.8,153.8,41.6,153.1,41.6z"/>
	<path d="M159.1,30.9c0-0.6-0.2-1.1-0.5-1.5c-0.3-0.4-0.7-0.8-1.3-1.1l-0.5-0.3c-0.4-0.2-0.6-0.4-0.8-0.6c-0.2-0.2-0.3-0.5-0.3-0.8
		c0-0.2,0.1-0.4,0.3-0.6s0.4-0.3,0.8-0.3c0.3,0,0.7,0.1,0.9,0.3s0.4,0.3,0.5,0.4l0.7-1.1c-0.1,0-0.2-0.1-0.3-0.2
		c-0.1-0.1-0.2-0.2-0.4-0.3s-0.4-0.1-0.6-0.2c-0.2-0.1-0.5-0.1-0.8-0.1c-0.3,0-0.6,0.1-0.9,0.2c-0.3,0.1-0.6,0.2-0.8,0.4
		c-0.2,0.2-0.4,0.4-0.5,0.7c-0.1,0.2-0.2,0.5-0.2,0.8c0,0.6,0.1,1,0.4,1.4c0.3,0.3,0.7,0.7,1.2,1l0.4,0.5c0.2,0.1,0.4,0.2,0.5,0.3
		c0.2,0.1,0.3,0.2,0.4,0.3c0.1,0.1,0.1,0.3,0.2,0.4c0.1,0.1,0.1,0.3,0.1,0.5c0,0.3-0.1,0.5-0.3,0.7c-0.2,0.2-0.5,0.3-0.9,0.3
		c-0.2,0-0.4,0-0.6-0.1c-0.2,0-0.4-0.1-0.5-0.2c-0.1-0.1-0.2-0.2-0.3-0.3c0-0.1-0.1-0.1-0.2-0.2l-0.7,1.1c0.1,0.1,0.2,0.2,0.3,0.3
		c0.2,0.1,0.3,0.2,0.5,0.3c0.2,0.1,0.4,0.1,0.7,0.2c0.3,0.1,0.6,0.1,0.9,0.1c0.8,0,1.5-0.3,1.9-0.7
		C158.9,32.1,159.1,31.5,159.1,30.9z"/>
	<path d="M146.1,42c-0.1,0-0.3-0.1-0.5-0.1c-0.2-0.1-0.4-0.1-0.7-0.1c-0.4,0-0.9,0.1-1.3,0.2c-0.5,0.1-0.9,0.4-1.2,0.7
		c-0.3,0.3-0.6,0.7-0.8,1.3c-0.2,0.6-0.3,1.3-0.3,2.1c0,0.7,0.1,1.3,0.3,1.9c0.1,0.5,0.3,1,0.6,1.3s0.6,0.5,0.9,0.7
		c0.3,0.1,0.7,0.2,1.1,0.2c0.3,0,0.6,0,0.8-0.1c0.2-0.1,0.4-0.1,0.6-0.3c0.2-0.2,0.3-0.3,0.4-0.4c0.1-0.1,0.2-0.2,0.2-0.3V50h1.3
		V37.8l-1.4,0.2V42z M146,48.2c0,0-0.1,0.1-0.2,0.2c-0.1,0.1-0.2,0.2-0.3,0.3c-0.1,0.1-0.2,0.1-0.4,0.2c-0.2,0.1-0.4,0.1-0.6,0.1
		s-0.4,0-0.7-0.1c-0.2-0.1-0.4-0.3-0.6-0.5c-0.2-0.2-0.3-0.5-0.4-0.9c-0.1-0.4-0.1-0.8-0.1-1.4c0-0.6,0.1-1.1,0.2-1.5
		c0.1-0.4,0.3-0.8,0.5-1s0.4-0.4,0.7-0.5c0.3-0.1,0.6-0.2,0.9-0.2c0.2,0,0.4,0,0.6,0.1c0.1,0.1,0.3,0.1,0.4,0.2V48.2z"/>
	<path d="M162.1,48.5c-0.1,0-0.3,0.1-0.4,0.2c-0.1,0.1-0.3,0.1-0.5,0.2c-0.1,0.1-0.4,0.1-0.6,0.1c-0.7,0-1.2-0.2-1.6-0.7
		c-0.3-0.4-0.6-1.1-0.6-2.1h4.2c0.1-0.2,0.1-0.4,0.1-0.7c0-0.2,0-0.5,0-0.9c0-1-0.2-1.7-0.9-2.4c-0.4-0.5-1-0.7-1.8-0.7
		c-0.4,0-0.8,0-1.2,0.2c-0.4,0.2-0.7,0.5-1,0.8c-0.3,0.3-0.5,0.8-0.7,1.3c-0.1,0.5-0.2,1.2-0.2,1.9c0,0.8,0,1.4,0.2,2
		c0.2,0.6,0.4,1,0.7,1.4c0.3,0.4,0.7,0.6,1.1,0.8c0.4,0.2,0.9,0.3,1.4,0.3c0.4,0,0.7,0,1-0.1c0.3-0.1,0.5-0.2,0.7-0.3
		s0.4-0.2,0.5-0.3c0.2-0.1,0.2-0.1,0.3-0.2l-0.5-1C162.3,48.4,162.2,48.4,162.1,48.5z M158.9,43.4c0.3-0.4,0.7-0.6,1.2-0.6
		c0.4,0,0.7,0.1,1,0.6c0.2,0.3,0.3,0.7,0.3,1.3c0,0.1,0,0.2,0,0.3c0,0.1,0,0.1,0,0.2h-3C158.4,44.4,158.6,43.8,158.9,43.4z"/>
	<path d="M141.2,21c-0.2-0.2-0.4-0.3-0.7-0.3s-0.5,0.1-0.7,0.3c-0.2,0.2-0.3,0.4-0.3,0.7c0,0.3,0.1,0.5,0.3,0.7
		c0.2,0.2,0.4,0.3,0.7,0.3s0.5-0.1,0.7-0.3c0.2-0.2,0.3-0.4,0.3-0.7C141.5,21.4,141.4,21.2,141.2,21z"/>
	<path d="M138.9,42.3c-0.2-0.2-0.4-0.4-0.7-0.5c-0.3-0.1-0.6-0.2-1-0.2c-0.4,0-0.7,0-0.9,0.1c-0.2,0.1-0.4,0.2-0.6,0.3
		c-0.1,0.1-0.3,0.3-0.4,0.4c-0.1,0.1-0.2,0.2-0.2,0.3v-0.9h-1.3V50h1.4v-6.4c0.1-0.2,0.3-0.4,0.6-0.6s0.6-0.3,1-0.3
		c0.5,0,0.9,0.2,1.1,0.5c0.2,0.3,0.3,0.8,0.3,1.5V50h1.4v-5.4c0-0.6-0.1-1-0.2-1.4C139.3,42.8,139.1,42.5,138.9,42.3z"/>
	<path d="M164,31.5c0,0.1-0.2,0.1-0.3,0.2c-0.1,0.1-0.3,0.1-0.5,0.1c-0.3,0-0.6-0.1-0.7-0.3c-0.1-0.2-0.2-0.6-0.2-1.2v-4.5h1.8
		l0.1-1.2h-2v-2.3H161l-0.2,2.3l-1,0.2v0.9h1v4.7c0,0.9,0.1,1.5,0.5,1.9c0.4,0.4,0.9,0.6,1.6,0.6c0.4,0,0.7,0,0.9-0.1
		c0.2-0.1,0.3-0.2,0.4-0.2L164,31.5z"/>
	<path d="M133.8,26.1c0.3-0.2,0.6-0.3,1-0.3c0.5,0,0.9,0.1,1.1,0.4c0.3,0.2,0.4,0.7,0.4,1.4v5.3h1.4v-5.5c0-1.9-0.8-2.9-2.5-2.9
		c-0.2,0-0.5,0-0.7,0.1c-0.2,0.1-0.4,0.2-0.6,0.3c-0.2,0.2-0.4,0.3-0.5,0.4c-0.1,0.2-0.2,0.3-0.3,0.4c-0.4-0.7-1.1-1.1-2-1.1
		c-0.3,0-0.6,0-0.8,0.1c-0.2,0.1-0.4,0.2-0.6,0.3c-0.1,0.1-0.3,0.3-0.4,0.4c-0.2,0.1-0.2,0.2-0.3,0.3v-0.9h-1.3V33h1.4v-6.3
		c0.1-0.1,0.2-0.2,0.3-0.3c0.1-0.1,0.3-0.2,0.4-0.3c0.2-0.1,0.3-0.1,0.5-0.2c0.2-0.1,0.4-0.1,0.6-0.1c0.4,0,0.7,0.1,0.9,0.4
		c0.2,0.2,0.3,0.7,0.3,1.4v5.3l1.2,0.1v-5.5c0-0.2,0-0.4,0-0.5c-0.1-0.1-0.1-0.3-0.1-0.4C133.3,26.5,133.5,26.3,133.8,26.1z"/>
	<rect x="139.8" y="24.7" width="1.4" height="8.2"/>
	<rect x="164.5" y="41.8" width="1.4" height="8.2"/>
	<path d="M130.3,48.1c-0.1,0.2-0.3,0.4-0.6,0.6c-0.3,0.2-0.6,0.3-1,0.3s-0.8-0.1-1-0.4s-0.3-0.8-0.3-1.5v-5.3H126v5.4
		c0,0.6,0.1,1,0.2,1.4c0.1,0.4,0.3,0.7,0.5,0.9s0.4,0.4,0.7,0.5c0.3,0.1,0.6,0.2,1,0.2c0.3,0,0.6,0,0.8-0.1c0.2-0.1,0.4-0.2,0.6-0.3
		c0.1-0.1,0.3-0.3,0.4-0.4c0.1-0.1,0.2-0.2,0.2-0.3V50h1.3v-8.2h-1.4V48.1z"/>
	<path d="M185.4,31c-0.1,0.2-0.3,0.4-0.6,0.6c-0.3,0.2-0.6,0.3-1,0.3c-0.4,0-0.8-0.1-1-0.4c-0.2-0.3-0.3-0.8-0.3-1.5v-5.3h-1.4v5.4
		c0,0.6,0.1,1,0.2,1.4c0.1,0.4,0.3,0.7,0.5,0.9c0.2,0.2,0.4,0.4,0.7,0.5c0.3,0.1,0.6,0.2,1,0.2c0.3,0,0.6,0,0.8-0.1
		c0.2-0.1,0.4-0.2,0.6-0.3c0.1-0.1,0.3-0.3,0.4-0.4c0.1-0.1,0.2-0.2,0.2-0.3v0.9h1.3v-8.2h-1.4V31z"/>
	<path d="M178.3,20.7c-0.3,0-0.5,0.1-0.7,0.3c-0.2,0.2-0.3,0.4-0.3,0.7c0,0.3,0.1,0.5,0.3,0.7c0.2,0.2,0.4,0.3,0.7,0.3
		c0.3,0,0.5-0.1,0.7-0.3c0.2-0.2,0.3-0.4,0.3-0.7c0-0.3-0.1-0.5-0.3-0.7S178.6,20.7,178.3,20.7z"/>
	<path d="M196.3,24.5c-0.2,0-0.5,0-0.7,0.1c-0.2,0.1-0.4,0.2-0.6,0.3c-0.2,0.2-0.4,0.3-0.5,0.4c-0.1,0.2-0.2,0.3-0.3,0.4
		c-0.4-0.7-1.1-1.1-2-1.1c-0.3,0-0.6,0-0.8,0.1c-0.2,0.1-0.4,0.2-0.6,0.3c-0.1,0.1-0.3,0.3-0.4,0.4c-0.2,0.1-0.2,0.2-0.3,0.3v-0.9
		h-1.3V33h1.4v-6.3c0.1-0.1,0.2-0.2,0.3-0.3c0.1-0.1,0.3-0.2,0.4-0.3c0.2-0.1,0.3-0.1,0.5-0.2c0.2-0.1,0.4-0.1,0.6-0.1
		c0.4,0,0.7,0.1,0.9,0.4c0.2,0.2,0.3,0.7,0.3,1.4v5.3l1.2,0.1v-5.5c0-0.2,0-0.4,0-0.5c-0.1-0.1-0.1-0.3-0.1-0.4
		c0.1-0.1,0.3-0.3,0.6-0.5s0.6-0.3,1-0.3c0.5,0,0.9,0.1,1.1,0.4c0.3,0.2,0.4,0.7,0.4,1.4v5.3h1.4v-5.5
		C198.8,25.5,198,24.5,196.3,24.5z"/>
	<rect x="177.6" y="24.7" width="1.4" height="8.2"/>
	<path d="M175.6,24.4c-0.3,0-0.5,0-0.7,0.1s-0.4,0.2-0.5,0.3c-0.1,0.1-0.2,0.2-0.3,0.4c-0.1,0.2-0.1,0.3-0.2,0.5v-1.1h-1.3v8.2h1.4
		v-6c0.1-0.3,0.3-0.6,0.5-0.8s0.6-0.3,1-0.3c0.2,0,0.4,0.1,0.5,0.1s0.2,0.1,0.2,0.1l0.2-1.3c-0.1,0-0.2-0.1-0.3-0.1
		C175.9,24.4,175.8,24.4,175.6,24.4z"/>
	<path d="M165.2,37.9c-0.3,0-0.5,0.1-0.7,0.3c-0.2,0.2-0.3,0.4-0.3,0.7c0,0.3,0.1,0.5,0.3,0.7s0.4,0.3,0.7,0.3s0.5-0.1,0.7-0.3
		c0.2-0.2,0.3-0.4,0.3-0.7c0-0.3-0.1-0.5-0.3-0.7C165.7,38,165.5,37.9,165.2,37.9z"/>
	<path d="M169.4,33c0.3-0.1,0.5-0.2,0.7-0.3c0.2-0.1,0.4-0.2,0.5-0.3c0.2-0.1,0.2-0.1,0.3-0.2l-0.5-1c0,0.1-0.1,0.1-0.2,0.2
		c-0.1,0-0.3,0.1-0.4,0.2c-0.1,0.1-0.3,0.1-0.5,0.2c-0.1,0.1-0.4,0.1-0.6,0.1c-0.7,0-1.2-0.2-1.6-0.7c-0.3-0.4-0.6-1.1-0.6-2.1h4.2
		c0.1-0.2,0.1-0.4,0.1-0.7c0-0.2,0-0.5,0-0.9c0-1-0.2-1.8-0.9-2.4c-0.4-0.5-1-0.7-1.8-0.7c-0.4,0-0.8,0-1.2,0.2
		c-0.4,0.2-0.7,0.5-1,0.8c-0.3,0.3-0.5,0.8-0.7,1.3c-0.1,0.5-0.2,1.2-0.2,1.9c0,0.8,0,1.4,0.2,2c0.2,0.6,0.4,1,0.7,1.4
		c0.3,0.4,0.7,0.6,1.1,0.8c0.4,0.2,0.9,0.3,1.4,0.3C168.8,33.1,169.1,33.1,169.4,33z M167,26.2c0.3-0.4,0.7-0.6,1.2-0.6
		s0.8,0.2,1,0.6c0.2,0.3,0.3,0.7,0.3,1.3c0,0.1,0,0.2,0,0.3s0,0.1,0,0.2h-3C166.5,27.2,166.7,26.6,167,26.2z"/>
	<path d="M171.5,43l0.1-1.1h-2v-2.3h-1.2l-0.2,2.3l-1,0.2V43h1v4.6c0,0.9,0.1,1.5,0.5,1.9c0.4,0.4,0.9,0.6,1.6,0.6
		c0.4,0,0.7,0,0.9-0.1c0.2-0.1,0.3-0.2,0.4-0.2l-0.2-1.1c0,0.1-0.2,0.1-0.3,0.2c-0.1,0.1-0.3,0.1-0.5,0.1c-0.3,0-0.6-0.1-0.7-0.3
		c-0.1-0.2-0.2-0.6-0.2-1.2V43H171.5z"/>
	<path d="M148.5,25.1c-0.2-0.2-0.4-0.4-0.7-0.5c-0.3-0.1-0.6-0.2-1-0.2c-0.4,0-0.7,0-0.9,0.1c-0.2,0.1-0.4,0.2-0.6,0.3
		c-0.1,0.1-0.3,0.3-0.4,0.4c-0.1,0.1-0.2,0.2-0.2,0.3v-0.9h-1.3v8.2h1.4v-6.3c0.1-0.2,0.3-0.4,0.6-0.6c0.3-0.2,0.6-0.3,1-0.3
		c0.5,0,0.9,0.2,1.1,0.5s0.3,0.8,0.3,1.5v5.3l1.4-0.1v-5.4c0-0.6-0.1-1-0.2-1.4C148.9,25.6,148.7,25.3,148.5,25.1z"/>
	<path d="M91.7,48.1c-0.1,0.2-0.3,0.4-0.6,0.6c-0.3,0.2-0.6,0.3-1,0.3c-0.4,0-0.8-0.1-1-0.4c-0.2-0.3-0.3-0.8-0.3-1.5v-5.3h-1.4v5.4
		c0,0.6,0.1,1,0.2,1.4c0.1,0.4,0.3,0.7,0.5,0.9c0.2,0.2,0.4,0.4,0.7,0.5c0.3,0.1,0.6,0.2,1,0.2c0.3,0,0.6,0,0.8-0.1
		c0.2-0.1,0.4-0.2,0.6-0.3c0.1-0.1,0.3-0.3,0.4-0.4c0.1-0.1,0.2-0.2,0.2-0.3V50h1.3c0,0,0-8.2,0-8.2h-1.4V48.1z"/>
	<path d="M89.2,30.9c0.1-0.4,0.2-0.8,0.2-1.3c0-0.4-0.1-0.8-0.2-1.1s-0.3-0.6-0.5-0.8c-0.2-0.2-0.4-0.4-0.7-0.6
		c-0.3-0.1-0.6-0.2-0.9-0.3c0.2-0.1,0.5-0.2,0.7-0.3c0.2-0.1,0.4-0.3,0.6-0.5s0.3-0.5,0.4-0.8c0.1-0.3,0.2-0.7,0.2-1.1
		c0-0.4,0-0.8,0-1.3c-0.2-0.3-0.4-0.6-0.7-0.9c-0.3-0.3-0.7-0.5-1.2-0.6s-1.1-0.2-1.8-0.2H83v11.7h2.4c0.7,0,1.3,0,1.8-0.2
		c0.5-0.2,1-0.4,1.3-0.7C88.8,31.6,89,31.3,89.2,30.9z M84.3,22.4h0.8c0.8,0,1.4,0.1,1.8,0.5c0.4,0.3,0.6,0.8,0.6,1.3
		c0,0.7-0.2,1.2-0.6,1.6c-0.4,0.4-1,0.6-1.8,0.6h-0.8V22.4z M87.2,31.1c-0.4,0.3-1,0.5-1.9,0.5h-0.9v-4.1h1c0.8,0,1.4,0.2,1.8,0.6
		c0.4,0.4,0.6,0.9,0.6,1.5C87.8,30.3,87.6,30.8,87.2,31.1z"/>
	<path d="M84.7,39.3c0.1-0.2,0.4-0.3,0.7-0.3c0.1,0,0.3,0,0.4,0.2c0.1,0,0.2,0.1,0.3,0.1l0.3-1.1c-0.1-0.1-0.2-0.1-0.4-0.2
		c-0.2-0.1-0.4-0.1-0.7-0.1s-0.6,0-0.9,0.1c-0.3,0-0.5,0.2-0.7,0.4s-0.4,0.5-0.5,0.8c-0.1,0.3-0.2,0.7-0.2,1.1v1.6l-1,0.2V43h1v7
		h1.3v-7H86l0.2-1.1h-1.8v-1.5C84.4,39.9,84.6,39.5,84.7,39.3z"/>
	<path d="M95.6,32v0.9h1.3v-8.2h-1.4V31c-0.1,0.2-0.3,0.4-0.6,0.6s-0.6,0.3-1,0.3c-0.4,0-0.8-0.1-1-0.4s-0.3-0.8-0.3-1.5v-5.3h-1.4
		v5.4c0,0.6,0.1,1,0.2,1.4c0.1,0.4,0.3,0.7,0.5,0.9c0.2,0.2,0.4,0.4,0.7,0.5c0.3,0.1,0.6,0.2,1,0.2c0.3,0,0.6,0,0.8-0.1
		c0.2-0.1,0.4-0.2,0.6-0.3c0.1-0.1,0.3-0.3,0.4-0.4C95.5,32.2,95.6,32.1,95.6,32z"/>
	<rect x="151.2" y="24.7" width="1.4" height="8.2"/>
	<path d="M125.8,29.4c-0.3-0.4-0.7-0.8-1.3-1.1L124,28c-0.4-0.2-0.6-0.4-0.8-0.6c-0.2-0.2-0.3-0.5-0.3-0.8c0-0.2,0.1-0.4,0.3-0.6
		s0.4-0.3,0.8-0.3c0.3,0,0.7,0.1,0.9,0.3c0.2,0.2,0.4,0.3,0.5,0.4l0.6-0.9c-0.1,0-0.2-0.1-0.3-0.2c-0.1-0.1-0.2-0.2-0.4-0.3
		c-0.2-0.1-0.4-0.1-0.6-0.2c-0.2-0.1-0.5-0.1-0.8-0.1s-0.6,0.1-0.9,0.2s-0.6,0.2-0.8,0.4c-0.2,0.2-0.4,0.4-0.5,0.7
		c-0.1,0.2-0.2,0.5-0.2,0.8c0,0.6,0.1,1,0.4,1.4c0.3,0.3,0.7,0.7,1.2,1l0.5,0.3c0.2,0.1,0.4,0.2,0.5,0.3c0.2,0.1,0.3,0.2,0.4,0.3
		c0.1,0.1,0.1,0.3,0.2,0.4c0.1,0.1,0.1,0.3,0.1,0.5c0,0.3-0.1,0.5-0.3,0.7c-0.2,0.2-0.5,0.3-0.9,0.3c-0.2,0-0.4,0-0.6-0.1
		c-0.2,0-0.4-0.1-0.5-0.2c-0.1-0.1-0.2-0.2-0.3-0.3c0-0.1-0.1-0.1-0.2-0.2l-0.7,1.1c0.1,0.1,0.2,0.2,0.3,0.3
		c0.2,0.1,0.3,0.2,0.5,0.3c0.2,0.1,0.5,0.1,0.7,0.2c0.3,0.1,0.6,0.1,0.9,0.1c0.8,0,1.5-0.3,1.9-0.7c0.5-0.4,0.7-1,0.7-1.6
		C126.3,30.3,126.1,29.8,125.8,29.4z"/>
	<path d="M91.5,40.3c0.2,0,0.4,0,0.6-0.2c0.1-0.1,0.2-0.3,0.2-0.6s0-0.5-0.2-0.6c-0.2-0.1-0.4-0.2-0.6-0.2s-0.4,0-0.6,0.2
		c-0.1,0.1-0.2,0.3-0.2,0.6c0,0.2,0,0.4,0.2,0.6C91.1,40.2,91.3,40.3,91.5,40.3z"/>
	<path d="M98.2,41.7c-0.3,0-0.5,0-0.7,0.1S97.1,42,97,42.1c-0.1,0.1-0.2,0.2-0.3,0.4s-0.1,0.3-0.2,0.5v-1.2h-1.3V50h1.4v-6
		c0.1-0.3,0.3-0.6,0.5-0.8c0.2-0.2,0.6-0.3,1-0.3c0.2,0,0.4,0.1,0.5,0.1c0.1,0,0.2,0.1,0.2,0.1l0.2-1.2c-0.1,0-0.2-0.1-0.3-0.1
		C98.5,41.7,98.4,41.7,98.2,41.7z"/>
	<path d="M110.5,44.2h-3.3v1.2h1.9v3.4c-0.2,0.1-0.5,0.1-0.7,0.2c-0.2,0.1-0.5,0.1-0.8,0.1c-0.5,0-1-0.1-1.4-0.3
		c-0.4-0.2-0.7-0.5-1-0.9c-0.3-0.4-0.5-0.9-0.6-1.5c-0.1-0.7-0.2-1.4-0.2-2.3c0-0.9,0.1-1.7,0.3-2.3c0.1-0.6,0.4-1.1,0.7-1.5
		c0.3-0.4,0.7-0.6,1.1-0.8c0.4-0.1,0.9-0.2,1.3-0.2c0.4,0,0.7,0,0.9,0.1c0.2,0,0.4,0.1,0.6,0.2c0.1,0.1,0.3,0.2,0.4,0.3
		c0.2,0.1,0.2,0.1,0.3,0.2l0.7-1c-0.1-0.1-0.2-0.2-0.3-0.3c-0.1-0.1-0.3-0.2-0.5-0.3c-0.2-0.1-0.5-0.2-0.8-0.3
		c-0.3-0.1-0.7-0.1-1.1-0.1c-0.6,0-1.2,0.1-1.8,0.3c-0.6,0.2-1.1,0.5-1.6,1c-0.4,0.5-0.8,1.1-1.1,1.9s-0.4,1.7-0.4,2.8
		c0,1.1,0.1,2.1,0.3,2.9c0.3,0.8,0.6,1.4,1,1.9c0.4,0.4,0.9,0.8,1.5,1c0.6,0.2,1.2,0.3,1.9,0.3c0.4,0,0.8,0,1.2-0.1
		c0.3-0.1,0.6-0.2,0.9-0.3c0.2-0.1,0.4-0.2,0.6-0.3c0.2-0.1,0.3-0.2,0.4-0.3h-0.4V44.2z"/>
	<path d="M120.1,32.2l-0.5-1c0,0.1-0.1,0.1-0.2,0.2c-0.1,0-0.3,0.1-0.4,0.2c-0.1,0.1-0.3,0.1-0.5,0.2c-0.1,0.1-0.4,0.1-0.6,0.1
		c-0.7,0-1.2-0.2-1.6-0.7c-0.3-0.4-0.6-1.1-0.6-2.1h4.2c0.1-0.2,0.1-0.4,0.1-0.7c0-0.2,0-0.5,0-0.9c0-1-0.2-1.8-0.9-2.4
		c-0.4-0.5-1-0.7-1.8-0.7c-0.4,0-0.8,0-1.2,0.2c-0.4,0.2-0.7,0.5-1,0.8c-0.3,0.3-0.5,0.8-0.7,1.3c-0.1,0.5-0.2,1.2-0.2,1.9
		c0,0.8,0,1.4,0.2,2c0.2,0.6,0.4,1,0.7,1.4c0.3,0.4,0.7,0.6,1.1,0.8c0.4,0.2,0.9,0.3,1.4,0.3c0.4,0,0.7,0,1-0.1
		c0.3-0.1,0.5-0.2,0.7-0.3c0.2-0.1,0.4-0.2,0.5-0.3C120,32.3,120,32.3,120.1,32.2z M116.2,26.2c0.3-0.4,0.7-0.6,1.2-0.6
		c0.4,0,0.8,0.2,1,0.6c0.2,0.3,0.3,0.7,0.3,1.3c0,0.1,0,0.2,0,0.3s0,0.1,0,0.2h-3C115.7,27.2,115.9,26.6,116.2,26.2z"/>
	<path d="M122.6,45.4l-0.5-0.3c-0.4-0.2-0.6-0.4-0.8-0.6S121,44,121,43.7c0-0.2,0.1-0.4,0.3-0.6s0.4-0.3,0.8-0.3
		c0.3,0,0.7,0.1,0.9,0.3s0.4,0.3,0.5,0.4l0.6-0.9c-0.1,0-0.2-0.1-0.3-0.2c-0.1-0.1-0.2-0.2-0.4-0.3s-0.4-0.1-0.6-0.2
		c-0.2-0.1-0.5-0.1-0.8-0.1s-0.6,0.1-0.9,0.2c-0.3,0.1-0.6,0.2-0.8,0.4c-0.2,0.2-0.4,0.4-0.5,0.7c-0.1,0.2-0.2,0.5-0.2,0.8
		c0,0.6,0.1,1,0.4,1.4c0.3,0.3,0.7,0.7,1.2,1l0.5,0.3c0.2,0.1,0.4,0.2,0.5,0.3c0.2,0.1,0.3,0.2,0.4,0.3c0.1,0.1,0.1,0.3,0.2,0.4
		c0.1,0.1,0.1,0.3,0.1,0.5c0,0.3-0.1,0.5-0.3,0.7c-0.2,0.2-0.5,0.3-0.9,0.3c-0.2,0-0.4,0-0.6-0.1c-0.2,0-0.4-0.1-0.5-0.2
		c-0.1-0.1-0.2-0.2-0.3-0.3c0-0.1-0.1-0.1-0.2-0.2l-0.7,1.1c0.1,0.1,0.2,0.2,0.3,0.3c0.2,0.1,0.3,0.2,0.5,0.3
		c0.2,0.1,0.5,0.1,0.7,0.2c0.3,0.1,0.6,0.1,0.9,0.1c0.8,0,1.5-0.3,1.9-0.7c0.5-0.4,0.7-1,0.7-1.6c0-0.6-0.2-1.1-0.5-1.5
		C123.6,46.1,123.2,45.7,122.6,45.4z"/>
	<path d="M103.4,27.6v5.3l1.4-0.1v-5.4c0-0.6-0.1-1-0.2-1.4c-0.1-0.4-0.3-0.7-0.5-0.9c-0.2-0.2-0.4-0.4-0.7-0.5
		c-0.3-0.1-0.6-0.2-1-0.2c-0.4,0-0.7,0-0.9,0.1c-0.2,0.1-0.4,0.2-0.6,0.3c-0.1,0.1-0.3,0.3-0.4,0.4c-0.1,0.1-0.2,0.2-0.2,0.3v-0.9
		H99v8.2h1.4v-6.3c0.1-0.2,0.3-0.4,0.6-0.6c0.3-0.2,0.6-0.3,1-0.3c0.5,0,0.9,0.2,1.1,0.5C103.3,26.4,103.4,26.9,103.4,27.6z"/>
	<path d="M117.5,48.5c-0.1,0-0.3,0.1-0.4,0.2c-0.1,0.1-0.3,0.1-0.5,0.2c-0.1,0.1-0.4,0.1-0.6,0.1c-0.7,0-1.2-0.2-1.6-0.7
		c-0.3-0.4-0.6-1.1-0.6-2.1h4.2c0.1-0.2,0.1-0.4,0.1-0.7c0-0.2,0-0.5,0-0.9c0-1-0.2-1.7-0.9-2.4c-0.4-0.5-1-0.7-1.8-0.7
		c-0.4,0-0.8,0-1.2,0.2c-0.4,0.2-0.7,0.5-1,0.8s-0.5,0.8-0.7,1.3c-0.1,0.5-0.2,1.2-0.2,1.9c0,0.8,0,1.4,0.2,2c0.2,0.6,0.4,1,0.7,1.4
		c0.3,0.4,0.7,0.6,1.1,0.8c0.4,0.2,0.9,0.3,1.4,0.3c0.4,0,0.7,0,1-0.1c0.3-0.1,0.5-0.2,0.7-0.3c0.2-0.1,0.4-0.2,0.5-0.3
		c0.2-0.1,0.2-0.1,0.3-0.2l-0.5-1C117.7,48.4,117.6,48.4,117.5,48.5z M114.4,43.4c0.3-0.4,0.7-0.6,1.2-0.6c0.4,0,0.7,0.1,1,0.6
		c0.2,0.3,0.3,0.7,0.3,1.3c0,0.1,0,0.2,0,0.3c0,0.1,0,0.1,0,0.2h-3C113.9,44.4,114.1,43.8,114.4,43.4z"/>
	<path d="M151.9,22.7c0.3,0,0.5-0.1,0.7-0.3c0.2-0.2,0.3-0.4,0.3-0.7c0-0.3-0.1-0.5-0.3-0.7c-0.2-0.2-0.4-0.3-0.7-0.3
		c-0.3,0-0.5,0.1-0.7,0.3s-0.3,0.4-0.3,0.7c0,0.3,0.1,0.5,0.3,0.7C151.4,22.6,151.6,22.7,151.9,22.7z"/>
	<path d="M88.3,38.9c-0.1,0.1-0.2,0.3-0.2,0.6c0,0.2,0,0.4,0.2,0.6c0.2,0.1,0.4,0.2,0.6,0.2c0.2,0,0.5-0.1,0.6-0.2
		c0.1-0.1,0.2-0.3,0.2-0.6s-0.1-0.5-0.2-0.6c-0.2-0.1-0.4-0.2-0.6-0.2C88.7,38.7,88.5,38.7,88.3,38.9z"/>
	<path d="M112.7,32.9V20.7l-1.4,0.2v3.9c-0.1,0-0.3-0.1-0.5-0.1c-0.2-0.1-0.4-0.1-0.7-0.1c-0.4,0-0.9,0.1-1.3,0.2
		c-0.5,0.1-0.9,0.4-1.2,0.7c-0.3,0.3-0.6,0.7-0.8,1.3s-0.3,1.3-0.3,2.1c0,0.8,0.1,1.4,0.3,2c0.1,0.5,0.3,1,0.6,1.3
		c0.3,0.3,0.6,0.5,0.9,0.7c0.3,0.1,0.7,0.2,1.1,0.2c0.3,0,0.6,0,0.8-0.1c0.2-0.1,0.4-0.2,0.6-0.3c0.2-0.2,0.3-0.3,0.4-0.4
		s0.2-0.2,0.2-0.3v0.9H112.7z M111.2,31c0,0-0.1,0.1-0.2,0.2c-0.1,0.1-0.2,0.2-0.3,0.3c-0.1,0.1-0.2,0.1-0.4,0.2
		c-0.2,0.1-0.4,0.1-0.6,0.1s-0.4,0-0.7-0.1c-0.2-0.1-0.4-0.3-0.6-0.5c-0.2-0.2-0.3-0.5-0.4-0.9c-0.1-0.4-0.1-0.8-0.1-1.4
		c0-0.6,0.1-1.1,0.2-1.5c0.1-0.4,0.3-0.8,0.5-1c0.2-0.2,0.4-0.4,0.7-0.5c0.3-0.1,0.6-0.2,0.9-0.2c0.2,0,0.4,0,0.6,0.1
		c0.1,0.1,0.3,0.1,0.4,0.2V31z"/>
	<path d="M54.2,31.4c1.5,2.3,2.6,2.3,4.3,2.3c-1.4-1.1-2.4-2.5-2.8-3.2L53,26.2c-0.3-1.3-0.9-2.6-2-3.5c0.3-0.1,0.6-0.3,0.8-0.4
		c-1.7,0-3.5-0.9-4.4-0.9c-0.6,0-1,0.4-1,0.8c0,0.5,0.6,1.1,1.6,1.1c0.2,0,0.5,0,0.9-0.1c0.6,0.8,1,1.5,1,2.5c0,1.9-2.2,3.3-4.5,3.3
		c-0.1,0-0.3,0-0.4,0c-0.2-0.5-0.9-1.2-0.9-2.1c0-1.5,1-2.7,1-4.2c0-0.9-0.4-1.5-0.6-1.7c0.3-0.3,0.6-0.6,0.7-0.8
		c-0.2,0.1-0.4,0.1-0.6,0.1c-1.1,0-2-0.3-2.8-0.3c-0.5,0-0.6,0.2-0.6,0.3s0,0.1,0,0.1c-0.2-0.1-0.4-0.1-0.6-0.2
		c-0.3,0-0.5-0.1-0.8-0.1c-1,0-1.4,0.4-1.4,0.8c0,0.3,0.3,0.9,0.5,1.3c0.4-0.2,0.9-0.3,1.1-0.3c0.6,0,1,0.5,1.3,1.2
		c-0.4,0-0.4,0.1-0.8,0.1c-1,0-1.7-0.4-1.9-0.4c0,0.1,0.3,0.5,0.9,0.7c0.8,0.3,1.9,0.4,2.1,0.4c0,0-0.2,0.4-0.4,0.5h-0.1
		c-0.8-0.2-1-0.2-2-0.6c0,0.4,1,1.3,1.9,1.6c-0.8,1-1.7,2-2.2,3.5c-0.1,0-0.3,0-0.4,0c-2.3,0-4.5-1.5-4.5-3.3c0-1,0.4-1.7,1-2.5
		c0.3,0.1,0.6,0.1,0.9,0.1c1,0,1.6-0.5,1.6-1.1c0-0.5-0.4-0.8-1-0.8c-1,0-2.7,0.9-4.4,0.9c0.2,0.1,0.5,0.3,0.8,0.4
		c-1,0.9-1.7,2.2-2,3.5L28,30.5c-0.5,0.7-1.4,2.1-2.8,3.2c1.7,0,2.9,0,4.3-2.3l1.4-2.2c0.1,0.3,0.2,0.6,0.4,0.8l-2.7,4.4
		c-0.5,0.7-1.4,2.1-2.8,3.2c1.7,0,2.9,0,4.3-2.3l2.3-3.8c0.2,0.2,0.4,0.4,0.6,0.5l-3.3,5.3c-0.5,0.7-1.4,2.1-2.8,3.2
		c1.7,0,2.9,0,4.3-2.3l3.2-5.2c0.2,0.1,0.4,0.3,0.7,0.4l-3.9,6.3c-0.5,0.7-1.4,2.1-2.8,3.2c1.7,0,2.9,0,4.3-2.3l4.1-6.5
		c0.2,0.1,0.5,0.2,0.7,0.3L32.8,42c-0.4,0.7-1.4,2.1-2.8,3.2c1.7,0,2.9,0,4.3-2.3l4.9-7.8c0.1,0,0.1,0,0.1,0
		c0.1,0.4,0.2,0.8,0.2,1.2c0,2.5-1.6,4.6-3.5,6.3c0.1,0.1,0.3,0.1,0.5,0.1c0.4,0,0.7,0,0.8-0.1c-0.4,1-1.4,2.3-1.9,3
		c-0.6-0.1-1.6-0.2-2.2-0.2c-0.6,0-0.7,0.4-0.7,0.7c0,0.6,0.3,1,0.6,1.3c0.1-0.3,0.4-0.7,1.5-0.7h0.1c-0.3,0.4-1.4,1.2-1.4,1.9
		c0,0.5,0.5,1.2,1.2,1.2c0-0.1,0-0.3,0-0.4c0-0.6,0.5-1.2,0.9-1.7c0,0.1,0,0.1,0,0.3c0,1.3,0.1,1.9,1,1.9c0.4,0,0.7-0.2,0.8-0.3
		c-0.5-0.5-0.6-0.9-0.6-1.6c0-0.2,0-0.4,0-0.6c0-0.2,0-0.4,0-0.6c0.3,0,0.4,0,0.7,0c0,0,1.2-0.1,1.5,0.5c0.3-0.3,0.8-0.7,0.8-1.2
		c0-0.3-0.1-0.7-0.8-0.7c-0.2,0-1,0.1-1.6,0.1c0.2-0.4,0.9-1.4,1.5-2.2c0.1,0.3,0.2,0.6,0.6,0.9c0-0.5,0.3-2.1,1.1-3
		c0.1,0.6,0.2,1.3,0.2,2.6c0,3.3-0.8,5.8-2.5,6.2c0.2,0.4,0.7,0.7,1.2,0.7c0.6,0,1-0.7,1.3-1.4c0.2,0.5,0.7,1.7,1.2,1.7
		s1-1.2,1.2-1.7c0.3,0.7,0.7,1.4,1.3,1.4c0.5,0,0.9-0.3,1.2-0.7c-1.7-0.5-2.5-2.9-2.5-6.2c0-1.4,0.1-2,0.2-2.6
		c0.8,0.9,1.1,2.5,1.1,3c0.3-0.3,0.5-0.6,0.6-0.9c0.6,0.8,1.4,1.9,1.5,2.2c-0.6,0-1.4-0.1-1.6-0.1c-0.6,0-0.8,0.3-0.8,0.7
		c0,0.5,0.5,0.9,0.8,1.2c0.3-0.6,1.5-0.5,1.5-0.5c0.2,0,0.4,0,0.7,0c0,0.2,0,0.4,0,0.6c0,0.3,0,0.5,0,0.6c0,0.7,0,1.1-0.6,1.6
		c0.1,0.1,0.4,0.3,0.8,0.3c0.8,0,1-0.6,1-1.9c0-0.2,0-0.1,0-0.3c0.4,0.5,0.9,1.1,0.9,1.7c0,0.1,0,0.2,0,0.4c0.7,0,1.2-0.7,1.2-1.2
		c0-0.7-1.1-1.6-1.4-1.9c0.1,0,0.1,0,0.1,0c1.2,0,1.4,0.4,1.5,0.7c0.3-0.3,0.6-0.7,0.6-1.3c0-0.3-0.1-0.7-0.7-0.7
		c-0.6,0-1.5,0.1-2.2,0.2c-0.5-0.7-1.4-2-1.9-3c0.2,0,0.4,0.1,0.8,0.1c0.2,0,0.4,0,0.5-0.1c-1.9-1.7-3.5-3.8-3.5-6.3
		c0-0.4,0.1-0.8,0.2-1.2h0.1l4.9,7.8c1.5,2.3,2.6,2.3,4.3,2.3c-1.4-1.1-2.4-2.5-2.8-3.2l-4.6-7.3c0.2-0.1,0.5-0.2,0.7-0.3l4.1,6.5
		c1.5,2.3,2.6,2.3,4.3,2.3c-1.4-1.1-2.4-2.5-2.8-3.2l-3.9-6.3c0.2-0.1,0.4-0.3,0.7-0.4l3.2,5.2c1.5,2.3,2.6,2.3,4.3,2.3
		c-1.4-1.1-2.4-2.5-2.8-3.2l-3.3-5.3c0.2-0.2,0.4-0.4,0.6-0.5l2.3,3.8c1.5,2.3,2.6,2.3,4.3,2.3c-1.4-1.1-2.4-2.5-2.8-3.2l-2.7-4.4
		c0.1-0.3,0.3-0.5,0.4-0.8L54.2,31.4z M32.3,26.4c0-1.6,1.2-2.9,1.6-3.3c0.1,0,0.2,0,0.3,0.1c-0.4,0.5-1.2,1.4-1.2,2.6
		c0,2.4,2.5,4.5,5.4,4.5c0,0.2,0,0.4,0,0.6c0,0.4,0,0.7,0.1,1C35.2,31.9,32.3,29.3,32.3,26.4z M36.8,46c1,0.1,1.4,0,1.7-0.1
		c0.2,0,0.3,0,0.4,0c0.2,0,0.4,0,0.4,0.3c0,0.2-0.2,0.5-0.5,0.7c-0.3-0.3-0.8-0.4-1.5-0.4c-0.3,0-0.7,0.1-1,0.1v0.1
		c0,0.2,0.1,0.4,0.1,0.7v0.3v0.4c0,0.8,0.1,1.2,0.4,1.6c-0.1,0-0.2,0-0.3,0c-0.5,0-0.6-0.2-0.6-1.6c0-0.3,0-0.5,0-0.7v-0.3h-0.1
		c-0.7,0.5-1.5,1.5-1.5,2.3c-0.2-0.1-0.5-0.5-0.5-0.7c0-0.4,0.6-1,1.3-1.7l0.4-0.4l0.1-0.1h-0.1c-0.2,0-0.4-0.1-0.7-0.1
		c-0.8,0-1.3,0.1-1.6,0.5c-0.1-0.2-0.2-0.5-0.2-0.7c0-0.1,0-0.2,0.1-0.3c0.1-0.1,0.2-0.1,0.3-0.1c0.9,0,1.9,0.2,2.3,0.2
		c0.1-0.1,1.7-2.3,2.1-3.4c0.1,0,0.2-0.1,0.4-0.1c0.3,0,0.4,0.2,0.5,0.6C37.6,44.3,37,45.3,36.8,46z M45.6,42.5c0.2,0,0.3,0,0.4,0.1
		c0.4,1.2,2.1,3.3,2.1,3.4c0.4-0.1,1.4-0.2,2.3-0.2c0.1,0,0.2,0,0.3,0.1c0.1,0.1,0.1,0.2,0.1,0.3c0,0.2-0.1,0.6-0.2,0.7
		c-0.3-0.3-0.8-0.5-1.6-0.5c-0.2,0-0.5,0.1-0.7,0.1h-0.1h-0.1l0.5,0.5c0.7,0.7,1.3,1.3,1.3,1.7c0,0.2-0.2,0.6-0.4,0.7
		c0-0.7-0.8-1.7-1.5-2.3h-0.1v0.3c0,0.2,0,0.4,0,0.7c0,1.4-0.1,1.6-0.6,1.6c-0.1,0-0.2,0-0.3,0c0.3-0.3,0.4-0.8,0.4-1.6v-0.4v-0.3
		c0-0.3,0-0.6,0.1-0.7v-0.1h-0.1c-0.2,0-0.6-0.1-1-0.1c-0.7,0-1.2,0.1-1.5,0.4c-0.2-0.2-0.5-0.5-0.5-0.7c0-0.3,0.2-0.3,0.4-0.3
		c0.1,0,0.2,0,0.4,0c0.3,0,0.7,0.1,1.7,0.1H47v-0.1c-0.2-0.7-0.9-1.6-1.9-2.9C45.2,42.7,45.3,42.5,45.6,42.5z M41.8,23.5
		c-0.1-0.4-0.3-0.9-0.6-1.2s-0.7-0.7-1.2-0.7c-0.3,0-0.7,0.1-1,0.2c-0.1-0.2-0.3-0.6-0.3-0.8s0.4-0.4,1-0.4c1.5,0,2.4,0.7,2.4,1.8
		C42.1,22.8,41.9,23.2,41.8,23.5z M42.5,22.1c-0.1-0.3-0.2-0.6-0.4-0.8c0-0.3,0.1-0.6,0.6-0.3c-0.3,0.3-0.1,0.7-0.1,0.7
		s0.5-0.2,0.4-0.6C43.8,21.2,43.3,22.2,42.5,22.1z M45.3,31.9c0-0.3,0.1-0.7,0.1-1c0-0.2,0-0.4,0-0.6c2.8,0,5.3-2.1,5.3-4.5
		c0-1.2-0.8-2.1-1.2-2.6c0.1,0,0.2,0,0.3-0.1c0.4,0.4,1.6,1.7,1.6,3.3C51.4,29.2,48.6,31.9,45.3,31.9z"/>
	<rect x="67.2" y="21.4" width="5" height="28.6"/>
	<rect x="67.2" y="50" class="st1" width="5" height="28.6"/>
	<rect x="67.2" y="78.6" class="st2" width="5" height="28.6"/>
</g>
</svg>
