<?xml version="1.0" encoding="utf-8"?>
<!-- Generator: Adobe Illustrator 25.4.1, SVG Export Plug-In . SVG Version: 6.00 Build 0)  -->
<svg version="1.1" id="Ebene_1" xmlns="http://www.w3.org/2000/svg" xmlns:xlink="http://www.w3.org/1999/xlink" x="0px" y="0px"
	 viewBox="0 0 315 129" style="enable-background:new 0 0 315 129;" xml:space="preserve">
<style type="text/css">
	.st0{fill:#FF0000;}
	.st1{fill:#FFCC00;}
</style>
<g>
	<g id="Name" transform="scale(1,-1) translate(0,-104)">
		<path d="M89,79.9c0-0.4-0.1-0.8-0.2-1.1c-0.1-0.3-0.2-0.6-0.4-0.8c-0.2-0.2-0.4-0.4-0.6-0.5c-0.2-0.1-0.5-0.2-0.7-0.3v0
			c0.3-0.1,0.6-0.2,0.9-0.3c0.3-0.2,0.5-0.4,0.7-0.6c0.2-0.2,0.4-0.5,0.5-0.8c0.1-0.3,0.2-0.7,0.2-1.1c0-0.5-0.1-0.9-0.2-1.3
			c-0.2-0.4-0.4-0.7-0.7-1c-0.3-0.3-0.8-0.5-1.3-0.7c-0.5-0.2-1.1-0.2-1.8-0.2h-2.4v11.7h2.3c0.7,0,1.3-0.1,1.8-0.2
			c0.5-0.1,0.9-0.3,1.2-0.6c0.3-0.3,0.5-0.6,0.7-0.9C89,80.7,89,80.3,89,79.9z M87.5,79.8c0,0.5-0.2,1-0.6,1.3
			c-0.4,0.4-1,0.5-1.8,0.5h-0.8v-4h0.8c0.8,0,1.4,0.2,1.8,0.6C87.3,78.6,87.5,79.1,87.5,79.8z M87.8,74.4c0,0.6-0.2,1.1-0.6,1.5
			c-0.4,0.4-1,0.6-1.8,0.6h-1v-4.1h0.9c0.9,0,1.5,0.2,1.9,0.5C87.6,73.2,87.8,73.7,87.8,74.4z M96.9,71.1h-1.3v0.9h0
			c0-0.1-0.1-0.2-0.2-0.3c-0.1-0.1-0.3-0.3-0.4-0.4c-0.2-0.1-0.4-0.2-0.6-0.3s-0.5-0.1-0.8-0.1c-0.4,0-0.7,0.1-1,0.2
			c-0.3,0.1-0.5,0.3-0.7,0.5s-0.4,0.5-0.5,0.9c-0.1,0.4-0.2,0.8-0.2,1.4v5.4h1.4V74c0-0.7,0.1-1.2,0.3-1.5c0.2-0.3,0.6-0.4,1-0.4
			c0.4,0,0.7,0.1,1,0.3c0.3,0.2,0.5,0.4,0.6,0.6v6.3h1.4V71.1z M103.4,71.1v5.3c0,0.7-0.1,1.2-0.3,1.5c-0.2,0.3-0.6,0.5-1.1,0.5
			c-0.4,0-0.7-0.1-1-0.3c-0.3-0.2-0.5-0.4-0.6-0.6v-6.3H99v8.2h1.3v-0.9h0c0,0.1,0.1,0.2,0.2,0.3c0.1,0.1,0.3,0.3,0.4,0.4
			c0.2,0.1,0.4,0.2,0.6,0.3c0.2,0.1,0.5,0.1,0.9,0.1c0.4,0,0.7-0.1,1-0.2c0.3-0.1,0.5-0.3,0.7-0.5s0.4-0.5,0.5-0.9
			c0.1-0.4,0.2-0.8,0.2-1.4v-5.4H103.4z M106.5,75.1c0,0.8,0.1,1.5,0.3,2.1c0.2,0.6,0.5,1,0.8,1.3c0.3,0.3,0.7,0.6,1.2,0.7
			c0.4,0.1,0.9,0.2,1.3,0.2c0.3,0,0.5,0,0.7-0.1c0.2,0,0.4-0.1,0.5-0.1v3.9l1.4,0.2V71.1h-1.3V72h0c0-0.1-0.1-0.2-0.2-0.3
			c-0.1-0.1-0.2-0.2-0.4-0.4c-0.2-0.1-0.4-0.2-0.6-0.3c-0.2-0.1-0.5-0.1-0.8-0.1c-0.4,0-0.8,0.1-1.1,0.2c-0.3,0.2-0.6,0.4-0.9,0.7
			c-0.3,0.3-0.5,0.8-0.6,1.3C106.6,73.7,106.5,74.4,106.5,75.1z M109.7,72.2c0.2,0,0.4,0,0.6,0.1c0.2,0.1,0.3,0.1,0.4,0.2
			c0.1,0.1,0.2,0.2,0.3,0.3c0.1,0.1,0.2,0.2,0.2,0.2v5c-0.1,0.1-0.3,0.1-0.4,0.2c-0.2,0.1-0.4,0.1-0.6,0.1c-0.3,0-0.6-0.1-0.9-0.2
			c-0.3-0.1-0.5-0.3-0.7-0.5c-0.2-0.2-0.4-0.6-0.5-1c-0.1-0.4-0.2-0.9-0.2-1.5c0-0.6,0-1,0.1-1.4c0.1-0.4,0.2-0.7,0.4-0.9
			c0.2-0.2,0.4-0.4,0.6-0.5C109.3,72.2,109.5,72.2,109.7,72.2z M120,76.5c0-0.4,0-0.7,0-0.9s0-0.5-0.1-0.7h-4.2c0-1,0.3-1.7,0.6-2.1
			c0.4-0.5,0.9-0.7,1.6-0.7c0.2,0,0.5,0,0.6,0.1c0.2,0.1,0.4,0.1,0.5,0.2c0.1,0.1,0.3,0.2,0.4,0.2c0.1,0.1,0.2,0.1,0.2,0.2l0.5-1
			c-0.1-0.1-0.1-0.1-0.3-0.2c-0.1-0.1-0.3-0.2-0.5-0.3c-0.2-0.1-0.4-0.2-0.7-0.3c-0.3-0.1-0.6-0.1-1-0.1c-0.5,0-1,0.1-1.4,0.3
			c-0.4,0.2-0.8,0.4-1.1,0.8c-0.3,0.4-0.5,0.8-0.7,1.4c-0.2,0.5-0.2,1.2-0.2,2c0,0.7,0.1,1.4,0.2,1.9c0.2,0.5,0.4,1,0.7,1.3
			c0.3,0.3,0.6,0.6,1,0.8c0.4,0.2,0.8,0.2,1.2,0.2c0.8,0,1.4-0.2,1.8-0.7C119.8,78.3,120,77.5,120,76.5z M117.4,78.4
			c-0.5,0-0.9-0.2-1.2-0.6s-0.5-1-0.5-1.8h3c0,0.1,0,0.1,0,0.2c0,0.1,0,0.2,0,0.3c0,0.6-0.1,1-0.3,1.3
			C118.2,78.2,117.8,78.4,117.4,78.4z M125.3,77.7c-0.1,0.1-0.3,0.2-0.5,0.4c-0.2,0.2-0.5,0.3-0.9,0.3c-0.4,0-0.6-0.1-0.8-0.3
			c-0.2-0.2-0.3-0.4-0.3-0.6c0-0.3,0.1-0.6,0.3-0.8c0.2-0.2,0.4-0.4,0.8-0.6l0.5-0.3c0.6-0.3,1-0.7,1.3-1.1c0.3-0.4,0.5-0.9,0.5-1.5
			c0-0.6-0.2-1.2-0.7-1.6c-0.4-0.4-1.1-0.7-1.9-0.7c-0.3,0-0.6,0-0.9,0.1c-0.2,0.1-0.5,0.1-0.7,0.2c-0.2,0.1-0.3,0.2-0.5,0.3
			c-0.1,0.1-0.2,0.2-0.3,0.3l0.7,1.1c0.1-0.1,0.2-0.1,0.2-0.2c0.1-0.1,0.2-0.2,0.3-0.3c0.1-0.1,0.3-0.2,0.5-0.2
			c0.2-0.1,0.4-0.1,0.6-0.1c0.4,0,0.7,0.1,0.9,0.3c0.2,0.2,0.3,0.4,0.3,0.7c0,0.2,0,0.4-0.1,0.5c-0.1,0.1-0.1,0.3-0.2,0.4
			c-0.1,0.1-0.2,0.2-0.4,0.3c-0.1,0.1-0.3,0.2-0.5,0.3l-0.5,0.3c-0.5,0.3-0.9,0.7-1.2,1c-0.3,0.4-0.4,0.8-0.4,1.4
			c0,0.3,0.1,0.6,0.2,0.8c0.1,0.3,0.3,0.5,0.5,0.7c0.2,0.2,0.5,0.3,0.8,0.4c0.3,0.1,0.6,0.2,0.9,0.2c0.3,0,0.6,0,0.8-0.1
			c0.2-0.1,0.4-0.1,0.6-0.2c0.2-0.1,0.3-0.2,0.4-0.3c0.1-0.1,0.2-0.2,0.3-0.2L125.3,77.7z M132.1,71.1v5.3c0,0.7-0.1,1.2-0.3,1.4
			c-0.2,0.3-0.5,0.4-0.9,0.4c-0.2,0-0.4,0-0.6-0.1c-0.2-0.1-0.3-0.1-0.5-0.2c-0.1-0.1-0.3-0.2-0.4-0.3c-0.1-0.1-0.2-0.2-0.3-0.3
			v-6.3h-1.4v8.2h1.3v-0.9h0c0.1,0.1,0.1,0.2,0.3,0.3c0.1,0.1,0.3,0.3,0.4,0.4c0.2,0.1,0.4,0.2,0.6,0.3c0.2,0.1,0.5,0.1,0.8,0.1
			c0.9,0,1.6-0.4,2-1.1c0.1,0.1,0.2,0.2,0.3,0.4c0.1,0.1,0.3,0.2,0.5,0.4c0.2,0.1,0.4,0.2,0.6,0.3s0.5,0.1,0.7,0.1
			c1.7,0,2.5-1,2.5-2.9v-5.5h-1.4v5.3c0,0.7-0.1,1.2-0.4,1.4c-0.2,0.3-0.6,0.4-1.1,0.4c-0.4,0-0.7-0.1-1-0.3
			c-0.3-0.2-0.5-0.4-0.6-0.5c0-0.1,0-0.3,0.1-0.4c0-0.1,0-0.3,0-0.5v-5.5H132.1z M141.2,71.1h-1.4v8.2h1.4V71.1z M140.5,81.3
			c-0.3,0-0.5,0.1-0.7,0.3c-0.2,0.2-0.3,0.4-0.3,0.7c0,0.3,0.1,0.5,0.3,0.7c0.2,0.2,0.4,0.3,0.7,0.3c0.3,0,0.5-0.1,0.7-0.3
			c0.2-0.2,0.3-0.4,0.3-0.7c0-0.3-0.1-0.5-0.3-0.7S140.8,81.3,140.5,81.3z M147.7,71.1v5.3c0,0.7-0.1,1.2-0.3,1.5
			c-0.2,0.3-0.6,0.5-1.1,0.5c-0.4,0-0.7-0.1-1-0.3c-0.3-0.2-0.5-0.4-0.6-0.6v-6.3h-1.4v8.2h1.3v-0.9h0c0,0.1,0.1,0.2,0.2,0.3
			c0.1,0.1,0.3,0.3,0.4,0.4c0.2,0.1,0.4,0.2,0.6,0.3s0.5,0.1,0.9,0.1c0.4,0,0.7-0.1,1-0.2c0.3-0.1,0.5-0.3,0.7-0.5s0.4-0.5,0.5-0.9
			c0.1-0.4,0.2-0.8,0.2-1.4v-5.4H147.7z M152.5,71.1h-1.4v8.2h1.4V71.1z M151.9,81.3c-0.3,0-0.5,0.1-0.7,0.3
			c-0.2,0.2-0.3,0.4-0.3,0.7c0,0.3,0.1,0.5,0.3,0.7c0.2,0.2,0.4,0.3,0.7,0.3c0.3,0,0.5-0.1,0.7-0.3c0.2-0.2,0.3-0.4,0.3-0.7
			c0-0.3-0.1-0.5-0.3-0.7S152.1,81.3,151.9,81.3z M158.2,77.7c-0.1,0.1-0.3,0.2-0.5,0.4c-0.2,0.2-0.5,0.3-0.9,0.3
			c-0.4,0-0.6-0.1-0.8-0.3c-0.2-0.2-0.3-0.4-0.3-0.6c0-0.3,0.1-0.6,0.3-0.8c0.2-0.2,0.4-0.4,0.8-0.6l0.5-0.3c0.6-0.3,1-0.7,1.3-1.1
			c0.3-0.4,0.5-0.9,0.5-1.5c0-0.6-0.2-1.2-0.7-1.6c-0.4-0.4-1.1-0.7-1.9-0.7c-0.3,0-0.6,0-0.9,0.1s-0.5,0.1-0.7,0.2
			c-0.2,0.1-0.3,0.2-0.5,0.3c-0.1,0.1-0.2,0.2-0.3,0.3l0.7,1.1c0.1-0.1,0.2-0.1,0.2-0.2c0.1-0.1,0.2-0.2,0.3-0.3
			c0.1-0.1,0.3-0.2,0.5-0.2c0.2-0.1,0.4-0.1,0.6-0.1c0.4,0,0.7,0.1,0.9,0.3c0.2,0.2,0.3,0.4,0.3,0.7c0,0.2,0,0.4-0.1,0.5
			c-0.1,0.1-0.1,0.3-0.2,0.4c-0.1,0.1-0.2,0.2-0.4,0.3s-0.3,0.2-0.5,0.3L156,75c-0.5,0.3-0.9,0.7-1.2,1c-0.3,0.4-0.4,0.8-0.4,1.4
			c0,0.3,0.1,0.6,0.2,0.8c0.1,0.3,0.3,0.5,0.5,0.7c0.2,0.2,0.5,0.3,0.8,0.4c0.3,0.1,0.6,0.2,0.9,0.2c0.3,0,0.6,0,0.8-0.1
			c0.2-0.1,0.4-0.1,0.6-0.2c0.2-0.1,0.3-0.2,0.4-0.3c0.1-0.1,0.2-0.2,0.3-0.2L158.2,77.7z M164.1,78.2h-1.8v-4.5
			c0-0.6,0.1-1,0.2-1.2c0.1-0.2,0.4-0.3,0.7-0.3c0.2,0,0.4,0,0.5,0.1c0.1,0.1,0.3,0.1,0.3,0.2l0.2-1.1c-0.1,0-0.2-0.1-0.4-0.2
			c-0.2-0.1-0.5-0.1-0.9-0.1c-0.7,0-1.2,0.2-1.6,0.6c-0.4,0.4-0.5,1-0.5,1.9v4.7h-1v0.9l1,0.2l0.2,2.3h1.2v-2.3h2L164.1,78.2z
			 M170.8,76.5c0-0.4,0-0.7,0-0.9c0-0.3,0-0.5-0.1-0.7h-4.2c0-1,0.3-1.7,0.6-2.1c0.4-0.5,0.9-0.7,1.6-0.7c0.2,0,0.5,0,0.6,0.1
			c0.2,0.1,0.4,0.1,0.5,0.2c0.1,0.1,0.3,0.2,0.4,0.2c0.1,0.1,0.2,0.1,0.2,0.2l0.5-1c-0.1-0.1-0.1-0.1-0.3-0.2
			c-0.1-0.1-0.3-0.2-0.5-0.3c-0.2-0.1-0.4-0.2-0.7-0.3s-0.6-0.1-1-0.1c-0.5,0-1,0.1-1.4,0.3c-0.4,0.2-0.8,0.4-1.1,0.8
			c-0.3,0.4-0.5,0.8-0.7,1.4c-0.2,0.5-0.2,1.2-0.2,2c0,0.7,0.1,1.4,0.2,1.9c0.2,0.5,0.4,1,0.7,1.3c0.3,0.3,0.6,0.6,1,0.8
			c0.4,0.2,0.8,0.2,1.2,0.2c0.8,0,1.4-0.2,1.8-0.7C170.5,78.3,170.8,77.5,170.8,76.5z M168.2,78.4c-0.5,0-0.9-0.2-1.2-0.6
			s-0.5-1-0.5-1.8h3c0,0.1,0,0.1,0,0.2c0,0.1,0,0.2,0,0.3c0,0.6-0.1,1-0.3,1.3C168.9,78.2,168.6,78.4,168.2,78.4z M176.2,78.1
			c0,0-0.1,0.1-0.2,0.1s-0.3,0.1-0.5,0.1c-0.4,0-0.8-0.1-1-0.3c-0.2-0.2-0.4-0.5-0.5-0.8v-6h-1.4v8.2h1.3v-1.1h0
			c0.1,0.2,0.1,0.3,0.2,0.5s0.2,0.3,0.3,0.4c0.1,0.1,0.3,0.2,0.5,0.3c0.2,0.1,0.4,0.1,0.7,0.1c0.2,0,0.3,0,0.5-0.1
			c0.1,0,0.2-0.1,0.3-0.1L176.2,78.1z M178.9,71.1h-1.4v8.2h1.4V71.1z M178.3,81.3c-0.3,0-0.5,0.1-0.7,0.3c-0.2,0.2-0.3,0.4-0.3,0.7
			c0,0.3,0.1,0.5,0.3,0.7c0.2,0.2,0.4,0.3,0.7,0.3c0.3,0,0.5-0.1,0.7-0.3c0.2-0.2,0.3-0.4,0.3-0.7c0-0.3-0.1-0.5-0.3-0.7
			S178.5,81.3,178.3,81.3z M186.8,71.1h-1.3v0.9h0c0-0.1-0.1-0.2-0.2-0.3c-0.1-0.1-0.3-0.3-0.4-0.4c-0.2-0.1-0.4-0.2-0.6-0.3
			s-0.5-0.1-0.8-0.1c-0.4,0-0.7,0.1-1,0.2c-0.3,0.1-0.5,0.3-0.7,0.5c-0.2,0.2-0.4,0.5-0.5,0.9c-0.1,0.4-0.2,0.8-0.2,1.4v5.4h1.4V74
			c0-0.7,0.1-1.2,0.3-1.5c0.2-0.3,0.6-0.4,1-0.4c0.4,0,0.7,0.1,1,0.3c0.3,0.2,0.5,0.4,0.6,0.6v6.3h1.4V71.1z M193.1,71.1v5.3
			c0,0.7-0.1,1.2-0.3,1.4c-0.2,0.3-0.5,0.4-0.9,0.4c-0.2,0-0.4,0-0.6-0.1c-0.2-0.1-0.3-0.1-0.5-0.2c-0.1-0.1-0.3-0.2-0.4-0.3
			c-0.1-0.1-0.2-0.2-0.3-0.3v-6.3h-1.4v8.2h1.3v-0.9h0c0.1,0.1,0.1,0.2,0.3,0.3c0.1,0.1,0.3,0.3,0.4,0.4c0.2,0.1,0.4,0.2,0.6,0.3
			c0.2,0.1,0.5,0.1,0.8,0.1c0.9,0,1.6-0.4,2-1.1c0.1,0.1,0.2,0.2,0.3,0.4c0.1,0.1,0.3,0.2,0.5,0.4c0.2,0.1,0.4,0.2,0.6,0.3
			s0.5,0.1,0.7,0.1c1.7,0,2.5-1,2.5-2.9v-5.5h-1.4v5.3c0,0.7-0.1,1.2-0.4,1.4s-0.6,0.4-1.1,0.4c-0.4,0-0.7-0.1-1-0.3
			c-0.3-0.2-0.5-0.4-0.6-0.5c0-0.1,0-0.3,0.1-0.4c0-0.1,0-0.3,0-0.5v-5.5H193.1z M82.2,58c0,0.8,0.1,1.5,0.3,2.1
			c0.2,0.6,0.5,1,0.8,1.3c0.3,0.3,0.7,0.6,1.2,0.7c0.4,0.1,0.9,0.2,1.3,0.2c0.3,0,0.5,0,0.7-0.1c0.2,0,0.4-0.1,0.5-0.1V66l1.4,0.2
			V54h-1.3v0.9h0c0-0.1-0.1-0.2-0.2-0.3c-0.1-0.1-0.2-0.2-0.4-0.4s-0.4-0.2-0.6-0.3c-0.2-0.1-0.5-0.1-0.8-0.1
			c-0.4,0-0.8,0.1-1.1,0.2c-0.3,0.2-0.6,0.4-0.9,0.7c-0.3,0.3-0.5,0.8-0.6,1.3C82.3,56.6,82.2,57.2,82.2,58z M85.4,55
			c0.2,0,0.4,0,0.6,0.1c0.2,0.1,0.3,0.1,0.4,0.2c0.1,0.1,0.2,0.2,0.3,0.3c0.1,0.1,0.2,0.2,0.2,0.2v5c-0.1,0.1-0.3,0.1-0.4,0.2
			c-0.2,0.1-0.4,0.1-0.6,0.1c-0.3,0-0.6-0.1-0.9-0.2c-0.3-0.1-0.5-0.3-0.7-0.5c-0.2-0.2-0.4-0.6-0.5-1c-0.1-0.4-0.2-0.9-0.2-1.5
			c0-0.6,0-1,0.1-1.4c0.1-0.4,0.2-0.7,0.4-0.9c0.2-0.2,0.4-0.4,0.6-0.5C85,55.1,85.2,55,85.4,55z M95.7,59.4c0-0.4,0-0.7,0-0.9
			c0-0.3,0-0.5-0.1-0.7h-4.2c0-1,0.3-1.7,0.6-2.1c0.4-0.5,0.9-0.7,1.6-0.7c0.2,0,0.5,0,0.6,0.1c0.2,0.1,0.4,0.1,0.5,0.2
			c0.1,0.1,0.3,0.2,0.4,0.2c0.1,0.1,0.2,0.1,0.2,0.2l0.5-1c-0.1-0.1-0.1-0.1-0.3-0.2c-0.1-0.1-0.3-0.2-0.5-0.3
			c-0.2-0.1-0.4-0.2-0.7-0.3c-0.3-0.1-0.6-0.1-1-0.1c-0.5,0-1,0.1-1.4,0.3c-0.4,0.2-0.8,0.4-1.1,0.8c-0.3,0.4-0.5,0.8-0.7,1.4
			c-0.2,0.5-0.2,1.2-0.2,2c0,0.7,0.1,1.4,0.2,1.9c0.2,0.5,0.4,1,0.7,1.3c0.3,0.3,0.6,0.6,1,0.8c0.4,0.2,0.8,0.2,1.2,0.2
			c0.8,0,1.4-0.2,1.8-0.7C95.5,61.1,95.7,60.4,95.7,59.4z M93.1,61.2c-0.5,0-0.9-0.2-1.2-0.6c-0.3-0.4-0.5-1-0.5-1.8h3
			c0,0.1,0,0.1,0,0.2c0,0.1,0,0.2,0,0.3c0,0.6-0.1,1-0.3,1.3C93.9,61.1,93.5,61.2,93.1,61.2z M101.1,60.9c0,0-0.1,0.1-0.2,0.1
			c-0.1,0-0.3,0.1-0.5,0.1c-0.4,0-0.8-0.1-1-0.3c-0.2-0.2-0.4-0.5-0.5-0.8v-6h-1.4v8.2h1.3V61h0c0.1,0.2,0.1,0.3,0.2,0.5
			c0.1,0.2,0.2,0.3,0.3,0.4s0.3,0.2,0.5,0.3c0.2,0.1,0.4,0.1,0.7,0.1c0.2,0,0.3,0,0.5-0.1c0.1,0,0.2-0.1,0.3-0.1L101.1,60.9z
			 M108.1,56.6c0-0.5-0.1-0.9-0.2-1.3c-0.1-0.4-0.3-0.6-0.5-0.9c-0.2-0.2-0.5-0.4-0.8-0.5c-0.3-0.1-0.7-0.1-1.1-0.1
			c-0.3,0-0.5,0-0.7,0.1c-0.2,0.1-0.3,0.1-0.4,0.2l0.2,1.2c0.1,0,0.2-0.1,0.3-0.1c0.1,0,0.3-0.1,0.5-0.1c0.4,0,0.7,0.1,0.9,0.4
			c0.2,0.2,0.3,0.7,0.3,1.3v8.9h1.5V56.6z M116.1,54h-1.3v0.9h0c0-0.1-0.1-0.2-0.2-0.3c-0.1-0.1-0.3-0.3-0.4-0.4
			c-0.2-0.1-0.4-0.2-0.6-0.3s-0.5-0.1-0.8-0.1c-0.4,0-0.7,0.1-1,0.2c-0.3,0.1-0.5,0.3-0.7,0.5c-0.2,0.2-0.4,0.5-0.5,0.9
			c-0.1,0.4-0.2,0.8-0.2,1.4v5.4h1.4v-5.3c0-0.7,0.1-1.2,0.3-1.5c0.2-0.3,0.6-0.4,1-0.4c0.4,0,0.7,0.1,1,0.3
			c0.3,0.2,0.5,0.4,0.6,0.6v6.3h1.4V54z M121.8,60.5c-0.1,0.1-0.3,0.2-0.5,0.4c-0.2,0.2-0.5,0.3-0.9,0.3c-0.4,0-0.6-0.1-0.8-0.3
			c-0.2-0.2-0.3-0.4-0.3-0.6c0-0.3,0.1-0.6,0.3-0.8c0.2-0.2,0.4-0.4,0.8-0.6l0.5-0.3c0.6-0.3,1-0.7,1.3-1.1c0.3-0.4,0.5-0.9,0.5-1.5
			c0-0.6-0.2-1.2-0.7-1.6c-0.4-0.4-1.1-0.7-1.9-0.7c-0.3,0-0.6,0-0.9,0.1c-0.2,0.1-0.5,0.1-0.7,0.2c-0.2,0.1-0.3,0.2-0.5,0.3
			c-0.1,0.1-0.2,0.2-0.3,0.3l0.7,1.1c0.1-0.1,0.2-0.1,0.2-0.2c0.1-0.1,0.2-0.2,0.3-0.3c0.1-0.1,0.3-0.2,0.5-0.2
			c0.2-0.1,0.4-0.1,0.6-0.1c0.4,0,0.7,0.1,0.9,0.3c0.2,0.2,0.3,0.4,0.3,0.7c0,0.2,0,0.4-0.1,0.5c-0.1,0.1-0.1,0.3-0.2,0.4
			c-0.1,0.1-0.2,0.2-0.4,0.3c-0.1,0.1-0.3,0.2-0.5,0.3l-0.5,0.3c-0.5,0.3-0.9,0.7-1.2,1c-0.3,0.4-0.4,0.8-0.4,1.4
			c0,0.3,0.1,0.6,0.2,0.8c0.1,0.3,0.3,0.5,0.5,0.7c0.2,0.2,0.5,0.3,0.8,0.4c0.3,0.1,0.6,0.2,0.9,0.2c0.3,0,0.6,0,0.8-0.1
			c0.2-0.1,0.4-0.1,0.6-0.2c0.2-0.1,0.3-0.2,0.4-0.3c0.1-0.1,0.2-0.2,0.3-0.2L121.8,60.5z M127.7,61h-1.8v-4.5c0-0.6,0.1-1,0.2-1.2
			c0.1-0.2,0.4-0.3,0.7-0.3c0.2,0,0.4,0,0.5,0.1c0.1,0.1,0.3,0.1,0.3,0.2l0.2-1.1c-0.1,0-0.2-0.1-0.4-0.2c-0.2-0.1-0.5-0.1-0.9-0.1
			c-0.7,0-1.2,0.2-1.6,0.6c-0.4,0.4-0.5,1-0.5,1.9V61h-1v0.9l1,0.2l0.2,2.3h1.2v-2.3h2L127.7,61z M130.6,54h-1.4v8.2h1.4V54z
			 M130,64.1c-0.3,0-0.5,0.1-0.7,0.3c-0.2,0.2-0.3,0.4-0.3,0.7c0,0.3,0.1,0.5,0.3,0.7c0.2,0.2,0.4,0.3,0.7,0.3
			c0.3,0,0.5-0.1,0.7-0.3c0.2-0.2,0.3-0.4,0.3-0.7c0-0.3-0.1-0.5-0.3-0.7C130.4,64.2,130.2,64.1,130,64.1z M137.3,61.3l-3.3-6.1v0
			h3.5l-0.1-1.2h-5.2v0.9l3.4,6.1v0h-3.2v1.1h4.9V61.3z M148.4,54h-1.3v0.9h0c0-0.1-0.1-0.2-0.2-0.3c-0.1-0.1-0.3-0.3-0.4-0.4
			c-0.2-0.1-0.4-0.2-0.6-0.3s-0.5-0.1-0.8-0.1c-0.4,0-0.7,0.1-1,0.2c-0.3,0.1-0.5,0.3-0.7,0.5c-0.2,0.2-0.4,0.5-0.5,0.9
			c-0.1,0.4-0.2,0.8-0.2,1.4v5.4h1.4v-5.3c0-0.7,0.1-1.2,0.3-1.5c0.2-0.3,0.6-0.4,1-0.4c0.4,0,0.7,0.1,1,0.3
			c0.3,0.2,0.5,0.4,0.6,0.6v6.3h1.4V54z M154.9,54v5.3c0,0.7-0.1,1.2-0.3,1.5c-0.2,0.3-0.6,0.5-1.1,0.5c-0.4,0-0.7-0.1-1-0.3
			c-0.3-0.2-0.5-0.4-0.6-0.6V54h-1.4v8.2h1.3v-0.9h0c0,0.1,0.1,0.2,0.2,0.3c0.1,0.1,0.3,0.3,0.4,0.4c0.2,0.1,0.4,0.2,0.6,0.3
			s0.5,0.1,0.9,0.1c0.4,0,0.7-0.1,1-0.2c0.3-0.1,0.5-0.3,0.7-0.5c0.2-0.2,0.4-0.5,0.5-0.9c0.1-0.4,0.2-0.8,0.2-1.4V54H154.9z
			 M158,58c0,0.8,0.1,1.5,0.3,2.1c0.2,0.6,0.5,1,0.8,1.3c0.3,0.3,0.7,0.6,1.2,0.7c0.4,0.1,0.9,0.2,1.3,0.2c0.3,0,0.5,0,0.7-0.1
			c0.2,0,0.4-0.1,0.5-0.1V66l1.4,0.2V54h-1.3v0.9h0c0-0.1-0.1-0.2-0.2-0.3c-0.1-0.1-0.2-0.2-0.4-0.4c-0.2-0.1-0.4-0.2-0.6-0.3
			c-0.2-0.1-0.5-0.1-0.8-0.1c-0.4,0-0.8,0.1-1.1,0.2c-0.3,0.2-0.6,0.4-0.9,0.7c-0.3,0.3-0.5,0.8-0.6,1.3C158.1,56.6,158,57.2,158,58
			z M161.2,55c0.2,0,0.4,0,0.6,0.1c0.2,0.1,0.3,0.1,0.4,0.2c0.1,0.1,0.2,0.2,0.3,0.3c0.1,0.1,0.2,0.2,0.2,0.2v5
			c-0.1,0.1-0.3,0.1-0.4,0.2c-0.2,0.1-0.4,0.1-0.6,0.1c-0.3,0-0.6-0.1-0.9-0.2c-0.3-0.1-0.5-0.3-0.7-0.5s-0.4-0.6-0.5-1
			c-0.1-0.4-0.2-0.9-0.2-1.5c0-0.6,0-1,0.1-1.4c0.1-0.4,0.2-0.7,0.4-0.9c0.2-0.2,0.4-0.4,0.6-0.5C160.7,55.1,161,55,161.2,55z
			 M86,43.9h-1.7v-7H83v7h-1v0.9l1,0.2v1.6c0,0.4,0.1,0.8,0.2,1.1c0.1,0.3,0.3,0.6,0.5,0.8c0.2,0.2,0.4,0.4,0.7,0.4
			c0.3,0.1,0.6,0.1,0.9,0.1c0.3,0,0.5,0,0.7-0.1c0.2-0.1,0.3-0.1,0.4-0.2l-0.3-1.1c-0.1,0-0.2,0.1-0.3,0.1c-0.1,0.1-0.3,0.1-0.5,0.1
			c-0.3,0-0.6-0.1-0.7-0.3c-0.2-0.2-0.3-0.6-0.3-1.1V45h1.8L86,43.9z M93.1,36.8h-1.3v0.9h0c0-0.1-0.1-0.2-0.2-0.3
			c-0.1-0.1-0.3-0.3-0.4-0.4c-0.2-0.1-0.4-0.2-0.6-0.3c-0.2-0.1-0.5-0.1-0.8-0.1c-0.4,0-0.7,0.1-1,0.2c-0.3,0.1-0.5,0.3-0.7,0.5
			c-0.2,0.2-0.4,0.5-0.5,0.9c-0.1,0.4-0.2,0.8-0.2,1.4V45h1.4v-5.3c0-0.7,0.1-1.2,0.3-1.5c0.2-0.3,0.6-0.4,1-0.4
			c0.4,0,0.7,0.1,1,0.3c0.3,0.2,0.5,0.4,0.6,0.6V45h1.4V36.8z M89.7,47.4c0-0.3-0.1-0.5-0.2-0.6s-0.4-0.2-0.6-0.2
			c-0.2,0-0.4,0.1-0.6,0.2s-0.2,0.4-0.2,0.6c0,0.3,0.1,0.5,0.2,0.6c0.2,0.2,0.4,0.2,0.6,0.2c0.2,0,0.4-0.1,0.6-0.2
			C89.6,47.8,89.7,47.6,89.7,47.4z M92.3,47.4c0-0.3-0.1-0.5-0.2-0.6s-0.4-0.2-0.6-0.2s-0.4,0.1-0.6,0.2c-0.2,0.2-0.2,0.4-0.2,0.6
			c0,0.3,0.1,0.5,0.2,0.6c0.2,0.2,0.4,0.2,0.6,0.2s0.4-0.1,0.6-0.2C92.3,47.8,92.3,47.6,92.3,47.4z M98.8,43.8c0,0-0.1,0.1-0.2,0.1
			c-0.1,0-0.3,0.1-0.5,0.1c-0.4,0-0.8-0.1-1-0.3c-0.2-0.2-0.4-0.5-0.5-0.8v-6h-1.4V45h1.3v-1.1h0c0.1,0.2,0.1,0.3,0.2,0.5
			c0.1,0.2,0.2,0.3,0.3,0.4c0.1,0.1,0.3,0.2,0.5,0.3c0.2,0.1,0.4,0.1,0.7,0.1c0.2,0,0.3,0,0.5-0.1c0.1,0,0.2-0.1,0.3-0.1L98.8,43.8z
			 M110.8,48.6L107,36.8h-1.2l-3.7,11.7h1.6l2.2-7.8c0.1-0.4,0.2-0.8,0.3-1.2c0.1-0.4,0.2-0.7,0.2-1h0c0,0.3,0.1,0.6,0.2,1
			c0.1,0.4,0.2,0.8,0.3,1.2l2.3,7.8H110.8z M116.5,42.2c0-0.4,0-0.7,0-0.9c0-0.3,0-0.5-0.1-0.7h-4.2c0-1,0.3-1.7,0.6-2.1
			c0.4-0.5,0.9-0.7,1.6-0.7c0.2,0,0.5,0,0.6,0.1c0.2,0.1,0.4,0.1,0.5,0.2c0.1,0.1,0.3,0.2,0.4,0.2c0.1,0.1,0.2,0.1,0.2,0.2l0.5-1
			c-0.1-0.1-0.1-0.1-0.3-0.2c-0.1-0.1-0.3-0.2-0.5-0.3c-0.2-0.1-0.4-0.2-0.7-0.3c-0.3-0.1-0.6-0.1-1-0.1c-0.5,0-1,0.1-1.4,0.3
			c-0.4,0.2-0.8,0.4-1.1,0.8c-0.3,0.4-0.5,0.8-0.7,1.4c-0.2,0.5-0.2,1.2-0.2,2c0,0.7,0.1,1.4,0.2,1.9c0.2,0.5,0.4,1,0.7,1.3
			c0.3,0.3,0.6,0.6,1,0.8c0.4,0.2,0.8,0.2,1.2,0.2c0.8,0,1.4-0.2,1.8-0.7C116.2,44,116.5,43.2,116.5,42.2z M113.9,44.1
			c-0.5,0-0.9-0.2-1.2-0.6c-0.3-0.4-0.5-1-0.5-1.8h3c0,0.1,0,0.1,0,0.2c0,0.1,0,0.2,0,0.3c0,0.6-0.1,1-0.3,1.3
			C114.6,43.9,114.3,44.1,113.9,44.1z M121.9,43.8c0,0-0.1,0.1-0.2,0.1c-0.1,0-0.3,0.1-0.5,0.1c-0.4,0-0.8-0.1-1-0.3
			c-0.2-0.2-0.4-0.5-0.5-0.8v-6h-1.4V45h1.3v-1.1h0c0.1,0.2,0.1,0.3,0.2,0.5c0.1,0.2,0.2,0.3,0.3,0.4c0.1,0.1,0.3,0.2,0.5,0.3
			c0.2,0.1,0.4,0.1,0.7,0.1c0.2,0,0.3,0,0.5-0.1c0.1,0,0.2-0.1,0.3-0.1L121.9,43.8z M129.3,41.3c0-0.9-0.1-1.6-0.3-2.2
			c-0.2-0.6-0.5-1.1-0.8-1.4c-0.3-0.4-0.7-0.6-1.2-0.8c-0.5-0.2-0.9-0.2-1.4-0.2c-0.3,0-0.6,0-0.9,0.1c-0.3,0.1-0.5,0.1-0.7,0.2
			c-0.2,0.1-0.4,0.2-0.5,0.3c-0.1,0.1-0.2,0.2-0.3,0.2v11.4l1.4,0.1v-4.8h0c0.1,0.1,0.1,0.2,0.2,0.3c0.1,0.1,0.2,0.2,0.4,0.3
			c0.2,0.1,0.3,0.2,0.6,0.3c0.2,0.1,0.5,0.1,0.7,0.1c0.8,0,1.5-0.3,2-0.9C129.1,43.6,129.3,42.6,129.3,41.3z M127.9,41.1
			c0,1-0.2,1.8-0.5,2.2c-0.3,0.5-0.7,0.7-1.3,0.7c-0.4,0-0.8-0.1-1-0.3c-0.2-0.2-0.4-0.4-0.6-0.6v-5c0.1-0.1,0.2-0.1,0.4-0.2
			c0.2-0.1,0.4-0.1,0.6-0.1c0.3,0,0.6,0.1,0.9,0.2c0.3,0.1,0.5,0.3,0.7,0.5c0.2,0.3,0.4,0.6,0.5,1C127.8,40,127.9,40.5,127.9,41.1z
			 M134.7,43.8c0,0-0.1,0.1-0.2,0.1c-0.1,0-0.3,0.1-0.5,0.1c-0.4,0-0.8-0.1-1-0.3c-0.2-0.2-0.4-0.5-0.5-0.8v-6h-1.4V45h1.3v-1.1h0
			c0.1,0.2,0.1,0.3,0.2,0.5c0.1,0.2,0.2,0.3,0.3,0.4s0.3,0.2,0.5,0.3c0.2,0.1,0.4,0.1,0.7,0.1c0.2,0,0.3,0,0.5-0.1s0.2-0.1,0.3-0.1
			L134.7,43.8z M135.5,38.9c0,0.5,0.1,0.9,0.3,1.2s0.4,0.6,0.7,0.8c0.3,0.2,0.7,0.3,1.1,0.4c0.4,0.1,0.9,0.1,1.3,0.1h0.4v0.8
			c0,0.7-0.1,1.2-0.4,1.4c-0.2,0.3-0.6,0.4-1,0.4c-0.4,0-0.7-0.1-1-0.3c-0.3-0.2-0.5-0.3-0.6-0.5l-0.6,0.9c0.1,0.1,0.2,0.2,0.3,0.3
			c0.1,0.1,0.3,0.2,0.5,0.3s0.4,0.2,0.7,0.3c0.3,0.1,0.6,0.1,0.9,0.1c0.8,0,1.5-0.2,1.9-0.7c0.4-0.5,0.6-1.2,0.6-2.2v-3.7
			c0-0.4,0-0.7,0-1c0-0.3,0-0.6,0.1-0.7h-1.3l-0.1,0.9h0c0-0.1-0.1-0.2-0.2-0.3c-0.1-0.1-0.2-0.2-0.3-0.4c-0.1-0.1-0.3-0.2-0.5-0.3
			c-0.2-0.1-0.4-0.1-0.7-0.1c-0.3,0-0.6,0.1-0.9,0.2c-0.3,0.1-0.5,0.3-0.7,0.5c-0.2,0.2-0.4,0.4-0.5,0.7
			C135.5,38.3,135.5,38.6,135.5,38.9z M137.9,37.8c0.2,0,0.4,0,0.5,0.1c0.1,0.1,0.3,0.1,0.4,0.2c0.1,0.1,0.2,0.2,0.3,0.3
			c0.1,0.1,0.1,0.2,0.2,0.2v1.8l-0.4,0c-0.7,0-1.2-0.1-1.5-0.3c-0.3-0.2-0.5-0.5-0.5-1c0-0.4,0.1-0.7,0.3-0.9
			C137.3,37.9,137.6,37.8,137.9,37.8z M148.4,36.8h-1.3v0.9h0c0-0.1-0.1-0.2-0.2-0.3c-0.1-0.1-0.3-0.3-0.4-0.4
			c-0.2-0.1-0.4-0.2-0.6-0.3c-0.2-0.1-0.5-0.1-0.8-0.1c-0.4,0-0.7,0.1-1,0.2c-0.3,0.1-0.5,0.3-0.7,0.5c-0.2,0.2-0.4,0.5-0.5,0.9
			c-0.1,0.4-0.2,0.8-0.2,1.4V45h1.4v-5.3c0-0.7,0.1-1.2,0.3-1.5c0.2-0.3,0.6-0.4,1-0.4c0.4,0,0.7,0.1,1,0.3c0.3,0.2,0.5,0.4,0.6,0.6
			V45h1.4V36.8z M155.1,43.4c0,0-0.1,0.1-0.2,0.2c-0.1,0.1-0.2,0.1-0.3,0.2c-0.1,0.1-0.2,0.1-0.4,0.2s-0.3,0.1-0.5,0.1
			c-0.3,0-0.6-0.1-0.8-0.2c-0.3-0.1-0.5-0.3-0.7-0.5c-0.2-0.2-0.3-0.5-0.4-0.9c-0.1-0.4-0.2-0.8-0.2-1.4c0-0.6,0-1.1,0.1-1.5
			c0.1-0.4,0.2-0.7,0.4-1c0.2-0.2,0.4-0.4,0.6-0.5c0.2-0.1,0.5-0.2,0.8-0.2c0.4,0,0.7,0.1,1,0.2c0.2,0.1,0.4,0.3,0.5,0.4l0.6-1
			c-0.1-0.1-0.1-0.2-0.2-0.2c-0.1-0.1-0.2-0.2-0.4-0.3c-0.2-0.1-0.4-0.2-0.6-0.2c-0.2-0.1-0.5-0.1-0.8-0.1c-0.5,0-0.9,0.1-1.3,0.2
			c-0.4,0.1-0.7,0.4-1,0.7c-0.3,0.3-0.5,0.8-0.7,1.3c-0.2,0.5-0.3,1.2-0.3,2c0,0.8,0.1,1.4,0.3,2c0.2,0.5,0.5,1,0.8,1.3
			c0.3,0.3,0.7,0.6,1.1,0.7c0.4,0.2,0.8,0.2,1.2,0.2c0.3,0,0.6,0,0.8-0.1c0.2-0.1,0.4-0.1,0.6-0.2c0.2-0.1,0.3-0.2,0.4-0.3
			c0.1-0.1,0.2-0.2,0.3-0.2L155.1,43.4z M161.6,36.8v5.3c0,0.7-0.1,1.2-0.3,1.5c-0.2,0.3-0.6,0.5-1.1,0.5c-0.4,0-0.7-0.1-1-0.3
			s-0.5-0.4-0.6-0.6v-6.3h-1.4v12l1.4,0.2v-4.8h0c0,0.1,0.1,0.2,0.2,0.3c0.1,0.1,0.2,0.2,0.4,0.3c0.2,0.1,0.4,0.2,0.6,0.3
			c0.2,0.1,0.5,0.1,0.9,0.1c0.7,0,1.3-0.2,1.7-0.7c0.4-0.5,0.6-1.2,0.6-2.3v-5.4H161.6z M170.2,42.2c0-0.4,0-0.7,0-0.9
			c0-0.3,0-0.5-0.1-0.7H166c0-1,0.3-1.7,0.6-2.1c0.4-0.5,0.9-0.7,1.6-0.7c0.2,0,0.5,0,0.6,0.1c0.2,0.1,0.4,0.1,0.5,0.2
			c0.1,0.1,0.3,0.2,0.4,0.2c0.1,0.1,0.2,0.1,0.2,0.2l0.5-1c-0.1-0.1-0.1-0.1-0.3-0.2c-0.1-0.1-0.3-0.2-0.5-0.3
			c-0.2-0.1-0.4-0.2-0.7-0.3c-0.3-0.1-0.6-0.1-1-0.1c-0.5,0-1,0.1-1.4,0.3c-0.4,0.2-0.8,0.4-1.1,0.8c-0.3,0.4-0.5,0.8-0.7,1.4
			c-0.2,0.5-0.2,1.2-0.2,2c0,0.7,0.1,1.4,0.2,1.9c0.2,0.5,0.4,1,0.7,1.3c0.3,0.3,0.6,0.6,1,0.8c0.4,0.2,0.8,0.2,1.2,0.2
			c0.8,0,1.4-0.2,1.8-0.7S170.2,43.2,170.2,42.2z M167.7,44.1c-0.5,0-0.9-0.2-1.2-0.6c-0.3-0.4-0.5-1-0.5-1.8h3c0,0.1,0,0.1,0,0.2
			c0,0.1,0,0.2,0,0.3c0,0.6-0.1,1-0.3,1.3C168.4,43.9,168.1,44.1,167.7,44.1z M175.7,43.8c0,0-0.1,0.1-0.2,0.1
			c-0.1,0-0.3,0.1-0.5,0.1c-0.4,0-0.8-0.1-1-0.3c-0.2-0.2-0.4-0.5-0.5-0.8v-6h-1.4V45h1.3v-1.1h0c0.1,0.2,0.1,0.3,0.2,0.5
			c0.1,0.2,0.2,0.3,0.3,0.4s0.3,0.2,0.5,0.3c0.2,0.1,0.4,0.1,0.7,0.1c0.2,0,0.3,0,0.5-0.1c0.1,0,0.2-0.1,0.3-0.1L175.7,43.8z
			 M180.5,43.4c-0.1,0.1-0.3,0.2-0.5,0.4c-0.2,0.2-0.5,0.3-0.9,0.3c-0.4,0-0.6-0.1-0.8-0.3c-0.2-0.2-0.3-0.4-0.3-0.6
			c0-0.3,0.1-0.6,0.3-0.8c0.2-0.2,0.4-0.4,0.8-0.6l0.5-0.3c0.6-0.3,1-0.7,1.3-1.1c0.3-0.4,0.5-0.9,0.5-1.5c0-0.6-0.2-1.2-0.7-1.6
			c-0.4-0.4-1.1-0.7-1.9-0.7c-0.3,0-0.6,0-0.9,0.1c-0.2,0.1-0.5,0.1-0.7,0.2c-0.2,0.1-0.3,0.2-0.5,0.3c-0.1,0.1-0.2,0.2-0.3,0.3
			l0.7,1.1c0.1-0.1,0.2-0.1,0.2-0.2c0.1-0.1,0.2-0.2,0.3-0.3s0.3-0.2,0.5-0.2c0.2-0.1,0.4-0.1,0.6-0.1c0.4,0,0.7,0.1,0.9,0.3
			c0.2,0.2,0.3,0.4,0.3,0.7c0,0.2,0,0.4-0.1,0.5c-0.1,0.1-0.1,0.3-0.2,0.4c-0.1,0.1-0.2,0.2-0.4,0.3c-0.1,0.1-0.3,0.2-0.5,0.3
			l-0.5,0.3c-0.5,0.3-0.9,0.7-1.2,1c-0.3,0.4-0.4,0.8-0.4,1.4c0,0.3,0.1,0.6,0.2,0.8c0.1,0.3,0.3,0.5,0.5,0.7
			c0.2,0.2,0.5,0.3,0.8,0.4c0.3,0.1,0.6,0.2,0.9,0.2c0.3,0,0.6,0,0.8-0.1c0.2-0.1,0.4-0.1,0.6-0.2c0.2-0.1,0.3-0.2,0.4-0.3
			c0.1-0.1,0.2-0.2,0.3-0.2L180.5,43.4z M187.5,43.4c0,0-0.1,0.1-0.2,0.2c-0.1,0.1-0.2,0.1-0.3,0.2c-0.1,0.1-0.2,0.1-0.4,0.2
			s-0.3,0.1-0.5,0.1c-0.3,0-0.6-0.1-0.8-0.2c-0.3-0.1-0.5-0.3-0.7-0.5c-0.2-0.2-0.3-0.5-0.4-0.9C184,42,184,41.6,184,41
			c0-0.6,0-1.1,0.1-1.5c0.1-0.4,0.2-0.7,0.4-1c0.2-0.2,0.4-0.4,0.6-0.5c0.2-0.1,0.5-0.2,0.8-0.2c0.4,0,0.7,0.1,1,0.2
			c0.2,0.1,0.4,0.3,0.5,0.4l0.6-1c-0.1-0.1-0.1-0.2-0.2-0.2c-0.1-0.1-0.2-0.2-0.4-0.3c-0.2-0.1-0.4-0.2-0.6-0.2
			c-0.2-0.1-0.5-0.1-0.8-0.1c-0.5,0-0.9,0.1-1.3,0.2c-0.4,0.1-0.7,0.4-1,0.7c-0.3,0.3-0.5,0.8-0.7,1.3c-0.2,0.5-0.3,1.2-0.3,2
			c0,0.8,0.1,1.4,0.3,2c0.2,0.5,0.5,1,0.8,1.3c0.3,0.3,0.7,0.6,1.1,0.7c0.4,0.2,0.8,0.2,1.2,0.2c0.3,0,0.6,0,0.8-0.1
			c0.2-0.1,0.4-0.1,0.6-0.2c0.2-0.1,0.3-0.2,0.4-0.3c0.1-0.1,0.2-0.2,0.3-0.2L187.5,43.4z M193.9,36.8v5.3c0,0.7-0.1,1.2-0.3,1.5
			c-0.2,0.3-0.6,0.5-1.1,0.5c-0.4,0-0.7-0.1-1-0.3s-0.5-0.4-0.6-0.6v-6.3h-1.4v12l1.4,0.2v-4.8h0c0,0.1,0.1,0.2,0.2,0.3
			c0.1,0.1,0.2,0.2,0.4,0.3c0.2,0.1,0.4,0.2,0.6,0.3c0.2,0.1,0.5,0.1,0.9,0.1c0.7,0,1.3-0.2,1.7-0.7c0.4-0.5,0.6-1.2,0.6-2.3v-5.4
			H193.9z M203.1,36.8h-1.3v0.9h0c0-0.1-0.1-0.2-0.2-0.3c-0.1-0.1-0.3-0.3-0.4-0.4c-0.2-0.1-0.4-0.2-0.6-0.3
			c-0.2-0.1-0.5-0.1-0.8-0.1c-0.4,0-0.7,0.1-1,0.2c-0.3,0.1-0.5,0.3-0.7,0.5c-0.2,0.2-0.4,0.5-0.5,0.9c-0.1,0.4-0.2,0.8-0.2,1.4V45
			h1.4v-5.3c0-0.7,0.1-1.2,0.3-1.5c0.2-0.3,0.6-0.4,1-0.4c0.4,0,0.7,0.1,1,0.3c0.3,0.2,0.5,0.4,0.6,0.6V45h1.4V36.8z M208.7,43.9
			h-1.8v-4.5c0-0.6,0.1-1,0.2-1.2c0.1-0.2,0.4-0.3,0.7-0.3c0.2,0,0.4,0,0.5,0.1c0.1,0.1,0.3,0.1,0.3,0.2l0.2-1.1
			c-0.1,0-0.2-0.1-0.4-0.2c-0.2-0.1-0.5-0.1-0.9-0.1c-0.7,0-1.2,0.2-1.6,0.6c-0.4,0.4-0.5,1-0.5,1.9v4.7h-1v0.9l1,0.2l0.2,2.3h1.2
			V45h2L208.7,43.9z M214.8,44.1l-3.3-6.1v0h3.5l-0.1-1.2h-5.2v0.9l3.4,6.1v0h-3.2V45h4.9V44.1z"/>
	</g>
	<g id="Adler-und-Saeulenelement">
		<path d="M45.3,31.9c0-0.3,0.1-0.7,0.1-1c0-0.2,0-0.4,0-0.6c2.8,0,5.3-2.1,5.3-4.5c0-1.2-0.8-2.1-1.2-2.6c0.1,0,0.2,0,0.3-0.1
			c0.4,0.4,1.6,1.7,1.6,3.3C51.4,29.2,48.6,31.9,45.3,31.9 M42.5,22.1c-0.1-0.3-0.2-0.6-0.4-0.8c0-0.3,0.1-0.6,0.6-0.3
			c-0.3,0.3-0.1,0.7-0.1,0.7s0.5-0.2,0.4-0.6C43.8,21.2,43.3,22.2,42.5,22.1 M41.8,23.5c-0.1-0.4-0.3-0.9-0.6-1.2
			C41,22,40.6,21.7,40,21.7c-0.3,0-0.7,0.1-1,0.2c-0.1-0.2-0.3-0.6-0.3-0.8c0-0.2,0.4-0.4,1-0.4c1.5,0,2.4,0.7,2.4,1.8
			C42.1,22.8,42,23.2,41.8,23.5 M45.6,42.5c0.2,0,0.3,0,0.4,0.1c0.4,1.2,2.1,3.3,2.1,3.4l0,0l0,0c0.4-0.1,1.4-0.2,2.3-0.2h0
			c0.1,0,0.2,0,0.3,0.1c0.1,0.1,0.1,0.2,0.1,0.3c0,0.2-0.1,0.6-0.2,0.7c-0.3-0.3-0.8-0.5-1.6-0.5c-0.2,0-0.5,0.1-0.7,0.1l-0.1,0
			l-0.1,0l0.5,0.5c0.7,0.7,1.3,1.3,1.3,1.7c0,0.2-0.2,0.6-0.4,0.7c0-0.7-0.8-1.7-1.5-2.3l-0.1,0l0,0.3c0,0.2,0,0.4,0,0.7
			c0,1.4-0.1,1.6-0.6,1.6c-0.1,0-0.2,0-0.3,0c0.3-0.3,0.4-0.8,0.4-1.6l0-0.4l0-0.3c0-0.3,0-0.6,0.1-0.7l0-0.1l-0.1,0
			c-0.2,0-0.6-0.1-1-0.1c-0.7,0-1.2,0.1-1.5,0.4c-0.2-0.2-0.5-0.5-0.5-0.7c0-0.3,0.2-0.3,0.4-0.3c0.1,0,0.2,0,0.4,0
			c0.3,0,0.7,0.1,1.7,0.1H47l0-0.1c-0.2-0.7-0.9-1.6-1.9-2.9C45.2,42.7,45.3,42.5,45.6,42.5 M36.8,45.9L36.8,45.9L36.8,45.9
			c1,0.1,1.4,0,1.7-0.1c0.2,0,0.3,0,0.4,0c0.2,0,0.4,0,0.4,0.3c0,0.2-0.2,0.5-0.5,0.7c-0.3-0.3-0.8-0.4-1.5-0.4
			c-0.3,0-0.7,0.1-1,0.1l0,0l0,0l0,0.1c0,0.2,0.1,0.4,0.1,0.7l0,0.3l0,0.4c0,0.8,0.1,1.2,0.4,1.6c-0.1,0-0.2,0-0.3,0
			c-0.5,0-0.6-0.2-0.6-1.6c0-0.3,0-0.5,0-0.7l0-0.3l-0.1,0c-0.7,0.5-1.5,1.5-1.5,2.3c-0.2-0.1-0.5-0.5-0.5-0.7c0-0.4,0.6-1,1.3-1.7
			l0.4-0.4l0.1-0.1l-0.1,0c-0.2,0-0.4-0.1-0.7-0.1c-0.8,0-1.3,0.1-1.6,0.5c-0.1-0.2-0.2-0.5-0.2-0.7c0-0.1,0-0.2,0.1-0.3
			c0.1-0.1,0.2-0.1,0.3-0.1h0c0.9,0,1.9,0.2,2.3,0.2l0,0l0,0c0.1-0.1,1.7-2.3,2.1-3.4c0.1,0,0.2-0.1,0.4-0.1c0.3,0,0.4,0.2,0.5,0.6
			C37.6,44.3,37,45.3,36.8,45.9 M32.4,26.4c0-1.6,1.2-2.9,1.6-3.3c0.1,0,0.2,0,0.3,0.1c-0.4,0.5-1.2,1.4-1.2,2.6
			c0,2.4,2.5,4.5,5.4,4.5c0,0.2,0,0.4,0,0.6c0,0.4,0,0.7,0.1,1C35.2,31.9,32.4,29.3,32.4,26.4 M54.2,31.4c1.5,2.3,2.6,2.3,4.3,2.3
			c-1.4-1.1-2.4-2.5-2.8-3.2l-2.7-4.3c-0.3-1.3-0.9-2.6-2-3.5c0.3-0.1,0.6-0.3,0.8-0.4c-1.7,0-3.5-0.9-4.4-0.9c-0.6,0-1,0.4-1,0.8
			c0,0.5,0.6,1.1,1.6,1.1c0.2,0,0.5,0,0.9-0.1c0.6,0.8,1,1.5,1,2.5c0,1.9-2.2,3.3-4.5,3.3c-0.1,0-0.3,0-0.4,0
			c-0.2-0.5-0.9-1.2-0.9-2.1c0-1.5,1-2.7,1-4.2c0-0.9-0.4-1.5-0.6-1.7c0.3-0.3,0.6-0.6,0.7-0.8c-0.2,0.1-0.4,0.1-0.6,0.1
			c-1.1,0-2-0.3-2.8-0.3c-0.5,0-0.6,0.2-0.6,0.3c0,0.1,0,0.1,0,0.1c-0.2-0.1-0.4-0.1-0.6-0.2c-0.3,0-0.5-0.1-0.8-0.1
			c-1,0-1.4,0.4-1.4,0.8c0,0.3,0.3,0.9,0.5,1.3c0.4-0.2,0.9-0.3,1.1-0.3c0.6,0,1,0.5,1.3,1.2c-0.4,0-0.4,0.1-0.8,0.1
			c-1,0-1.7-0.4-1.9-0.4c0,0,0,0,0,0c0,0.1,0.3,0.5,0.9,0.7c0.8,0.3,1.9,0.4,2.1,0.4c0,0-0.2,0.4-0.4,0.5c0,0-0.1,0-0.1,0
			c-0.8-0.2-1-0.2-2-0.6c0,0,0,0,0,0c0,0.4,1,1.3,1.9,1.6c-0.8,1-1.7,2-2.2,3.5c-0.1,0-0.3,0-0.4,0c-2.3,0-4.5-1.5-4.5-3.3
			c0-1,0.4-1.7,1-2.5c0.3,0.1,0.6,0.1,0.9,0.1c1,0,1.6-0.5,1.6-1.1c0-0.5-0.4-0.8-1-0.8c-1,0-2.7,0.9-4.4,0.9
			c0.2,0.1,0.5,0.3,0.8,0.4c-1,0.9-1.7,2.2-2,3.5L28,30.5c-0.5,0.7-1.4,2.1-2.8,3.2c1.7,0,2.9,0,4.3-2.3l1.4-2.2
			c0.1,0.3,0.2,0.6,0.4,0.8l-2.7,4.4c-0.5,0.7-1.4,2.1-2.8,3.2c1.7,0,2.9,0,4.3-2.3l2.3-3.8c0.2,0.2,0.4,0.4,0.6,0.5l-3.3,5.3
			c-0.5,0.7-1.4,2.1-2.8,3.2c1.7,0,2.9,0,4.3-2.3l3.2-5.2c0.2,0.1,0.4,0.3,0.7,0.4l-3.9,6.3c-0.5,0.7-1.4,2.1-2.8,3.2
			c1.7,0,2.9,0,4.3-2.3l4.1-6.5c0.2,0.1,0.5,0.2,0.7,0.3L32.8,42c-0.4,0.7-1.4,2.1-2.8,3.2c1.7,0,2.9,0,4.3-2.3l4.9-7.8
			c0.1,0,0.1,0,0.1,0c0.1,0.4,0.2,0.8,0.2,1.2c0,2.5-1.6,4.6-3.5,6.3c0.1,0.1,0.3,0.1,0.5,0.1c0.4,0,0.7,0,0.8-0.1
			c-0.4,1-1.4,2.3-1.9,3c-0.6-0.1-1.6-0.2-2.2-0.2c-0.6,0-0.7,0.4-0.7,0.7c0,0.6,0.3,1,0.6,1.3c0.1-0.3,0.4-0.7,1.5-0.7
			c0,0,0.1,0,0.1,0c-0.3,0.4-1.4,1.2-1.4,1.9c0,0.5,0.5,1.2,1.2,1.2c0-0.1,0-0.3,0-0.4c0-0.6,0.5-1.2,0.9-1.7c0,0.1,0,0.1,0,0.3
			c0,1.3,0.1,1.9,1,1.9c0.4,0,0.7-0.2,0.8-0.3c-0.5-0.5-0.6-0.9-0.6-1.6c0-0.2,0-0.4,0-0.6c0-0.2,0-0.4,0-0.6c0.3,0,0.4,0,0.7,0
			c0,0,1.2-0.1,1.5,0.5c0.3-0.3,0.8-0.7,0.8-1.2c0-0.3-0.1-0.7-0.8-0.7c-0.2,0-1,0.1-1.6,0.1c0.2-0.4,0.9-1.4,1.5-2.2
			c0.1,0.3,0.2,0.6,0.6,0.9c0-0.5,0.3-2.1,1.1-3c0.1,0.6,0.2,1.3,0.2,2.6c0,3.3-0.8,5.7-2.5,6.2c0.2,0.4,0.7,0.7,1.2,0.7
			c0.6,0,1-0.7,1.3-1.4c0.2,0.5,0.7,1.7,1.2,1.7s1-1.2,1.2-1.7c0.3,0.7,0.7,1.4,1.3,1.4c0.5,0,0.9-0.3,1.2-0.7
			c-1.7-0.5-2.5-2.9-2.5-6.2c0-1.4,0.1-2,0.2-2.6c0.8,0.9,1.1,2.5,1.1,3c0.3-0.3,0.5-0.6,0.6-0.9c0.6,0.8,1.4,1.9,1.5,2.2
			c-0.6,0-1.4-0.1-1.6-0.1c-0.6,0-0.8,0.3-0.8,0.7c0,0.5,0.5,0.9,0.8,1.2c0.3-0.6,1.5-0.5,1.5-0.5c0.2,0,0.4,0,0.7,0
			c0,0.2,0,0.4,0,0.6c0,0.3,0,0.5,0,0.6c0,0.7,0,1.1-0.6,1.6c0.1,0.1,0.4,0.3,0.8,0.3c0.8,0,1-0.6,1-1.9c0-0.2,0-0.1,0-0.3
			c0.4,0.5,0.9,1.1,0.9,1.7c0,0.1,0,0.2,0,0.4c0.7,0,1.2-0.7,1.2-1.2c0-0.7-1.1-1.6-1.4-1.9c0.1,0,0.1,0,0.1,0
			c1.2,0,1.4,0.4,1.5,0.7c0.3-0.3,0.6-0.7,0.6-1.3c0-0.3-0.1-0.7-0.7-0.7c-0.6,0-1.5,0.1-2.2,0.2c-0.5-0.7-1.4-2-1.9-3
			c0.2,0,0.4,0.1,0.8,0.1c0.2,0,0.4,0,0.5-0.1c-1.9-1.7-3.5-3.8-3.5-6.3c0-0.4,0.1-0.8,0.2-1.2c0,0,0.1,0,0.1,0l4.9,7.8
			c1.5,2.3,2.6,2.3,4.3,2.3c-1.4-1.1-2.4-2.5-2.8-3.2l-4.6-7.3c0.2-0.1,0.5-0.2,0.7-0.3l4.1,6.5c1.5,2.3,2.6,2.3,4.3,2.3
			c-1.4-1.1-2.4-2.5-2.8-3.2l-3.9-6.3c0.2-0.1,0.4-0.3,0.7-0.4l3.2,5.2c1.5,2.3,2.6,2.3,4.3,2.3c-1.4-1.1-2.4-2.5-2.8-3.2l-3.3-5.3
			c0.2-0.2,0.4-0.4,0.6-0.5l2.3,3.8c1.5,2.3,2.6,2.3,4.3,2.3c-1.4-1.1-2.4-2.5-2.8-3.2l-2.7-4.4c0.1-0.3,0.3-0.5,0.4-0.8L54.2,31.4z
			"/>
		<path d="M72.2,50h-5V21.4h5V50z"/>
		<path class="st0" d="M72.2,78.6h-5V50h5V78.6z"/>
		<path class="st1" d="M72.2,107.2h-5V78.6h5V107.2z"/>
	</g>
</g>
</svg>
