<?xml version="1.0" encoding="utf-8"?>
<!-- Generator: Adobe Illustrator 25.4.1, SVG Export Plug-In . SVG Version: 6.00 Build 0)  -->
<svg version="1.1" id="Ebene_1" xmlns="http://www.w3.org/2000/svg" xmlns:xlink="http://www.w3.org/1999/xlink" x="0px" y="0px"
	 viewBox="0 0 315 129" style="enable-background:new 0 0 315 129;" xml:space="preserve">
<style type="text/css">
	.st0{fill:#FF0000;}
	.st1{fill:#FFCC00;}
</style>
<g id="Name" transform="scale(1,-1) translate(0,-104)">
	<path d="M89.7,79.5c0-0.4-0.1-0.8-0.2-1.1c-0.1-0.3-0.2-0.6-0.4-0.8c-0.2-0.2-0.4-0.4-0.6-0.5c-0.2-0.1-0.5-0.2-0.7-0.3v0
		c0.3-0.1,0.6-0.2,0.9-0.3c0.3-0.2,0.5-0.4,0.7-0.6c0.2-0.2,0.4-0.5,0.5-0.8c0.1-0.3,0.2-0.7,0.2-1.1c0-0.5-0.1-0.9-0.2-1.3
		c-0.2-0.4-0.4-0.7-0.7-1c-0.3-0.3-0.8-0.5-1.3-0.7c-0.5-0.2-1.1-0.2-1.8-0.2h-2.4v11.7h2.3c0.7,0,1.3-0.1,1.8-0.2
		c0.5-0.1,0.9-0.3,1.2-0.6s0.5-0.6,0.7-0.9C89.7,80.3,89.7,79.9,89.7,79.5z M88.2,79.4c0,0.5-0.2,1-0.6,1.3c-0.4,0.3-1,0.5-1.8,0.5
		h-0.8v-4h0.8c0.8,0,1.4,0.2,1.8,0.6C88,78.2,88.2,78.8,88.2,79.4z M88.5,74c0,0.6-0.2,1.1-0.6,1.5c-0.4,0.4-1,0.5-1.8,0.5h-1V72H86
		c0.9,0,1.5,0.2,1.9,0.5C88.3,72.9,88.5,73.4,88.5,74z M97.5,70.8h-1.3v0.9h0c0-0.1-0.1-0.2-0.2-0.3c-0.1-0.1-0.3-0.3-0.4-0.4
		c-0.2-0.1-0.4-0.2-0.6-0.3c-0.2-0.1-0.5-0.1-0.8-0.1c-0.4,0-0.7,0.1-1,0.2c-0.3,0.1-0.5,0.3-0.7,0.5c-0.2,0.2-0.4,0.5-0.5,0.9
		c-0.1,0.4-0.2,0.8-0.2,1.4v5.3h1.4v-5.2c0-0.7,0.1-1.2,0.3-1.4c0.2-0.3,0.6-0.4,1-0.4c0.4,0,0.7,0.1,1,0.3c0.3,0.2,0.5,0.4,0.6,0.6
		v6.2h1.4V70.8z M104.1,70.8V76c0,0.7-0.1,1.2-0.3,1.5c-0.2,0.3-0.6,0.4-1.1,0.4c-0.4,0-0.7-0.1-1-0.3c-0.3-0.2-0.5-0.4-0.6-0.6
		v-6.3h-1.4v8.1h1.3V78h0c0,0.1,0.1,0.2,0.2,0.3c0.1,0.1,0.3,0.3,0.4,0.4c0.2,0.1,0.4,0.2,0.6,0.3c0.2,0.1,0.5,0.1,0.8,0.1
		c0.4,0,0.7-0.1,1-0.2c0.3-0.1,0.5-0.3,0.7-0.5c0.2-0.2,0.4-0.5,0.5-0.9c0.1-0.4,0.2-0.8,0.2-1.4v-5.3H104.1z M107.1,74.7
		c0,0.8,0.1,1.5,0.3,2.1c0.2,0.6,0.5,1,0.8,1.3c0.3,0.3,0.7,0.6,1.2,0.7c0.4,0.1,0.9,0.2,1.3,0.2c0.3,0,0.5,0,0.7-0.1
		c0.2,0,0.3-0.1,0.5-0.1v3.9l1.4,0.2V70.8H112v0.9h0c0-0.1-0.1-0.2-0.2-0.3c-0.1-0.1-0.2-0.2-0.4-0.4c-0.2-0.1-0.4-0.2-0.6-0.3
		c-0.2-0.1-0.5-0.1-0.8-0.1c-0.4,0-0.7,0.1-1.1,0.2c-0.3,0.2-0.6,0.4-0.9,0.7c-0.3,0.3-0.5,0.8-0.6,1.3
		C107.2,73.3,107.1,74,107.1,74.7z M110.3,71.8c0.2,0,0.4,0,0.6,0.1c0.2,0.1,0.3,0.1,0.4,0.2c0.1,0.1,0.2,0.2,0.3,0.3
		c0.1,0.1,0.1,0.2,0.2,0.2v5c-0.1,0.1-0.3,0.1-0.4,0.2c-0.2,0.1-0.4,0.1-0.6,0.1c-0.3,0-0.6-0.1-0.9-0.2c-0.3-0.1-0.5-0.3-0.7-0.5
		c-0.2-0.2-0.4-0.6-0.5-1c-0.1-0.4-0.2-0.9-0.2-1.5c0-0.6,0-1,0.1-1.4c0.1-0.4,0.2-0.7,0.4-0.9c0.2-0.2,0.4-0.4,0.6-0.5
		C109.9,71.8,110.1,71.8,110.3,71.8z M120.5,76.2c0-0.3,0-0.7,0-0.9c0-0.3,0-0.5-0.1-0.7h-4.1c0-1,0.3-1.7,0.6-2.1
		c0.4-0.5,0.9-0.7,1.6-0.7c0.2,0,0.5,0,0.6,0.1c0.2,0.1,0.4,0.1,0.5,0.2c0.1,0.1,0.3,0.2,0.4,0.2c0.1,0.1,0.2,0.1,0.2,0.2l0.5-1
		c-0.1-0.1-0.1-0.1-0.3-0.2c-0.1-0.1-0.3-0.2-0.5-0.3c-0.2-0.1-0.4-0.2-0.7-0.3c-0.3-0.1-0.6-0.1-1-0.1c-0.5,0-1,0.1-1.4,0.3
		c-0.4,0.2-0.8,0.4-1,0.8s-0.5,0.8-0.7,1.4c-0.2,0.5-0.2,1.2-0.2,2c0,0.7,0.1,1.3,0.2,1.9c0.2,0.5,0.4,1,0.7,1.3
		c0.3,0.3,0.6,0.6,1,0.8c0.4,0.2,0.8,0.2,1.2,0.2c0.8,0,1.4-0.2,1.8-0.7C120.3,77.9,120.5,77.1,120.5,76.2z M118,78
		c-0.5,0-0.9-0.2-1.2-0.6s-0.5-1-0.5-1.8h3c0,0.1,0,0.1,0,0.2c0,0.1,0,0.2,0,0.3c0,0.6-0.1,1-0.3,1.3C118.7,77.8,118.4,78,118,78z
		 M125.9,77.3c-0.1,0.1-0.3,0.2-0.5,0.4c-0.2,0.2-0.5,0.3-0.9,0.3c-0.4,0-0.6-0.1-0.8-0.3c-0.2-0.2-0.3-0.4-0.3-0.6
		c0-0.3,0.1-0.6,0.3-0.8c0.2-0.2,0.4-0.4,0.8-0.6l0.5-0.3c0.6-0.3,1-0.7,1.3-1.1c0.3-0.4,0.5-0.9,0.5-1.5c0-0.6-0.2-1.2-0.7-1.6
		c-0.4-0.4-1.1-0.7-1.9-0.7c-0.3,0-0.6,0-0.9,0.1c-0.2,0.1-0.5,0.1-0.7,0.2c-0.2,0.1-0.3,0.2-0.5,0.3c-0.1,0.1-0.2,0.2-0.3,0.3
		l0.7,1.1c0.1-0.1,0.1-0.1,0.2-0.2c0.1-0.1,0.2-0.2,0.3-0.3c0.1-0.1,0.3-0.2,0.5-0.2c0.2-0.1,0.4-0.1,0.6-0.1c0.4,0,0.7,0.1,0.9,0.3
		c0.2,0.2,0.3,0.4,0.3,0.7c0,0.2,0,0.4-0.1,0.5c-0.1,0.1-0.1,0.3-0.2,0.4c-0.1,0.1-0.2,0.2-0.4,0.3c-0.1,0.1-0.3,0.2-0.5,0.3
		l-0.5,0.3c-0.5,0.3-0.9,0.7-1.2,1c-0.3,0.4-0.4,0.8-0.4,1.4c0,0.3,0.1,0.6,0.2,0.8c0.1,0.3,0.3,0.5,0.5,0.7
		c0.2,0.2,0.5,0.3,0.8,0.4c0.3,0.1,0.6,0.2,0.9,0.2c0.3,0,0.6,0,0.8-0.1c0.2-0.1,0.4-0.1,0.6-0.2c0.2-0.1,0.3-0.2,0.4-0.3
		c0.1-0.1,0.2-0.2,0.3-0.2L125.9,77.3z M132.5,70.8V76c0,0.7-0.1,1.1-0.3,1.4c-0.2,0.3-0.5,0.4-0.9,0.4c-0.2,0-0.4,0-0.6-0.1
		c-0.2-0.1-0.3-0.1-0.5-0.2c-0.1-0.1-0.3-0.2-0.4-0.3c-0.1-0.1-0.2-0.2-0.3-0.3v-6.3h-1.4v8.1h1.3V78h0c0.1,0.1,0.1,0.2,0.3,0.3
		c0.1,0.1,0.3,0.3,0.4,0.4c0.2,0.1,0.4,0.2,0.6,0.3c0.2,0.1,0.5,0.1,0.8,0.1c0.9,0,1.6-0.4,2-1.1c0.1,0.1,0.2,0.2,0.3,0.4
		c0.1,0.1,0.3,0.2,0.5,0.4c0.2,0.1,0.4,0.2,0.6,0.3s0.5,0.1,0.7,0.1c1.6,0,2.5-1,2.5-2.9v-5.4h-1.4V76c0,0.7-0.1,1.1-0.4,1.4
		c-0.2,0.3-0.6,0.4-1,0.4c-0.4,0-0.7-0.1-1-0.3c-0.3-0.2-0.5-0.4-0.6-0.5c0-0.1,0-0.3,0.1-0.4c0-0.1,0-0.3,0-0.4v-5.4H132.5z
		 M141.6,70.8h-1.4v8.1h1.4V70.8z M140.9,80.9c-0.3,0-0.5,0.1-0.7,0.3s-0.3,0.4-0.3,0.7c0,0.3,0.1,0.5,0.3,0.7
		c0.2,0.2,0.4,0.3,0.7,0.3c0.3,0,0.5-0.1,0.7-0.3c0.2-0.2,0.3-0.4,0.3-0.7c0-0.3-0.1-0.5-0.3-0.7C141.4,81,141.2,80.9,140.9,80.9z
		 M148.1,70.8V76c0,0.7-0.1,1.2-0.3,1.5c-0.2,0.3-0.6,0.4-1.1,0.4c-0.4,0-0.7-0.1-1-0.3c-0.3-0.2-0.5-0.4-0.6-0.6v-6.3h-1.4v8.1h1.3
		V78h0c0,0.1,0.1,0.2,0.2,0.3c0.1,0.1,0.3,0.3,0.4,0.4c0.2,0.1,0.4,0.2,0.6,0.3c0.2,0.1,0.5,0.1,0.8,0.1c0.4,0,0.7-0.1,1-0.2
		c0.3-0.1,0.5-0.3,0.7-0.5c0.2-0.2,0.4-0.5,0.5-0.9c0.1-0.4,0.2-0.8,0.2-1.4v-5.3H148.1z M152.9,70.8h-1.4v8.1h1.4V70.8z
		 M152.2,80.9c-0.3,0-0.5,0.1-0.7,0.3c-0.2,0.2-0.3,0.4-0.3,0.7c0,0.3,0.1,0.5,0.3,0.7c0.2,0.2,0.4,0.3,0.7,0.3
		c0.3,0,0.5-0.1,0.7-0.3c0.2-0.2,0.3-0.4,0.3-0.7c0-0.3-0.1-0.5-0.3-0.7S152.5,80.9,152.2,80.9z M158.5,77.3
		c-0.1,0.1-0.3,0.2-0.5,0.4c-0.2,0.2-0.5,0.3-0.9,0.3c-0.4,0-0.6-0.1-0.8-0.3c-0.2-0.2-0.3-0.4-0.3-0.6c0-0.3,0.1-0.6,0.3-0.8
		c0.2-0.2,0.4-0.4,0.8-0.6l0.5-0.3c0.6-0.3,1-0.7,1.3-1.1c0.3-0.4,0.5-0.9,0.5-1.5c0-0.6-0.2-1.2-0.7-1.6c-0.4-0.4-1.1-0.7-1.9-0.7
		c-0.3,0-0.6,0-0.9,0.1c-0.2,0.1-0.5,0.1-0.7,0.2c-0.2,0.1-0.3,0.2-0.5,0.3c-0.1,0.1-0.2,0.2-0.3,0.3l0.7,1.1
		c0.1-0.1,0.1-0.1,0.2-0.2c0.1-0.1,0.2-0.2,0.3-0.3c0.1-0.1,0.3-0.2,0.5-0.2c0.2-0.1,0.4-0.1,0.6-0.1c0.4,0,0.7,0.1,0.9,0.3
		c0.2,0.2,0.3,0.4,0.3,0.7c0,0.2,0,0.4-0.1,0.5c-0.1,0.1-0.1,0.3-0.2,0.4c-0.1,0.1-0.2,0.2-0.4,0.3c-0.1,0.1-0.3,0.2-0.5,0.3
		l-0.5,0.3c-0.5,0.3-0.9,0.7-1.2,1c-0.3,0.4-0.4,0.8-0.4,1.4c0,0.3,0.1,0.6,0.2,0.8c0.1,0.3,0.3,0.5,0.5,0.7
		c0.2,0.2,0.5,0.3,0.8,0.4c0.3,0.1,0.6,0.2,0.9,0.2c0.3,0,0.6,0,0.8-0.1c0.2-0.1,0.4-0.1,0.6-0.2c0.2-0.1,0.3-0.2,0.4-0.3
		c0.1-0.1,0.2-0.2,0.3-0.2L158.5,77.3z M164.4,77.8h-1.8v-4.5c0-0.6,0.1-1,0.2-1.2c0.1-0.2,0.4-0.3,0.7-0.3c0.2,0,0.4,0,0.5,0.1
		c0.1,0.1,0.3,0.1,0.3,0.2l0.2-1.1c-0.1,0-0.2-0.1-0.4-0.2c-0.2-0.1-0.5-0.1-0.9-0.1c-0.7,0-1.2,0.2-1.6,0.6c-0.3,0.4-0.5,1-0.5,1.9
		v4.7h-1v0.9l1,0.2l0.2,2.3h1.2v-2.3h1.9L164.4,77.8z M171.1,76.2c0-0.3,0-0.7,0-0.9c0-0.3,0-0.5-0.1-0.7h-4.1c0-1,0.3-1.7,0.6-2.1
		c0.4-0.5,0.9-0.7,1.6-0.7c0.2,0,0.5,0,0.6,0.1c0.2,0.1,0.4,0.1,0.5,0.2c0.1,0.1,0.3,0.2,0.4,0.2c0.1,0.1,0.2,0.1,0.2,0.2l0.5-1
		c-0.1-0.1-0.1-0.1-0.3-0.2c-0.1-0.1-0.3-0.2-0.5-0.3c-0.2-0.1-0.4-0.2-0.7-0.3c-0.3-0.1-0.6-0.1-1-0.1c-0.5,0-1,0.1-1.4,0.3
		c-0.4,0.2-0.8,0.4-1,0.8c-0.3,0.4-0.5,0.8-0.7,1.4c-0.2,0.5-0.2,1.2-0.2,2c0,0.7,0.1,1.3,0.2,1.9c0.2,0.5,0.4,1,0.7,1.3
		c0.3,0.3,0.6,0.6,1,0.8c0.4,0.2,0.8,0.2,1.2,0.2c0.8,0,1.4-0.2,1.8-0.7C170.8,77.9,171.1,77.1,171.1,76.2z M168.5,78
		c-0.5,0-0.9-0.2-1.2-0.6s-0.5-1-0.5-1.8h3c0,0.1,0,0.1,0,0.2c0,0.1,0,0.2,0,0.3c0,0.6-0.1,1-0.3,1.3C169.2,77.8,168.9,78,168.5,78z
		 M176.5,77.7c0,0-0.1,0.1-0.2,0.1c-0.1,0-0.3,0.1-0.5,0.1c-0.4,0-0.8-0.1-1-0.3c-0.2-0.2-0.4-0.5-0.5-0.8v-6h-1.4v8.1h1.3v-1.1h0
		c0.1,0.2,0.1,0.3,0.2,0.5c0.1,0.2,0.2,0.3,0.3,0.4c0.1,0.1,0.3,0.2,0.5,0.3c0.2,0.1,0.4,0.1,0.7,0.1c0.2,0,0.3,0,0.5-0.1
		c0.1,0,0.2-0.1,0.3-0.1L176.5,77.7z M179.2,70.8h-1.4v8.1h1.4V70.8z M178.5,80.9c-0.3,0-0.5,0.1-0.7,0.3c-0.2,0.2-0.3,0.4-0.3,0.7
		c0,0.3,0.1,0.5,0.3,0.7c0.2,0.2,0.4,0.3,0.7,0.3c0.3,0,0.5-0.1,0.7-0.3c0.2-0.2,0.3-0.4,0.3-0.7c0-0.3-0.1-0.5-0.3-0.7
		S178.8,80.9,178.5,80.9z M187,70.8h-1.3v0.9h0c0-0.1-0.1-0.2-0.2-0.3c-0.1-0.1-0.3-0.3-0.4-0.4c-0.2-0.1-0.4-0.2-0.6-0.3
		c-0.2-0.1-0.5-0.1-0.8-0.1c-0.4,0-0.7,0.1-1,0.2c-0.3,0.1-0.5,0.3-0.7,0.5c-0.2,0.2-0.4,0.5-0.5,0.9c-0.1,0.4-0.2,0.8-0.2,1.4v5.3
		h1.4v-5.2c0-0.7,0.1-1.2,0.3-1.4c0.2-0.3,0.6-0.4,1-0.4c0.4,0,0.7,0.1,1,0.3c0.3,0.2,0.5,0.4,0.6,0.6v6.2h1.4V70.8z M193.3,70.8V76
		c0,0.7-0.1,1.1-0.3,1.4c-0.2,0.3-0.5,0.4-0.9,0.4c-0.2,0-0.4,0-0.6-0.1c-0.2-0.1-0.3-0.1-0.5-0.2c-0.1-0.1-0.3-0.2-0.4-0.3
		c-0.1-0.1-0.2-0.2-0.3-0.3v-6.3h-1.4v8.1h1.3V78h0c0.1,0.1,0.1,0.2,0.3,0.3c0.1,0.1,0.3,0.3,0.4,0.4c0.2,0.1,0.4,0.2,0.6,0.3
		c0.2,0.1,0.5,0.1,0.8,0.1c0.9,0,1.6-0.4,2-1.1c0.1,0.1,0.2,0.2,0.3,0.4c0.1,0.1,0.3,0.2,0.5,0.4c0.2,0.1,0.4,0.2,0.6,0.3
		c0.2,0.1,0.5,0.1,0.7,0.1c1.6,0,2.5-1,2.5-2.9v-5.4h-1.4V76c0,0.7-0.1,1.1-0.4,1.4c-0.2,0.3-0.6,0.4-1,0.4c-0.4,0-0.7-0.1-1-0.3
		c-0.3-0.2-0.5-0.4-0.6-0.5c0-0.1,0-0.3,0.1-0.4c0-0.1,0-0.3,0-0.4v-5.4H193.3z M86.7,60.7h-1.7v-7h-1.4v7h-1v0.9l1,0.2v1.6
		c0,0.4,0.1,0.8,0.2,1.1c0.1,0.3,0.3,0.6,0.5,0.8c0.2,0.2,0.4,0.3,0.7,0.4c0.3,0.1,0.6,0.1,0.9,0.1c0.3,0,0.5,0,0.7-0.1
		c0.2-0.1,0.3-0.1,0.4-0.2l-0.3-1.1c-0.1,0-0.2,0.1-0.3,0.1c-0.1,0.1-0.3,0.1-0.5,0.1c-0.3,0-0.6-0.1-0.7-0.3
		c-0.2-0.2-0.3-0.6-0.3-1.1v-1.5h1.8L86.7,60.7z M93.8,53.7h-1.3v0.9h0c0-0.1-0.1-0.2-0.2-0.3c-0.1-0.1-0.3-0.3-0.4-0.4
		c-0.2-0.1-0.4-0.2-0.6-0.3s-0.5-0.1-0.8-0.1c-0.4,0-0.7,0.1-1,0.2c-0.3,0.1-0.5,0.3-0.7,0.5c-0.2,0.2-0.4,0.5-0.5,0.9
		C88.1,55.5,88,56,88,56.5v5.3h1.4v-5.2c0-0.7,0.1-1.2,0.3-1.4c0.2-0.3,0.6-0.4,1-0.4c0.4,0,0.7,0.1,1,0.3c0.3,0.2,0.5,0.4,0.6,0.6
		v6.2h1.4V53.7z M90.4,64.2c0-0.3-0.1-0.5-0.2-0.6c-0.2-0.2-0.3-0.2-0.6-0.2c-0.2,0-0.4,0.1-0.6,0.2c-0.2,0.2-0.2,0.4-0.2,0.6
		c0,0.3,0.1,0.5,0.2,0.6s0.3,0.2,0.6,0.2c0.2,0,0.4-0.1,0.6-0.2C90.3,64.6,90.4,64.4,90.4,64.2z M93,64.2c0-0.3-0.1-0.5-0.2-0.6
		c-0.2-0.2-0.3-0.2-0.6-0.2s-0.4,0.1-0.6,0.2c-0.2,0.2-0.2,0.4-0.2,0.6c0,0.3,0.1,0.5,0.2,0.6C91.8,65,92,65,92.2,65
		s0.4-0.1,0.6-0.2C92.9,64.6,93,64.4,93,64.2z M99.4,60.6c0,0-0.1,0.1-0.2,0.1c-0.1,0-0.3,0.1-0.5,0.1c-0.4,0-0.8-0.1-1-0.3
		c-0.2-0.2-0.4-0.5-0.5-0.8v-6h-1.4v8.1h1.3v-1.1h0c0.1,0.2,0.1,0.3,0.2,0.5c0.1,0.2,0.2,0.3,0.3,0.4c0.1,0.1,0.3,0.2,0.5,0.3
		c0.2,0.1,0.4,0.1,0.7,0.1c0.2,0,0.3,0,0.5-0.1c0.1,0,0.2-0.1,0.3-0.1L99.4,60.6z M111.9,58.2c0-1.5-0.3-2.7-1-3.5
		c-0.6-0.8-1.6-1.2-2.9-1.2c-1.3,0-2.2,0.4-2.9,1.1c-0.6,0.7-0.9,1.9-0.9,3.6v7.2h1.5v-7.2c0-1.2,0.2-2.1,0.6-2.6
		c0.4-0.5,1-0.8,1.8-0.8c0.8,0,1.4,0.3,1.8,0.8c0.4,0.5,0.6,1.4,0.6,2.6v7.2h1.4V58.2z M118.3,53.7v5.2c0,0.7-0.1,1.1-0.3,1.4
		c-0.2,0.3-0.5,0.4-0.9,0.4c-0.2,0-0.4,0-0.6-0.1c-0.2-0.1-0.3-0.1-0.5-0.2c-0.1-0.1-0.3-0.2-0.4-0.3c-0.1-0.1-0.2-0.2-0.3-0.3v-6.3
		h-1.4v8.1h1.3v-0.9h0c0.1,0.1,0.1,0.2,0.3,0.3c0.1,0.1,0.3,0.3,0.4,0.4c0.2,0.1,0.4,0.2,0.6,0.3c0.2,0.1,0.5,0.1,0.8,0.1
		c0.9,0,1.6-0.4,2-1.1c0.1,0.1,0.2,0.2,0.3,0.4c0.1,0.1,0.3,0.2,0.5,0.4c0.2,0.1,0.4,0.2,0.6,0.3c0.2,0.1,0.5,0.1,0.7,0.1
		c1.6,0,2.5-1,2.5-2.9v-5.4h-1.4v5.2c0,0.7-0.1,1.1-0.4,1.4c-0.2,0.3-0.6,0.4-1,0.4c-0.4,0-0.7-0.1-1-0.3c-0.3-0.2-0.5-0.4-0.6-0.5
		c0-0.1,0-0.3,0.1-0.4c0-0.1,0-0.3,0-0.4v-5.4H118.3z M135.3,61.8l-2.5-8.1h-1.2l-0.8,2.8c-0.1,0.4-0.2,0.8-0.3,1.1
		c-0.1,0.3-0.1,0.7-0.2,1h0c0-0.3-0.1-0.7-0.2-1c-0.1-0.4-0.2-0.7-0.4-1.1l-0.9-2.8h-1.2l-2.6,8.1h1.5l1.2-4.6
		c0.1-0.4,0.2-0.8,0.3-1.2c0.1-0.4,0.1-0.7,0.1-1h0c0,0.3,0.1,0.7,0.2,1c0.1,0.4,0.2,0.7,0.4,1.2l0.9,2.7l-0.6,2h1.4l1.2-4.5
		c0.1-0.5,0.2-0.9,0.3-1.3s0.2-0.8,0.2-1h0c0,0.3,0.1,0.6,0.2,1.1c0.1,0.4,0.2,0.8,0.3,1.3l1.2,4.5H135.3z M141.7,59.1
		c0-0.3,0-0.7,0-0.9c0-0.3,0-0.5-0.1-0.7h-4.1c0-1,0.3-1.7,0.6-2.1c0.4-0.5,0.9-0.7,1.6-0.7c0.2,0,0.5,0,0.6,0.1
		c0.2,0.1,0.4,0.1,0.5,0.2c0.1,0.1,0.3,0.2,0.4,0.2c0.1,0.1,0.2,0.1,0.2,0.2l0.5-1c-0.1-0.1-0.1-0.1-0.3-0.2
		c-0.1-0.1-0.3-0.2-0.5-0.3c-0.2-0.1-0.4-0.2-0.7-0.3c-0.3-0.1-0.6-0.1-1-0.1c-0.5,0-1,0.1-1.4,0.3c-0.4,0.2-0.8,0.4-1,0.8
		c-0.3,0.4-0.5,0.8-0.7,1.4c-0.2,0.5-0.2,1.2-0.2,2c0,0.7,0.1,1.3,0.2,1.9c0.2,0.5,0.4,1,0.7,1.3s0.6,0.6,1,0.8
		c0.4,0.2,0.8,0.2,1.2,0.2c0.8,0,1.4-0.2,1.8-0.7C141.4,60.8,141.7,60.1,141.7,59.1z M139.1,60.9c-0.5,0-0.9-0.2-1.2-0.6
		c-0.3-0.4-0.5-1-0.5-1.8h3c0,0.1,0,0.1,0,0.2c0,0.1,0,0.2,0,0.3c0,0.6-0.1,1-0.3,1.3C139.8,60.8,139.5,60.9,139.1,60.9z
		 M144.8,55.6c0-0.3,0-0.6,0.1-0.7c0.1-0.1,0.3-0.2,0.5-0.2c0.1,0,0.2,0,0.3,0c0.1,0,0.1,0,0.2,0.1l0.1-1c-0.1,0-0.2-0.1-0.4-0.1
		c-0.2-0.1-0.4-0.1-0.7-0.1c-0.5,0-0.8,0.1-1.1,0.4c-0.3,0.3-0.4,0.8-0.4,1.5v10.2l1.4,0.2V55.6z M150.8,60.7H149v-4.5
		c0-0.6,0.1-1,0.2-1.2c0.1-0.2,0.4-0.3,0.7-0.3c0.2,0,0.4,0,0.5,0.1c0.1,0.1,0.3,0.1,0.3,0.2l0.2-1.1c-0.1,0-0.2-0.1-0.4-0.2
		c-0.2-0.1-0.5-0.1-0.9-0.1c-0.7,0-1.2,0.2-1.6,0.6c-0.3,0.4-0.5,1-0.5,1.9v4.7h-1v0.9l1,0.2l0.2,2.3h1.2v-2.3h1.9L150.8,60.7z
		 M152.2,54.7c0,0.3,0.1,0.5,0.3,0.7c0.2,0.2,0.4,0.2,0.6,0.2c0.3,0,0.6-0.1,0.8-0.4c0.2-0.3,0.3-0.7,0.3-1.3c0-0.4-0.1-0.7-0.2-1
		c-0.1-0.3-0.3-0.5-0.5-0.7c-0.2-0.2-0.4-0.4-0.6-0.5c-0.2-0.1-0.5-0.2-0.7-0.3l-0.3,0.6c0.3,0.2,0.6,0.4,0.9,0.7
		c0.2,0.3,0.3,0.6,0.4,1.1h-0.1c-0.3,0-0.5,0.1-0.7,0.2C152.2,54.1,152.2,54.4,152.2,54.7z M167.2,65.4V53.7h-1.3l-3.9,7
		c-0.2,0.4-0.5,0.8-0.7,1.2c-0.2,0.4-0.3,0.7-0.4,1h0c0.1-0.2,0.1-0.6,0.1-1c0-0.4,0-0.9,0-1.4v-6.8h-1.5v11.7h1.3l3.9-6.9
		c0.2-0.4,0.5-0.8,0.7-1.2c0.2-0.4,0.3-0.7,0.4-1h0c-0.1,0.2-0.1,0.6-0.1,1c0,0.4,0,0.9,0,1.4v6.7H167.2z M169.1,55.8
		c0,0.5,0.1,0.9,0.3,1.2c0.2,0.3,0.4,0.6,0.7,0.8c0.3,0.2,0.7,0.3,1.1,0.4c0.4,0.1,0.8,0.1,1.3,0.1h0.4v0.8c0,0.7-0.1,1.2-0.4,1.4
		c-0.2,0.3-0.6,0.4-1,0.4c-0.4,0-0.7-0.1-1-0.3c-0.3-0.2-0.5-0.3-0.6-0.5l-0.6,0.9c0.1,0.1,0.2,0.2,0.3,0.3c0.1,0.1,0.3,0.2,0.5,0.3
		c0.2,0.1,0.4,0.2,0.7,0.3s0.6,0.1,0.9,0.1c0.8,0,1.5-0.2,1.9-0.7c0.4-0.5,0.6-1.2,0.6-2.2v-3.7c0-0.3,0-0.7,0-1
		c0-0.3,0-0.6,0.1-0.7h-1.3l-0.1,0.9h0c0-0.1-0.1-0.2-0.2-0.3c-0.1-0.1-0.2-0.2-0.3-0.4c-0.1-0.1-0.3-0.2-0.5-0.3
		c-0.2-0.1-0.4-0.1-0.7-0.1c-0.3,0-0.6,0.1-0.9,0.2c-0.3,0.1-0.5,0.3-0.7,0.5c-0.2,0.2-0.3,0.4-0.5,0.7
		C169.2,55.2,169.1,55.5,169.1,55.8z M171.6,54.7c0.2,0,0.4,0,0.5,0.1s0.3,0.1,0.4,0.2c0.1,0.1,0.2,0.2,0.3,0.3
		c0.1,0.1,0.1,0.2,0.2,0.2v1.8l-0.4,0c-0.7,0-1.2-0.1-1.5-0.3c-0.3-0.2-0.5-0.5-0.5-1c0-0.4,0.1-0.7,0.3-0.9
		C171,54.8,171.2,54.7,171.6,54.7z M179.8,60.7H178v-4.5c0-0.6,0.1-1,0.2-1.2c0.1-0.2,0.4-0.3,0.7-0.3c0.2,0,0.4,0,0.5,0.1
		c0.1,0.1,0.3,0.1,0.3,0.2l0.2-1.1c-0.1,0-0.2-0.1-0.4-0.2c-0.2-0.1-0.5-0.1-0.9-0.1c-0.7,0-1.2,0.2-1.6,0.6c-0.3,0.4-0.5,1-0.5,1.9
		v4.7h-1v0.9l1,0.2l0.2,2.3h1.2v-2.3h1.9L179.8,60.7z M187,53.7h-1.3v0.9h0c0-0.1-0.1-0.2-0.2-0.3c-0.1-0.1-0.3-0.3-0.4-0.4
		c-0.2-0.1-0.4-0.2-0.6-0.3c-0.2-0.1-0.5-0.1-0.8-0.1c-0.4,0-0.7,0.1-1,0.2c-0.3,0.1-0.5,0.3-0.7,0.5c-0.2,0.2-0.4,0.5-0.5,0.9
		c-0.1,0.4-0.2,0.8-0.2,1.4v5.3h1.4v-5.2c0-0.7,0.1-1.2,0.3-1.4c0.2-0.3,0.6-0.4,1-0.4c0.4,0,0.7,0.1,1,0.3c0.3,0.2,0.5,0.4,0.6,0.6
		v6.2h1.4V53.7z M192.7,60.6c0,0-0.1,0.1-0.2,0.1c-0.1,0-0.3,0.1-0.5,0.1c-0.4,0-0.8-0.1-1-0.3c-0.2-0.2-0.4-0.5-0.5-0.8v-6h-1.4
		v8.1h1.3v-1.1h0c0.1,0.2,0.1,0.3,0.2,0.5c0.1,0.2,0.2,0.3,0.3,0.4c0.1,0.1,0.3,0.2,0.5,0.3c0.2,0.1,0.4,0.1,0.7,0.1
		c0.2,0,0.3,0,0.5-0.1c0.1,0,0.2-0.1,0.3-0.1L192.7,60.6z M197.5,60.2c-0.1,0.1-0.3,0.2-0.5,0.4c-0.2,0.2-0.5,0.3-0.9,0.3
		c-0.4,0-0.6-0.1-0.8-0.3c-0.2-0.2-0.3-0.4-0.3-0.6c0-0.3,0.1-0.6,0.3-0.8c0.2-0.2,0.4-0.4,0.8-0.6l0.5-0.3c0.6-0.3,1-0.7,1.3-1.1
		c0.3-0.4,0.5-0.9,0.5-1.5c0-0.6-0.2-1.2-0.7-1.6c-0.4-0.4-1.1-0.7-1.9-0.7c-0.3,0-0.6,0-0.9,0.1c-0.2,0.1-0.5,0.1-0.7,0.2
		c-0.2,0.1-0.3,0.2-0.5,0.3c-0.1,0.1-0.2,0.2-0.3,0.3l0.7,1.1c0.1-0.1,0.1-0.1,0.2-0.2c0.1-0.1,0.2-0.2,0.3-0.3
		c0.1-0.1,0.3-0.2,0.5-0.2c0.2-0.1,0.4-0.1,0.6-0.1c0.4,0,0.7,0.1,0.9,0.3c0.2,0.2,0.3,0.4,0.3,0.7c0,0.2,0,0.4-0.1,0.5
		c-0.1,0.1-0.1,0.3-0.2,0.4c-0.1,0.1-0.2,0.2-0.4,0.3c-0.1,0.1-0.3,0.2-0.5,0.3l-0.5,0.3c-0.5,0.3-0.9,0.7-1.2,1
		c-0.3,0.4-0.4,0.8-0.4,1.4c0,0.3,0.1,0.6,0.2,0.8c0.1,0.3,0.3,0.5,0.5,0.7c0.2,0.2,0.5,0.3,0.8,0.4c0.3,0.1,0.6,0.2,0.9,0.2
		c0.3,0,0.6,0,0.8-0.1c0.2-0.1,0.4-0.1,0.6-0.2c0.2-0.1,0.3-0.2,0.4-0.3c0.1-0.1,0.2-0.2,0.3-0.2L197.5,60.2z M204.4,60.3
		c0,0-0.1,0.1-0.2,0.2c-0.1,0.1-0.2,0.1-0.3,0.2c-0.1,0.1-0.2,0.1-0.4,0.2c-0.2,0.1-0.3,0.1-0.5,0.1c-0.3,0-0.6-0.1-0.8-0.2
		c-0.3-0.1-0.5-0.3-0.7-0.5c-0.2-0.2-0.3-0.5-0.4-0.9c-0.1-0.4-0.2-0.8-0.2-1.4c0-0.6,0-1.1,0.1-1.5c0.1-0.4,0.2-0.7,0.4-1
		c0.2-0.2,0.4-0.4,0.6-0.5c0.2-0.1,0.5-0.2,0.8-0.2c0.4,0,0.7,0.1,1,0.2c0.2,0.1,0.4,0.3,0.5,0.4l0.6-0.9c-0.1-0.1-0.1-0.1-0.2-0.2
		c-0.1-0.1-0.2-0.2-0.4-0.3c-0.2-0.1-0.4-0.2-0.6-0.2c-0.2-0.1-0.5-0.1-0.8-0.1c-0.5,0-0.9,0.1-1.3,0.2c-0.4,0.1-0.7,0.4-1,0.7
		c-0.3,0.3-0.5,0.8-0.7,1.3c-0.2,0.5-0.3,1.2-0.3,2c0,0.8,0.1,1.4,0.3,2c0.2,0.5,0.5,1,0.8,1.3c0.3,0.3,0.7,0.6,1.1,0.7
		c0.4,0.2,0.8,0.2,1.2,0.2c0.3,0,0.6,0,0.8-0.1c0.2-0.1,0.4-0.1,0.6-0.2c0.2-0.1,0.3-0.2,0.4-0.3c0.1-0.1,0.2-0.2,0.3-0.2
		L204.4,60.3z M210.9,53.7v5.2c0,0.7-0.1,1.2-0.3,1.5c-0.2,0.3-0.6,0.4-1.1,0.4c-0.4,0-0.7-0.1-1-0.3c-0.3-0.2-0.5-0.4-0.6-0.6v-6.3
		h-1.4v12l1.4,0.2V61h0c0,0.1,0.1,0.2,0.2,0.3c0.1,0.1,0.2,0.2,0.4,0.3s0.4,0.2,0.6,0.3c0.2,0.1,0.5,0.1,0.9,0.1
		c0.7,0,1.3-0.2,1.7-0.7c0.4-0.5,0.6-1.2,0.6-2.3v-5.3H210.9z M220,53.7h-1.3v0.9h0c0-0.1-0.1-0.2-0.2-0.3c-0.1-0.1-0.3-0.3-0.4-0.4
		c-0.2-0.1-0.4-0.2-0.6-0.3c-0.2-0.1-0.5-0.1-0.8-0.1c-0.4,0-0.7,0.1-1,0.2c-0.3,0.1-0.5,0.3-0.7,0.5s-0.4,0.5-0.5,0.9
		c-0.1,0.4-0.2,0.8-0.2,1.4v5.3h1.4v-5.2c0-0.7,0.1-1.2,0.3-1.4c0.2-0.3,0.6-0.4,1-0.4c0.4,0,0.7,0.1,1,0.3c0.3,0.2,0.5,0.4,0.6,0.6
		v6.2h1.4V53.7z M225.6,60.7h-1.8v-4.5c0-0.6,0.1-1,0.2-1.2c0.1-0.2,0.4-0.3,0.7-0.3c0.2,0,0.4,0,0.5,0.1c0.1,0.1,0.3,0.1,0.3,0.2
		l0.2-1.1c-0.1,0-0.2-0.1-0.4-0.2c-0.2-0.1-0.5-0.1-0.9-0.1c-0.7,0-1.2,0.2-1.6,0.6c-0.3,0.4-0.5,1-0.5,1.9v4.7h-1v0.9l1,0.2
		l0.2,2.3h1.2v-2.3h1.9L225.6,60.7z M231.7,61l-3.3-6v0h3.5l-0.1-1.2h-5.2v0.9l3.4,6.1v0h-3.2v1.1h4.9V61z M89,36.7h-1.3v0.9h0
		c0-0.1-0.1-0.2-0.2-0.3c-0.1-0.1-0.3-0.3-0.4-0.4c-0.2-0.1-0.4-0.2-0.6-0.3c-0.2-0.1-0.5-0.1-0.8-0.1c-0.4,0-0.7,0.1-1,0.2
		c-0.3,0.1-0.5,0.3-0.7,0.5c-0.2,0.2-0.4,0.5-0.5,0.9c-0.1,0.4-0.2,0.8-0.2,1.4v5.3h1.4v-5.2c0-0.7,0.1-1.2,0.3-1.4
		c0.2-0.3,0.6-0.4,1-0.4c0.4,0,0.7,0.1,1,0.3c0.3,0.2,0.5,0.4,0.6,0.6v6.2H89V36.7z M95.5,36.7v5.2c0,0.7-0.1,1.2-0.3,1.5
		c-0.2,0.3-0.6,0.4-1.1,0.4c-0.4,0-0.7-0.1-1-0.3s-0.5-0.4-0.6-0.6v-6.3h-1.4v8.1h1.3v-0.9h0c0,0.1,0.1,0.2,0.2,0.3
		c0.1,0.1,0.3,0.3,0.4,0.4c0.2,0.1,0.4,0.2,0.6,0.3c0.2,0.1,0.5,0.1,0.8,0.1c0.4,0,0.7-0.1,1-0.2c0.3-0.1,0.5-0.3,0.7-0.5
		c0.2-0.2,0.4-0.5,0.5-0.9c0.1-0.4,0.2-0.8,0.2-1.4v-5.3H95.5z M98.6,40.6c0,0.8,0.1,1.5,0.3,2.1c0.2,0.6,0.5,1,0.8,1.3
		c0.3,0.3,0.7,0.6,1.2,0.7c0.4,0.1,0.9,0.2,1.3,0.2c0.3,0,0.5,0,0.7-0.1c0.2,0,0.3-0.1,0.5-0.1v3.9l1.4,0.2V36.7h-1.3v0.9h0
		c0-0.1-0.1-0.2-0.2-0.3c-0.1-0.1-0.2-0.2-0.4-0.4c-0.2-0.1-0.4-0.2-0.6-0.3c-0.2-0.1-0.5-0.1-0.8-0.1c-0.4,0-0.7,0.1-1.1,0.2
		c-0.3,0.2-0.6,0.4-0.9,0.7c-0.3,0.3-0.5,0.8-0.6,1.3C98.7,39.2,98.6,39.9,98.6,40.6z M101.8,37.7c0.2,0,0.4,0,0.6,0.1
		c0.2,0.1,0.3,0.1,0.4,0.2c0.1,0.1,0.2,0.2,0.3,0.3s0.1,0.2,0.2,0.2v5c-0.1,0.1-0.3,0.1-0.4,0.2c-0.2,0.1-0.4,0.1-0.6,0.1
		c-0.3,0-0.6-0.1-0.9-0.2c-0.3-0.1-0.5-0.3-0.7-0.5c-0.2-0.2-0.4-0.6-0.5-1c-0.1-0.4-0.2-0.9-0.2-1.5c0-0.6,0-1,0.1-1.4
		c0.1-0.4,0.2-0.7,0.4-0.9c0.2-0.2,0.4-0.4,0.6-0.5C101.3,37.7,101.6,37.7,101.8,37.7z M114.8,36.7v5.2c0,0.7-0.1,1.2-0.3,1.5
		c-0.2,0.3-0.6,0.4-1.1,0.4c-0.4,0-0.7-0.1-1-0.3s-0.5-0.4-0.6-0.6v-6.3h-1.4v8.1h1.3v-0.9h0c0,0.1,0.1,0.2,0.2,0.3
		c0.1,0.1,0.3,0.3,0.4,0.4c0.2,0.1,0.4,0.2,0.6,0.3c0.2,0.1,0.5,0.1,0.8,0.1c0.4,0,0.7-0.1,1-0.2c0.3-0.1,0.5-0.3,0.7-0.5
		c0.2-0.2,0.4-0.5,0.5-0.9c0.1-0.4,0.2-0.8,0.2-1.4v-5.3H114.8z M123.9,36.7h-1.3v0.9h0c0-0.1-0.1-0.2-0.2-0.3
		c-0.1-0.1-0.3-0.3-0.4-0.4c-0.2-0.1-0.4-0.2-0.6-0.3c-0.2-0.1-0.5-0.1-0.8-0.1c-0.4,0-0.7,0.1-1,0.2c-0.3,0.1-0.5,0.3-0.7,0.5
		c-0.2,0.2-0.4,0.5-0.5,0.9c-0.1,0.4-0.2,0.8-0.2,1.4v5.3h1.4v-5.2c0-0.7,0.1-1.2,0.3-1.4c0.2-0.3,0.6-0.4,1-0.4
		c0.4,0,0.7,0.1,1,0.3c0.3,0.2,0.5,0.4,0.6,0.6v6.2h1.4V36.7z M129.1,41.1l2.8-4.4h-1.6l-2.3,3.8h-0.6v-3.8H126v12l1.4,0.2v-7.2h0.6
		l2.2,3.2h1.6L129.1,41.1z M134.4,38.6c0-0.3,0-0.6,0.1-0.7c0.1-0.1,0.3-0.2,0.5-0.2c0.1,0,0.2,0,0.3,0c0.1,0,0.1,0,0.2,0.1l0.1-1
		c-0.1,0-0.2-0.1-0.4-0.1c-0.2-0.1-0.4-0.1-0.7-0.1c-0.5,0-0.8,0.1-1.1,0.4c-0.3,0.3-0.4,0.8-0.4,1.5v10.2l1.4,0.2V38.6z M142.2,42
		c0-0.3,0-0.7,0-0.9c0-0.3,0-0.5-0.1-0.7h-4.1c0-1,0.3-1.7,0.6-2.1c0.4-0.5,0.9-0.7,1.6-0.7c0.2,0,0.5,0,0.6,0.1
		c0.2,0.1,0.4,0.1,0.5,0.2c0.1,0.1,0.3,0.2,0.4,0.2c0.1,0.1,0.2,0.1,0.2,0.2l0.5-1c-0.1-0.1-0.1-0.1-0.3-0.2
		c-0.1-0.1-0.3-0.2-0.5-0.3c-0.2-0.1-0.4-0.2-0.7-0.3c-0.3-0.1-0.6-0.1-1-0.1c-0.5,0-1,0.1-1.4,0.3c-0.4,0.2-0.8,0.4-1,0.8
		c-0.3,0.4-0.5,0.8-0.7,1.4c-0.2,0.5-0.2,1.2-0.2,2c0,0.7,0.1,1.3,0.2,1.9c0.2,0.5,0.4,1,0.7,1.3c0.3,0.3,0.6,0.6,1,0.8
		c0.4,0.2,0.8,0.2,1.2,0.2c0.8,0,1.4-0.2,1.8-0.7C141.9,43.8,142.2,43,142.2,42z M139.6,43.9c-0.5,0-0.9-0.2-1.2-0.6
		c-0.3-0.4-0.5-1-0.5-1.8h3c0,0.1,0,0.1,0,0.2c0,0.1,0,0.2,0,0.3c0,0.6-0.1,1-0.3,1.3C140.3,43.7,140,43.9,139.6,43.9z M143.5,38.7
		c0,0.5,0.1,0.9,0.3,1.2c0.2,0.3,0.4,0.6,0.7,0.8c0.3,0.2,0.7,0.3,1.1,0.4c0.4,0.1,0.8,0.1,1.3,0.1h0.4V42c0,0.7-0.1,1.2-0.4,1.4
		c-0.2,0.3-0.6,0.4-1,0.4c-0.4,0-0.7-0.1-1-0.3c-0.3-0.2-0.5-0.3-0.6-0.5l-0.6,0.9c0.1,0.1,0.2,0.2,0.3,0.3c0.1,0.1,0.3,0.2,0.5,0.3
		c0.2,0.1,0.4,0.2,0.7,0.3c0.3,0.1,0.6,0.1,0.9,0.1c0.8,0,1.5-0.2,1.9-0.7c0.4-0.5,0.6-1.2,0.6-2.2v-3.7c0-0.3,0-0.7,0-1
		c0-0.3,0-0.6,0.1-0.7h-1.3l-0.1,0.9h0c0-0.1-0.1-0.2-0.2-0.3c-0.1-0.1-0.2-0.2-0.3-0.4c-0.1-0.1-0.3-0.2-0.5-0.3
		c-0.2-0.1-0.4-0.1-0.7-0.1c-0.3,0-0.6,0.1-0.9,0.2c-0.3,0.1-0.5,0.3-0.7,0.5c-0.2,0.2-0.3,0.4-0.5,0.7
		C143.6,38.1,143.5,38.4,143.5,38.7z M146,37.6c0.2,0,0.4,0,0.5,0.1c0.1,0.1,0.3,0.1,0.4,0.2c0.1,0.1,0.2,0.2,0.3,0.3
		c0.1,0.1,0.1,0.2,0.2,0.2v1.8l-0.4,0c-0.7,0-1.2-0.1-1.5-0.3s-0.5-0.5-0.5-1c0-0.4,0.1-0.7,0.3-0.9C145.4,37.7,145.6,37.6,146,37.6
		z M154.3,43.6c0,0-0.1,0.1-0.2,0.1c-0.1,0-0.3,0.1-0.5,0.1c-0.4,0-0.8-0.1-1-0.3c-0.2-0.2-0.4-0.5-0.5-0.8v-6h-1.4v8.1h1.3v-1.1h0
		c0.1,0.2,0.1,0.3,0.2,0.5c0.1,0.2,0.2,0.3,0.3,0.4c0.1,0.1,0.3,0.2,0.5,0.3c0.2,0.1,0.4,0.1,0.7,0.1c0.2,0,0.3,0,0.5-0.1
		c0.1,0,0.2-0.1,0.3-0.1L154.3,43.6z M160.7,42c0-0.3,0-0.7,0-0.9c0-0.3,0-0.5-0.1-0.7h-4.1c0-1,0.3-1.7,0.6-2.1
		c0.4-0.5,0.9-0.7,1.6-0.7c0.2,0,0.5,0,0.6,0.1c0.2,0.1,0.4,0.1,0.5,0.2c0.1,0.1,0.3,0.2,0.4,0.2c0.1,0.1,0.2,0.1,0.2,0.2l0.5-1
		c-0.1-0.1-0.1-0.1-0.3-0.2c-0.1-0.1-0.3-0.2-0.5-0.3c-0.2-0.1-0.4-0.2-0.7-0.3c-0.3-0.1-0.6-0.1-1-0.1c-0.5,0-1,0.1-1.4,0.3
		c-0.4,0.2-0.8,0.4-1,0.8c-0.3,0.4-0.5,0.8-0.7,1.4c-0.2,0.5-0.2,1.2-0.2,2c0,0.7,0.1,1.3,0.2,1.9c0.2,0.5,0.4,1,0.7,1.3
		c0.3,0.3,0.6,0.6,1,0.8c0.4,0.2,0.8,0.2,1.2,0.2c0.8,0,1.4-0.2,1.8-0.7C160.4,43.8,160.7,43,160.7,42z M158.1,43.9
		c-0.5,0-0.9-0.2-1.2-0.6c-0.3-0.4-0.5-1-0.5-1.8h3c0,0.1,0,0.1,0,0.2c0,0.1,0,0.2,0,0.3c0,0.6-0.1,1-0.3,1.3
		C158.9,43.7,158.5,43.9,158.1,43.9z M170.8,46.5c0,0-0.1,0.1-0.2,0.2c-0.1,0.1-0.2,0.2-0.4,0.2c-0.2,0.1-0.4,0.1-0.6,0.2
		c-0.2,0.1-0.5,0.1-0.7,0.1c-0.5,0-0.9-0.1-1.2-0.4c-0.3-0.3-0.4-0.6-0.4-0.9c0-0.2,0-0.4,0.1-0.6c0.1-0.2,0.2-0.4,0.3-0.6
		c0.1-0.2,0.3-0.4,0.5-0.6c0.2-0.2,0.4-0.4,0.7-0.6l0.9-0.8c0.3-0.2,0.5-0.5,0.8-0.7c0.2-0.2,0.5-0.5,0.6-0.8
		c0.2-0.3,0.3-0.6,0.4-0.9c0.1-0.3,0.2-0.7,0.2-1c0-0.9-0.3-1.6-0.8-2.2c-0.6-0.5-1.4-0.8-2.4-0.8c-0.4,0-0.8,0-1.1,0.1
		c-0.3,0.1-0.6,0.2-0.8,0.3c-0.2,0.1-0.4,0.2-0.6,0.3c-0.2,0.1-0.3,0.2-0.4,0.3l0.6,1.3c0.1-0.1,0.2-0.2,0.3-0.3
		c0.1-0.1,0.3-0.2,0.5-0.3c0.2-0.1,0.4-0.2,0.7-0.3c0.2-0.1,0.5-0.1,0.8-0.1c0.6,0,1,0.1,1.3,0.4c0.3,0.3,0.5,0.6,0.5,1
		c0,0.2,0,0.5-0.1,0.7c-0.1,0.2-0.2,0.4-0.3,0.6c-0.1,0.2-0.3,0.4-0.4,0.5c-0.2,0.2-0.4,0.4-0.6,0.6l-0.9,0.8
		c-0.3,0.3-0.6,0.5-0.9,0.8c-0.2,0.2-0.5,0.5-0.6,0.8c-0.2,0.3-0.3,0.6-0.4,0.9c-0.1,0.3-0.1,0.7-0.1,1.1c0,0.4,0.1,0.7,0.2,1
		c0.1,0.3,0.3,0.6,0.6,0.8c0.3,0.2,0.6,0.4,0.9,0.6c0.4,0.1,0.8,0.2,1.2,0.2c0.4,0,0.7,0,1-0.1c0.3-0.1,0.5-0.2,0.8-0.3
		c0.2-0.1,0.4-0.2,0.5-0.3c0.1-0.1,0.2-0.2,0.3-0.2L170.8,46.5z M174.8,36.7h-1.4v8.1h1.4V36.7z M174.1,46.7c-0.3,0-0.5,0.1-0.7,0.3
		c-0.2,0.2-0.3,0.4-0.3,0.7c0,0.3,0.1,0.5,0.3,0.7c0.2,0.2,0.4,0.3,0.7,0.3c0.3,0,0.5-0.1,0.7-0.3c0.2-0.2,0.3-0.4,0.3-0.7
		c0-0.3-0.1-0.5-0.3-0.7S174.4,46.7,174.1,46.7z M181.4,43.2c0,0-0.1,0.1-0.2,0.2c-0.1,0.1-0.2,0.1-0.3,0.2
		c-0.1,0.1-0.2,0.1-0.4,0.2c-0.2,0.1-0.3,0.1-0.5,0.1c-0.3,0-0.6-0.1-0.8-0.2c-0.3-0.1-0.5-0.3-0.7-0.5c-0.2-0.2-0.3-0.5-0.4-0.9
		c-0.1-0.4-0.2-0.8-0.2-1.4c0-0.6,0-1.1,0.1-1.5c0.1-0.4,0.2-0.7,0.4-1c0.2-0.2,0.4-0.4,0.6-0.5c0.2-0.1,0.5-0.2,0.8-0.2
		c0.4,0,0.7,0.1,1,0.2c0.2,0.1,0.4,0.3,0.5,0.4l0.6-0.9c-0.1-0.1-0.1-0.1-0.2-0.2c-0.1-0.1-0.2-0.2-0.4-0.3
		c-0.2-0.1-0.4-0.2-0.6-0.2c-0.2-0.1-0.5-0.1-0.8-0.1c-0.5,0-0.9,0.1-1.3,0.2c-0.4,0.1-0.7,0.4-1,0.7c-0.3,0.3-0.5,0.8-0.7,1.3
		c-0.2,0.5-0.3,1.2-0.3,2c0,0.8,0.1,1.4,0.3,2c0.2,0.5,0.5,1,0.8,1.3c0.3,0.3,0.7,0.6,1.1,0.7c0.4,0.2,0.8,0.2,1.2,0.2
		c0.3,0,0.6,0,0.8-0.1c0.2-0.1,0.4-0.1,0.6-0.2c0.2-0.1,0.3-0.2,0.4-0.3c0.1-0.1,0.2-0.2,0.3-0.2L181.4,43.2z M187.8,36.7v5.2
		c0,0.7-0.1,1.2-0.3,1.5c-0.2,0.3-0.6,0.4-1.1,0.4c-0.4,0-0.7-0.1-1-0.3s-0.5-0.4-0.6-0.6v-6.3h-1.4v12l1.4,0.2v-4.8h0
		c0,0.1,0.1,0.2,0.2,0.3c0.1,0.1,0.2,0.2,0.4,0.3c0.2,0.1,0.4,0.2,0.6,0.3c0.2,0.1,0.5,0.1,0.9,0.1c0.7,0,1.3-0.2,1.7-0.7
		c0.4-0.5,0.6-1.2,0.6-2.3v-5.3H187.8z M196.5,42c0-0.3,0-0.7,0-0.9c0-0.3,0-0.5-0.1-0.7h-4.1c0-1,0.3-1.7,0.6-2.1
		c0.4-0.5,0.9-0.7,1.6-0.7c0.2,0,0.5,0,0.6,0.1c0.2,0.1,0.4,0.1,0.5,0.2c0.1,0.1,0.3,0.2,0.4,0.2c0.1,0.1,0.2,0.1,0.2,0.2l0.5-1
		c-0.1-0.1-0.1-0.1-0.3-0.2c-0.1-0.1-0.3-0.2-0.5-0.3c-0.2-0.1-0.4-0.2-0.7-0.3c-0.3-0.1-0.6-0.1-1-0.1c-0.5,0-1,0.1-1.4,0.3
		c-0.4,0.2-0.8,0.4-1,0.8c-0.3,0.4-0.5,0.8-0.7,1.4c-0.2,0.5-0.2,1.2-0.2,2c0,0.7,0.1,1.3,0.2,1.9c0.2,0.5,0.4,1,0.7,1.3
		c0.3,0.3,0.6,0.6,1,0.8c0.4,0.2,0.8,0.2,1.2,0.2c0.8,0,1.4-0.2,1.8-0.7C196.3,43.8,196.5,43,196.5,42z M193.9,43.9
		c-0.5,0-0.9-0.2-1.2-0.6c-0.3-0.4-0.5-1-0.5-1.8h3c0,0.1,0,0.1,0,0.2c0,0.1,0,0.2,0,0.3c0,0.6-0.1,1-0.3,1.3
		C194.7,43.7,194.3,43.9,193.9,43.9z M201.9,43.6c0,0-0.1,0.1-0.2,0.1c-0.1,0-0.3,0.1-0.5,0.1c-0.4,0-0.8-0.1-1-0.3
		c-0.2-0.2-0.4-0.5-0.5-0.8v-6h-1.4v8.1h1.3v-1.1h0c0.1,0.2,0.1,0.3,0.2,0.5c0.1,0.2,0.2,0.3,0.3,0.4c0.1,0.1,0.3,0.2,0.5,0.3
		c0.2,0.1,0.4,0.1,0.7,0.1c0.2,0,0.3,0,0.5-0.1c0.1,0,0.2-0.1,0.3-0.1L201.9,43.6z M207.7,36.7v5.2c0,0.7-0.1,1.2-0.3,1.5
		c-0.2,0.3-0.6,0.4-1.1,0.4c-0.4,0-0.7-0.1-1-0.3s-0.5-0.4-0.6-0.6v-6.3h-1.4v12l1.4,0.2v-4.8h0c0,0.1,0.1,0.2,0.2,0.3
		c0.1,0.1,0.2,0.2,0.4,0.3c0.2,0.1,0.4,0.2,0.6,0.3c0.2,0.1,0.5,0.1,0.9,0.1c0.7,0,1.3-0.2,1.7-0.7c0.4-0.5,0.6-1.2,0.6-2.3v-5.3
		H207.7z M216.3,42c0-0.3,0-0.7,0-0.9c0-0.3,0-0.5-0.1-0.7H212c0-1,0.3-1.7,0.6-2.1c0.4-0.5,0.9-0.7,1.6-0.7c0.2,0,0.5,0,0.6,0.1
		c0.2,0.1,0.4,0.1,0.5,0.2c0.1,0.1,0.3,0.2,0.4,0.2c0.1,0.1,0.2,0.1,0.2,0.2l0.5-1c-0.1-0.1-0.1-0.1-0.3-0.2
		c-0.1-0.1-0.3-0.2-0.5-0.3c-0.2-0.1-0.4-0.2-0.7-0.3c-0.3-0.1-0.6-0.1-1-0.1c-0.5,0-1,0.1-1.4,0.3c-0.4,0.2-0.8,0.4-1,0.8
		c-0.3,0.4-0.5,0.8-0.7,1.4c-0.2,0.5-0.2,1.2-0.2,2c0,0.7,0.1,1.3,0.2,1.9c0.2,0.5,0.4,1,0.7,1.3c0.3,0.3,0.6,0.6,1,0.8
		c0.4,0.2,0.8,0.2,1.2,0.2c0.8,0,1.4-0.2,1.8-0.7C216.1,43.8,216.3,43,216.3,42z M213.7,43.9c-0.5,0-0.9-0.2-1.2-0.6
		c-0.3-0.4-0.5-1-0.5-1.8h3c0,0.1,0,0.1,0,0.2c0,0.1,0,0.2,0,0.3c0,0.6-0.1,1-0.3,1.3C214.5,43.7,214.1,43.9,213.7,43.9z
		 M219.5,36.7h-1.4v8.1h1.4V36.7z M218.8,46.7c-0.3,0-0.5,0.1-0.7,0.3c-0.2,0.2-0.3,0.4-0.3,0.7c0,0.3,0.1,0.5,0.3,0.7
		c0.2,0.2,0.4,0.3,0.7,0.3c0.3,0,0.5-0.1,0.7-0.3c0.2-0.2,0.3-0.4,0.3-0.7c0-0.3-0.1-0.5-0.3-0.7C219.3,46.8,219.1,46.7,218.8,46.7z
		 M225.1,43.7h-1.8v-4.5c0-0.6,0.1-1,0.2-1.2c0.1-0.2,0.4-0.3,0.7-0.3c0.2,0,0.4,0,0.5,0.1c0.1,0.1,0.3,0.1,0.3,0.2l0.2-1.1
		c-0.1,0-0.2-0.1-0.4-0.2c-0.2-0.1-0.5-0.1-0.9-0.1c-0.7,0-1.2,0.2-1.6,0.6c-0.3,0.4-0.5,1-0.5,1.9v4.7h-1v0.9l1,0.2l0.2,2.3h1.2
		v-2.3h1.9L225.1,43.7z"/>
</g>
<g id="Adler-und-Saeulenelement">
	<path d="M46.3,32.3c0-0.3,0.1-0.6,0.1-1c0-0.2,0-0.4,0-0.6c2.8,0,5.3-2.1,5.3-4.4c0-1.2-0.8-2.1-1.2-2.6c0.1,0,0.2,0,0.3-0.1
		c0.4,0.4,1.6,1.6,1.6,3.3C52.3,29.6,49.5,32.2,46.3,32.3 M43.4,22.5c-0.1-0.3-0.2-0.6-0.4-0.8c0-0.3,0.1-0.6,0.6-0.3
		c-0.3,0.3-0.1,0.7-0.1,0.7s0.5-0.2,0.4-0.6C44.7,21.6,44.2,22.6,43.4,22.5 M42.7,23.9c-0.1-0.4-0.3-0.9-0.6-1.2
		c-0.3-0.3-0.7-0.6-1.2-0.6c-0.3,0-0.7,0.1-1,0.2c-0.1-0.2-0.3-0.6-0.3-0.8c0-0.2,0.3-0.4,1-0.4c1.5,0,2.3,0.7,2.3,1.8
		C43,23.2,42.9,23.6,42.7,23.9 M46.5,42.8c0.2,0,0.3,0,0.4,0.1c0.4,1.1,2.1,3.3,2.1,3.4l0,0l0,0c0.4-0.1,1.4-0.2,2.3-0.2h0
		c0.1,0,0.2,0,0.3,0.1c0.1,0.1,0.1,0.2,0.1,0.3c0,0.2-0.1,0.6-0.2,0.7c-0.3-0.3-0.8-0.5-1.6-0.5c-0.2,0-0.5,0.1-0.7,0.1l-0.1,0
		l-0.1,0l0.4,0.4c0.7,0.7,1.3,1.3,1.3,1.7c0,0.2-0.2,0.6-0.4,0.7c0-0.7-0.8-1.7-1.5-2.2l-0.1,0l0,0.3c0,0.2,0,0.4,0,0.7
		c0,1.4-0.1,1.6-0.6,1.6c-0.1,0-0.2,0-0.3,0c0.3-0.3,0.4-0.8,0.4-1.5l0-0.4l0-0.3c0-0.3,0-0.6,0.1-0.7l0-0.1l-0.1,0
		c-0.2,0-0.6-0.1-1-0.1c-0.7,0-1.1,0.1-1.5,0.4c-0.2-0.2-0.4-0.5-0.4-0.7c0-0.3,0.2-0.3,0.4-0.3c0.1,0,0.2,0,0.4,0
		c0.3,0,0.7,0.1,1.6,0.1h0.1l0-0.1c-0.2-0.7-0.9-1.6-1.9-2.9C46.1,43,46.2,42.8,46.5,42.8 M37.7,46.2L37.7,46.2L37.7,46.2
		c0.9,0.1,1.4,0,1.7-0.1c0.2,0,0.3,0,0.4,0c0.2,0,0.4,0,0.4,0.3c0,0.2-0.2,0.5-0.4,0.7c-0.3-0.3-0.8-0.4-1.5-0.4
		c-0.3,0-0.7,0.1-1,0.1l0,0l0,0l0,0.1c0,0.2,0.1,0.4,0.1,0.7l0,0.3l0,0.4c0,0.8,0.1,1.2,0.4,1.5c-0.1,0-0.2,0-0.3,0
		c-0.5,0-0.6-0.2-0.6-1.6c0-0.3,0-0.5,0-0.7l0-0.3l-0.1,0c-0.7,0.5-1.5,1.5-1.5,2.2c-0.2-0.1-0.4-0.4-0.4-0.7c0-0.4,0.6-1,1.3-1.7
		l0.4-0.4l0.1-0.1l-0.1,0c-0.1,0-0.4-0.1-0.7-0.1c-0.8,0-1.3,0.1-1.6,0.5C34.1,47,34,46.7,34,46.5c0-0.1,0-0.2,0.1-0.3
		c0.1-0.1,0.2-0.1,0.3-0.1h0c0.9,0,1.9,0.2,2.3,0.2l0,0l0,0c0.1-0.1,1.7-2.3,2.1-3.4c0.1,0,0.2-0.1,0.4-0.1c0.3,0,0.4,0.2,0.5,0.5
		C38.6,44.6,38,45.6,37.7,46.2 M33.3,26.8c0-1.6,1.2-2.9,1.6-3.3c0.1,0,0.2,0,0.3,0.1C34.8,24.1,34,25,34,26.2
		c0,2.4,2.5,4.4,5.4,4.4c0,0.2,0,0.4,0,0.6c0,0.3,0,0.7,0.1,1C36.2,32.3,33.3,29.6,33.3,26.8 M55.1,31.8c1.5,2.3,2.6,2.3,4.3,2.3
		c-1.4-1.1-2.4-2.5-2.8-3.2l-2.7-4.3c-0.3-1.3-0.9-2.5-2-3.5c0.3-0.1,0.6-0.3,0.8-0.4c-1.7,0-3.5-0.9-4.4-0.9c-0.6,0-1,0.4-1,0.8
		c0,0.5,0.6,1.1,1.6,1.1c0.2,0,0.5,0,0.9-0.1c0.6,0.8,1,1.5,1,2.5c0,1.9-2.2,3.3-4.5,3.3c-0.1,0-0.2,0-0.4,0
		c-0.2-0.5-0.9-1.2-0.9-2.1c0-1.5,1-2.7,1-4.2c0-0.9-0.4-1.5-0.6-1.7c0.3-0.3,0.6-0.6,0.6-0.8c-0.2,0.1-0.4,0.1-0.6,0.1
		c-1.1,0-2-0.3-2.8-0.3c-0.5,0-0.6,0.2-0.6,0.3c0,0.1,0,0.1,0,0.1c-0.2-0.1-0.4-0.1-0.6-0.2c-0.3,0-0.5-0.1-0.8-0.1
		c-1,0-1.4,0.4-1.4,0.8c0,0.3,0.2,0.9,0.5,1.3c0.4-0.2,0.9-0.3,1.1-0.3c0.6,0,1,0.5,1.3,1.1c-0.4,0-0.4,0.1-0.8,0.1
		c-1,0-1.7-0.4-1.8-0.4c0,0,0,0,0,0c0,0.1,0.3,0.5,0.9,0.7c0.7,0.3,1.9,0.4,2.1,0.4c0,0-0.2,0.4-0.4,0.5c0,0-0.1,0-0.1,0
		c-0.8-0.2-1-0.2-2-0.6c0,0,0,0,0,0c0,0.4,1,1.3,1.9,1.6c-0.8,1-1.7,2-2.1,3.5c-0.1,0-0.2,0-0.4,0c-2.2,0-4.5-1.5-4.5-3.3
		c0-1,0.4-1.7,1-2.5c0.3,0.1,0.6,0.1,0.9,0.1c1,0,1.6-0.5,1.6-1.1c0-0.5-0.4-0.8-1-0.8c-0.9,0-2.7,0.9-4.4,0.9
		c0.2,0.1,0.5,0.3,0.8,0.4c-1,0.9-1.7,2.1-2,3.5L29,30.8c-0.4,0.7-1.4,2.1-2.8,3.2c1.7,0,2.9,0,4.3-2.3l1.4-2.2
		c0.1,0.3,0.2,0.6,0.4,0.8l-2.7,4.3c-0.5,0.7-1.4,2.1-2.8,3.2c1.7,0,2.9,0,4.3-2.3l2.3-3.7c0.2,0.2,0.4,0.4,0.6,0.5l-3.3,5.3
		c-0.5,0.7-1.4,2.1-2.8,3.2c1.7,0,2.9,0,4.3-2.3l3.2-5.1c0.2,0.1,0.4,0.3,0.7,0.4l-3.9,6.3c-0.5,0.7-1.4,2.1-2.8,3.2
		c1.7,0,2.9,0,4.3-2.3l4-6.5c0.2,0.1,0.5,0.2,0.7,0.3l-4.6,7.3c-0.4,0.7-1.4,2.1-2.8,3.2c1.7,0,2.9,0,4.3-2.3l4.9-7.8
		c0,0,0.1,0,0.1,0c0.1,0.4,0.2,0.8,0.2,1.2c0,2.4-1.6,4.6-3.5,6.3c0.1,0.1,0.3,0.1,0.5,0.1c0.4,0,0.7,0,0.8-0.1
		c-0.4,1-1.4,2.3-1.9,3c-0.6-0.1-1.5-0.2-2.1-0.2c-0.6,0-0.7,0.4-0.7,0.7c0,0.6,0.3,1,0.6,1.3c0.1-0.3,0.4-0.7,1.5-0.7
		c0,0,0.1,0,0.1,0c-0.3,0.4-1.4,1.2-1.4,1.9c0,0.5,0.5,1.1,1.2,1.1c0-0.1,0-0.3,0-0.4c0-0.6,0.5-1.2,0.9-1.7c0,0.1,0,0.1,0,0.3
		c0,1.3,0.1,1.9,1,1.9c0.4,0,0.7-0.2,0.8-0.3c-0.5-0.5-0.6-0.9-0.6-1.6c0-0.2,0-0.4,0-0.6c0-0.2,0-0.4,0-0.6c0.3,0,0.4,0,0.7,0
		c0,0,1.2-0.1,1.5,0.5c0.3-0.3,0.8-0.7,0.8-1.2c0-0.3-0.1-0.7-0.8-0.7c-0.2,0-1,0.1-1.6,0.1c0.2-0.4,0.9-1.4,1.5-2.2
		c0.1,0.3,0.2,0.6,0.6,0.9c0-0.5,0.3-2.1,1.1-3c0.1,0.6,0.2,1.3,0.2,2.6c0,3.3-0.8,5.7-2.5,6.2c0.2,0.4,0.7,0.7,1.2,0.7
		c0.6,0,0.9-0.7,1.3-1.4c0.2,0.5,0.7,1.7,1.2,1.7c0.5,0,1-1.2,1.2-1.7c0.3,0.7,0.7,1.4,1.3,1.4c0.5,0,0.9-0.3,1.2-0.7
		C44.7,50,44,47.5,44,44.2c0-1.4,0.1-2,0.2-2.6c0.8,0.9,1.1,2.5,1.1,3c0.3-0.3,0.5-0.6,0.6-0.9c0.6,0.8,1.4,1.8,1.5,2.2
		c-0.6,0-1.3-0.1-1.6-0.1c-0.6,0-0.8,0.3-0.8,0.7c0,0.5,0.5,0.9,0.8,1.2c0.3-0.6,1.5-0.5,1.5-0.5c0.2,0,0.4,0,0.7,0
		c0,0.2,0,0.4,0,0.6c0,0.3,0,0.4,0,0.6c0,0.7,0,1.1-0.6,1.6c0.1,0.1,0.4,0.3,0.8,0.3c0.8,0,1-0.6,1-1.9c0-0.2,0-0.1,0-0.3
		c0.4,0.5,0.9,1.1,0.9,1.7c0,0.1,0,0.2,0,0.4c0.7,0,1.2-0.7,1.2-1.1c0-0.7-1.1-1.5-1.4-1.9c0.1,0,0.1,0,0.1,0c1.2,0,1.4,0.4,1.5,0.7
		c0.3-0.3,0.6-0.7,0.6-1.3c0-0.3-0.1-0.7-0.7-0.7c-0.6,0-1.5,0.1-2.1,0.2c-0.5-0.7-1.4-2-1.9-3c0.2,0,0.4,0.1,0.8,0.1
		c0.2,0,0.4,0,0.5-0.1c-1.9-1.7-3.5-3.8-3.5-6.3c0-0.4,0.1-0.8,0.2-1.2c0,0,0.1,0,0.1,0l4.9,7.8c1.5,2.3,2.6,2.3,4.3,2.3
		c-1.4-1.1-2.4-2.5-2.8-3.2L47.3,35c0.2-0.1,0.5-0.2,0.7-0.3l4,6.5c1.5,2.3,2.6,2.3,4.3,2.3c-1.4-1.1-2.4-2.5-2.8-3.2L49.6,34
		c0.2-0.1,0.4-0.3,0.6-0.4l3.2,5.1c1.5,2.3,2.6,2.3,4.3,2.3c-1.4-1.1-2.4-2.5-2.8-3.2l-3.3-5.3c0.2-0.2,0.4-0.4,0.6-0.5l2.3,3.7
		C56,38,57.2,38,58.9,38c-1.4-1.1-2.4-2.5-2.8-3.2l-2.7-4.3c0.1-0.3,0.3-0.5,0.4-0.8L55.1,31.8z"/>
	<path d="M73,50.3h-5V21.8h5V50.3z"/>
	<path class="st0" d="M73,78.7h-5V50.3h5V78.7z"/>
	<path class="st1" d="M73,107.2h-5V78.7h5V107.2z"/>
</g>
</svg>
