<?xml version="1.0" encoding="utf-8"?>
<!-- Generator: Adobe Illustrator 25.4.1, SVG Export Plug-In . SVG Version: 6.00 Build 0)  -->
<svg version="1.1" id="Ebene_1" xmlns="http://www.w3.org/2000/svg" xmlns:xlink="http://www.w3.org/1999/xlink" x="0px" y="0px"
	 viewBox="0 0 315 129" style="enable-background:new 0 0 315 129;" xml:space="preserve">
<style type="text/css">
	.st0{fill:#FF0000;}
	.st1{fill:#FFCC00;}
</style>
<g id="Name_00000003070401568404534300000013365232182701620916_" transform="scale(1,-1) translate(0,-104)">
	<path d="M89,79.9c0-0.4-0.1-0.8-0.2-1.1c-0.1-0.3-0.2-0.6-0.4-0.8c-0.2-0.2-0.4-0.4-0.6-0.5c-0.2-0.1-0.5-0.2-0.7-0.3v0
		c0.3-0.1,0.6-0.2,0.9-0.3c0.3-0.2,0.5-0.4,0.7-0.6c0.2-0.2,0.4-0.5,0.5-0.8c0.1-0.3,0.2-0.7,0.2-1.1c0-0.5-0.1-0.9-0.2-1.3
		c-0.2-0.4-0.4-0.7-0.7-1c-0.3-0.3-0.8-0.5-1.3-0.7c-0.5-0.2-1.1-0.2-1.8-0.2h-2.4v11.7h2.3c0.7,0,1.3-0.1,1.8-0.2
		c0.5-0.1,0.9-0.3,1.2-0.6s0.5-0.6,0.7-0.9C88.9,80.7,89,80.3,89,79.9z M87.5,79.8c0,0.5-0.2,1-0.6,1.3c-0.4,0.4-1,0.5-1.8,0.5h-0.8
		v-4.1h0.8c0.8,0,1.4,0.2,1.8,0.6C87.3,78.6,87.5,79.1,87.5,79.8z M87.7,74.4c0,0.6-0.2,1.1-0.6,1.5c-0.4,0.4-1,0.6-1.8,0.6h-1v-4.1
		h0.9c0.9,0,1.5,0.2,1.9,0.5C87.5,73.2,87.7,73.7,87.7,74.4z M96.8,71.1h-1.3V72h0c0-0.1-0.1-0.2-0.2-0.3c-0.1-0.1-0.3-0.3-0.4-0.4
		c-0.2-0.1-0.4-0.2-0.6-0.3c-0.2-0.1-0.5-0.1-0.8-0.1c-0.4,0-0.7,0.1-1,0.2c-0.3,0.1-0.5,0.3-0.7,0.5c-0.2,0.2-0.4,0.5-0.5,0.9
		c-0.1,0.4-0.2,0.8-0.2,1.4v5.4h1.4V74c0-0.7,0.1-1.2,0.3-1.5c0.2-0.3,0.6-0.4,1-0.4c0.4,0,0.7,0.1,1,0.3c0.3,0.2,0.5,0.4,0.6,0.6
		v6.3h1.4V71.1z M103.4,71.1v5.3c0,0.7-0.1,1.2-0.3,1.5c-0.2,0.3-0.6,0.5-1.1,0.5c-0.4,0-0.7-0.1-1-0.3c-0.3-0.2-0.5-0.4-0.6-0.6
		v-6.3h-1.4v8.2h1.3v-0.9h0c0,0.1,0.1,0.2,0.2,0.3c0.1,0.1,0.3,0.3,0.4,0.4c0.2,0.1,0.4,0.2,0.6,0.3s0.5,0.1,0.9,0.1
		c0.4,0,0.7-0.1,1-0.2c0.3-0.1,0.5-0.3,0.7-0.5c0.2-0.2,0.4-0.5,0.5-0.9c0.1-0.4,0.2-0.8,0.2-1.4v-5.4H103.4z M106.4,75.1
		c0,0.8,0.1,1.5,0.3,2.1c0.2,0.6,0.5,1,0.8,1.3c0.3,0.3,0.7,0.6,1.2,0.7c0.4,0.1,0.9,0.2,1.3,0.2c0.3,0,0.5,0,0.7-0.1
		c0.2,0,0.4-0.1,0.5-0.1v3.9l1.4,0.2V71.1h-1.3V72h0c0-0.1-0.1-0.2-0.2-0.3c-0.1-0.1-0.2-0.2-0.4-0.4c-0.2-0.1-0.4-0.2-0.6-0.3
		c-0.2-0.1-0.5-0.1-0.8-0.1c-0.4,0-0.8,0.1-1.1,0.2c-0.3,0.2-0.6,0.4-0.9,0.7c-0.3,0.3-0.5,0.8-0.6,1.3
		C106.5,73.7,106.4,74.3,106.4,75.1z M109.7,72.2c0.2,0,0.4,0,0.6,0.1c0.2,0.1,0.3,0.1,0.4,0.2c0.1,0.1,0.2,0.2,0.3,0.3
		c0.1,0.1,0.2,0.2,0.2,0.2v5c-0.1,0.1-0.3,0.1-0.4,0.2c-0.2,0.1-0.4,0.1-0.6,0.1c-0.3,0-0.6-0.1-0.9-0.2c-0.3-0.1-0.5-0.3-0.7-0.5
		c-0.2-0.2-0.4-0.6-0.5-1c-0.1-0.4-0.2-0.9-0.2-1.5c0-0.6,0-1,0.1-1.4c0.1-0.4,0.2-0.7,0.4-0.9c0.2-0.2,0.4-0.4,0.6-0.5
		C109.2,72.2,109.4,72.2,109.7,72.2z M119.9,76.5c0-0.4,0-0.7,0-0.9c0-0.3,0-0.5-0.1-0.7h-4.2c0-1,0.3-1.7,0.6-2.1
		c0.4-0.5,0.9-0.7,1.6-0.7c0.2,0,0.5,0,0.6,0.1c0.2,0.1,0.4,0.1,0.5,0.2c0.1,0.1,0.3,0.2,0.4,0.2c0.1,0.1,0.2,0.1,0.2,0.2l0.5-1
		c-0.1-0.1-0.1-0.1-0.3-0.2c-0.1-0.1-0.3-0.2-0.5-0.3c-0.2-0.1-0.4-0.2-0.7-0.3c-0.3-0.1-0.6-0.1-1-0.1c-0.5,0-1,0.1-1.4,0.3
		c-0.4,0.2-0.8,0.4-1.1,0.8c-0.3,0.4-0.5,0.8-0.7,1.4c-0.2,0.6-0.2,1.2-0.2,2c0,0.7,0.1,1.4,0.2,1.9c0.2,0.5,0.4,1,0.7,1.3
		c0.3,0.3,0.6,0.6,1,0.8c0.4,0.2,0.8,0.2,1.2,0.2c0.8,0,1.4-0.2,1.8-0.7C119.7,78.3,119.9,77.5,119.9,76.5z M117.4,78.4
		c-0.5,0-0.9-0.2-1.2-0.6c-0.3-0.4-0.5-1-0.5-1.8h3c0,0.1,0,0.1,0,0.2c0,0.1,0,0.2,0,0.3c0,0.6-0.1,1-0.3,1.3
		C118.1,78.2,117.8,78.4,117.4,78.4z M125.3,77.6c-0.1,0.1-0.3,0.2-0.5,0.4c-0.2,0.2-0.6,0.3-0.9,0.3c-0.4,0-0.6-0.1-0.8-0.3
		c-0.2-0.2-0.3-0.4-0.3-0.6c0-0.3,0.1-0.6,0.3-0.8c0.2-0.2,0.4-0.4,0.8-0.6l0.5-0.3c0.6-0.3,1-0.7,1.3-1.1c0.3-0.4,0.5-0.9,0.5-1.5
		c0-0.6-0.2-1.2-0.7-1.6c-0.4-0.4-1.1-0.7-1.9-0.7c-0.3,0-0.6,0-0.9,0.1c-0.2,0.1-0.5,0.1-0.7,0.2c-0.2,0.1-0.3,0.2-0.5,0.3
		c-0.1,0.1-0.2,0.2-0.3,0.3l0.7,1.1c0.1-0.1,0.2-0.1,0.2-0.2c0.1-0.1,0.2-0.2,0.3-0.3c0.1-0.1,0.3-0.2,0.5-0.2
		c0.2-0.1,0.4-0.1,0.6-0.1c0.4,0,0.7,0.1,0.9,0.3s0.3,0.4,0.3,0.7c0,0.2,0,0.4-0.1,0.5c-0.1,0.1-0.1,0.3-0.2,0.4
		c-0.1,0.1-0.2,0.2-0.4,0.3c-0.1,0.1-0.3,0.2-0.5,0.3l-0.5,0.3c-0.5,0.3-0.9,0.7-1.2,1c-0.3,0.4-0.4,0.8-0.4,1.4
		c0,0.3,0.1,0.6,0.2,0.8c0.1,0.3,0.3,0.5,0.5,0.7c0.2,0.2,0.5,0.3,0.8,0.4c0.3,0.1,0.6,0.2,0.9,0.2c0.3,0,0.6,0,0.8-0.1
		c0.2-0.1,0.4-0.1,0.6-0.2c0.2-0.1,0.3-0.2,0.4-0.3c0.1-0.1,0.2-0.2,0.3-0.2L125.3,77.6z M132,71.1v5.3c0,0.7-0.1,1.2-0.3,1.4
		s-0.5,0.4-0.9,0.4c-0.2,0-0.4,0-0.6-0.1c-0.2-0.1-0.3-0.1-0.5-0.2c-0.1-0.1-0.3-0.2-0.4-0.3c-0.1-0.1-0.2-0.2-0.3-0.3v-6.3h-1.4
		v8.2h1.3v-0.9h0c0.1,0.1,0.1,0.2,0.3,0.3c0.1,0.1,0.3,0.3,0.4,0.4c0.2,0.1,0.4,0.2,0.6,0.3c0.2,0.1,0.5,0.1,0.8,0.1
		c0.9,0,1.6-0.4,2-1.1c0.1,0.1,0.2,0.2,0.3,0.4c0.1,0.1,0.3,0.2,0.5,0.4c0.2,0.1,0.4,0.2,0.6,0.3c0.2,0.1,0.5,0.1,0.7,0.1
		c1.7,0,2.5-1,2.5-2.9v-5.5h-1.4v5.3c0,0.7-0.1,1.2-0.4,1.4s-0.6,0.4-1.1,0.4c-0.4,0-0.7-0.1-1-0.3c-0.3-0.2-0.5-0.4-0.6-0.5
		c0-0.1,0-0.3,0.1-0.4c0-0.1,0-0.3,0-0.5v-5.5H132z M141.1,71.1h-1.4v8.2h1.4V71.1z M140.4,81.3c-0.3,0-0.5,0.1-0.7,0.3
		c-0.2,0.2-0.3,0.4-0.3,0.7c0,0.3,0.1,0.5,0.3,0.7c0.2,0.2,0.4,0.3,0.7,0.3c0.3,0,0.5-0.1,0.7-0.3c0.2-0.2,0.3-0.4,0.3-0.7
		c0-0.3-0.1-0.5-0.3-0.7C140.9,81.4,140.7,81.3,140.4,81.3z M147.7,71.1v5.3c0,0.7-0.1,1.2-0.3,1.5c-0.2,0.3-0.6,0.5-1.1,0.5
		c-0.4,0-0.7-0.1-1-0.3c-0.3-0.2-0.5-0.4-0.6-0.6v-6.3h-1.4v8.2h1.3v-0.9h0c0,0.1,0.1,0.2,0.2,0.3c0.1,0.1,0.3,0.3,0.4,0.4
		c0.2,0.1,0.4,0.2,0.6,0.3c0.2,0.1,0.5,0.1,0.9,0.1c0.4,0,0.7-0.1,1-0.2c0.3-0.1,0.5-0.3,0.7-0.5s0.4-0.5,0.5-0.9
		c0.1-0.4,0.2-0.8,0.2-1.4v-5.4H147.7z M152.5,71.1h-1.4v8.2h1.4V71.1z M151.8,81.3c-0.3,0-0.5,0.1-0.7,0.3
		c-0.2,0.2-0.3,0.4-0.3,0.7c0,0.3,0.1,0.5,0.3,0.7c0.2,0.2,0.4,0.3,0.7,0.3c0.3,0,0.5-0.1,0.7-0.3s0.3-0.4,0.3-0.7
		c0-0.3-0.1-0.5-0.3-0.7S152.1,81.3,151.8,81.3z M158.1,77.6c-0.1,0.1-0.3,0.2-0.5,0.4c-0.2,0.2-0.6,0.3-0.9,0.3
		c-0.4,0-0.6-0.1-0.8-0.3c-0.2-0.2-0.3-0.4-0.3-0.6c0-0.3,0.1-0.6,0.3-0.8c0.2-0.2,0.4-0.4,0.8-0.6l0.5-0.3c0.6-0.3,1-0.7,1.3-1.1
		c0.3-0.4,0.5-0.9,0.5-1.5c0-0.6-0.2-1.2-0.7-1.6c-0.4-0.4-1.1-0.7-1.9-0.7c-0.3,0-0.6,0-0.9,0.1c-0.2,0.1-0.5,0.1-0.7,0.2
		c-0.2,0.1-0.3,0.2-0.5,0.3c-0.1,0.1-0.2,0.2-0.3,0.3l0.7,1.1c0.1-0.1,0.2-0.1,0.2-0.2c0.1-0.1,0.2-0.2,0.3-0.3
		c0.1-0.1,0.3-0.2,0.5-0.2c0.2-0.1,0.4-0.1,0.6-0.1c0.4,0,0.7,0.1,0.9,0.3s0.3,0.4,0.3,0.7c0,0.2,0,0.4-0.1,0.5
		c-0.1,0.1-0.1,0.3-0.2,0.4c-0.1,0.1-0.2,0.2-0.4,0.3c-0.1,0.1-0.3,0.2-0.5,0.3l-0.5,0.3c-0.5,0.3-0.9,0.7-1.2,1
		c-0.3,0.4-0.4,0.8-0.4,1.4c0,0.3,0.1,0.6,0.2,0.8c0.1,0.3,0.3,0.5,0.5,0.7c0.2,0.2,0.5,0.3,0.8,0.4c0.3,0.1,0.6,0.2,0.9,0.2
		c0.3,0,0.6,0,0.8-0.1c0.2-0.1,0.4-0.1,0.6-0.2c0.2-0.1,0.3-0.2,0.4-0.3c0.1-0.1,0.2-0.2,0.3-0.2L158.1,77.6z M164.1,78.2h-1.8v-4.5
		c0-0.6,0.1-1,0.2-1.2c0.1-0.2,0.4-0.3,0.7-0.3c0.2,0,0.4,0,0.5,0.1c0.1,0.1,0.3,0.1,0.3,0.2l0.2-1.1c-0.1,0-0.2-0.1-0.4-0.2
		c-0.2-0.1-0.5-0.1-0.9-0.1c-0.7,0-1.2,0.2-1.6,0.6c-0.4,0.4-0.5,1-0.5,1.9v4.7h-1v0.9l1,0.2l0.2,2.3h1.2v-2.3h2L164.1,78.2z
		 M170.8,76.5c0-0.4,0-0.7,0-0.9c0-0.3,0-0.5-0.1-0.7h-4.2c0-1,0.3-1.7,0.6-2.1c0.4-0.5,0.9-0.7,1.6-0.7c0.2,0,0.5,0,0.6,0.1
		c0.2,0.1,0.4,0.1,0.5,0.2c0.1,0.1,0.3,0.2,0.4,0.2c0.1,0.1,0.2,0.1,0.2,0.2l0.5-1c-0.1-0.1-0.1-0.1-0.3-0.2
		c-0.1-0.1-0.3-0.2-0.5-0.3c-0.2-0.1-0.4-0.2-0.7-0.3c-0.3-0.1-0.6-0.1-1-0.1c-0.5,0-1,0.1-1.4,0.3c-0.4,0.2-0.8,0.4-1.1,0.8
		c-0.3,0.4-0.5,0.8-0.7,1.4c-0.2,0.6-0.2,1.2-0.2,2c0,0.7,0.1,1.4,0.2,1.9c0.2,0.5,0.4,1,0.7,1.3c0.3,0.3,0.6,0.6,1,0.8
		c0.4,0.2,0.8,0.2,1.2,0.2c0.8,0,1.4-0.2,1.8-0.7C170.5,78.3,170.8,77.5,170.8,76.5z M168.2,78.4c-0.5,0-0.9-0.2-1.2-0.6
		c-0.3-0.4-0.5-1-0.5-1.8h3c0,0.1,0,0.1,0,0.2c0,0.1,0,0.2,0,0.3c0,0.6-0.1,1-0.3,1.3C168.9,78.2,168.6,78.4,168.2,78.4z
		 M176.2,78.1c0,0-0.1,0.1-0.2,0.1c-0.1,0-0.3,0.1-0.5,0.1c-0.4,0-0.8-0.1-1-0.3c-0.2-0.2-0.4-0.5-0.5-0.8v-6h-1.4v8.2h1.3v-1.1h0
		c0.1,0.2,0.1,0.3,0.2,0.5s0.2,0.3,0.3,0.4c0.1,0.1,0.3,0.2,0.5,0.3c0.2,0.1,0.4,0.1,0.7,0.1c0.2,0,0.3,0,0.5-0.1
		c0.1,0,0.2-0.1,0.3-0.1L176.2,78.1z M178.9,71.1h-1.4v8.2h1.4V71.1z M178.2,81.3c-0.3,0-0.5,0.1-0.7,0.3c-0.2,0.2-0.3,0.4-0.3,0.7
		c0,0.3,0.1,0.5,0.3,0.7c0.2,0.2,0.4,0.3,0.7,0.3c0.3,0,0.5-0.1,0.7-0.3c0.2-0.2,0.3-0.4,0.3-0.7c0-0.3-0.1-0.5-0.3-0.7
		C178.7,81.4,178.5,81.3,178.2,81.3z M186.7,71.1h-1.3V72h0c0-0.1-0.1-0.2-0.2-0.3c-0.1-0.1-0.3-0.3-0.4-0.4
		c-0.2-0.1-0.4-0.2-0.6-0.3c-0.2-0.1-0.5-0.1-0.8-0.1c-0.4,0-0.7,0.1-1,0.2c-0.3,0.1-0.5,0.3-0.7,0.5c-0.2,0.2-0.4,0.5-0.5,0.9
		c-0.1,0.4-0.2,0.8-0.2,1.4v5.4h1.4V74c0-0.7,0.1-1.2,0.3-1.5c0.2-0.3,0.6-0.4,1-0.4c0.4,0,0.7,0.1,1,0.3c0.3,0.2,0.5,0.4,0.6,0.6
		v6.3h1.4V71.1z M193.1,71.1v5.3c0,0.7-0.1,1.2-0.3,1.4c-0.2,0.3-0.5,0.4-0.9,0.4c-0.2,0-0.4,0-0.6-0.1c-0.2-0.1-0.3-0.1-0.5-0.2
		c-0.1-0.1-0.3-0.2-0.4-0.3c-0.1-0.1-0.2-0.2-0.3-0.3v-6.3h-1.4v8.2h1.3v-0.9h0c0.1,0.1,0.1,0.2,0.3,0.3c0.1,0.1,0.3,0.3,0.4,0.4
		c0.2,0.1,0.4,0.2,0.6,0.3c0.2,0.1,0.5,0.1,0.8,0.1c0.9,0,1.6-0.4,2-1.1c0.1,0.1,0.2,0.2,0.3,0.4c0.1,0.1,0.3,0.2,0.5,0.4
		c0.2,0.1,0.4,0.2,0.6,0.3c0.2,0.1,0.5,0.1,0.7,0.1c1.7,0,2.5-1,2.5-2.9v-5.5h-1.4v5.3c0,0.7-0.1,1.2-0.4,1.4s-0.6,0.4-1.1,0.4
		c-0.4,0-0.7-0.1-1-0.3c-0.3-0.2-0.5-0.4-0.6-0.5c0-0.1,0-0.3,0.1-0.4c0-0.1,0-0.3,0-0.5v-5.5H193.1z M82.1,57.9
		c0,0.8,0.1,1.5,0.3,2.1c0.2,0.6,0.5,1,0.8,1.3c0.3,0.3,0.7,0.6,1.2,0.7c0.4,0.1,0.9,0.2,1.3,0.2c0.3,0,0.5,0,0.7-0.1
		c0.2,0,0.4-0.1,0.5-0.1V66l1.4,0.2V54H87v0.9h0c0-0.1-0.1-0.2-0.2-0.3c-0.1-0.1-0.2-0.2-0.4-0.4c-0.2-0.1-0.4-0.2-0.6-0.3
		c-0.2-0.1-0.5-0.1-0.8-0.1c-0.4,0-0.8,0.1-1.1,0.2c-0.3,0.2-0.6,0.4-0.9,0.7c-0.3,0.3-0.5,0.8-0.6,1.3
		C82.2,56.5,82.1,57.2,82.1,57.9z M85.4,55c0.2,0,0.4,0,0.6,0.1c0.2,0.1,0.3,0.1,0.4,0.2c0.1,0.1,0.2,0.2,0.3,0.3
		c0.1,0.1,0.2,0.2,0.2,0.2v5c-0.1,0.1-0.3,0.1-0.4,0.2c-0.2,0.1-0.4,0.1-0.6,0.1c-0.3,0-0.6-0.1-0.9-0.2c-0.3-0.1-0.5-0.3-0.7-0.5
		c-0.2-0.2-0.4-0.6-0.5-1c-0.1-0.4-0.2-0.9-0.2-1.5c0-0.6,0-1,0.1-1.4c0.1-0.4,0.2-0.7,0.4-0.9c0.2-0.2,0.4-0.4,0.6-0.5
		C84.9,55,85.1,55,85.4,55z M95.6,59.4c0-0.4,0-0.7,0-0.9c0-0.3,0-0.5-0.1-0.7h-4.2c0-1,0.3-1.7,0.6-2.1c0.4-0.5,0.9-0.7,1.6-0.7
		c0.2,0,0.5,0,0.6,0.1c0.2,0.1,0.4,0.1,0.5,0.2c0.1,0.1,0.3,0.2,0.4,0.2c0.1,0.1,0.2,0.1,0.2,0.2l0.5-1c-0.1-0.1-0.1-0.1-0.3-0.2
		c-0.1-0.1-0.3-0.2-0.5-0.3c-0.2-0.1-0.4-0.2-0.7-0.3c-0.3-0.1-0.6-0.1-1-0.1c-0.5,0-1,0.1-1.4,0.3c-0.4,0.2-0.8,0.4-1.1,0.8
		s-0.5,0.8-0.7,1.4c-0.2,0.6-0.2,1.2-0.2,2c0,0.7,0.1,1.4,0.2,1.9c0.2,0.5,0.4,1,0.7,1.3c0.3,0.3,0.6,0.6,1,0.8
		c0.4,0.2,0.8,0.2,1.2,0.2c0.8,0,1.4-0.2,1.8-0.7C95.4,61.1,95.6,60.4,95.6,59.4z M93.1,61.2c-0.5,0-0.9-0.2-1.2-0.6
		c-0.3-0.4-0.5-1-0.5-1.8h3c0,0.1,0,0.1,0,0.2c0,0.1,0,0.2,0,0.3c0,0.6-0.1,1-0.3,1.3C93.8,61.1,93.5,61.2,93.1,61.2z M101.1,60.9
		c0,0-0.1,0.1-0.2,0.1c-0.1,0-0.3,0.1-0.5,0.1c-0.4,0-0.8-0.1-1-0.3c-0.2-0.2-0.4-0.5-0.5-0.8v-6h-1.4v8.2h1.3V61h0
		c0.1,0.2,0.1,0.3,0.2,0.5c0.1,0.2,0.2,0.3,0.3,0.4c0.1,0.1,0.3,0.2,0.5,0.3c0.2,0.1,0.4,0.1,0.7,0.1c0.2,0,0.3,0,0.5-0.1
		c0.1,0,0.2-0.1,0.3-0.1L101.1,60.9z M113.1,65.7L109.3,54h-1.2l-3.7,11.7h1.6l2.2-7.8c0.1-0.4,0.2-0.8,0.3-1.2
		c0.1-0.4,0.2-0.7,0.2-1h0c0,0.3,0.1,0.6,0.2,1c0.1,0.4,0.2,0.8,0.3,1.2l2.3,7.8H113.1z M118.7,59.4c0-0.4,0-0.7,0-0.9
		c0-0.3,0-0.5-0.1-0.7h-4.2c0-1,0.3-1.7,0.6-2.1c0.4-0.5,0.9-0.7,1.6-0.7c0.2,0,0.5,0,0.6,0.1c0.2,0.1,0.4,0.1,0.5,0.2
		c0.1,0.1,0.3,0.2,0.4,0.2c0.1,0.1,0.2,0.1,0.2,0.2l0.5-1c-0.1-0.1-0.1-0.1-0.3-0.2c-0.1-0.1-0.3-0.2-0.5-0.3
		c-0.2-0.1-0.4-0.2-0.7-0.3c-0.3-0.1-0.6-0.1-1-0.1c-0.5,0-1,0.1-1.4,0.3c-0.4,0.2-0.8,0.4-1.1,0.8s-0.5,0.8-0.7,1.4
		c-0.2,0.6-0.2,1.2-0.2,2c0,0.7,0.1,1.4,0.2,1.9c0.2,0.5,0.4,1,0.7,1.3c0.3,0.3,0.6,0.6,1,0.8c0.4,0.2,0.8,0.2,1.2,0.2
		c0.8,0,1.4-0.2,1.8-0.7C118.5,61.1,118.7,60.4,118.7,59.4z M116.1,61.2c-0.5,0-0.9-0.2-1.2-0.6c-0.3-0.4-0.5-1-0.5-1.8h3
		c0,0.1,0,0.1,0,0.2c0,0.1,0,0.2,0,0.3c0,0.6-0.1,1-0.3,1.3C116.9,61.1,116.6,61.2,116.1,61.2z M124.2,60.9c0,0-0.1,0.1-0.2,0.1
		c-0.1,0-0.3,0.1-0.5,0.1c-0.4,0-0.8-0.1-1-0.3c-0.2-0.2-0.4-0.5-0.5-0.8v-6h-1.4v8.2h1.3V61h0c0.1,0.2,0.1,0.3,0.2,0.5
		c0.1,0.2,0.2,0.3,0.3,0.4c0.1,0.1,0.3,0.2,0.5,0.3c0.2,0.1,0.4,0.1,0.7,0.1c0.2,0,0.3,0,0.5-0.1c0.1,0,0.2-0.1,0.3-0.1L124.2,60.9z
		 M129,61h-1.8v-4.5c0-0.6,0.1-1,0.2-1.2c0.1-0.2,0.4-0.3,0.7-0.3c0.2,0,0.4,0,0.5,0.1c0.1,0.1,0.3,0.1,0.3,0.2l0.2-1.1
		c-0.1,0-0.2-0.1-0.4-0.2c-0.2-0.1-0.5-0.1-0.9-0.1c-0.7,0-1.2,0.2-1.6,0.6c-0.4,0.4-0.5,1-0.5,1.9V61h-1v0.9l1,0.2l0.2,2.3h1.2
		v-2.3h2L129,61z M135.7,59.4c0-0.4,0-0.7,0-0.9c0-0.3,0-0.5-0.1-0.7h-4.2c0-1,0.3-1.7,0.6-2.1c0.4-0.5,0.9-0.7,1.6-0.7
		c0.2,0,0.5,0,0.6,0.1c0.2,0.1,0.4,0.1,0.5,0.2c0.1,0.1,0.3,0.2,0.4,0.2c0.1,0.1,0.2,0.1,0.2,0.2l0.5-1c-0.1-0.1-0.1-0.1-0.3-0.2
		c-0.1-0.1-0.3-0.2-0.5-0.3c-0.2-0.1-0.4-0.2-0.7-0.3s-0.6-0.1-1-0.1c-0.5,0-1,0.1-1.4,0.3c-0.4,0.2-0.8,0.4-1.1,0.8
		s-0.5,0.8-0.7,1.4c-0.2,0.6-0.2,1.2-0.2,2c0,0.7,0.1,1.4,0.2,1.9c0.2,0.5,0.4,1,0.7,1.3c0.3,0.3,0.6,0.6,1,0.8
		c0.4,0.2,0.8,0.2,1.2,0.2c0.8,0,1.4-0.2,1.8-0.7C135.5,61.1,135.7,60.4,135.7,59.4z M133.1,61.2c-0.5,0-0.9-0.2-1.2-0.6
		s-0.5-1-0.5-1.8h3c0,0.1,0,0.1,0,0.2c0,0.1,0,0.2,0,0.3c0,0.6-0.1,1-0.3,1.3C133.9,61.1,133.5,61.2,133.1,61.2z M138.9,54h-1.4v8.2
		h1.4V54z M138.2,64.1c-0.3,0-0.5,0.1-0.7,0.3c-0.2,0.2-0.3,0.4-0.3,0.7c0,0.3,0.1,0.5,0.3,0.7c0.2,0.2,0.4,0.3,0.7,0.3
		c0.3,0,0.5-0.1,0.7-0.3c0.2-0.2,0.3-0.4,0.3-0.7c0-0.3-0.1-0.5-0.3-0.7C138.7,64.2,138.5,64.1,138.2,64.1z M140.6,57.9
		c0,0.8,0.1,1.5,0.3,2.1c0.2,0.6,0.5,1,0.8,1.3c0.3,0.3,0.7,0.6,1.2,0.7c0.4,0.1,0.9,0.2,1.3,0.2c0.3,0,0.5,0,0.7-0.1
		c0.2,0,0.4-0.1,0.5-0.1V66l1.4,0.2V54h-1.3v0.9h0c0-0.1-0.1-0.2-0.2-0.3c-0.1-0.1-0.2-0.2-0.4-0.4c-0.2-0.1-0.4-0.2-0.6-0.3
		c-0.2-0.1-0.5-0.1-0.8-0.1c-0.4,0-0.8,0.1-1.1,0.2c-0.3,0.2-0.6,0.4-0.9,0.7c-0.3,0.3-0.5,0.8-0.6,1.3
		C140.7,56.5,140.6,57.2,140.6,57.9z M143.9,55c0.2,0,0.4,0,0.6,0.1c0.2,0.1,0.3,0.1,0.4,0.2c0.1,0.1,0.2,0.2,0.3,0.3
		c0.1,0.1,0.2,0.2,0.2,0.2v5c-0.1,0.1-0.3,0.1-0.4,0.2c-0.2,0.1-0.4,0.1-0.6,0.1c-0.3,0-0.6-0.1-0.9-0.2c-0.3-0.1-0.5-0.3-0.7-0.5
		c-0.2-0.2-0.4-0.6-0.5-1c-0.1-0.4-0.2-0.9-0.2-1.5c0-0.6,0-1,0.1-1.4c0.1-0.4,0.2-0.7,0.4-0.9c0.2-0.2,0.4-0.4,0.6-0.5
		C143.4,55,143.6,55,143.9,55z M150.3,54h-1.4v8.2h1.4V54z M149.6,64.1c-0.3,0-0.5,0.1-0.7,0.3c-0.2,0.2-0.3,0.4-0.3,0.7
		c0,0.3,0.1,0.5,0.3,0.7c0.2,0.2,0.4,0.3,0.7,0.3c0.3,0,0.5-0.1,0.7-0.3c0.2-0.2,0.3-0.4,0.3-0.7c0-0.3-0.1-0.5-0.3-0.7
		C150.1,64.2,149.9,64.1,149.6,64.1z M158.2,61.1h-1c0.3-0.4,0.4-0.9,0.4-1.5c0-0.4-0.1-0.8-0.2-1.2c-0.1-0.3-0.3-0.6-0.6-0.9
		c-0.3-0.2-0.6-0.4-0.9-0.5c-0.3-0.1-0.7-0.2-1.1-0.2c-0.1,0-0.2,0-0.2,0c-0.1,0-0.1,0-0.2,0c-0.1-0.1-0.3-0.1-0.4-0.3
		c-0.1-0.1-0.2-0.3-0.2-0.5c0-0.2,0.1-0.3,0.2-0.4c0.1-0.1,0.3-0.2,0.6-0.2h1c0.4,0,0.7,0,1.1-0.1c0.3-0.1,0.6-0.2,0.9-0.4
		c0.2-0.2,0.4-0.4,0.6-0.7s0.2-0.6,0.2-1c0-0.4-0.1-0.8-0.3-1.2c-0.2-0.4-0.5-0.7-0.8-0.9c-0.3-0.3-0.8-0.5-1.2-0.6
		c-0.5-0.1-1-0.2-1.6-0.2c-0.9,0-1.5,0.2-2,0.6c-0.5,0.4-0.7,0.9-0.7,1.6c0,0.3,0.1,0.6,0.2,0.8c0.1,0.2,0.2,0.4,0.4,0.6
		c0.1,0.2,0.3,0.3,0.5,0.4c0.2,0.1,0.3,0.2,0.4,0.2v0c-0.4,0.3-0.5,0.6-0.5,1.1c0,0.2,0,0.4,0.1,0.6c0.1,0.2,0.2,0.3,0.3,0.4
		c0.1,0.1,0.2,0.2,0.3,0.2c0.1,0.1,0.2,0.1,0.2,0.1v0c-0.4,0.2-0.8,0.5-1,0.9c-0.3,0.4-0.4,0.9-0.4,1.6c0,0.5,0.1,0.9,0.2,1.2
		c0.1,0.3,0.3,0.6,0.6,0.9c0.2,0.2,0.5,0.4,0.9,0.5c0.3,0.1,0.7,0.2,1.1,0.2c0.4,0,0.7-0.1,1.1-0.2h2.5L158.2,61.1z M154.5,54.2
		c-0.2,0-0.4,0-0.6,0.1c-0.1-0.1-0.2-0.1-0.3-0.2c-0.1-0.1-0.2-0.2-0.3-0.3s-0.1-0.2-0.2-0.4c-0.1-0.2-0.1-0.3-0.1-0.5
		c0-0.9,0.5-1.3,1.4-1.3c0.8,0,1.4,0.2,1.8,0.5c0.4,0.3,0.6,0.7,0.6,1.1c0,0.4-0.1,0.7-0.4,0.8c-0.2,0.2-0.6,0.2-1,0.2H154.5z
		 M156.3,59.6c0,0.6-0.1,1-0.4,1.3c-0.3,0.2-0.6,0.4-1,0.4c-0.4,0-0.7-0.1-1-0.4c-0.3-0.2-0.4-0.7-0.4-1.3c0-0.6,0.1-1,0.4-1.3
		c0.3-0.2,0.6-0.4,1-0.4c0.4,0,0.7,0.1,1,0.4C156.1,58.6,156.3,59,156.3,59.6z M165.5,54h-1.3v0.9h0c0-0.1-0.1-0.2-0.2-0.3
		c-0.1-0.1-0.3-0.3-0.4-0.4c-0.2-0.1-0.4-0.2-0.6-0.3s-0.5-0.1-0.8-0.1c-0.4,0-0.7,0.1-1,0.2c-0.3,0.1-0.5,0.3-0.7,0.5
		c-0.2,0.2-0.4,0.5-0.5,0.9c-0.1,0.4-0.2,0.8-0.2,1.4v5.4h1.4v-5.3c0-0.7,0.1-1.2,0.3-1.5c0.2-0.3,0.6-0.4,1-0.4
		c0.4,0,0.7,0.1,1,0.3c0.3,0.2,0.5,0.4,0.6,0.6v6.3h1.4V54z M172.1,54v5.3c0,0.7-0.1,1.2-0.3,1.5c-0.2,0.3-0.6,0.5-1.1,0.5
		c-0.4,0-0.7-0.1-1-0.3c-0.3-0.2-0.5-0.4-0.6-0.6V54h-1.4v8.2h1.3v-0.9h0c0,0.1,0.1,0.2,0.2,0.3c0.1,0.1,0.3,0.3,0.4,0.4
		c0.2,0.1,0.4,0.2,0.6,0.3c0.2,0.1,0.5,0.1,0.9,0.1c0.4,0,0.7-0.1,1-0.2c0.3-0.1,0.5-0.3,0.7-0.5s0.4-0.5,0.5-0.9
		c0.1-0.4,0.2-0.8,0.2-1.4V54H172.1z M181.4,61.1h-1c0.3-0.4,0.4-0.9,0.4-1.5c0-0.4-0.1-0.8-0.2-1.2c-0.1-0.3-0.3-0.6-0.6-0.9
		c-0.3-0.2-0.6-0.4-0.9-0.5c-0.3-0.1-0.7-0.2-1.1-0.2c-0.1,0-0.2,0-0.2,0c-0.1,0-0.1,0-0.2,0c-0.1-0.1-0.3-0.1-0.4-0.3
		c-0.1-0.1-0.2-0.3-0.2-0.5c0-0.2,0.1-0.3,0.2-0.4c0.1-0.1,0.3-0.2,0.6-0.2h1c0.4,0,0.7,0,1.1-0.1c0.3-0.1,0.6-0.2,0.9-0.4
		c0.2-0.2,0.4-0.4,0.6-0.7c0.1-0.3,0.2-0.6,0.2-1c0-0.4-0.1-0.8-0.3-1.2c-0.2-0.4-0.5-0.7-0.8-0.9c-0.3-0.3-0.8-0.5-1.2-0.6
		c-0.5-0.1-1-0.2-1.6-0.2c-0.9,0-1.5,0.2-2,0.6c-0.5,0.4-0.7,0.9-0.7,1.6c0,0.3,0.1,0.6,0.2,0.8c0.1,0.2,0.2,0.4,0.4,0.6
		c0.1,0.2,0.3,0.3,0.5,0.4c0.2,0.1,0.3,0.2,0.4,0.2v0c-0.4,0.3-0.5,0.6-0.5,1.1c0,0.2,0,0.4,0.1,0.6c0.1,0.2,0.2,0.3,0.3,0.4
		c0.1,0.1,0.2,0.2,0.3,0.2c0.1,0.1,0.2,0.1,0.2,0.1v0c-0.4,0.2-0.8,0.5-1,0.9c-0.3,0.4-0.4,0.9-0.4,1.6c0,0.5,0.1,0.9,0.2,1.2
		c0.1,0.3,0.3,0.6,0.6,0.9c0.2,0.2,0.5,0.4,0.9,0.5c0.3,0.1,0.7,0.2,1.1,0.2s0.7-0.1,1.1-0.2h2.5L181.4,61.1z M177.6,54.2
		c-0.2,0-0.4,0-0.6,0.1c-0.1-0.1-0.2-0.1-0.3-0.2c-0.1-0.1-0.2-0.2-0.3-0.3c-0.1-0.1-0.1-0.2-0.2-0.4c-0.1-0.2-0.1-0.3-0.1-0.5
		c0-0.9,0.5-1.3,1.4-1.3c0.8,0,1.4,0.2,1.8,0.5c0.4,0.3,0.6,0.7,0.6,1.1c0,0.4-0.1,0.7-0.4,0.8c-0.2,0.2-0.6,0.2-1,0.2H177.6z
		 M179.4,59.6c0,0.6-0.1,1-0.4,1.3c-0.3,0.2-0.6,0.4-1,0.4c-0.4,0-0.7-0.1-1-0.4c-0.3-0.2-0.4-0.7-0.4-1.3c0-0.6,0.1-1,0.4-1.3
		c0.3-0.2,0.6-0.4,1-0.4c0.4,0,0.7,0.1,1,0.4C179.3,58.6,179.4,59,179.4,59.6z"/>
</g>
<g id="Adler-und-Saeulenelement_00000100377661158841289140000000088969273160458628_">
	<path d="M45.2,31.9c0-0.3,0.1-0.7,0.1-1c0-0.2,0-0.4,0-0.6c2.8,0,5.3-2.1,5.3-4.5c0-1.2-0.8-2.1-1.2-2.6c0.1,0,0.2,0,0.3-0.1
		c0.4,0.4,1.6,1.7,1.6,3.3C51.3,29.2,48.5,31.9,45.2,31.9 M42.4,22.1c-0.1-0.3-0.2-0.6-0.4-0.8c0-0.3,0.1-0.6,0.6-0.3
		c-0.3,0.3-0.1,0.7-0.1,0.7s0.5-0.2,0.4-0.6C43.7,21.2,43.2,22.2,42.4,22.1 M41.7,23.5c-0.1-0.4-0.3-0.9-0.6-1.2
		c-0.3-0.3-0.7-0.7-1.2-0.7c-0.3,0-0.7,0.1-1,0.2c-0.1-0.2-0.3-0.6-0.3-0.8c0-0.2,0.4-0.4,1-0.4c1.5,0,2.4,0.7,2.4,1.8
		C42,22.8,41.9,23.2,41.7,23.5 M45.5,42.5c0.2,0,0.3,0,0.4,0.1c0.4,1.2,2.1,3.3,2.1,3.4l0,0l0,0c0.4-0.1,1.4-0.2,2.3-0.2h0
		c0.1,0,0.2,0,0.3,0.1c0.1,0.1,0.1,0.2,0.1,0.3c0,0.2-0.1,0.6-0.2,0.7c-0.3-0.3-0.8-0.5-1.6-0.5c-0.2,0-0.5,0.1-0.7,0.1l-0.1,0
		l-0.1,0l0.5,0.5c0.7,0.7,1.3,1.3,1.3,1.7c0,0.2-0.2,0.6-0.4,0.7c0-0.7-0.8-1.7-1.5-2.3l-0.1,0l0,0.3c0,0.2,0,0.4,0,0.7
		c0,1.4-0.1,1.6-0.6,1.6c-0.1,0-0.2,0-0.3,0c0.3-0.3,0.4-0.8,0.4-1.6l0-0.4l0-0.3c0-0.3,0-0.6,0.1-0.7l0-0.1l-0.1,0
		c-0.2,0-0.6-0.1-1-0.1c-0.7,0-1.2,0.1-1.5,0.4c-0.2-0.2-0.5-0.5-0.5-0.7c0-0.3,0.2-0.3,0.4-0.3c0.1,0,0.2,0,0.4,0
		c0.3,0,0.7,0.1,1.7,0.1h0.1l0-0.1c-0.2-0.7-0.9-1.6-1.9-2.9C45.1,42.7,45.2,42.5,45.5,42.5 M36.7,46L36.7,46L36.7,46
		c1,0.1,1.4,0,1.7-0.1c0.2,0,0.3,0,0.4,0c0.2,0,0.4,0,0.4,0.3c0,0.2-0.2,0.5-0.5,0.7c-0.3-0.3-0.8-0.4-1.5-0.4c-0.3,0-0.7,0.1-1,0.1
		l0,0l0,0l0,0.1c0,0.2,0.1,0.4,0.1,0.7l0,0.3l0,0.4c0,0.8,0.1,1.2,0.4,1.6c-0.1,0-0.2,0-0.3,0c-0.5,0-0.6-0.2-0.6-1.6
		c0-0.3,0-0.5,0-0.7l0-0.3l-0.1,0c-0.7,0.5-1.5,1.5-1.5,2.3c-0.2-0.1-0.5-0.5-0.5-0.7c0-0.4,0.6-1,1.3-1.7l0.4-0.4l0.1-0.1l-0.1,0
		c-0.2,0-0.4-0.1-0.7-0.1c-0.8,0-1.3,0.1-1.6,0.5c-0.1-0.2-0.2-0.5-0.2-0.7c0-0.1,0-0.2,0.1-0.3c0.1-0.1,0.2-0.1,0.3-0.1h0
		c0.9,0,1.9,0.2,2.3,0.2l0,0l0,0c0.1-0.1,1.7-2.3,2.1-3.4c0.1,0,0.2-0.1,0.4-0.1c0.3,0,0.4,0.2,0.5,0.6C37.5,44.3,36.9,45.3,36.7,46
		 M32.3,26.4c0-1.6,1.2-2.9,1.6-3.3c0.1,0,0.2,0,0.3,0.1c-0.4,0.5-1.2,1.4-1.2,2.6c0,2.4,2.5,4.5,5.4,4.5c0,0.2,0,0.4,0,0.6
		c0,0.4,0,0.7,0.1,1C35.1,31.9,32.3,29.3,32.3,26.4 M54.1,31.4c1.5,2.3,2.6,2.3,4.3,2.3c-1.4-1.1-2.4-2.5-2.8-3.2L53,26.2
		c-0.3-1.3-0.9-2.6-2-3.5c0.3-0.1,0.6-0.3,0.8-0.4c-1.7,0-3.5-0.9-4.4-0.9c-0.6,0-1,0.4-1,0.8c0,0.5,0.6,1.1,1.6,1.1
		c0.2,0,0.5,0,0.9-0.1c0.6,0.8,1,1.5,1,2.5c0,1.9-2.2,3.3-4.5,3.3c-0.1,0-0.3,0-0.4,0c-0.2-0.5-0.9-1.2-0.9-2.1c0-1.5,1-2.7,1-4.2
		c0-0.9-0.4-1.5-0.6-1.7c0.3-0.3,0.6-0.6,0.7-0.8c-0.2,0.1-0.4,0.1-0.6,0.1c-1.1,0-2-0.3-2.8-0.3c-0.5,0-0.6,0.2-0.6,0.3
		c0,0.1,0,0.1,0,0.1c-0.2-0.1-0.4-0.1-0.6-0.2c-0.3,0-0.5-0.1-0.8-0.1c-1,0-1.4,0.4-1.4,0.8c0,0.3,0.3,0.9,0.5,1.3
		c0.4-0.2,0.9-0.3,1.1-0.3c0.6,0,1,0.5,1.3,1.2c-0.4,0-0.4,0.1-0.8,0.1c-1,0-1.7-0.4-1.9-0.4c0,0,0,0,0,0c0,0.1,0.3,0.5,0.9,0.7
		c0.8,0.3,1.9,0.4,2.1,0.4c0,0-0.2,0.4-0.4,0.5c0,0-0.1,0-0.1,0c-0.8-0.2-1-0.2-2-0.6c0,0,0,0,0,0c0,0.4,1,1.3,1.9,1.6
		c-0.8,1-1.7,2-2.2,3.5c-0.1,0-0.3,0-0.4,0c-2.3,0-4.5-1.5-4.5-3.3c0-1,0.4-1.7,1-2.5c0.3,0.1,0.6,0.1,0.9,0.1c1,0,1.6-0.5,1.6-1.1
		c0-0.5-0.4-0.8-1-0.8c-1,0-2.7,0.9-4.4,0.9c0.2,0.1,0.5,0.3,0.8,0.4c-1,0.9-1.7,2.2-2,3.5l-2.7,4.3c-0.5,0.7-1.4,2.1-2.8,3.2
		c1.7,0,2.9,0,4.3-2.3l1.4-2.2c0.1,0.3,0.2,0.6,0.4,0.8l-2.7,4.4c-0.5,0.7-1.4,2.1-2.8,3.2c1.7,0,2.9,0,4.3-2.3l2.3-3.8
		c0.2,0.2,0.4,0.4,0.6,0.5l-3.3,5.3c-0.5,0.7-1.4,2.1-2.8,3.2c1.7,0,2.9,0,4.3-2.3l3.2-5.2c0.2,0.1,0.4,0.3,0.7,0.4L31,39.9
		c-0.5,0.7-1.4,2.1-2.8,3.2c1.7,0,2.9,0,4.3-2.3l4.1-6.5c0.2,0.1,0.5,0.2,0.7,0.3L32.7,42c-0.4,0.7-1.4,2.1-2.8,3.2
		c1.7,0,2.9,0,4.3-2.3l4.9-7.8c0.1,0,0.1,0,0.1,0c0.1,0.4,0.2,0.8,0.2,1.2c0,2.5-1.6,4.6-3.5,6.3c0.1,0.1,0.3,0.1,0.5,0.1
		c0.4,0,0.7,0,0.8-0.1c-0.4,1-1.4,2.3-1.9,3c-0.6-0.1-1.6-0.2-2.2-0.2c-0.6,0-0.7,0.4-0.7,0.7c0,0.6,0.3,1,0.6,1.3
		c0.1-0.3,0.4-0.7,1.5-0.7c0,0,0.1,0,0.1,0c-0.3,0.4-1.4,1.2-1.4,1.9c0,0.5,0.5,1.2,1.2,1.2c0-0.1,0-0.3,0-0.4
		c0-0.6,0.5-1.2,0.9-1.7c0,0.1,0,0.1,0,0.3c0,1.3,0.1,1.9,1,1.9c0.4,0,0.7-0.2,0.8-0.3c-0.5-0.5-0.6-0.9-0.6-1.6c0-0.2,0-0.4,0-0.6
		c0-0.2,0-0.4,0-0.6c0.3,0,0.4,0,0.7,0c0,0,1.2-0.1,1.5,0.5c0.3-0.3,0.8-0.7,0.8-1.2c0-0.3-0.1-0.7-0.8-0.7c-0.2,0-1,0.1-1.6,0.1
		c0.2-0.4,0.9-1.4,1.5-2.2c0.1,0.3,0.2,0.6,0.6,0.9c0-0.5,0.3-2.1,1.1-3c0.1,0.6,0.2,1.3,0.2,2.6c0,3.3-0.8,5.8-2.5,6.2
		c0.2,0.4,0.7,0.7,1.2,0.7c0.6,0,1-0.7,1.3-1.4c0.2,0.5,0.7,1.7,1.2,1.7c0.5,0,1-1.2,1.2-1.7c0.3,0.7,0.7,1.4,1.3,1.4
		c0.5,0,0.9-0.3,1.2-0.7c-1.7-0.5-2.5-2.9-2.5-6.2c0-1.4,0.1-2,0.2-2.6c0.8,0.9,1.1,2.5,1.1,3c0.3-0.3,0.5-0.6,0.6-0.9
		c0.6,0.8,1.4,1.9,1.5,2.2c-0.6,0-1.4-0.1-1.6-0.1c-0.6,0-0.8,0.3-0.8,0.7c0,0.5,0.5,0.9,0.8,1.2c0.3-0.6,1.5-0.5,1.5-0.5
		c0.2,0,0.4,0,0.7,0c0,0.2,0,0.4,0,0.6c0,0.3,0,0.5,0,0.6c0,0.7,0,1.1-0.6,1.6c0.1,0.1,0.4,0.3,0.8,0.3c0.8,0,1-0.6,1-1.9
		c0-0.2,0-0.1,0-0.3c0.4,0.5,0.9,1.1,0.9,1.7c0,0.1,0,0.2,0,0.4c0.7,0,1.2-0.7,1.2-1.2c0-0.7-1.1-1.6-1.4-1.9c0.1,0,0.1,0,0.1,0
		c1.2,0,1.4,0.4,1.5,0.7c0.3-0.3,0.6-0.7,0.6-1.3c0-0.3-0.1-0.7-0.7-0.7c-0.6,0-1.5,0.1-2.2,0.2c-0.5-0.7-1.4-2-1.9-3
		c0.2,0,0.4,0.1,0.8,0.1c0.2,0,0.4,0,0.5-0.1c-1.9-1.7-3.5-3.8-3.5-6.3c0-0.4,0.1-0.8,0.2-1.2c0,0,0.1,0,0.1,0l4.9,7.8
		c1.5,2.3,2.6,2.3,4.3,2.3c-1.4-1.1-2.4-2.5-2.8-3.2l-4.6-7.3c0.2-0.1,0.5-0.2,0.7-0.3l4.1,6.5c1.5,2.3,2.6,2.3,4.3,2.3
		C54,42,53,40.7,52.6,39.9l-3.9-6.3c0.2-0.1,0.4-0.3,0.7-0.4l3.2,5.2c1.5,2.3,2.6,2.3,4.3,2.3c-1.4-1.1-2.4-2.5-2.8-3.2l-3.3-5.3
		c0.2-0.2,0.4-0.4,0.6-0.5l2.3,3.8c1.5,2.3,2.6,2.3,4.3,2.3c-1.4-1.1-2.4-2.5-2.8-3.2l-2.7-4.4c0.1-0.3,0.3-0.5,0.4-0.8L54.1,31.4z"
		/>
	<path d="M72.2,50h-5V21.4h5V50z"/>
	<path class="st0" d="M72.2,78.6h-5V50h5V78.6z"/>
	<path class="st1" d="M72.2,107.2h-5V78.6h5V107.2z"/>
</g>
</svg>
