<svg height="129" viewBox="0 0 315 129" width="315" xmlns="http://www.w3.org/2000/svg"><g fill="none" fill-rule="evenodd"><path d="m0 0h315v129h-315z" fill="#fff"/><g fill-rule="nonzero" transform="translate(26 20)"><path d="m63.73734 4.52368c0 .4073398-.049296.7591426-.148046 1.0677324-.104912.3024278-.240713.5616426-.4196954.7838222-.1728046.2221954-.3764824.395-.6048398.5307852-.2345352.1357852-.4752324.2406972-.7221074.3085898v.0308574c.302412.0555528.5925.1666426.8517148.3209296.2653926.1604648.4999278.3579648.6974278.5925.1975.2406972.351787.5184296.4752324.839375.117236.3209296.1789824.6727324.1789824 1.0553926 0 .4628926-.080264.88875-.2406972 1.2714102-.154366.3826602-.4011778.7159296-.734463.9998398-.3332852.2777324-.7529648.4999278-1.2590546.6603926-.5122676.1543028-1.1109454.2345352-1.814472.2345352h-2.382324v-11.677148h2.246602c.69125 0 1.277588.0740546 1.771338.2098398.4875722.1419472.894912.345625 1.2096796.6048398s.543125.5678204.6850722.938125c.141884.3641426.2098556.7776602.2098556 1.2281972m-1.4874278.049375c0-.543125-.1913222-.9875-.5739824-1.3393028-.3827392-.345625-.987579-.5246074-1.81463-.5246074h-.7776602v4.030264h.7653204c.7838222 0 1.3825-.1913222 1.789824-.5739824s.6110176-.9134296.6110176-1.592324m.2221954 5.381796c0-.6356972-.2098556-1.1294472-.6171954-1.4997676-.4135176-.3641426-1.0060176-.5493028-1.771338-.5493028h-.9998556v4.098204h.9134454c.8702324 0 1.4997676-.1728046 1.888574-.5184296.388838-.345625.5863696-.8578926.5863696-1.530625m9.0665298 3.264912h-1.25294v-.9134296h-.03081c-.036972.0678926-.104912.1666426-.2221954.29625-.111074.1296074-.253037.2530528-.4320352.3703204-.1728046.1234454-.3888222.2221796-.6356972.3147676-.246875.0925722-.5246074.1357852-.8270352.1357852-.3579648 0-.6850722-.0555528-.9751444-.1604648-.2839102-.1049278-.5307852-.2777324-.734463-.5184454-.203662-.2345352-.3579648-.543125-.4628926-.9196074-.111074-.3764824-.1604648-.8455528-.1604648-1.3948398v-5.3325h1.3701602v5.227588c0 .6789102.111074 1.1603204.3271074 1.4503926.2221796.2839102.5616426.4258574 1.0245352.4258574.395 0 .7282694-.0925722.9998398-.2900722.2715546-.1975.4875722-.395.641875-.5863222v-6.2274436h1.3701602zm6.5297766 0v-5.227588c0-.69125-.111074-1.185-.345625-1.48125-.2283574-.3024278-.5801602-.4505528-1.0553926-.4505528-.4073398 0-.7468028.1049278-1.0183574.3024278-.2715704.2098398-.4814102.4073398-.641875.5925v6.264463h-1.3701602v-8.122227h1.2528926v.9134296h.03081c.036972-.0678926.111074-.1666426.2221954-.29625.111074-.1296074.2592148-.2530528.4381972-.3703204.1851602-.1234454.395-.2221796.6480528-.3147676.246875-.0925722.5307694-.1357852.845537-.1357852.3579806 0 .685088.0555528.981338.1604648.2900722.1049278.5369472.2777324.740625.5184296.203662.2345352.3641426.543125.4752324.9196074.111074.3764824.1728046.8455528.1728046 1.3948398v5.332579zm3.048926-3.943838c0-.8208574.104912-1.5121074.3209296-2.061426.2160176-.5554648.49375-.9998398.8270352-1.3393028.3394472-.3394472.7221074-.5801602 1.1541426-.7159296.4258574-.1419472.8578926-.2160176 1.28375-.2160176.2592148 0 .4875722.0185176.6789102.0617148.1913222.0370352.345625.0864102.4752324.1419472v-3.888222l1.3701444-.1543028v12.11544h-1.2528768v-.8640704h-.03081c-.036972.0678926-.09875.1604648-.1913222.2777324-.086426.1172676-.2160176.2406972-.3703046.3579648-.1604806.1172676-.3579806.2221954-.5925.3024278-.240713.0864102-.5122676.1296074-.833213.1296074-.3764824 0-.746787-.0802324-1.08625-.2283574-.345625-.1543028-.648037-.395-.9072676-.7282852-.2592148-.3332852-.4628926-.7591426-.6171796-1.28375-.154366-.5246074-.2283574-1.1603204-.2283574-1.90706m3.215616 2.925528c.2160176 0 .4073556-.0246796.5739824-.0802324.1666426-.0555528.3147676-.1296074.444375-.2098398.117236-.0864102.2221954-.1728204.3086056-.2653926.086426-.0925722.148046-.1666426.1975-.2345352v-5.011602c-.12956-.0802324-.2715704-.148125-.4320352-.2036778-.1666426-.0555528-.3703204-.0802324-.6171954-.0802324-.3209296 0-.6110018.049375-.88875.1543028-.2777324.1110898-.5184296.2900722-.7221074.5369472-.203662.246875-.3641426.5678204-.4813944.9628204-.117236.395-.1789982.8825722-.1789982 1.4565704 0 .5616426.049296 1.036875.148046 1.4133574.092588.3764824.2221954.6850722.395.9134296.1728204.2283574.3641426.395.5739982.4999278.2160018.09875.4381972.1481566.6788944.1481566m10.20206-4.3635176c0 .3518028-.01264.6542148-.03081.9072676-.024648.2530528-.049296.4752324-.06794.6665704h-4.1475c.043134.9566426.2530528 1.666426.6171954 2.116884.3703046.4505528.8949278.6727324 1.58.6727324.2406972 0 .4567148-.0246796.6480528-.0802324.1913222-.0555528.3579648-.1234454.49375-.2036778.141884-.0802324.2592148-.1604648.3579648-.2406972.09875-.0740546.1666426-.1357852.2098398-.1851602l.5122676.9689824c-.055616.0555528-.141884.1357852-.2530528.2406972-.117236.1110898-.2653926.2160176-.4628926.3271074-.1913222.1049278-.4258574.1975-.7097518.2777324-.2777482.0740546-.6110176.1172676-.9936778.1172676-.5122676 0-.9689824-.0864102-1.3825-.2530528-.4135176-.1728204-.7591426-.4320352-1.0492148-.79-.2839102-.3518028-.5122676-.8023398-.6665704-1.3516426-.1604648-.5493028-.2406972-1.2035176-.2406972-1.975 0-.7221074.086426-1.3393028.246875-1.863926.1666426-.5246074.3888222-.9566426.6665546-1.2960898.2839102-.3394472.6110176-.5925.981338-.7529648.3764824-.1666426.7776444-.246875 1.2035176-.246875.7776444 0 1.388662.246875 1.826796.7344472.444375.49375.6603768 1.2281972.6603768 2.209472m-2.573662-1.826796c-.4814102 0-.8702324.2036778-1.1664824.6110176-.290088.4011778-.4628926.9875-.5061056 1.759014h2.9625c.01264-.0555528.018486-.1419472.024648-.246875.00632-.1049278.00632-.2221796.00632-.345625 0-.5678204-.111074-.9998398-.339463-1.3146074-.2221796-.3085898-.549287-.4628926-.9813222-.4628926m7.906162.7282852c-.092588-.09875-.253037-.2406972-.49375-.4135176-.2345194-.1789824-.543125-.2653926-.9319472-.2653926-.3579648 0-.6356972.0864102-.8270352.2530528-.1913222.1728204-.2900722.3764824-.2900722.6110176 0 .3085898.092588.5554648.2653926.7529648s.444375.4073398.8023398.6356972l.5060898.3024278c.5554806.3271074.9875.6789102 1.3084456 1.0615704.314767.3764824.469054.8640704.469054 1.4627324 0 .641875-.222179 1.185-.666554 1.623134-.4443752.4381972-1.0862502.6603926-1.9193842.6603926-.3271074 0-.6171796-.0370352-.8640546-.1049278s-.4628926-.1419472-.6480528-.2345352c-.1913222-.0925722-.345625-.1851602-.4690546-.29625-.123398-.1049278-.2221954-.2036778-.3024278-.29625l.6603926-1.0800722c.06794.0678926.148046.1419472.2406972.2345352.09875.0925722.2160176.1789824.3518028.2653926.135722.0802324.2839102.1543028.4567148.2098398.1666426.0555528.3641426.0802324.5925.0802324.4011778 0 .7159454-.0864102.9257852-.2653926.2160176-.1851602.3271074-.4011778.3271074-.6603926 0-.1913222-.024648-.3579648-.080264-.4999278-.049296-.1419472-.123398-.2715704-.2283574-.3826602-.09875-.1110898-.2221954-.2221796-.3703204-.3209296-.148046-.09875-.3147518-.2160176-.5060898-.3394472l-.5060898-.3209296c-.5122676-.3271074-.9072676-.6727324-1.1973398-1.0306972-.290088-.3641426-.4320352-.8208574-.4320352-1.3886778 0-.3024278.061778-.5863222.1789824-.839375.117236-.2530528.2839102-.4690704.4999278-.6603926.2098398-.1851602.4628926-.3332852.7529648-.4381972.2900722-.1049278.5925-.1604648.9196074-.1604648.3147676 0 .5863222.0308574.8146954.0925722.2221796.0617148.4196796.1419472.5863222.2345352.1604648.09875.2962504.1975.4011774.2900722.111074.09875.1975.1789824.265377.246875zm6.6841902 6.480528v-5.227588c0-.6665704-.09875-1.1479648-.290072-1.4380528-.191323-.29625-.499928-.4381972-.931948-.4381972-.222195 0-.419695.0246954-.598677.0802324-.172821.0555528-.327108.1296074-.462893.2098398-.135722.0864102-.253053.1789824-.357965.2839102-.09875.09875-.18516.1913222-.253053.2653926v6.264463h-1.37016v-8.122227h1.252893v.9134296h.03081c.055616-.0925722.141884-.1975.253053-.3271074.117236-.1357852.259214-.2592148.425857-.3764824s.364143-.2160176.5925-.29625c.222195-.0740546.48141-.1172676.759143-.1172676.925785 0 1.58.3641426 1.962676 1.08625.080264-.1172676.191322-.2345352.320929-.3641426.135722-.1296074.29625-.2530528.475233-.3579648.18516-.1049278.38266-.1913222.611017-.2592148.228358-.0678926.475233-.1049278.746803-.1049278 1.64794 0 2.46875.9566426 2.46875 2.876074v5.449736h-1.37016v-5.227588c0-.6665704-.117236-1.1479648-.357965-1.4380528-.234535-.29625-.586322-.4381972-1.049215-.4381972-.38266 0-.703605.0925722-.956642.2777324-.253053.1851602-.450553.3641426-.598678.5307852.024648.1234454.036972.2592148.049296.4011778.01264.1357852.018486.2839102.018486.444375v5.449736zm9.05419 0h-1.37016v-8.122148h1.37016zm-.67891-10.084824c-.283895 0-.50609-.0925722-.678895-.2715704-.166642-.1789824-.253053-.4196796-.253053-.7097676 0-.2839102.086426-.5122676.253053-.6974278.172805-.1789824.395-.2653926.678895-.2653926.27157 0 .487588.0864102.660392.2653926.166643.1851602.253053.4135176.253053.6974278 0 .2900722-.086426.5307852-.253053.7097676-.172804.1789824-.388822.2715704-.660392.2715704m7.20875 10.084824v-5.227588c0-.69125-.117236-1.185-.345625-1.48125-.23452-.3024278-.586323-.4505528-1.061555-.4505528-.401178 0-.740625.1049278-1.012195.3024278-.271555.2098398-.487573.4073398-.641875.5925v6.264463h-1.370145v-8.122227h1.252893v.9134296h.03081c.036972-.0678926.104912-.1666426.222179-.29625.111074-.1296074.259215-.2530528.438213-.3703204.178983-.1234454.395-.2221796.641875-.3147676.246875-.0925722.53077-.1357852.845537-.1357852.364143 0 .69125.0555528.981338.1604648.29625.1049278.543125.2777324.746787.5184296.203678.2345352.357965.543125.475233.9196074.111074.3764824.166642.8455528.166642 1.3948398v5.332579zm4.789296 0h-1.370145v-8.122148h1.370145zm-.678895-10.084824c-.28391 0-.506105-.0925722-.67891-.2715704-.166643-.1789824-.246875-.4196796-.246875-.7097676 0-.2839102.080264-.5122676.246875-.6974278.172805-.1789824.395-.2653926.67891-.2653926.271555 0 .49375.0864102.660393.2653926.172804.1851602.253037.4135176.253037.6974278 0 .2900722-.080264.5307852-.253037.7097676-.166643.1789824-.388838.2715704-.660393.2715704m6.276708 3.604296c-.086426-.09875-.253037-.2406972-.487572-.4135176-.234535-.1789824-.549303-.2653926-.931947-.2653926-.357981 0-.635713.0864102-.827035.2530528-.191338.1728204-.290088.3764824-.290088.6110176 0 .3085898.086426.5554648.265392.7529648.172821.1975.438213.4073398.802356.6356972l.50609.3024278c.555464.3271074.9875.6789102 1.302267 1.0615704.314768.3764824.475233.8640704.475233 1.4627324 0 .641875-.222196 1.185-.666571 1.623134-.444375.4381972-1.08625.6603926-1.919384.6603926-.327107 0-.617195-.0370352-.86407-.1049278-.253037-.0678926-.469055-.1419472-.654215-.2345352-.18516-.0925722-.339447-.1851602-.462893-.29625-.123398-.1049278-.228357-.2036778-.308589-.29625l.660392-1.0800722c.06794.0678926.154366.1419472.246875.2345352.09875.0925722.20984.1789824.345625.2653926.135722.0802324.290072.1543028.456715.2098398.17282.0555528.37032.0802324.5925.0802324.40734 0 .715945-.0864102.931963-.2653926.216002-.1851602.32093-.4011778.32093-.6603926 0-.1913222-.024648-.3579648-.074102-.4999278-.049296-.1419472-.12956-.2715704-.228374-.3826602-.104912-.1110898-.228357-.2221796-.376482-.3209296-.141884-.09875-.314768-.2160176-.50609-.3394472l-.50609-.3209296c-.506089-.3271074-.907267-.6727324-1.191177-1.0306972-.290073-.3641426-.432036-.8208574-.432036-1.3886778 0-.3024278.055616-.5863222.178999-.839375.117236-.2530528.283894-.4690704.49375-.6603926.216001-.1851602.469054-.3332852.759126-.4381972.283911-.1049278.5925-.1604648.919624-.1604648.314751 0 .586322.0308574.808501.0925722.228374.0617148.419696.1419472.586338.2345352.160465.09875.302412.1975.40734.2900722.104912.09875.191322.1789824.259215.246875zm5.89419-.5246074h-1.7775v4.499366c0 .5739824.074102.9689824.216018 1.1788222.148046.2098398.395.3085898.746803.3085898.203662 0 .376482-.0246796.524607-.0802324.148046-.0555528.253037-.1110898.32093-.1543028l.18516 1.0985898c-.055616.049375-.191322.1172676-.40734.2098398-.20984.09875-.499928.148125-.857893.148125-.703589 0-1.228197-.1975-1.573822-.5863222-.351803-.3888222-.524623-1.0306972-.524623-1.938028v-4.684384h-.981322v-.9134296l.981322-.2036778.148046-2.265088h1.222035v2.265088h1.94419zm6.64706 1.623134c0 .3518028-.01264.6542148-.03081.9072676-.024648.2530528-.049296.4752324-.06794.6665704h-4.1475c.043292.9566426.253053 1.666426.617196 2.116884.364142.4505528.894912.6727324 1.58.6727324.240697 0 .450537-.0246796.641875-.0802324.1975-.0555528.364142-.1234454.499912-.2036778.141884-.0802324.25923-.1604648.35798-.2406972.09875-.0740546.166643-.1357852.20984-.1851602l.50609.9689824c-.055458.0555528-.135722.1357852-.253037.2406972-.111074.1110898-.265393.2160176-.456731.3271074-.191322.1049278-.425857.1975-.709767.2777324-.283895.0740546-.611002.1172676-.99984.1172676-.50609 0-.962805-.0864102-1.376322-.2530528-.413518-.1728204-.759143-.4320352-1.049215-.79-.290088-.3518028-.512268-.8023398-.666571-1.3516426-.160464-.5493028-.240697-1.2035176-.240697-1.975 0-.7221074.086426-1.3393028.246875-1.863926.166643-.5246074.388822-.9566426.666555-1.2960898.28391-.3394472.611017-.5925.9875-.7529648.37032-.1666426.771482-.246875 1.19734-.246875.77766 0 1.388677.246875 1.826796.7344472.438213.49375.660392 1.2281972.660392 2.209472m-2.573662-1.826796c-.48141 0-.870232.2036778-1.166482.6110176-.290088.4011778-.462893.9875-.506106 1.759014h2.9625c.00632-.0555528.018486-.1419472.024648-.246875.00632-.1049278.00632-.2221796.00632-.345625 0-.5678204-.111074-.9998398-.339447-1.3146074-.22218-.3085898-.549303-.4628926-.981322-.4628926m7.974102.2900722c-.036972-.0246954-.111074-.0555528-.22218-.0864102-.111074-.0308574-.265392-.049375-.45673-.049375-.425858 0-.765305.1110898-1.006002.345625-.240713.2283574-.413518.4814102-.518446.7529648v5.95581h-1.37016v-8.122148h1.252893v1.0985898h.036972c.055616-.1604648.12956-.3147676.216017-.4628926.092588-.1543028.203662-.2900722.339448-.4073398.135722-.1172676.29625-.2098398.48141-.2777324s.40734-.1049278.672732-.1049278c.191322 0 .345625.0185176.462893.0555528.117236.0308574.20984.0617148.277732.0802324zm2.721866 6.918662h-1.37016v-8.122148h1.37016zm-.672733-10.084824c-.28391 0-.512267-.0925722-.67891-.2715704-.17282-.1789824-.253053-.4196796-.253053-.7097676 0-.2839102.080264-.5122676.253053-.6974278.166643-.1789824.395-.2653926.67891-.2653926.265393 0 .487573.0864102.654215.2653926.172805.1851602.259215.4135176.259215.6974278 0 .2900722-.086426.5307852-.259215.7097676-.166642.1789824-.388822.2715704-.654215.2715704m8.455528 10.084824h-1.252892v-.9134296h-.03081c-.036972.0678926-.104912.1666426-.222196.29625-.111074.1296074-.253037.2530528-.432019.3703204-.17282.1234454-.38266.2221796-.629535.3147676-.253053.0925722-.524608.1357852-.833197.1357852-.357981 0-.685088-.0555528-.968999-.1604648-.290072-.1049278-.536947-.2777324-.740625-.5184454-.1975-.2345352-.357964-.543125-.462876-.9196074s-.160481-.8455528-.160481-1.3948398v-5.3325h1.37016v5.227588c0 .6789102.111074 1.1603204.327108 1.4503926.222195.2839102.561642.4258574 1.024535.4258574.395 0 .728285-.0925722.99984-.2900722.27157-.1975.487588-.395.641875-.5863222v-6.2274436h1.369923zm6.363134 0v-5.227588c0-.6665704-.092588-1.1479648-.283894-1.4380528-.191338-.29625-.506106-.4381972-.931963-.4381972-.228357 0-.425857.0246954-.60484.0802324-.17282.0555528-.327107.1296074-.462892.2098398-.135722.0864102-.253053.1789824-.351803.2839102-.104912.09875-.191322.1913222-.259215.2653926v6.264463h-1.37016v-8.122227h1.252892v.9134296h.036972c.055616-.0925722.141884-.1975.253053-.3271074.111074-.1357852.253037-.2592148.41968-.3764824.17282-.1172676.37032-.2160176.5925-.29625.228357-.0740546.48141-.1172676.76532-.1172676.92577 0 1.573822.3641426 1.962676 1.08625.074102-.1172676.18516-.2345352.320946-.3641426.135722-.1296074.290072-.2530528.475232-.3579648.178982-.1049278.38266-.1913222.60484-.2592148.228357-.0678926.475232-.1049278.746803-.1049278 1.64794 0 2.46875.9566426 2.46875 2.876074v5.449736h-1.370161v-5.227588c0-.6665704-.117236-1.1479648-.351787-1.4380528-.240713-.29625-.5925-.4381972-1.04923-.4381972-.388822 0-.70359.0925722-.956643.2777324-.253037.1851602-.456715.3641426-.60484.5307852.024648.1234454.043292.2592148.049296.4011778.018486.1357852.018486.2839102.018486.444375v5.449736zm-106.5883796 10.060176h-1.660264v7.005088h-1.3701444v-7.005088h-.981338v-.9134296l.981338-.1851602v-1.629296c0-.4381972.061778-.8146796.1851444-1.1294472.123398-.3209296.290088-.5801602.49375-.7838222.2036778-.1975.438213-.345625.7097676-.4381972.2715704-.0864102.5554806-.1357852.8640704-.1357852.2900722 0 .5369472.0431972.740625.1172676.203662.0802324.3394472.1419472.4073398.1913222l-.2839102 1.1294472c-.06794-.0431972-.1666426-.0925722-.2900722-.1419472-.123398-.049375-.2777324-.0740546-.4567148-.0740546-.3271074 0-.5739824.09875-.7468028.3024278-.1666426.2036778-.2530528.5739824-.2530528 1.1171074v1.4565546h1.826796zm7.04206 7.005088h-1.2528926v-.9134296h-.036972c-.03081.0678926-.104912.1666426-.2160176.29625-.117236.1296074-.2592148.2530528-.4381972.3703204-.1728204.1172676-.3826602.2221796-.6295352.3147676-.246875.0864102-.5246074.1357852-.8331972.1357852-.3579806 0-.685088-.0555528-.9689824-.1604648-.290088-.1110898-.536963-.2839102-.740625-.5184296-.1975-.2345352-.3518028-.543125-.4628926-.9196074-.104912-.3826602-.1604806-.8455528-.1604806-1.4010176v-5.326338h1.3701602v5.227588c0 .6789102.111074 1.1603204.3271074 1.4442148.2221954.2900722.5678204.4320352 1.0245352.4320352.395 0 .7282852-.09875.9998398-.29625.2715704-.1975.487588-.3888222.641875-.5801602v-6.2274278h1.376338zm-3.369824-10.461338c0 .2592148-.080264.4690704-.2406972.6295352-.154366.1543028-.345625.2345352-.5739824.2345352-.2221954 0-.4135176-.0802324-.5739824-.2345352-.1604648-.1604648-.2345352-.3703204-.2345352-.6295352s.074102-.4628926.2345352-.6233574c.1604648-.1604648.351787-.2345352.5739824-.2345352.2283574 0 .4196796.0740704.5739824.2345352.1604648.1604648.2406972.3641426.2406972.6233574m2.604472 0c0 .2592148-.080264.4690704-.2345352.6295352-.1604648.1543028-.351787.2345352-.5739824.2345352-.2283574 0-.4196796-.0802324-.5801444-.2345352-.154366-.1604648-.2345352-.3703204-.2345352-.6295352s.080264-.4628926.2345352-.6233574c.1604648-.1604648.351787-.2345352.5801444-.2345352.2221954 0 .4135176.0740704.5739824.2345352.154366.1604648.2345352.3641426.2345352.6233574m6.431074 3.542676c-.036972-.0246954-.104912-.0555528-.2221796-.0864102-.111074-.0370352-.2653926-.049375-.4567148-.049375-.4258574 0-.7653204.1110898-1.0060176.345625-.240713.2283574-.4135176.4814102-.5184454.7529648v5.95581h-1.3639824v-8.122148h1.2467148v1.0985898h.036972c.055616-.1604648.12956-.3147676.2160176-.4628926.092588-.1543028.2036778-.2900722.3394472-.4073398.135722-.1172676.29625-.2098398.4814102-.2777324.191338-.0678926.4135176-.1049278.6727324-.1049278.191338 0 .345625.0185176.4628926.049375.117236.0370352.2098398.0617148.2777324.0864102zm11.930264-4.758486-3.789472 11.677148h-1.1664824l-3.691038-11.677148h1.592324l2.234278 7.751796c.123398.4258574.2283732.839375.3271232 1.234375.092588.395.148046.7221074.1604648.9813222h.036972c.00632-.2592148.06794-.5863222.1666268-.9751602.09875-.3888222.2160176-.7961778.339463-1.2281972l2.314384-7.764278zm5.634912 6.295352c0 .345625-.01264.6480528-.036972.9072676-.018486.2530528-.043134.4752324-.06794.6665704h-4.141338c.043292.9566426.246875 1.660264.6171954 2.116884.3641426.4505528.894912.6727324 1.58.6727324.2406972 0 .450537-.0246954.641875-.0802324.1913222-.0617148.3579648-.1296074.499912-.2036778.142042-.0802324.2592306-.1604648.3579806-.2406972.092588-.0802324.1666268-.1419472.2098398-.1851602l.5060898.9628204c-.055616.0617148-.141884.1419472-.2530528.246875-.111074.1110898-.2653768.2160176-.4567148.3209296-.1913222.1110898-.4258574.2036778-.7097676.2777324-.2838944.0802324-.6171796.1234454-.9998398.1234454-.5060898 0-.9628046-.0864102-1.3763222-.2530528-.4135176-.1728204-.7653204-.4320352-1.0492306-.79-.2900722-.3518028-.5122518-.8085176-.6727324-1.3516426-.154208-.5493028-.2345194-1.2035176-.2345194-1.975 0-.7221074.080264-1.3454648.246875-1.870088.1604648-.5246074.3826444-.9504648.6665546-1.2960898.2839102-.3332852.6110176-.5863222.9813222-.7468028.3703204-.1666426.7714982-.246875 1.2035176-.246875.7776602 0 1.3886778.246875 1.826796.7344472.438213.49375.6603926 1.2281972.6603926 2.209472m-2.573662-1.826796c-.4814102 0-.8764102.2036778-1.1664982.6110176-.29625.4011778-.4628768.9875-.5060898 1.759014h2.9625c.00632-.0617148.018486-.1419472.024648-.246875.00632-.1049278.00632-.2221796.00632-.345625 0-.5678204-.111074-1.0060176-.3394472-1.3146074-.2221954-.3085898-.5493028-.4628926-.9813222-.4628926m7.974102.2900722c-.036972-.0246954-.111074-.0555528-.2221796-.0864102-.111074-.0370352-.2653926-.049375-.4567306-.049375-.4320194 0-.7653046.1110898-1.0060176.345625-.246875.2283574-.4135018.4814102-.5184296.7529648v5.95581h-1.3701602v-8.122148h1.2528926v1.0985898h.03081c.061778-.1604648.12956-.3147676.2221954-.4628926.092588-.1543028.203662-.2900722.3394472-.4073398.135722-.1172676.29625-.2098398.4814102-.2777324s.4073398-.1049278.6665546-.1049278c.191338 0 .345625.0185176.4690704.049375.117236.0370352.2098398.0617148.2777324.0864102zm4.41294 2.518204 2.79581 4.400616h-1.641778l-2.289736-3.789472h-.5554648v3.789472h-1.3704604v-11.967236l1.3701602-.148125v7.153134h.5739824l2.1848236-3.16h1.623134zm8.899824-.9813222c0 .345625-.00632.6480528-.03081.9072676-.024648.2530528-.043134.4752324-.06794.6665704h-4.1475c.043292.9566426.253053 1.660264.617195 2.116884.370305.4505528.894912.6727324 1.586162.6727324.234536 0 .450553-.0246954.641875-.0802324.191338-.0617148.357981-.1296074.499928-.2036778.135722-.0802324.259215-.1604648.351803-.2406972.09875-.0802324.166627-.1419472.216002-.1851602l.506105.9628204c-.055616.0617148-.142042.1419472-.253052.246875-.117236.1110898-.265393.2160176-.456715.3209296-.191338.1110898-.432035.2036778-.715946.2777324-.277732.0802324-.611017.1234454-.993662.1234454-.512267 0-.968982-.0864102-1.3825-.2530528-.407355-.1728204-.759142-.4320352-1.04923-.79-.290072-.3518028-.512252-.8085176-.666555-1.3516426-.160465-.5493028-.234535-1.2035176-.234535-1.975 0-.7221074.080264-1.3454648.240713-1.870088.166627-.5246074.388822-.9504648.672732-1.2960898.277733-.3332852.60484-.5863222.981323-.7468028.37032-.1666426.771482-.246875 1.197339-.246875.777661 0 1.388678.246875 1.826796.7344472.444375.49375.660393 1.2281972.660393 2.209472m-2.5675-1.826796c-.487572 0-.87641.2036778-1.17266.6110176-.290072.4011778-.462877.9875-.50609 1.759014h2.9625c.01264-.0617148.018486-.1419472.024648-.246875.00632-.1049278.00632-.2221796.00632-.345625 0-.5678204-.111074-1.0060176-.333269-1.3146074-.228374-.3085898-.555481-.4628926-.981338-.4628926m8.831884 7.20875v-5.227588c0-.69125-.117236-1.185-.345625-1.48125-.234536-.3024278-.586338-.4505528-1.061571-.4505528-.401178 0-.746803.1049278-1.012179.3024278-.271571.2036778-.487588.4011778-.648053.5925v6.264463h-1.37016v-11.967315l1.37016-.148125v4.820264h.036972c.043134-.0678926.117236-.1543028.20984-.2715704.09875-.1110898.228357-.2221796.401177-.3394472.166627-.1110898.370305-.2098398.61718-.29625.240697-.0802324.524607-.1234454.851715-.1234454.709767 0 1.277588.2283574 1.691074.69125.419679.4628926.629519 1.234375.629519 2.30206v5.332579zm6.986602-6.918662c-.03081-.0246954-.104912-.0555528-.216018-.0864102-.117236-.0370352-.265393-.049375-.462893-.049375-.425857 0-.759142.1110898-1.006017.345625-.240697.2283574-.413502.4814102-.512252.7529648v5.95581h-1.37016v-8.122148h1.246715v1.0985898h.036972c.055616-.1604648.12956-.3147676.222179-.4628926.086426-.1543028.203678-.2900722.333285-.4073398.135722-.1172676.29625-.2098398.481411-.2777324.191322-.0678926.413517-.1049278.672732-.1049278.191322 0 .345625.0185176.462893.049375.117236.0370352.216017.0617148.28391.0864102zm10.23919 6.918662h-1.252893v-.9134612h-.036972c-.03081.0678926-.104912.1666426-.216018.29625-.111074.1296074-.259214.2530528-.432019.3703204-.17282.1172676-.388838.2221796-.635713.3147676-.246875.0864102-.524607.1357852-.827019.1357852-.364143 0-.685088-.0555528-.975161-.1604648-.28391-.1110898-.530785-.2839102-.734463-.5184296-.203662-.2345352-.357964-.543125-.469054-.9196074-.104912-.3826602-.154366-.8455528-.154366-1.4010176v-5.326338h1.363982v5.227588c0 .6789102.111074 1.1603204.333285 1.4442148.222196.2900722.561643.4320352 1.024536.4320352.395 0 .728285-.09875.999839-.29625.265393-.1975.481411-.3888222.641875-.5801602v-6.2274278h1.370161zm6.529824 0v-5.227588c0-.69125-.117236-1.185-.345625-1.48125-.234536-.3024278-.586323-.4505528-1.055393-.4505528-.40734 0-.746787.1049278-1.018357.3024278-.271555.2036778-.481411.4011778-.641875.5925v6.264463h-1.370161v-8.122227h1.252893v.9134296h.03081c.036972-.0678926.111074-.1666426.222195-.29625.111074-.1296074.259215-.2530528.438198-.3764824.178982-.1172676.395-.2221796.641875-.3085898.253052-.0925722.530785-.1357852.845552-.1357852.364143 0 .69125.0555528.9875.1604648.290073.1049278.536948.2777324.740625.5184296.203678.2345352.357965.543125.475233.9196074.111074.3764824.166642.839375.166642 1.3948398v5.3325632zm3.048452-3.943838c0-.8270352.104912-1.5121074.320929-2.061426.209856-.5554648.487588-.9998398.827035-1.3393028.339463-.3394472.722108-.5801602 1.154143-.7221074.425857-.1419472.851715-.2098398 1.28375-.2098398.259215 0 .487572.0185176.67891.0617148.191322.0370352.345625.0864102.469055.1419472v-3.894384l1.37016-.148125v12.11544h-1.246715v-.8640546h-.036972c-.03081.0678926-.092588.1604648-.18516.2777324-.092588.1172676-.216018.2345352-.370305.3579648-.160464.1172676-.357964.2160176-.5925.3024278-.240713.0864102-.518445.1296074-.833213.1296074-.382644 0-.746787-.0802324-1.08625-.2283574-.345625-.1543028-.648037-.395-.907251-.7282852-.259231-.3332852-.469071-.7653046-.617196-1.2899278-.154366-.5246074-.228357-1.1541426-.228357-1.900898m3.215616 2.925528c.20984 0 .401162-.0246954.573982-.0802324.166643-.0617148.314768-.1296074.438197-.2160176.123398-.0802324.228358-.1728204.314768-.2592148.080264-.0925722.148046-.1728204.191322-.2406972v-5.00544c-.123398-.0802324-.265392-.148125-.425857-.2036778-.166643-.0555528-.370305-.0864102-.623358-.0864102-.314767 0-.611017.0555528-.882572.1604648-.277732.1110898-.518445.2900722-.722107.5369472-.203678.246875-.364143.5678204-.48141.9628204-.117236.395-.178983.8764102-.178983 1.4565704 0 .5616426.049296 1.0306972.141884 1.4133574.09875.3764824.228358.6789102.401178.9134454.166643.2283574.357965.395.573982.4999278.216018.09875.438198.1481566.678911.1481566m-89.0598604 14.1397044c0-.8270352.104912-1.5121074.3209296-2.067588.2098556-.5493028.487588-.9936778.8270352-1.333125s.7221074-.5801602 1.1541426-.7221074c.4258574-.1419472.8517148-.2098398 1.28375-.2098398.2592148 0 .4875722.0185176.6789102.0555528.1913222.0431972.345625.0925722.4690546.148125v-3.894384l1.376338-.148125v12.11544h-1.2528926v-.8640704h-.036972c-.03081.0678926-.092588.1604648-.1851602.2777324-.092588.1172676-.2160176.2345352-.3703046.3518028-.1604806.1234454-.3579806.2221796-.5925.3085898-.240713.0864102-.5184454.1234454-.833213.1234454-.3826444 0-.746787-.0740546-1.08625-.2221796-.345625-.1543028-.648037-.395-.9072676-.7282852-.2592148-.3332852-.4690546-.7653204-.6171796-1.2899278-.154366-.5246074-.2283574-1.1603204-.2283574-1.900898m3.215616 2.925528c.2098556 0 .4011778-.0246954.5739982-.0864102.1666268-.0555528.3147518-.1234454.4381972-.2098398.123398-.0864102.2283574-.1728204.3147676-.2592148.086426-.0925722.148046-.1728046.1913222-.2406972v-5.00544c-.123398-.0802324-.2653926-.148125-.4258574-.2036778-.1666426-.0555528-.3703046-.0864102-.6233574-.0864102-.3147676 0-.6110176.0555528-.8825722.1604648-.2777482.1049278-.5184454.2839102-.7221232.5369472-.203662.246875-.3641268.5678204-.4813944.9628204-.117236.395-.1789824.8764102-.1789824 1.4503926 0 .5678204.049296 1.036875.141884 1.4195352.09875.3764824.2283574.6789102.4011778.9134296.1666268.2283574.3579648.395.5739824.49375.2160176.1049278.4381972.1543502.6788944.1543502m6.363292 1.01831h-1.3701602v-8.122148h1.3701602zm-.6789102-10.084824c-.2839102 0-.5060898-.0925722-.6789102-.2715704-.1666426-.1851602-.253037-.4196796-.253037-.7097676 0-.2839102.086426-.5184296.253037-.6974278.1728204-.1789824.395-.2715704.6789102-.2715704.2715704 0 .4875722.0925722.6603926.2715704.1666426.1789824.2530528.4135176.2530528.6974278 0 .2900722-.086426.5246074-.2530528.7097676-.1728204.1789824-.3888222.2715704-.6603926.2715704m8.597412 3.024278h-1.0183574c.2592148.4320352.3888222.9134296.3888222 1.4565704 0 .4258574-.06794.8146796-.2098398 1.1603204-.142042.345625-.339463.6356972-.5925.8702324-.2530528.2345352-.5493028.4196796-.8949278.543125-.345625.1234296-.7159296.1851602-1.1109296.1851602h-.2221954c-.06794 0-.135722-.006162-.2160176-.0185176-.135722.0555528-.2777324.148125-.4258574.2715704-.148046.1234454-.2160176.2900722-.2160176.49375 0 .1666426.061778.3024278.191338.4135176.12956.1049278.3394472.1604648.6356972.1604648h1.0306972c.3826602 0 .740625.0370352 1.0677324.1172676.3271232.0802324.6110176.2036778.8578926.3826602.240713.1728204.4258574.395.5616426.6665704.135722.2715704.2036778.5986778.2036778.9813222 0 .4381972-.092588.839375-.2777324 1.2035176-.1851602.3579648-.4505528.6665704-.79.9319472-.3332852.2592148-.7468028.4567148-1.234375.6048398-.4814102.148125-1.0245352.2221954-1.623292.2221954-.8702324 0-1.5244472-.1913222-1.981162-.5678204-.4505528-.3764824-.6727324-.9196074-.6727324-1.635616 0-.3024278.049296-.5678204.1604648-.7838222.104912-.2221796.2345352-.4135176.3764824-.5739824.148046-.1666426.29625-.29625.4505528-.3888222.154208-.09875.2715546-.1728204.3641268-.2283574v-.0370352c-.351787-.2592148-.5246074-.6356972-.5246074-1.135625 0-.2098398.043292-.395.12956-.5554648.080264-.1604648.1789982-.2900722.2839102-.3888222.111074-.1049278.2160176-.1851602.3209454-.246875.111074-.0617148.1913222-.1049278.246875-.1234296v-.0370352c-.4196954-.1913222-.7529806-.49375-1.0060176-.9072676-.2530528-.4073398-.3826602-.938125-.3826602-1.58 0-.4505528.074102-.8455528.2221954-1.1911778.141884-.345625.3394472-.6295352.5925-.8578926.246875-.2221796.5369472-.395.8702324-.5060898.3332694-.1110898.69125-.1666426 1.0738944-.1666426.3826602 0 .7468028.0678926 1.08625.2036778h2.46875zm-3.777148 6.801426c-.2345352 0-.444375-.012324-.6233574-.049375-.09875.0555528-.2036778.1234454-.29625.2036778-.09875.0802324-.1851602.1728204-.2653926.2900722-.080264.1110898-.141884.246875-.1913222.395-.049296.1543028-.074102.3332852-.074102.5369472 0 .8640546.4752324 1.3022676 1.431875 1.3022676.8270352 0 1.4380528-.1604648 1.833116-.4875722.395-.3147676.5925-.6850722.5925-1.1047676 0-.395-.12956-.6727324-.3764824-.839375-.246875-.1604648-.5801602-.246875-.9998398-.246875zm1.814472-5.344824c0-.5863222-.141884-1.0060176-.4135176-1.2528926-.2777324-.246875-.6048398-.3703046-.9751602-.3703046-.395 0-.7344472.1234296-1.0183574.3703046-.2777324.246875-.4196796.6665704-.4196796 1.2528926s.141884 1.0060176.4196796 1.2528926c.2839102.246875.6110176.3703204.981338.3703204.395 0 .7344472-.1234454 1.0121796-.3703204.2715704-.246875.4135176-.6665704.4135176-1.2528926m4.888204 5.604102h-1.3701602v-8.122148h1.3701602zm-.6789102-10.084824c-.2777324 0-.5060898-.0925722-.6727324-.2715704-.1728046-.1851602-.2530528-.4196796-.2530528-.7097676 0-.2839102.080264-.5184296.2530528-.6974278.1666426-.1789824.395-.2715704.6727324-.2715704.2715704 0 .49375.0925722.6603926.2715704.1728204.1789824.2530528.4135176.2530528.6974278 0 .2900722-.080264.5246074-.2530528.7097676-.1666426.1789824-.3888222.2715704-.6603926.2715704m6.245898 3.079736h-1.7775v4.499366c0 .5739824.074102.9689824.2221796 1.1726602.148046.2098398.395.3147676.7468028.3147676.1975 0 .3764824-.0246954.5246074-.0864102.141884-.0555528.246875-.1049278.3209296-.148125l.1851602 1.0985898c-.061778.0431972-.1913222.1172676-.4073398.2098398-.2160176.09875-.4999278.1419472-.8640704.1419472-.697412 0-1.2220194-.1913222-1.5738222-.5801602-.345625-.3888222-.5246074-1.036875-.5246074-1.938028v-4.684384h-.9813222v-.9134296l.9813222-.2036778.154366-2.27125h1.2158574v2.27125h1.950352zm1.0800722 4.9375c0-.4752324.092588-.8702324.2777324-1.185.1789824-.3147676.4196954-.5739824.7221074-.7714824.3086056-.1975.6665704-.3332852 1.0739102-.4196796.4135176-.0864102.8517148-.1296074 1.3146074-.1296074h.4196954v-.7776602c0-.6850722-.117236-1.1603204-.3579806-1.4195352-.246875-.2592148-.5863222-.3888222-1.0245194-.3888222-.4073556 0-.7468028.0864102-1.0183574.2592148-.2715704.1789824-.487588.3332852-.641875.4690704l-.5739982-.9134296c.086426-.0925722.2036778-.1975.345625-.3085898.141884-.1110898.3147676-.2160176.5122676-.3209296.2036778-.09875.438213-.1851602.6974278-.2530528s.5493028-.09875.8764102-.09875c.839375 0 1.4688944.2283574 1.900898.69125.4258574.4628926.641875 1.2096796.641875 2.234278v3.703204c0 .3518028.01264.69125.03081 1.0245352.024648.3332852.049296.5554648.06794.6727324h-1.3022676l-.049296-.9010898h-.036972c-.043292.1049278-.111074.2221796-.2036778.3518028-.086426.1296074-.1975.246875-.3332852.3518028-.135722.1110898-.302412.2036778-.49375.2777324-.1913222.0802324-.4196796.1172676-.6789102.1172676-.302412 0-.5863222-.0555528-.8517148-.1666426s-.49375-.2715704-.69125-.4752324-.351787-.4381972-.4567148-.7159296c-.111074-.2777324-.1666426-.5801602-.1666426-.9072676m2.456426 1.0986056c.1913222 0 .3641426-.0247112.5060898-.0802482.148046-.0617148.2777324-.1296074.3826602-.2036778.104912-.0802324.1975-.1666426.2715546-.2653926.074102-.0925722.135722-.1789824.191338-.246875v-1.789824l-.438213.0185176c-.6542148.0185176-1.1479648.1296074-1.487412.3332852-.339463.2036778-.5061056.5307852-.5061056.9813222 0 .4196796.092588.7344472.2839102.9443028.191338.2036778.4567148.3085898.7961778.3085898m6.128662-.9319472c0 .3394472.049296.5801602.141884.7159296.092588.1357852.2592148.2036778.499912.2036778.123398 0 .2283732-.012324.3086056-.0370352.086426-.0246954.154208-.0431972.1975-.0678926l.117236 1.0183574c-.06794.0308574-.191338.0740546-.3703204.1357852-.1789824.0555528-.4258574.0802324-.7282852.0802324-.4628926 0-.8331972-.1419472-1.1171074-.4196796-.2839102-.2839102-.4196796-.7838222-.4196796-1.5059296v-10.189736l1.3701444-.148125zm7.7148238-3.480898c0 .345625-.01264.6480528-.036972.9010898-.018486.2592148-.043134.4814102-.06794.6727324h-4.1413378c.043134.9566426.246875 1.660264.6171796 2.110722.3641426.4567148.8949278.6789102 1.58.6789102.2345352 0 .4505528-.0246954.641875-.0864102.1975-.0555528.3579648-.1234454.4999278-.2036778.141884-.0740546.2592148-.1543028.3579648-.2345352.092588-.0802324.1666426-.1419472.2098398-.1851602l.5061058.9628204c-.055616.0555528-.142042.1419472-.253053.246875-.111074.1049278-.2653926.2160176-.4567148.3209296-.191338.1110898-.4258574.2036778-.7097676.2777324-.2839102.0802324-.6171954.1172676-.9998398.1172676-.5061056 0-.9689982-.0802324-1.376338-.2530528-.4135176-.1666426-.7653046-.4258574-1.0492148-.7838222-.2900722-.3579648-.5122676-.8085176-.6665704-1.3516426-.1604648-.5493028-.2406972-1.2096954-.2406972-1.975 0-.7221074.080264-1.3454648.246875-1.870088.1604648-.5246074.3888222-.9566426.6665704-1.2899278.2838944-.3394472.6110018-.5925.9813222-.7591426.3764824-.1604648.7714824-.2406972 1.2035176-.2406972.7776602 0 1.388662.2406972 1.826796.7344472.4381974.4875722.6603924 1.2281972.6603924 2.209472m-2.5738198-1.833116c-.4814102 0-.8702324.2098398-1.1664824.6110176-.29625.4073398-.4628926.9936778-.5060898 1.759014h2.956338c.01264-.0555528.024648-.1357852.03081-.2406972.00632-.1110898.00632-.2221796.00632-.3518028 0-.5616426-.111074-.9998398-.339463-1.3084296-.2283574-.3085898-.5554648-.4690704-.9813222-.4690704m8.8690142-3.450088h-1.234375v-1.0121796h3.943838v1.0121796h-1.240553v9.597236h1.27141v1.0677324h-4.011778v-1.0677324h1.27141zm8.794912 10.665v-5.227588c0-.69125-.111074-1.185-.345625-1.4874278-.228358-.29625-.58016-.444375-1.055393-.444375-.40734 0-.746803.09875-1.012195.3024278-.277733.2036778-.487572.4011778-.648037.5925v6.264463h-1.37016v-8.122227h1.252892v.9072676h.03081c.036972-.0617148.111074-.1604648.222196-.2900722.117236-.1296074.259214-.2592148.438197-.3764824.18516-.1172676.395-.2221796.648053-.3085898.246875-.0925722.530769-.1357852.845537-.1357852.357964 0 .685088.049375.981338.1604648.290072.1049278.536947.2777324.740625.5122676.203662.2406972.364126.5493028.475232.9257852.111074.3764824.172805.839375.172805 1.3948398v5.3325316zm6.838398-7.005088h-1.654102v7.005088h-1.376338v-7.005088h-.981322v-.9134296l.981322-.1913222v-1.623134c0-.4381972.061778-.8146796.191338-1.135625.123398-.3147676.28391-.5739824.487572-.7776602.203678-.2036778.438213-.345625.709768-.4381972.27157-.0925722.561642-.1357852.86407-.1357852.29625 0 .543125.0370352.746787.1172676.203678.0802324.339463.1419472.40734.1851602l-.290072 1.135625c-.06794-.0431972-.166643-.0925722-.290073-.1419472-.123398-.0555528-.27157-.0802324-.45673-.0802324-.327108 0-.573983.1049278-.740625.3085898-.172805.2036778-.253037.5739824-.253037 1.1171074v1.4565704h1.826796zm4.925176.0802324c-.036972-.0246954-.104912-.049375-.216018-.0802324-.117236-.0370352-.265392-.0555528-.462892-.0555528-.425858 0-.759143.1172676-1.006018.345625-.240697.2345352-.413502.4875722-.512252.7529648v5.961972h-1.37016v-8.122148h1.252893v1.0985898h.03081c.055616-.1604648.12956-.3147676.222179-.4690704.086426-.148125.203678-.2839102.333285-.4011778.135722-.1234296.29625-.2160176.487573-.2839102.18516-.0678926.407355-.09875.66657-.09875.191322 0 .345625.0185176.462893.049375.117236.0370352.209839.0617148.277732.0864102zm.796178 4.857236c0-.4752324.086426-.8702324.271554-1.185.178983-.3147676.419696-.5739824.728285-.7714824.302428-.1975.660393-.3332852 1.073911-.4196796.413517-.0864102.845537-.1296074 1.308429-.1296074h.425858v-.7776602c0-.6850722-.123398-1.1603204-.364143-1.4195352-.240697-.2592148-.586322-.3888222-1.024519-.3888222-.407356 0-.746803.0864102-1.018358.2592148-.265392.1789824-.48141.3332852-.641875.4690704l-.573998-.9134296c.092588-.0925722.203678-.1975.345625-.3085898.141884-.1110898.314768-.2160176.518445-.3209296.203678-.09875.432036-.1851602.69125-.2530528.259215-.0678926.555465-.09875.882573-.09875.833213 0 1.462732.2283574 1.894736.69125.425857.4628926.641875 1.2096796.641875 2.234278v3.703204c0 .3518028.01264.69125.036972 1.0245352.018486.3332852.043134.5554648.06794.6727324h-1.308446l-.049296-.9010898h-.03081c-.049296.1049278-.117236.2221796-.203662.3518028-.092588.1296074-.203678.246875-.339463.3518028-.135722.1110898-.29625.2036778-.49375.2777324-.191322.0802324-.413517.1172676-.672732.1172676-.30859 0-.5925-.0555528-.857893-.1666426-.265392-.1110898-.49375-.2715704-.69125-.4752324s-.351787-.4381972-.456715-.7159296c-.104912-.2777324-.160464-.5801602-.160464-.9072676m2.450264 1.0986056c.1975 0 .364142-.0247112.512267-.0802482.141884-.0617148.271555-.1296074.376483-.2036778.111074-.0802324.1975-.1666426.271554-.2653926.074102-.0925722.142042-.1789824.1975-.246875v-1.789824l-.444375.0185176c-.654215.0185176-1.147965.1296074-1.487412.3332852-.339463.2036778-.506105.5307852-.506105.9813222 0 .4196796.092588.7344472.290088.9443028.191322.2036778.456714.3085898.79.3085898m8.276514-5.511514c-.086584-.1049278-.253259-.240713-.487778-.4196954-.240713-.1728204-.549303-.2592148-.931963-.2592148-.364143 0-.635697.0864102-.827035.2530528-.1975.1666426-.290072.3703204-.290072.6110176 0 .3024278.086426.5554648.259214.7529648.178983.1975.444375.4073398.808518.6295352l.50609.3085898c.55548.3271074.9875.6789102 1.302267 1.0553926.314768.3764824.475233.8640704.475233 1.4627324 0 .6480528-.22218 1.185-.672733 1.629296-.444375.4381972-1.080072.6542148-1.919384.6542148-.327107 0-.611017-.0308574-.857892-.09875-.253053-.0678926-.469055-.148125-.654215-.2345352-.18516-.0925722-.339463-.1913222-.462893-.29625-.12956-.1110898-.228357-.2098398-.308589-.29625l.660392-1.08625c.06794.0678926.148046.148125.246875.2406972.092588.0864102.20984.1728204.345625.2592148.135722.0864102.290072.1543028.456715.2098398.172805.0617148.370305.0864102.5925.0864102.40734 0 .71593-.0925722.931947-.2715704.216018-.1789824.320946-.4011778.320946-.6603926 0-.1913222-.024648-.3579648-.074102-.4999278-.055458-.1357852-.12956-.2653926-.228358-.3764824-.104912-.1172676-.228357-.2221796-.376482-.3209296-.141884-.1049278-.314768-.2160176-.50609-.3394472l-.506106-.3209296c-.506089-.3271074-.907251-.6727324-1.197339-1.036875-.283911-.3579648-.425858-.8208574-.425858-1.3825 0-.3085898.055616-.5863222.172821-.839375.117236-.2530528.290072-.4752324.499912-.6603926.216017-.1851602.46907-.3332852.752964-.4381972.290088-.1110898.598678-.1604648.925786-.1604648.314767 0 .586338.0308574.808517.0925722.228358.0617148.419696.1419472.586322.2345352.160481.09875.29625.1913222.407356.2900722.104912.0925722.191322.1789824.259215.246875zm5.888028-.5246074h-1.7775v4.499366c0 .5739824.074102.9689824.222195 1.1726602.148046.2098398.395.3147676.746787.3147676.203678 0 .376482-.0246954.524607-.0864102.141884-.0555528.253053-.1049278.320946-.148125l.18516 1.0985898c-.055616.0431972-.191338.1172676-.407356.2098398-.216001.09875-.499912.1419472-.864054.1419472-.697428 0-1.222035-.1913222-1.573822-.5801602-.345625-.3888222-.524624-1.036875-.524624-1.938028v-4.684384h-.981322v-.9134296l.981322-.2036778.154366-2.27125h1.215858v2.27125h1.950352zm5.128838.0802324c-.03081-.0246954-.104912-.049375-.222196-.0802324-.111074-.0370352-.259215-.0555528-.456715-.0555528-.425857 0-.76532.1172676-1.006017.345625-.240697.2345352-.413518.4875722-.512268.7529648v5.961972h-1.37016v-8.122148h1.246731v1.0985898h.036972c.055616-.1604648.12956-.3147676.222195-.4690704.086426-.148125.1975-.2839102.333285-.4011778.135722-.1234296.302412-.2160176.481395-.2839102.191338-.0678926.413517-.09875.672732-.09875.191338 0 .345625.0185176.462893.049375.117236.0370352.216017.0617148.28391.0864102zm7.04206 6.924824h-1.252893v-.9134296h-.036972c-.03081.0617148-.104912.1666426-.216018.29625-.117236.1296074-.259214.2530528-.432035.3703204-.178982.1172676-.388822.2221796-.635697.3147676-.246875.0864102-.524607.1296074-.827035.1296074-.364143 0-.69125-.049375-.975145-.1543028-.290088-.1110898-.530785-.2839102-.734463-.5184296-.203662-.2406972-.357964-.543125-.469054-.9257852-.104912-.3764824-.160481-.839375-.160481-1.3948398v-5.326338h1.37016v5.227588c0 .6727324.111074 1.1603204.333286 1.4442148.216017.2900722.561642.4320352 1.018357.4320352.395 0 .734447-.09875.99984-.29625.27157-.1975.487588-.3888222.641875-.5863222v-6.2212658h1.376338zm5.159648-4.400616 2.789648 4.400616h-1.641778l-2.283574-3.795634h-.555465v3.795634h-1.37016v-11.967236l1.37016-.148125v7.153134h.573982l2.184824-3.16h1.623292zm7.480352-2.604472h-1.7775v4.499366c0 .5739824.074102.9689824.222179 1.1726602.142042.2098398.395.3147676.740625.3147676.203678 0 .376483-.0246954.524608-.0864102.148046-.0555528.253052-.1049278.320945-.148125l.191322 1.0985898c-.061778.0431972-.1975.1172676-.413517.2098398-.20984.09875-.499912.1419472-.857893.1419472-.70359 0-1.222019-.1913222-1.573822-.5801602-.351803-.3888222-.524608-1.036875-.524608-1.938028v-4.684384h-.981322v-.9134296l.981322-.2036778.154366-2.27125h1.215858v2.27125h1.94419zm7.23956 7.005088h-1.253098v-.9134296h-.03081c-.036972.0617148-.111074.1666426-.222196.29625-.111074.1296074-.259215.2530528-.432019.3703204-.172821.1172676-.38266.2221796-.635713.3147676-.246875.0864102-.524608.1296074-.827035.1296074-.357965 0-.685073-.049375-.968983-.1543028-.290072-.1110898-.536947-.2839102-.740625-.5184296-.203662-.2406972-.357965-.543125-.462892-.9257852-.111074-.3764824-.160465-.839375-.160465-1.3948398v-5.326338h1.37016v5.227588c0 .6727324.111074 1.1603204.327107 1.4442148.222196.2900722.561643.4320352 1.024536.4320352.395 0 .728285-.09875.999839-.29625.271571-.1975.487573-.3888222.641875-.5863222v-6.2212658h1.370161zm5.671884-6.924824c-.036972-.0246954-.111074-.049375-.22218-.0802324-.111074-.0370352-.265393-.0555528-.456731-.0555528-.425857 0-.765304.1172676-1.006001.345625-.240713.2345352-.413518.4875722-.518446.7529648v5.961972h-1.37016v-8.122148h1.252893v1.0985898h.036972c.055616-.1604648.12956-.3147676.216017-.4690704.092588-.148125.203662-.2839102.339447-.4011778.135722-.1234296.29625-.2160176.481411-.2839102.18516-.0678926.413517-.09875.672732-.09875.191322 0 .345625.0185176.462893.049375.117236.0370352.209839.0617148.277732.0864102z" fill="#000"/><path d="m44.90058 58.72558h2.129366v28.44h-4.974472v-28.44z" fill="#fc0"/><path d="m44.90058 30.14338h2.129366v28.5822h-4.974472v-28.5822z" fill="#eb1923"/><g fill="#000"><path d="m29.1069 11.78852c1.4503926 2.30206 2.592148 2.258926 4.31419 2.258926-1.425713-1.08625-2.363838-2.487236-2.814296-3.196972l-2.660088-4.258574c-.2592148-1.3146074-.938125-2.542852-1.956514-3.45625.339463-.1296074.6233574-.2653926.7961778-.395-1.734366 0-3.45625-.8825722-4.400616-.8825722-.6110176 0-.9998398.3641426-.9998398.8455528.036972.5369472.5863222 1.0800722 1.604648 1.0800722.2345352 0 .5307852-.0308574.8517306-.0802324.5554648.7653204.9998398 1.4627324.9998398 2.450264 0 1.863926-2.228116 3.320528-4.47456 3.320528-.12956 0-.2530528-.006162-.3764824-.0185176-.2036778-.4628926-.882588-1.234375-.882588-2.116884 0-1.48125.9689824-2.690898.9689824-4.153662 0-.9134296-.444375-1.4750722-.6171796-1.70956.2777324-.2592148.5801602-.5739824.6480528-.79-.1604806.0678926-.3518028.0802324-.6295352.0802324-1.080088 0-1.956514-.2839102-2.814296-.2839102-.487588 0-.6171954.1543028-.6171954.29625 0 .0555528.00632.1049278.024648.1357852-.1851602-.0740546-.3579648-.1172676-.5616426-.1604648-.246875-.0431972-.5246074-.0678926-.8146954-.0678926-1.036875 0-1.4071796.4381972-1.4071796.8085176 0 .3147676.246875.8949278.5307852 1.333125.4073398-.2036778.894912-.3394472 1.1171074-.3394472.549287 0 1.043037.5246074 1.3022676 1.1479648-.3703204.0431972-.444375.0617148-.8208574.0617148-1.0121954 0-1.703398-.3641426-1.84544-.3641426-.01264 0-.036972.006162-.036972.0308574 0 .1419472.2839102.5184454.8517148.7221074.7468028.2715704 1.863926.3888222 2.055264.4196796 0 .0308574-.1913222.3826602-.4073398.4505528-.043134.0185176-.080264.0185176-.12956.006162-.7776602-.1543028-.9998398-.2160176-1.987324-.5925-.03081-.012324-.043292.006162-.043292.0370352 0 .3888222 1.0121954 1.2528926 1.919384 1.586162-.7591426.9628204-1.70956 1.956514-2.154014 3.462412-.123398.012324-.246875.0185176-.3764982.0185176-2.246602 0-4.47456-1.4565704-4.47456-3.320528 0-.9875.444375-1.684912.9998556-2.450264.3209296.049375.6171796.0802324.845537.0802324 1.0245352 0 1.573838-.543125 1.616972-1.0800722 0-.4814102-.395-.8455528-1.0060176-.8455528-.9443028 0-2.66625.8825722-4.400616.8825722.1666426.1296074.4567306.2653926.7961778.395-1.0183574.9134296-1.697236 2.14169-1.956514 3.45625l-2.660088 4.258574c-.444375.7097676-1.3886778 2.110722-2.814296 3.196972 1.721884 0 2.86375.0431972 4.320352-2.258926l1.3578204-2.184824c.104912.2839102.2283574.5616426.3764824.8270352l-2.715704 4.338838c-.4505528.7221074-1.3825 2.10456-2.814296 3.203134 1.721884 0 2.86375.0431972 4.320352-2.258926l2.333028-3.740176c.1728204.1851602.3579806.3703204.5493028.543125l-3.295722 5.270722c-.450537.7221074-1.3825 2.10456-2.814296 3.203134 1.721884 0 2.86375.0431972 4.320352-2.258926l3.209296-5.141162c.2098398.1296074.4258574.2592148.6542148.3826602l-3.925352 6.270704c-.4505528.7221074-1.376338 2.098398-2.808292 3.203134 1.715722 0 2.857588.0370352 4.31419-2.265088l4.036426-6.455722c.2406972.0925722.4814102.1789824.7282852.2530528l-4.560986 7.301338c-.444375.7097676-1.3948556 2.116884-2.814296 3.203134 1.721884 0 2.86375.0370352 4.31419-2.265088l4.863398-7.776602c.049296.006162.09875.0185176.148046.0246954.12956.4196796.2221954.8146796.2221954 1.2035176 0 2.444102-1.604648 4.604278-3.530352 6.270704.123398.0555528.3394472.0740546.5369472.0740546.395 0 .6542306-.0246796.833213-.0555528-.444375 1.0121796-1.4010176 2.326866-1.888574 2.999472-.6295352-.1110898-1.5429806-.1975-2.147852-.1975-.6233574 0-.6974278.3641426-.6974278.69125 0 .5739824.2653926 1.0245352.5801602 1.2775722.111074-.2900722.345625-.6789102 1.5121074-.6789102.018486 0 .061778 0 .111074.006162-.339463.3764824-1.4010176 1.234375-1.4010176 1.925704 0 .4567148.5060898 1.1418028 1.1664824 1.1418028-.036972-.1419472-.036972-.2777324-.036972-.3826602 0-.5616426.4999278-1.2158574.9196074-1.672588-.01264.1357852-.00632.1234454-.00632.2777324 0 1.3269472.117236 1.938028.9566268 1.938028.4135176 0 .6974278-.2283574.7961778-.29625-.5493028-.4999278-.5739824-.8949278-.5739824-1.641778 0-.1913222 0-.3764824.00632-.641875 0-.1666426 0-.395-.03081-.5554648.3024278-.0431972.4258732-.0431972.6542306-.0431972 0 0 1.1973398-.0925722 1.48125.5307852.3271074-.3024278.796162-.7221074.796162-1.1788222 0-.3085898-.141884-.6542148-.7591426-.6542148-.2345194 0-.9628046.1419472-1.58.1419472.1666426-.3641426.9011056-1.4380528 1.5368028-2.215634.092588.3024278.246875.6295352.5801602.8949278.043134-.4999278.3332852-2.086074 1.1171074-3.005634.092588.6233574.2160176 1.2652324.2160176 2.616796 0 3.28956-.79 5.721338-2.474912 6.184278.2221954.3826602.685088.7221074 1.1603204.7221074.6171796 0 .9504648-.6974278 1.2960898-1.3516426.1728046.4875722.6665546 1.672588 1.1541426 1.672588.49375 0 .9875-1.185 1.1664824-1.672588.3394472.6542148.6727324 1.3516426 1.28375 1.3516426.4814102 0 .9443028-.3394472 1.1664824-.7221074-1.67875-.4628926-2.474912-2.89456-2.474912-6.184278 0-1.3516426.123398-1.993486.2160176-2.616796.783838.9196074 1.0739102 2.505722 1.1232852 3.005634.3332852-.2653926.4814102-.5925.5801602-.8949278.6295352.7776602 1.3639824 1.851602 1.530625 2.215634-.6110176 0-1.3454648-.1419472-1.58-.1419472-.6110176 0-.7591426.345625-.7591426.6542148 0 .4567148.4690546.8764102.7961778 1.1788222.2838944-.6233574 1.48125-.5307852 1.48125-.5307852.2345194 0 .351787 0 .6542148.0431972-.024648.1604648-.03081.3888222-.03081.5554648.00632.2653926.00632.4505528.00632.641875 0 .7468028-.03081 1.1418028-.5739824 1.641778.09875.0678926.3826602.29625.7961778.29625.839375 0 .9628046-.6110176.9628046-1.938028 0-.1543028 0-.1419472-.01264-.2777324.4196954.4567148.9196074 1.1109296.9196074 1.672588 0 .1049278.00632.2406972-.036972.3826602.6603926 0 1.1664982-.6850722 1.1664982-1.1418028 0-.69125-1.0615704-1.5491426-1.4010176-1.925704.055458-.006162.092588-.006162.117236-.006162 1.1603046 0 1.3948398.3888222 1.5121074.6789102.3085898-.2530528.5739824-.7035898.5739824-1.2775722 0-.3271074-.06794-.69125-.6974278-.69125-.598662 0-1.5182852.0864102-2.147852.1975-.487588-.6727324-1.4442306-1.987324-1.888574-2.999472.1789982.0308574.438213.0555528.833213.0555528.1975 0 .4135176-.0185176.5369472-.0740546-1.925704-1.666426-3.530352-3.826602-3.530352-6.270704 0-.3888222.092588-.7838222.2221796-1.2035176.049296-.006162.09875-.0185176.148046-.0246954l4.863398 7.776602c1.4565546 2.30206 2.59831 2.265088 4.31419 2.265088-1.4195352-1.08625-2.37-2.493398-2.814296-3.203134l-4.560986-7.301338c.246875-.0740546.4875722-.1604648.7282694-.2530528l4.036426 6.455722c1.4565704 2.30206 2.59831 2.265088 4.320352 2.265088-1.4380528-1.1047676-2.363838-2.481074-2.814296-3.203134l-3.91919-6.270704c.2221796-.1234454.4381972-.2530528.648037-.3826602l3.209296 5.141162c1.4567284 2.30206 2.598468 2.258926 4.32051 2.258926-1.431875-1.0985898-2.363838-2.481074-2.814296-3.203134l-3.295722-5.270722c.191338-.1728204.3764824-.3579648.5493028-.543125l2.33919 3.740176c1.4503926 2.30206 2.592148 2.258926 4.31419 2.258926-1.431875-1.0985898-2.363838-2.481074-2.814296-3.203134l-2.709384-4.338838c.142042-.2653926.2653926-.543125.3703204-.8270352zm-21.76766-4.999278c0-1.623134 1.178838-2.900722 1.592324-3.264912.09875.0246954.203662.049375.302412.0678926-.444375.543125-1.2220194 1.4442148-1.2220194 2.63544 0 2.37 2.53669 4.431426 5.406602 4.431426-.018486.2036778-.03081.4196796-.03081.6356972 0 .3518028.018486.6789102.055616.9875-3.246426-.0185176-6.104014-2.653926-6.104014-5.493028m4.394296 19.4419-.01264.0555528h.055616c.9072676 0 1.3516426-.0617148 1.64794-.1049278.154208-.0185176.2653926-.0370352.3826444-.0370352.2345352 0 .4135176.0246954.4135176.3147676 0 .1913222-.2283574.4999278-.444375.6789102-.3394472-.3147676-.8023398-.3764824-1.487412-.3764824-.3147676 0-.734463.0555528-.9566426.0864102l-.036972.006162-.043134.006162.01264.1049278c.03081.1913222.061778.4258574.061778.740625l-.00632.2900722v.3518028c0 .7776602.104912 1.2158574.3764824 1.5491426-.074102.0246954-.1851602.049375-.2592306.049375-.4813944 0-.6171796-.2098398-.6171796-1.598486 0-.2715546-.018486-.5369472-.024648-.7097676l-.01264-.2530528-.061778.0431972c-.7159454.543125-1.4503926 1.5182852-1.4935898 2.246602-.2160176-.1419472-.4505528-.4505528-.4505528-.69125 0-.395.5986778-.9936778 1.2899278-1.684912l.395-.395.055458-.049375-.135722-.0308574c-.148046-.0431972-.4196954-.1110898-.6542306-.1110898-.7776444 0-1.2652324.148125-1.5614824.4752324-.111074-.1604648-.1975-.5184454-.1975-.7344472 0-.1357852.024648-.2345352.080264-.2900722.06794-.0617148.1728204-.0617148.2653926-.0617148h.018486c.8517148 0 1.87625.1543028 2.277412.2160176l.018486.006162.018486-.0185176c.06794-.0925722 1.697236-2.265088 2.116884-3.413116.09875-.0370352.1789824-.0617148.351787-.0617148.3209454 0 .4073556.2160176.4999278.543125-1.0183574 1.2405528-1.64794 2.197148-1.882412 2.857588m8.782588-3.4006656c.1728046 0 .253037.024727.351787.0617464.4196954 1.1479648 2.049102 3.320528 2.116884 3.413116l.018486.0185176.024648-.006162c.395-.0617148 1.4133574-.2160176 2.27125-.2160176h.018486c.092588 0 .1975 0 .2653926.0617148.055616.0555528.080264.1543028.080264.2900722 0 .2160176-.086426.5739824-.1975.7344472-.29625-.3271074-.7838222-.4752324-1.5553046-.4752324-.2345352 0-.5122676.0678926-.6603926.1110898l-.061778.012324-.06794.0185176.444375.444375c.69125.69125 1.289912 1.2899278 1.289912 1.684912 0 .2406972-.2345352.5493028-.444375.69125-.049296-.7282852-.7838222-1.703398-1.4997676-2.246602l-.061778-.0431972-.01264.2530528c-.00632.1728204-.024648.4381972-.024648.7097676 0 1.3886778-.141884 1.598486-.6171796 1.598486-.074102 0-.1851602-.0246954-.2592148-.049375.2715546-.3332852.3764824-.7714824.3764824-1.5491426v-.3518028l-.00632-.2900722c0-.3147676.03081-.5493028.061778-.740625l.01264-.1049278-.074102-.012324c-.2283574-.0308574-.641875-.0864102-.9628046-.0864102-.685088 0-1.1479806.0617148-1.48125.3764824-.2221954-.1789824-.4505528-.4875722-.4505528-.6789102 0-.2900722.1789824-.3147676.4135176-.3147676.123398 0 .2283574.0185176.3888222.0370352.290088.0431972.734463.1049278 1.641778.1049278h.061778l-.018486-.0555528c-.2345352-.6603926-.8702324-1.616972-1.882412-2.857588.092588-.3271074.1789824-.543125.4999278-.543125m-3.770986-18.91734c-.09875-.4196796-.3147676-.8517148-.5925-1.1788222-.246875-.2900722-.6603926-.641875-1.2158574-.641875-.2592148 0-.685088.1172676-.9566426.2345352-.09875-.1851602-.29625-.6356972-.29625-.8331972 0-.2098398.345625-.4135176 1.0121796-.4135176 1.4689102 0 2.345352.6603926 2.345352 1.771338 0 .395-.154366.7468028-.29625 1.0615704m.6603926-1.4442148c-.055616-.3147676-.1728204-.5986778-.3518028-.8455528.00632-.2839102.123398-.5554648.586338-.3332852-.246875.2592148-.055616.7097676-.055616.7097676s.5122676-.2345352.4073398-.5739824c.7591426.1789824.2098398 1.2035176-.5863222 1.0430528m2.857588 9.813222c.036972-.3209296.055616-.6480528.055616-.9875 0-.1789824.00632-.395-.018486-.6356972 2.83294-.0370352 5.320176-2.079912 5.320176-4.431426 0-1.1911778-.7776602-2.092236-1.2220352-2.63544.104912-.0185176.2036778-.0431972.3024278-.0678926.4135018.3641426 1.592324 1.641778 1.592324 3.264912 0 2.820616-2.814296 5.43125-6.029912 5.4930438"/><path d="m47.02884 1.84558v28.44h-4.974472v-28.44z"/></g></g></g></svg>