<?xml version="1.0" encoding="utf-8"?>
<!-- Generator: Adobe Illustrator 25.4.1, SVG Export Plug-In . SVG Version: 6.00 Build 0)  -->
<svg version="1.1" id="Ebene_1" xmlns="http://www.w3.org/2000/svg" xmlns:xlink="http://www.w3.org/1999/xlink" x="0px" y="0px"
	 viewBox="0 0 315 129" style="enable-background:new 0 0 315 129;" xml:space="preserve">
<style type="text/css">
	.st0{fill:#FF0000;}
	.st1{fill:#FFCC00;}
</style>
<g>
	<g id="Name_00000152975280581945931370000013554494865299980956_" transform="scale(1,-1) translate(0,-104)">
		<path d="M89.7,79.5c0-0.4-0.1-0.8-0.2-1.1c-0.1-0.3-0.2-0.6-0.4-0.8c-0.2-0.2-0.4-0.4-0.6-0.5c-0.2-0.1-0.5-0.2-0.7-0.3v0
			c0.3-0.1,0.6-0.2,0.9-0.3c0.3-0.2,0.5-0.4,0.7-0.6c0.2-0.2,0.4-0.5,0.5-0.8c0.1-0.3,0.2-0.7,0.2-1.1c0-0.5-0.1-0.9-0.2-1.3
			s-0.4-0.7-0.7-1c-0.3-0.3-0.8-0.5-1.3-0.7c-0.5-0.2-1.1-0.2-1.8-0.2h-2.4v11.7h2.3c0.7,0,1.3-0.1,1.8-0.2c0.5-0.1,0.9-0.3,1.2-0.6
			c0.3-0.3,0.5-0.6,0.7-0.9C89.6,80.3,89.7,79.9,89.7,79.5z M88.2,79.4c0,0.5-0.2,1-0.6,1.3c-0.4,0.3-1,0.5-1.8,0.5H85v-4h0.8
			c0.8,0,1.4,0.2,1.8,0.6C88,78.2,88.2,78.8,88.2,79.4z M88.4,74.1c0,0.6-0.2,1.1-0.6,1.5c-0.4,0.4-1,0.5-1.8,0.5h-1V72H86
			c0.9,0,1.5,0.2,1.9,0.5C88.2,72.9,88.4,73.4,88.4,74.1z M97.5,70.8h-1.3v0.9h0c0-0.1-0.1-0.2-0.2-0.3c-0.1-0.1-0.3-0.3-0.4-0.4
			c-0.2-0.1-0.4-0.2-0.6-0.3s-0.5-0.1-0.8-0.1c-0.4,0-0.7,0.1-1,0.2c-0.3,0.1-0.5,0.3-0.7,0.5c-0.2,0.2-0.4,0.5-0.5,0.9
			c-0.1,0.4-0.2,0.8-0.2,1.4v5.3h1.4v-5.2c0-0.7,0.1-1.2,0.3-1.4c0.2-0.3,0.6-0.4,1-0.4c0.4,0,0.7,0.1,1,0.3
			c0.3,0.2,0.5,0.4,0.6,0.6v6.2h1.4V70.8z M104,70.8V76c0,0.7-0.1,1.2-0.3,1.5c-0.2,0.3-0.6,0.4-1.1,0.4c-0.4,0-0.7-0.1-1-0.3
			c-0.3-0.2-0.5-0.4-0.6-0.6v-6.3h-1.4v8.1h1.3V78h0c0,0.1,0.1,0.2,0.2,0.3c0.1,0.1,0.3,0.3,0.4,0.4c0.2,0.1,0.4,0.2,0.6,0.3
			s0.5,0.1,0.8,0.1c0.4,0,0.7-0.1,1-0.2c0.3-0.1,0.5-0.3,0.7-0.5c0.2-0.2,0.4-0.5,0.5-0.9c0.1-0.4,0.2-0.8,0.2-1.4v-5.3H104z
			 M107.1,74.7c0,0.8,0.1,1.5,0.3,2.1c0.2,0.6,0.5,1,0.8,1.3c0.3,0.3,0.7,0.6,1.2,0.7c0.4,0.1,0.9,0.2,1.3,0.2c0.3,0,0.5,0,0.7-0.1
			c0.2,0,0.3-0.1,0.5-0.1v3.9l1.4,0.2V70.8h-1.3v0.9h0c0-0.1-0.1-0.2-0.2-0.3c-0.1-0.1-0.2-0.2-0.4-0.4c-0.2-0.1-0.4-0.2-0.6-0.3
			c-0.2-0.1-0.5-0.1-0.8-0.1c-0.4,0-0.7,0.1-1.1,0.2c-0.3,0.2-0.6,0.4-0.9,0.7c-0.3,0.3-0.5,0.8-0.6,1.3
			C107.1,73.3,107.1,74,107.1,74.7z M110.3,71.8c0.2,0,0.4,0,0.6,0.1c0.2,0.1,0.3,0.1,0.4,0.2c0.1,0.1,0.2,0.2,0.3,0.3
			s0.1,0.2,0.2,0.2v5c-0.1,0.1-0.3,0.1-0.4,0.2c-0.2,0.1-0.4,0.1-0.6,0.1c-0.3,0-0.6-0.1-0.9-0.2c-0.3-0.1-0.5-0.3-0.7-0.5
			c-0.2-0.2-0.4-0.6-0.5-1c-0.1-0.4-0.2-0.9-0.2-1.5c0-0.6,0-1,0.1-1.4c0.1-0.4,0.2-0.7,0.4-0.9c0.2-0.2,0.4-0.4,0.6-0.5
			C109.8,71.9,110,71.8,110.3,71.8z M120.5,76.2c0-0.3,0-0.7,0-0.9c0-0.3,0-0.5-0.1-0.7h-4.1c0-1,0.3-1.7,0.6-2.1
			c0.4-0.5,0.9-0.7,1.6-0.7c0.2,0,0.5,0,0.6,0.1c0.2,0.1,0.4,0.1,0.5,0.2c0.1,0.1,0.3,0.2,0.4,0.2c0.1,0.1,0.2,0.1,0.2,0.2l0.5-1
			c-0.1-0.1-0.1-0.1-0.3-0.2c-0.1-0.1-0.3-0.2-0.5-0.3c-0.2-0.1-0.4-0.2-0.7-0.3c-0.3-0.1-0.6-0.1-1-0.1c-0.5,0-1,0.1-1.4,0.3
			c-0.4,0.2-0.8,0.4-1,0.8c-0.3,0.4-0.5,0.8-0.7,1.4c-0.2,0.5-0.2,1.2-0.2,2c0,0.7,0.1,1.3,0.2,1.9c0.2,0.5,0.4,1,0.7,1.3
			c0.3,0.3,0.6,0.6,1,0.8c0.4,0.2,0.8,0.2,1.2,0.2c0.8,0,1.4-0.2,1.8-0.7C120.3,77.9,120.5,77.1,120.5,76.2z M117.9,78
			c-0.5,0-0.9-0.2-1.2-0.6s-0.5-1-0.5-1.8h3c0,0.1,0,0.1,0,0.2c0,0.1,0,0.2,0,0.3c0,0.6-0.1,1-0.3,1.3C118.7,77.8,118.3,78,117.9,78
			z M125.8,77.3c-0.1,0.1-0.3,0.2-0.5,0.4c-0.2,0.2-0.5,0.3-0.9,0.3c-0.4,0-0.6-0.1-0.8-0.3c-0.2-0.2-0.3-0.4-0.3-0.6
			c0-0.3,0.1-0.6,0.3-0.8c0.2-0.2,0.4-0.4,0.8-0.6l0.5-0.3c0.6-0.3,1-0.7,1.3-1.1c0.3-0.4,0.5-0.9,0.5-1.5c0-0.6-0.2-1.2-0.7-1.6
			c-0.4-0.4-1.1-0.7-1.9-0.7c-0.3,0-0.6,0-0.9,0.1c-0.2,0.1-0.5,0.1-0.7,0.2c-0.2,0.1-0.3,0.2-0.5,0.3c-0.1,0.1-0.2,0.2-0.3,0.3
			l0.7,1.1c0.1-0.1,0.1-0.1,0.2-0.2c0.1-0.1,0.2-0.2,0.3-0.3c0.1-0.1,0.3-0.2,0.5-0.2c0.2-0.1,0.4-0.1,0.6-0.1
			c0.4,0,0.7,0.1,0.9,0.3c0.2,0.2,0.3,0.4,0.3,0.7c0,0.2,0,0.4-0.1,0.5c-0.1,0.1-0.1,0.3-0.2,0.4c-0.1,0.1-0.2,0.2-0.4,0.3
			c-0.1,0.1-0.3,0.2-0.5,0.3l-0.5,0.3c-0.5,0.3-0.9,0.7-1.2,1c-0.3,0.4-0.4,0.8-0.4,1.4c0,0.3,0.1,0.6,0.2,0.8
			c0.1,0.3,0.3,0.5,0.5,0.7c0.2,0.2,0.5,0.3,0.8,0.4c0.3,0.1,0.6,0.2,0.9,0.2c0.3,0,0.6,0,0.8-0.1c0.2-0.1,0.4-0.1,0.6-0.2
			c0.2-0.1,0.3-0.2,0.4-0.3c0.1-0.1,0.2-0.2,0.3-0.2L125.8,77.3z M132.5,70.8V76c0,0.7-0.1,1.1-0.3,1.4c-0.2,0.3-0.5,0.4-0.9,0.4
			c-0.2,0-0.4,0-0.6-0.1c-0.2-0.1-0.3-0.1-0.5-0.2c-0.1-0.1-0.3-0.2-0.4-0.3c-0.1-0.1-0.2-0.2-0.3-0.3v-6.3h-1.4v8.1h1.3V78h0
			c0.1,0.1,0.1,0.2,0.3,0.3c0.1,0.1,0.3,0.3,0.4,0.4c0.2,0.1,0.4,0.2,0.6,0.3c0.2,0.1,0.5,0.1,0.8,0.1c0.9,0,1.6-0.4,2-1.1
			c0.1,0.1,0.2,0.2,0.3,0.4c0.1,0.1,0.3,0.2,0.5,0.4c0.2,0.1,0.4,0.2,0.6,0.3c0.2,0.1,0.5,0.1,0.7,0.1c1.6,0,2.5-1,2.5-2.9v-5.4
			h-1.4V76c0,0.7-0.1,1.1-0.4,1.4c-0.2,0.3-0.6,0.4-1,0.4c-0.4,0-0.7-0.1-1-0.3c-0.3-0.2-0.5-0.4-0.6-0.5c0-0.1,0-0.3,0.1-0.4
			c0-0.1,0-0.3,0-0.4v-5.4H132.5z M141.6,70.8h-1.4v8.1h1.4V70.8z M140.9,80.9c-0.3,0-0.5,0.1-0.7,0.3c-0.2,0.2-0.3,0.4-0.3,0.7
			c0,0.3,0.1,0.5,0.3,0.7c0.2,0.2,0.4,0.3,0.7,0.3c0.3,0,0.5-0.1,0.7-0.3c0.2-0.2,0.3-0.4,0.3-0.7c0-0.3-0.1-0.5-0.3-0.7
			C141.4,81,141.1,80.9,140.9,80.9z M148.1,70.8V76c0,0.7-0.1,1.2-0.3,1.5c-0.2,0.3-0.6,0.4-1.1,0.4c-0.4,0-0.7-0.1-1-0.3
			c-0.3-0.2-0.5-0.4-0.6-0.6v-6.3h-1.4v8.1h1.3V78h0c0,0.1,0.1,0.2,0.2,0.3c0.1,0.1,0.3,0.3,0.4,0.4c0.2,0.1,0.4,0.2,0.6,0.3
			s0.5,0.1,0.8,0.1c0.4,0,0.7-0.1,1-0.2c0.3-0.1,0.5-0.3,0.7-0.5c0.2-0.2,0.4-0.5,0.5-0.9c0.1-0.4,0.2-0.8,0.2-1.4v-5.3H148.1z
			 M152.9,70.8h-1.4v8.1h1.4V70.8z M152.2,80.9c-0.3,0-0.5,0.1-0.7,0.3c-0.2,0.2-0.3,0.4-0.3,0.7c0,0.3,0.1,0.5,0.3,0.7
			c0.2,0.2,0.4,0.3,0.7,0.3c0.3,0,0.5-0.1,0.7-0.3c0.2-0.2,0.3-0.4,0.3-0.7c0-0.3-0.1-0.5-0.3-0.7C152.7,81,152.5,80.9,152.2,80.9z
			 M158.5,77.3c-0.1,0.1-0.3,0.2-0.5,0.4c-0.2,0.2-0.5,0.3-0.9,0.3c-0.4,0-0.6-0.1-0.8-0.3c-0.2-0.2-0.3-0.4-0.3-0.6
			c0-0.3,0.1-0.6,0.3-0.8c0.2-0.2,0.4-0.4,0.8-0.6l0.5-0.3c0.6-0.3,1-0.7,1.3-1.1c0.3-0.4,0.5-0.9,0.5-1.5c0-0.6-0.2-1.2-0.7-1.6
			c-0.4-0.4-1.1-0.7-1.9-0.7c-0.3,0-0.6,0-0.9,0.1s-0.5,0.1-0.7,0.2c-0.2,0.1-0.3,0.2-0.5,0.3c-0.1,0.1-0.2,0.2-0.3,0.3l0.7,1.1
			c0.1-0.1,0.1-0.1,0.2-0.2c0.1-0.1,0.2-0.2,0.3-0.3c0.1-0.1,0.3-0.2,0.5-0.2c0.2-0.1,0.4-0.1,0.6-0.1c0.4,0,0.7,0.1,0.9,0.3
			c0.2,0.2,0.3,0.4,0.3,0.7c0,0.2,0,0.4-0.1,0.5c-0.1,0.1-0.1,0.3-0.2,0.4c-0.1,0.1-0.2,0.2-0.4,0.3c-0.1,0.1-0.3,0.2-0.5,0.3
			l-0.5,0.3c-0.5,0.3-0.9,0.7-1.2,1c-0.3,0.4-0.4,0.8-0.4,1.4c0,0.3,0.1,0.6,0.2,0.8c0.1,0.3,0.3,0.5,0.5,0.7
			c0.2,0.2,0.5,0.3,0.8,0.4c0.3,0.1,0.6,0.2,0.9,0.2c0.3,0,0.6,0,0.8-0.1c0.2-0.1,0.4-0.1,0.6-0.2c0.2-0.1,0.3-0.2,0.4-0.3
			c0.1-0.1,0.2-0.2,0.3-0.2L158.5,77.3z M164.4,77.8h-1.8v-4.5c0-0.6,0.1-1,0.2-1.2c0.1-0.2,0.4-0.3,0.7-0.3c0.2,0,0.4,0,0.5,0.1
			c0.1,0.1,0.3,0.1,0.3,0.2l0.2-1.1c-0.1,0-0.2-0.1-0.4-0.2c-0.2-0.1-0.5-0.1-0.9-0.1c-0.7,0-1.2,0.2-1.6,0.6
			c-0.3,0.4-0.5,1-0.5,1.9v4.7h-1v0.9l1,0.2l0.2,2.3h1.2v-2.3h1.9L164.4,77.8z M171,76.2c0-0.3,0-0.7,0-0.9c0-0.3,0-0.5-0.1-0.7
			h-4.1c0-1,0.3-1.7,0.6-2.1c0.4-0.5,0.9-0.7,1.6-0.7c0.2,0,0.5,0,0.6,0.1c0.2,0.1,0.4,0.1,0.5,0.2c0.1,0.1,0.3,0.2,0.4,0.2
			c0.1,0.1,0.2,0.1,0.2,0.2l0.5-1c-0.1-0.1-0.1-0.1-0.3-0.2c-0.1-0.1-0.3-0.2-0.5-0.3c-0.2-0.1-0.4-0.2-0.7-0.3
			c-0.3-0.1-0.6-0.1-1-0.1c-0.5,0-1,0.1-1.4,0.3c-0.4,0.2-0.8,0.4-1,0.8c-0.3,0.4-0.5,0.8-0.7,1.4c-0.2,0.5-0.2,1.2-0.2,2
			c0,0.7,0.1,1.3,0.2,1.9c0.2,0.5,0.4,1,0.7,1.3c0.3,0.3,0.6,0.6,1,0.8c0.4,0.2,0.8,0.2,1.2,0.2c0.8,0,1.4-0.2,1.8-0.7
			C170.8,77.9,171,77.1,171,76.2z M168.4,78c-0.5,0-0.9-0.2-1.2-0.6c-0.3-0.4-0.5-1-0.5-1.8h3c0,0.1,0,0.1,0,0.2c0,0.1,0,0.2,0,0.3
			c0,0.6-0.1,1-0.3,1.3C169.2,77.8,168.9,78,168.4,78z M176.4,77.7c0,0-0.1,0.1-0.2,0.1c-0.1,0-0.3,0.1-0.5,0.1
			c-0.4,0-0.8-0.1-1-0.3c-0.2-0.2-0.4-0.5-0.5-0.8v-6h-1.4v8.1h1.3v-1.1h0c0.1,0.2,0.1,0.3,0.2,0.5c0.1,0.2,0.2,0.3,0.3,0.4
			c0.1,0.1,0.3,0.2,0.5,0.3c0.2,0.1,0.4,0.1,0.7,0.1c0.2,0,0.3,0,0.5-0.1s0.2-0.1,0.3-0.1L176.4,77.7z M179.1,70.8h-1.4v8.1h1.4
			V70.8z M178.4,80.9c-0.3,0-0.5,0.1-0.7,0.3c-0.2,0.2-0.3,0.4-0.3,0.7c0,0.3,0.1,0.5,0.3,0.7c0.2,0.2,0.4,0.3,0.7,0.3
			c0.3,0,0.5-0.1,0.7-0.3c0.2-0.2,0.3-0.4,0.3-0.7c0-0.3-0.1-0.5-0.3-0.7C178.9,81,178.7,80.9,178.4,80.9z M186.9,70.8h-1.3v0.9h0
			c0-0.1-0.1-0.2-0.2-0.3c-0.1-0.1-0.3-0.3-0.4-0.4c-0.2-0.1-0.4-0.2-0.6-0.3c-0.2-0.1-0.5-0.1-0.8-0.1c-0.4,0-0.7,0.1-1,0.2
			c-0.3,0.1-0.5,0.3-0.7,0.5c-0.2,0.2-0.4,0.5-0.5,0.9c-0.1,0.4-0.2,0.8-0.2,1.4v5.3h1.4v-5.2c0-0.7,0.1-1.2,0.3-1.4
			c0.2-0.3,0.6-0.4,1-0.4c0.4,0,0.7,0.1,1,0.3c0.3,0.2,0.5,0.4,0.6,0.6v6.2h1.4V70.8z M193.3,70.8V76c0,0.7-0.1,1.1-0.3,1.4
			c-0.2,0.3-0.5,0.4-0.9,0.4c-0.2,0-0.4,0-0.6-0.1c-0.2-0.1-0.3-0.1-0.5-0.2c-0.1-0.1-0.3-0.2-0.4-0.3c-0.1-0.1-0.2-0.2-0.3-0.3
			v-6.3H189v8.1h1.3V78h0c0.1,0.1,0.1,0.2,0.3,0.3c0.1,0.1,0.3,0.3,0.4,0.4c0.2,0.1,0.4,0.2,0.6,0.3c0.2,0.1,0.5,0.1,0.8,0.1
			c0.9,0,1.6-0.4,2-1.1c0.1,0.1,0.2,0.2,0.3,0.4c0.1,0.1,0.3,0.2,0.5,0.4c0.2,0.1,0.4,0.2,0.6,0.3c0.2,0.1,0.5,0.1,0.7,0.1
			c1.6,0,2.5-1,2.5-2.9v-5.4h-1.4V76c0,0.7-0.1,1.1-0.4,1.4c-0.2,0.3-0.6,0.4-1,0.4c-0.4,0-0.7-0.1-1-0.3c-0.3-0.2-0.5-0.4-0.6-0.5
			c0-0.1,0-0.3,0.1-0.4c0-0.1,0-0.3,0-0.4v-5.4H193.3z M208,77.8h-1.7v-7h-1.4v7h-1v0.9l1,0.2v1.6c0,0.4,0.1,0.8,0.2,1.1
			c0.1,0.3,0.3,0.6,0.5,0.8c0.2,0.2,0.4,0.3,0.7,0.4s0.6,0.1,0.9,0.1c0.3,0,0.5,0,0.7-0.1c0.2-0.1,0.3-0.1,0.4-0.2l-0.3-1.1
			c-0.1,0-0.2,0.1-0.3,0.1c-0.1,0.1-0.3,0.1-0.5,0.1c-0.3,0-0.6-0.1-0.7-0.3c-0.2-0.2-0.3-0.6-0.3-1.1v-1.5h1.8L208,77.8z M215,70.8
			h-1.3v0.9h0c0-0.1-0.1-0.2-0.2-0.3c-0.1-0.1-0.3-0.3-0.4-0.4c-0.2-0.1-0.4-0.2-0.6-0.3s-0.5-0.1-0.8-0.1c-0.4,0-0.7,0.1-1,0.2
			c-0.3,0.1-0.5,0.3-0.7,0.5c-0.2,0.2-0.4,0.5-0.5,0.9c-0.1,0.4-0.2,0.8-0.2,1.4v5.3h1.4v-5.2c0-0.7,0.1-1.2,0.3-1.4
			c0.2-0.3,0.6-0.4,1-0.4c0.4,0,0.7,0.1,1,0.3c0.3,0.2,0.5,0.4,0.6,0.6v6.2h1.4V70.8z M211.6,81.2c0-0.3-0.1-0.5-0.2-0.6
			c-0.2-0.2-0.3-0.2-0.6-0.2c-0.2,0-0.4,0.1-0.6,0.2c-0.2,0.2-0.2,0.4-0.2,0.6c0,0.3,0.1,0.5,0.2,0.6c0.2,0.2,0.3,0.2,0.6,0.2
			c0.2,0,0.4-0.1,0.6-0.2C211.5,81.7,211.6,81.5,211.6,81.2z M214.2,81.2c0-0.3-0.1-0.5-0.2-0.6c-0.2-0.2-0.3-0.2-0.6-0.2
			c-0.2,0-0.4,0.1-0.6,0.2c-0.2,0.2-0.2,0.4-0.2,0.6c0,0.3,0.1,0.5,0.2,0.6c0.2,0.2,0.3,0.2,0.6,0.2c0.2,0,0.4-0.1,0.6-0.2
			C214.2,81.7,214.2,81.5,214.2,81.2z M220.7,77.7c0,0-0.1,0.1-0.2,0.1c-0.1,0-0.3,0.1-0.5,0.1c-0.4,0-0.8-0.1-1-0.3
			c-0.2-0.2-0.4-0.5-0.5-0.8v-6h-1.4v8.1h1.3v-1.1h0c0.1,0.2,0.1,0.3,0.2,0.5c0.1,0.2,0.2,0.3,0.3,0.4c0.1,0.1,0.3,0.2,0.5,0.3
			c0.2,0.1,0.4,0.1,0.7,0.1c0.2,0,0.3,0,0.5-0.1c0.1,0,0.2-0.1,0.3-0.1L220.7,77.7z M92.6,61.8l-2.5-8.1H89l-0.8,2.8
			c-0.1,0.4-0.2,0.8-0.3,1.1c-0.1,0.3-0.1,0.7-0.2,1h0c0-0.3-0.1-0.7-0.2-1c-0.1-0.4-0.2-0.7-0.4-1.1l-0.9-2.8H85l-2.6,8.1h1.5
			l1.2-4.6c0.1-0.4,0.2-0.8,0.3-1.2c0.1-0.4,0.1-0.7,0.1-1h0c0,0.3,0.1,0.7,0.2,1c0.1,0.4,0.2,0.7,0.4,1.2l0.9,2.7l-0.6,2h1.4
			l1.2-4.5c0.1-0.5,0.2-0.9,0.3-1.3c0.1-0.4,0.2-0.8,0.2-1h0c0,0.3,0.1,0.6,0.2,1.1c0.1,0.4,0.2,0.8,0.3,1.3l1.2,4.5H92.6z
			 M95.3,53.7h-1.4v8.1h1.4V53.7z M94.6,63.8c-0.3,0-0.5,0.1-0.7,0.3c-0.2,0.2-0.3,0.4-0.3,0.7c0,0.3,0.1,0.5,0.3,0.7
			c0.2,0.2,0.4,0.3,0.7,0.3c0.3,0,0.5-0.1,0.7-0.3c0.2-0.2,0.3-0.4,0.3-0.7c0-0.3-0.1-0.5-0.3-0.7C95.1,63.9,94.9,63.8,94.6,63.8z
			 M100.9,60.6c0,0-0.1,0.1-0.2,0.1c-0.1,0-0.3,0.1-0.5,0.1c-0.4,0-0.8-0.1-1-0.3c-0.2-0.2-0.4-0.5-0.5-0.8v-6h-1.4v8.1h1.3v-1.1h0
			c0.1,0.2,0.1,0.3,0.2,0.5c0.1,0.2,0.2,0.3,0.3,0.4s0.3,0.2,0.5,0.3c0.2,0.1,0.4,0.1,0.7,0.1c0.2,0,0.3,0,0.5-0.1
			c0.1,0,0.2-0.1,0.3-0.1L100.9,60.6z M105.8,60.7H104v-4.5c0-0.6,0.1-1,0.2-1.2c0.1-0.2,0.4-0.3,0.7-0.3c0.2,0,0.4,0,0.5,0.1
			c0.1,0.1,0.3,0.1,0.3,0.2l0.2-1.1c-0.1,0-0.2-0.1-0.4-0.2c-0.2-0.1-0.5-0.1-0.9-0.1c-0.7,0-1.2,0.2-1.6,0.6
			c-0.3,0.4-0.5,1-0.5,1.9v4.7h-1v0.9l1,0.2l0.2,2.3h1.2v-2.3h1.9L105.8,60.7z M110.8,60.2c-0.1,0.1-0.3,0.2-0.5,0.4
			c-0.2,0.2-0.5,0.3-0.9,0.3c-0.4,0-0.6-0.1-0.8-0.3c-0.2-0.2-0.3-0.4-0.3-0.6c0-0.3,0.1-0.6,0.3-0.8c0.2-0.2,0.4-0.4,0.8-0.6
			l0.5-0.3c0.6-0.3,1-0.7,1.3-1.1c0.3-0.4,0.5-0.9,0.5-1.5c0-0.6-0.2-1.2-0.7-1.6c-0.4-0.4-1.1-0.7-1.9-0.7c-0.3,0-0.6,0-0.9,0.1
			c-0.2,0.1-0.5,0.1-0.7,0.2c-0.2,0.1-0.3,0.2-0.5,0.3c-0.1,0.1-0.2,0.2-0.3,0.3l0.7,1.1c0.1-0.1,0.1-0.1,0.2-0.2
			c0.1-0.1,0.2-0.2,0.3-0.3c0.1-0.1,0.3-0.2,0.5-0.2c0.2-0.1,0.4-0.1,0.6-0.1c0.4,0,0.7,0.1,0.9,0.3c0.2,0.2,0.3,0.4,0.3,0.7
			c0,0.2,0,0.4-0.1,0.5c-0.1,0.1-0.1,0.3-0.2,0.4c-0.1,0.1-0.2,0.2-0.4,0.3c-0.1,0.1-0.3,0.2-0.5,0.3l-0.5,0.3
			c-0.5,0.3-0.9,0.7-1.2,1c-0.3,0.4-0.4,0.8-0.4,1.4c0,0.3,0.1,0.6,0.2,0.8c0.1,0.3,0.3,0.5,0.5,0.7c0.2,0.2,0.5,0.3,0.8,0.4
			c0.3,0.1,0.6,0.2,0.9,0.2c0.3,0,0.6,0,0.8-0.1c0.2-0.1,0.4-0.1,0.6-0.2c0.2-0.1,0.3-0.2,0.4-0.3c0.1-0.1,0.2-0.2,0.3-0.2
			L110.8,60.2z M117.8,60.3c0,0-0.1,0.1-0.2,0.2c-0.1,0.1-0.2,0.1-0.3,0.2c-0.1,0.1-0.2,0.1-0.4,0.2c-0.2,0.1-0.3,0.1-0.5,0.1
			c-0.3,0-0.6-0.1-0.8-0.2c-0.3-0.1-0.5-0.3-0.7-0.5c-0.2-0.2-0.3-0.5-0.4-0.9c-0.1-0.4-0.2-0.8-0.2-1.4c0-0.6,0-1.1,0.1-1.5
			c0.1-0.4,0.2-0.7,0.4-1c0.2-0.2,0.4-0.4,0.6-0.5c0.2-0.1,0.5-0.2,0.8-0.2c0.4,0,0.7,0.1,1,0.2c0.2,0.1,0.4,0.3,0.5,0.4l0.6-0.9
			c-0.1-0.1-0.1-0.1-0.2-0.2c-0.1-0.1-0.2-0.2-0.4-0.3c-0.2-0.1-0.4-0.2-0.6-0.2c-0.2-0.1-0.5-0.1-0.8-0.1c-0.5,0-0.9,0.1-1.3,0.2
			c-0.4,0.1-0.7,0.4-1,0.7c-0.3,0.3-0.5,0.8-0.7,1.3c-0.2,0.5-0.3,1.2-0.3,2c0,0.8,0.1,1.4,0.3,2c0.2,0.5,0.5,1,0.8,1.3
			c0.3,0.3,0.7,0.6,1.1,0.7c0.4,0.2,0.8,0.2,1.2,0.2c0.3,0,0.6,0,0.8-0.1c0.2-0.1,0.4-0.1,0.6-0.2c0.2-0.1,0.3-0.2,0.4-0.3
			c0.1-0.1,0.2-0.2,0.3-0.2L117.8,60.3z M124.2,53.7V59c0,0.7-0.1,1.2-0.3,1.5c-0.2,0.3-0.6,0.4-1.1,0.4c-0.4,0-0.7-0.1-1-0.3
			c-0.3-0.2-0.5-0.4-0.6-0.6v-6.3h-1.4v12l1.4,0.2V61h0c0,0.1,0.1,0.2,0.2,0.3c0.1,0.1,0.2,0.2,0.4,0.3c0.2,0.1,0.4,0.2,0.6,0.3
			c0.2,0.1,0.5,0.1,0.9,0.1c0.7,0,1.3-0.2,1.7-0.7c0.4-0.5,0.6-1.2,0.6-2.3v-5.3H124.2z M127.2,55.8c0,0.5,0.1,0.9,0.3,1.2
			c0.2,0.3,0.4,0.6,0.7,0.8c0.3,0.2,0.7,0.3,1.1,0.4c0.4,0.1,0.8,0.1,1.3,0.1h0.4v0.8c0,0.7-0.1,1.2-0.4,1.4c-0.2,0.3-0.6,0.4-1,0.4
			c-0.4,0-0.7-0.1-1-0.3c-0.3-0.2-0.5-0.3-0.6-0.5l-0.6,0.9c0.1,0.1,0.2,0.2,0.3,0.3c0.1,0.1,0.3,0.2,0.5,0.3
			c0.2,0.1,0.4,0.2,0.7,0.3c0.3,0.1,0.6,0.1,0.9,0.1c0.8,0,1.5-0.2,1.9-0.7c0.4-0.5,0.6-1.2,0.6-2.2v-3.7c0-0.3,0-0.7,0-1
			c0-0.3,0-0.6,0.1-0.7h-1.3l-0.1,0.9h0c0-0.1-0.1-0.2-0.2-0.3c-0.1-0.1-0.2-0.2-0.3-0.4c-0.1-0.1-0.3-0.2-0.5-0.3s-0.4-0.1-0.7-0.1
			c-0.3,0-0.6,0.1-0.9,0.2c-0.3,0.1-0.5,0.3-0.7,0.5c-0.2,0.2-0.3,0.4-0.5,0.7C127.2,55.2,127.2,55.5,127.2,55.8z M129.6,54.7
			c0.2,0,0.4,0,0.5,0.1c0.1,0.1,0.3,0.1,0.4,0.2c0.1,0.1,0.2,0.2,0.3,0.3c0.1,0.1,0.1,0.2,0.2,0.2v1.8l-0.4,0
			c-0.7,0-1.2-0.1-1.5-0.3c-0.3-0.2-0.5-0.5-0.5-1c0-0.4,0.1-0.7,0.3-0.9C129,54.8,129.3,54.7,129.6,54.7z M137.8,60.7h-1.7v-7h-1.4
			v7h-1v0.9l1,0.2v1.6c0,0.4,0.1,0.8,0.2,1.1c0.1,0.3,0.3,0.6,0.5,0.8c0.2,0.2,0.4,0.3,0.7,0.4c0.3,0.1,0.6,0.1,0.9,0.1
			c0.3,0,0.5,0,0.7-0.1c0.2-0.1,0.3-0.1,0.4-0.2l-0.3-1.1c-0.1,0-0.2,0.1-0.3,0.1c-0.1,0.1-0.3,0.1-0.5,0.1c-0.3,0-0.6-0.1-0.7-0.3
			c-0.2-0.2-0.3-0.6-0.3-1.1v-1.5h1.8L137.8,60.7z M142.6,60.7h-1.8v-4.5c0-0.6,0.1-1,0.2-1.2c0.1-0.2,0.4-0.3,0.7-0.3
			c0.2,0,0.4,0,0.5,0.1c0.1,0.1,0.3,0.1,0.3,0.2l0.2-1.1c-0.1,0-0.2-0.1-0.4-0.2c-0.2-0.1-0.5-0.1-0.9-0.1c-0.7,0-1.2,0.2-1.6,0.6
			c-0.3,0.4-0.5,1-0.5,1.9v4.7h-1v0.9l1,0.2l0.2,2.3h1.2v-2.3h1.9L142.6,60.7z M145.5,55.6c0-0.3,0-0.6,0.1-0.7
			c0.1-0.1,0.3-0.2,0.5-0.2c0.1,0,0.2,0,0.3,0c0.1,0,0.1,0,0.2,0.1l0.1-1c-0.1,0-0.2-0.1-0.4-0.1s-0.4-0.1-0.7-0.1
			c-0.5,0-0.8,0.1-1.1,0.4c-0.3,0.3-0.4,0.8-0.4,1.5v10.2l1.4,0.2V55.6z M149.4,53.7H148v8.1h1.4V53.7z M148.7,63.8
			c-0.3,0-0.5,0.1-0.7,0.3c-0.2,0.2-0.3,0.4-0.3,0.7c0,0.3,0.1,0.5,0.3,0.7c0.2,0.2,0.4,0.3,0.7,0.3c0.3,0,0.5-0.1,0.7-0.3
			c0.2-0.2,0.3-0.4,0.3-0.7c0-0.3-0.1-0.5-0.3-0.7C149.2,63.9,149,63.8,148.7,63.8z M156,60.3c0,0-0.1,0.1-0.2,0.2
			c-0.1,0.1-0.2,0.1-0.3,0.2c-0.1,0.1-0.2,0.1-0.4,0.2c-0.2,0.1-0.3,0.1-0.5,0.1c-0.3,0-0.6-0.1-0.8-0.2c-0.3-0.1-0.5-0.3-0.7-0.5
			c-0.2-0.2-0.3-0.5-0.4-0.9c-0.1-0.4-0.2-0.8-0.2-1.4c0-0.6,0-1.1,0.1-1.5c0.1-0.4,0.2-0.7,0.4-1c0.2-0.2,0.4-0.4,0.6-0.5
			c0.2-0.1,0.5-0.2,0.8-0.2c0.4,0,0.7,0.1,1,0.2c0.2,0.1,0.4,0.3,0.5,0.4l0.6-0.9c-0.1-0.1-0.1-0.1-0.2-0.2
			c-0.1-0.1-0.2-0.2-0.4-0.3c-0.2-0.1-0.4-0.2-0.6-0.2c-0.2-0.1-0.5-0.1-0.8-0.1c-0.5,0-0.9,0.1-1.3,0.2c-0.4,0.1-0.7,0.4-1,0.7
			c-0.3,0.3-0.5,0.8-0.7,1.3c-0.2,0.5-0.3,1.2-0.3,2c0,0.8,0.1,1.4,0.3,2s0.5,1,0.8,1.3c0.3,0.3,0.7,0.6,1.1,0.7
			c0.4,0.2,0.8,0.2,1.2,0.2c0.3,0,0.6,0,0.8-0.1c0.2-0.1,0.4-0.1,0.6-0.2c0.2-0.1,0.3-0.2,0.4-0.3c0.1-0.1,0.2-0.2,0.3-0.2L156,60.3
			z M162.5,53.7V59c0,0.7-0.1,1.2-0.3,1.5c-0.2,0.3-0.6,0.4-1.1,0.4c-0.4,0-0.7-0.1-1-0.3c-0.3-0.2-0.5-0.4-0.6-0.6v-6.3H158v12
			l1.4,0.2V61h0c0,0.1,0.1,0.2,0.2,0.3c0.1,0.1,0.2,0.2,0.4,0.3s0.4,0.2,0.6,0.3c0.2,0.1,0.5,0.1,0.9,0.1c0.7,0,1.3-0.2,1.7-0.7
			c0.4-0.5,0.6-1.2,0.6-2.3v-5.3H162.5z M171.1,59.1c0-0.3,0-0.7,0-0.9c0-0.3,0-0.5-0.1-0.7h-4.1c0-1,0.3-1.7,0.6-2.1
			c0.4-0.5,0.9-0.7,1.6-0.7c0.2,0,0.5,0,0.6,0.1c0.2,0.1,0.4,0.1,0.5,0.2c0.1,0.1,0.3,0.2,0.4,0.2c0.1,0.1,0.2,0.1,0.2,0.2l0.5-1
			c-0.1-0.1-0.1-0.1-0.3-0.2c-0.1-0.1-0.3-0.2-0.5-0.3c-0.2-0.1-0.4-0.2-0.7-0.3c-0.3-0.1-0.6-0.1-1-0.1c-0.5,0-1,0.1-1.4,0.3
			c-0.4,0.2-0.8,0.4-1,0.8c-0.3,0.4-0.5,0.8-0.7,1.4c-0.2,0.5-0.2,1.2-0.2,2c0,0.7,0.1,1.3,0.2,1.9c0.2,0.5,0.4,1,0.7,1.3
			c0.3,0.3,0.6,0.6,1,0.8c0.4,0.2,0.8,0.2,1.2,0.2c0.8,0,1.4-0.2,1.8-0.7C170.9,60.8,171.1,60.1,171.1,59.1z M168.5,60.9
			c-0.5,0-0.9-0.2-1.2-0.6s-0.5-1-0.5-1.8h3c0,0.1,0,0.1,0,0.2c0,0.1,0,0.2,0,0.3c0,0.6-0.1,1-0.3,1.3
			C169.3,60.8,168.9,60.9,168.5,60.9z M182.8,64.5l-5-9.5v0h5.4l-0.1-1.2h-7.2v0.9l5.1,9.6v0h-4.8v1.2h6.6V64.5z M190.2,53.7H189
			v0.9h0c0-0.1-0.1-0.2-0.2-0.3c-0.1-0.1-0.3-0.3-0.4-0.4c-0.2-0.1-0.4-0.2-0.6-0.3s-0.5-0.1-0.8-0.1c-0.4,0-0.7,0.1-1,0.2
			c-0.3,0.1-0.5,0.3-0.7,0.5c-0.2,0.2-0.4,0.5-0.5,0.9c-0.1,0.4-0.2,0.8-0.2,1.4v5.3h1.4v-5.2c0-0.7,0.1-1.2,0.3-1.4
			c0.2-0.3,0.6-0.4,1-0.4c0.4,0,0.7,0.1,1,0.3c0.3,0.2,0.5,0.4,0.6,0.6v6.2h1.4V53.7z M195.8,60.2c-0.1,0.1-0.3,0.2-0.5,0.4
			c-0.2,0.2-0.5,0.3-0.9,0.3c-0.4,0-0.6-0.1-0.8-0.3c-0.2-0.2-0.3-0.4-0.3-0.6c0-0.3,0.1-0.6,0.3-0.8c0.2-0.2,0.4-0.4,0.8-0.6
			l0.5-0.3c0.6-0.3,1-0.7,1.3-1.1c0.3-0.4,0.5-0.9,0.5-1.5c0-0.6-0.2-1.2-0.7-1.6c-0.4-0.4-1.1-0.7-1.9-0.7c-0.3,0-0.6,0-0.9,0.1
			c-0.2,0.1-0.5,0.1-0.7,0.2c-0.2,0.1-0.3,0.2-0.5,0.3c-0.1,0.1-0.2,0.2-0.3,0.3l0.7,1.1c0.1-0.1,0.1-0.1,0.2-0.2
			c0.1-0.1,0.2-0.2,0.3-0.3c0.1-0.1,0.3-0.2,0.5-0.2c0.2-0.1,0.4-0.1,0.6-0.1c0.4,0,0.7,0.1,0.9,0.3c0.2,0.2,0.3,0.4,0.3,0.7
			c0,0.2,0,0.4-0.1,0.5c-0.1,0.1-0.1,0.3-0.2,0.4c-0.1,0.1-0.2,0.2-0.4,0.3c-0.1,0.1-0.3,0.2-0.5,0.3l-0.5,0.3
			c-0.5,0.3-0.9,0.7-1.2,1c-0.3,0.4-0.4,0.8-0.4,1.4c0,0.3,0.1,0.6,0.2,0.8c0.1,0.3,0.3,0.5,0.5,0.7c0.2,0.2,0.5,0.3,0.8,0.4
			c0.3,0.1,0.6,0.2,0.9,0.2c0.3,0,0.6,0,0.8-0.1c0.2-0.1,0.4-0.1,0.6-0.2c0.2-0.1,0.3-0.2,0.4-0.3c0.1-0.1,0.2-0.2,0.3-0.2
			L195.8,60.2z M197.8,55.8c0,0.5,0.1,0.9,0.3,1.2c0.2,0.3,0.4,0.6,0.7,0.8c0.3,0.2,0.7,0.3,1.1,0.4c0.4,0.1,0.8,0.1,1.3,0.1h0.4
			v0.8c0,0.7-0.1,1.2-0.4,1.4c-0.2,0.3-0.6,0.4-1,0.4c-0.4,0-0.7-0.1-1-0.3c-0.3-0.2-0.5-0.3-0.6-0.5l-0.6,0.9
			c0.1,0.1,0.2,0.2,0.3,0.3c0.1,0.1,0.3,0.2,0.5,0.3c0.2,0.1,0.4,0.2,0.7,0.3c0.3,0.1,0.6,0.1,0.9,0.1c0.8,0,1.5-0.2,1.9-0.7
			c0.4-0.5,0.6-1.2,0.6-2.2v-3.7c0-0.3,0-0.7,0-1c0-0.3,0-0.6,0.1-0.7h-1.3l-0.1,0.9h0c0-0.1-0.1-0.2-0.2-0.3
			c-0.1-0.1-0.2-0.2-0.3-0.4c-0.1-0.1-0.3-0.2-0.5-0.3c-0.2-0.1-0.4-0.1-0.7-0.1c-0.3,0-0.6,0.1-0.9,0.2c-0.3,0.1-0.5,0.3-0.7,0.5
			c-0.2,0.2-0.3,0.4-0.5,0.7C197.8,55.2,197.8,55.5,197.8,55.8z M200.2,54.7c0.2,0,0.4,0,0.5,0.1c0.1,0.1,0.3,0.1,0.4,0.2
			c0.1,0.1,0.2,0.2,0.3,0.3c0.1,0.1,0.1,0.2,0.2,0.2v1.8l-0.4,0c-0.7,0-1.2-0.1-1.5-0.3c-0.3-0.2-0.5-0.5-0.5-1
			c0-0.4,0.1-0.7,0.3-0.9C199.6,54.8,199.9,54.7,200.2,54.7z M209.2,53.7V59c0,0.7-0.1,1.1-0.3,1.4c-0.2,0.3-0.5,0.4-0.9,0.4
			c-0.2,0-0.4,0-0.6-0.1c-0.2-0.1-0.3-0.1-0.5-0.2c-0.1-0.1-0.3-0.2-0.4-0.3c-0.1-0.1-0.2-0.2-0.3-0.3v-6.3H205v8.1h1.3v-0.9h0
			c0.1,0.1,0.1,0.2,0.3,0.3c0.1,0.1,0.3,0.3,0.4,0.4c0.2,0.1,0.4,0.2,0.6,0.3c0.2,0.1,0.5,0.1,0.8,0.1c0.9,0,1.6-0.4,2-1.1
			c0.1,0.1,0.2,0.2,0.3,0.4c0.1,0.1,0.3,0.2,0.5,0.4c0.2,0.1,0.4,0.2,0.6,0.3c0.2,0.1,0.5,0.1,0.7,0.1c1.6,0,2.5-1,2.5-2.9v-5.4
			h-1.4V59c0,0.7-0.1,1.1-0.4,1.4c-0.2,0.3-0.6,0.4-1,0.4c-0.4,0-0.7-0.1-1-0.3c-0.3-0.2-0.5-0.4-0.6-0.5c0-0.1,0-0.3,0.1-0.4
			c0-0.1,0-0.3,0-0.4v-5.4H209.2z M221.2,53.7V59c0,0.7-0.1,1.1-0.3,1.4c-0.2,0.3-0.5,0.4-0.9,0.4c-0.2,0-0.4,0-0.6-0.1
			c-0.2-0.1-0.3-0.1-0.5-0.2c-0.1-0.1-0.3-0.2-0.4-0.3c-0.1-0.1-0.2-0.2-0.3-0.3v-6.3h-1.4v8.1h1.3v-0.9h0c0.1,0.1,0.1,0.2,0.3,0.3
			c0.1,0.1,0.3,0.3,0.4,0.4c0.2,0.1,0.4,0.2,0.6,0.3c0.2,0.1,0.5,0.1,0.8,0.1c0.9,0,1.6-0.4,2-1.1c0.1,0.1,0.2,0.2,0.3,0.4
			c0.1,0.1,0.3,0.2,0.5,0.4c0.2,0.1,0.4,0.2,0.6,0.3c0.2,0.1,0.5,0.1,0.7,0.1c1.6,0,2.5-1,2.5-2.9v-5.4h-1.4V59
			c0,0.7-0.1,1.1-0.4,1.4c-0.2,0.3-0.6,0.4-1,0.4c-0.4,0-0.7-0.1-1-0.3c-0.3-0.2-0.5-0.4-0.6-0.5c0-0.1,0-0.3,0.1-0.4
			c0-0.1,0-0.3,0-0.4v-5.4H221.2z M234.1,59.1c0-0.3,0-0.7,0-0.9c0-0.3,0-0.5-0.1-0.7h-4.1c0-1,0.3-1.7,0.6-2.1
			c0.4-0.5,0.9-0.7,1.6-0.7c0.2,0,0.5,0,0.6,0.1c0.2,0.1,0.4,0.1,0.5,0.2c0.1,0.1,0.3,0.2,0.4,0.2c0.1,0.1,0.2,0.1,0.2,0.2l0.5-1
			c-0.1-0.1-0.1-0.1-0.3-0.2c-0.1-0.1-0.3-0.2-0.5-0.3c-0.2-0.1-0.4-0.2-0.7-0.3s-0.6-0.1-1-0.1c-0.5,0-1,0.1-1.4,0.3
			c-0.4,0.2-0.8,0.4-1,0.8c-0.3,0.4-0.5,0.8-0.7,1.4c-0.2,0.5-0.2,1.2-0.2,2c0,0.7,0.1,1.3,0.2,1.9c0.2,0.5,0.4,1,0.7,1.3
			c0.3,0.3,0.6,0.6,1,0.8c0.4,0.2,0.8,0.2,1.2,0.2c0.8,0,1.4-0.2,1.8-0.7C233.9,60.8,234.1,60.1,234.1,59.1z M231.5,60.9
			c-0.5,0-0.9-0.2-1.2-0.6c-0.3-0.4-0.5-1-0.5-1.8h3c0,0.1,0,0.1,0,0.2c0,0.1,0,0.2,0,0.3c0,0.6-0.1,1-0.3,1.3
			C232.3,60.8,231.9,60.9,231.5,60.9z M240.3,53.7V59c0,0.7-0.1,1.2-0.3,1.5c-0.2,0.3-0.6,0.4-1.1,0.4c-0.4,0-0.7-0.1-1-0.3
			c-0.3-0.2-0.5-0.4-0.6-0.6v-6.3h-1.4v8.1h1.3v-0.9h0c0,0.1,0.1,0.2,0.2,0.3c0.1,0.1,0.3,0.3,0.4,0.4c0.2,0.1,0.4,0.2,0.6,0.3
			s0.5,0.1,0.8,0.1c0.4,0,0.7-0.1,1-0.2c0.3-0.1,0.5-0.3,0.7-0.5c0.2-0.2,0.4-0.5,0.5-0.9c0.1-0.4,0.2-0.8,0.2-1.4v-5.3H240.3z
			 M243.3,55.8c0,0.5,0.1,0.9,0.3,1.2c0.2,0.3,0.4,0.6,0.7,0.8c0.3,0.2,0.7,0.3,1.1,0.4c0.4,0.1,0.8,0.1,1.3,0.1h0.4v0.8
			c0,0.7-0.1,1.2-0.4,1.4c-0.2,0.3-0.6,0.4-1,0.4c-0.4,0-0.7-0.1-1-0.3c-0.3-0.2-0.5-0.3-0.6-0.5l-0.6,0.9c0.1,0.1,0.2,0.2,0.3,0.3
			c0.1,0.1,0.3,0.2,0.5,0.3c0.2,0.1,0.4,0.2,0.7,0.3c0.3,0.1,0.6,0.1,0.9,0.1c0.8,0,1.5-0.2,1.9-0.7c0.4-0.5,0.6-1.2,0.6-2.2v-3.7
			c0-0.3,0-0.7,0-1c0-0.3,0-0.6,0.1-0.7h-1.3l-0.1,0.9h0c0-0.1-0.1-0.2-0.2-0.3c-0.1-0.1-0.2-0.2-0.3-0.4c-0.1-0.1-0.3-0.2-0.5-0.3
			c-0.2-0.1-0.4-0.1-0.7-0.1c-0.3,0-0.6,0.1-0.9,0.2c-0.3,0.1-0.5,0.3-0.7,0.5c-0.2,0.2-0.3,0.4-0.5,0.7
			C243.3,55.2,243.3,55.5,243.3,55.8z M245.7,54.7c0.2,0,0.4,0,0.5,0.1c0.1,0.1,0.3,0.1,0.4,0.2c0.1,0.1,0.2,0.2,0.3,0.3
			c0.1,0.1,0.1,0.2,0.2,0.2v1.8l-0.4,0c-0.7,0-1.2-0.1-1.5-0.3s-0.5-0.5-0.5-1c0-0.4,0.1-0.7,0.3-0.9
			C245.1,54.8,245.4,54.7,245.7,54.7z M254.1,60.6c0,0-0.1,0.1-0.2,0.1c-0.1,0-0.3,0.1-0.5,0.1c-0.4,0-0.8-0.1-1-0.3
			c-0.2-0.2-0.4-0.5-0.5-0.8v-6h-1.4v8.1h1.3v-1.1h0c0.1,0.2,0.1,0.3,0.2,0.5c0.1,0.2,0.2,0.3,0.3,0.4c0.1,0.1,0.3,0.2,0.5,0.3
			c0.2,0.1,0.4,0.1,0.7,0.1c0.2,0,0.3,0,0.5-0.1c0.1,0,0.2-0.1,0.3-0.1L254.1,60.6z M261.5,58.2c0-0.9-0.1-1.6-0.3-2.2
			c-0.2-0.6-0.5-1.1-0.8-1.4c-0.3-0.4-0.7-0.6-1.2-0.8c-0.5-0.2-0.9-0.2-1.4-0.2c-0.3,0-0.6,0-0.9,0.1c-0.3,0.1-0.5,0.1-0.7,0.2
			c-0.2,0.1-0.4,0.2-0.5,0.3c-0.1,0.1-0.2,0.2-0.3,0.2v11.3l1.4,0.1v-4.7h0c0.1,0.1,0.1,0.2,0.2,0.3c0.1,0.1,0.2,0.2,0.4,0.3
			c0.2,0.1,0.3,0.2,0.6,0.3c0.2,0.1,0.5,0.1,0.7,0.1c0.8,0,1.5-0.3,2-0.9C261.2,60.5,261.5,59.5,261.5,58.2z M260.1,58
			c0,1-0.2,1.8-0.5,2.2c-0.3,0.5-0.7,0.7-1.3,0.7c-0.4,0-0.8-0.1-1-0.3c-0.2-0.2-0.4-0.4-0.6-0.6v-5c0.1-0.1,0.2-0.1,0.4-0.2
			c0.2-0.1,0.4-0.1,0.6-0.1c0.3,0,0.6,0.1,0.9,0.2c0.3,0.1,0.5,0.3,0.7,0.5c0.2,0.3,0.4,0.6,0.5,1C260,56.9,260.1,57.4,260.1,58z
			 M268.4,59.1c0-0.3,0-0.7,0-0.9c0-0.3,0-0.5-0.1-0.7h-4.1c0-1,0.3-1.7,0.6-2.1c0.4-0.5,0.9-0.7,1.6-0.7c0.2,0,0.5,0,0.6,0.1
			c0.2,0.1,0.4,0.1,0.5,0.2c0.1,0.1,0.3,0.2,0.4,0.2c0.1,0.1,0.2,0.1,0.2,0.2l0.5-1c-0.1-0.1-0.1-0.1-0.3-0.2
			c-0.1-0.1-0.3-0.2-0.5-0.3c-0.2-0.1-0.4-0.2-0.7-0.3c-0.3-0.1-0.6-0.1-1-0.1c-0.5,0-1,0.1-1.4,0.3c-0.4,0.2-0.8,0.4-1,0.8
			c-0.3,0.4-0.5,0.8-0.7,1.4c-0.2,0.5-0.2,1.2-0.2,2c0,0.7,0.1,1.3,0.2,1.9c0.2,0.5,0.4,1,0.7,1.3c0.3,0.3,0.6,0.6,1,0.8
			c0.4,0.2,0.8,0.2,1.2,0.2c0.8,0,1.4-0.2,1.8-0.7C268.2,60.8,268.4,60.1,268.4,59.1z M265.9,60.9c-0.5,0-0.9-0.2-1.2-0.6
			c-0.3-0.4-0.5-1-0.5-1.8h3c0,0.1,0,0.1,0,0.2c0,0.1,0,0.2,0,0.3c0,0.6-0.1,1-0.3,1.3C266.6,60.8,266.3,60.9,265.9,60.9z
			 M271.6,53.7h-1.4v8.1h1.4V53.7z M271,63.8c-0.3,0-0.5,0.1-0.7,0.3c-0.2,0.2-0.3,0.4-0.3,0.7c0,0.3,0.1,0.5,0.3,0.7
			c0.2,0.2,0.4,0.3,0.7,0.3c0.3,0,0.5-0.1,0.7-0.3c0.2-0.2,0.3-0.4,0.3-0.7c0-0.3-0.1-0.5-0.3-0.7C271.5,63.9,271.2,63.8,271,63.8z
			 M277.2,60.7h-1.8v-4.5c0-0.6,0.1-1,0.2-1.2c0.1-0.2,0.4-0.3,0.7-0.3c0.2,0,0.4,0,0.5,0.1c0.1,0.1,0.3,0.1,0.3,0.2l0.2-1.1
			c-0.1,0-0.2-0.1-0.4-0.2c-0.2-0.1-0.5-0.1-0.9-0.1c-0.7,0-1.2,0.2-1.6,0.6c-0.3,0.4-0.5,1-0.5,1.9v4.7h-1v0.9l1,0.2l0.2,2.3h1.2
			v-2.3h1.9L277.2,60.7z M89,36.7h-1.3v0.9h0c0-0.1-0.1-0.2-0.2-0.3c-0.1-0.1-0.3-0.3-0.4-0.4c-0.2-0.1-0.4-0.2-0.6-0.3
			c-0.2-0.1-0.5-0.1-0.8-0.1c-0.4,0-0.7,0.1-1,0.2c-0.3,0.1-0.5,0.3-0.7,0.5c-0.2,0.2-0.4,0.5-0.5,0.9c-0.1,0.4-0.2,0.8-0.2,1.4v5.3
			h1.4v-5.2c0-0.7,0.1-1.2,0.3-1.4c0.2-0.3,0.6-0.4,1-0.4c0.4,0,0.7,0.1,1,0.3c0.3,0.2,0.5,0.4,0.6,0.6v6.2H89V36.7z M95.5,36.7v5.2
			c0,0.7-0.1,1.2-0.3,1.5c-0.2,0.3-0.6,0.4-1.1,0.4c-0.4,0-0.7-0.1-1-0.3c-0.3-0.2-0.5-0.4-0.6-0.6v-6.3h-1.4v8.1h1.3v-0.9h0
			c0,0.1,0.1,0.2,0.2,0.3c0.1,0.1,0.3,0.3,0.4,0.4c0.2,0.1,0.4,0.2,0.6,0.3c0.2,0.1,0.5,0.1,0.8,0.1c0.4,0,0.7-0.1,1-0.2
			c0.3-0.1,0.5-0.3,0.7-0.5c0.2-0.2,0.4-0.5,0.5-0.9c0.1-0.4,0.2-0.8,0.2-1.4v-5.3H95.5z M98.5,40.6c0,0.8,0.1,1.5,0.3,2.1
			c0.2,0.6,0.5,1,0.8,1.3c0.3,0.3,0.7,0.6,1.2,0.7c0.4,0.1,0.9,0.2,1.3,0.2c0.3,0,0.5,0,0.7-0.1c0.2,0,0.3-0.1,0.5-0.1v3.9l1.4,0.2
			V36.7h-1.3v0.9h0c0-0.1-0.1-0.2-0.2-0.3c-0.1-0.1-0.2-0.2-0.4-0.4c-0.2-0.1-0.4-0.2-0.6-0.3c-0.2-0.1-0.5-0.1-0.8-0.1
			c-0.4,0-0.7,0.1-1.1,0.2c-0.3,0.2-0.6,0.4-0.9,0.7c-0.3,0.3-0.5,0.8-0.6,1.3C98.6,39.2,98.5,39.9,98.5,40.6z M101.8,37.7
			c0.2,0,0.4,0,0.6,0.1c0.2,0.1,0.3,0.1,0.4,0.2c0.1,0.1,0.2,0.2,0.3,0.3s0.1,0.2,0.2,0.2v5c-0.1,0.1-0.3,0.1-0.4,0.2
			c-0.2,0.1-0.4,0.1-0.6,0.1c-0.3,0-0.6-0.1-0.9-0.2c-0.3-0.1-0.5-0.3-0.7-0.5c-0.2-0.2-0.4-0.6-0.5-1c-0.1-0.4-0.2-0.9-0.2-1.5
			c0-0.6,0-1,0.1-1.4c0.1-0.4,0.2-0.7,0.4-0.9c0.2-0.2,0.4-0.4,0.6-0.5C101.3,37.7,101.5,37.7,101.8,37.7z M116.3,47.2h-4.2v-4h3.8
			V42h-3.8v-4.1h4.6l-0.1-1.2h-6v11.7h5.7L116.3,47.2z M122.8,36.7v5.2c0,0.7-0.1,1.2-0.3,1.5c-0.2,0.3-0.6,0.4-1.1,0.4
			c-0.4,0-0.7-0.1-1-0.3s-0.5-0.4-0.6-0.6v-6.3h-1.4v8.1h1.3v-0.9h0c0,0.1,0.1,0.2,0.2,0.3c0.1,0.1,0.3,0.3,0.4,0.4
			c0.2,0.1,0.4,0.2,0.6,0.3c0.2,0.1,0.5,0.1,0.8,0.1c0.4,0,0.7-0.1,1-0.2c0.3-0.1,0.5-0.3,0.7-0.5c0.2-0.2,0.4-0.5,0.5-0.9
			c0.1-0.4,0.2-0.8,0.2-1.4v-5.3H122.8z M129.7,43.7h-1.8v-4.5c0-0.6,0.1-1,0.2-1.2c0.1-0.2,0.4-0.3,0.7-0.3c0.2,0,0.4,0,0.5,0.1
			c0.1,0.1,0.3,0.1,0.3,0.2l0.2-1.1c-0.1,0-0.2-0.1-0.4-0.2c-0.2-0.1-0.5-0.1-0.9-0.1c-0.7,0-1.2,0.2-1.6,0.6
			c-0.3,0.4-0.5,1-0.5,1.9v4.7h-1v0.9l1,0.2l0.2,2.3h1.2v-2.3h1.9L129.7,43.7z M140.6,44.8l-2.5-8.1h-1.2l-0.8,2.8
			c-0.1,0.4-0.2,0.8-0.3,1.1c-0.1,0.3-0.1,0.7-0.2,1h0c0-0.3-0.1-0.7-0.2-1c-0.1-0.4-0.2-0.7-0.4-1.1l-0.9-2.8h-1.2l-2.6,8.1h1.5
			l1.2-4.6c0.1-0.4,0.2-0.8,0.3-1.2c0.1-0.4,0.1-0.7,0.1-1h0c0,0.3,0.1,0.7,0.2,1c0.1,0.4,0.2,0.7,0.4,1.2l0.9,2.7l-0.6,2h1.4
			l1.2-4.5c0.1-0.5,0.2-0.9,0.3-1.3c0.1-0.4,0.2-0.8,0.2-1h0c0,0.3,0.1,0.6,0.2,1.1c0.1,0.4,0.2,0.8,0.3,1.3l1.2,4.5H140.6z
			 M143.2,36.7h-1.4v8.1h1.4V36.7z M142.5,46.7c-0.3,0-0.5,0.1-0.7,0.3c-0.2,0.2-0.3,0.4-0.3,0.7c0,0.3,0.1,0.5,0.3,0.7
			c0.2,0.2,0.4,0.3,0.7,0.3c0.3,0,0.5-0.1,0.7-0.3s0.3-0.4,0.3-0.7c0-0.3-0.1-0.5-0.3-0.7S142.8,46.7,142.5,46.7z M149.8,43.2
			c0,0-0.1,0.1-0.2,0.2c-0.1,0.1-0.2,0.1-0.3,0.2c-0.1,0.1-0.2,0.1-0.4,0.2c-0.2,0.1-0.3,0.1-0.5,0.1c-0.3,0-0.6-0.1-0.8-0.2
			c-0.3-0.1-0.5-0.3-0.7-0.5c-0.2-0.2-0.3-0.5-0.4-0.9c-0.1-0.4-0.2-0.8-0.2-1.4c0-0.6,0-1.1,0.1-1.5c0.1-0.4,0.2-0.7,0.4-1
			c0.2-0.2,0.4-0.4,0.6-0.5c0.2-0.1,0.5-0.2,0.8-0.2c0.4,0,0.7,0.1,1,0.2c0.2,0.1,0.4,0.3,0.5,0.4l0.6-0.9c-0.1-0.1-0.1-0.1-0.2-0.2
			c-0.1-0.1-0.2-0.2-0.4-0.3c-0.2-0.1-0.4-0.2-0.6-0.2c-0.2-0.1-0.5-0.1-0.8-0.1c-0.5,0-0.9,0.1-1.3,0.2c-0.4,0.1-0.7,0.4-1,0.7
			c-0.3,0.3-0.5,0.8-0.7,1.3c-0.2,0.5-0.3,1.2-0.3,2c0,0.8,0.1,1.4,0.3,2c0.2,0.5,0.5,1,0.8,1.3c0.3,0.3,0.7,0.6,1.1,0.7
			c0.4,0.2,0.8,0.2,1.2,0.2c0.3,0,0.6,0,0.8-0.1c0.2-0.1,0.4-0.1,0.6-0.2c0.2-0.1,0.3-0.2,0.4-0.3c0.1-0.1,0.2-0.2,0.3-0.2
			L149.8,43.2z M154.9,41.1l2.8-4.4h-1.6l-2.3,3.8h-0.6v-3.8h-1.4v12l1.4,0.2v-7.2h0.6l2.2,3.2h1.6L154.9,41.1z M160.3,38.6
			c0-0.3,0-0.6,0.1-0.7c0.1-0.1,0.3-0.2,0.5-0.2c0.1,0,0.2,0,0.3,0s0.1,0,0.2,0.1l0.1-1c-0.1,0-0.2-0.1-0.4-0.1
			c-0.2-0.1-0.4-0.1-0.7-0.1c-0.5,0-0.8,0.1-1.1,0.4c-0.3,0.3-0.4,0.8-0.4,1.5v10.2l1.4,0.2V38.6z M168.5,36.7h-1.3v0.9h0
			c0-0.1-0.1-0.2-0.2-0.3c-0.1-0.1-0.3-0.3-0.4-0.4c-0.2-0.1-0.4-0.2-0.6-0.3s-0.5-0.1-0.8-0.1c-0.4,0-0.7,0.1-1,0.2
			c-0.3,0.1-0.5,0.3-0.7,0.5c-0.2,0.2-0.4,0.5-0.5,0.9c-0.1,0.4-0.2,0.8-0.2,1.4v5.3h1.4v-5.2c0-0.7,0.1-1.2,0.3-1.4
			c0.2-0.3,0.6-0.4,1-0.4c0.4,0,0.7,0.1,1,0.3c0.3,0.2,0.5,0.4,0.6,0.6v6.2h1.4V36.7z M175,36.7v5.2c0,0.7-0.1,1.2-0.3,1.5
			c-0.2,0.3-0.6,0.4-1.1,0.4c-0.4,0-0.7-0.1-1-0.3c-0.3-0.2-0.5-0.4-0.6-0.6v-6.3h-1.4v8.1h1.3v-0.9h0c0,0.1,0.1,0.2,0.2,0.3
			c0.1,0.1,0.3,0.3,0.4,0.4c0.2,0.1,0.4,0.2,0.6,0.3c0.2,0.1,0.5,0.1,0.8,0.1c0.4,0,0.7-0.1,1-0.2c0.3-0.1,0.5-0.3,0.7-0.5
			s0.4-0.5,0.5-0.9c0.1-0.4,0.2-0.8,0.2-1.4v-5.3H175z M184.2,43.7h-1c0.3-0.4,0.4-0.9,0.4-1.5c0-0.4-0.1-0.8-0.2-1.2
			c-0.1-0.3-0.3-0.6-0.6-0.9s-0.6-0.4-0.9-0.5c-0.3-0.1-0.7-0.2-1.1-0.2c-0.1,0-0.2,0-0.2,0c-0.1,0-0.1,0-0.2,0
			c-0.1-0.1-0.3-0.1-0.4-0.3c-0.1-0.1-0.2-0.3-0.2-0.5c0-0.2,0.1-0.3,0.2-0.4c0.1-0.1,0.3-0.2,0.6-0.2h1c0.4,0,0.7,0,1.1-0.1
			c0.3-0.1,0.6-0.2,0.9-0.4c0.2-0.2,0.4-0.4,0.6-0.7s0.2-0.6,0.2-1c0-0.4-0.1-0.8-0.3-1.2c-0.2-0.4-0.4-0.7-0.8-0.9
			c-0.3-0.3-0.8-0.5-1.2-0.6s-1-0.2-1.6-0.2c-0.9,0-1.5,0.2-2,0.6c-0.5,0.4-0.7,0.9-0.7,1.6c0,0.3,0.1,0.6,0.2,0.8
			c0.1,0.2,0.2,0.4,0.4,0.6c0.1,0.2,0.3,0.3,0.4,0.4c0.2,0.1,0.3,0.2,0.4,0.2v0c-0.3,0.3-0.5,0.6-0.5,1.1c0,0.2,0,0.4,0.1,0.6
			c0.1,0.2,0.2,0.3,0.3,0.4c0.1,0.1,0.2,0.2,0.3,0.2c0.1,0.1,0.2,0.1,0.2,0.1v0c-0.4,0.2-0.8,0.5-1,0.9c-0.3,0.4-0.4,0.9-0.4,1.6
			c0,0.5,0.1,0.8,0.2,1.2c0.1,0.3,0.3,0.6,0.6,0.9c0.2,0.2,0.5,0.4,0.9,0.5c0.3,0.1,0.7,0.2,1.1,0.2s0.7-0.1,1.1-0.2h2.5L184.2,43.7
			z M180.5,36.9c-0.2,0-0.4,0-0.6,0.1c-0.1-0.1-0.2-0.1-0.3-0.2c-0.1-0.1-0.2-0.2-0.3-0.3c-0.1-0.1-0.1-0.2-0.2-0.4
			c-0.1-0.2-0.1-0.3-0.1-0.5c0-0.9,0.5-1.3,1.4-1.3c0.8,0,1.4,0.2,1.8,0.5c0.4,0.3,0.6,0.7,0.6,1.1c0,0.4-0.1,0.7-0.4,0.8
			c-0.2,0.2-0.6,0.2-1,0.2H180.5z M182.3,42.3c0,0.6-0.1,1-0.4,1.3c-0.3,0.2-0.6,0.4-1,0.4c-0.4,0-0.7-0.1-1-0.4
			c-0.3-0.2-0.4-0.7-0.4-1.3c0-0.6,0.1-1,0.4-1.3c0.3-0.2,0.6-0.4,1-0.4c0.4,0,0.7,0.1,1,0.4C182.1,41.3,182.3,41.7,182.3,42.3z"/>
	</g>
	<g id="Adler-und-Saeulenelement_00000174577061722138660550000015353452579108969662_">
		<path d="M46.2,32.3c0-0.3,0.1-0.6,0.1-1c0-0.2,0-0.4,0-0.6c2.8,0,5.3-2.1,5.3-4.4c0-1.2-0.8-2.1-1.2-2.6c0.1,0,0.2,0,0.3-0.1
			c0.4,0.4,1.6,1.6,1.6,3.3C52.3,29.6,49.4,32.2,46.2,32.3 M43.4,22.5c-0.1-0.3-0.2-0.6-0.4-0.8c0-0.3,0.1-0.6,0.6-0.3
			c-0.3,0.3-0.1,0.7-0.1,0.7s0.5-0.2,0.4-0.6C44.7,21.6,44.2,22.6,43.4,22.5 M42.7,23.9c-0.1-0.4-0.3-0.9-0.6-1.2
			c-0.3-0.3-0.7-0.6-1.2-0.6c-0.3,0-0.7,0.1-1,0.2c-0.1-0.2-0.3-0.6-0.3-0.8c0-0.2,0.3-0.4,1-0.4c1.5,0,2.3,0.7,2.3,1.8
			C43,23.2,42.9,23.6,42.7,23.9 M46.5,42.8c0.2,0,0.3,0,0.4,0.1c0.4,1.1,2.1,3.3,2.1,3.4l0,0l0,0c0.4-0.1,1.4-0.2,2.3-0.2h0
			c0.1,0,0.2,0,0.3,0.1c0.1,0.1,0.1,0.2,0.1,0.3c0,0.2-0.1,0.6-0.2,0.7c-0.3-0.3-0.8-0.5-1.6-0.5c-0.2,0-0.5,0.1-0.7,0.1l-0.1,0
			l-0.1,0l0.4,0.4c0.7,0.7,1.3,1.3,1.3,1.7c0,0.2-0.2,0.6-0.4,0.7c0-0.7-0.8-1.7-1.5-2.2l-0.1,0l0,0.3c0,0.2,0,0.4,0,0.7
			c0,1.4-0.1,1.6-0.6,1.6c-0.1,0-0.2,0-0.3,0c0.3-0.3,0.4-0.8,0.4-1.5l0-0.4l0-0.3c0-0.3,0-0.6,0.1-0.7l0-0.1l-0.1,0
			c-0.2,0-0.6-0.1-1-0.1c-0.7,0-1.1,0.1-1.5,0.4c-0.2-0.2-0.4-0.5-0.4-0.7c0-0.3,0.2-0.3,0.4-0.3c0.1,0,0.2,0,0.4,0
			c0.3,0,0.7,0.1,1.6,0.1h0.1l0-0.1c-0.2-0.7-0.9-1.6-1.9-2.9C46.1,43,46.2,42.8,46.5,42.8 M37.7,46.2L37.7,46.2L37.7,46.2
			c0.9,0.1,1.4,0,1.7-0.1c0.2,0,0.3,0,0.4,0c0.2,0,0.4,0,0.4,0.3c0,0.2-0.2,0.5-0.4,0.7c-0.3-0.3-0.8-0.4-1.5-0.4
			c-0.3,0-0.7,0.1-1,0.1l0,0l0,0l0,0.1c0,0.2,0.1,0.4,0.1,0.7l0,0.3l0,0.4c0,0.8,0.1,1.2,0.4,1.5c-0.1,0-0.2,0-0.3,0
			c-0.5,0-0.6-0.2-0.6-1.6c0-0.3,0-0.5,0-0.7l0-0.3l-0.1,0c-0.7,0.5-1.5,1.5-1.5,2.2c-0.2-0.1-0.4-0.4-0.4-0.7c0-0.4,0.6-1,1.3-1.7
			l0.4-0.4l0.1-0.1l-0.1,0c-0.1,0-0.4-0.1-0.7-0.1c-0.8,0-1.3,0.1-1.6,0.5c-0.1-0.2-0.2-0.5-0.2-0.7c0-0.1,0-0.2,0.1-0.3
			c0.1-0.1,0.2-0.1,0.3-0.1h0c0.9,0,1.9,0.2,2.3,0.2l0,0l0,0c0.1-0.1,1.7-2.3,2.1-3.4c0.1,0,0.2-0.1,0.4-0.1c0.3,0,0.4,0.2,0.5,0.5
			C38.6,44.6,37.9,45.6,37.7,46.2 M33.3,26.8c0-1.6,1.2-2.9,1.6-3.3c0.1,0,0.2,0,0.3,0.1C34.8,24.1,34,25,34,26.2
			c0,2.4,2.5,4.4,5.4,4.4c0,0.2,0,0.4,0,0.6c0,0.3,0,0.7,0.1,1C36.2,32.3,33.3,29.6,33.3,26.8 M55.1,31.8c1.5,2.3,2.6,2.3,4.3,2.3
			C58,33,57,31.6,56.6,30.8l-2.7-4.3c-0.3-1.3-0.9-2.5-2-3.5c0.3-0.1,0.6-0.3,0.8-0.4c-1.7,0-3.5-0.9-4.4-0.9c-0.6,0-1,0.4-1,0.8
			c0,0.5,0.6,1.1,1.6,1.1c0.2,0,0.5,0,0.9-0.1c0.6,0.8,1,1.5,1,2.5c0,1.9-2.2,3.3-4.5,3.3c-0.1,0-0.2,0-0.4,0
			c-0.2-0.5-0.9-1.2-0.9-2.1c0-1.5,1-2.7,1-4.2c0-0.9-0.4-1.5-0.6-1.7c0.3-0.3,0.6-0.6,0.6-0.8c-0.2,0.1-0.4,0.1-0.6,0.1
			c-1.1,0-2-0.3-2.8-0.3c-0.5,0-0.6,0.2-0.6,0.3c0,0.1,0,0.1,0,0.1c-0.2-0.1-0.4-0.1-0.6-0.2c-0.3,0-0.5-0.1-0.8-0.1
			c-1,0-1.4,0.4-1.4,0.8c0,0.3,0.2,0.9,0.5,1.3c0.4-0.2,0.9-0.3,1.1-0.3c0.6,0,1,0.5,1.3,1.1c-0.4,0-0.4,0.1-0.8,0.1
			c-1,0-1.7-0.4-1.8-0.4c0,0,0,0,0,0c0,0.1,0.3,0.5,0.9,0.7c0.7,0.3,1.9,0.4,2.1,0.4c0,0-0.2,0.4-0.4,0.5c0,0-0.1,0-0.1,0
			c-0.8-0.2-1-0.2-2-0.6c0,0,0,0,0,0c0,0.4,1,1.3,1.9,1.6c-0.8,1-1.7,2-2.1,3.5c-0.1,0-0.2,0-0.4,0c-2.2,0-4.5-1.5-4.5-3.3
			c0-1,0.4-1.7,1-2.5c0.3,0.1,0.6,0.1,0.9,0.1c1,0,1.6-0.5,1.6-1.1c0-0.5-0.4-0.8-1-0.8c-0.9,0-2.7,0.9-4.4,0.9
			c0.2,0.1,0.5,0.3,0.8,0.4c-1,0.9-1.7,2.1-2,3.5L29,30.8c-0.4,0.7-1.4,2.1-2.8,3.2c1.7,0,2.9,0,4.3-2.3l1.4-2.2
			c0.1,0.3,0.2,0.6,0.4,0.8l-2.7,4.3c-0.5,0.7-1.4,2.1-2.8,3.2c1.7,0,2.9,0,4.3-2.3l2.3-3.7c0.2,0.2,0.4,0.4,0.6,0.5l-3.3,5.3
			c-0.5,0.7-1.4,2.1-2.8,3.2c1.7,0,2.9,0,4.3-2.3l3.2-5.1c0.2,0.1,0.4,0.3,0.7,0.4l-3.9,6.3c-0.5,0.7-1.4,2.1-2.8,3.2
			c1.7,0,2.9,0,4.3-2.3l4-6.5c0.2,0.1,0.5,0.2,0.7,0.3l-4.6,7.3c-0.4,0.7-1.4,2.1-2.8,3.2c1.7,0,2.9,0,4.3-2.3l4.9-7.8
			c0,0,0.1,0,0.1,0c0.1,0.4,0.2,0.8,0.2,1.2c0,2.4-1.6,4.6-3.5,6.3c0.1,0.1,0.3,0.1,0.5,0.1c0.4,0,0.7,0,0.8-0.1
			c-0.4,1-1.4,2.3-1.9,3c-0.6-0.1-1.5-0.2-2.1-0.2c-0.6,0-0.7,0.4-0.7,0.7c0,0.6,0.3,1,0.6,1.3c0.1-0.3,0.4-0.7,1.5-0.7
			c0,0,0.1,0,0.1,0c-0.3,0.4-1.4,1.2-1.4,1.9c0,0.5,0.5,1.1,1.2,1.1c0-0.1,0-0.3,0-0.4c0-0.6,0.5-1.2,0.9-1.7c0,0.1,0,0.1,0,0.3
			c0,1.3,0.1,1.9,1,1.9c0.4,0,0.7-0.2,0.8-0.3c-0.5-0.5-0.6-0.9-0.6-1.6c0-0.2,0-0.4,0-0.6c0-0.2,0-0.4,0-0.6c0.3,0,0.4,0,0.7,0
			c0,0,1.2-0.1,1.5,0.5c0.3-0.3,0.8-0.7,0.8-1.2c0-0.3-0.1-0.7-0.8-0.7c-0.2,0-1,0.1-1.6,0.1c0.2-0.4,0.9-1.4,1.5-2.2
			c0.1,0.3,0.2,0.6,0.6,0.9c0-0.5,0.3-2.1,1.1-3c0.1,0.6,0.2,1.3,0.2,2.6c0,3.3-0.8,5.7-2.5,6.2c0.2,0.4,0.7,0.7,1.2,0.7
			c0.6,0,0.9-0.7,1.3-1.4c0.2,0.5,0.7,1.7,1.2,1.7s1-1.2,1.2-1.7c0.3,0.7,0.7,1.4,1.3,1.4c0.5,0,0.9-0.3,1.2-0.7
			c-1.7-0.5-2.5-2.9-2.5-6.2c0-1.4,0.1-2,0.2-2.6c0.8,0.9,1.1,2.5,1.1,3c0.3-0.3,0.5-0.6,0.6-0.9c0.6,0.8,1.4,1.8,1.5,2.2
			c-0.6,0-1.3-0.1-1.6-0.1c-0.6,0-0.8,0.3-0.8,0.7c0,0.5,0.5,0.9,0.8,1.2c0.3-0.6,1.5-0.5,1.5-0.5c0.2,0,0.4,0,0.7,0
			c0,0.2,0,0.4,0,0.6c0,0.3,0,0.4,0,0.6c0,0.7,0,1.1-0.6,1.6c0.1,0.1,0.4,0.3,0.8,0.3c0.8,0,1-0.6,1-1.9c0-0.2,0-0.1,0-0.3
			c0.4,0.5,0.9,1.1,0.9,1.7c0,0.1,0,0.2,0,0.4c0.7,0,1.2-0.7,1.2-1.1c0-0.7-1.1-1.5-1.4-1.9c0.1,0,0.1,0,0.1,0
			c1.2,0,1.4,0.4,1.5,0.7c0.3-0.3,0.6-0.7,0.6-1.3c0-0.3-0.1-0.7-0.7-0.7c-0.6,0-1.5,0.1-2.1,0.2c-0.5-0.7-1.4-2-1.9-3
			c0.2,0,0.4,0.1,0.8,0.1c0.2,0,0.4,0,0.5-0.1c-1.9-1.7-3.5-3.8-3.5-6.3c0-0.4,0.1-0.8,0.2-1.2c0,0,0.1,0,0.1,0l4.9,7.8
			c1.5,2.3,2.6,2.3,4.3,2.3c-1.4-1.1-2.4-2.5-2.8-3.2L47.2,35c0.2-0.1,0.5-0.2,0.7-0.3l4,6.5c1.5,2.3,2.6,2.3,4.3,2.3
			c-1.4-1.1-2.4-2.5-2.8-3.2L49.6,34c0.2-0.1,0.4-0.3,0.6-0.4l3.2,5.1C54.9,41,56,41,57.8,41c-1.4-1.1-2.4-2.5-2.8-3.2l-3.3-5.3
			c0.2-0.2,0.4-0.4,0.6-0.5l2.3,3.7C56,38,57.1,38,58.9,38c-1.4-1.1-2.4-2.5-2.8-3.2l-2.7-4.3c0.1-0.3,0.3-0.5,0.4-0.8L55.1,31.8z"
			/>
		<path d="M73,50.3h-5V21.8h5V50.3z"/>
		<path class="st0" d="M73,78.7h-5V50.3h5V78.7z"/>
		<path class="st1" d="M73,107.1h-5V78.7h5V107.1z"/>
	</g>
</g>
</svg>
