<svg viewBox="0 0 315 129" xmlns="http://www.w3.org/2000/svg"><g fill="none" fill-rule="evenodd"><path d="m0 0h315v129h-315z" fill="#fff"/><g fill="#8e3749" transform="translate(11 25)"><path d="m45.10744 22.344c0 2.86748 1.25832 5.8996 4.84904 5.8996 3.2242 0 4.5374-3.03212 4.5374-5.8996 0-2.86552-1.3132-5.8996-4.5374-5.8996-3.59072 0-4.84904 3.03408-4.84904 5.8996"/><path d="m40.15452 22.344c0 2.86748-1.31712 5.8996-4.53152 5.8996-3.5966 0-4.85296-3.03212-4.85296-5.8996 0-3.13404 1.12308-5.8996 4.85296-5.8996 3.2144 0 4.53152 3.03408 4.53152 5.8996zm-11.12692 9.7804 1.6856.00196.00588-5.48604h.05292c.72324 1.98156 2.73812 3.02624 4.80396 3.02624 4.20224 0 6.20928-3.40844 6.20928-7.32256 0-3.91216-2.00704-7.31668-6.20928-7.31668-2.23048 0-4.15912 1.15248-4.93528 3.0282h-.0588v-2.62836h-1.55428zm-3.42608-9.7804c0 2.86748-1.31712 5.8996-4.52956 5.8996-3.59268 0-4.85492-3.03212-4.85492-5.8996 0-2.86552 1.26224-5.8996 4.85492-5.8996 3.21244 0 4.52956 3.03408 4.52956 5.8996zm-10.96032 6.91292h1.55232v-2.6166h.05488c.77812 1.87376 2.70872 3.02624 4.93528 3.02624 4.20812 0 6.21712-3.40844 6.21712-7.32256 0-3.91216-2.009-7.31668-6.21712-7.31668-2.06388 0-4.0768 1.04468-4.79808 3.0282h-.05684v-5.22536h-1.68756zm35.31528.40964c-2.22656 0-4.15912-1.15248-4.9294-3.02624h-.05488v2.6166h-1.56016v-16.42676h1.6954v5.22536h.05684c.71148-1.98352 2.7244-3.0282 4.7922-3.0282 1.2152 0 2.2442.28812 3.09288.78204-4.29044-8.94544-13.43776-15.12336-24.02372-15.12336-14.70392 0-26.62268 11.9168-26.62268 26.61876 0 14.7098 11.91876 26.62856 26.62268 26.62856s26.62268-11.91876 26.62268-26.62856c0-.52724-.0196-1.05644-.04508-1.5778-.86044 2.303-2.72636 3.9396-5.64676 3.9396z"/><path d="m65.94616 57.15556c0 1.69932-.67032 3.37708-2.63032 3.37708-1.97176 0-2.74792-1.59348-2.74792-3.30456 0-1.6464.73892-3.29476 2.64796-3.29476 1.86788 0 2.73028 1.58368 2.73028 3.22224zm-6.74828 7.7812h1.42296v-4.50604h.03528c.63504 1.03096 1.91296 1.3622 2.80868 1.3622 2.68128 0 3.99644-2.07564 3.99644-4.5374s-1.33084-4.58836-4.02192-4.58836c-1.20344 0-2.31672.41748-2.7832 1.3818h-.03528v-1.1858h-1.42296z"/><path d="m68.66076 57.23984c0 2.54016 1.46804 4.55308 4.22184 4.55308 2.78712 0 4.25712-2.01292 4.25712-4.55308 0-2.5676-1.47-4.57268-4.25712-4.57268-2.7538 0-4.22184 2.00508-4.22184 4.57268zm1.52488 0c0-2.1364 1.20344-3.30652 2.69696-3.30652 1.5092 0 2.73028 1.17012 2.73028 3.30652 0 2.10896-1.22108 3.2928-2.73028 3.2928-1.49352 0-2.69696-1.18384-2.69696-3.2928z"/><path d="m79.06836 61.59104h1.4308v-12.04616h-1.4308z"/><path d="m82.98444 61.59104h1.42492v-8.72984h-1.42492zm0-10.29784h1.42492v-1.75028h-1.42492z"/><path d="m88.79976 50.2446h-1.43472v2.61856h-1.49744v1.2642h1.49744v5.56052c0 1.60916.58996 1.90316 2.06976 1.90316h1.1074v-1.2642h-.67816c-.88788 0-1.06428-.1176-1.06428-.7742v-5.42528h1.74244v-1.2642h-1.74244z"/><path d="m92.38656 61.59104h1.41316v-8.72984h-1.41316zm0-10.29784h1.41316v-1.75028h-1.41316z"/><path d="m95.63232 58.8392c.09212 2.16972 1.74244 2.95372 3.7044 2.95372 1.75616 0 3.71224-.67032 3.71224-2.74596 0-1.6856-1.42296-2.16384-2.84788-2.48136-1.34456-.31948-2.85768-.4998-2.85768-1.5288 0-.87612 1.00744-1.10348 1.862-1.10348.9506 0 1.90708.35084 2.01488 1.46804h1.4504c-.11956-2.13444-1.666-2.7342-3.5868-2.7342-1.53272 0-3.25556.7252-3.25556 2.47744 0 1.66992 1.421 2.15012 2.8518 2.46372 1.4406.31948 2.83808.50568 2.83808 1.6268 0 1.09172-1.20148 1.29752-2.09328 1.29752-1.17992 0-2.303-.40376-2.352-1.69344z"/><path d="m112.20608 55.664c-.20972-2.06584-1.79144-2.99684-3.76712-2.99684-2.77144 0-4.1062 2.058-4.1062 4.6746 0 2.59112 1.42688 4.45116 4.07288 4.45116 2.20696 0 3.52408-1.26028 3.84748-3.38492h-1.4602c-.18032 1.30928-1.0094 2.12464-2.40296 2.12464-1.8228 0-2.54212-1.59348-2.54212-3.19088 0-1.76988.64288-3.40844 2.71852-3.40844 1.18188 0 1.92864.63896 2.16188 1.73068z"/><path d="m114.0426 61.59104h1.42492v-4.92744c0-1.57192.83496-2.73028 2.57936-2.73028 1.09564 0 1.76596.69384 1.76596 1.7542v5.90352h1.45432v-5.73888c0-1.87376-.73108-3.185-3.01644-3.185-1.05644 0-2.28536.42924-2.74792 1.4798h-.03528v-4.60208h-1.42492z"/><path d="m129.60108 58.8196c-.25676 1.13288-1.0878 1.71304-2.25792 1.71304-1.90316 0-2.7832-1.35044-2.73028-2.87336h6.53464c.08036-2.10308-.8526-4.99212-3.94744-4.99212-2.37944 0-4.08856 1.92276-4.08856 4.5374.0784 2.66168 1.38376 4.58836 4.17676 4.58836 1.96784 0 3.33984-1.04664 3.72596-2.97332zm-4.9882-2.42452c.09212-1.34064 1.00352-2.46176 2.499-2.46176 1.41708 0 2.45784 1.09172 2.5284 2.46176z"/><path d="m139.64608 56.0658h3.68284c1.35436 0 2.61072.4508 2.61072 2.01684 0 1.31712-.87612 2.16384-2.26184 2.16384h-4.03172zm-1.58368 5.52524h5.80552c2.40884 0 3.6652-1.68756 3.6652-3.45352 0-1.48568-.80556-2.60484-2.28732-2.9106v-.0392c1.11132-.4508 1.78556-1.4112 1.78556-2.69108 0-1.18776-.62524-2.04428-1.41316-2.51468-.72324-.43708-2.14032-.43708-3.19284-.43708h-4.36296zm1.58368-10.69964h3.22028c1.38572 0 2.5676.23912 2.5676 1.90708 0 1.26616-.73892 1.92668-2.5676 1.92668h-3.22028z"/><path d="m149.62248 61.59104h1.43864v-8.72984h-1.43864zm0-10.29784h1.43864v-1.75028h-1.43864z"/><path d="m153.53464 61.59104h1.43276v-12.04616h-1.43276z"/><path d="m164.98888 49.54488h-1.42884v4.48252h-.0294c-.65856-1.02508-1.9306-1.36024-2.82632-1.36024-2.66756 0-3.98076 2.06976-3.98076 4.5374 0 2.46568 1.31712 4.58836 4.01212 4.58836 1.19756 0 2.30692-.41748 2.79496-1.37788h.0294v1.176h1.42884zm-6.75808 7.76552c0-1.71108.65856-3.37708 2.61856-3.37708 1.97176 0 2.76752 1.58368 2.76752 3.30652 0 1.6366-.76048 3.2928-2.67932 3.2928-1.86004 0-2.70676-1.59348-2.70676-3.22224z"/><path d="m174.58112 52.86316h-1.4308v4.93332c0 1.57192-.83888 2.73616-2.58524 2.73616-1.0976 0-1.76008-.69776-1.76008-1.764v-5.90548h-1.43472v5.7428c0 1.8718.70364 3.18696 2.98116 3.18696 1.27008 0 2.25204-.49588 2.85572-1.58368h.03136v1.3818h1.3426z"/><path d="m176.90568 61.59104h1.4308v-4.92744c0-1.57192.85848-2.73028 2.59112-2.73028 1.0878 0 1.76988.69384 1.76988 1.7542v5.90352h1.4308v-5.73888c0-1.87376-.6958-3.185-3.00468-3.185-1.23676 0-2.21284.50176-2.84396 1.57976h-.03136v-1.38376h-1.3426z"/><path d="m189.96712 60.43072c-1.89532 0-2.46568-1.75812-2.46568-3.32808 0-1.66992.73108-3.16932 2.57544-3.16932 1.81496 0 2.4892 1.58368 2.4892 3.11052 0 1.6464-.70756 3.38688-2.59896 3.38688zm4.01604-7.56756h-1.36416v1.24656h-.02548.01176c-.51744-.96236-1.50136-1.44256-2.58916-1.44256-3.02428 0-4.04152 2.54212-4.04152 4.606 0 2.37552 1.3132 4.41784 3.9004 4.41784 1.1074 0 2.25008-.51352 2.71852-1.58564h.02548v.57624c0 1.95216-.72716 3.30848-2.60288 3.30848-.94864 0-2.205-.37632-2.26576-1.41708h-1.43276c.08232 1.90708 1.96392 2.5676 3.61424 2.5676 2.74204 0 4.05132-1.4602 4.05132-4.29436z"/><path d="m60.80116 39.19804h3.65932c1.35632 0 2.6068.441 2.6068 2.009 0 1.3132-.85456 2.16384-2.254 2.16384h-4.01212zm-1.60132 5.52132h5.8114c2.40492 0 3.66128-1.68756 3.66128-3.46136 0-1.4896-.7938-2.60288-2.303-2.90472v-.03332c1.13876-.4606 1.80908-1.421 1.80908-2.69892 0-1.18384-.62524-2.04624-1.43668-2.52448-.71148-.42728-2.10896-.42728-3.18108-.42728h-4.361zm1.60132-10.70552h3.20852c1.37396 0 2.55976.23912 2.55976 1.90316 0 1.27596-.735 1.92668-2.55976 1.92668h-3.20852z"/><path d="m77.72576 35.98168h-1.42884v4.9392c0 1.56996-.83692 2.7244-2.57544 2.7244-1.10348 0-1.7738-.686-1.7738-1.7444v-5.9192h-1.44648v5.7428c0 1.87768.71148 3.19872 3.00076 3.19872 1.24852 0 2.23244-.51156 2.842-1.59152h.0294v1.38768h1.3524z"/><path d="m80.05228 44.71936h1.42492v-4.93724c0-1.5582.84476-2.72244 2.5872-2.72244 1.09564 0 1.77184.68796 1.77184 1.74636v5.91332h1.44844v-5.74084c0-1.87376-.71344-3.18892-3.01644-3.18892-1.24068 0-2.2442.50764-2.842 1.58564h-.0294v-1.39356h-1.34456z"/><path d="m97.39436 32.66928h-1.4406v4.4884h-.02156c-.64288-1.03096-1.9404-1.36808-2.8322-1.36808-2.65384 0-3.9788 2.06976-3.9788 4.53936 0 2.46372 1.34848 4.59424 4.01212 4.59424 1.21324 0 2.32456-.42532 2.79888-1.38964h.02156v1.1858h1.4406zm-6.74632 7.7616c0-1.70912.65464-3.3712 2.60876-3.3712 1.97764 0 2.74792 1.58172 2.74792 3.30456 0 1.64248-.73108 3.28104-2.67148 3.28104-1.8424 0-2.6852-1.5778-2.6852-3.2144z"/><path d="m105.791 41.95184c-.26852 1.12504-1.07996 1.69344-2.2638 1.69344-1.9012 0-2.76752-1.34456-2.71656-2.86944h6.53464c.0882-2.0972-.8624-4.98624-3.95528-4.98624-2.36964 0-4.09248 1.91884-4.09248 4.53936.08428 2.67148 1.39356 4.59424 4.17676 4.59424 1.95216 0 3.34572-1.04468 3.73184-2.97136zm-4.98036-2.43432c.10192-1.33476.98588-2.45784 2.51076-2.45784 1.40924 0 2.45392 1.09368 2.51076 2.45784z"/><path d="m108.43112 41.96556c.08428 2.16776 1.73852 2.95764 3.70244 2.95764 1.77184 0 3.70832-.6762 3.70832-2.74988 0-1.69736-1.4112-2.15796-2.85964-2.4892-1.31908-.31948-2.84396-.48608-2.84396-1.5092 0-.882.9996-1.11524 1.85024-1.11524.94472 0 1.93648.34888 2.04428 1.4602h1.43472c-.10976-2.11876-1.666-2.73028-3.59072-2.73028-1.51116 0-3.26144.7252-3.26144 2.4794 0 1.67972 1.4504 2.14228 2.86356 2.4598 1.4308.33124 2.8518.51352 2.8518 1.62484 0 1.09368-1.23284 1.29164-2.12072 1.29164-1.17208 0-2.28536-.38808-2.33436-1.67972z"/><path d="m116.8846 44.71936h7.36568v-1.27204h-5.57032l5.32728-6.48368v-.98196h-6.78552v1.27596h4.93724l-5.27436 6.35628z"/><path d="m131.8786 41.95184c-.25284 1.12504-1.0682 1.69344-2.23832 1.69344-1.91884 0-2.77928-1.34456-2.71852-2.86944h6.53072c.08036-2.0972-.86828-4.98624-3.94352-4.98624-2.39904 0-4.10816 1.91884-4.10816 4.53936.0882 2.67148 1.39356 4.59424 4.18852 4.59424 1.9404 0 3.33396-1.04468 3.72204-2.97136zm-4.95684-2.43432c.09604-1.33476.98784-2.45784 2.48724-2.45784 1.42884 0 2.4402 1.09368 2.51272 2.45784z"/><path d="m135.09496 44.71936h1.4308v-4.93724c0-1.5582.84672-2.72244 2.58916-2.72244 1.0976 0 1.76792.68796 1.76792 1.74636v5.91332h1.43864v-5.74084c0-1.87376-.71148-3.18892-3.02428-3.18892-1.23284 0-2.20892.50764-2.8126 1.58564h-.04312v-1.39356h-1.34652z"/><path d="m146.6276 33.3788h-1.4308v2.60288h-1.49352v1.27596h1.49352v5.55464c0 1.59936.58212 1.90708 2.06388 1.90708h1.10936v-1.27204h-.67032c-.8918 0-1.07212-.11564-1.07212-.7742v-5.41548h1.74244v-1.27596h-1.74244z"/><path d="m150.24576 44.71936h1.42492v-3.88864c0-2.205.84672-3.52212 3.14972-3.52212v-1.519c-1.54644-.05292-2.51076.63896-3.21048 2.03644h-.02744v-1.84436h-1.33672z"/><path d="m161.2982 41.67548c0 .7938-.77028 1.9698-2.6656 1.9698-.88396 0-1.68364-.32732-1.68364-1.27596 0-1.0584.79968-1.39944 1.74244-1.57388.98-.16268 2.05604-.18032 2.6068-.58604zm2.33828 1.8914c-.19404.06468-.32144.0784-.44688.0784-.46452 0-.46452-.29204-.46452-.97216v-4.49036c0-2.03644-1.6954-2.39316-3.25752-2.39316-1.94432 0-3.61228.76048-3.69264 2.91648h1.41904c.0686-1.28184.96824-1.6464 2.1854-1.6464.9114 0 1.94236.19796 1.94236 1.4504 0 1.078-1.3524.97412-2.94784 1.27204-1.47784.29596-2.95568.71736-2.95568 2.68716 0 1.74244 1.3132 2.45392 2.88708 2.45392 1.23284 0 2.28732-.42532 3.08504-1.35632 0 .94276.46256 1.35632 1.20148 1.35632.4606 0 .78792-.0784 1.04468-.24304z"/><path d="m165.20644 44.71936h1.43472v-12.05008h-1.43472z"/><path d="m175.07112 41.95184c-.2646 1.12504-1.08584 1.69344-2.26968 1.69344-1.90904 0-2.77536-1.34456-2.72636-2.86944h6.53856c.08428-2.0972-.8526-4.98624-3.9494-4.98624-2.3814 0-4.0964 1.91884-4.0964 4.53936.07644 2.67148 1.38964 4.59424 4.17676 4.59424 1.96392 0 3.35356-1.04468 3.73184-2.97136zm-4.99604-2.43432c.10388-1.33476 1.00352-2.45784 2.51272-2.45784 1.40532 0 2.45 1.09368 2.50684 2.45784z"/><path d="m183.87544 44.71936h1.43668v-7.46172h1.67972v-1.27596h-1.67972v-1.20736c0-.76048.40572-.97804 1.08976-.97804.26068 0 .56448.0294.82712.1176v-1.2446c-.2744-.08232-.6566-.13916-.93688-.13916-1.56996 0-2.41668.7448-2.41668 2.15796v1.2936h-1.47196v1.27596h1.47196z"/><path d="m192.8836 34.72728h1.53468v-1.75812h-1.53468zm-3.17716 0h1.52684v-1.75812h-1.52684zm5.9682 1.2544h-1.44256v4.9392c0 1.56996-.85064 2.7244-2.5774 2.7244-1.0976 0-1.77184-.686-1.77184-1.7444v-5.9192h-1.43864v5.7428c0 1.87768.71148 3.19872 3.0086 3.19872 1.24264 0 2.2246-.51156 2.82828-1.59152h.049v1.38768h1.34456z"/><path d="m197.94432 44.71936h1.43668v-3.88864c0-2.205.83692-3.52212 3.14972-3.52212v-1.519c-1.55036-.05292-2.51076.63896-3.2046 2.03644h-.03332v-1.84436h-1.34848z"/><path d="m59.15476 19.30796h2.88316v-2.86944h-2.88316z"/><path d="m59.15476 29.25496h2.88316v-2.87336h-2.88316z"/></g></g></svg>
