<svg enable-background="new 0 0 315 129" viewBox="0 0 315 129" xmlns="http://www.w3.org/2000/svg"><path d="m45.3 31.9c0-.3.1-.7.1-1 0-.2 0-.4 0-.6 2.8 0 5.3-2.1 5.3-4.5 0-1.2-.8-2.1-1.2-2.6.1 0 .2 0 .3-.1.4.4 1.6 1.7 1.6 3.3-.1 2.8-2.9 5.5-6.1 5.5m-2.9-9.8c-.1-.3-.2-.6-.4-.8 0-.3.1-.6.6-.3-.3.3-.1.7-.1.7s.5-.2.4-.6c.8.1.3 1.1-.5 1m-.7 1.4c-.1-.4-.3-.9-.6-1.2s-.7-.7-1.2-.7c-.3 0-.7.1-1 .2-.1-.2-.3-.6-.3-.8s.4-.4 1-.4c1.5 0 2.4.7 2.4 1.8 0 .4-.1.8-.3 1.1m3.8 19c.2 0 .3 0 .4.1.4 1.2 2.1 3.3 2.1 3.4.4-.1 1.4-.2 2.3-.2.1 0 .2 0 .3.1s.1.2.1.3c0 .2-.1.6-.2.7-.3-.3-.8-.5-1.6-.5-.2 0-.5.1-.7.1h-.1-.1l.5.5c.7.7 1.3 1.3 1.3 1.7 0 .2-.2.6-.4.7 0-.7-.8-1.7-1.5-2.3h-.1v.3.7c0 1.4-.1 1.6-.6 1.6-.1 0-.2 0-.3 0 .3-.3.4-.8.4-1.6v-.4-.3c0-.3 0-.6.1-.7v-.1h-.1c-.2 0-.6-.1-1-.1-.7 0-1.2.1-1.5.4-.2-.2-.5-.5-.5-.7 0-.3.2-.3.4-.3h.4c.3 0 .7.1 1.7.1h.1v-.1c-.2-.7-.9-1.6-1.9-2.9.1-.3.2-.5.5-.5m-8.8 3.5c1 .1 1.4 0 1.7-.1h.4c.2 0 .4 0 .4.3 0 .2-.2.5-.5.7-.3-.3-.8-.4-1.5-.4-.3 0-.7.1-1 .1v.1c0 .2.1.4.1.7v.3.4c0 .8.1 1.2.4 1.6-.1 0-.2 0-.3 0-.5 0-.6-.2-.6-1.6 0-.3 0-.5 0-.7v-.3h-.1c-.7.5-1.5 1.5-1.5 2.3-.2-.1-.5-.5-.5-.7 0-.4.6-1 1.3-1.7l.4-.4.1-.1h-.1c-.2 0-.4-.1-.7-.1-.8 0-1.3.1-1.6.5-.1-.2-.2-.5-.2-.7 0-.1 0-.2.1-.3s.2-.1.3-.1c.9 0 1.9.2 2.3.2.1-.1 1.7-2.3 2.1-3.4.1 0 .2-.1.4-.1.3 0 .4.2.5.6-1 1.2-1.7 2.2-1.9 2.9m-4.4-19.6c0-1.6 1.2-2.9 1.6-3.3.1 0 .2 0 .3.1-.4.5-1.2 1.4-1.2 2.6 0 2.4 2.5 4.5 5.4 4.5v.6c0 .4 0 .7.1 1-3.4 0-6.2-2.6-6.2-5.5m21.9 5c1.5 2.3 2.6 2.3 4.3 2.3-1.4-1.1-2.4-2.5-2.8-3.2l-2.7-4.3c-.3-1.3-.9-2.6-2-3.5.3-.1.6-.3.8-.4-1.7 0-3.5-.9-4.4-.9-.6 0-1 .4-1 .8 0 .5.6 1.1 1.6 1.1.2 0 .5 0 .9-.1.6.8 1 1.5 1 2.5 0 1.9-2.2 3.3-4.5 3.3-.1 0-.3 0-.4 0-.2-.5-.9-1.2-.9-2.1 0-1.5 1-2.7 1-4.2 0-.9-.4-1.5-.6-1.7.3-.3.6-.6.7-.8-.2.1-.4.1-.6.1-1.1 0-2-.3-2.8-.3-.5 0-.6.2-.6.3v.1c-.2-.1-.4-.1-.6-.2-.3 0-.5-.1-.8-.1-1 0-1.4.4-1.4.8 0 .3.3.9.5 1.3.4-.2.9-.3 1.1-.3.6 0 1 .5 1.3 1.2-.4 0-.4.1-.8.1-1 0-1.7-.4-1.9-.4 0 .1.3.5.9.7.8.3 1.9.4 2.1.4 0 0-.2.4-.4.5h-.1c-.8-.2-1-.2-2-.6 0 .4 1 1.3 1.9 1.6-.8 1-1.7 2-2.2 3.5-.1 0-.3 0-.4 0-2.3 0-4.5-1.5-4.5-3.3 0-1 .4-1.7 1-2.5.3.1.6.1.9.1 1 0 1.6-.5 1.6-1.1 0-.5-.4-.8-1-.8-1 0-2.7.9-4.4.9.2.1.5.3.8.4-1 .9-1.7 2.2-2 3.5l-2.7 4.3c-.5.7-1.4 2.1-2.8 3.2 1.7 0 2.9 0 4.3-2.3l1.4-2.2c.1.3.2.6.4.8l-2.7 4.4c-.5.7-1.4 2.1-2.8 3.2 1.7 0 2.9 0 4.3-2.3l2.3-3.8c.2.2.4.4.6.5l-3.3 5.3c-.5.7-1.4 2.1-2.8 3.2 1.7 0 2.9 0 4.3-2.3l3.2-5.2c.2.1.4.3.7.4l-4.2 6.6c-.5.7-1.4 2.1-2.8 3.2 1.7 0 2.9 0 4.3-2.3l4.1-6.5c.2.1.5.2.7.3l-4.6 7.4c-.4.7-1.4 2.1-2.8 3.2 1.7 0 2.9 0 4.3-2.3l4.9-7.8h.1c.1.4.2.8.2 1.2 0 2.5-1.6 4.6-3.5 6.3.1.1.3.1.5.1.4 0 .7 0 .8-.1-.4 1-1.4 2.3-1.9 3-.6-.1-1.6-.2-2.2-.2s-.7.4-.7.7c0 .6.3 1 .6 1.3.1-.3.4-.7 1.5-.7h.1c-.3.4-1.4 1.2-1.4 1.9 0 .5.5 1.2 1.2 1.2 0-.1 0-.3 0-.4 0-.6.5-1.2.9-1.7v.3c0 1.3.1 1.9 1 1.9.4 0 .7-.2.8-.3-.5-.5-.6-.9-.6-1.6 0-.2 0-.4 0-.6s0-.4 0-.6h.7s1.2-.1 1.5.5c.3-.3.8-.7.8-1.2 0-.3-.1-.7-.8-.7-.2 0-1 .1-1.6.1.2-.4.9-1.4 1.5-2.2.1.3.2.6.6.9 0-.5.3-2.1 1.1-3 .1.6.2 1.3.2 2.6 0 3.3-.8 5.8-2.5 6.2.2.4.7.7 1.2.7.6 0 1-.7 1.3-1.4.2.5.7 1.7 1.2 1.7s1-1.2 1.2-1.7c.3.7.7 1.4 1.3 1.4.5 0 .9-.3 1.2-.7-1.7-.5-2.5-2.9-2.5-6.2 0-1.4.1-2 .2-2.6.8.9 1.1 2.5 1.1 3 .3-.3.5-.6.6-.9.6.8 1.4 1.9 1.5 2.2-.6 0-1.4-.1-1.6-.1-.6 0-.8.3-.8.7 0 .5.5.9.8 1.2.3-.6 1.5-.5 1.5-.5h.7v.6.6c0 .7 0 1.1-.6 1.6.1.1.4.3.8.3.8 0 1-.6 1-1.9 0-.2 0-.1 0-.3.4.5.9 1.1.9 1.7v.4c.7 0 1.2-.7 1.2-1.2 0-.7-1.1-1.6-1.4-1.9h.1c1.2 0 1.4.4 1.5.7.3-.3.6-.7.6-1.3 0-.3-.1-.7-.7-.7s-1.5.1-2.2.2c-.5-.7-1.4-2-1.9-3 .2 0 .4.1.8.1.2 0 .4 0 .5-.1-1.9-1.7-3.5-3.8-3.5-6.3 0-.4.1-.8.2-1.2h.1l4.9 7.8c1.5 2.3 2.6 2.3 4.3 2.3-1.4-1.1-2.4-2.5-2.8-3.2l-4.6-7.3c.2-.1.5-.2.7-.3l4.1 6.5c1.5 2.3 2.6 2.3 4.3 2.3-1.2-1.2-2.2-2.5-2.6-3.3l-3.9-6.3c.2-.1.4-.3.7-.4l3.2 5.2c1.5 2.3 2.6 2.3 4.3 2.3-1.4-1.1-2.4-2.5-2.8-3.2l-3.3-5.3c.2-.2.4-.4.6-.5l2.3 3.8c1.5 2.3 2.6 2.3 4.3 2.3-1.4-1.1-2.4-2.5-2.8-3.2l-2.7-4.4c.1-.3.3-.5.4-.8z"/><path d="m72.2 50h-5v-28.6h5z"/><path d="m72.2 78.6h-5v-28.6h5z" fill="#f00"/><path d="m72.2 107.2h-5v-28.6h5z" fill="#fc0"/><path d="m82.8 21.2v11.7h2.9c1.2 0 2.1-.2 2.6-.7.6-.5.9-1.3.9-2.5 0-.8-.1-1.5-.4-1.9-.3-.5-.8-.9-1.6-1 .7-.2 1.1-.5 1.4-1 .3-.4.4-.9.4-1.7 0-1-.2-1.8-.7-2.2-.5-.5-1.3-.7-2.3-.7zm28.2 0v4.3c-.4-.6-1-1-1.8-1-1 0-1.7.4-2 1.3-.3.6-.5 1.6-.5 2.8 0 1.3.1 2.3.4 2.9.4.9 1.1 1.4 2.2 1.4.8 0 1.4-.3 1.9-1v.9h1.2c0-.7-.1-1.2-.1-1.5v-10.1zm-26.9 1.1h1.4c.7 0 1.2.1 1.5.4.4.3.5.8.5 1.5 0 1.4-.7 2.1-2 2.1h-1.4zm64.7.4-1.3.6v1.5h-1.2v.9h1.2v5.3c0 .7.1 1.2.4 1.5s.8.5 1.5.5c.2 0 .5 0 .9-.1v-1c-.3 0-.5.1-.6.1-.4 0-.6-.1-.7-.3s-.2-.5-.2-.9v-5.1h1.4v-.9h-1.4zm-46.4 1.8c-1 0-1.7.4-2.1 1.3v-1.1h-1.3c0 .5.1 1 .1 1.8v6.4h1.3v-4.9c0-.6.1-1.2.4-1.7s.7-.8 1.3-.8.9.2 1.1.7c.1.3.2.7.2 1.4v5.2h1.3v-5.8c-.1-1.6-.8-2.5-2.3-2.5zm14.8 0c-1.2 0-2.1.5-2.5 1.5-.3.6-.4 1.7-.4 3.1 0 1.3.2 2.2.5 2.8.4.8 1.2 1.1 2.3 1.1 1.7 0 2.7-.9 2.7-2.7h-1.2c0 1.2-.6 1.8-1.5 1.8-.6 0-1-.2-1.2-.8-.2-.4-.2-1-.2-1.8v-.5h4.3v-.4c0-1.3-.1-2.2-.4-2.8-.4-.8-1.2-1.3-2.4-1.3zm6.9 0c-.7 0-1.3.2-1.7.5-.5.4-.7.9-.7 1.6 0 .6.2 1.1.6 1.5.2.2.7.5 1.4.9.6.3.9.5 1.1.7.3.3.4.6.4 1.1 0 .8-.4 1.3-1.2 1.3-.7 0-1.1-.4-1.2-1.3 0-.1 0-.3 0-.5h-1.3c0 1.8.8 2.6 2.5 2.6s2.6-.8 2.6-2.4c0-.6-.2-1.1-.6-1.6-.2-.2-.7-.5-1.4-.9-.6-.3-1-.6-1.2-.7-.3-.3-.5-.6-.5-.9s.1-.6.3-.8.4-.3.8-.3c.8 0 1.2.5 1.2 1.5h1.3c0-.8-.2-1.4-.6-1.8-.4-.3-1-.5-1.8-.5zm6.8 0c-.8 0-1.4.2-1.9.5-.5.4-.8.9-.8 1.7v.1h1.3v-.1c0-.4.1-.7.4-.9s.6-.3 1-.3c.6 0 .9.2 1.1.6.1.3.2.7.2 1.4v.4c-1.3 0-2.3.2-2.9.4-.9.4-1.3 1.2-1.3 2.3 0 .7.2 1.3.5 1.7.4.5.9.7 1.6.7.9 0 1.6-.4 2.2-1.2v1h1.2c-.1-.8-.1-1.6-.1-2.6v-3c0-.9-.2-1.6-.5-2-.4-.4-1.1-.7-2-.7zm8 0c-.9 0-1.5.4-1.9 1.2v-1h-1.3c0 .5.1.9.1 1.4v6.7h1.3v-5c0-.7.1-1.2.3-1.7.3-.5.7-.7 1.1-.7.5 0 .8.2 1 .6.1.2.1.6.1 1.2v5.5h1.3v-5.1c0-1.5.5-2.2 1.4-2.2.5 0 .8.2 1 .6.1.2.2.7.2 1.3v5.5h1.3v-5.5c0-.9-.1-1.6-.4-2-.3-.5-.8-.7-1.6-.7-.9 0-1.5.4-2 1.2-.4-.9-1-1.3-1.9-1.3zm-47.7.2v5.7c0 1.7.8 2.5 2.2 2.5.9 0 1.6-.4 2-1.1v1h1.3c0-.6-.1-1.1-.1-1.8v-6.3h-1.3v4.9c0 1.6-.5 2.4-1.6 2.4-.6 0-1-.2-1.1-.7-.1-.3-.2-.8-.2-1.4v-5.2zm18.3.8c.6 0 1.1.3 1.3 1 .2.5.3 1.3.3 2.4 0 1-.1 1.7-.2 2.1-.2.7-.7 1-1.4 1-.6 0-1-.3-1.2-1-.2-.5-.3-1.3-.3-2.3s.1-1.7.2-2.2c.2-.7.6-1 1.3-1zm7.4 0h.3c.6 0 1 .3 1.2.9.1.3.2.9.2 1.7h-3c0-.3 0-.7.1-1.1.2-.9.5-1.4 1.2-1.5zm-32.8 1.8h1.5c.8 0 1.3.2 1.6.6s.5 1 .5 1.7c0 .9-.2 1.4-.6 1.8-.3.3-.9.4-1.8.4h-1.2zm47.1 1.5h.6.3v.9c0 .6-.1 1.2-.4 1.6-.3.5-.7.7-1.3.7-.8 0-1.2-.5-1.2-1.6 0-.9.7-1.5 2-1.6zm-24.3 9.3c-1 0-1.7.2-2.3.7s-.9 1.3-.9 2.2.3 1.7.8 2.2c.3.3 1 .8 2 1.5.8.5 1.2.8 1.4.9.4.4.6 1 .6 1.6 0 1.3-.6 1.9-1.8 1.9-.7 0-1.2-.2-1.5-.7-.2-.3-.4-.9-.4-1.6v-.1h-1.4v.1c0 1.2.2 2 .7 2.5s1.3.8 2.5.8c1 0 1.8-.3 2.3-.8.6-.5.9-1.3.9-2.3 0-.9-.3-1.7-.7-2.2-.2-.3-.8-.7-1.8-1.3-1.1-.7-1.6-1-1.6-1.1-.5-.4-.8-1-.8-1.7 0-.5.2-1 .5-1.3s.7-.5 1.3-.5 1.1.2 1.4.5c.2.3.3.7.3 1.3v.3h1.4v-.4c.2-1.5-.8-2.5-2.9-2.5zm-21.9.2c-.9 0-1.4.3-1.7.8-.2.4-.3 1-.3 1.9v.9h-1.2v.9h1.2v7.2h1.3v-7.2h1.4v-.9h-1.4v-1.2c0-.5 0-.8.1-1 .1-.3.4-.4.8-.4h.5v-1c-.2 0-.4 0-.7 0zm37.6 0v11.7h1.3v-5c0-1.6.6-2.4 1.7-2.4.6 0 .9.2 1.1.7.1.3.1.7.1 1.4v5.3h1.3v-5.8c0-1.7-.7-2.6-2.1-2.6-.8 0-1.5.4-2 1.1v-4.5zm20 0v11.7h1.3v-5c0-1.6.6-2.4 1.7-2.4.6 0 .9.2 1.1.7.1.3.2.7.2 1.4v5.3h1.3v-5.8c0-1.7-.7-2.6-2.1-2.6-.8 0-1.5.4-2 1.1v-4.5zm47 0v4.3c-.4-.6-1-1-1.9-1-1 0-1.7.4-2 1.3-.3.6-.4 1.6-.4 2.8 0 1.3.1 2.3.4 2.9.4.9 1.1 1.4 2.1 1.4.8 0 1.5-.4 1.9-1.1v.9h1.2c0-.7-.1-1.3-.1-1.6v-9.9zm-101.4.2v1.5h1.2v-1.5zm2.5 0v1.5h1.2v-1.5zm21.3 0v1.4h1.4v-1.4zm45.7 0v1.4h1.4v-1.4zm12.4 0v1.4h1.4v-1.4zm-7 1.3-1.3.6v1.5h-1.2v.9h1.2v5.3c0 .7.1 1.2.4 1.5s.8.5 1.5.5c.2 0 .5 0 .9-.1v-1c-.3 0-.5.1-.6.1-.4 0-.6-.1-.7-.2-.1-.2-.2-.5-.2-.9v-5.1h1.5v-.9h-1.5zm-44.8 1.9c-1.2 0-2 .5-2.4 1.4-.3.6-.4 1.6-.4 3s.2 2.4.5 3c.4.8 1.2 1.1 2.3 1.1 1.7 0 2.5-.9 2.5-2.7h-1.2c0 .6-.1 1-.3 1.2-.2.4-.6.5-1.1.5-.6 0-1-.3-1.2-.8s-.3-1.3-.3-2.5c0-1.1 0-1.8.2-2.2.2-.7.7-1.1 1.3-1.1.8 0 1.3.6 1.3 1.7h1.2c0-.9-.2-1.6-.5-2-.4-.4-1-.6-1.9-.6zm14.7 0c-1.2 0-2.1.5-2.5 1.5-.3.6-.4 1.6-.4 3.1 0 1.3.1 2.2.5 2.8.4.8 1.2 1.2 2.3 1.2 1.7 0 2.7-.9 2.7-2.7h-1.3c0 1.2-.5 1.8-1.5 1.8-.6 0-1.1-.2-1.3-.8-.1-.4-.2-1-.2-1.8v-.6h4.3v-.4c0-1.3-.1-2.2-.4-2.8-.3-.9-1-1.3-2.2-1.3zm20.1 0c-1.2 0-2 .5-2.5 1.5-.3.6-.4 1.6-.4 3.1 0 1.3.2 2.2.5 2.8.4.8 1.2 1.2 2.3 1.2 1.7 0 2.7-.9 2.8-2.7h-1.3c0 1.2-.6 1.8-1.5 1.8-.6 0-1-.2-1.2-.8-.2-.4-.2-1-.2-1.8v-.6h4.3v-.4c0-1.3-.1-2.2-.4-2.8-.5-.9-1.3-1.3-2.4-1.3zm24 0c-1 0-1.7.4-2.1 1.3v-1.1h-1.3c0 .5.1 1.1.1 1.8v6.3h1.3v-4.9c0-.6.1-1.2.4-1.7s.7-.8 1.3-.8.9.2 1.1.7c.1.3.1.7.1 1.4v5.3h1.3v-5.8c0-1.6-.7-2.5-2.2-2.5zm18.7 0c-1.2 0-2.1.5-2.5 1.5-.3.6-.4 1.6-.4 3.1 0 1.3.2 2.2.5 2.8.4.8 1.2 1.2 2.3 1.2 1.7 0 2.7-.9 2.7-2.7h-1.3c0 1.2-.5 1.8-1.5 1.8-.6 0-1.1-.2-1.3-.8-.2-.4-.2-1-.2-1.8v-.6h4.3v-.4c0-1.3-.1-2.2-.4-2.8-.2-.9-1-1.3-2.2-1.3zm-97.4 0c-.9 0-1.6.4-2 1.2v-1.1h-1.3v1.5 6.7h1.3v-5c0-.6.1-1.1.5-1.5.3-.4.8-.6 1.4-.6h.3c-.1-.8-.1-1.2-.2-1.2zm42.6 0c-.9 0-1.6.4-2.1 1.2v-1.1h-1.3c0 .4.1.9.1 1.5v6.7h1.3v-5c0-.6.2-1.1.5-1.5s.8-.6 1.4-.6h.3c-.1-.8-.1-1.2-.2-1.2zm62.8 0c-.9 0-1.6.4-2.1 1.2v-1.1h-1.3c0 .4.1.9.1 1.5v6.7h1.3v-5c0-.6.1-1.1.5-1.5.3-.4.8-.6 1.4-.6h.3c0-.8-.1-1.2-.2-1.2zm-116.5.2v5.8c0 1.7.7 2.5 2.2 2.5.9 0 1.5-.4 2-1.2v1h1.3c0-.6-.1-1.2-.1-1.8v-6.3h-1.3v4.9c0 1.6-.5 2.4-1.6 2.4-.6 0-1-.2-1.1-.7-.1-.3-.2-.8-.2-1.4v-5.2zm24.8 0v8.1h1.3v-8.2zm45.7 0v8.1h1.3v-8.2zm12.3 0v8.1h1.3v-8.2zm-37.1.7c.6 0 1.1.3 1.3 1 .1.3.2.9.2 1.7h-3c0-.3 0-.7.1-1 0-1.1.5-1.7 1.4-1.7zm20.1 0c.6 0 1 .3 1.2 1 .1.3.2.9.2 1.7h-3c0-.3 0-.7.1-1 .1-1.1.6-1.7 1.5-1.7zm35 0c.6 0 1.1.4 1.3 1 .2.5.3 1.3.3 2.4 0 1-.1 1.7-.2 2.2-.2.7-.7 1-1.4 1-.6 0-1-.3-1.2-1-.2-.5-.3-1.3-.3-2.3s.1-1.7.2-2.2c.2-.7.6-1.1 1.3-1.1zm7.7 0c.6 0 1 .3 1.2 1 .1.3.2.9.2 1.7h-3c0-.3 0-.7.1-1 .1-1.1.7-1.7 1.5-1.7zm-98.7 12.8c-.9 0-1.5.3-1.8.8-.2.4-.3 1-.3 1.9v.9h-1.2v1h1.2v7.2h1.3v-7.2h1.4v-1h-1.4v-1.2c0-.5 0-.8.1-1 .1-.3.4-.5.8-.5h.5v-1c-.1.1-.4.1-.6.1zm-14.3.1v11.7h1.4v-11.7zm96.4 0v11.7h1.3v-4.9c0-1.6.6-2.4 1.7-2.4.6 0 .9.2 1.1.7.1.3.2.8.2 1.5v5.2h1.3v-5.8c0-1.7-.7-2.5-2.1-2.5-.8 0-1.5.4-2 1.1v-4.5zm19.5 0v11.7h1.3v-11.7zm-63.8.2v1.4h1.4v-1.4zm60 0v1.4h1.4v-1.4zm-63 1.3-1.3.6v1.4h-1.2v1h1.2v5.3c0 .7.1 1.3.4 1.6s.8.5 1.5.5c.2 0 .5 0 .9-.1v-1c-.3 0-.5.1-.6.1-.4 0-.6-.1-.7-.2-.1-.2-.2-.5-.2-.9v-5.3h1.4v-1h-1.4zm30.2 0-1.3.6v1.4h-1.2v1h1.2v5.3c0 .7.1 1.3.4 1.6s.8.5 1.5.5c.2 0 .5 0 .9-.1v-1c-.3 0-.5.1-.6.1-.4 0-.6-.1-.7-.2-.1-.2-.2-.5-.2-.9v-5.3h1.4v-1h-1.4zm-72 1.9c-1 0-1.7.4-2.1 1.3v-1.2h-1.3c0 .5.1 1.1.1 1.8v6.4h1.2v-4.9c0-.6.1-1.2.4-1.7s.7-.8 1.3-.8.9.2 1.1.7c.1.3.2.8.2 1.5v5.2h1.3v-5.8c-.1-1.7-.8-2.5-2.2-2.5zm11.8 0c-1.2 0-2 .4-2.4 1.3-.3.6-.5 1.6-.5 3.1s.2 2.5.5 3c.4.8 1.2 1.1 2.4 1.1s1.9-.4 2.3-1.1c.3-.6.5-1.7.5-3.2s-.1-2.5-.4-3c-.4-.8-1.2-1.2-2.4-1.2zm8.2 0c-.9 0-1.6.4-2.1 1.2v-1.1h-1.3c0 .4.1.9.1 1.5v6.7h1.3v-5c0-.6.1-1.1.5-1.5.3-.4.8-.6 1.4-.6h.3c-.1-.8-.1-1.2-.2-1.2zm4.7 0c-.9 0-1.5.4-1.9 1.2v-1.1h-1.3c0 .5.1.9.1 1.4v6.7h1.3v-5c0-.7.1-1.2.4-1.6.3-.5.6-.7 1.1-.7s.8.2 1 .6c.1.2.1.6.1 1.2v5.6h1.3v-5.1c0-1.5.5-2.2 1.4-2.2.5 0 .8.2 1 .6.1.2.2.6.2 1.2v5.5h1.3v-5.6c0-.9-.1-1.6-.4-2-.3-.5-.8-.7-1.6-.7-.9 0-1.5.4-2 1.2-.4-.8-1-1.2-2-1.2zm10.8 0c-.8 0-1.4.2-1.9.5-.5.4-.8.9-.8 1.7v.1h1.3v-.2c0-.4.1-.7.4-.9s.6-.3 1-.3c.6 0 .9.2 1.1.6.1.3.2.7.2 1.4v.4c-1.3 0-2.3.2-2.9.4-.9.4-1.3 1.2-1.3 2.3 0 .7.1 1.3.5 1.7.4.5.9.7 1.6.7.9 0 1.6-.4 2.2-1.2v1.1h1.2c-.1-.8-.1-1.6-.1-2.6v-3c0-.9-.2-1.6-.5-2-.4-.5-1.1-.7-2-.7zm15.6 0c-1.2 0-2 .4-2.4 1.3-.3.6-.5 1.6-.5 3.1s.2 2.5.5 3c.4.8 1.2 1.1 2.3 1.1s2-.4 2.4-1.1c.3-.6.5-1.7.5-3.2s-.1-2.5-.4-3c-.4-.8-1.2-1.2-2.4-1.2zm8.2 0c-1 0-1.7.4-2.1 1.3v-1.2h-1.3c0 .5.1 1.1.1 1.8v6.4h1.3v-4.9c0-.6.1-1.2.4-1.7s.7-.8 1.3-.8.9.2 1.1.7c.1.3.1.8.1 1.5v5.2h1.3v-5.8c0-1.7-.8-2.5-2.2-2.5zm6.7 0c-.7 0-1.3.2-1.7.5-.5.4-.7.9-.7 1.6 0 .6.2 1.1.6 1.5.2.2.7.5 1.5.9.6.3.9.5 1.1.7.3.3.4.6.4 1.1 0 .8-.4 1.3-1.2 1.3-.7 0-1.1-.5-1.2-1.3 0-.1 0-.3 0-.5h-1.3c0 1.8.8 2.7 2.5 2.7s2.5-.8 2.5-2.4c0-.6-.2-1.1-.6-1.5-.2-.2-.7-.6-1.4-.9-.6-.3-1-.6-1.1-.7-.3-.3-.5-.6-.5-.9s.1-.6.3-.8.4-.3.8-.3c.8 0 1.2.5 1.2 1.5h1.3c0-.8-.2-1.4-.6-1.8-.5-.5-1.1-.7-1.9-.7zm11.6 0c-1.2 0-2.1.5-2.5 1.5-.3.6-.4 1.7-.4 3.1 0 1.3.1 2.2.5 2.8.4.8 1.2 1.1 2.3 1.1 1.7 0 2.6-.9 2.7-2.7h-1.3c0 1.2-.5 1.8-1.5 1.8-.6 0-1.1-.3-1.3-.8-.2-.4-.2-1-.2-1.8v-.6h4.3v-.4c0-1.3-.1-2.2-.4-2.8-.2-.8-1-1.2-2.2-1.2zm7.2 0c-1.2 0-2 .4-2.4 1.4-.3.6-.4 1.6-.4 3s.2 2.4.5 3c.4.8 1.2 1.1 2.3 1.1 1.7 0 2.6-.9 2.6-2.7h-1.3c0 .6-.1 1-.3 1.2-.2.4-.6.6-1.1.6-.6 0-.9-.3-1.1-.8s-.3-1.3-.3-2.5c0-1.1.1-1.9.2-2.3.2-.7.6-1.1 1.3-1.1.8 0 1.3.6 1.3 1.7h1.3c0-.9-.2-1.6-.6-2s-1-.6-2-.6zm15.5 0c-1 0-1.7.4-2.1 1.3v-1.2h-1.3c0 .5.1 1.1.1 1.8v6.4h1.3v-4.9c0-.6.1-1.2.4-1.7s.7-.8 1.3-.8.9.2 1.1.7c.1.3.2.8.2 1.5v5.2h1.3v-5.8c-.1-1.7-.8-2.5-2.3-2.5zm-55.4.1v8.2h1.3v-8.2zm60 0v8.2h1.3v-8.2zm7.4 0-2.4 3.6 2.7 4.5h1.5l-2.8-4.6 2.5-3.6zm-100.5.8c.7 0 1.1.3 1.3 1 .1.4.2 1 .2 1.9v1.2c0 .7-.1 1.3-.2 1.7-.2.6-.7.8-1.3.8-.7 0-1.1-.3-1.3-.9-.1-.3-.2-.9-.2-1.7v-1.1c0-.9 0-1.5.2-1.9.1-.7.6-1 1.3-1zm39.3 0c.7 0 1.1.3 1.3 1 .1.4.1 1 .1 1.9v1.2c0 .7-.1 1.3-.2 1.7-.2.6-.6.8-1.3.8s-1.1-.3-1.3-.9c-.1-.3-.2-.9-.2-1.7v-1.1c0-.9 0-1.5.2-1.9.2-.7.7-1 1.4-1zm26.5 0c.6 0 1 .3 1.2 1 .1.3.2.9.2 1.7h-3c0-.3 0-.7.1-1 .1-1.2.6-1.7 1.5-1.7zm-41.2 3.3h.3v1c0 .6-.1 1.1-.4 1.6s-.7.8-1.3.8c-.8 0-1.2-.5-1.2-1.6 0-1.2.9-1.8 2.6-1.8z" fill="#231f20"/></svg>