<?xml version="1.0" encoding="utf-8"?>
<!-- Generator: Adobe Illustrator 25.4.1, SVG Export Plug-In . SVG Version: 6.00 Build 0)  -->
<svg version="1.1" id="Ebene_1" xmlns="http://www.w3.org/2000/svg" xmlns:xlink="http://www.w3.org/1999/xlink" x="0px" y="0px"
	 viewBox="0 0 315 129" style="enable-background:new 0 0 315 129;" xml:space="preserve">
<style type="text/css">
	.st0{fill:#FF0000;}
	.st1{fill:#FFCC00;}
	.st2{fill:#231F20;}
</style>
<g id="Adler-und-Saeulenelement_00000052084283867782041470000002087147230680400780_">
	<path d="M45.3,31.9c0-0.3,0.1-0.7,0.1-1c0-0.2,0-0.4,0-0.6c2.8,0,5.3-2.1,5.3-4.5c0-1.2-0.8-2.1-1.2-2.6c0.1,0,0.2,0,0.3-0.1
		c0.4,0.4,1.6,1.7,1.6,3.3C51.3,29.2,48.5,31.9,45.3,31.9 M42.4,22.1c-0.1-0.3-0.2-0.6-0.4-0.8c0-0.3,0.1-0.6,0.6-0.3
		c-0.3,0.3-0.1,0.7-0.1,0.7s0.5-0.2,0.4-0.6C43.7,21.2,43.2,22.2,42.4,22.1 M41.7,23.5c-0.1-0.4-0.3-0.9-0.6-1.2
		c-0.3-0.3-0.7-0.7-1.2-0.7c-0.3,0-0.7,0.1-1,0.2c-0.1-0.2-0.3-0.6-0.3-0.8c0-0.2,0.4-0.4,1-0.4c1.5,0,2.4,0.7,2.4,1.8
		C42,22.8,41.9,23.2,41.7,23.5 M45.5,42.5c0.2,0,0.3,0,0.4,0.1c0.4,1.2,2.1,3.3,2.1,3.4l0,0l0,0c0.4-0.1,1.4-0.2,2.3-0.2h0
		c0.1,0,0.2,0,0.3,0.1c0.1,0.1,0.1,0.2,0.1,0.3c0,0.2-0.1,0.6-0.2,0.7c-0.3-0.3-0.8-0.5-1.6-0.5c-0.2,0-0.5,0.1-0.7,0.1l-0.1,0
		l-0.1,0l0.5,0.5c0.7,0.7,1.3,1.3,1.3,1.7c0,0.2-0.2,0.6-0.4,0.7c0-0.7-0.8-1.7-1.5-2.3l-0.1,0l0,0.3c0,0.2,0,0.4,0,0.7
		c0,1.4-0.1,1.6-0.6,1.6c-0.1,0-0.2,0-0.3,0c0.3-0.3,0.4-0.8,0.4-1.6l0-0.4l0-0.3c0-0.3,0-0.6,0.1-0.7l0-0.1l-0.1,0
		c-0.2,0-0.6-0.1-1-0.1c-0.7,0-1.2,0.1-1.5,0.4c-0.2-0.2-0.5-0.5-0.5-0.7c0-0.3,0.2-0.3,0.4-0.3c0.1,0,0.2,0,0.4,0
		c0.3,0,0.7,0.1,1.7,0.1h0.1l0-0.1c-0.2-0.7-0.9-1.6-1.9-2.9C45.1,42.7,45.2,42.5,45.5,42.5 M36.7,46L36.7,46L36.7,46
		c1,0.1,1.4,0,1.7-0.1c0.2,0,0.3,0,0.4,0c0.2,0,0.4,0,0.4,0.3c0,0.2-0.2,0.5-0.5,0.7c-0.3-0.3-0.8-0.4-1.5-0.4c-0.3,0-0.7,0.1-1,0.1
		l0,0l0,0l0,0.1c0,0.2,0.1,0.4,0.1,0.7l0,0.3l0,0.4c0,0.8,0.1,1.2,0.4,1.6c-0.1,0-0.2,0-0.3,0c-0.5,0-0.6-0.2-0.6-1.6
		c0-0.3,0-0.5,0-0.7l0-0.3l-0.1,0c-0.7,0.5-1.5,1.5-1.5,2.3c-0.2-0.1-0.5-0.5-0.5-0.7c0-0.4,0.6-1,1.3-1.7l0.4-0.4l0.1-0.1l-0.1,0
		c-0.2,0-0.4-0.1-0.7-0.1c-0.8,0-1.3,0.1-1.6,0.5c-0.1-0.2-0.2-0.5-0.2-0.7c0-0.1,0-0.2,0.1-0.3c0.1-0.1,0.2-0.1,0.3-0.1h0
		c0.9,0,1.9,0.2,2.3,0.2l0,0l0,0c0.1-0.1,1.7-2.3,2.1-3.4c0.1,0,0.2-0.1,0.4-0.1c0.3,0,0.4,0.2,0.5,0.6C37.6,44.3,36.9,45.3,36.7,46
		 M32.3,26.4c0-1.6,1.2-2.9,1.6-3.3c0.1,0,0.2,0,0.3,0.1c-0.4,0.5-1.2,1.4-1.2,2.6c0,2.4,2.5,4.5,5.4,4.5c0,0.2,0,0.4,0,0.6
		c0,0.4,0,0.7,0.1,1C35.1,31.9,32.3,29.3,32.3,26.4 M54.2,31.4c1.5,2.3,2.6,2.3,4.3,2.3c-1.4-1.1-2.4-2.5-2.8-3.2L53,26.2
		c-0.3-1.3-0.9-2.6-2-3.5c0.3-0.1,0.6-0.3,0.8-0.4c-1.7,0-3.5-0.9-4.4-0.9c-0.6,0-1,0.4-1,0.8c0,0.5,0.6,1.1,1.6,1.1
		c0.2,0,0.5,0,0.9-0.1c0.6,0.8,1,1.5,1,2.5c0,1.9-2.2,3.3-4.5,3.3c-0.1,0-0.3,0-0.4,0c-0.2-0.5-0.9-1.2-0.9-2.1c0-1.5,1-2.7,1-4.2
		c0-0.9-0.4-1.5-0.6-1.7c0.3-0.3,0.6-0.6,0.7-0.8c-0.2,0.1-0.4,0.1-0.6,0.1c-1.1,0-2-0.3-2.8-0.3c-0.5,0-0.6,0.2-0.6,0.3
		c0,0.1,0,0.1,0,0.1c-0.2-0.1-0.4-0.1-0.6-0.2c-0.3,0-0.5-0.1-0.8-0.1c-1,0-1.4,0.4-1.4,0.8c0,0.3,0.3,0.9,0.5,1.3
		c0.4-0.2,0.9-0.3,1.1-0.3c0.6,0,1,0.5,1.3,1.2c-0.4,0-0.4,0.1-0.8,0.1c-1,0-1.7-0.4-1.9-0.4c0,0,0,0,0,0c0,0.1,0.3,0.5,0.9,0.7
		c0.8,0.3,1.9,0.4,2.1,0.4c0,0-0.2,0.4-0.4,0.5c0,0-0.1,0-0.1,0c-0.8-0.2-1-0.2-2-0.6c0,0,0,0,0,0c0,0.4,1,1.3,1.9,1.6
		c-0.8,1-1.7,2-2.2,3.5c-0.1,0-0.3,0-0.4,0c-2.3,0-4.5-1.5-4.5-3.3c0-1,0.4-1.7,1-2.5c0.3,0.1,0.6,0.1,0.9,0.1c1,0,1.6-0.5,1.6-1.1
		c0-0.5-0.4-0.8-1-0.8c-1,0-2.7,0.9-4.4,0.9c0.2,0.1,0.5,0.3,0.8,0.4c-1,0.9-1.7,2.2-2,3.5l-2.7,4.3c-0.5,0.7-1.4,2.1-2.8,3.2
		c1.7,0,2.9,0,4.3-2.3l1.4-2.2c0.1,0.3,0.2,0.6,0.4,0.8l-2.7,4.4c-0.5,0.7-1.4,2.1-2.8,3.2c1.7,0,2.9,0,4.3-2.3l2.3-3.8
		c0.2,0.2,0.4,0.4,0.6,0.5l-3.3,5.3c-0.5,0.7-1.4,2.1-2.8,3.2c1.7,0,2.9,0,4.3-2.3l3.2-5.2c0.2,0.1,0.4,0.3,0.7,0.4L31,39.9
		c-0.5,0.7-1.4,2.1-2.8,3.2c1.7,0,2.9,0,4.3-2.3l4.1-6.5c0.2,0.1,0.5,0.2,0.7,0.3L32.7,42c-0.4,0.7-1.4,2.1-2.8,3.2
		c1.7,0,2.9,0,4.3-2.3l4.9-7.8c0.1,0,0.1,0,0.1,0c0.1,0.4,0.2,0.8,0.2,1.2c0,2.5-1.6,4.6-3.5,6.3c0.1,0.1,0.3,0.1,0.5,0.1
		c0.4,0,0.7,0,0.8-0.1c-0.4,1-1.4,2.3-1.9,3c-0.6-0.1-1.6-0.2-2.2-0.2c-0.6,0-0.7,0.4-0.7,0.7c0,0.6,0.3,1,0.6,1.3
		c0.1-0.3,0.4-0.7,1.5-0.7c0,0,0.1,0,0.1,0c-0.3,0.4-1.4,1.2-1.4,1.9c0,0.5,0.5,1.2,1.2,1.2c0-0.1,0-0.3,0-0.4
		c0-0.6,0.5-1.2,0.9-1.7c0,0.1,0,0.1,0,0.3c0,1.3,0.1,1.9,1,1.9c0.4,0,0.7-0.2,0.8-0.3c-0.5-0.5-0.6-0.9-0.6-1.6c0-0.2,0-0.4,0-0.6
		c0-0.2,0-0.4,0-0.6c0.3,0,0.4,0,0.7,0c0,0,1.2-0.1,1.5,0.5c0.3-0.3,0.8-0.7,0.8-1.2c0-0.3-0.1-0.7-0.8-0.7c-0.2,0-1,0.1-1.6,0.1
		c0.2-0.4,0.9-1.4,1.5-2.2c0.1,0.3,0.2,0.6,0.6,0.9c0-0.5,0.3-2.1,1.1-3c0.1,0.6,0.2,1.3,0.2,2.6c0,3.3-0.8,5.8-2.5,6.2
		c0.2,0.4,0.7,0.7,1.2,0.7c0.6,0,1-0.7,1.3-1.4c0.2,0.5,0.7,1.7,1.2,1.7s1-1.2,1.2-1.7c0.3,0.7,0.7,1.4,1.3,1.4
		c0.5,0,0.9-0.3,1.2-0.7c-1.7-0.5-2.5-2.9-2.5-6.2c0-1.4,0.1-2,0.2-2.6c0.8,0.9,1.1,2.5,1.1,3c0.3-0.3,0.5-0.6,0.6-0.9
		c0.6,0.8,1.4,1.9,1.5,2.2c-0.6,0-1.4-0.1-1.6-0.1c-0.6,0-0.8,0.3-0.8,0.7c0,0.5,0.5,0.9,0.8,1.2c0.3-0.6,1.5-0.5,1.5-0.5
		c0.2,0,0.4,0,0.7,0c0,0.2,0,0.4,0,0.6c0,0.3,0,0.5,0,0.6c0,0.7,0,1.1-0.6,1.6c0.1,0.1,0.4,0.3,0.8,0.3c0.8,0,1-0.6,1-1.9
		c0-0.2,0-0.1,0-0.3c0.4,0.5,0.9,1.1,0.9,1.7c0,0.1,0,0.2,0,0.4c0.7,0,1.2-0.7,1.2-1.2c0-0.7-1.1-1.6-1.4-1.9c0.1,0,0.1,0,0.1,0
		c1.2,0,1.4,0.4,1.5,0.7c0.3-0.3,0.6-0.7,0.6-1.3c0-0.3-0.1-0.7-0.7-0.7c-0.6,0-1.5,0.1-2.2,0.2c-0.5-0.7-1.4-2-1.9-3
		c0.2,0,0.4,0.1,0.8,0.1c0.2,0,0.4,0,0.5-0.1c-1.9-1.7-3.5-3.8-3.5-6.3c0-0.4,0.1-0.8,0.2-1.2c0,0,0.1,0,0.1,0l4.9,7.8
		c1.5,2.3,2.6,2.3,4.3,2.3c-1.4-1.1-2.4-2.5-2.8-3.2l-4.6-7.3c0.2-0.1,0.5-0.2,0.7-0.3l4.1,6.5c1.5,2.3,2.6,2.3,4.3,2.3
		C54,42,53,40.7,52.6,39.9l-3.9-6.3c0.2-0.1,0.4-0.3,0.7-0.4l3.2,5.2c1.5,2.3,2.6,2.3,4.3,2.3c-1.4-1.1-2.4-2.5-2.8-3.2l-3.3-5.3
		c0.2-0.2,0.4-0.4,0.6-0.5l2.3,3.8c1.5,2.3,2.6,2.3,4.3,2.3c-1.4-1.1-2.4-2.5-2.8-3.2l-2.7-4.4c0.1-0.3,0.3-0.5,0.4-0.8L54.2,31.4z"
		/>
	<path d="M72.2,50h-5V21.4h5V50z"/>
	<path class="st0" d="M72.2,78.6h-5V50h5V78.6z"/>
	<path class="st1" d="M72.2,107.2h-5V78.6h5V107.2z"/>
</g>
<path id="path292" class="st2" d="M82.8,21.2v11.7h2.9c1.2,0,2.1-0.2,2.6-0.7c0.6-0.5,0.9-1.3,0.9-2.5c0-0.8-0.1-1.5-0.4-1.9
	c-0.3-0.5-0.8-0.9-1.6-1c0.7-0.2,1.1-0.5,1.4-1c0.3-0.4,0.4-0.9,0.4-1.7c0-1-0.2-1.8-0.7-2.2c-0.5-0.5-1.3-0.7-2.3-0.7L82.8,21.2
	L82.8,21.2z M111,21.2v4.3c-0.4-0.6-1-1-1.8-1c-1,0-1.7,0.4-2,1.3c-0.3,0.6-0.5,1.6-0.5,2.8c0,1.3,0.1,2.3,0.4,2.9
	c0.4,0.9,1.1,1.4,2.2,1.4c0.8,0,1.4-0.3,1.9-1l0,0.9h1.2c0-0.7-0.1-1.2-0.1-1.5V21.2H111L111,21.2z M84.1,22.3h1.4
	c0.7,0,1.2,0.1,1.5,0.4c0.4,0.3,0.5,0.8,0.5,1.5c0,1.4-0.7,2.1-2,2.1h-1.4V22.3L84.1,22.3z M148.8,22.7l-1.3,0.6v1.5h-1.2v0.9h1.2
	v5.3c0,0.7,0.1,1.2,0.4,1.5c0.3,0.3,0.8,0.5,1.5,0.5c0.2,0,0.5,0,0.9-0.1v-1c-0.3,0-0.5,0.1-0.6,0.1c-0.4,0-0.6-0.1-0.7-0.3
	c-0.1-0.2-0.2-0.5-0.2-0.9v-5.1h1.4v-0.9h-1.4V22.7L148.8,22.7z M102.4,24.5c-1,0-1.7,0.4-2.1,1.3v-1.1h-1.3c0,0.5,0.1,1,0.1,1.8
	v6.4h1.3V28c0-0.6,0.1-1.2,0.4-1.7c0.3-0.5,0.7-0.8,1.3-0.8c0.6,0,0.9,0.2,1.1,0.7c0.1,0.3,0.2,0.7,0.2,1.4v5.2h1.3v-5.8
	C104.6,25.4,103.9,24.5,102.4,24.5z M117.2,24.5c-1.2,0-2.1,0.5-2.5,1.5c-0.3,0.6-0.4,1.7-0.4,3.1c0,1.3,0.2,2.2,0.5,2.8
	c0.4,0.8,1.2,1.1,2.3,1.1c1.7,0,2.7-0.9,2.7-2.7h-1.2c0,1.2-0.6,1.8-1.5,1.8c-0.6,0-1-0.2-1.2-0.8c-0.2-0.4-0.2-1-0.2-1.8V29h4.3
	v-0.4c0-1.3-0.1-2.2-0.4-2.8C119.2,25,118.4,24.5,117.2,24.5L117.2,24.5z M124.1,24.5c-0.7,0-1.3,0.2-1.7,0.5
	c-0.5,0.4-0.7,0.9-0.7,1.6c0,0.6,0.2,1.1,0.6,1.5c0.2,0.2,0.7,0.5,1.4,0.9c0.6,0.3,0.9,0.5,1.1,0.7c0.3,0.3,0.4,0.6,0.4,1.1
	c0,0.8-0.4,1.3-1.2,1.3c-0.7,0-1.1-0.4-1.2-1.3c0-0.1,0-0.3,0-0.5h-1.3c0,1.8,0.8,2.6,2.5,2.6c1.7,0,2.6-0.8,2.6-2.4
	c0-0.6-0.2-1.1-0.6-1.6c-0.2-0.2-0.7-0.5-1.4-0.9c-0.6-0.3-1-0.6-1.2-0.7c-0.3-0.3-0.5-0.6-0.5-0.9c0-0.3,0.1-0.6,0.3-0.8
	c0.2-0.2,0.4-0.3,0.8-0.3c0.8,0,1.2,0.5,1.2,1.5h1.3c0-0.8-0.2-1.4-0.6-1.8C125.5,24.7,124.9,24.5,124.1,24.5L124.1,24.5z
	 M130.9,24.5c-0.8,0-1.4,0.2-1.9,0.5c-0.5,0.4-0.8,0.9-0.8,1.7v0.1h1.3v-0.1c0-0.4,0.1-0.7,0.4-0.9c0.3-0.2,0.6-0.3,1-0.3
	c0.6,0,0.9,0.2,1.1,0.6c0.1,0.3,0.2,0.7,0.2,1.4v0.4c-1.3,0-2.3,0.2-2.9,0.4c-0.9,0.4-1.3,1.2-1.3,2.3c0,0.7,0.2,1.3,0.5,1.7
	c0.4,0.5,0.9,0.7,1.6,0.7c0.9,0,1.6-0.4,2.2-1.2l0,1h1.2c-0.1-0.8-0.1-1.6-0.1-2.6v-3c0-0.9-0.2-1.6-0.5-2
	C132.5,24.8,131.8,24.5,130.9,24.5L130.9,24.5z M138.9,24.5c-0.9,0-1.5,0.4-1.9,1.2v-1h-1.3c0,0.5,0.1,0.9,0.1,1.4v6.7h1.3v-5
	c0-0.7,0.1-1.2,0.3-1.7c0.3-0.5,0.7-0.7,1.1-0.7c0.5,0,0.8,0.2,1,0.6c0.1,0.2,0.1,0.6,0.1,1.2v5.5h1.3v-5.1c0-1.5,0.5-2.2,1.4-2.2
	c0.5,0,0.8,0.2,1,0.6c0.1,0.2,0.2,0.7,0.2,1.3v5.5h1.3v-5.5c0-0.9-0.1-1.6-0.4-2c-0.3-0.5-0.8-0.7-1.6-0.7c-0.9,0-1.5,0.4-2,1.2
	C140.4,24.9,139.8,24.5,138.9,24.5L138.9,24.5z M91.2,24.7v5.7c0,1.7,0.8,2.5,2.2,2.5c0.9,0,1.6-0.4,2-1.1v1h1.3
	c0-0.6-0.1-1.1-0.1-1.8v-6.3h-1.3v4.9c0,1.6-0.5,2.4-1.6,2.4c-0.6,0-1-0.2-1.1-0.7c-0.1-0.3-0.2-0.8-0.2-1.4v-5.2L91.2,24.7
	L91.2,24.7z M109.5,25.5c0.6,0,1.1,0.3,1.3,1c0.2,0.5,0.3,1.3,0.3,2.4c0,1-0.1,1.7-0.2,2.1c-0.2,0.7-0.7,1-1.4,1c-0.6,0-1-0.3-1.2-1
	c-0.2-0.5-0.3-1.3-0.3-2.3c0-1,0.1-1.7,0.2-2.2C108.4,25.8,108.8,25.5,109.5,25.5z M116.9,25.5c0.1,0,0.2,0,0.3,0
	c0.6,0,1,0.3,1.2,0.9c0.1,0.3,0.2,0.9,0.2,1.7h-3c0-0.3,0-0.7,0.1-1.1C115.9,26.1,116.2,25.6,116.9,25.5z M84.1,27.3h1.5
	c0.8,0,1.3,0.2,1.6,0.6c0.3,0.4,0.5,1,0.5,1.7c0,0.9-0.2,1.4-0.6,1.8c-0.3,0.3-0.9,0.4-1.8,0.4h-1.2V27.3z M131.2,28.8
	c0.2,0,0.4,0,0.6,0h0.3v0.9c0,0.6-0.1,1.2-0.4,1.6c-0.3,0.5-0.7,0.7-1.3,0.7c-0.8,0-1.2-0.5-1.2-1.6
	C129.2,29.5,129.9,28.9,131.2,28.8z M106.9,38.1c-1,0-1.7,0.2-2.3,0.7c-0.6,0.5-0.9,1.3-0.9,2.2c0,0.9,0.3,1.7,0.8,2.2
	c0.3,0.3,1,0.8,2,1.5c0.8,0.5,1.2,0.8,1.4,0.9c0.4,0.4,0.6,1,0.6,1.6c0,1.3-0.6,1.9-1.8,1.9c-0.7,0-1.2-0.2-1.5-0.7
	c-0.2-0.3-0.4-0.9-0.4-1.6v-0.1h-1.4v0.1c0,1.2,0.2,2,0.7,2.5c0.5,0.5,1.3,0.8,2.5,0.8c1,0,1.8-0.3,2.3-0.8c0.6-0.5,0.9-1.3,0.9-2.3
	c0-0.9-0.3-1.7-0.7-2.2c-0.2-0.3-0.8-0.7-1.8-1.3c-1.1-0.7-1.6-1-1.6-1.1c-0.5-0.4-0.8-1-0.8-1.7c0-0.5,0.2-1,0.5-1.3
	c0.3-0.3,0.7-0.5,1.3-0.5c0.6,0,1.1,0.2,1.4,0.5c0.2,0.3,0.3,0.7,0.3,1.3v0.3h1.4v-0.4C110,39.1,109,38.1,106.9,38.1L106.9,38.1z
	 M85,38.3c-0.9,0-1.4,0.3-1.7,0.8c-0.2,0.4-0.3,1-0.3,1.9v0.9h-1.2v0.9H83V50h1.3v-7.2h1.4v-0.9h-1.4v-1.2c0-0.5,0-0.8,0.1-1
	c0.1-0.3,0.4-0.4,0.8-0.4c0.2,0,0.4,0,0.5,0v-1C85.5,38.3,85.3,38.3,85,38.3L85,38.3z M122.6,38.3V50h1.3v-5c0-1.6,0.6-2.4,1.7-2.4
	c0.6,0,0.9,0.2,1.1,0.7c0.1,0.3,0.1,0.7,0.1,1.4V50h1.3v-5.8c0-1.7-0.7-2.6-2.1-2.6c-0.8,0-1.5,0.4-2,1.1v-4.5L122.6,38.3
	L122.6,38.3z M142.6,38.3V50h1.3v-5c0-1.6,0.6-2.4,1.7-2.4c0.6,0,0.9,0.2,1.1,0.7c0.1,0.3,0.2,0.7,0.2,1.4V50h1.3v-5.8
	c0-1.7-0.7-2.6-2.1-2.6c-0.8,0-1.5,0.4-2,1.1v-4.5L142.6,38.3L142.6,38.3z M189.6,38.3v4.3c-0.4-0.6-1-1-1.9-1c-1,0-1.7,0.4-2,1.3
	c-0.3,0.6-0.4,1.6-0.4,2.8c0,1.3,0.1,2.3,0.4,2.9c0.4,0.9,1.1,1.4,2.1,1.4c0.8,0,1.5-0.4,1.9-1.1l0,0.9h1.2c0-0.7-0.1-1.3-0.1-1.6
	V38.3L189.6,38.3L189.6,38.3z M88.2,38.5V40h1.2v-1.5H88.2z M90.7,38.5V40h1.2v-1.5H90.7z M112,38.5v1.4h1.4v-1.4H112z M157.7,38.5
	v1.4h1.4v-1.4H157.7z M170.1,38.5v1.4h1.4v-1.4H170.1z M163.1,39.8l-1.3,0.6v1.5h-1.2v0.9h1.2v5.3c0,0.7,0.1,1.2,0.4,1.5
	c0.3,0.3,0.8,0.5,1.5,0.5c0.2,0,0.5,0,0.9-0.1v-1c-0.3,0-0.5,0.1-0.6,0.1c-0.4,0-0.6-0.1-0.7-0.2c-0.1-0.2-0.2-0.5-0.2-0.9v-5.1h1.5
	v-0.9h-1.5V39.8L163.1,39.8z M118.3,41.7c-1.2,0-2,0.5-2.4,1.4c-0.3,0.6-0.4,1.6-0.4,3c0,1.4,0.2,2.4,0.5,3c0.4,0.8,1.2,1.1,2.3,1.1
	c1.7,0,2.5-0.9,2.5-2.7h-1.2c0,0.6-0.1,1-0.3,1.2c-0.2,0.4-0.6,0.5-1.1,0.5c-0.6,0-1-0.3-1.2-0.8c-0.2-0.5-0.3-1.3-0.3-2.5
	c0-1.1,0-1.8,0.2-2.2c0.2-0.7,0.7-1.1,1.3-1.1c0.8,0,1.3,0.6,1.3,1.7h1.2c0-0.9-0.2-1.6-0.5-2C119.8,41.9,119.2,41.7,118.3,41.7
	L118.3,41.7z M133,41.7c-1.2,0-2.1,0.5-2.5,1.5c-0.3,0.6-0.4,1.6-0.4,3.1c0,1.3,0.1,2.2,0.5,2.8c0.4,0.8,1.2,1.2,2.3,1.2
	c1.7,0,2.7-0.9,2.7-2.7h-1.3c0,1.2-0.5,1.8-1.5,1.8c-0.6,0-1.1-0.2-1.3-0.8c-0.1-0.4-0.2-1-0.2-1.8v-0.6h4.3v-0.4
	c0-1.3-0.1-2.2-0.4-2.8C134.9,42.1,134.2,41.7,133,41.7z M153.1,41.7c-1.2,0-2,0.5-2.5,1.5c-0.3,0.6-0.4,1.6-0.4,3.1
	c0,1.3,0.2,2.2,0.5,2.8c0.4,0.8,1.2,1.2,2.3,1.2c1.7,0,2.7-0.9,2.8-2.7h-1.3c0,1.2-0.6,1.8-1.5,1.8c-0.6,0-1-0.2-1.2-0.8
	c-0.2-0.4-0.2-1-0.2-1.8v-0.6h4.3v-0.4c0-1.3-0.1-2.2-0.4-2.8C155,42.1,154.2,41.7,153.1,41.7L153.1,41.7z M177.1,41.7
	c-1,0-1.7,0.4-2.1,1.3v-1.1h-1.3c0,0.5,0.1,1.1,0.1,1.8V50h1.3v-4.9c0-0.6,0.1-1.2,0.4-1.7c0.3-0.5,0.7-0.8,1.3-0.8
	c0.6,0,0.9,0.2,1.1,0.7c0.1,0.3,0.1,0.7,0.1,1.4V50h1.3v-5.8C179.3,42.6,178.6,41.7,177.1,41.7z M195.8,41.7c-1.2,0-2.1,0.5-2.5,1.5
	c-0.3,0.6-0.4,1.6-0.4,3.1c0,1.3,0.2,2.2,0.5,2.8c0.4,0.8,1.2,1.2,2.3,1.2c1.7,0,2.7-0.9,2.7-2.7h-1.3c0,1.2-0.5,1.8-1.5,1.8
	c-0.6,0-1.1-0.2-1.3-0.8c-0.2-0.4-0.2-1-0.2-1.8v-0.6h4.3v-0.4c0-1.3-0.1-2.2-0.4-2.8C197.8,42.1,197,41.7,195.8,41.7L195.8,41.7z
	 M98.4,41.7c-0.9,0-1.6,0.4-2,1.2v-1.1h-1.3c0,0.4,0,0.9,0,1.5V50h1.3V45c0-0.6,0.1-1.1,0.5-1.5c0.3-0.4,0.8-0.6,1.4-0.6
	c0.1,0,0.1,0,0.3,0C98.5,42.1,98.5,41.7,98.4,41.7L98.4,41.7z M141,41.7c-0.9,0-1.6,0.4-2.1,1.2v-1.1h-1.3c0,0.4,0.1,0.9,0.1,1.5V50
	h1.3V45c0-0.6,0.2-1.1,0.5-1.5c0.3-0.4,0.8-0.6,1.4-0.6c0.1,0,0.2,0,0.3,0C141.1,42.1,141.1,41.7,141,41.7L141,41.7z M203.8,41.7
	c-0.9,0-1.6,0.4-2.1,1.2v-1.1h-1.3c0,0.4,0.1,0.9,0.1,1.5V50h1.3V45c0-0.6,0.1-1.1,0.5-1.5c0.3-0.4,0.8-0.6,1.4-0.6
	c0.1,0,0.2,0,0.3,0C204,42.1,203.9,41.7,203.8,41.7L203.8,41.7z M87.3,41.9v5.8c0,1.7,0.7,2.5,2.2,2.5c0.9,0,1.5-0.4,2-1.2v1h1.3
	c0-0.6-0.1-1.2-0.1-1.8v-6.3h-1.3v4.9c0,1.6-0.5,2.4-1.6,2.4c-0.6,0-1-0.2-1.1-0.7c-0.1-0.3-0.2-0.8-0.2-1.4v-5.2L87.3,41.9
	L87.3,41.9z M112.1,41.9V50h1.3v-8.2L112.1,41.9L112.1,41.9z M157.8,41.9V50h1.3v-8.2L157.8,41.9L157.8,41.9z M170.1,41.9V50h1.3
	v-8.2L170.1,41.9L170.1,41.9z M133,42.6c0.6,0,1.1,0.3,1.3,1c0.1,0.3,0.2,0.9,0.2,1.7h-3c0-0.3,0-0.7,0.1-1
	C131.6,43.2,132.1,42.6,133,42.6z M153.1,42.6c0.6,0,1,0.3,1.2,1c0.1,0.3,0.2,0.9,0.2,1.7h-3c0-0.3,0-0.7,0.1-1
	C151.7,43.2,152.2,42.6,153.1,42.6z M188.1,42.6c0.6,0,1.1,0.4,1.3,1c0.2,0.5,0.3,1.3,0.3,2.4c0,1-0.1,1.7-0.2,2.2
	c-0.2,0.7-0.7,1-1.4,1c-0.6,0-1-0.3-1.2-1c-0.2-0.5-0.3-1.3-0.3-2.3c0-1,0.1-1.7,0.2-2.2C187,43,187.4,42.6,188.1,42.6L188.1,42.6z
	 M195.8,42.6c0.6,0,1,0.3,1.2,1c0.1,0.3,0.2,0.9,0.2,1.7h-3c0-0.3,0-0.7,0.1-1C194.4,43.2,195,42.6,195.8,42.6L195.8,42.6z
	 M97.1,55.4c-0.9,0-1.5,0.3-1.8,0.8c-0.2,0.4-0.3,1-0.3,1.9V59h-1.2V60H95v7.2h1.3V60h1.4V59h-1.4v-1.2c0-0.5,0-0.8,0.1-1
	c0.1-0.3,0.4-0.5,0.8-0.5c0.2,0,0.4,0,0.5,0v-1C97.6,55.4,97.3,55.4,97.1,55.4z M82.8,55.5v11.7h1.4V55.5H82.8z M179.2,55.5v11.7
	h1.3v-4.9c0-1.6,0.6-2.4,1.7-2.4c0.6,0,0.9,0.2,1.1,0.7c0.1,0.3,0.2,0.8,0.2,1.5v5.2h1.3v-5.8c0-1.7-0.7-2.5-2.1-2.5
	c-0.8,0-1.5,0.4-2,1.1v-4.5L179.2,55.5L179.2,55.5z M198.7,55.5v11.7h1.3V55.5H198.7L198.7,55.5z M134.9,55.7v1.4h1.4v-1.4H134.9z
	 M194.9,55.7v1.4h1.4v-1.4H194.9z M131.9,57l-1.3,0.6V59h-1.2V60h1.2v5.3c0,0.7,0.1,1.3,0.4,1.6c0.3,0.3,0.8,0.5,1.5,0.5
	c0.2,0,0.5,0,0.9-0.1v-1c-0.3,0-0.5,0.1-0.6,0.1c-0.4,0-0.6-0.1-0.7-0.2c-0.1-0.2-0.2-0.5-0.2-0.9V60h1.4V59h-1.4L131.9,57L131.9,57
	z M162.1,57l-1.3,0.6V59h-1.2V60h1.2v5.3c0,0.7,0.1,1.3,0.4,1.6c0.3,0.3,0.8,0.5,1.5,0.5c0.2,0,0.5,0,0.9-0.1v-1
	c-0.3,0-0.5,0.1-0.6,0.1c-0.4,0-0.6-0.1-0.7-0.2c-0.1-0.2-0.2-0.5-0.2-0.9V60h1.4V59h-1.4L162.1,57L162.1,57z M90.1,58.9
	c-1,0-1.7,0.4-2.1,1.3V59h-1.3c0,0.5,0.1,1.1,0.1,1.8v6.4H88v-4.9c0-0.6,0.1-1.2,0.4-1.7c0.3-0.5,0.7-0.8,1.3-0.8
	c0.6,0,0.9,0.2,1.1,0.7c0.1,0.3,0.2,0.8,0.2,1.5v5.2h1.3v-5.8C92.2,59.7,91.5,58.9,90.1,58.9L90.1,58.9z M101.9,58.9
	c-1.2,0-2,0.4-2.4,1.3c-0.3,0.6-0.5,1.6-0.5,3.1c0,1.5,0.2,2.5,0.5,3c0.4,0.8,1.2,1.1,2.4,1.1c1.2,0,1.9-0.4,2.3-1.1
	c0.3-0.6,0.5-1.7,0.5-3.2c0-1.5-0.1-2.5-0.4-3C103.9,59.3,103.1,58.9,101.9,58.9L101.9,58.9z M110.1,58.9c-0.9,0-1.6,0.4-2.1,1.2V59
	h-1.3c0,0.4,0.1,0.9,0.1,1.5v6.7h1.3v-5c0-0.6,0.1-1.1,0.5-1.5c0.3-0.4,0.8-0.6,1.4-0.6c0.1,0,0.2,0,0.3,0
	C110.2,59.3,110.2,58.9,110.1,58.9L110.1,58.9z M114.8,58.9c-0.9,0-1.5,0.4-1.9,1.2V59h-1.3c0,0.5,0.1,0.9,0.1,1.4v6.7h1.3v-5
	c0-0.7,0.1-1.2,0.4-1.6c0.3-0.5,0.6-0.7,1.1-0.7c0.5,0,0.8,0.2,1,0.6c0.1,0.2,0.1,0.6,0.1,1.2v5.6h1.3v-5.1c0-1.5,0.5-2.2,1.4-2.2
	c0.5,0,0.8,0.2,1,0.6c0.1,0.2,0.2,0.6,0.2,1.2v5.5h1.3v-5.6c0-0.9-0.1-1.6-0.4-2c-0.3-0.5-0.8-0.7-1.6-0.7c-0.9,0-1.5,0.4-2,1.2
	C116.4,59.3,115.8,58.9,114.8,58.9L114.8,58.9z M125.6,58.9c-0.8,0-1.4,0.2-1.9,0.5c-0.5,0.4-0.8,0.9-0.8,1.7v0.1h1.3V61
	c0-0.4,0.1-0.7,0.4-0.9c0.3-0.2,0.6-0.3,1-0.3c0.6,0,0.9,0.2,1.1,0.6c0.1,0.3,0.2,0.7,0.2,1.4v0.4c-1.3,0-2.3,0.2-2.9,0.4
	c-0.9,0.4-1.3,1.2-1.3,2.3c0,0.7,0.1,1.3,0.5,1.7c0.4,0.5,0.9,0.7,1.6,0.7c0.9,0,1.6-0.4,2.2-1.2l0,1.1h1.2
	c-0.1-0.8-0.1-1.6-0.1-2.6v-3c0-0.9-0.2-1.6-0.5-2C127.2,59.1,126.5,58.9,125.6,58.9L125.6,58.9z M141.2,58.9c-1.2,0-2,0.4-2.4,1.3
	c-0.3,0.6-0.5,1.6-0.5,3.1c0,1.5,0.2,2.5,0.5,3c0.4,0.8,1.2,1.1,2.3,1.1c1.1,0,2-0.4,2.4-1.1c0.3-0.6,0.5-1.7,0.5-3.2
	c0-1.5-0.1-2.5-0.4-3C143.2,59.3,142.4,58.9,141.2,58.9L141.2,58.9z M149.4,58.9c-1,0-1.7,0.4-2.1,1.3V59H146c0,0.5,0.1,1.1,0.1,1.8
	v6.4h1.3v-4.9c0-0.6,0.1-1.2,0.4-1.7c0.3-0.5,0.7-0.8,1.3-0.8c0.6,0,0.9,0.2,1.1,0.7c0.1,0.3,0.1,0.8,0.1,1.5v5.2h1.3v-5.8
	C151.6,59.7,150.8,58.9,149.4,58.9L149.4,58.9z M156.1,58.9c-0.7,0-1.3,0.2-1.7,0.5c-0.5,0.4-0.7,0.9-0.7,1.6c0,0.6,0.2,1.1,0.6,1.5
	c0.2,0.2,0.7,0.5,1.5,0.9c0.6,0.3,0.9,0.5,1.1,0.7c0.3,0.3,0.4,0.6,0.4,1.1c0,0.8-0.4,1.3-1.2,1.3c-0.7,0-1.1-0.5-1.2-1.3
	c0-0.1,0-0.3,0-0.5h-1.3c0,1.8,0.8,2.7,2.5,2.7c1.7,0,2.5-0.8,2.5-2.4c0-0.6-0.2-1.1-0.6-1.5c-0.2-0.2-0.7-0.6-1.4-0.9
	c-0.6-0.3-1-0.6-1.1-0.7c-0.3-0.3-0.5-0.6-0.5-0.9c0-0.3,0.1-0.6,0.3-0.8c0.2-0.2,0.4-0.3,0.8-0.3c0.8,0,1.2,0.5,1.2,1.5h1.3
	c0-0.8-0.2-1.4-0.6-1.8C157.5,59.1,156.9,58.9,156.1,58.9L156.1,58.9z M167.7,58.9c-1.2,0-2.1,0.5-2.5,1.5c-0.3,0.6-0.4,1.7-0.4,3.1
	c0,1.3,0.1,2.2,0.5,2.8c0.4,0.8,1.2,1.1,2.3,1.1c1.7,0,2.6-0.9,2.7-2.7h-1.3c0,1.2-0.5,1.8-1.5,1.8c-0.6,0-1.1-0.3-1.3-0.8
	c-0.2-0.4-0.2-1-0.2-1.8v-0.6h4.3v-0.4c0-1.3-0.1-2.2-0.4-2.8C169.7,59.3,168.9,58.9,167.7,58.9L167.7,58.9z M174.9,58.9
	c-1.2,0-2,0.4-2.4,1.4c-0.3,0.6-0.4,1.6-0.4,3c0,1.4,0.2,2.4,0.5,3c0.4,0.8,1.2,1.1,2.3,1.1c1.7,0,2.6-0.9,2.6-2.7h-1.3
	c0,0.6-0.1,1-0.3,1.2c-0.2,0.4-0.6,0.6-1.1,0.6c-0.6,0-0.9-0.3-1.1-0.8c-0.2-0.5-0.3-1.3-0.3-2.5c0-1.1,0.1-1.9,0.2-2.3
	c0.2-0.7,0.6-1.1,1.3-1.1c0.8,0,1.3,0.6,1.3,1.7h1.3c0-0.9-0.2-1.6-0.6-2C176.5,59.1,175.9,58.9,174.9,58.9L174.9,58.9z M190.4,58.9
	c-1,0-1.7,0.4-2.1,1.3V59H187c0,0.5,0.1,1.1,0.1,1.8v6.4h1.3v-4.9c0-0.6,0.1-1.2,0.4-1.7c0.3-0.5,0.7-0.8,1.3-0.8
	c0.6,0,0.9,0.2,1.1,0.7c0.1,0.3,0.2,0.8,0.2,1.5v5.2h1.3v-5.8C192.6,59.7,191.9,58.9,190.4,58.9L190.4,58.9z M135,59v8.2h1.3V59H135
	z M195,59v8.2h1.3V59H195z M202.4,59l-2.4,3.6l2.7,4.5h1.5l-2.8-4.6l2.5-3.6L202.4,59L202.4,59z M101.9,59.8c0.7,0,1.1,0.3,1.3,1
	c0.1,0.4,0.2,1,0.2,1.9v1.2c0,0.7-0.1,1.3-0.2,1.7c-0.2,0.6-0.7,0.8-1.3,0.8c-0.7,0-1.1-0.3-1.3-0.9c-0.1-0.3-0.2-0.9-0.2-1.7v-1.1
	c0-0.9,0-1.5,0.2-1.9C100.7,60.1,101.2,59.8,101.9,59.8L101.9,59.8z M141.2,59.8c0.7,0,1.1,0.3,1.3,1c0.1,0.4,0.1,1,0.1,1.9v1.2
	c0,0.7-0.1,1.3-0.2,1.7c-0.2,0.6-0.6,0.8-1.3,0.8c-0.7,0-1.1-0.3-1.3-0.9c-0.1-0.3-0.2-0.9-0.2-1.7v-1.1c0-0.9,0-1.5,0.2-1.9
	C140,60.1,140.5,59.8,141.2,59.8L141.2,59.8z M167.7,59.8c0.6,0,1,0.3,1.2,1c0.1,0.3,0.2,0.9,0.2,1.7h-3c0-0.3,0-0.7,0.1-1
	C166.3,60.3,166.8,59.8,167.7,59.8L167.7,59.8z M126.5,63.1h0.3v1c0,0.6-0.1,1.1-0.4,1.6c-0.3,0.5-0.7,0.8-1.3,0.8
	c-0.8,0-1.2-0.5-1.2-1.6C123.9,63.7,124.8,63.1,126.5,63.1L126.5,63.1z"/>
</svg>
