<?xml version="1.0" encoding="utf-8"?>
<!-- Generator: Adobe Illustrator 25.4.1, SVG Export Plug-In . SVG Version: 6.00 Build 0)  -->
<svg version="1.1" id="Ebene_1" xmlns="http://www.w3.org/2000/svg" xmlns:xlink="http://www.w3.org/1999/xlink" x="0px" y="0px"
	 viewBox="0 0 315 129" style="enable-background:new 0 0 315 129;" xml:space="preserve">
<style type="text/css">
	.st0{fill:#004471;}
	.st1{fill:#AEBBC4;}
</style>
<g>
	<g>
		<path class="st0" d="M87.2,39.7H86v5.2H87c2.8,0,4-0.9,4-2.7C91.1,40.6,89.7,39.7,87.2,39.7 M86.8,31.6H86v5.2h0.8
			c2.7,0,3.9-1,3.9-2.8C90.6,32.5,89.6,31.6,86.8,31.6 M91,38L91,38c1.8,0.4,4,1.8,4,4.5c0,3.2-2.4,5.4-7.9,5.4h-4.8V28.6h4.6
			c5.6,0,7.6,2,7.6,5.1C94.4,36.5,92.6,37.5,91,38"/>
		<path class="st0" d="M112.6,39.8c0,5.6-2.5,8.4-7.6,8.4c-5.1,0-7.3-2.6-7.3-8.4V28.6h3.7V40c0,3.6,1.2,5.1,3.7,5.1
			c2.7,0,3.9-1.5,3.9-5.1V28.6h3.6L112.6,39.8L112.6,39.8z"/>
		<polygon class="st0" points="131.1,47.9 127.9,47.9 119.9,35.9 119.9,35.9 119.9,47.9 116.1,47.9 116.1,28.6 119.4,28.6 
			127.3,40.6 127.3,40.6 127.3,28.6 131.1,28.6 		"/>
		<path class="st0" d="M138.6,31.7v13.1h0.6c4.6,0,7-1.9,7-6.8c0-4.6-2.3-6.3-6.8-6.3L138.6,31.7L138.6,31.7z M134.9,47.9V28.6h4.6
			c7.3,0,10.7,2.7,10.7,9.4c0,7-4.2,9.9-10.9,9.9H134.9z"/>
		<polygon class="st0" points="164.1,31.7 156.8,31.7 156.8,36.7 163.5,36.7 163.5,39.7 156.8,39.7 156.8,44.8 165,44.8 164.8,47.9 
			153.1,47.9 153.1,28.6 164.3,28.6 		"/>
		<path class="st0" d="M176.4,32.8c-0.4-0.4-1.6-1.3-3.4-1.3c-1.8,0-2.6,0.8-2.6,1.7c0,1.2,0.6,1.8,2.1,2.7l2.1,1.3
			c2.6,1.6,3.8,3.2,3.8,5.6c0,2.7-1.9,5.4-6.6,5.4c-3.1,0-4.7-1.3-5.4-1.9l1.2-3.1c0.6,0.6,2.1,1.8,4.1,1.8c2,0,2.9-0.8,2.9-1.8
			c0-1.3-0.6-2-2-2.9l-2.1-1.4c-2.7-1.8-3.8-3.1-3.8-5.7c0-2.7,2.3-4.9,6.1-4.9c2.7,0,4.1,1.1,4.7,1.5L176.4,32.8z"/>
		<polygon class="st0" points="197.9,47.9 194.8,47.9 191,34.9 191,34.9 187.2,47.9 184.1,47.9 178.9,28.6 183,28.6 185.9,42 
			186,42 189.4,28.6 192.9,28.6 196.3,42 196.4,42 199.3,28.6 203.1,28.6 		"/>
		<polygon class="st0" points="216,31.7 208.7,31.7 208.7,36.7 215.5,36.7 215.5,39.7 208.7,39.7 208.7,44.8 216.9,44.8 216.7,47.9 
			205,47.9 205,28.6 216.2,28.6 		"/>
		<polygon class="st0" points="234.6,47.9 230.9,47.9 230.9,39.7 223.2,39.7 223.2,47.9 219.4,47.9 219.4,28.6 223.2,28.6 
			223.2,36.7 230.9,36.7 230.9,28.6 234.6,28.6 		"/>
		<path class="st0" d="M243,31.7h-0.8v6.2h0.7c2.8,0,4.2-1.2,4.2-3.3C247,32.7,245.7,31.7,243,31.7 M248.1,47.9l-4.1-7
			c-0.4,0-0.8,0-1.2,0h-0.7v7h-3.7V28.6h4.6c5.4,0,7.9,2.1,7.9,6c0,2.4-1.1,4.3-3.3,5.3l4.9,7.9L248.1,47.9L248.1,47.9z"/>
	</g>
	<g>
		<path class="st0" d="M27,51.8c2.2-0.7,4.6-1.5,6.2-1.7c-0.3,1.6-1.1,4-1.7,6.2l3.8,0c1.5-3.7,2.9-8.4,3.4-11.7
			c-3.3,0.5-7.9,1.9-11.7,3.4L27,51.8z"/>
		<path class="st0" d="M31.5,20.3c0.7,2.2,1.5,4.6,1.7,6.2c-1.6-0.3-4-1.1-6.2-1.7l0,3.8c3.7,1.5,8.4,2.9,11.7,3.4
			c-0.5-3.3-1.9-7.9-3.4-11.7L31.5,20.3z"/>
		<path class="st0" d="M58.5,56.2C57.8,54,57,51.7,56.8,50c1.6,0.3,4,1.1,6.2,1.7l0-3.8c-3.7-1.5-8.4-2.9-11.7-3.4
			c0.5,3.3,1.9,7.9,3.4,11.7L58.5,56.2z"/>
		<path class="st0" d="M63,24.8c-2.2,0.7-4.6,1.5-6.2,1.7c0.3-1.6,1.1-4,1.7-6.2l-3.8,0c-1.5,3.7-2.9,8.4-3.4,11.7
			c3.3-0.5,7.9-1.9,11.7-3.4L63,24.8z"/>
		<path class="st1" d="M63,32c-3.3,1.2-9.5,3.1-15.5,3.8c0.7-5.9,2.5-12.2,3.8-15.5H38.7c1.2,3.3,3.1,9.5,3.8,15.5
			C36.6,35.1,30.3,33.2,27,32v12.6c3.3-1.2,9.5-3.1,15.5-3.8C41.8,46.7,40,53,38.7,56.2h12.5c-1.2-3.3-3.1-9.5-3.8-15.5
			c5.9,0.7,12.2,2.6,15.5,3.8L63,32L63,32z"/>
	</g>
</g>
</svg>
