<svg enable-background="new 0 0 315 129" viewBox="0 0 315 129" xmlns="http://www.w3.org/2000/svg"><g fill="#004471"><path d="m87.2 39.7h-1.2v5.2h1c2.8 0 4-.9 4-2.7.1-1.6-1.3-2.5-3.8-2.5m-.4-8.1h-.8v5.2h.8c2.7 0 3.9-1 3.9-2.8-.1-1.5-1.1-2.4-3.9-2.4m4.2 6.4c1.8.4 4 1.8 4 4.5 0 3.2-2.4 5.4-7.9 5.4h-4.8v-19.3h4.6c5.6 0 7.6 2 7.6 5.1-.1 2.8-1.9 3.8-3.5 4.3"/><path d="m112.6 39.8c0 5.6-2.5 8.4-7.6 8.4s-7.3-2.6-7.3-8.4v-11.2h3.7v11.4c0 3.6 1.2 5.1 3.7 5.1 2.7 0 3.9-1.5 3.9-5.1v-11.4h3.6z"/><path d="m131.1 47.9h-3.2l-8-12v12h-3.8v-19.3h3.3l7.9 12v-12h3.8z"/><path d="m138.6 31.7v13.1h.6c4.6 0 7-1.9 7-6.8 0-4.6-2.3-6.3-6.8-6.3zm-3.7 16.2v-19.3h4.6c7.3 0 10.7 2.7 10.7 9.4 0 7-4.2 9.9-10.9 9.9z"/><path d="m164.1 31.7h-7.3v5h6.7v3h-6.7v5.1h8.2l-.2 3.1h-11.7v-19.3h11.2z"/><path d="m176.4 32.8c-.4-.4-1.6-1.3-3.4-1.3s-2.6.8-2.6 1.7c0 1.2.6 1.8 2.1 2.7l2.1 1.3c2.6 1.6 3.8 3.2 3.8 5.6 0 2.7-1.9 5.4-6.6 5.4-3.1 0-4.7-1.3-5.4-1.9l1.2-3.1c.6.6 2.1 1.8 4.1 1.8s2.9-.8 2.9-1.8c0-1.3-.6-2-2-2.9l-2.1-1.4c-2.7-1.8-3.8-3.1-3.8-5.7 0-2.7 2.3-4.9 6.1-4.9 2.7 0 4.1 1.1 4.7 1.5z"/><path d="m197.9 47.9h-3.1l-3.8-13-3.8 13h-3.1l-5.2-19.3h4.1l2.9 13.4h.1l3.4-13.4h3.5l3.4 13.4h.1l2.9-13.4h3.8z"/><path d="m216 31.7h-7.3v5h6.8v3h-6.8v5.1h8.2l-.2 3.1h-11.7v-19.3h11.2z"/><path d="m234.6 47.9h-3.7v-8.2h-7.7v8.2h-3.8v-19.3h3.8v8.1h7.7v-8.1h3.7z"/><path d="m243 31.7h-.8v6.2h.7c2.8 0 4.2-1.2 4.2-3.3-.1-1.9-1.4-2.9-4.1-2.9m5.1 16.2-4.1-7c-.4 0-.8 0-1.2 0h-.7v7h-3.7v-19.3h4.6c5.4 0 7.9 2.1 7.9 6 0 2.4-1.1 4.3-3.3 5.3l4.9 7.9z"/><path d="m27 51.8c2.2-.7 4.6-1.5 6.2-1.7-.3 1.6-1.1 4-1.7 6.2h3.8c1.5-3.7 2.9-8.4 3.4-11.7-3.3.5-7.9 1.9-11.7 3.4z"/><path d="m31.5 20.3c.7 2.2 1.5 4.6 1.7 6.2-1.6-.3-4-1.1-6.2-1.7v3.8c3.7 1.5 8.4 2.9 11.7 3.4-.5-3.3-1.9-7.9-3.4-11.7z"/><path d="m58.5 56.2c-.7-2.2-1.5-4.5-1.7-6.2 1.6.3 4 1.1 6.2 1.7v-3.8c-3.7-1.5-8.4-2.9-11.7-3.4.5 3.3 1.9 7.9 3.4 11.7z"/><path d="m63 24.8c-2.2.7-4.6 1.5-6.2 1.7.3-1.6 1.1-4 1.7-6.2h-3.8c-1.5 3.7-2.9 8.4-3.4 11.7 3.3-.5 7.9-1.9 11.7-3.4z"/></g><path d="m63 32c-3.3 1.2-9.5 3.1-15.5 3.8.7-5.9 2.5-12.2 3.8-15.5h-12.6c1.2 3.3 3.1 9.5 3.8 15.5-5.9-.7-12.2-2.6-15.5-3.8v12.6c3.3-1.2 9.5-3.1 15.5-3.8-.7 5.9-2.5 12.2-3.8 15.4h12.5c-1.2-3.3-3.1-9.5-3.8-15.5 5.9.7 12.2 2.6 15.5 3.8z" fill="#aebbc4"/></svg>