<svg enable-background="new 0 0 315 129" viewBox="0 0 315 129" xmlns="http://www.w3.org/2000/svg"><g transform="scale(5.3057 5.30435)"><path d="m7.2 19.7h2.7v.5h-2.7z" fill="#fc0"/><path d="m7.2 18.6h2.7v.5h-2.7z" fill="#f00"/><path d="m7.2 17.6h2.7v.5h-2.7z"/><path d="m11.4 6c.1-.1.1-.2.1-.4 0-.1 0-.2 0-.3s0-.2 0-.3c0-.2 0-.3-.1-.4s-.2-.1-.3-.1-.2 0-.3.1-.1.2-.1.4v.3.3c0 .2 0 .3.1.4s.2.1.3.1c.2.1.3 0 .3-.1zm-1.1.5c-.2-.2-.3-.5-.3-.8 0-.1 0-.2 0-.3s0-.3 0-.3c0-.3.1-.6.3-.8s.5-.3.8-.3.6.1.8.3.3.4.3.8v.3.3c0 .3-.1.6-.3.8s-.5.3-.8.3c-.3-.1-.6-.2-.8-.3z"/><path d="m14.1 5.3c.1 0 .2 0 .2-.1.1-.1.1-.1.1-.2s0-.2-.1-.2c-.1-.1-.1-.1-.2-.1h-.4v.6zm-1.1 1.3v-2.5-.1h.1 1c.3 0 .6.1.8.2s.3.4.3.6-.2.6-.3.8c-.2.1-.4.2-.8.2h-.4v.8.1s0 0-.1 0l-.6-.1c0 .1 0 .1 0 0z"/><path d="m15.8 6.6c-.1 0-.1 0 0 0v-2.5-.1h.1 1.7.1v.1.4.1s0 0-.1 0h-1.2v.5h1.1.1v.1.3.1s0 0-.1 0h-1.1v.5h1.2.1v.1.4.1s0 0-.1 0l-1.8-.1c0 .1 0 .1 0 0z"/><path d="m18.4 6.6v-2.5-.1h.1.4c.1 0 .1 0 .1.1l.9 1.4v-1.3-.1h.1.5.1v.1 2.4.1s0 0-.1 0h-.5c-.1 0-.1 0-.1-.1l-.9-1.3v1.3.1s0 0-.1 0l-.5-.1c0 .1 0 .1 0 0z"/><path d="m10.3 10.6c-.2-.2-.3-.4-.3-.7 0-.1 0-.2 0-.3 0-.2 0-.3 0-.3 0-.3.1-.6.3-.7.2-.2.5-.3.8-.3.2 0 .4 0 .6.1s.3.2.4.3.1.2.1.4v.1s0 0-.1 0h-.6s0 0-.1 0c0-.1-.1-.1-.1-.2-.1 0-.2-.1-.3-.1-.3 0-.4.1-.4.4v.3.3c0 .3.2.5.5.5.1 0 .3 0 .3-.1.1-.1.1-.2.1-.3v-.2h-.3s0 0-.1 0c0 0 0 0 0-.1v-.3s0 0 0-.1h.1.9.1v.1.4c0 .2 0 .4-.1.5-.1.2-.2.3-.4.3-.2.1-.4.1-.6.1-.3.2-.6.1-.8-.1z"/><path d="m14.4 10.2c.1-.1.1-.2.1-.4 0-.1 0-.2 0-.3s0-.2 0-.3c0-.2 0-.3-.1-.4s-.2-.1-.3-.1-.2 0-.3.1-.1.2-.1.4v.3.3c0 .2 0 .3.1.4s.2.1.3.1.2 0 .3-.1zm-1.2.4c-.2-.2-.3-.4-.3-.8 0-.1 0-.2 0-.3s0-.3 0-.3c0-.3.1-.6.3-.8s.5-.3.8-.3.6.1.8.3.3.4.3.8v.3.3c0 .3-.1.6-.3.8s-.5.3-.8.3-.6-.1-.8-.3z"/><path d="m16.5 10.8-.8-2.5s0 0 0-.1h.1.5.1v.1l.5 1.7.5-1.7v-.1h.1.5.1v.1l-.8 2.4s0 .1-.1.1h-.1z"/><path d="m18.8 10.8c-.1 0-.1 0 0 0v-2.5-.1h.1 1.7.1v.1.4.1s0 0-.1 0h-1.2v.5h1.1.1v.1.3.1s0 0-.1 0h-1.1v.5h1.2.1s0 0 0 .1v.4.1s0 0-.1 0z"/><path d="m22.5 9.4c.1 0 .2 0 .2-.1.1-.1.1-.1.1-.2s0-.2-.1-.2c-.1-.1-.1-.1-.2-.1h-.4v.6zm-1.1 1.4v-2.5-.1h.1 1c.3 0 .6.1.8.2s.3.4.3.6 0 .3-.1.4-.2.2-.3.3l.5.9v.1s0 0-.1 0h-.6c-.1 0-.1 0-.2-.1l-.4-.8h-.4v.8.1s0 0-.1 0z"/><path d="m24.2 10.8v-2.5-.1h.1.4c.1 0 .1 0 .1.1l.9 1.4v-1.4-.1h.1.5.1v.1 2.4.1s0 0-.1 0h-.4c-.1 0-.1 0-.1-.1l-.9-1.3v1.3.1s0 0-.1 0h-.6c.1 0 .1 0 0 0z"/><path d="m27.2 10.8c-.1 0-.1 0 0 0v-2.5-.1h.1.4c.1 0 .1 0 .1.1l.6 1.1.6-1.1c0-.1.1-.1.1-.1h.4.1v.1 2.4.1s0 0-.1 0h-.5s0 0-.1 0c0 0 0 0 0-.1v-1.3l-.4.7c0 .1-.1.1-.1.1h-.2s-.1 0-.1-.1l-.4-.7v1.3.1s0 0-.1 0z"/><path d="m30.5 10.8v-2.5-.1h.1 1.7.1v.1.4.1s0 0-.1 0h-1.2v.5h1.1.1v.1.3.1s0 0-.1 0h-1.1v.5h1.2.1v.1.4.1s0 0-.1 0z"/><path d="m33.1 10.8v-2.5-.1h.1.4c.1 0 .1 0 .1.1l.9 1.4v-1.4-.1h.1.5.1v.1 2.4.1s0 0-.1 0h-.4c-.1 0-.1 0-.1-.1l-.9-1.3v1.3.1s0 0-.1 0h-.6c.1 0 .1 0 0 0z"/><path d="m36.6 10.8v-2h-.6-.1s0 0 0-.1v-.4-.1h.1 2 .1v.1.4.1s0 0-.1 0h-.7v1.9.1s0 0-.1 0h-.6c.1 0 .1 0 0 0z"/><path d="m11.1 14.4c.2 0 .3 0 .3-.1.1-.1.1-.2.1-.4 0-.1 0-.2 0-.3s0-.2 0-.3c0-.2 0-.3-.1-.3-.1-.1-.2-.1-.4-.1h-.4v1.5zm-1 .5v-2.5-.1h.1 1c.4 0 .6.1.9.3.2.2.3.4.3.8v.3.3c0 .7-.4 1-1.2 1l-1.1-.1c0 .1 0 .1 0 0z"/><path d="m12.8 14.9c-.1 0-.1 0 0 0v-2.5-.1h.1 1.7.1v.1.4.1s0 0-.1 0h-1.2v.5h1.1.1v.1.3.1s0 0-.1 0h-1.1v.5h1.2.1v.1.4.1s0 0-.1 0l-1.8-.1c0 .1 0 .1 0 0z"/><path d="m15.4 14.8c-.2-.2-.3-.4-.3-.8v-1.5-.1h.1.5.1v.1 1.5c0 .2 0 .3.1.3.1.1.2.1.3.1s.2 0 .3-.1.1-.2.1-.3v-1.5-.1h.1.5.1v.1 1.5c0 .3-.1.6-.3.8s-.5.3-.8.3c-.3-.1-.6-.2-.8-.3z"/><path d="m18.5 14.9c-.1 0-.1 0 0 0v-2h-.7-.1s0 0 0-.1v-.4-.1h.1 2 .1v.1.4.1s0 0-.1 0h-.7v1.9.1s0 0-.1 0h-.5c0 .1 0 .1 0 0z"/><path d="m20.6 14.9c-.2-.1-.3-.2-.4-.3s-.1-.2-.1-.4c0 0 0 0 0-.1h.1.5.1s0 0 .1.1c0 .1.1.1.2.1s.2.1.3.1.2 0 .3-.1c.1 0 .1-.1.1-.2s0-.1-.1-.1c0 0-.1-.1-.2-.1s-.2-.1-.4-.1c-.3-.1-.5-.1-.7-.3-.1-.1-.2-.3-.2-.5s0-.3.1-.4.2-.2.4-.3.3-.1.5-.1.4 0 .6.1.3.2.4.3.1.2.1.3v.1s0 0-.1 0h-.5c-.1 0-.1 0-.1-.1s-.1-.1-.1-.1c-.1 0-.1-.1-.2-.1s-.2 0-.2.1c-.1 0-.1.1-.1.2s0 .1.1.2c.1 0 .2.1.4.1s.4.1.6.2c.1.1.2.1.3.2s.1.2.1.4 0 .3-.1.4-.2.2-.4.3c-.4.2-.6.2-.8.2s-.4 0-.6-.1z"/><path d="m23 14.8c-.2-.2-.3-.4-.3-.7 0-.1 0-.2 0-.3 0-.2 0-.3 0-.3 0-.3.1-.6.3-.7.2-.2.5-.3.8-.3.2 0 .4 0 .6.1s.3.2.4.3.2.3.2.5v.1s0 0-.1 0h-.5-.1s0 0 0-.1-.1-.2-.2-.3c-.1 0-.2-.1-.3-.1-.3 0-.4.2-.4.5v.3.3c0 .3.2.5.4.5.1 0 .2 0 .3-.1.1 0 .1-.1.2-.3v-.1h.1.5.1v.1c0 .2-.1.3-.2.5-.1.1-.2.2-.4.3-.2 0-.4 0-.6 0-.4 0-.6-.1-.8-.2z"/><path d="m25.4 14.9v-2.5-.1h.1.5.1v.1.9h.9v-.9-.1h.1.5.1v.1 2.4.1s0 0-.1 0h-.6s0 0-.1 0c0 0 0 0 0-.1v-.8h-.9v.9.1s0 0-.1 0l-.5-.1c0 .1 0 .1 0 0z"/><path d="m28.2 14.9v-2.5s0 0 0-.1h.1.5.1v.1 1.9h1.1.1v.1.4.1s0 0-.1 0h-1.8c0 .1 0 .1 0 0z"/><path d="m31.1 14h.7l-.3-1zm-.9.9.8-2.5c0-.1.1-.1.1-.1h.6c.1 0 .1 0 .1.1l.9 2.4v.1s0 0-.1 0h-.5c-.1 0-.1 0-.1-.1v-.3h-1l-.1.4c0 .1-.1.1-.1.1l-.6-.1c0 .1 0 .1 0 0z"/><path d="m33.1 14.9v-2.5-.1h.1.4c.1 0 .1 0 .1.1l.9 1.4v-1.4-.1h.1.5.1v.1 2.4.1s0 0-.1 0h-.4c-.1 0-.1 0-.1-.1l-.9-1.3v1.3.1s0 0-.1 0h-.6c0 .1 0 .1 0 0z"/><path d="m36.8 14.4c.2 0 .3 0 .3-.1.1-.1.1-.2.1-.4 0-.1 0-.2 0-.3s0-.2 0-.3c0-.2 0-.3-.1-.3-.1-.1-.2-.1-.4-.1h-.4v1.5zm-1 .5v-2.5-.1h.1 1c.4 0 .6.1.9.3.2.2.3.4.3.8v.3.3c0 .7-.4 1-1.2 1l-1.1-.1c0 .1 0 .1 0 0z"/></g></svg>