<?xml version="1.0" encoding="utf-8"?>
<!-- Generator: Adobe Illustrator 25.4.1, SVG Export Plug-In . SVG Version: 6.00 Build 0)  -->
<svg version="1.1" id="Ebene_1" xmlns="http://www.w3.org/2000/svg" xmlns:xlink="http://www.w3.org/1999/xlink" x="0px" y="0px"
	 viewBox="0 0 315 129" style="enable-background:new 0 0 315 129;" xml:space="preserve">
<style type="text/css">
	.st0{fill:#FFCC00;}
	.st1{fill:#FF0000;}
</style>
<g id="BWmarke" transform="matrix(5.3057,0,0,5.30435,0,0)">
	<rect x="7.2" y="19.7" class="st0" width="2.7" height="0.5"/>
	<rect x="7.2" y="18.6" class="st1" width="2.7" height="0.5"/>
	<rect x="7.2" y="17.6" width="2.7" height="0.5"/>
	<path d="M11.4,6c0.1-0.1,0.1-0.2,0.1-0.4c0-0.1,0-0.2,0-0.3s0-0.2,0-0.3c0-0.2,0-0.3-0.1-0.4c-0.1-0.1-0.2-0.1-0.3-0.1
		c-0.1,0-0.2,0-0.3,0.1c-0.1,0.1-0.1,0.2-0.1,0.4c0,0.1,0,0.2,0,0.3c0,0.1,0,0.2,0,0.3c0,0.2,0,0.3,0.1,0.4c0.1,0.1,0.2,0.1,0.3,0.1
		C11.3,6.2,11.4,6.1,11.4,6z M10.3,6.5C10.1,6.3,10,6,10,5.7c0-0.1,0-0.2,0-0.3c0-0.1,0-0.3,0-0.3c0-0.3,0.1-0.6,0.3-0.8
		C10.5,4.1,10.8,4,11.1,4c0.3,0,0.6,0.1,0.8,0.3c0.2,0.2,0.3,0.4,0.3,0.8c0,0.1,0,0.3,0,0.3c0,0.1,0,0.2,0,0.3
		c0,0.3-0.1,0.6-0.3,0.8c-0.2,0.2-0.5,0.3-0.8,0.3C10.8,6.7,10.5,6.6,10.3,6.5z"/>
	<path d="M14.1,5.3c0.1,0,0.2,0,0.2-0.1c0.1-0.1,0.1-0.1,0.1-0.2c0-0.1,0-0.2-0.1-0.2c-0.1-0.1-0.1-0.1-0.2-0.1h-0.4v0.6H14.1z
		 M13,6.6C13,6.6,13,6.6,13,6.6l0-2.5c0,0,0-0.1,0-0.1c0,0,0,0,0.1,0h1c0.3,0,0.6,0.1,0.8,0.2c0.2,0.1,0.3,0.4,0.3,0.6
		S15,5.4,14.9,5.6c-0.2,0.1-0.4,0.2-0.8,0.2h-0.4v0.8c0,0,0,0,0,0.1c0,0,0,0-0.1,0L13,6.6C13,6.7,13,6.7,13,6.6z"/>
	<path d="M15.8,6.6C15.7,6.6,15.7,6.6,15.8,6.6l0-2.5c0,0,0-0.1,0-0.1c0,0,0,0,0.1,0h1.7c0,0,0,0,0.1,0c0,0,0,0,0,0.1v0.4
		c0,0,0,0,0,0.1c0,0,0,0-0.1,0h-1.2v0.5h1.1c0,0,0.1,0,0.1,0c0,0,0,0,0,0.1v0.3c0,0,0,0.1,0,0.1c0,0,0,0-0.1,0h-1.1v0.5h1.2
		c0,0,0,0,0.1,0c0,0,0,0,0,0.1v0.4c0,0,0,0,0,0.1c0,0,0,0-0.1,0L15.8,6.6C15.8,6.7,15.8,6.7,15.8,6.6z"/>
	<path d="M18.4,6.6C18.4,6.6,18.4,6.6,18.4,6.6l0-2.5c0,0,0-0.1,0-0.1c0,0,0,0,0.1,0h0.4c0.1,0,0.1,0,0.1,0.1l0.9,1.4V4.2
		c0,0,0-0.1,0-0.1c0,0,0,0,0.1,0h0.5c0,0,0,0,0.1,0c0,0,0,0,0,0.1v2.4c0,0,0,0.1,0,0.1c0,0,0,0-0.1,0H20c-0.1,0-0.1,0-0.1-0.1
		L19,5.3v1.3c0,0,0,0,0,0.1c0,0,0,0-0.1,0L18.4,6.6C18.4,6.7,18.4,6.7,18.4,6.6z"/>
	<path d="M10.3,10.6c-0.2-0.2-0.3-0.4-0.3-0.7c0-0.1,0-0.2,0-0.3c0-0.2,0-0.3,0-0.3c0-0.3,0.1-0.6,0.3-0.7c0.2-0.2,0.5-0.3,0.8-0.3
		c0.2,0,0.4,0,0.6,0.1c0.2,0.1,0.3,0.2,0.4,0.3c0.1,0.1,0.1,0.2,0.1,0.4c0,0,0,0,0,0.1c0,0,0,0-0.1,0h-0.6c0,0,0,0-0.1,0
		c0,0,0,0,0,0c0-0.1-0.1-0.1-0.1-0.2c-0.1,0-0.2-0.1-0.3-0.1c-0.3,0-0.4,0.1-0.4,0.4c0,0.1,0,0.2,0,0.3c0,0.1,0,0.3,0,0.3
		c0,0.3,0.2,0.5,0.5,0.5c0.1,0,0.3,0,0.3-0.1c0.1-0.1,0.1-0.2,0.1-0.3V9.8h-0.3c0,0,0,0-0.1,0c0,0,0,0,0-0.1V9.4c0,0,0,0,0-0.1
		c0,0,0,0,0.1,0h0.9c0,0,0.1,0,0.1,0c0,0,0,0,0,0.1v0.4c0,0.2,0,0.4-0.1,0.5c-0.1,0.2-0.2,0.3-0.4,0.3c-0.2,0.1-0.4,0.1-0.6,0.1
		C10.8,10.9,10.5,10.8,10.3,10.6z"/>
	<path d="M14.4,10.2c0.1-0.1,0.1-0.2,0.1-0.4c0-0.1,0-0.2,0-0.3s0-0.2,0-0.3c0-0.2,0-0.3-0.1-0.4c-0.1-0.1-0.2-0.1-0.3-0.1
		c-0.1,0-0.2,0-0.3,0.1c-0.1,0.1-0.1,0.2-0.1,0.4c0,0.1,0,0.2,0,0.3c0,0.1,0,0.2,0,0.3c0,0.2,0,0.3,0.1,0.4c0.1,0.1,0.2,0.1,0.3,0.1
		C14.2,10.3,14.3,10.3,14.4,10.2z M13.2,10.6c-0.2-0.2-0.3-0.4-0.3-0.8c0-0.1,0-0.2,0-0.3c0-0.1,0-0.3,0-0.3c0-0.3,0.1-0.6,0.3-0.8
		c0.2-0.2,0.5-0.3,0.8-0.3c0.3,0,0.6,0.1,0.8,0.3c0.2,0.2,0.3,0.4,0.3,0.8c0,0.1,0,0.3,0,0.3c0,0.1,0,0.2,0,0.3
		c0,0.3-0.1,0.6-0.3,0.8c-0.2,0.2-0.5,0.3-0.8,0.3C13.7,10.9,13.4,10.8,13.2,10.6z"/>
	<path d="M16.5,10.8C16.5,10.8,16.5,10.7,16.5,10.8l-0.8-2.5l0,0c0,0,0,0,0-0.1c0,0,0,0,0.1,0h0.5c0,0,0.1,0,0.1,0c0,0,0,0,0,0.1
		l0.5,1.7l0.5-1.7c0,0,0-0.1,0-0.1c0,0,0.1,0,0.1,0h0.5c0,0,0,0,0.1,0c0,0,0,0,0,0.1c0,0,0,0,0,0l-0.8,2.4c0,0,0,0.1-0.1,0.1
		c0,0-0.1,0-0.1,0h-0.6C16.6,10.8,16.6,10.8,16.5,10.8z"/>
	<path d="M18.8,10.8C18.7,10.8,18.7,10.8,18.8,10.8l0-2.5c0,0,0-0.1,0-0.1c0,0,0,0,0.1,0h1.7c0,0,0,0,0.1,0c0,0,0,0,0,0.1v0.4
		c0,0,0,0,0,0.1c0,0,0,0-0.1,0h-1.2v0.5h1.1c0,0,0.1,0,0.1,0c0,0,0,0,0,0.1v0.3c0,0,0,0,0,0.1c0,0,0,0-0.1,0h-1.1v0.5h1.2
		c0,0,0.1,0,0.1,0s0,0,0,0.1v0.4c0,0,0,0,0,0.1c0,0,0,0-0.1,0L18.8,10.8C18.8,10.8,18.8,10.8,18.8,10.8z"/>
	<path d="M22.5,9.4c0.1,0,0.2,0,0.2-0.1c0.1-0.1,0.1-0.1,0.1-0.2s0-0.2-0.1-0.2c-0.1-0.1-0.1-0.1-0.2-0.1h-0.4v0.6H22.5z M21.4,10.8
		C21.4,10.8,21.4,10.8,21.4,10.8l0-2.5c0,0,0-0.1,0-0.1c0,0,0,0,0.1,0h1c0.3,0,0.6,0.1,0.8,0.2c0.2,0.1,0.3,0.4,0.3,0.6
		c0,0.2,0,0.3-0.1,0.4c-0.1,0.1-0.2,0.2-0.3,0.3l0.5,0.9c0,0,0,0,0,0c0,0,0,0,0,0.1c0,0,0,0-0.1,0H23c-0.1,0-0.1,0-0.2-0.1l-0.4-0.8
		h-0.4v0.8c0,0,0,0,0,0.1c0,0,0,0-0.1,0L21.4,10.8C21.4,10.8,21.4,10.8,21.4,10.8z"/>
	<path d="M24.2,10.8C24.2,10.8,24.2,10.8,24.2,10.8l0-2.5c0,0,0-0.1,0-0.1c0,0,0,0,0.1,0h0.4c0.1,0,0.1,0,0.1,0.1l0.9,1.4V8.3
		c0,0,0-0.1,0-0.1c0,0,0,0,0.1,0h0.5c0,0,0,0,0.1,0c0,0,0,0,0,0.1v2.4c0,0,0,0,0,0.1c0,0,0,0-0.1,0h-0.4c-0.1,0-0.1,0-0.1-0.1
		l-0.9-1.3v1.3c0,0,0,0,0,0.1c0,0,0,0-0.1,0L24.2,10.8C24.3,10.8,24.3,10.8,24.2,10.8z"/>
	<path d="M27.2,10.8C27.1,10.8,27.1,10.8,27.2,10.8l0-2.5c0,0,0-0.1,0-0.1c0,0,0,0,0.1,0h0.4c0.1,0,0.1,0,0.1,0.1l0.6,1.1l0.6-1.1
		c0-0.1,0.1-0.1,0.1-0.1h0.4c0,0,0.1,0,0.1,0c0,0,0,0,0,0.1v2.4c0,0,0,0,0,0.1c0,0,0,0-0.1,0h-0.5c0,0,0,0-0.1,0c0,0,0,0,0-0.1V9.4
		l-0.4,0.7c0,0.1-0.1,0.1-0.1,0.1h-0.2c0,0-0.1,0-0.1-0.1l-0.4-0.7v1.3c0,0,0,0,0,0.1c0,0,0,0-0.1,0L27.2,10.8
		C27.2,10.8,27.2,10.8,27.2,10.8z"/>
	<path d="M30.5,10.8C30.5,10.8,30.5,10.8,30.5,10.8l0-2.5c0,0,0-0.1,0-0.1c0,0,0,0,0.1,0h1.7c0,0,0,0,0.1,0c0,0,0,0,0,0.1v0.4
		c0,0,0,0,0,0.1c0,0,0,0-0.1,0h-1.2v0.5h1.1c0,0,0.1,0,0.1,0c0,0,0,0,0,0.1v0.3c0,0,0,0,0,0.1c0,0,0,0-0.1,0h-1.1v0.5h1.2
		c0,0,0,0,0.1,0c0,0,0,0,0,0.1v0.4c0,0,0,0,0,0.1c0,0,0,0-0.1,0L30.5,10.8C30.5,10.8,30.5,10.8,30.5,10.8z"/>
	<path d="M33.1,10.8C33.1,10.8,33.1,10.8,33.1,10.8l0-2.5c0,0,0-0.1,0-0.1c0,0,0,0,0.1,0h0.4c0.1,0,0.1,0,0.1,0.1l0.9,1.4V8.3
		c0,0,0-0.1,0-0.1c0,0,0,0,0.1,0h0.5c0,0,0,0,0.1,0c0,0,0,0,0,0.1v2.4c0,0,0,0,0,0.1c0,0,0,0-0.1,0h-0.4c-0.1,0-0.1,0-0.1-0.1
		l-0.9-1.3v1.3c0,0,0,0,0,0.1c0,0,0,0-0.1,0L33.1,10.8C33.2,10.8,33.2,10.8,33.1,10.8z"/>
	<path d="M36.6,10.8C36.6,10.8,36.6,10.8,36.6,10.8l0-2H36c0,0-0.1,0-0.1,0c0,0,0,0,0-0.1V8.3c0,0,0-0.1,0-0.1c0,0,0,0,0.1,0h2
		c0,0,0.1,0,0.1,0c0,0,0,0,0,0.1v0.4c0,0,0,0,0,0.1c0,0,0,0-0.1,0h-0.7v1.9c0,0,0,0,0,0.1c0,0,0,0-0.1,0L36.6,10.8
		C36.7,10.8,36.7,10.8,36.6,10.8z"/>
	<path d="M11.1,14.4c0.2,0,0.3,0,0.3-0.1c0.1-0.1,0.1-0.2,0.1-0.4c0-0.1,0-0.2,0-0.3c0-0.1,0-0.2,0-0.3c0-0.2,0-0.3-0.1-0.3
		c-0.1-0.1-0.2-0.1-0.4-0.1h-0.4v1.5H11.1z M10.1,14.9C10.1,14.9,10,14.9,10.1,14.9l0-2.5c0,0,0-0.1,0-0.1c0,0,0,0,0.1,0h1
		c0.4,0,0.6,0.1,0.9,0.3c0.2,0.2,0.3,0.4,0.3,0.8c0,0.1,0,0.2,0,0.3c0,0.1,0,0.2,0,0.3c0,0.7-0.4,1-1.2,1L10.1,14.9
		C10.1,15,10.1,15,10.1,14.9z"/>
	<path d="M12.8,14.9C12.7,14.9,12.7,14.9,12.8,14.9l0-2.5c0,0,0-0.1,0-0.1c0,0,0,0,0.1,0h1.7c0,0,0.1,0,0.1,0c0,0,0,0,0,0.1v0.4
		c0,0,0,0,0,0.1c0,0,0,0-0.1,0h-1.2v0.5h1.1c0,0,0,0,0.1,0c0,0,0,0,0,0.1v0.3c0,0,0,0.1,0,0.1c0,0,0,0-0.1,0h-1.1v0.5h1.2
		c0,0,0.1,0,0.1,0c0,0,0,0,0,0.1v0.4c0,0,0,0,0,0.1c0,0,0,0-0.1,0L12.8,14.9C12.8,15,12.8,15,12.8,14.9z"/>
	<path d="M15.4,14.8c-0.2-0.2-0.3-0.4-0.3-0.8v-1.5c0,0,0-0.1,0-0.1c0,0,0,0,0.1,0h0.5c0,0,0,0,0.1,0c0,0,0,0,0,0.1V14
		c0,0.2,0,0.3,0.1,0.3c0.1,0.1,0.2,0.1,0.3,0.1c0.1,0,0.2,0,0.3-0.1c0.1-0.1,0.1-0.2,0.1-0.3v-1.5c0,0,0-0.1,0-0.1c0,0,0,0,0.1,0
		h0.5c0,0,0.1,0,0.1,0c0,0,0,0,0,0.1V14c0,0.3-0.1,0.6-0.3,0.8c-0.2,0.2-0.5,0.3-0.8,0.3C15.9,15,15.6,14.9,15.4,14.8z"/>
	<path d="M18.5,14.9C18.4,14.9,18.4,14.9,18.5,14.9l0-2h-0.7c0,0-0.1,0-0.1,0c0,0,0,0,0-0.1v-0.4c0,0,0-0.1,0-0.1c0,0,0,0,0.1,0h2
		c0,0,0.1,0,0.1,0c0,0,0,0,0,0.1v0.4c0,0,0,0,0,0.1c0,0,0,0-0.1,0h-0.7v1.9c0,0,0,0,0,0.1c0,0,0,0-0.1,0L18.5,14.9
		C18.5,15,18.5,15,18.5,14.9z"/>
	<path d="M20.6,14.9c-0.2-0.1-0.3-0.2-0.4-0.3c-0.1-0.1-0.1-0.2-0.1-0.4c0,0,0,0,0-0.1c0,0,0,0,0.1,0h0.5c0,0,0.1,0,0.1,0
		c0,0,0,0,0.1,0.1c0,0.1,0.1,0.1,0.2,0.1c0.1,0,0.2,0.1,0.3,0.1c0.1,0,0.2,0,0.3-0.1c0.1,0,0.1-0.1,0.1-0.2c0-0.1,0-0.1-0.1-0.1
		c0,0-0.1-0.1-0.2-0.1c-0.1,0-0.2-0.1-0.4-0.1c-0.3-0.1-0.5-0.1-0.7-0.3c-0.1-0.1-0.2-0.3-0.2-0.5c0-0.2,0-0.3,0.1-0.4
		c0.1-0.1,0.2-0.2,0.4-0.3c0.2-0.1,0.3-0.1,0.5-0.1c0.2,0,0.4,0,0.6,0.1c0.2,0.1,0.3,0.2,0.4,0.3c0.1,0.1,0.1,0.2,0.1,0.3
		c0,0,0,0,0,0.1c0,0,0,0-0.1,0h-0.5c-0.1,0-0.1,0-0.1-0.1c0-0.1-0.1-0.1-0.1-0.1c-0.1,0-0.1-0.1-0.2-0.1c-0.1,0-0.2,0-0.2,0.1
		c-0.1,0-0.1,0.1-0.1,0.2c0,0.1,0,0.1,0.1,0.2c0.1,0,0.2,0.1,0.4,0.1c0.2,0,0.4,0.1,0.6,0.2c0.1,0.1,0.2,0.1,0.3,0.2
		c0.1,0.1,0.1,0.2,0.1,0.4c0,0.2,0,0.3-0.1,0.4c-0.1,0.1-0.2,0.2-0.4,0.3C21.6,15,21.4,15,21.2,15C21,15,20.8,15,20.6,14.9z"/>
	<path d="M23,14.8c-0.2-0.2-0.3-0.4-0.3-0.7c0-0.1,0-0.2,0-0.3c0-0.2,0-0.3,0-0.3c0-0.3,0.1-0.6,0.3-0.7c0.2-0.2,0.5-0.3,0.8-0.3
		c0.2,0,0.4,0,0.6,0.1c0.2,0.1,0.3,0.2,0.4,0.3c0.1,0.1,0.2,0.3,0.2,0.5c0,0,0,0,0,0.1c0,0,0,0-0.1,0h-0.5c0,0-0.1,0-0.1,0
		c0,0,0,0,0-0.1c0-0.1-0.1-0.2-0.2-0.3c-0.1,0-0.2-0.1-0.3-0.1c-0.3,0-0.4,0.2-0.4,0.5c0,0.1,0,0.2,0,0.3c0,0.1,0,0.2,0,0.3
		c0,0.3,0.2,0.5,0.4,0.5c0.1,0,0.2,0,0.3-0.1c0.1,0,0.1-0.1,0.2-0.3c0,0,0-0.1,0-0.1c0,0,0,0,0.1,0h0.5c0,0,0,0,0.1,0c0,0,0,0,0,0.1
		c0,0.2-0.1,0.3-0.2,0.5c-0.1,0.1-0.2,0.2-0.4,0.3C24.2,15,24,15,23.8,15C23.4,15,23.2,14.9,23,14.8z"/>
	<path d="M25.4,14.9C25.4,14.9,25.4,14.9,25.4,14.9l0-2.5c0,0,0-0.1,0-0.1c0,0,0,0,0.1,0H26c0,0,0.1,0,0.1,0c0,0,0,0,0,0.1v0.9h0.9
		v-0.9c0,0,0-0.1,0-0.1c0,0,0,0,0.1,0h0.5c0,0,0,0,0.1,0c0,0,0,0,0,0.1v2.4c0,0,0,0,0,0.1c0,0,0,0-0.1,0H27c0,0,0,0-0.1,0
		c0,0,0,0,0-0.1V14H26v0.9c0,0,0,0,0,0.1c0,0,0,0-0.1,0L25.4,14.9C25.4,15,25.4,15,25.4,14.9z"/>
	<path d="M28.2,14.9C28.2,14.9,28.1,14.9,28.2,14.9l0-2.5c0,0,0,0,0-0.1c0,0,0,0,0.1,0h0.5c0,0,0,0,0.1,0c0,0,0,0,0,0.1v1.9H30
		c0,0,0,0,0.1,0c0,0,0,0,0,0.1v0.4c0,0,0,0,0,0.1c0,0,0,0-0.1,0L28.2,14.9C28.2,15,28.2,15,28.2,14.9z"/>
	<path d="M31.1,14h0.7L31.5,13L31.1,14z M30.2,14.9C30.2,14.9,30.2,14.9,30.2,14.9C30.2,14.9,30.2,14.9,30.2,14.9l0.8-2.5
		c0-0.1,0.1-0.1,0.1-0.1h0.6c0.1,0,0.1,0,0.1,0.1l0.9,2.4c0,0,0,0,0,0c0,0,0,0,0,0.1c0,0,0,0-0.1,0h-0.5c-0.1,0-0.1,0-0.1-0.1
		L32,14.5h-1l-0.1,0.4c0,0.1-0.1,0.1-0.1,0.1L30.2,14.9C30.2,15,30.2,15,30.2,14.9z"/>
	<path d="M33.1,14.9C33.1,14.9,33.1,14.9,33.1,14.9l0-2.5c0,0,0-0.1,0-0.1c0,0,0,0,0.1,0h0.4c0.1,0,0.1,0,0.1,0.1l0.9,1.4v-1.4
		c0,0,0-0.1,0-0.1c0,0,0,0,0.1,0h0.5c0,0,0,0,0.1,0c0,0,0,0,0,0.1v2.4c0,0,0,0,0,0.1c0,0,0,0-0.1,0h-0.4c-0.1,0-0.1,0-0.1-0.1
		l-0.9-1.3v1.3c0,0,0,0,0,0.1c0,0,0,0-0.1,0L33.1,14.9C33.1,15,33.1,15,33.1,14.9z"/>
	<path d="M36.8,14.4c0.2,0,0.3,0,0.3-0.1c0.1-0.1,0.1-0.2,0.1-0.4c0-0.1,0-0.2,0-0.3c0-0.1,0-0.2,0-0.3c0-0.2,0-0.3-0.1-0.3
		c-0.1-0.1-0.2-0.1-0.4-0.1h-0.4v1.5H36.8z M35.8,14.9C35.8,14.9,35.8,14.9,35.8,14.9l0-2.5c0,0,0-0.1,0-0.1c0,0,0,0,0.1,0h1
		c0.4,0,0.6,0.1,0.9,0.3c0.2,0.2,0.3,0.4,0.3,0.8c0,0.1,0,0.2,0,0.3c0,0.1,0,0.2,0,0.3c0,0.7-0.4,1-1.2,1L35.8,14.9
		C35.8,15,35.8,15,35.8,14.9z"/>
</g>
</svg>
